%FSLAX45Y45*%
G04 Gerber Fmt 4.5, Leading zero omitted, Abs format (unit mm)*
G04 Created by KiCad (PCBNEW (5.1.4)-1) date 2020-11-17 13:56:02*
%MOMM*%
%LPD*%
G04 APERTURE LIST*
%ADD10C,0.200000*%
%ADD11C,0.300000*%
G04 APERTURE END LIST*
D10*
X15064109Y-5304858D02*
G75*
G03X15064109Y-5304858I-120000J0D01*
G01*
X4685956Y-5304858D02*
G75*
G03X4685956Y-5304858I-120000J0D01*
G01*
X15064063Y-12189776D02*
G75*
G03X15064063Y-12189776I-120000J0D01*
G01*
X2310663Y-12194513D02*
G75*
G03X2310663Y-12194513I-120000J0D01*
G01*
X2308183Y-9593434D02*
G75*
G03X2308183Y-9593434I-120000J0D01*
G01*
X4265956Y-5304753D02*
G75*
G02X4565956Y-5004858I300000J-105D01*
G01*
X14944109Y-5004858D02*
G75*
G02X15244109Y-5304860I0J-300000D01*
G01*
X15244063Y-12189778D02*
G75*
G02X14944175Y-12489776I-300000J2D01*
G01*
X2190774Y-12494513D02*
G75*
G02X1890663Y-12194799I-111J300000D01*
G01*
X1888183Y-9593720D02*
G75*
G02X2188183Y-9293434I300000J286D01*
G01*
X1888183Y-9593720D02*
X1890663Y-12194799D01*
X2190774Y-12494513D02*
X14944175Y-12489776D01*
X15244109Y-5304860D02*
X15244063Y-12189778D01*
X4565956Y-5004858D02*
X14944109Y-5004858D01*
X4264555Y-9293434D02*
X4265956Y-5304753D01*
X2188183Y-9293434D02*
X4264555Y-9293434D01*
X14266153Y-5896754D02*
X14266273Y-5956663D01*
X12866198Y-5897939D02*
X14266153Y-5896754D01*
X12866272Y-5958022D02*
X12866198Y-5897939D01*
X12786247Y-5958050D02*
X12866272Y-5958022D01*
X12787402Y-7238016D02*
X12786247Y-5958050D01*
X12867410Y-7238014D02*
X12787402Y-7238016D01*
X12867540Y-7297925D02*
X12867410Y-7238014D01*
X14267482Y-7296747D02*
X12867540Y-7297925D01*
X14267411Y-7236655D02*
X14267482Y-7296747D01*
X14347437Y-7236627D02*
X14267411Y-7236655D01*
X14346298Y-5956635D02*
X14347437Y-7236627D01*
X14266273Y-5956663D02*
X14346298Y-5956635D01*
X12361316Y-5898346D02*
X12361265Y-5958395D01*
X10961309Y-5899693D02*
X12361316Y-5898346D01*
X10961310Y-5959580D02*
X10961309Y-5899693D01*
X10881268Y-5959749D02*
X10961310Y-5959580D01*
X10882377Y-7239733D02*
X10881268Y-5959749D01*
X10962422Y-7239710D02*
X10882377Y-7239733D01*
X10962523Y-7299655D02*
X10962422Y-7239710D01*
X12362485Y-7298441D02*
X10962523Y-7299655D01*
X12362403Y-7238388D02*
X12362485Y-7298441D01*
X12442428Y-7238360D02*
X12362403Y-7238388D01*
X12441281Y-5958365D02*
X12442428Y-7238360D01*
X12361265Y-5958395D02*
X12441281Y-5958365D01*
X10456263Y-5900211D02*
X10456267Y-5960089D01*
X9056308Y-5901396D02*
X10456263Y-5900211D01*
X9056266Y-5961448D02*
X9056308Y-5901396D01*
X8976221Y-5961471D02*
X9056266Y-5961448D01*
X8977369Y-7241466D02*
X8976221Y-5961471D01*
X9057385Y-7241435D02*
X8977369Y-7241466D01*
X9057525Y-7301349D02*
X9057385Y-7241435D01*
X10457477Y-7300173D02*
X9057525Y-7301349D01*
X10457386Y-7240076D02*
X10457477Y-7300173D01*
X10537421Y-7240051D02*
X10457386Y-7240076D01*
X10536273Y-5960056D02*
X10537421Y-7240051D01*
X10456267Y-5960089D02*
X10536273Y-5960056D01*
X8551301Y-5901770D02*
X8551259Y-5961821D01*
X7151302Y-5903119D02*
X8551301Y-5901770D01*
X7151304Y-5963006D02*
X7151302Y-5903119D01*
X7071259Y-5963029D02*
X7151304Y-5963006D01*
X7072381Y-7243162D02*
X7071259Y-5963029D01*
X7152423Y-7242994D02*
X7072381Y-7243162D01*
X7152516Y-7303081D02*
X7152423Y-7242994D01*
X8552515Y-7301732D02*
X7152516Y-7303081D01*
X8552378Y-7241809D02*
X8552515Y-7301732D01*
X8632423Y-7241786D02*
X8552378Y-7241809D01*
X8631265Y-5961788D02*
X8632423Y-7241786D01*
X8551259Y-5961821D02*
X8631265Y-5961788D01*
X14267866Y-7801757D02*
X14267986Y-7861666D01*
X12867911Y-7802942D02*
X14267866Y-7801757D01*
X12867985Y-7863025D02*
X12867911Y-7802942D01*
X12787969Y-7863055D02*
X12867985Y-7863025D01*
X12789108Y-9143048D02*
X12787969Y-7863055D01*
X12869123Y-9143017D02*
X12789108Y-9143048D01*
X12869118Y-9202892D02*
X12869123Y-9143017D01*
X14269202Y-9201752D02*
X12869118Y-9202892D01*
X14269129Y-9141659D02*
X14269202Y-9201752D01*
X14349153Y-9141631D02*
X14269129Y-9141659D01*
X14348015Y-7861639D02*
X14349153Y-9141631D01*
X14267986Y-7861666D02*
X14348015Y-7861639D01*
X6646256Y-5903638D02*
X6646261Y-5963515D01*
X5246186Y-5904792D02*
X6646256Y-5903638D01*
X5246325Y-5964747D02*
X5246186Y-5904792D01*
X5166177Y-5964887D02*
X5246325Y-5964747D01*
X5167334Y-7244884D02*
X5166177Y-5964887D01*
X5247379Y-7244861D02*
X5167334Y-7244884D01*
X5247519Y-7304775D02*
X5247379Y-7244861D01*
X6647470Y-7303600D02*
X5247519Y-7304775D01*
X6647380Y-7243503D02*
X6647470Y-7303600D01*
X6727425Y-7243480D02*
X6647380Y-7243503D01*
X6726293Y-5963385D02*
X6727425Y-7243480D01*
X6646261Y-5963515D02*
X6726293Y-5963385D01*
X12362904Y-7803316D02*
X12362978Y-7863398D01*
X10962896Y-7804662D02*
X12362904Y-7803316D01*
X10963043Y-7864588D02*
X10962896Y-7804662D01*
X10882962Y-7864746D02*
X10963043Y-7864588D01*
X10884110Y-9144741D02*
X10882962Y-7864746D01*
X10964116Y-9144708D02*
X10884110Y-9144741D01*
X10964219Y-9204799D02*
X10964116Y-9144708D01*
X12364063Y-9203408D02*
X10964219Y-9204799D01*
X12364080Y-9143526D02*
X12364063Y-9203408D01*
X12444142Y-9143363D02*
X12364080Y-9143526D01*
X12443003Y-7863370D02*
X12444142Y-9143363D01*
X12362978Y-7863398D02*
X12443003Y-7863370D01*
X10457850Y-7805181D02*
X10457950Y-7865125D01*
X9057898Y-7806356D02*
X10457850Y-7805181D01*
X9057960Y-7866446D02*
X9057898Y-7806356D01*
X8977954Y-7866479D02*
X9057960Y-7866446D01*
X8979237Y-9146510D02*
X8977954Y-7866479D01*
X9059118Y-9146443D02*
X8979237Y-9146510D01*
X9059219Y-9206347D02*
X9059118Y-9146443D01*
X10459170Y-9205171D02*
X9059219Y-9206347D01*
X10459109Y-9145082D02*
X10459170Y-9205171D01*
X10539125Y-9145051D02*
X10459109Y-9145082D01*
X10537995Y-7865103D02*
X10539125Y-9145051D01*
X10457950Y-7865125D02*
X10537995Y-7865103D01*
X8552881Y-7806768D02*
X8553088Y-7866855D01*
X7152900Y-7808091D02*
X8552881Y-7806768D01*
X7152990Y-7868033D02*
X7152900Y-7808091D01*
X7072982Y-7868076D02*
X7152990Y-7868033D01*
X7074075Y-9148160D02*
X7072982Y-7868076D01*
X7154156Y-9148002D02*
X7074075Y-9148160D01*
X7154210Y-9208079D02*
X7154156Y-9148002D01*
X8554173Y-9206865D02*
X7154210Y-9208079D01*
X8554101Y-9146814D02*
X8554173Y-9206865D01*
X8634116Y-9146784D02*
X8554101Y-9146814D01*
X8632997Y-7866796D02*
X8634116Y-9146784D01*
X8553088Y-7866855D02*
X8632997Y-7866796D01*
X14269583Y-9706761D02*
X14269695Y-9766709D01*
X12869637Y-9707938D02*
X14269583Y-9706761D01*
X12869708Y-9768030D02*
X12869637Y-9707938D01*
X12789682Y-9768058D02*
X12869708Y-9768030D01*
X12790823Y-11048041D02*
X12789682Y-9768058D01*
X12870849Y-11048013D02*
X12790823Y-11048041D01*
X12870961Y-11107951D02*
X12870849Y-11048013D01*
X14270919Y-11106746D02*
X12870961Y-11107951D01*
X14270844Y-11046663D02*
X14270919Y-11106746D01*
X14350867Y-11046634D02*
X14270844Y-11046663D01*
X14349588Y-9766635D02*
X14350867Y-11046634D01*
X14269695Y-9766709D02*
X14349588Y-9766635D01*
X6647844Y-7808607D02*
X6647944Y-7868552D01*
X5247892Y-7809824D02*
X6647844Y-7808607D01*
X5247954Y-7869872D02*
X5247892Y-7809824D01*
X5167948Y-7869905D02*
X5247954Y-7869872D01*
X5169067Y-9149893D02*
X5167948Y-7869905D01*
X5249112Y-9149870D02*
X5169067Y-9149893D01*
X5249217Y-9209795D02*
X5249112Y-9149870D01*
X6649164Y-9208598D02*
X5249217Y-9209795D01*
X6649237Y-9148586D02*
X6649164Y-9208598D01*
X6729108Y-9148516D02*
X6649237Y-9148586D01*
X6727989Y-7868529D02*
X6729108Y-9148516D01*
X6647944Y-7868552D02*
X6727989Y-7868529D01*
X12364745Y-9708384D02*
X12364691Y-9768401D01*
X10964629Y-9709671D02*
X12364745Y-9708384D01*
X10964729Y-9769615D02*
X10964629Y-9709671D01*
X10884694Y-9769755D02*
X10964729Y-9769615D01*
X10885808Y-11049761D02*
X10884694Y-9769755D01*
X10965836Y-11049724D02*
X10885808Y-11049761D01*
X10965922Y-11109799D02*
X10965836Y-11049724D01*
X12365908Y-11108457D02*
X10965922Y-11109799D01*
X12365793Y-11048529D02*
X12365908Y-11108457D01*
X12445720Y-11048330D02*
X12365793Y-11048529D01*
X12444717Y-9768373D02*
X12445720Y-11048330D01*
X12364691Y-9768401D02*
X12444717Y-9768373D01*
X10459689Y-9710217D02*
X10459683Y-9770134D01*
X9059620Y-9711403D02*
X10459689Y-9710217D01*
X9059692Y-9771454D02*
X9059620Y-9711403D01*
X8979686Y-9771487D02*
X9059692Y-9771454D01*
X8980795Y-11051472D02*
X8979686Y-9771487D01*
X9060840Y-11051449D02*
X8980795Y-11051472D01*
X9060811Y-11111338D02*
X9060840Y-11051449D01*
X10460903Y-11110180D02*
X9060811Y-11111338D01*
X10460836Y-11050109D02*
X10460903Y-11110180D01*
X10540842Y-11050076D02*
X10460836Y-11050109D01*
X10539692Y-9770091D02*
X10540842Y-11050076D01*
X10459683Y-9770134D02*
X10539692Y-9770091D01*
X8554719Y-9711805D02*
X8554685Y-9771828D01*
X7154591Y-9713099D02*
X8554719Y-9711805D01*
X7154723Y-9773042D02*
X7154591Y-9713099D01*
X7074645Y-9773190D02*
X7154723Y-9773042D01*
X7075802Y-11053188D02*
X7074645Y-9773190D01*
X7155844Y-11053019D02*
X7075802Y-11053188D01*
X7155805Y-11113061D02*
X7155844Y-11053019D01*
X8555900Y-11111893D02*
X7155805Y-11113061D01*
X8555804Y-11051815D02*
X8555900Y-11111893D01*
X8635882Y-11051666D02*
X8555804Y-11051815D01*
X8634827Y-9771830D02*
X8635882Y-11051666D01*
X8554685Y-9771828D02*
X8634827Y-9771830D01*
X6649683Y-9713644D02*
X6649679Y-9773550D01*
X5249588Y-9714812D02*
X6649683Y-9713644D01*
X5249686Y-9774880D02*
X5249588Y-9714812D01*
X5169639Y-9774913D02*
X5249686Y-9774880D01*
X5170799Y-11054901D02*
X5169639Y-9774913D01*
X5250805Y-11054868D02*
X5170799Y-11054901D01*
X5250802Y-11114774D02*
X5250805Y-11054868D01*
X6650897Y-11113606D02*
X5250802Y-11114774D01*
X6650798Y-11053538D02*
X6650897Y-11113606D01*
X6730846Y-11053505D02*
X6650798Y-11053538D01*
X6729686Y-9773517D02*
X6730846Y-11053505D01*
X6649679Y-9773550D02*
X6729686Y-9773517D01*
X4268726Y-10191900D02*
X4268930Y-10251996D01*
X2868737Y-10193096D02*
X4268726Y-10191900D01*
X2868845Y-10253167D02*
X2868737Y-10193096D01*
X2788829Y-10253198D02*
X2868845Y-10253167D01*
X2790083Y-11533221D02*
X2788829Y-10253198D01*
X2870100Y-11533188D02*
X2790083Y-11533221D01*
X2870145Y-11593107D02*
X2870100Y-11533188D01*
X4270056Y-11591891D02*
X2870145Y-11593107D01*
X4270094Y-11531855D02*
X4270056Y-11591891D01*
X4350003Y-11531797D02*
X4270094Y-11531855D01*
X4348883Y-10251815D02*
X4350003Y-11531797D01*
X4268930Y-10251996D02*
X4348883Y-10251815D01*
D10*
D11*
X2164611Y-12970228D02*
X2164611Y-12670228D01*
X2236040Y-12670228D01*
X2278897Y-12684513D01*
X2307468Y-12713085D01*
X2321754Y-12741656D01*
X2336040Y-12798799D01*
X2336040Y-12841656D01*
X2321754Y-12898799D01*
X2307468Y-12927371D01*
X2278897Y-12955942D01*
X2236040Y-12970228D01*
X2164611Y-12970228D01*
X2464611Y-12970228D02*
X2464611Y-12770228D01*
X2464611Y-12827371D02*
X2478897Y-12798799D01*
X2493183Y-12784513D01*
X2521754Y-12770228D01*
X2550325Y-12770228D01*
X2650325Y-12970228D02*
X2650325Y-12770228D01*
X2650325Y-12670228D02*
X2636040Y-12684513D01*
X2650325Y-12698799D01*
X2664611Y-12684513D01*
X2650325Y-12670228D01*
X2650325Y-12698799D01*
X2836040Y-12970228D02*
X2807468Y-12955942D01*
X2793183Y-12927371D01*
X2793183Y-12670228D01*
X2993182Y-12970228D02*
X2964611Y-12955942D01*
X2950325Y-12927371D01*
X2950325Y-12670228D01*
X3336040Y-12970228D02*
X3336040Y-12670228D01*
X3436040Y-12884513D01*
X3536040Y-12670228D01*
X3536040Y-12970228D01*
X3807468Y-12970228D02*
X3807468Y-12813085D01*
X3793182Y-12784513D01*
X3764611Y-12770228D01*
X3707468Y-12770228D01*
X3678897Y-12784513D01*
X3807468Y-12955942D02*
X3778897Y-12970228D01*
X3707468Y-12970228D01*
X3678897Y-12955942D01*
X3664611Y-12927371D01*
X3664611Y-12898799D01*
X3678897Y-12870228D01*
X3707468Y-12855942D01*
X3778897Y-12855942D01*
X3807468Y-12841656D01*
X3950325Y-12770228D02*
X3950325Y-13070228D01*
X3950325Y-12784513D02*
X3978897Y-12770228D01*
X4036040Y-12770228D01*
X4064611Y-12784513D01*
X4078897Y-12798799D01*
X4093182Y-12827371D01*
X4093182Y-12913085D01*
X4078897Y-12941656D01*
X4064611Y-12955942D01*
X4036040Y-12970228D01*
X3978897Y-12970228D01*
X3950325Y-12955942D01*
X4221754Y-12941656D02*
X4236040Y-12955942D01*
X4221754Y-12970228D01*
X4207468Y-12955942D01*
X4221754Y-12941656D01*
X4221754Y-12970228D01*
X4221754Y-12784513D02*
X4236040Y-12798799D01*
X4221754Y-12813085D01*
X4207468Y-12798799D01*
X4221754Y-12784513D01*
X4221754Y-12813085D01*
M02*
