G04 #@! TF.GenerationSoftware,KiCad,Pcbnew,(5.1.9)-1*
G04 #@! TF.CreationDate,2021-01-20T18:14:42-05:00*
G04 #@! TF.ProjectId,Plate,506c6174-652e-46b6-9963-61645f706362,rev?*
G04 #@! TF.SameCoordinates,Original*
G04 #@! TF.FileFunction,Copper,L1,Top*
G04 #@! TF.FilePolarity,Positive*
%FSLAX46Y46*%
G04 Gerber Fmt 4.6, Leading zero omitted, Abs format (unit mm)*
G04 Created by KiCad (PCBNEW (5.1.9)-1) date 2021-01-20 18:14:42*
%MOMM*%
%LPD*%
G01*
G04 APERTURE LIST*
G04 #@! TA.AperFunction,EtchedComponent*
%ADD10C,0.100000*%
G04 #@! TD*
G04 #@! TA.AperFunction,EtchedComponent*
%ADD11C,0.010000*%
G04 #@! TD*
G04 #@! TA.AperFunction,ComponentPad*
%ADD12C,4.400000*%
G04 #@! TD*
G04 #@! TA.AperFunction,ComponentPad*
%ADD13C,0.700000*%
G04 #@! TD*
G04 APERTURE END LIST*
D10*
X150249308Y-111096338D02*
X164248608Y-111096338D01*
X149498508Y-110456838D02*
X150299308Y-110456838D01*
X164298608Y-110456838D02*
X165099608Y-110456838D01*
X150249308Y-97696238D02*
X149448508Y-97696238D01*
X166549333Y-97597038D02*
X166549333Y-110596238D01*
X164298608Y-111056338D02*
X164298608Y-110456838D01*
X149448508Y-110496838D02*
X150249308Y-110496838D01*
X164248608Y-97696238D02*
X164248608Y-97096938D01*
X164298608Y-97656238D02*
X164298608Y-97056938D01*
X150299308Y-110456838D02*
X150299308Y-111056338D01*
X165099608Y-97656238D02*
X164298608Y-97656238D01*
X149998543Y-112556238D02*
X164599333Y-112556238D01*
X164298608Y-97056938D02*
X150299308Y-97056938D01*
X150299308Y-97656238D02*
X149498508Y-97656238D01*
X150249308Y-110496838D02*
X150249308Y-111096338D01*
X150249308Y-97096938D02*
X150249308Y-97696238D01*
X149448508Y-97696238D02*
X149448508Y-110496838D01*
X147998543Y-97557038D02*
X147998543Y-110556238D01*
X149998543Y-95557038D02*
X164599333Y-95557038D01*
X165049608Y-110496838D02*
X165049608Y-97696238D01*
X149498508Y-97656238D02*
X149498508Y-110456838D01*
X165049608Y-97696238D02*
X164248608Y-97696238D01*
X164248608Y-110496838D02*
X165049608Y-110496838D01*
X150299308Y-111056338D02*
X164298608Y-111056338D01*
X164248608Y-111096338D02*
X164248608Y-110496838D01*
X165099608Y-110456838D02*
X165099608Y-97656238D01*
X166599333Y-97557038D02*
X166599333Y-110556238D01*
X164248608Y-97096938D02*
X150249308Y-97096938D01*
X150299308Y-97056938D02*
X150299308Y-97656238D01*
X149948543Y-112596238D02*
X164549333Y-112596238D01*
X149948543Y-95597038D02*
X164549333Y-95597038D01*
X147948543Y-97597038D02*
X147948543Y-110596238D01*
X149498508Y-110456838D02*
X150299308Y-110456838D01*
X150299308Y-110456838D02*
X150299308Y-111056338D01*
X149498508Y-97656238D02*
X149498508Y-110456838D01*
X164298608Y-111056338D02*
X164298608Y-110456838D01*
X164298608Y-97656238D02*
X164298608Y-97056938D01*
X150299308Y-97656238D02*
X149498508Y-97656238D01*
X165099608Y-110456838D02*
X165099608Y-97656238D01*
X164298608Y-97056938D02*
X150299308Y-97056938D01*
X164298608Y-110456838D02*
X165099608Y-110456838D01*
X150299308Y-97056938D02*
X150299308Y-97656238D01*
X165099608Y-97656238D02*
X164298608Y-97656238D01*
X150299308Y-111056338D02*
X164298608Y-111056338D01*
X149998543Y-112556238D02*
X164599333Y-112556238D01*
X166599333Y-97557038D02*
X166599333Y-110556238D01*
X149998543Y-95557038D02*
X164599333Y-95557038D01*
X147998543Y-97557038D02*
X147998543Y-110556238D01*
D11*
G36*
X165170000Y-95630000D02*
G01*
X165770000Y-95910000D01*
X166190000Y-96330000D01*
X166500000Y-96980000D01*
X166600000Y-97490000D01*
X166610000Y-98380000D01*
X166610000Y-110670000D01*
X166450000Y-111360000D01*
X166040000Y-112000000D01*
X165320000Y-112460000D01*
X164050000Y-112580000D01*
X149880000Y-112550000D01*
X149370000Y-112470000D01*
X148800000Y-112170000D01*
X148420000Y-111790000D01*
X148180000Y-111390000D01*
X148050000Y-111030000D01*
X148000000Y-110270000D01*
X148000000Y-105690000D01*
X147990000Y-97560000D01*
X149500000Y-97650000D01*
X149500000Y-110460000D01*
X150290000Y-110460000D01*
X150300000Y-111050000D01*
X164290000Y-111050000D01*
X164300000Y-110460000D01*
X165110000Y-110450000D01*
X165100000Y-97670000D01*
X164300000Y-97660000D01*
X164300000Y-97070000D01*
X150290000Y-97070000D01*
X150290000Y-95550000D01*
X164640000Y-95540000D01*
X165170000Y-95630000D01*
G37*
X165170000Y-95630000D02*
X165770000Y-95910000D01*
X166190000Y-96330000D01*
X166500000Y-96980000D01*
X166600000Y-97490000D01*
X166610000Y-98380000D01*
X166610000Y-110670000D01*
X166450000Y-111360000D01*
X166040000Y-112000000D01*
X165320000Y-112460000D01*
X164050000Y-112580000D01*
X149880000Y-112550000D01*
X149370000Y-112470000D01*
X148800000Y-112170000D01*
X148420000Y-111790000D01*
X148180000Y-111390000D01*
X148050000Y-111030000D01*
X148000000Y-110270000D01*
X148000000Y-105690000D01*
X147990000Y-97560000D01*
X149500000Y-97650000D01*
X149500000Y-110460000D01*
X150290000Y-110460000D01*
X150300000Y-111050000D01*
X164290000Y-111050000D01*
X164300000Y-110460000D01*
X165110000Y-110450000D01*
X165100000Y-97670000D01*
X164300000Y-97660000D01*
X164300000Y-97070000D01*
X150290000Y-97070000D01*
X150290000Y-95550000D01*
X164640000Y-95540000D01*
X165170000Y-95630000D01*
G36*
X150300000Y-97670000D02*
G01*
X147980000Y-97650000D01*
X148050000Y-97060000D01*
X148350000Y-96420000D01*
X148630000Y-96070000D01*
X149040000Y-95820000D01*
X149690000Y-95580000D01*
X150290000Y-95540000D01*
X150300000Y-97670000D01*
G37*
X150300000Y-97670000D02*
X147980000Y-97650000D01*
X148050000Y-97060000D01*
X148350000Y-96420000D01*
X148630000Y-96070000D01*
X149040000Y-95820000D01*
X149690000Y-95580000D01*
X150290000Y-95540000D01*
X150300000Y-97670000D01*
D10*
X165049608Y-110496838D02*
X165049608Y-97696238D01*
X149448508Y-110496838D02*
X150249308Y-110496838D01*
X164248608Y-97096938D02*
X150249308Y-97096938D01*
X164248608Y-110496838D02*
X165049608Y-110496838D01*
X165049608Y-97696238D02*
X164248608Y-97696238D01*
X164248608Y-111096338D02*
X164248608Y-110496838D01*
X150249308Y-97096938D02*
X150249308Y-97696238D01*
X150249308Y-111096338D02*
X164248608Y-111096338D01*
X150249308Y-110496838D02*
X150249308Y-111096338D01*
X150249308Y-97696238D02*
X149448508Y-97696238D01*
X164248608Y-97696238D02*
X164248608Y-97096938D01*
X149448508Y-97696238D02*
X149448508Y-110496838D01*
X166549333Y-97597038D02*
X166549333Y-110596238D01*
X149948543Y-112596238D02*
X164549333Y-112596238D01*
X149948543Y-95597038D02*
X164549333Y-95597038D01*
X147948543Y-97597038D02*
X147948543Y-110596238D01*
X147948543Y-97597038D02*
G75*
G02*
X149948543Y-95597038I2000000J0D01*
G01*
X149948543Y-112596238D02*
G75*
G02*
X147948543Y-110596238I0J2000000D01*
G01*
X164549333Y-95597038D02*
G75*
G02*
X166549333Y-97597038I0J-2000000D01*
G01*
X166549333Y-110596238D02*
G75*
G02*
X164549333Y-112596238I-2000000J0D01*
G01*
X149998543Y-112556238D02*
G75*
G02*
X147998543Y-110556238I0J2000000D01*
G01*
X166599333Y-110556238D02*
G75*
G02*
X164599333Y-112556238I-2000000J0D01*
G01*
X164599333Y-95557038D02*
G75*
G02*
X166599333Y-97557038I0J-2000000D01*
G01*
X147998543Y-97557038D02*
G75*
G02*
X149998543Y-95557038I2000000J0D01*
G01*
X149948543Y-112596238D02*
G75*
G02*
X147948543Y-110596238I0J2000000D01*
G01*
X166599333Y-110556238D02*
G75*
G02*
X164599333Y-112556238I-2000000J0D01*
G01*
X166549333Y-110596238D02*
G75*
G02*
X164549333Y-112596238I-2000000J0D01*
G01*
X147948543Y-97597038D02*
G75*
G02*
X149948543Y-95597038I2000000J0D01*
G01*
X149998543Y-112556238D02*
G75*
G02*
X147998543Y-110556238I0J2000000D01*
G01*
X147998543Y-97557038D02*
G75*
G02*
X149998543Y-95557038I2000000J0D01*
G01*
X164549333Y-95597038D02*
G75*
G02*
X166549333Y-97597038I0J-2000000D01*
G01*
X164599333Y-95557038D02*
G75*
G02*
X166599333Y-97557038I0J-2000000D01*
G01*
X169299308Y-111046338D02*
X183298608Y-111046338D01*
X168548508Y-110406838D02*
X169349308Y-110406838D01*
X183348608Y-110406838D02*
X184149608Y-110406838D01*
X169299308Y-97646238D02*
X168498508Y-97646238D01*
X185599333Y-97547038D02*
X185599333Y-110546238D01*
X183348608Y-111006338D02*
X183348608Y-110406838D01*
X168498508Y-110446838D02*
X169299308Y-110446838D01*
X183298608Y-97646238D02*
X183298608Y-97046938D01*
X183348608Y-97606238D02*
X183348608Y-97006938D01*
X169349308Y-110406838D02*
X169349308Y-111006338D01*
X184149608Y-97606238D02*
X183348608Y-97606238D01*
X169048543Y-112506238D02*
X183649333Y-112506238D01*
X183348608Y-97006938D02*
X169349308Y-97006938D01*
X169349308Y-97606238D02*
X168548508Y-97606238D01*
X169299308Y-110446838D02*
X169299308Y-111046338D01*
X169299308Y-97046938D02*
X169299308Y-97646238D01*
X168498508Y-97646238D02*
X168498508Y-110446838D01*
X167048543Y-97507038D02*
X167048543Y-110506238D01*
X169048543Y-95507038D02*
X183649333Y-95507038D01*
X184099608Y-110446838D02*
X184099608Y-97646238D01*
X168548508Y-97606238D02*
X168548508Y-110406838D01*
X184099608Y-97646238D02*
X183298608Y-97646238D01*
X183298608Y-110446838D02*
X184099608Y-110446838D01*
X169349308Y-111006338D02*
X183348608Y-111006338D01*
X183298608Y-111046338D02*
X183298608Y-110446838D01*
X184149608Y-110406838D02*
X184149608Y-97606238D01*
X185649333Y-97507038D02*
X185649333Y-110506238D01*
X183298608Y-97046938D02*
X169299308Y-97046938D01*
X169349308Y-97006938D02*
X169349308Y-97606238D01*
X168998543Y-112546238D02*
X183599333Y-112546238D01*
X168998543Y-95547038D02*
X183599333Y-95547038D01*
X166998543Y-97547038D02*
X166998543Y-110546238D01*
X168548508Y-110406838D02*
X169349308Y-110406838D01*
X169349308Y-110406838D02*
X169349308Y-111006338D01*
X168548508Y-97606238D02*
X168548508Y-110406838D01*
X183348608Y-111006338D02*
X183348608Y-110406838D01*
X183348608Y-97606238D02*
X183348608Y-97006938D01*
X169349308Y-97606238D02*
X168548508Y-97606238D01*
X184149608Y-110406838D02*
X184149608Y-97606238D01*
X183348608Y-97006938D02*
X169349308Y-97006938D01*
X183348608Y-110406838D02*
X184149608Y-110406838D01*
X169349308Y-97006938D02*
X169349308Y-97606238D01*
X184149608Y-97606238D02*
X183348608Y-97606238D01*
X169349308Y-111006338D02*
X183348608Y-111006338D01*
X169048543Y-112506238D02*
X183649333Y-112506238D01*
X185649333Y-97507038D02*
X185649333Y-110506238D01*
X169048543Y-95507038D02*
X183649333Y-95507038D01*
X167048543Y-97507038D02*
X167048543Y-110506238D01*
D11*
G36*
X184220000Y-95580000D02*
G01*
X184820000Y-95860000D01*
X185240000Y-96280000D01*
X185550000Y-96930000D01*
X185650000Y-97440000D01*
X185660000Y-98330000D01*
X185660000Y-110620000D01*
X185500000Y-111310000D01*
X185090000Y-111950000D01*
X184370000Y-112410000D01*
X183100000Y-112530000D01*
X168930000Y-112500000D01*
X168420000Y-112420000D01*
X167850000Y-112120000D01*
X167470000Y-111740000D01*
X167230000Y-111340000D01*
X167100000Y-110980000D01*
X167050000Y-110220000D01*
X167050000Y-105640000D01*
X167040000Y-97510000D01*
X168550000Y-97600000D01*
X168550000Y-110410000D01*
X169340000Y-110410000D01*
X169350000Y-111000000D01*
X183340000Y-111000000D01*
X183350000Y-110410000D01*
X184160000Y-110400000D01*
X184150000Y-97620000D01*
X183350000Y-97610000D01*
X183350000Y-97020000D01*
X169340000Y-97020000D01*
X169340000Y-95500000D01*
X183690000Y-95490000D01*
X184220000Y-95580000D01*
G37*
X184220000Y-95580000D02*
X184820000Y-95860000D01*
X185240000Y-96280000D01*
X185550000Y-96930000D01*
X185650000Y-97440000D01*
X185660000Y-98330000D01*
X185660000Y-110620000D01*
X185500000Y-111310000D01*
X185090000Y-111950000D01*
X184370000Y-112410000D01*
X183100000Y-112530000D01*
X168930000Y-112500000D01*
X168420000Y-112420000D01*
X167850000Y-112120000D01*
X167470000Y-111740000D01*
X167230000Y-111340000D01*
X167100000Y-110980000D01*
X167050000Y-110220000D01*
X167050000Y-105640000D01*
X167040000Y-97510000D01*
X168550000Y-97600000D01*
X168550000Y-110410000D01*
X169340000Y-110410000D01*
X169350000Y-111000000D01*
X183340000Y-111000000D01*
X183350000Y-110410000D01*
X184160000Y-110400000D01*
X184150000Y-97620000D01*
X183350000Y-97610000D01*
X183350000Y-97020000D01*
X169340000Y-97020000D01*
X169340000Y-95500000D01*
X183690000Y-95490000D01*
X184220000Y-95580000D01*
G36*
X169350000Y-97620000D02*
G01*
X167030000Y-97600000D01*
X167100000Y-97010000D01*
X167400000Y-96370000D01*
X167680000Y-96020000D01*
X168090000Y-95770000D01*
X168740000Y-95530000D01*
X169340000Y-95490000D01*
X169350000Y-97620000D01*
G37*
X169350000Y-97620000D02*
X167030000Y-97600000D01*
X167100000Y-97010000D01*
X167400000Y-96370000D01*
X167680000Y-96020000D01*
X168090000Y-95770000D01*
X168740000Y-95530000D01*
X169340000Y-95490000D01*
X169350000Y-97620000D01*
D10*
X184099608Y-110446838D02*
X184099608Y-97646238D01*
X168498508Y-110446838D02*
X169299308Y-110446838D01*
X183298608Y-97046938D02*
X169299308Y-97046938D01*
X183298608Y-110446838D02*
X184099608Y-110446838D01*
X184099608Y-97646238D02*
X183298608Y-97646238D01*
X183298608Y-111046338D02*
X183298608Y-110446838D01*
X169299308Y-97046938D02*
X169299308Y-97646238D01*
X169299308Y-111046338D02*
X183298608Y-111046338D01*
X169299308Y-110446838D02*
X169299308Y-111046338D01*
X169299308Y-97646238D02*
X168498508Y-97646238D01*
X183298608Y-97646238D02*
X183298608Y-97046938D01*
X168498508Y-97646238D02*
X168498508Y-110446838D01*
X185599333Y-97547038D02*
X185599333Y-110546238D01*
X168998543Y-112546238D02*
X183599333Y-112546238D01*
X168998543Y-95547038D02*
X183599333Y-95547038D01*
X166998543Y-97547038D02*
X166998543Y-110546238D01*
X166998543Y-97547038D02*
G75*
G02*
X168998543Y-95547038I2000000J0D01*
G01*
X168998543Y-112546238D02*
G75*
G02*
X166998543Y-110546238I0J2000000D01*
G01*
X183599333Y-95547038D02*
G75*
G02*
X185599333Y-97547038I0J-2000000D01*
G01*
X185599333Y-110546238D02*
G75*
G02*
X183599333Y-112546238I-2000000J0D01*
G01*
X169048543Y-112506238D02*
G75*
G02*
X167048543Y-110506238I0J2000000D01*
G01*
X185649333Y-110506238D02*
G75*
G02*
X183649333Y-112506238I-2000000J0D01*
G01*
X183649333Y-95507038D02*
G75*
G02*
X185649333Y-97507038I0J-2000000D01*
G01*
X167048543Y-97507038D02*
G75*
G02*
X169048543Y-95507038I2000000J0D01*
G01*
X168998543Y-112546238D02*
G75*
G02*
X166998543Y-110546238I0J2000000D01*
G01*
X185649333Y-110506238D02*
G75*
G02*
X183649333Y-112506238I-2000000J0D01*
G01*
X185599333Y-110546238D02*
G75*
G02*
X183599333Y-112546238I-2000000J0D01*
G01*
X166998543Y-97547038D02*
G75*
G02*
X168998543Y-95547038I2000000J0D01*
G01*
X169048543Y-112506238D02*
G75*
G02*
X167048543Y-110506238I0J2000000D01*
G01*
X167048543Y-97507038D02*
G75*
G02*
X169048543Y-95507038I2000000J0D01*
G01*
X183599333Y-95547038D02*
G75*
G02*
X185599333Y-97547038I0J-2000000D01*
G01*
X183649333Y-95507038D02*
G75*
G02*
X185649333Y-97507038I0J-2000000D01*
G01*
X188349308Y-111096338D02*
X202348608Y-111096338D01*
X187598508Y-110456838D02*
X188399308Y-110456838D01*
X202398608Y-110456838D02*
X203199608Y-110456838D01*
X188349308Y-97696238D02*
X187548508Y-97696238D01*
X204649333Y-97597038D02*
X204649333Y-110596238D01*
X202398608Y-111056338D02*
X202398608Y-110456838D01*
X187548508Y-110496838D02*
X188349308Y-110496838D01*
X202348608Y-97696238D02*
X202348608Y-97096938D01*
X202398608Y-97656238D02*
X202398608Y-97056938D01*
X188399308Y-110456838D02*
X188399308Y-111056338D01*
X203199608Y-97656238D02*
X202398608Y-97656238D01*
X188098543Y-112556238D02*
X202699333Y-112556238D01*
X202398608Y-97056938D02*
X188399308Y-97056938D01*
X188399308Y-97656238D02*
X187598508Y-97656238D01*
X188349308Y-110496838D02*
X188349308Y-111096338D01*
X188349308Y-97096938D02*
X188349308Y-97696238D01*
X187548508Y-97696238D02*
X187548508Y-110496838D01*
X186098543Y-97557038D02*
X186098543Y-110556238D01*
X188098543Y-95557038D02*
X202699333Y-95557038D01*
X203149608Y-110496838D02*
X203149608Y-97696238D01*
X187598508Y-97656238D02*
X187598508Y-110456838D01*
X203149608Y-97696238D02*
X202348608Y-97696238D01*
X202348608Y-110496838D02*
X203149608Y-110496838D01*
X188399308Y-111056338D02*
X202398608Y-111056338D01*
X202348608Y-111096338D02*
X202348608Y-110496838D01*
X203199608Y-110456838D02*
X203199608Y-97656238D01*
X204699333Y-97557038D02*
X204699333Y-110556238D01*
X202348608Y-97096938D02*
X188349308Y-97096938D01*
X188399308Y-97056938D02*
X188399308Y-97656238D01*
X188048543Y-112596238D02*
X202649333Y-112596238D01*
X188048543Y-95597038D02*
X202649333Y-95597038D01*
X186048543Y-97597038D02*
X186048543Y-110596238D01*
X187598508Y-110456838D02*
X188399308Y-110456838D01*
X188399308Y-110456838D02*
X188399308Y-111056338D01*
X187598508Y-97656238D02*
X187598508Y-110456838D01*
X202398608Y-111056338D02*
X202398608Y-110456838D01*
X202398608Y-97656238D02*
X202398608Y-97056938D01*
X188399308Y-97656238D02*
X187598508Y-97656238D01*
X203199608Y-110456838D02*
X203199608Y-97656238D01*
X202398608Y-97056938D02*
X188399308Y-97056938D01*
X202398608Y-110456838D02*
X203199608Y-110456838D01*
X188399308Y-97056938D02*
X188399308Y-97656238D01*
X203199608Y-97656238D02*
X202398608Y-97656238D01*
X188399308Y-111056338D02*
X202398608Y-111056338D01*
X188098543Y-112556238D02*
X202699333Y-112556238D01*
X204699333Y-97557038D02*
X204699333Y-110556238D01*
X188098543Y-95557038D02*
X202699333Y-95557038D01*
X186098543Y-97557038D02*
X186098543Y-110556238D01*
D11*
G36*
X203270000Y-95630000D02*
G01*
X203870000Y-95910000D01*
X204290000Y-96330000D01*
X204600000Y-96980000D01*
X204700000Y-97490000D01*
X204710000Y-98380000D01*
X204710000Y-110670000D01*
X204550000Y-111360000D01*
X204140000Y-112000000D01*
X203420000Y-112460000D01*
X202150000Y-112580000D01*
X187980000Y-112550000D01*
X187470000Y-112470000D01*
X186900000Y-112170000D01*
X186520000Y-111790000D01*
X186280000Y-111390000D01*
X186150000Y-111030000D01*
X186100000Y-110270000D01*
X186100000Y-105690000D01*
X186090000Y-97560000D01*
X187600000Y-97650000D01*
X187600000Y-110460000D01*
X188390000Y-110460000D01*
X188400000Y-111050000D01*
X202390000Y-111050000D01*
X202400000Y-110460000D01*
X203210000Y-110450000D01*
X203200000Y-97670000D01*
X202400000Y-97660000D01*
X202400000Y-97070000D01*
X188390000Y-97070000D01*
X188390000Y-95550000D01*
X202740000Y-95540000D01*
X203270000Y-95630000D01*
G37*
X203270000Y-95630000D02*
X203870000Y-95910000D01*
X204290000Y-96330000D01*
X204600000Y-96980000D01*
X204700000Y-97490000D01*
X204710000Y-98380000D01*
X204710000Y-110670000D01*
X204550000Y-111360000D01*
X204140000Y-112000000D01*
X203420000Y-112460000D01*
X202150000Y-112580000D01*
X187980000Y-112550000D01*
X187470000Y-112470000D01*
X186900000Y-112170000D01*
X186520000Y-111790000D01*
X186280000Y-111390000D01*
X186150000Y-111030000D01*
X186100000Y-110270000D01*
X186100000Y-105690000D01*
X186090000Y-97560000D01*
X187600000Y-97650000D01*
X187600000Y-110460000D01*
X188390000Y-110460000D01*
X188400000Y-111050000D01*
X202390000Y-111050000D01*
X202400000Y-110460000D01*
X203210000Y-110450000D01*
X203200000Y-97670000D01*
X202400000Y-97660000D01*
X202400000Y-97070000D01*
X188390000Y-97070000D01*
X188390000Y-95550000D01*
X202740000Y-95540000D01*
X203270000Y-95630000D01*
G36*
X188400000Y-97670000D02*
G01*
X186080000Y-97650000D01*
X186150000Y-97060000D01*
X186450000Y-96420000D01*
X186730000Y-96070000D01*
X187140000Y-95820000D01*
X187790000Y-95580000D01*
X188390000Y-95540000D01*
X188400000Y-97670000D01*
G37*
X188400000Y-97670000D02*
X186080000Y-97650000D01*
X186150000Y-97060000D01*
X186450000Y-96420000D01*
X186730000Y-96070000D01*
X187140000Y-95820000D01*
X187790000Y-95580000D01*
X188390000Y-95540000D01*
X188400000Y-97670000D01*
D10*
X203149608Y-110496838D02*
X203149608Y-97696238D01*
X187548508Y-110496838D02*
X188349308Y-110496838D01*
X202348608Y-97096938D02*
X188349308Y-97096938D01*
X202348608Y-110496838D02*
X203149608Y-110496838D01*
X203149608Y-97696238D02*
X202348608Y-97696238D01*
X202348608Y-111096338D02*
X202348608Y-110496838D01*
X188349308Y-97096938D02*
X188349308Y-97696238D01*
X188349308Y-111096338D02*
X202348608Y-111096338D01*
X188349308Y-110496838D02*
X188349308Y-111096338D01*
X188349308Y-97696238D02*
X187548508Y-97696238D01*
X202348608Y-97696238D02*
X202348608Y-97096938D01*
X187548508Y-97696238D02*
X187548508Y-110496838D01*
X204649333Y-97597038D02*
X204649333Y-110596238D01*
X188048543Y-112596238D02*
X202649333Y-112596238D01*
X188048543Y-95597038D02*
X202649333Y-95597038D01*
X186048543Y-97597038D02*
X186048543Y-110596238D01*
X186048543Y-97597038D02*
G75*
G02*
X188048543Y-95597038I2000000J0D01*
G01*
X188048543Y-112596238D02*
G75*
G02*
X186048543Y-110596238I0J2000000D01*
G01*
X202649333Y-95597038D02*
G75*
G02*
X204649333Y-97597038I0J-2000000D01*
G01*
X204649333Y-110596238D02*
G75*
G02*
X202649333Y-112596238I-2000000J0D01*
G01*
X188098543Y-112556238D02*
G75*
G02*
X186098543Y-110556238I0J2000000D01*
G01*
X204699333Y-110556238D02*
G75*
G02*
X202699333Y-112556238I-2000000J0D01*
G01*
X202699333Y-95557038D02*
G75*
G02*
X204699333Y-97557038I0J-2000000D01*
G01*
X186098543Y-97557038D02*
G75*
G02*
X188098543Y-95557038I2000000J0D01*
G01*
X188048543Y-112596238D02*
G75*
G02*
X186048543Y-110596238I0J2000000D01*
G01*
X204699333Y-110556238D02*
G75*
G02*
X202699333Y-112556238I-2000000J0D01*
G01*
X204649333Y-110596238D02*
G75*
G02*
X202649333Y-112596238I-2000000J0D01*
G01*
X186048543Y-97597038D02*
G75*
G02*
X188048543Y-95597038I2000000J0D01*
G01*
X188098543Y-112556238D02*
G75*
G02*
X186098543Y-110556238I0J2000000D01*
G01*
X186098543Y-97557038D02*
G75*
G02*
X188098543Y-95557038I2000000J0D01*
G01*
X202649333Y-95597038D02*
G75*
G02*
X204649333Y-97597038I0J-2000000D01*
G01*
X202699333Y-95557038D02*
G75*
G02*
X204699333Y-97557038I0J-2000000D01*
G01*
X207399308Y-111096338D02*
X221398608Y-111096338D01*
X206648508Y-110456838D02*
X207449308Y-110456838D01*
X221448608Y-110456838D02*
X222249608Y-110456838D01*
X207399308Y-97696238D02*
X206598508Y-97696238D01*
X223699333Y-97597038D02*
X223699333Y-110596238D01*
X221448608Y-111056338D02*
X221448608Y-110456838D01*
X206598508Y-110496838D02*
X207399308Y-110496838D01*
X221398608Y-97696238D02*
X221398608Y-97096938D01*
X221448608Y-97656238D02*
X221448608Y-97056938D01*
X207449308Y-110456838D02*
X207449308Y-111056338D01*
X222249608Y-97656238D02*
X221448608Y-97656238D01*
X207148543Y-112556238D02*
X221749333Y-112556238D01*
X221448608Y-97056938D02*
X207449308Y-97056938D01*
X207449308Y-97656238D02*
X206648508Y-97656238D01*
X207399308Y-110496838D02*
X207399308Y-111096338D01*
X207399308Y-97096938D02*
X207399308Y-97696238D01*
X206598508Y-97696238D02*
X206598508Y-110496838D01*
X205148543Y-97557038D02*
X205148543Y-110556238D01*
X207148543Y-95557038D02*
X221749333Y-95557038D01*
X222199608Y-110496838D02*
X222199608Y-97696238D01*
X206648508Y-97656238D02*
X206648508Y-110456838D01*
X222199608Y-97696238D02*
X221398608Y-97696238D01*
X221398608Y-110496838D02*
X222199608Y-110496838D01*
X207449308Y-111056338D02*
X221448608Y-111056338D01*
X221398608Y-111096338D02*
X221398608Y-110496838D01*
X222249608Y-110456838D02*
X222249608Y-97656238D01*
X223749333Y-97557038D02*
X223749333Y-110556238D01*
X221398608Y-97096938D02*
X207399308Y-97096938D01*
X207449308Y-97056938D02*
X207449308Y-97656238D01*
X207098543Y-112596238D02*
X221699333Y-112596238D01*
X207098543Y-95597038D02*
X221699333Y-95597038D01*
X205098543Y-97597038D02*
X205098543Y-110596238D01*
X206648508Y-110456838D02*
X207449308Y-110456838D01*
X207449308Y-110456838D02*
X207449308Y-111056338D01*
X206648508Y-97656238D02*
X206648508Y-110456838D01*
X221448608Y-111056338D02*
X221448608Y-110456838D01*
X221448608Y-97656238D02*
X221448608Y-97056938D01*
X207449308Y-97656238D02*
X206648508Y-97656238D01*
X222249608Y-110456838D02*
X222249608Y-97656238D01*
X221448608Y-97056938D02*
X207449308Y-97056938D01*
X221448608Y-110456838D02*
X222249608Y-110456838D01*
X207449308Y-97056938D02*
X207449308Y-97656238D01*
X222249608Y-97656238D02*
X221448608Y-97656238D01*
X207449308Y-111056338D02*
X221448608Y-111056338D01*
X207148543Y-112556238D02*
X221749333Y-112556238D01*
X223749333Y-97557038D02*
X223749333Y-110556238D01*
X207148543Y-95557038D02*
X221749333Y-95557038D01*
X205148543Y-97557038D02*
X205148543Y-110556238D01*
D11*
G36*
X222320000Y-95630000D02*
G01*
X222920000Y-95910000D01*
X223340000Y-96330000D01*
X223650000Y-96980000D01*
X223750000Y-97490000D01*
X223760000Y-98380000D01*
X223760000Y-110670000D01*
X223600000Y-111360000D01*
X223190000Y-112000000D01*
X222470000Y-112460000D01*
X221200000Y-112580000D01*
X207030000Y-112550000D01*
X206520000Y-112470000D01*
X205950000Y-112170000D01*
X205570000Y-111790000D01*
X205330000Y-111390000D01*
X205200000Y-111030000D01*
X205150000Y-110270000D01*
X205150000Y-105690000D01*
X205140000Y-97560000D01*
X206650000Y-97650000D01*
X206650000Y-110460000D01*
X207440000Y-110460000D01*
X207450000Y-111050000D01*
X221440000Y-111050000D01*
X221450000Y-110460000D01*
X222260000Y-110450000D01*
X222250000Y-97670000D01*
X221450000Y-97660000D01*
X221450000Y-97070000D01*
X207440000Y-97070000D01*
X207440000Y-95550000D01*
X221790000Y-95540000D01*
X222320000Y-95630000D01*
G37*
X222320000Y-95630000D02*
X222920000Y-95910000D01*
X223340000Y-96330000D01*
X223650000Y-96980000D01*
X223750000Y-97490000D01*
X223760000Y-98380000D01*
X223760000Y-110670000D01*
X223600000Y-111360000D01*
X223190000Y-112000000D01*
X222470000Y-112460000D01*
X221200000Y-112580000D01*
X207030000Y-112550000D01*
X206520000Y-112470000D01*
X205950000Y-112170000D01*
X205570000Y-111790000D01*
X205330000Y-111390000D01*
X205200000Y-111030000D01*
X205150000Y-110270000D01*
X205150000Y-105690000D01*
X205140000Y-97560000D01*
X206650000Y-97650000D01*
X206650000Y-110460000D01*
X207440000Y-110460000D01*
X207450000Y-111050000D01*
X221440000Y-111050000D01*
X221450000Y-110460000D01*
X222260000Y-110450000D01*
X222250000Y-97670000D01*
X221450000Y-97660000D01*
X221450000Y-97070000D01*
X207440000Y-97070000D01*
X207440000Y-95550000D01*
X221790000Y-95540000D01*
X222320000Y-95630000D01*
G36*
X207450000Y-97670000D02*
G01*
X205130000Y-97650000D01*
X205200000Y-97060000D01*
X205500000Y-96420000D01*
X205780000Y-96070000D01*
X206190000Y-95820000D01*
X206840000Y-95580000D01*
X207440000Y-95540000D01*
X207450000Y-97670000D01*
G37*
X207450000Y-97670000D02*
X205130000Y-97650000D01*
X205200000Y-97060000D01*
X205500000Y-96420000D01*
X205780000Y-96070000D01*
X206190000Y-95820000D01*
X206840000Y-95580000D01*
X207440000Y-95540000D01*
X207450000Y-97670000D01*
D10*
X222199608Y-110496838D02*
X222199608Y-97696238D01*
X206598508Y-110496838D02*
X207399308Y-110496838D01*
X221398608Y-97096938D02*
X207399308Y-97096938D01*
X221398608Y-110496838D02*
X222199608Y-110496838D01*
X222199608Y-97696238D02*
X221398608Y-97696238D01*
X221398608Y-111096338D02*
X221398608Y-110496838D01*
X207399308Y-97096938D02*
X207399308Y-97696238D01*
X207399308Y-111096338D02*
X221398608Y-111096338D01*
X207399308Y-110496838D02*
X207399308Y-111096338D01*
X207399308Y-97696238D02*
X206598508Y-97696238D01*
X221398608Y-97696238D02*
X221398608Y-97096938D01*
X206598508Y-97696238D02*
X206598508Y-110496838D01*
X223699333Y-97597038D02*
X223699333Y-110596238D01*
X207098543Y-112596238D02*
X221699333Y-112596238D01*
X207098543Y-95597038D02*
X221699333Y-95597038D01*
X205098543Y-97597038D02*
X205098543Y-110596238D01*
X205098543Y-97597038D02*
G75*
G02*
X207098543Y-95597038I2000000J0D01*
G01*
X207098543Y-112596238D02*
G75*
G02*
X205098543Y-110596238I0J2000000D01*
G01*
X221699333Y-95597038D02*
G75*
G02*
X223699333Y-97597038I0J-2000000D01*
G01*
X223699333Y-110596238D02*
G75*
G02*
X221699333Y-112596238I-2000000J0D01*
G01*
X207148543Y-112556238D02*
G75*
G02*
X205148543Y-110556238I0J2000000D01*
G01*
X223749333Y-110556238D02*
G75*
G02*
X221749333Y-112556238I-2000000J0D01*
G01*
X221749333Y-95557038D02*
G75*
G02*
X223749333Y-97557038I0J-2000000D01*
G01*
X205148543Y-97557038D02*
G75*
G02*
X207148543Y-95557038I2000000J0D01*
G01*
X207098543Y-112596238D02*
G75*
G02*
X205098543Y-110596238I0J2000000D01*
G01*
X223749333Y-110556238D02*
G75*
G02*
X221749333Y-112556238I-2000000J0D01*
G01*
X223699333Y-110596238D02*
G75*
G02*
X221699333Y-112596238I-2000000J0D01*
G01*
X205098543Y-97597038D02*
G75*
G02*
X207098543Y-95597038I2000000J0D01*
G01*
X207148543Y-112556238D02*
G75*
G02*
X205148543Y-110556238I0J2000000D01*
G01*
X205148543Y-97557038D02*
G75*
G02*
X207148543Y-95557038I2000000J0D01*
G01*
X221699333Y-95597038D02*
G75*
G02*
X223699333Y-97597038I0J-2000000D01*
G01*
X221749333Y-95557038D02*
G75*
G02*
X223749333Y-97557038I0J-2000000D01*
G01*
X226449308Y-111046338D02*
X240448608Y-111046338D01*
X225698508Y-110406838D02*
X226499308Y-110406838D01*
X240498608Y-110406838D02*
X241299608Y-110406838D01*
X226449308Y-97646238D02*
X225648508Y-97646238D01*
X242749333Y-97547038D02*
X242749333Y-110546238D01*
X240498608Y-111006338D02*
X240498608Y-110406838D01*
X225648508Y-110446838D02*
X226449308Y-110446838D01*
X240448608Y-97646238D02*
X240448608Y-97046938D01*
X240498608Y-97606238D02*
X240498608Y-97006938D01*
X226499308Y-110406838D02*
X226499308Y-111006338D01*
X241299608Y-97606238D02*
X240498608Y-97606238D01*
X226198543Y-112506238D02*
X240799333Y-112506238D01*
X240498608Y-97006938D02*
X226499308Y-97006938D01*
X226499308Y-97606238D02*
X225698508Y-97606238D01*
X226449308Y-110446838D02*
X226449308Y-111046338D01*
X226449308Y-97046938D02*
X226449308Y-97646238D01*
X225648508Y-97646238D02*
X225648508Y-110446838D01*
X224198543Y-97507038D02*
X224198543Y-110506238D01*
X226198543Y-95507038D02*
X240799333Y-95507038D01*
X241249608Y-110446838D02*
X241249608Y-97646238D01*
X225698508Y-97606238D02*
X225698508Y-110406838D01*
X241249608Y-97646238D02*
X240448608Y-97646238D01*
X240448608Y-110446838D02*
X241249608Y-110446838D01*
X226499308Y-111006338D02*
X240498608Y-111006338D01*
X240448608Y-111046338D02*
X240448608Y-110446838D01*
X241299608Y-110406838D02*
X241299608Y-97606238D01*
X242799333Y-97507038D02*
X242799333Y-110506238D01*
X240448608Y-97046938D02*
X226449308Y-97046938D01*
X226499308Y-97006938D02*
X226499308Y-97606238D01*
X226148543Y-112546238D02*
X240749333Y-112546238D01*
X226148543Y-95547038D02*
X240749333Y-95547038D01*
X224148543Y-97547038D02*
X224148543Y-110546238D01*
X225698508Y-110406838D02*
X226499308Y-110406838D01*
X226499308Y-110406838D02*
X226499308Y-111006338D01*
X225698508Y-97606238D02*
X225698508Y-110406838D01*
X240498608Y-111006338D02*
X240498608Y-110406838D01*
X240498608Y-97606238D02*
X240498608Y-97006938D01*
X226499308Y-97606238D02*
X225698508Y-97606238D01*
X241299608Y-110406838D02*
X241299608Y-97606238D01*
X240498608Y-97006938D02*
X226499308Y-97006938D01*
X240498608Y-110406838D02*
X241299608Y-110406838D01*
X226499308Y-97006938D02*
X226499308Y-97606238D01*
X241299608Y-97606238D02*
X240498608Y-97606238D01*
X226499308Y-111006338D02*
X240498608Y-111006338D01*
X226198543Y-112506238D02*
X240799333Y-112506238D01*
X242799333Y-97507038D02*
X242799333Y-110506238D01*
X226198543Y-95507038D02*
X240799333Y-95507038D01*
X224198543Y-97507038D02*
X224198543Y-110506238D01*
D11*
G36*
X241370000Y-95580000D02*
G01*
X241970000Y-95860000D01*
X242390000Y-96280000D01*
X242700000Y-96930000D01*
X242800000Y-97440000D01*
X242810000Y-98330000D01*
X242810000Y-110620000D01*
X242650000Y-111310000D01*
X242240000Y-111950000D01*
X241520000Y-112410000D01*
X240250000Y-112530000D01*
X226080000Y-112500000D01*
X225570000Y-112420000D01*
X225000000Y-112120000D01*
X224620000Y-111740000D01*
X224380000Y-111340000D01*
X224250000Y-110980000D01*
X224200000Y-110220000D01*
X224200000Y-105640000D01*
X224190000Y-97510000D01*
X225700000Y-97600000D01*
X225700000Y-110410000D01*
X226490000Y-110410000D01*
X226500000Y-111000000D01*
X240490000Y-111000000D01*
X240500000Y-110410000D01*
X241310000Y-110400000D01*
X241300000Y-97620000D01*
X240500000Y-97610000D01*
X240500000Y-97020000D01*
X226490000Y-97020000D01*
X226490000Y-95500000D01*
X240840000Y-95490000D01*
X241370000Y-95580000D01*
G37*
X241370000Y-95580000D02*
X241970000Y-95860000D01*
X242390000Y-96280000D01*
X242700000Y-96930000D01*
X242800000Y-97440000D01*
X242810000Y-98330000D01*
X242810000Y-110620000D01*
X242650000Y-111310000D01*
X242240000Y-111950000D01*
X241520000Y-112410000D01*
X240250000Y-112530000D01*
X226080000Y-112500000D01*
X225570000Y-112420000D01*
X225000000Y-112120000D01*
X224620000Y-111740000D01*
X224380000Y-111340000D01*
X224250000Y-110980000D01*
X224200000Y-110220000D01*
X224200000Y-105640000D01*
X224190000Y-97510000D01*
X225700000Y-97600000D01*
X225700000Y-110410000D01*
X226490000Y-110410000D01*
X226500000Y-111000000D01*
X240490000Y-111000000D01*
X240500000Y-110410000D01*
X241310000Y-110400000D01*
X241300000Y-97620000D01*
X240500000Y-97610000D01*
X240500000Y-97020000D01*
X226490000Y-97020000D01*
X226490000Y-95500000D01*
X240840000Y-95490000D01*
X241370000Y-95580000D01*
G36*
X226500000Y-97620000D02*
G01*
X224180000Y-97600000D01*
X224250000Y-97010000D01*
X224550000Y-96370000D01*
X224830000Y-96020000D01*
X225240000Y-95770000D01*
X225890000Y-95530000D01*
X226490000Y-95490000D01*
X226500000Y-97620000D01*
G37*
X226500000Y-97620000D02*
X224180000Y-97600000D01*
X224250000Y-97010000D01*
X224550000Y-96370000D01*
X224830000Y-96020000D01*
X225240000Y-95770000D01*
X225890000Y-95530000D01*
X226490000Y-95490000D01*
X226500000Y-97620000D01*
D10*
X241249608Y-110446838D02*
X241249608Y-97646238D01*
X225648508Y-110446838D02*
X226449308Y-110446838D01*
X240448608Y-97046938D02*
X226449308Y-97046938D01*
X240448608Y-110446838D02*
X241249608Y-110446838D01*
X241249608Y-97646238D02*
X240448608Y-97646238D01*
X240448608Y-111046338D02*
X240448608Y-110446838D01*
X226449308Y-97046938D02*
X226449308Y-97646238D01*
X226449308Y-111046338D02*
X240448608Y-111046338D01*
X226449308Y-110446838D02*
X226449308Y-111046338D01*
X226449308Y-97646238D02*
X225648508Y-97646238D01*
X240448608Y-97646238D02*
X240448608Y-97046938D01*
X225648508Y-97646238D02*
X225648508Y-110446838D01*
X242749333Y-97547038D02*
X242749333Y-110546238D01*
X226148543Y-112546238D02*
X240749333Y-112546238D01*
X226148543Y-95547038D02*
X240749333Y-95547038D01*
X224148543Y-97547038D02*
X224148543Y-110546238D01*
X224148543Y-97547038D02*
G75*
G02*
X226148543Y-95547038I2000000J0D01*
G01*
X226148543Y-112546238D02*
G75*
G02*
X224148543Y-110546238I0J2000000D01*
G01*
X240749333Y-95547038D02*
G75*
G02*
X242749333Y-97547038I0J-2000000D01*
G01*
X242749333Y-110546238D02*
G75*
G02*
X240749333Y-112546238I-2000000J0D01*
G01*
X226198543Y-112506238D02*
G75*
G02*
X224198543Y-110506238I0J2000000D01*
G01*
X242799333Y-110506238D02*
G75*
G02*
X240799333Y-112506238I-2000000J0D01*
G01*
X240799333Y-95507038D02*
G75*
G02*
X242799333Y-97507038I0J-2000000D01*
G01*
X224198543Y-97507038D02*
G75*
G02*
X226198543Y-95507038I2000000J0D01*
G01*
X226148543Y-112546238D02*
G75*
G02*
X224148543Y-110546238I0J2000000D01*
G01*
X242799333Y-110506238D02*
G75*
G02*
X240799333Y-112506238I-2000000J0D01*
G01*
X242749333Y-110546238D02*
G75*
G02*
X240749333Y-112546238I-2000000J0D01*
G01*
X224148543Y-97547038D02*
G75*
G02*
X226148543Y-95547038I2000000J0D01*
G01*
X226198543Y-112506238D02*
G75*
G02*
X224198543Y-110506238I0J2000000D01*
G01*
X224198543Y-97507038D02*
G75*
G02*
X226198543Y-95507038I2000000J0D01*
G01*
X240749333Y-95547038D02*
G75*
G02*
X242749333Y-97547038I0J-2000000D01*
G01*
X240799333Y-95507038D02*
G75*
G02*
X242799333Y-97507038I0J-2000000D01*
G01*
X231199308Y-130096338D02*
X245198608Y-130096338D01*
X230448508Y-129456838D02*
X231249308Y-129456838D01*
X245248608Y-129456838D02*
X246049608Y-129456838D01*
X231199308Y-116696238D02*
X230398508Y-116696238D01*
X247499333Y-116597038D02*
X247499333Y-129596238D01*
X245248608Y-130056338D02*
X245248608Y-129456838D01*
X230398508Y-129496838D02*
X231199308Y-129496838D01*
X245198608Y-116696238D02*
X245198608Y-116096938D01*
X245248608Y-116656238D02*
X245248608Y-116056938D01*
X231249308Y-129456838D02*
X231249308Y-130056338D01*
X246049608Y-116656238D02*
X245248608Y-116656238D01*
X230948543Y-131556238D02*
X245549333Y-131556238D01*
X245248608Y-116056938D02*
X231249308Y-116056938D01*
X231249308Y-116656238D02*
X230448508Y-116656238D01*
X231199308Y-129496838D02*
X231199308Y-130096338D01*
X231199308Y-116096938D02*
X231199308Y-116696238D01*
X230398508Y-116696238D02*
X230398508Y-129496838D01*
X228948543Y-116557038D02*
X228948543Y-129556238D01*
X230948543Y-114557038D02*
X245549333Y-114557038D01*
X245999608Y-129496838D02*
X245999608Y-116696238D01*
X230448508Y-116656238D02*
X230448508Y-129456838D01*
X245999608Y-116696238D02*
X245198608Y-116696238D01*
X245198608Y-129496838D02*
X245999608Y-129496838D01*
X231249308Y-130056338D02*
X245248608Y-130056338D01*
X245198608Y-130096338D02*
X245198608Y-129496838D01*
X246049608Y-129456838D02*
X246049608Y-116656238D01*
X247549333Y-116557038D02*
X247549333Y-129556238D01*
X245198608Y-116096938D02*
X231199308Y-116096938D01*
X231249308Y-116056938D02*
X231249308Y-116656238D01*
X230898543Y-131596238D02*
X245499333Y-131596238D01*
X230898543Y-114597038D02*
X245499333Y-114597038D01*
X228898543Y-116597038D02*
X228898543Y-129596238D01*
X230448508Y-129456838D02*
X231249308Y-129456838D01*
X231249308Y-129456838D02*
X231249308Y-130056338D01*
X230448508Y-116656238D02*
X230448508Y-129456838D01*
X245248608Y-130056338D02*
X245248608Y-129456838D01*
X245248608Y-116656238D02*
X245248608Y-116056938D01*
X231249308Y-116656238D02*
X230448508Y-116656238D01*
X246049608Y-129456838D02*
X246049608Y-116656238D01*
X245248608Y-116056938D02*
X231249308Y-116056938D01*
X245248608Y-129456838D02*
X246049608Y-129456838D01*
X231249308Y-116056938D02*
X231249308Y-116656238D01*
X246049608Y-116656238D02*
X245248608Y-116656238D01*
X231249308Y-130056338D02*
X245248608Y-130056338D01*
X230948543Y-131556238D02*
X245549333Y-131556238D01*
X247549333Y-116557038D02*
X247549333Y-129556238D01*
X230948543Y-114557038D02*
X245549333Y-114557038D01*
X228948543Y-116557038D02*
X228948543Y-129556238D01*
D11*
G36*
X246120000Y-114630000D02*
G01*
X246720000Y-114910000D01*
X247140000Y-115330000D01*
X247450000Y-115980000D01*
X247550000Y-116490000D01*
X247560000Y-117380000D01*
X247560000Y-129670000D01*
X247400000Y-130360000D01*
X246990000Y-131000000D01*
X246270000Y-131460000D01*
X245000000Y-131580000D01*
X230830000Y-131550000D01*
X230320000Y-131470000D01*
X229750000Y-131170000D01*
X229370000Y-130790000D01*
X229130000Y-130390000D01*
X229000000Y-130030000D01*
X228950000Y-129270000D01*
X228950000Y-124690000D01*
X228940000Y-116560000D01*
X230450000Y-116650000D01*
X230450000Y-129460000D01*
X231240000Y-129460000D01*
X231250000Y-130050000D01*
X245240000Y-130050000D01*
X245250000Y-129460000D01*
X246060000Y-129450000D01*
X246050000Y-116670000D01*
X245250000Y-116660000D01*
X245250000Y-116070000D01*
X231240000Y-116070000D01*
X231240000Y-114550000D01*
X245590000Y-114540000D01*
X246120000Y-114630000D01*
G37*
X246120000Y-114630000D02*
X246720000Y-114910000D01*
X247140000Y-115330000D01*
X247450000Y-115980000D01*
X247550000Y-116490000D01*
X247560000Y-117380000D01*
X247560000Y-129670000D01*
X247400000Y-130360000D01*
X246990000Y-131000000D01*
X246270000Y-131460000D01*
X245000000Y-131580000D01*
X230830000Y-131550000D01*
X230320000Y-131470000D01*
X229750000Y-131170000D01*
X229370000Y-130790000D01*
X229130000Y-130390000D01*
X229000000Y-130030000D01*
X228950000Y-129270000D01*
X228950000Y-124690000D01*
X228940000Y-116560000D01*
X230450000Y-116650000D01*
X230450000Y-129460000D01*
X231240000Y-129460000D01*
X231250000Y-130050000D01*
X245240000Y-130050000D01*
X245250000Y-129460000D01*
X246060000Y-129450000D01*
X246050000Y-116670000D01*
X245250000Y-116660000D01*
X245250000Y-116070000D01*
X231240000Y-116070000D01*
X231240000Y-114550000D01*
X245590000Y-114540000D01*
X246120000Y-114630000D01*
G36*
X231250000Y-116670000D02*
G01*
X228930000Y-116650000D01*
X229000000Y-116060000D01*
X229300000Y-115420000D01*
X229580000Y-115070000D01*
X229990000Y-114820000D01*
X230640000Y-114580000D01*
X231240000Y-114540000D01*
X231250000Y-116670000D01*
G37*
X231250000Y-116670000D02*
X228930000Y-116650000D01*
X229000000Y-116060000D01*
X229300000Y-115420000D01*
X229580000Y-115070000D01*
X229990000Y-114820000D01*
X230640000Y-114580000D01*
X231240000Y-114540000D01*
X231250000Y-116670000D01*
D10*
X245999608Y-129496838D02*
X245999608Y-116696238D01*
X230398508Y-129496838D02*
X231199308Y-129496838D01*
X245198608Y-116096938D02*
X231199308Y-116096938D01*
X245198608Y-129496838D02*
X245999608Y-129496838D01*
X245999608Y-116696238D02*
X245198608Y-116696238D01*
X245198608Y-130096338D02*
X245198608Y-129496838D01*
X231199308Y-116096938D02*
X231199308Y-116696238D01*
X231199308Y-130096338D02*
X245198608Y-130096338D01*
X231199308Y-129496838D02*
X231199308Y-130096338D01*
X231199308Y-116696238D02*
X230398508Y-116696238D01*
X245198608Y-116696238D02*
X245198608Y-116096938D01*
X230398508Y-116696238D02*
X230398508Y-129496838D01*
X247499333Y-116597038D02*
X247499333Y-129596238D01*
X230898543Y-131596238D02*
X245499333Y-131596238D01*
X230898543Y-114597038D02*
X245499333Y-114597038D01*
X228898543Y-116597038D02*
X228898543Y-129596238D01*
X228898543Y-116597038D02*
G75*
G02*
X230898543Y-114597038I2000000J0D01*
G01*
X230898543Y-131596238D02*
G75*
G02*
X228898543Y-129596238I0J2000000D01*
G01*
X245499333Y-114597038D02*
G75*
G02*
X247499333Y-116597038I0J-2000000D01*
G01*
X247499333Y-129596238D02*
G75*
G02*
X245499333Y-131596238I-2000000J0D01*
G01*
X230948543Y-131556238D02*
G75*
G02*
X228948543Y-129556238I0J2000000D01*
G01*
X247549333Y-129556238D02*
G75*
G02*
X245549333Y-131556238I-2000000J0D01*
G01*
X245549333Y-114557038D02*
G75*
G02*
X247549333Y-116557038I0J-2000000D01*
G01*
X228948543Y-116557038D02*
G75*
G02*
X230948543Y-114557038I2000000J0D01*
G01*
X230898543Y-131596238D02*
G75*
G02*
X228898543Y-129596238I0J2000000D01*
G01*
X247549333Y-129556238D02*
G75*
G02*
X245549333Y-131556238I-2000000J0D01*
G01*
X247499333Y-129596238D02*
G75*
G02*
X245499333Y-131596238I-2000000J0D01*
G01*
X228898543Y-116597038D02*
G75*
G02*
X230898543Y-114597038I2000000J0D01*
G01*
X230948543Y-131556238D02*
G75*
G02*
X228948543Y-129556238I0J2000000D01*
G01*
X228948543Y-116557038D02*
G75*
G02*
X230948543Y-114557038I2000000J0D01*
G01*
X245499333Y-114597038D02*
G75*
G02*
X247499333Y-116597038I0J-2000000D01*
G01*
X245549333Y-114557038D02*
G75*
G02*
X247549333Y-116557038I0J-2000000D01*
G01*
X150249308Y-91996338D02*
X164248608Y-91996338D01*
X149498508Y-91356838D02*
X150299308Y-91356838D01*
X164298608Y-91356838D02*
X165099608Y-91356838D01*
X150249308Y-78596238D02*
X149448508Y-78596238D01*
X166549333Y-78497038D02*
X166549333Y-91496238D01*
X164298608Y-91956338D02*
X164298608Y-91356838D01*
X149448508Y-91396838D02*
X150249308Y-91396838D01*
X164248608Y-78596238D02*
X164248608Y-77996938D01*
X164298608Y-78556238D02*
X164298608Y-77956938D01*
X150299308Y-91356838D02*
X150299308Y-91956338D01*
X165099608Y-78556238D02*
X164298608Y-78556238D01*
X149998543Y-93456238D02*
X164599333Y-93456238D01*
X164298608Y-77956938D02*
X150299308Y-77956938D01*
X150299308Y-78556238D02*
X149498508Y-78556238D01*
X150249308Y-91396838D02*
X150249308Y-91996338D01*
X150249308Y-77996938D02*
X150249308Y-78596238D01*
X149448508Y-78596238D02*
X149448508Y-91396838D01*
X147998543Y-78457038D02*
X147998543Y-91456238D01*
X149998543Y-76457038D02*
X164599333Y-76457038D01*
X165049608Y-91396838D02*
X165049608Y-78596238D01*
X149498508Y-78556238D02*
X149498508Y-91356838D01*
X165049608Y-78596238D02*
X164248608Y-78596238D01*
X164248608Y-91396838D02*
X165049608Y-91396838D01*
X150299308Y-91956338D02*
X164298608Y-91956338D01*
X164248608Y-91996338D02*
X164248608Y-91396838D01*
X165099608Y-91356838D02*
X165099608Y-78556238D01*
X166599333Y-78457038D02*
X166599333Y-91456238D01*
X164248608Y-77996938D02*
X150249308Y-77996938D01*
X150299308Y-77956938D02*
X150299308Y-78556238D01*
X149948543Y-93496238D02*
X164549333Y-93496238D01*
X149948543Y-76497038D02*
X164549333Y-76497038D01*
X147948543Y-78497038D02*
X147948543Y-91496238D01*
X149498508Y-91356838D02*
X150299308Y-91356838D01*
X150299308Y-91356838D02*
X150299308Y-91956338D01*
X149498508Y-78556238D02*
X149498508Y-91356838D01*
X164298608Y-91956338D02*
X164298608Y-91356838D01*
X164298608Y-78556238D02*
X164298608Y-77956938D01*
X150299308Y-78556238D02*
X149498508Y-78556238D01*
X165099608Y-91356838D02*
X165099608Y-78556238D01*
X164298608Y-77956938D02*
X150299308Y-77956938D01*
X164298608Y-91356838D02*
X165099608Y-91356838D01*
X150299308Y-77956938D02*
X150299308Y-78556238D01*
X165099608Y-78556238D02*
X164298608Y-78556238D01*
X150299308Y-91956338D02*
X164298608Y-91956338D01*
X149998543Y-93456238D02*
X164599333Y-93456238D01*
X166599333Y-78457038D02*
X166599333Y-91456238D01*
X149998543Y-76457038D02*
X164599333Y-76457038D01*
X147998543Y-78457038D02*
X147998543Y-91456238D01*
D11*
G36*
X165170000Y-76530000D02*
G01*
X165770000Y-76810000D01*
X166190000Y-77230000D01*
X166500000Y-77880000D01*
X166600000Y-78390000D01*
X166610000Y-79280000D01*
X166610000Y-91570000D01*
X166450000Y-92260000D01*
X166040000Y-92900000D01*
X165320000Y-93360000D01*
X164050000Y-93480000D01*
X149880000Y-93450000D01*
X149370000Y-93370000D01*
X148800000Y-93070000D01*
X148420000Y-92690000D01*
X148180000Y-92290000D01*
X148050000Y-91930000D01*
X148000000Y-91170000D01*
X148000000Y-86590000D01*
X147990000Y-78460000D01*
X149500000Y-78550000D01*
X149500000Y-91360000D01*
X150290000Y-91360000D01*
X150300000Y-91950000D01*
X164290000Y-91950000D01*
X164300000Y-91360000D01*
X165110000Y-91350000D01*
X165100000Y-78570000D01*
X164300000Y-78560000D01*
X164300000Y-77970000D01*
X150290000Y-77970000D01*
X150290000Y-76450000D01*
X164640000Y-76440000D01*
X165170000Y-76530000D01*
G37*
X165170000Y-76530000D02*
X165770000Y-76810000D01*
X166190000Y-77230000D01*
X166500000Y-77880000D01*
X166600000Y-78390000D01*
X166610000Y-79280000D01*
X166610000Y-91570000D01*
X166450000Y-92260000D01*
X166040000Y-92900000D01*
X165320000Y-93360000D01*
X164050000Y-93480000D01*
X149880000Y-93450000D01*
X149370000Y-93370000D01*
X148800000Y-93070000D01*
X148420000Y-92690000D01*
X148180000Y-92290000D01*
X148050000Y-91930000D01*
X148000000Y-91170000D01*
X148000000Y-86590000D01*
X147990000Y-78460000D01*
X149500000Y-78550000D01*
X149500000Y-91360000D01*
X150290000Y-91360000D01*
X150300000Y-91950000D01*
X164290000Y-91950000D01*
X164300000Y-91360000D01*
X165110000Y-91350000D01*
X165100000Y-78570000D01*
X164300000Y-78560000D01*
X164300000Y-77970000D01*
X150290000Y-77970000D01*
X150290000Y-76450000D01*
X164640000Y-76440000D01*
X165170000Y-76530000D01*
G36*
X150300000Y-78570000D02*
G01*
X147980000Y-78550000D01*
X148050000Y-77960000D01*
X148350000Y-77320000D01*
X148630000Y-76970000D01*
X149040000Y-76720000D01*
X149690000Y-76480000D01*
X150290000Y-76440000D01*
X150300000Y-78570000D01*
G37*
X150300000Y-78570000D02*
X147980000Y-78550000D01*
X148050000Y-77960000D01*
X148350000Y-77320000D01*
X148630000Y-76970000D01*
X149040000Y-76720000D01*
X149690000Y-76480000D01*
X150290000Y-76440000D01*
X150300000Y-78570000D01*
D10*
X165049608Y-91396838D02*
X165049608Y-78596238D01*
X149448508Y-91396838D02*
X150249308Y-91396838D01*
X164248608Y-77996938D02*
X150249308Y-77996938D01*
X164248608Y-91396838D02*
X165049608Y-91396838D01*
X165049608Y-78596238D02*
X164248608Y-78596238D01*
X164248608Y-91996338D02*
X164248608Y-91396838D01*
X150249308Y-77996938D02*
X150249308Y-78596238D01*
X150249308Y-91996338D02*
X164248608Y-91996338D01*
X150249308Y-91396838D02*
X150249308Y-91996338D01*
X150249308Y-78596238D02*
X149448508Y-78596238D01*
X164248608Y-78596238D02*
X164248608Y-77996938D01*
X149448508Y-78596238D02*
X149448508Y-91396838D01*
X166549333Y-78497038D02*
X166549333Y-91496238D01*
X149948543Y-93496238D02*
X164549333Y-93496238D01*
X149948543Y-76497038D02*
X164549333Y-76497038D01*
X147948543Y-78497038D02*
X147948543Y-91496238D01*
X147948543Y-78497038D02*
G75*
G02*
X149948543Y-76497038I2000000J0D01*
G01*
X149948543Y-93496238D02*
G75*
G02*
X147948543Y-91496238I0J2000000D01*
G01*
X164549333Y-76497038D02*
G75*
G02*
X166549333Y-78497038I0J-2000000D01*
G01*
X166549333Y-91496238D02*
G75*
G02*
X164549333Y-93496238I-2000000J0D01*
G01*
X149998543Y-93456238D02*
G75*
G02*
X147998543Y-91456238I0J2000000D01*
G01*
X166599333Y-91456238D02*
G75*
G02*
X164599333Y-93456238I-2000000J0D01*
G01*
X164599333Y-76457038D02*
G75*
G02*
X166599333Y-78457038I0J-2000000D01*
G01*
X147998543Y-78457038D02*
G75*
G02*
X149998543Y-76457038I2000000J0D01*
G01*
X149948543Y-93496238D02*
G75*
G02*
X147948543Y-91496238I0J2000000D01*
G01*
X166599333Y-91456238D02*
G75*
G02*
X164599333Y-93456238I-2000000J0D01*
G01*
X166549333Y-91496238D02*
G75*
G02*
X164549333Y-93496238I-2000000J0D01*
G01*
X147948543Y-78497038D02*
G75*
G02*
X149948543Y-76497038I2000000J0D01*
G01*
X149998543Y-93456238D02*
G75*
G02*
X147998543Y-91456238I0J2000000D01*
G01*
X147998543Y-78457038D02*
G75*
G02*
X149998543Y-76457038I2000000J0D01*
G01*
X164549333Y-76497038D02*
G75*
G02*
X166549333Y-78497038I0J-2000000D01*
G01*
X164599333Y-76457038D02*
G75*
G02*
X166599333Y-78457038I0J-2000000D01*
G01*
X169299308Y-91996338D02*
X183298608Y-91996338D01*
X168548508Y-91356838D02*
X169349308Y-91356838D01*
X183348608Y-91356838D02*
X184149608Y-91356838D01*
X169299308Y-78596238D02*
X168498508Y-78596238D01*
X185599333Y-78497038D02*
X185599333Y-91496238D01*
X183348608Y-91956338D02*
X183348608Y-91356838D01*
X168498508Y-91396838D02*
X169299308Y-91396838D01*
X183298608Y-78596238D02*
X183298608Y-77996938D01*
X183348608Y-78556238D02*
X183348608Y-77956938D01*
X169349308Y-91356838D02*
X169349308Y-91956338D01*
X184149608Y-78556238D02*
X183348608Y-78556238D01*
X169048543Y-93456238D02*
X183649333Y-93456238D01*
X183348608Y-77956938D02*
X169349308Y-77956938D01*
X169349308Y-78556238D02*
X168548508Y-78556238D01*
X169299308Y-91396838D02*
X169299308Y-91996338D01*
X169299308Y-77996938D02*
X169299308Y-78596238D01*
X168498508Y-78596238D02*
X168498508Y-91396838D01*
X167048543Y-78457038D02*
X167048543Y-91456238D01*
X169048543Y-76457038D02*
X183649333Y-76457038D01*
X184099608Y-91396838D02*
X184099608Y-78596238D01*
X168548508Y-78556238D02*
X168548508Y-91356838D01*
X184099608Y-78596238D02*
X183298608Y-78596238D01*
X183298608Y-91396838D02*
X184099608Y-91396838D01*
X169349308Y-91956338D02*
X183348608Y-91956338D01*
X183298608Y-91996338D02*
X183298608Y-91396838D01*
X184149608Y-91356838D02*
X184149608Y-78556238D01*
X185649333Y-78457038D02*
X185649333Y-91456238D01*
X183298608Y-77996938D02*
X169299308Y-77996938D01*
X169349308Y-77956938D02*
X169349308Y-78556238D01*
X168998543Y-93496238D02*
X183599333Y-93496238D01*
X168998543Y-76497038D02*
X183599333Y-76497038D01*
X166998543Y-78497038D02*
X166998543Y-91496238D01*
X168548508Y-91356838D02*
X169349308Y-91356838D01*
X169349308Y-91356838D02*
X169349308Y-91956338D01*
X168548508Y-78556238D02*
X168548508Y-91356838D01*
X183348608Y-91956338D02*
X183348608Y-91356838D01*
X183348608Y-78556238D02*
X183348608Y-77956938D01*
X169349308Y-78556238D02*
X168548508Y-78556238D01*
X184149608Y-91356838D02*
X184149608Y-78556238D01*
X183348608Y-77956938D02*
X169349308Y-77956938D01*
X183348608Y-91356838D02*
X184149608Y-91356838D01*
X169349308Y-77956938D02*
X169349308Y-78556238D01*
X184149608Y-78556238D02*
X183348608Y-78556238D01*
X169349308Y-91956338D02*
X183348608Y-91956338D01*
X169048543Y-93456238D02*
X183649333Y-93456238D01*
X185649333Y-78457038D02*
X185649333Y-91456238D01*
X169048543Y-76457038D02*
X183649333Y-76457038D01*
X167048543Y-78457038D02*
X167048543Y-91456238D01*
D11*
G36*
X184220000Y-76530000D02*
G01*
X184820000Y-76810000D01*
X185240000Y-77230000D01*
X185550000Y-77880000D01*
X185650000Y-78390000D01*
X185660000Y-79280000D01*
X185660000Y-91570000D01*
X185500000Y-92260000D01*
X185090000Y-92900000D01*
X184370000Y-93360000D01*
X183100000Y-93480000D01*
X168930000Y-93450000D01*
X168420000Y-93370000D01*
X167850000Y-93070000D01*
X167470000Y-92690000D01*
X167230000Y-92290000D01*
X167100000Y-91930000D01*
X167050000Y-91170000D01*
X167050000Y-86590000D01*
X167040000Y-78460000D01*
X168550000Y-78550000D01*
X168550000Y-91360000D01*
X169340000Y-91360000D01*
X169350000Y-91950000D01*
X183340000Y-91950000D01*
X183350000Y-91360000D01*
X184160000Y-91350000D01*
X184150000Y-78570000D01*
X183350000Y-78560000D01*
X183350000Y-77970000D01*
X169340000Y-77970000D01*
X169340000Y-76450000D01*
X183690000Y-76440000D01*
X184220000Y-76530000D01*
G37*
X184220000Y-76530000D02*
X184820000Y-76810000D01*
X185240000Y-77230000D01*
X185550000Y-77880000D01*
X185650000Y-78390000D01*
X185660000Y-79280000D01*
X185660000Y-91570000D01*
X185500000Y-92260000D01*
X185090000Y-92900000D01*
X184370000Y-93360000D01*
X183100000Y-93480000D01*
X168930000Y-93450000D01*
X168420000Y-93370000D01*
X167850000Y-93070000D01*
X167470000Y-92690000D01*
X167230000Y-92290000D01*
X167100000Y-91930000D01*
X167050000Y-91170000D01*
X167050000Y-86590000D01*
X167040000Y-78460000D01*
X168550000Y-78550000D01*
X168550000Y-91360000D01*
X169340000Y-91360000D01*
X169350000Y-91950000D01*
X183340000Y-91950000D01*
X183350000Y-91360000D01*
X184160000Y-91350000D01*
X184150000Y-78570000D01*
X183350000Y-78560000D01*
X183350000Y-77970000D01*
X169340000Y-77970000D01*
X169340000Y-76450000D01*
X183690000Y-76440000D01*
X184220000Y-76530000D01*
G36*
X169350000Y-78570000D02*
G01*
X167030000Y-78550000D01*
X167100000Y-77960000D01*
X167400000Y-77320000D01*
X167680000Y-76970000D01*
X168090000Y-76720000D01*
X168740000Y-76480000D01*
X169340000Y-76440000D01*
X169350000Y-78570000D01*
G37*
X169350000Y-78570000D02*
X167030000Y-78550000D01*
X167100000Y-77960000D01*
X167400000Y-77320000D01*
X167680000Y-76970000D01*
X168090000Y-76720000D01*
X168740000Y-76480000D01*
X169340000Y-76440000D01*
X169350000Y-78570000D01*
D10*
X184099608Y-91396838D02*
X184099608Y-78596238D01*
X168498508Y-91396838D02*
X169299308Y-91396838D01*
X183298608Y-77996938D02*
X169299308Y-77996938D01*
X183298608Y-91396838D02*
X184099608Y-91396838D01*
X184099608Y-78596238D02*
X183298608Y-78596238D01*
X183298608Y-91996338D02*
X183298608Y-91396838D01*
X169299308Y-77996938D02*
X169299308Y-78596238D01*
X169299308Y-91996338D02*
X183298608Y-91996338D01*
X169299308Y-91396838D02*
X169299308Y-91996338D01*
X169299308Y-78596238D02*
X168498508Y-78596238D01*
X183298608Y-78596238D02*
X183298608Y-77996938D01*
X168498508Y-78596238D02*
X168498508Y-91396838D01*
X185599333Y-78497038D02*
X185599333Y-91496238D01*
X168998543Y-93496238D02*
X183599333Y-93496238D01*
X168998543Y-76497038D02*
X183599333Y-76497038D01*
X166998543Y-78497038D02*
X166998543Y-91496238D01*
X166998543Y-78497038D02*
G75*
G02*
X168998543Y-76497038I2000000J0D01*
G01*
X168998543Y-93496238D02*
G75*
G02*
X166998543Y-91496238I0J2000000D01*
G01*
X183599333Y-76497038D02*
G75*
G02*
X185599333Y-78497038I0J-2000000D01*
G01*
X185599333Y-91496238D02*
G75*
G02*
X183599333Y-93496238I-2000000J0D01*
G01*
X169048543Y-93456238D02*
G75*
G02*
X167048543Y-91456238I0J2000000D01*
G01*
X185649333Y-91456238D02*
G75*
G02*
X183649333Y-93456238I-2000000J0D01*
G01*
X183649333Y-76457038D02*
G75*
G02*
X185649333Y-78457038I0J-2000000D01*
G01*
X167048543Y-78457038D02*
G75*
G02*
X169048543Y-76457038I2000000J0D01*
G01*
X168998543Y-93496238D02*
G75*
G02*
X166998543Y-91496238I0J2000000D01*
G01*
X185649333Y-91456238D02*
G75*
G02*
X183649333Y-93456238I-2000000J0D01*
G01*
X185599333Y-91496238D02*
G75*
G02*
X183599333Y-93496238I-2000000J0D01*
G01*
X166998543Y-78497038D02*
G75*
G02*
X168998543Y-76497038I2000000J0D01*
G01*
X169048543Y-93456238D02*
G75*
G02*
X167048543Y-91456238I0J2000000D01*
G01*
X167048543Y-78457038D02*
G75*
G02*
X169048543Y-76457038I2000000J0D01*
G01*
X183599333Y-76497038D02*
G75*
G02*
X185599333Y-78497038I0J-2000000D01*
G01*
X183649333Y-76457038D02*
G75*
G02*
X185649333Y-78457038I0J-2000000D01*
G01*
X188349308Y-92046338D02*
X202348608Y-92046338D01*
X187598508Y-91406838D02*
X188399308Y-91406838D01*
X202398608Y-91406838D02*
X203199608Y-91406838D01*
X188349308Y-78646238D02*
X187548508Y-78646238D01*
X204649333Y-78547038D02*
X204649333Y-91546238D01*
X202398608Y-92006338D02*
X202398608Y-91406838D01*
X187548508Y-91446838D02*
X188349308Y-91446838D01*
X202348608Y-78646238D02*
X202348608Y-78046938D01*
X202398608Y-78606238D02*
X202398608Y-78006938D01*
X188399308Y-91406838D02*
X188399308Y-92006338D01*
X203199608Y-78606238D02*
X202398608Y-78606238D01*
X188098543Y-93506238D02*
X202699333Y-93506238D01*
X202398608Y-78006938D02*
X188399308Y-78006938D01*
X188399308Y-78606238D02*
X187598508Y-78606238D01*
X188349308Y-91446838D02*
X188349308Y-92046338D01*
X188349308Y-78046938D02*
X188349308Y-78646238D01*
X187548508Y-78646238D02*
X187548508Y-91446838D01*
X186098543Y-78507038D02*
X186098543Y-91506238D01*
X188098543Y-76507038D02*
X202699333Y-76507038D01*
X203149608Y-91446838D02*
X203149608Y-78646238D01*
X187598508Y-78606238D02*
X187598508Y-91406838D01*
X203149608Y-78646238D02*
X202348608Y-78646238D01*
X202348608Y-91446838D02*
X203149608Y-91446838D01*
X188399308Y-92006338D02*
X202398608Y-92006338D01*
X202348608Y-92046338D02*
X202348608Y-91446838D01*
X203199608Y-91406838D02*
X203199608Y-78606238D01*
X204699333Y-78507038D02*
X204699333Y-91506238D01*
X202348608Y-78046938D02*
X188349308Y-78046938D01*
X188399308Y-78006938D02*
X188399308Y-78606238D01*
X188048543Y-93546238D02*
X202649333Y-93546238D01*
X188048543Y-76547038D02*
X202649333Y-76547038D01*
X186048543Y-78547038D02*
X186048543Y-91546238D01*
X187598508Y-91406838D02*
X188399308Y-91406838D01*
X188399308Y-91406838D02*
X188399308Y-92006338D01*
X187598508Y-78606238D02*
X187598508Y-91406838D01*
X202398608Y-92006338D02*
X202398608Y-91406838D01*
X202398608Y-78606238D02*
X202398608Y-78006938D01*
X188399308Y-78606238D02*
X187598508Y-78606238D01*
X203199608Y-91406838D02*
X203199608Y-78606238D01*
X202398608Y-78006938D02*
X188399308Y-78006938D01*
X202398608Y-91406838D02*
X203199608Y-91406838D01*
X188399308Y-78006938D02*
X188399308Y-78606238D01*
X203199608Y-78606238D02*
X202398608Y-78606238D01*
X188399308Y-92006338D02*
X202398608Y-92006338D01*
X188098543Y-93506238D02*
X202699333Y-93506238D01*
X204699333Y-78507038D02*
X204699333Y-91506238D01*
X188098543Y-76507038D02*
X202699333Y-76507038D01*
X186098543Y-78507038D02*
X186098543Y-91506238D01*
D11*
G36*
X203270000Y-76580000D02*
G01*
X203870000Y-76860000D01*
X204290000Y-77280000D01*
X204600000Y-77930000D01*
X204700000Y-78440000D01*
X204710000Y-79330000D01*
X204710000Y-91620000D01*
X204550000Y-92310000D01*
X204140000Y-92950000D01*
X203420000Y-93410000D01*
X202150000Y-93530000D01*
X187980000Y-93500000D01*
X187470000Y-93420000D01*
X186900000Y-93120000D01*
X186520000Y-92740000D01*
X186280000Y-92340000D01*
X186150000Y-91980000D01*
X186100000Y-91220000D01*
X186100000Y-86640000D01*
X186090000Y-78510000D01*
X187600000Y-78600000D01*
X187600000Y-91410000D01*
X188390000Y-91410000D01*
X188400000Y-92000000D01*
X202390000Y-92000000D01*
X202400000Y-91410000D01*
X203210000Y-91400000D01*
X203200000Y-78620000D01*
X202400000Y-78610000D01*
X202400000Y-78020000D01*
X188390000Y-78020000D01*
X188390000Y-76500000D01*
X202740000Y-76490000D01*
X203270000Y-76580000D01*
G37*
X203270000Y-76580000D02*
X203870000Y-76860000D01*
X204290000Y-77280000D01*
X204600000Y-77930000D01*
X204700000Y-78440000D01*
X204710000Y-79330000D01*
X204710000Y-91620000D01*
X204550000Y-92310000D01*
X204140000Y-92950000D01*
X203420000Y-93410000D01*
X202150000Y-93530000D01*
X187980000Y-93500000D01*
X187470000Y-93420000D01*
X186900000Y-93120000D01*
X186520000Y-92740000D01*
X186280000Y-92340000D01*
X186150000Y-91980000D01*
X186100000Y-91220000D01*
X186100000Y-86640000D01*
X186090000Y-78510000D01*
X187600000Y-78600000D01*
X187600000Y-91410000D01*
X188390000Y-91410000D01*
X188400000Y-92000000D01*
X202390000Y-92000000D01*
X202400000Y-91410000D01*
X203210000Y-91400000D01*
X203200000Y-78620000D01*
X202400000Y-78610000D01*
X202400000Y-78020000D01*
X188390000Y-78020000D01*
X188390000Y-76500000D01*
X202740000Y-76490000D01*
X203270000Y-76580000D01*
G36*
X188400000Y-78620000D02*
G01*
X186080000Y-78600000D01*
X186150000Y-78010000D01*
X186450000Y-77370000D01*
X186730000Y-77020000D01*
X187140000Y-76770000D01*
X187790000Y-76530000D01*
X188390000Y-76490000D01*
X188400000Y-78620000D01*
G37*
X188400000Y-78620000D02*
X186080000Y-78600000D01*
X186150000Y-78010000D01*
X186450000Y-77370000D01*
X186730000Y-77020000D01*
X187140000Y-76770000D01*
X187790000Y-76530000D01*
X188390000Y-76490000D01*
X188400000Y-78620000D01*
D10*
X203149608Y-91446838D02*
X203149608Y-78646238D01*
X187548508Y-91446838D02*
X188349308Y-91446838D01*
X202348608Y-78046938D02*
X188349308Y-78046938D01*
X202348608Y-91446838D02*
X203149608Y-91446838D01*
X203149608Y-78646238D02*
X202348608Y-78646238D01*
X202348608Y-92046338D02*
X202348608Y-91446838D01*
X188349308Y-78046938D02*
X188349308Y-78646238D01*
X188349308Y-92046338D02*
X202348608Y-92046338D01*
X188349308Y-91446838D02*
X188349308Y-92046338D01*
X188349308Y-78646238D02*
X187548508Y-78646238D01*
X202348608Y-78646238D02*
X202348608Y-78046938D01*
X187548508Y-78646238D02*
X187548508Y-91446838D01*
X204649333Y-78547038D02*
X204649333Y-91546238D01*
X188048543Y-93546238D02*
X202649333Y-93546238D01*
X188048543Y-76547038D02*
X202649333Y-76547038D01*
X186048543Y-78547038D02*
X186048543Y-91546238D01*
X186048543Y-78547038D02*
G75*
G02*
X188048543Y-76547038I2000000J0D01*
G01*
X188048543Y-93546238D02*
G75*
G02*
X186048543Y-91546238I0J2000000D01*
G01*
X202649333Y-76547038D02*
G75*
G02*
X204649333Y-78547038I0J-2000000D01*
G01*
X204649333Y-91546238D02*
G75*
G02*
X202649333Y-93546238I-2000000J0D01*
G01*
X188098543Y-93506238D02*
G75*
G02*
X186098543Y-91506238I0J2000000D01*
G01*
X204699333Y-91506238D02*
G75*
G02*
X202699333Y-93506238I-2000000J0D01*
G01*
X202699333Y-76507038D02*
G75*
G02*
X204699333Y-78507038I0J-2000000D01*
G01*
X186098543Y-78507038D02*
G75*
G02*
X188098543Y-76507038I2000000J0D01*
G01*
X188048543Y-93546238D02*
G75*
G02*
X186048543Y-91546238I0J2000000D01*
G01*
X204699333Y-91506238D02*
G75*
G02*
X202699333Y-93506238I-2000000J0D01*
G01*
X204649333Y-91546238D02*
G75*
G02*
X202649333Y-93546238I-2000000J0D01*
G01*
X186048543Y-78547038D02*
G75*
G02*
X188048543Y-76547038I2000000J0D01*
G01*
X188098543Y-93506238D02*
G75*
G02*
X186098543Y-91506238I0J2000000D01*
G01*
X186098543Y-78507038D02*
G75*
G02*
X188098543Y-76507038I2000000J0D01*
G01*
X202649333Y-76547038D02*
G75*
G02*
X204649333Y-78547038I0J-2000000D01*
G01*
X202699333Y-76507038D02*
G75*
G02*
X204699333Y-78507038I0J-2000000D01*
G01*
X207349308Y-91996338D02*
X221348608Y-91996338D01*
X206598508Y-91356838D02*
X207399308Y-91356838D01*
X221398608Y-91356838D02*
X222199608Y-91356838D01*
X207349308Y-78596238D02*
X206548508Y-78596238D01*
X223649333Y-78497038D02*
X223649333Y-91496238D01*
X221398608Y-91956338D02*
X221398608Y-91356838D01*
X206548508Y-91396838D02*
X207349308Y-91396838D01*
X221348608Y-78596238D02*
X221348608Y-77996938D01*
X221398608Y-78556238D02*
X221398608Y-77956938D01*
X207399308Y-91356838D02*
X207399308Y-91956338D01*
X222199608Y-78556238D02*
X221398608Y-78556238D01*
X207098543Y-93456238D02*
X221699333Y-93456238D01*
X221398608Y-77956938D02*
X207399308Y-77956938D01*
X207399308Y-78556238D02*
X206598508Y-78556238D01*
X207349308Y-91396838D02*
X207349308Y-91996338D01*
X207349308Y-77996938D02*
X207349308Y-78596238D01*
X206548508Y-78596238D02*
X206548508Y-91396838D01*
X205098543Y-78457038D02*
X205098543Y-91456238D01*
X207098543Y-76457038D02*
X221699333Y-76457038D01*
X222149608Y-91396838D02*
X222149608Y-78596238D01*
X206598508Y-78556238D02*
X206598508Y-91356838D01*
X222149608Y-78596238D02*
X221348608Y-78596238D01*
X221348608Y-91396838D02*
X222149608Y-91396838D01*
X207399308Y-91956338D02*
X221398608Y-91956338D01*
X221348608Y-91996338D02*
X221348608Y-91396838D01*
X222199608Y-91356838D02*
X222199608Y-78556238D01*
X223699333Y-78457038D02*
X223699333Y-91456238D01*
X221348608Y-77996938D02*
X207349308Y-77996938D01*
X207399308Y-77956938D02*
X207399308Y-78556238D01*
X207048543Y-93496238D02*
X221649333Y-93496238D01*
X207048543Y-76497038D02*
X221649333Y-76497038D01*
X205048543Y-78497038D02*
X205048543Y-91496238D01*
X206598508Y-91356838D02*
X207399308Y-91356838D01*
X207399308Y-91356838D02*
X207399308Y-91956338D01*
X206598508Y-78556238D02*
X206598508Y-91356838D01*
X221398608Y-91956338D02*
X221398608Y-91356838D01*
X221398608Y-78556238D02*
X221398608Y-77956938D01*
X207399308Y-78556238D02*
X206598508Y-78556238D01*
X222199608Y-91356838D02*
X222199608Y-78556238D01*
X221398608Y-77956938D02*
X207399308Y-77956938D01*
X221398608Y-91356838D02*
X222199608Y-91356838D01*
X207399308Y-77956938D02*
X207399308Y-78556238D01*
X222199608Y-78556238D02*
X221398608Y-78556238D01*
X207399308Y-91956338D02*
X221398608Y-91956338D01*
X207098543Y-93456238D02*
X221699333Y-93456238D01*
X223699333Y-78457038D02*
X223699333Y-91456238D01*
X207098543Y-76457038D02*
X221699333Y-76457038D01*
X205098543Y-78457038D02*
X205098543Y-91456238D01*
D11*
G36*
X222270000Y-76530000D02*
G01*
X222870000Y-76810000D01*
X223290000Y-77230000D01*
X223600000Y-77880000D01*
X223700000Y-78390000D01*
X223710000Y-79280000D01*
X223710000Y-91570000D01*
X223550000Y-92260000D01*
X223140000Y-92900000D01*
X222420000Y-93360000D01*
X221150000Y-93480000D01*
X206980000Y-93450000D01*
X206470000Y-93370000D01*
X205900000Y-93070000D01*
X205520000Y-92690000D01*
X205280000Y-92290000D01*
X205150000Y-91930000D01*
X205100000Y-91170000D01*
X205100000Y-86590000D01*
X205090000Y-78460000D01*
X206600000Y-78550000D01*
X206600000Y-91360000D01*
X207390000Y-91360000D01*
X207400000Y-91950000D01*
X221390000Y-91950000D01*
X221400000Y-91360000D01*
X222210000Y-91350000D01*
X222200000Y-78570000D01*
X221400000Y-78560000D01*
X221400000Y-77970000D01*
X207390000Y-77970000D01*
X207390000Y-76450000D01*
X221740000Y-76440000D01*
X222270000Y-76530000D01*
G37*
X222270000Y-76530000D02*
X222870000Y-76810000D01*
X223290000Y-77230000D01*
X223600000Y-77880000D01*
X223700000Y-78390000D01*
X223710000Y-79280000D01*
X223710000Y-91570000D01*
X223550000Y-92260000D01*
X223140000Y-92900000D01*
X222420000Y-93360000D01*
X221150000Y-93480000D01*
X206980000Y-93450000D01*
X206470000Y-93370000D01*
X205900000Y-93070000D01*
X205520000Y-92690000D01*
X205280000Y-92290000D01*
X205150000Y-91930000D01*
X205100000Y-91170000D01*
X205100000Y-86590000D01*
X205090000Y-78460000D01*
X206600000Y-78550000D01*
X206600000Y-91360000D01*
X207390000Y-91360000D01*
X207400000Y-91950000D01*
X221390000Y-91950000D01*
X221400000Y-91360000D01*
X222210000Y-91350000D01*
X222200000Y-78570000D01*
X221400000Y-78560000D01*
X221400000Y-77970000D01*
X207390000Y-77970000D01*
X207390000Y-76450000D01*
X221740000Y-76440000D01*
X222270000Y-76530000D01*
G36*
X207400000Y-78570000D02*
G01*
X205080000Y-78550000D01*
X205150000Y-77960000D01*
X205450000Y-77320000D01*
X205730000Y-76970000D01*
X206140000Y-76720000D01*
X206790000Y-76480000D01*
X207390000Y-76440000D01*
X207400000Y-78570000D01*
G37*
X207400000Y-78570000D02*
X205080000Y-78550000D01*
X205150000Y-77960000D01*
X205450000Y-77320000D01*
X205730000Y-76970000D01*
X206140000Y-76720000D01*
X206790000Y-76480000D01*
X207390000Y-76440000D01*
X207400000Y-78570000D01*
D10*
X222149608Y-91396838D02*
X222149608Y-78596238D01*
X206548508Y-91396838D02*
X207349308Y-91396838D01*
X221348608Y-77996938D02*
X207349308Y-77996938D01*
X221348608Y-91396838D02*
X222149608Y-91396838D01*
X222149608Y-78596238D02*
X221348608Y-78596238D01*
X221348608Y-91996338D02*
X221348608Y-91396838D01*
X207349308Y-77996938D02*
X207349308Y-78596238D01*
X207349308Y-91996338D02*
X221348608Y-91996338D01*
X207349308Y-91396838D02*
X207349308Y-91996338D01*
X207349308Y-78596238D02*
X206548508Y-78596238D01*
X221348608Y-78596238D02*
X221348608Y-77996938D01*
X206548508Y-78596238D02*
X206548508Y-91396838D01*
X223649333Y-78497038D02*
X223649333Y-91496238D01*
X207048543Y-93496238D02*
X221649333Y-93496238D01*
X207048543Y-76497038D02*
X221649333Y-76497038D01*
X205048543Y-78497038D02*
X205048543Y-91496238D01*
X205048543Y-78497038D02*
G75*
G02*
X207048543Y-76497038I2000000J0D01*
G01*
X207048543Y-93496238D02*
G75*
G02*
X205048543Y-91496238I0J2000000D01*
G01*
X221649333Y-76497038D02*
G75*
G02*
X223649333Y-78497038I0J-2000000D01*
G01*
X223649333Y-91496238D02*
G75*
G02*
X221649333Y-93496238I-2000000J0D01*
G01*
X207098543Y-93456238D02*
G75*
G02*
X205098543Y-91456238I0J2000000D01*
G01*
X223699333Y-91456238D02*
G75*
G02*
X221699333Y-93456238I-2000000J0D01*
G01*
X221699333Y-76457038D02*
G75*
G02*
X223699333Y-78457038I0J-2000000D01*
G01*
X205098543Y-78457038D02*
G75*
G02*
X207098543Y-76457038I2000000J0D01*
G01*
X207048543Y-93496238D02*
G75*
G02*
X205048543Y-91496238I0J2000000D01*
G01*
X223699333Y-91456238D02*
G75*
G02*
X221699333Y-93456238I-2000000J0D01*
G01*
X223649333Y-91496238D02*
G75*
G02*
X221649333Y-93496238I-2000000J0D01*
G01*
X205048543Y-78497038D02*
G75*
G02*
X207048543Y-76497038I2000000J0D01*
G01*
X207098543Y-93456238D02*
G75*
G02*
X205098543Y-91456238I0J2000000D01*
G01*
X205098543Y-78457038D02*
G75*
G02*
X207098543Y-76457038I2000000J0D01*
G01*
X221649333Y-76497038D02*
G75*
G02*
X223649333Y-78497038I0J-2000000D01*
G01*
X221699333Y-76457038D02*
G75*
G02*
X223699333Y-78457038I0J-2000000D01*
G01*
X226449308Y-91996338D02*
X240448608Y-91996338D01*
X225698508Y-91356838D02*
X226499308Y-91356838D01*
X240498608Y-91356838D02*
X241299608Y-91356838D01*
X226449308Y-78596238D02*
X225648508Y-78596238D01*
X242749333Y-78497038D02*
X242749333Y-91496238D01*
X240498608Y-91956338D02*
X240498608Y-91356838D01*
X225648508Y-91396838D02*
X226449308Y-91396838D01*
X240448608Y-78596238D02*
X240448608Y-77996938D01*
X240498608Y-78556238D02*
X240498608Y-77956938D01*
X226499308Y-91356838D02*
X226499308Y-91956338D01*
X241299608Y-78556238D02*
X240498608Y-78556238D01*
X226198543Y-93456238D02*
X240799333Y-93456238D01*
X240498608Y-77956938D02*
X226499308Y-77956938D01*
X226499308Y-78556238D02*
X225698508Y-78556238D01*
X226449308Y-91396838D02*
X226449308Y-91996338D01*
X226449308Y-77996938D02*
X226449308Y-78596238D01*
X225648508Y-78596238D02*
X225648508Y-91396838D01*
X224198543Y-78457038D02*
X224198543Y-91456238D01*
X226198543Y-76457038D02*
X240799333Y-76457038D01*
X241249608Y-91396838D02*
X241249608Y-78596238D01*
X225698508Y-78556238D02*
X225698508Y-91356838D01*
X241249608Y-78596238D02*
X240448608Y-78596238D01*
X240448608Y-91396838D02*
X241249608Y-91396838D01*
X226499308Y-91956338D02*
X240498608Y-91956338D01*
X240448608Y-91996338D02*
X240448608Y-91396838D01*
X241299608Y-91356838D02*
X241299608Y-78556238D01*
X242799333Y-78457038D02*
X242799333Y-91456238D01*
X240448608Y-77996938D02*
X226449308Y-77996938D01*
X226499308Y-77956938D02*
X226499308Y-78556238D01*
X226148543Y-93496238D02*
X240749333Y-93496238D01*
X226148543Y-76497038D02*
X240749333Y-76497038D01*
X224148543Y-78497038D02*
X224148543Y-91496238D01*
X225698508Y-91356838D02*
X226499308Y-91356838D01*
X226499308Y-91356838D02*
X226499308Y-91956338D01*
X225698508Y-78556238D02*
X225698508Y-91356838D01*
X240498608Y-91956338D02*
X240498608Y-91356838D01*
X240498608Y-78556238D02*
X240498608Y-77956938D01*
X226499308Y-78556238D02*
X225698508Y-78556238D01*
X241299608Y-91356838D02*
X241299608Y-78556238D01*
X240498608Y-77956938D02*
X226499308Y-77956938D01*
X240498608Y-91356838D02*
X241299608Y-91356838D01*
X226499308Y-77956938D02*
X226499308Y-78556238D01*
X241299608Y-78556238D02*
X240498608Y-78556238D01*
X226499308Y-91956338D02*
X240498608Y-91956338D01*
X226198543Y-93456238D02*
X240799333Y-93456238D01*
X242799333Y-78457038D02*
X242799333Y-91456238D01*
X226198543Y-76457038D02*
X240799333Y-76457038D01*
X224198543Y-78457038D02*
X224198543Y-91456238D01*
D11*
G36*
X241370000Y-76530000D02*
G01*
X241970000Y-76810000D01*
X242390000Y-77230000D01*
X242700000Y-77880000D01*
X242800000Y-78390000D01*
X242810000Y-79280000D01*
X242810000Y-91570000D01*
X242650000Y-92260000D01*
X242240000Y-92900000D01*
X241520000Y-93360000D01*
X240250000Y-93480000D01*
X226080000Y-93450000D01*
X225570000Y-93370000D01*
X225000000Y-93070000D01*
X224620000Y-92690000D01*
X224380000Y-92290000D01*
X224250000Y-91930000D01*
X224200000Y-91170000D01*
X224200000Y-86590000D01*
X224190000Y-78460000D01*
X225700000Y-78550000D01*
X225700000Y-91360000D01*
X226490000Y-91360000D01*
X226500000Y-91950000D01*
X240490000Y-91950000D01*
X240500000Y-91360000D01*
X241310000Y-91350000D01*
X241300000Y-78570000D01*
X240500000Y-78560000D01*
X240500000Y-77970000D01*
X226490000Y-77970000D01*
X226490000Y-76450000D01*
X240840000Y-76440000D01*
X241370000Y-76530000D01*
G37*
X241370000Y-76530000D02*
X241970000Y-76810000D01*
X242390000Y-77230000D01*
X242700000Y-77880000D01*
X242800000Y-78390000D01*
X242810000Y-79280000D01*
X242810000Y-91570000D01*
X242650000Y-92260000D01*
X242240000Y-92900000D01*
X241520000Y-93360000D01*
X240250000Y-93480000D01*
X226080000Y-93450000D01*
X225570000Y-93370000D01*
X225000000Y-93070000D01*
X224620000Y-92690000D01*
X224380000Y-92290000D01*
X224250000Y-91930000D01*
X224200000Y-91170000D01*
X224200000Y-86590000D01*
X224190000Y-78460000D01*
X225700000Y-78550000D01*
X225700000Y-91360000D01*
X226490000Y-91360000D01*
X226500000Y-91950000D01*
X240490000Y-91950000D01*
X240500000Y-91360000D01*
X241310000Y-91350000D01*
X241300000Y-78570000D01*
X240500000Y-78560000D01*
X240500000Y-77970000D01*
X226490000Y-77970000D01*
X226490000Y-76450000D01*
X240840000Y-76440000D01*
X241370000Y-76530000D01*
G36*
X226500000Y-78570000D02*
G01*
X224180000Y-78550000D01*
X224250000Y-77960000D01*
X224550000Y-77320000D01*
X224830000Y-76970000D01*
X225240000Y-76720000D01*
X225890000Y-76480000D01*
X226490000Y-76440000D01*
X226500000Y-78570000D01*
G37*
X226500000Y-78570000D02*
X224180000Y-78550000D01*
X224250000Y-77960000D01*
X224550000Y-77320000D01*
X224830000Y-76970000D01*
X225240000Y-76720000D01*
X225890000Y-76480000D01*
X226490000Y-76440000D01*
X226500000Y-78570000D01*
D10*
X241249608Y-91396838D02*
X241249608Y-78596238D01*
X225648508Y-91396838D02*
X226449308Y-91396838D01*
X240448608Y-77996938D02*
X226449308Y-77996938D01*
X240448608Y-91396838D02*
X241249608Y-91396838D01*
X241249608Y-78596238D02*
X240448608Y-78596238D01*
X240448608Y-91996338D02*
X240448608Y-91396838D01*
X226449308Y-77996938D02*
X226449308Y-78596238D01*
X226449308Y-91996338D02*
X240448608Y-91996338D01*
X226449308Y-91396838D02*
X226449308Y-91996338D01*
X226449308Y-78596238D02*
X225648508Y-78596238D01*
X240448608Y-78596238D02*
X240448608Y-77996938D01*
X225648508Y-78596238D02*
X225648508Y-91396838D01*
X242749333Y-78497038D02*
X242749333Y-91496238D01*
X226148543Y-93496238D02*
X240749333Y-93496238D01*
X226148543Y-76497038D02*
X240749333Y-76497038D01*
X224148543Y-78497038D02*
X224148543Y-91496238D01*
X224148543Y-78497038D02*
G75*
G02*
X226148543Y-76497038I2000000J0D01*
G01*
X226148543Y-93496238D02*
G75*
G02*
X224148543Y-91496238I0J2000000D01*
G01*
X240749333Y-76497038D02*
G75*
G02*
X242749333Y-78497038I0J-2000000D01*
G01*
X242749333Y-91496238D02*
G75*
G02*
X240749333Y-93496238I-2000000J0D01*
G01*
X226198543Y-93456238D02*
G75*
G02*
X224198543Y-91456238I0J2000000D01*
G01*
X242799333Y-91456238D02*
G75*
G02*
X240799333Y-93456238I-2000000J0D01*
G01*
X240799333Y-76457038D02*
G75*
G02*
X242799333Y-78457038I0J-2000000D01*
G01*
X224198543Y-78457038D02*
G75*
G02*
X226198543Y-76457038I2000000J0D01*
G01*
X226148543Y-93496238D02*
G75*
G02*
X224148543Y-91496238I0J2000000D01*
G01*
X242799333Y-91456238D02*
G75*
G02*
X240799333Y-93456238I-2000000J0D01*
G01*
X242749333Y-91496238D02*
G75*
G02*
X240749333Y-93496238I-2000000J0D01*
G01*
X224148543Y-78497038D02*
G75*
G02*
X226148543Y-76497038I2000000J0D01*
G01*
X226198543Y-93456238D02*
G75*
G02*
X224198543Y-91456238I0J2000000D01*
G01*
X224198543Y-78457038D02*
G75*
G02*
X226198543Y-76457038I2000000J0D01*
G01*
X240749333Y-76497038D02*
G75*
G02*
X242749333Y-78497038I0J-2000000D01*
G01*
X240799333Y-76457038D02*
G75*
G02*
X242799333Y-78457038I0J-2000000D01*
G01*
X226449308Y-72946338D02*
X240448608Y-72946338D01*
X225698508Y-72306838D02*
X226499308Y-72306838D01*
X240498608Y-72306838D02*
X241299608Y-72306838D01*
X226449308Y-59546238D02*
X225648508Y-59546238D01*
X242749333Y-59447038D02*
X242749333Y-72446238D01*
X240498608Y-72906338D02*
X240498608Y-72306838D01*
X225648508Y-72346838D02*
X226449308Y-72346838D01*
X240448608Y-59546238D02*
X240448608Y-58946938D01*
X240498608Y-59506238D02*
X240498608Y-58906938D01*
X226499308Y-72306838D02*
X226499308Y-72906338D01*
X241299608Y-59506238D02*
X240498608Y-59506238D01*
X226198543Y-74406238D02*
X240799333Y-74406238D01*
X240498608Y-58906938D02*
X226499308Y-58906938D01*
X226499308Y-59506238D02*
X225698508Y-59506238D01*
X226449308Y-72346838D02*
X226449308Y-72946338D01*
X226449308Y-58946938D02*
X226449308Y-59546238D01*
X225648508Y-59546238D02*
X225648508Y-72346838D01*
X224198543Y-59407038D02*
X224198543Y-72406238D01*
X226198543Y-57407038D02*
X240799333Y-57407038D01*
X241249608Y-72346838D02*
X241249608Y-59546238D01*
X225698508Y-59506238D02*
X225698508Y-72306838D01*
X241249608Y-59546238D02*
X240448608Y-59546238D01*
X240448608Y-72346838D02*
X241249608Y-72346838D01*
X226499308Y-72906338D02*
X240498608Y-72906338D01*
X240448608Y-72946338D02*
X240448608Y-72346838D01*
X241299608Y-72306838D02*
X241299608Y-59506238D01*
X242799333Y-59407038D02*
X242799333Y-72406238D01*
X240448608Y-58946938D02*
X226449308Y-58946938D01*
X226499308Y-58906938D02*
X226499308Y-59506238D01*
X226148543Y-74446238D02*
X240749333Y-74446238D01*
X226148543Y-57447038D02*
X240749333Y-57447038D01*
X224148543Y-59447038D02*
X224148543Y-72446238D01*
X225698508Y-72306838D02*
X226499308Y-72306838D01*
X226499308Y-72306838D02*
X226499308Y-72906338D01*
X225698508Y-59506238D02*
X225698508Y-72306838D01*
X240498608Y-72906338D02*
X240498608Y-72306838D01*
X240498608Y-59506238D02*
X240498608Y-58906938D01*
X226499308Y-59506238D02*
X225698508Y-59506238D01*
X241299608Y-72306838D02*
X241299608Y-59506238D01*
X240498608Y-58906938D02*
X226499308Y-58906938D01*
X240498608Y-72306838D02*
X241299608Y-72306838D01*
X226499308Y-58906938D02*
X226499308Y-59506238D01*
X241299608Y-59506238D02*
X240498608Y-59506238D01*
X226499308Y-72906338D02*
X240498608Y-72906338D01*
X226198543Y-74406238D02*
X240799333Y-74406238D01*
X242799333Y-59407038D02*
X242799333Y-72406238D01*
X226198543Y-57407038D02*
X240799333Y-57407038D01*
X224198543Y-59407038D02*
X224198543Y-72406238D01*
D11*
G36*
X241370000Y-57480000D02*
G01*
X241970000Y-57760000D01*
X242390000Y-58180000D01*
X242700000Y-58830000D01*
X242800000Y-59340000D01*
X242810000Y-60230000D01*
X242810000Y-72520000D01*
X242650000Y-73210000D01*
X242240000Y-73850000D01*
X241520000Y-74310000D01*
X240250000Y-74430000D01*
X226080000Y-74400000D01*
X225570000Y-74320000D01*
X225000000Y-74020000D01*
X224620000Y-73640000D01*
X224380000Y-73240000D01*
X224250000Y-72880000D01*
X224200000Y-72120000D01*
X224200000Y-67540000D01*
X224190000Y-59410000D01*
X225700000Y-59500000D01*
X225700000Y-72310000D01*
X226490000Y-72310000D01*
X226500000Y-72900000D01*
X240490000Y-72900000D01*
X240500000Y-72310000D01*
X241310000Y-72300000D01*
X241300000Y-59520000D01*
X240500000Y-59510000D01*
X240500000Y-58920000D01*
X226490000Y-58920000D01*
X226490000Y-57400000D01*
X240840000Y-57390000D01*
X241370000Y-57480000D01*
G37*
X241370000Y-57480000D02*
X241970000Y-57760000D01*
X242390000Y-58180000D01*
X242700000Y-58830000D01*
X242800000Y-59340000D01*
X242810000Y-60230000D01*
X242810000Y-72520000D01*
X242650000Y-73210000D01*
X242240000Y-73850000D01*
X241520000Y-74310000D01*
X240250000Y-74430000D01*
X226080000Y-74400000D01*
X225570000Y-74320000D01*
X225000000Y-74020000D01*
X224620000Y-73640000D01*
X224380000Y-73240000D01*
X224250000Y-72880000D01*
X224200000Y-72120000D01*
X224200000Y-67540000D01*
X224190000Y-59410000D01*
X225700000Y-59500000D01*
X225700000Y-72310000D01*
X226490000Y-72310000D01*
X226500000Y-72900000D01*
X240490000Y-72900000D01*
X240500000Y-72310000D01*
X241310000Y-72300000D01*
X241300000Y-59520000D01*
X240500000Y-59510000D01*
X240500000Y-58920000D01*
X226490000Y-58920000D01*
X226490000Y-57400000D01*
X240840000Y-57390000D01*
X241370000Y-57480000D01*
G36*
X226500000Y-59520000D02*
G01*
X224180000Y-59500000D01*
X224250000Y-58910000D01*
X224550000Y-58270000D01*
X224830000Y-57920000D01*
X225240000Y-57670000D01*
X225890000Y-57430000D01*
X226490000Y-57390000D01*
X226500000Y-59520000D01*
G37*
X226500000Y-59520000D02*
X224180000Y-59500000D01*
X224250000Y-58910000D01*
X224550000Y-58270000D01*
X224830000Y-57920000D01*
X225240000Y-57670000D01*
X225890000Y-57430000D01*
X226490000Y-57390000D01*
X226500000Y-59520000D01*
D10*
X241249608Y-72346838D02*
X241249608Y-59546238D01*
X225648508Y-72346838D02*
X226449308Y-72346838D01*
X240448608Y-58946938D02*
X226449308Y-58946938D01*
X240448608Y-72346838D02*
X241249608Y-72346838D01*
X241249608Y-59546238D02*
X240448608Y-59546238D01*
X240448608Y-72946338D02*
X240448608Y-72346838D01*
X226449308Y-58946938D02*
X226449308Y-59546238D01*
X226449308Y-72946338D02*
X240448608Y-72946338D01*
X226449308Y-72346838D02*
X226449308Y-72946338D01*
X226449308Y-59546238D02*
X225648508Y-59546238D01*
X240448608Y-59546238D02*
X240448608Y-58946938D01*
X225648508Y-59546238D02*
X225648508Y-72346838D01*
X242749333Y-59447038D02*
X242749333Y-72446238D01*
X226148543Y-74446238D02*
X240749333Y-74446238D01*
X226148543Y-57447038D02*
X240749333Y-57447038D01*
X224148543Y-59447038D02*
X224148543Y-72446238D01*
X224148543Y-59447038D02*
G75*
G02*
X226148543Y-57447038I2000000J0D01*
G01*
X226148543Y-74446238D02*
G75*
G02*
X224148543Y-72446238I0J2000000D01*
G01*
X240749333Y-57447038D02*
G75*
G02*
X242749333Y-59447038I0J-2000000D01*
G01*
X242749333Y-72446238D02*
G75*
G02*
X240749333Y-74446238I-2000000J0D01*
G01*
X226198543Y-74406238D02*
G75*
G02*
X224198543Y-72406238I0J2000000D01*
G01*
X242799333Y-72406238D02*
G75*
G02*
X240799333Y-74406238I-2000000J0D01*
G01*
X240799333Y-57407038D02*
G75*
G02*
X242799333Y-59407038I0J-2000000D01*
G01*
X224198543Y-59407038D02*
G75*
G02*
X226198543Y-57407038I2000000J0D01*
G01*
X226148543Y-74446238D02*
G75*
G02*
X224148543Y-72446238I0J2000000D01*
G01*
X242799333Y-72406238D02*
G75*
G02*
X240799333Y-74406238I-2000000J0D01*
G01*
X242749333Y-72446238D02*
G75*
G02*
X240749333Y-74446238I-2000000J0D01*
G01*
X224148543Y-59447038D02*
G75*
G02*
X226148543Y-57447038I2000000J0D01*
G01*
X226198543Y-74406238D02*
G75*
G02*
X224198543Y-72406238I0J2000000D01*
G01*
X224198543Y-59407038D02*
G75*
G02*
X226198543Y-57407038I2000000J0D01*
G01*
X240749333Y-57447038D02*
G75*
G02*
X242749333Y-59447038I0J-2000000D01*
G01*
X240799333Y-57407038D02*
G75*
G02*
X242799333Y-59407038I0J-2000000D01*
G01*
X207399308Y-72996338D02*
X221398608Y-72996338D01*
X206648508Y-72356838D02*
X207449308Y-72356838D01*
X221448608Y-72356838D02*
X222249608Y-72356838D01*
X207399308Y-59596238D02*
X206598508Y-59596238D01*
X223699333Y-59497038D02*
X223699333Y-72496238D01*
X221448608Y-72956338D02*
X221448608Y-72356838D01*
X206598508Y-72396838D02*
X207399308Y-72396838D01*
X221398608Y-59596238D02*
X221398608Y-58996938D01*
X221448608Y-59556238D02*
X221448608Y-58956938D01*
X207449308Y-72356838D02*
X207449308Y-72956338D01*
X222249608Y-59556238D02*
X221448608Y-59556238D01*
X207148543Y-74456238D02*
X221749333Y-74456238D01*
X221448608Y-58956938D02*
X207449308Y-58956938D01*
X207449308Y-59556238D02*
X206648508Y-59556238D01*
X207399308Y-72396838D02*
X207399308Y-72996338D01*
X207399308Y-58996938D02*
X207399308Y-59596238D01*
X206598508Y-59596238D02*
X206598508Y-72396838D01*
X205148543Y-59457038D02*
X205148543Y-72456238D01*
X207148543Y-57457038D02*
X221749333Y-57457038D01*
X222199608Y-72396838D02*
X222199608Y-59596238D01*
X206648508Y-59556238D02*
X206648508Y-72356838D01*
X222199608Y-59596238D02*
X221398608Y-59596238D01*
X221398608Y-72396838D02*
X222199608Y-72396838D01*
X207449308Y-72956338D02*
X221448608Y-72956338D01*
X221398608Y-72996338D02*
X221398608Y-72396838D01*
X222249608Y-72356838D02*
X222249608Y-59556238D01*
X223749333Y-59457038D02*
X223749333Y-72456238D01*
X221398608Y-58996938D02*
X207399308Y-58996938D01*
X207449308Y-58956938D02*
X207449308Y-59556238D01*
X207098543Y-74496238D02*
X221699333Y-74496238D01*
X207098543Y-57497038D02*
X221699333Y-57497038D01*
X205098543Y-59497038D02*
X205098543Y-72496238D01*
X206648508Y-72356838D02*
X207449308Y-72356838D01*
X207449308Y-72356838D02*
X207449308Y-72956338D01*
X206648508Y-59556238D02*
X206648508Y-72356838D01*
X221448608Y-72956338D02*
X221448608Y-72356838D01*
X221448608Y-59556238D02*
X221448608Y-58956938D01*
X207449308Y-59556238D02*
X206648508Y-59556238D01*
X222249608Y-72356838D02*
X222249608Y-59556238D01*
X221448608Y-58956938D02*
X207449308Y-58956938D01*
X221448608Y-72356838D02*
X222249608Y-72356838D01*
X207449308Y-58956938D02*
X207449308Y-59556238D01*
X222249608Y-59556238D02*
X221448608Y-59556238D01*
X207449308Y-72956338D02*
X221448608Y-72956338D01*
X207148543Y-74456238D02*
X221749333Y-74456238D01*
X223749333Y-59457038D02*
X223749333Y-72456238D01*
X207148543Y-57457038D02*
X221749333Y-57457038D01*
X205148543Y-59457038D02*
X205148543Y-72456238D01*
D11*
G36*
X222320000Y-57530000D02*
G01*
X222920000Y-57810000D01*
X223340000Y-58230000D01*
X223650000Y-58880000D01*
X223750000Y-59390000D01*
X223760000Y-60280000D01*
X223760000Y-72570000D01*
X223600000Y-73260000D01*
X223190000Y-73900000D01*
X222470000Y-74360000D01*
X221200000Y-74480000D01*
X207030000Y-74450000D01*
X206520000Y-74370000D01*
X205950000Y-74070000D01*
X205570000Y-73690000D01*
X205330000Y-73290000D01*
X205200000Y-72930000D01*
X205150000Y-72170000D01*
X205150000Y-67590000D01*
X205140000Y-59460000D01*
X206650000Y-59550000D01*
X206650000Y-72360000D01*
X207440000Y-72360000D01*
X207450000Y-72950000D01*
X221440000Y-72950000D01*
X221450000Y-72360000D01*
X222260000Y-72350000D01*
X222250000Y-59570000D01*
X221450000Y-59560000D01*
X221450000Y-58970000D01*
X207440000Y-58970000D01*
X207440000Y-57450000D01*
X221790000Y-57440000D01*
X222320000Y-57530000D01*
G37*
X222320000Y-57530000D02*
X222920000Y-57810000D01*
X223340000Y-58230000D01*
X223650000Y-58880000D01*
X223750000Y-59390000D01*
X223760000Y-60280000D01*
X223760000Y-72570000D01*
X223600000Y-73260000D01*
X223190000Y-73900000D01*
X222470000Y-74360000D01*
X221200000Y-74480000D01*
X207030000Y-74450000D01*
X206520000Y-74370000D01*
X205950000Y-74070000D01*
X205570000Y-73690000D01*
X205330000Y-73290000D01*
X205200000Y-72930000D01*
X205150000Y-72170000D01*
X205150000Y-67590000D01*
X205140000Y-59460000D01*
X206650000Y-59550000D01*
X206650000Y-72360000D01*
X207440000Y-72360000D01*
X207450000Y-72950000D01*
X221440000Y-72950000D01*
X221450000Y-72360000D01*
X222260000Y-72350000D01*
X222250000Y-59570000D01*
X221450000Y-59560000D01*
X221450000Y-58970000D01*
X207440000Y-58970000D01*
X207440000Y-57450000D01*
X221790000Y-57440000D01*
X222320000Y-57530000D01*
G36*
X207450000Y-59570000D02*
G01*
X205130000Y-59550000D01*
X205200000Y-58960000D01*
X205500000Y-58320000D01*
X205780000Y-57970000D01*
X206190000Y-57720000D01*
X206840000Y-57480000D01*
X207440000Y-57440000D01*
X207450000Y-59570000D01*
G37*
X207450000Y-59570000D02*
X205130000Y-59550000D01*
X205200000Y-58960000D01*
X205500000Y-58320000D01*
X205780000Y-57970000D01*
X206190000Y-57720000D01*
X206840000Y-57480000D01*
X207440000Y-57440000D01*
X207450000Y-59570000D01*
D10*
X222199608Y-72396838D02*
X222199608Y-59596238D01*
X206598508Y-72396838D02*
X207399308Y-72396838D01*
X221398608Y-58996938D02*
X207399308Y-58996938D01*
X221398608Y-72396838D02*
X222199608Y-72396838D01*
X222199608Y-59596238D02*
X221398608Y-59596238D01*
X221398608Y-72996338D02*
X221398608Y-72396838D01*
X207399308Y-58996938D02*
X207399308Y-59596238D01*
X207399308Y-72996338D02*
X221398608Y-72996338D01*
X207399308Y-72396838D02*
X207399308Y-72996338D01*
X207399308Y-59596238D02*
X206598508Y-59596238D01*
X221398608Y-59596238D02*
X221398608Y-58996938D01*
X206598508Y-59596238D02*
X206598508Y-72396838D01*
X223699333Y-59497038D02*
X223699333Y-72496238D01*
X207098543Y-74496238D02*
X221699333Y-74496238D01*
X207098543Y-57497038D02*
X221699333Y-57497038D01*
X205098543Y-59497038D02*
X205098543Y-72496238D01*
X205098543Y-59497038D02*
G75*
G02*
X207098543Y-57497038I2000000J0D01*
G01*
X207098543Y-74496238D02*
G75*
G02*
X205098543Y-72496238I0J2000000D01*
G01*
X221699333Y-57497038D02*
G75*
G02*
X223699333Y-59497038I0J-2000000D01*
G01*
X223699333Y-72496238D02*
G75*
G02*
X221699333Y-74496238I-2000000J0D01*
G01*
X207148543Y-74456238D02*
G75*
G02*
X205148543Y-72456238I0J2000000D01*
G01*
X223749333Y-72456238D02*
G75*
G02*
X221749333Y-74456238I-2000000J0D01*
G01*
X221749333Y-57457038D02*
G75*
G02*
X223749333Y-59457038I0J-2000000D01*
G01*
X205148543Y-59457038D02*
G75*
G02*
X207148543Y-57457038I2000000J0D01*
G01*
X207098543Y-74496238D02*
G75*
G02*
X205098543Y-72496238I0J2000000D01*
G01*
X223749333Y-72456238D02*
G75*
G02*
X221749333Y-74456238I-2000000J0D01*
G01*
X223699333Y-72496238D02*
G75*
G02*
X221699333Y-74496238I-2000000J0D01*
G01*
X205098543Y-59497038D02*
G75*
G02*
X207098543Y-57497038I2000000J0D01*
G01*
X207148543Y-74456238D02*
G75*
G02*
X205148543Y-72456238I0J2000000D01*
G01*
X205148543Y-59457038D02*
G75*
G02*
X207148543Y-57457038I2000000J0D01*
G01*
X221699333Y-57497038D02*
G75*
G02*
X223699333Y-59497038I0J-2000000D01*
G01*
X221749333Y-57457038D02*
G75*
G02*
X223749333Y-59457038I0J-2000000D01*
G01*
X188349308Y-72996338D02*
X202348608Y-72996338D01*
X187598508Y-72356838D02*
X188399308Y-72356838D01*
X202398608Y-72356838D02*
X203199608Y-72356838D01*
X188349308Y-59596238D02*
X187548508Y-59596238D01*
X204649333Y-59497038D02*
X204649333Y-72496238D01*
X202398608Y-72956338D02*
X202398608Y-72356838D01*
X187548508Y-72396838D02*
X188349308Y-72396838D01*
X202348608Y-59596238D02*
X202348608Y-58996938D01*
X202398608Y-59556238D02*
X202398608Y-58956938D01*
X188399308Y-72356838D02*
X188399308Y-72956338D01*
X203199608Y-59556238D02*
X202398608Y-59556238D01*
X188098543Y-74456238D02*
X202699333Y-74456238D01*
X202398608Y-58956938D02*
X188399308Y-58956938D01*
X188399308Y-59556238D02*
X187598508Y-59556238D01*
X188349308Y-72396838D02*
X188349308Y-72996338D01*
X188349308Y-58996938D02*
X188349308Y-59596238D01*
X187548508Y-59596238D02*
X187548508Y-72396838D01*
X186098543Y-59457038D02*
X186098543Y-72456238D01*
X188098543Y-57457038D02*
X202699333Y-57457038D01*
X203149608Y-72396838D02*
X203149608Y-59596238D01*
X187598508Y-59556238D02*
X187598508Y-72356838D01*
X203149608Y-59596238D02*
X202348608Y-59596238D01*
X202348608Y-72396838D02*
X203149608Y-72396838D01*
X188399308Y-72956338D02*
X202398608Y-72956338D01*
X202348608Y-72996338D02*
X202348608Y-72396838D01*
X203199608Y-72356838D02*
X203199608Y-59556238D01*
X204699333Y-59457038D02*
X204699333Y-72456238D01*
X202348608Y-58996938D02*
X188349308Y-58996938D01*
X188399308Y-58956938D02*
X188399308Y-59556238D01*
X188048543Y-74496238D02*
X202649333Y-74496238D01*
X188048543Y-57497038D02*
X202649333Y-57497038D01*
X186048543Y-59497038D02*
X186048543Y-72496238D01*
X187598508Y-72356838D02*
X188399308Y-72356838D01*
X188399308Y-72356838D02*
X188399308Y-72956338D01*
X187598508Y-59556238D02*
X187598508Y-72356838D01*
X202398608Y-72956338D02*
X202398608Y-72356838D01*
X202398608Y-59556238D02*
X202398608Y-58956938D01*
X188399308Y-59556238D02*
X187598508Y-59556238D01*
X203199608Y-72356838D02*
X203199608Y-59556238D01*
X202398608Y-58956938D02*
X188399308Y-58956938D01*
X202398608Y-72356838D02*
X203199608Y-72356838D01*
X188399308Y-58956938D02*
X188399308Y-59556238D01*
X203199608Y-59556238D02*
X202398608Y-59556238D01*
X188399308Y-72956338D02*
X202398608Y-72956338D01*
X188098543Y-74456238D02*
X202699333Y-74456238D01*
X204699333Y-59457038D02*
X204699333Y-72456238D01*
X188098543Y-57457038D02*
X202699333Y-57457038D01*
X186098543Y-59457038D02*
X186098543Y-72456238D01*
D11*
G36*
X203270000Y-57530000D02*
G01*
X203870000Y-57810000D01*
X204290000Y-58230000D01*
X204600000Y-58880000D01*
X204700000Y-59390000D01*
X204710000Y-60280000D01*
X204710000Y-72570000D01*
X204550000Y-73260000D01*
X204140000Y-73900000D01*
X203420000Y-74360000D01*
X202150000Y-74480000D01*
X187980000Y-74450000D01*
X187470000Y-74370000D01*
X186900000Y-74070000D01*
X186520000Y-73690000D01*
X186280000Y-73290000D01*
X186150000Y-72930000D01*
X186100000Y-72170000D01*
X186100000Y-67590000D01*
X186090000Y-59460000D01*
X187600000Y-59550000D01*
X187600000Y-72360000D01*
X188390000Y-72360000D01*
X188400000Y-72950000D01*
X202390000Y-72950000D01*
X202400000Y-72360000D01*
X203210000Y-72350000D01*
X203200000Y-59570000D01*
X202400000Y-59560000D01*
X202400000Y-58970000D01*
X188390000Y-58970000D01*
X188390000Y-57450000D01*
X202740000Y-57440000D01*
X203270000Y-57530000D01*
G37*
X203270000Y-57530000D02*
X203870000Y-57810000D01*
X204290000Y-58230000D01*
X204600000Y-58880000D01*
X204700000Y-59390000D01*
X204710000Y-60280000D01*
X204710000Y-72570000D01*
X204550000Y-73260000D01*
X204140000Y-73900000D01*
X203420000Y-74360000D01*
X202150000Y-74480000D01*
X187980000Y-74450000D01*
X187470000Y-74370000D01*
X186900000Y-74070000D01*
X186520000Y-73690000D01*
X186280000Y-73290000D01*
X186150000Y-72930000D01*
X186100000Y-72170000D01*
X186100000Y-67590000D01*
X186090000Y-59460000D01*
X187600000Y-59550000D01*
X187600000Y-72360000D01*
X188390000Y-72360000D01*
X188400000Y-72950000D01*
X202390000Y-72950000D01*
X202400000Y-72360000D01*
X203210000Y-72350000D01*
X203200000Y-59570000D01*
X202400000Y-59560000D01*
X202400000Y-58970000D01*
X188390000Y-58970000D01*
X188390000Y-57450000D01*
X202740000Y-57440000D01*
X203270000Y-57530000D01*
G36*
X188400000Y-59570000D02*
G01*
X186080000Y-59550000D01*
X186150000Y-58960000D01*
X186450000Y-58320000D01*
X186730000Y-57970000D01*
X187140000Y-57720000D01*
X187790000Y-57480000D01*
X188390000Y-57440000D01*
X188400000Y-59570000D01*
G37*
X188400000Y-59570000D02*
X186080000Y-59550000D01*
X186150000Y-58960000D01*
X186450000Y-58320000D01*
X186730000Y-57970000D01*
X187140000Y-57720000D01*
X187790000Y-57480000D01*
X188390000Y-57440000D01*
X188400000Y-59570000D01*
D10*
X203149608Y-72396838D02*
X203149608Y-59596238D01*
X187548508Y-72396838D02*
X188349308Y-72396838D01*
X202348608Y-58996938D02*
X188349308Y-58996938D01*
X202348608Y-72396838D02*
X203149608Y-72396838D01*
X203149608Y-59596238D02*
X202348608Y-59596238D01*
X202348608Y-72996338D02*
X202348608Y-72396838D01*
X188349308Y-58996938D02*
X188349308Y-59596238D01*
X188349308Y-72996338D02*
X202348608Y-72996338D01*
X188349308Y-72396838D02*
X188349308Y-72996338D01*
X188349308Y-59596238D02*
X187548508Y-59596238D01*
X202348608Y-59596238D02*
X202348608Y-58996938D01*
X187548508Y-59596238D02*
X187548508Y-72396838D01*
X204649333Y-59497038D02*
X204649333Y-72496238D01*
X188048543Y-74496238D02*
X202649333Y-74496238D01*
X188048543Y-57497038D02*
X202649333Y-57497038D01*
X186048543Y-59497038D02*
X186048543Y-72496238D01*
X186048543Y-59497038D02*
G75*
G02*
X188048543Y-57497038I2000000J0D01*
G01*
X188048543Y-74496238D02*
G75*
G02*
X186048543Y-72496238I0J2000000D01*
G01*
X202649333Y-57497038D02*
G75*
G02*
X204649333Y-59497038I0J-2000000D01*
G01*
X204649333Y-72496238D02*
G75*
G02*
X202649333Y-74496238I-2000000J0D01*
G01*
X188098543Y-74456238D02*
G75*
G02*
X186098543Y-72456238I0J2000000D01*
G01*
X204699333Y-72456238D02*
G75*
G02*
X202699333Y-74456238I-2000000J0D01*
G01*
X202699333Y-57457038D02*
G75*
G02*
X204699333Y-59457038I0J-2000000D01*
G01*
X186098543Y-59457038D02*
G75*
G02*
X188098543Y-57457038I2000000J0D01*
G01*
X188048543Y-74496238D02*
G75*
G02*
X186048543Y-72496238I0J2000000D01*
G01*
X204699333Y-72456238D02*
G75*
G02*
X202699333Y-74456238I-2000000J0D01*
G01*
X204649333Y-72496238D02*
G75*
G02*
X202649333Y-74496238I-2000000J0D01*
G01*
X186048543Y-59497038D02*
G75*
G02*
X188048543Y-57497038I2000000J0D01*
G01*
X188098543Y-74456238D02*
G75*
G02*
X186098543Y-72456238I0J2000000D01*
G01*
X186098543Y-59457038D02*
G75*
G02*
X188098543Y-57457038I2000000J0D01*
G01*
X202649333Y-57497038D02*
G75*
G02*
X204649333Y-59497038I0J-2000000D01*
G01*
X202699333Y-57457038D02*
G75*
G02*
X204699333Y-59457038I0J-2000000D01*
G01*
X169299308Y-72996338D02*
X183298608Y-72996338D01*
X168548508Y-72356838D02*
X169349308Y-72356838D01*
X183348608Y-72356838D02*
X184149608Y-72356838D01*
X169299308Y-59596238D02*
X168498508Y-59596238D01*
X185599333Y-59497038D02*
X185599333Y-72496238D01*
X183348608Y-72956338D02*
X183348608Y-72356838D01*
X168498508Y-72396838D02*
X169299308Y-72396838D01*
X183298608Y-59596238D02*
X183298608Y-58996938D01*
X183348608Y-59556238D02*
X183348608Y-58956938D01*
X169349308Y-72356838D02*
X169349308Y-72956338D01*
X184149608Y-59556238D02*
X183348608Y-59556238D01*
X169048543Y-74456238D02*
X183649333Y-74456238D01*
X183348608Y-58956938D02*
X169349308Y-58956938D01*
X169349308Y-59556238D02*
X168548508Y-59556238D01*
X169299308Y-72396838D02*
X169299308Y-72996338D01*
X169299308Y-58996938D02*
X169299308Y-59596238D01*
X168498508Y-59596238D02*
X168498508Y-72396838D01*
X167048543Y-59457038D02*
X167048543Y-72456238D01*
X169048543Y-57457038D02*
X183649333Y-57457038D01*
X184099608Y-72396838D02*
X184099608Y-59596238D01*
X168548508Y-59556238D02*
X168548508Y-72356838D01*
X184099608Y-59596238D02*
X183298608Y-59596238D01*
X183298608Y-72396838D02*
X184099608Y-72396838D01*
X169349308Y-72956338D02*
X183348608Y-72956338D01*
X183298608Y-72996338D02*
X183298608Y-72396838D01*
X184149608Y-72356838D02*
X184149608Y-59556238D01*
X185649333Y-59457038D02*
X185649333Y-72456238D01*
X183298608Y-58996938D02*
X169299308Y-58996938D01*
X169349308Y-58956938D02*
X169349308Y-59556238D01*
X168998543Y-74496238D02*
X183599333Y-74496238D01*
X168998543Y-57497038D02*
X183599333Y-57497038D01*
X166998543Y-59497038D02*
X166998543Y-72496238D01*
X168548508Y-72356838D02*
X169349308Y-72356838D01*
X169349308Y-72356838D02*
X169349308Y-72956338D01*
X168548508Y-59556238D02*
X168548508Y-72356838D01*
X183348608Y-72956338D02*
X183348608Y-72356838D01*
X183348608Y-59556238D02*
X183348608Y-58956938D01*
X169349308Y-59556238D02*
X168548508Y-59556238D01*
X184149608Y-72356838D02*
X184149608Y-59556238D01*
X183348608Y-58956938D02*
X169349308Y-58956938D01*
X183348608Y-72356838D02*
X184149608Y-72356838D01*
X169349308Y-58956938D02*
X169349308Y-59556238D01*
X184149608Y-59556238D02*
X183348608Y-59556238D01*
X169349308Y-72956338D02*
X183348608Y-72956338D01*
X169048543Y-74456238D02*
X183649333Y-74456238D01*
X185649333Y-59457038D02*
X185649333Y-72456238D01*
X169048543Y-57457038D02*
X183649333Y-57457038D01*
X167048543Y-59457038D02*
X167048543Y-72456238D01*
D11*
G36*
X184220000Y-57530000D02*
G01*
X184820000Y-57810000D01*
X185240000Y-58230000D01*
X185550000Y-58880000D01*
X185650000Y-59390000D01*
X185660000Y-60280000D01*
X185660000Y-72570000D01*
X185500000Y-73260000D01*
X185090000Y-73900000D01*
X184370000Y-74360000D01*
X183100000Y-74480000D01*
X168930000Y-74450000D01*
X168420000Y-74370000D01*
X167850000Y-74070000D01*
X167470000Y-73690000D01*
X167230000Y-73290000D01*
X167100000Y-72930000D01*
X167050000Y-72170000D01*
X167050000Y-67590000D01*
X167040000Y-59460000D01*
X168550000Y-59550000D01*
X168550000Y-72360000D01*
X169340000Y-72360000D01*
X169350000Y-72950000D01*
X183340000Y-72950000D01*
X183350000Y-72360000D01*
X184160000Y-72350000D01*
X184150000Y-59570000D01*
X183350000Y-59560000D01*
X183350000Y-58970000D01*
X169340000Y-58970000D01*
X169340000Y-57450000D01*
X183690000Y-57440000D01*
X184220000Y-57530000D01*
G37*
X184220000Y-57530000D02*
X184820000Y-57810000D01*
X185240000Y-58230000D01*
X185550000Y-58880000D01*
X185650000Y-59390000D01*
X185660000Y-60280000D01*
X185660000Y-72570000D01*
X185500000Y-73260000D01*
X185090000Y-73900000D01*
X184370000Y-74360000D01*
X183100000Y-74480000D01*
X168930000Y-74450000D01*
X168420000Y-74370000D01*
X167850000Y-74070000D01*
X167470000Y-73690000D01*
X167230000Y-73290000D01*
X167100000Y-72930000D01*
X167050000Y-72170000D01*
X167050000Y-67590000D01*
X167040000Y-59460000D01*
X168550000Y-59550000D01*
X168550000Y-72360000D01*
X169340000Y-72360000D01*
X169350000Y-72950000D01*
X183340000Y-72950000D01*
X183350000Y-72360000D01*
X184160000Y-72350000D01*
X184150000Y-59570000D01*
X183350000Y-59560000D01*
X183350000Y-58970000D01*
X169340000Y-58970000D01*
X169340000Y-57450000D01*
X183690000Y-57440000D01*
X184220000Y-57530000D01*
G36*
X169350000Y-59570000D02*
G01*
X167030000Y-59550000D01*
X167100000Y-58960000D01*
X167400000Y-58320000D01*
X167680000Y-57970000D01*
X168090000Y-57720000D01*
X168740000Y-57480000D01*
X169340000Y-57440000D01*
X169350000Y-59570000D01*
G37*
X169350000Y-59570000D02*
X167030000Y-59550000D01*
X167100000Y-58960000D01*
X167400000Y-58320000D01*
X167680000Y-57970000D01*
X168090000Y-57720000D01*
X168740000Y-57480000D01*
X169340000Y-57440000D01*
X169350000Y-59570000D01*
D10*
X184099608Y-72396838D02*
X184099608Y-59596238D01*
X168498508Y-72396838D02*
X169299308Y-72396838D01*
X183298608Y-58996938D02*
X169299308Y-58996938D01*
X183298608Y-72396838D02*
X184099608Y-72396838D01*
X184099608Y-59596238D02*
X183298608Y-59596238D01*
X183298608Y-72996338D02*
X183298608Y-72396838D01*
X169299308Y-58996938D02*
X169299308Y-59596238D01*
X169299308Y-72996338D02*
X183298608Y-72996338D01*
X169299308Y-72396838D02*
X169299308Y-72996338D01*
X169299308Y-59596238D02*
X168498508Y-59596238D01*
X183298608Y-59596238D02*
X183298608Y-58996938D01*
X168498508Y-59596238D02*
X168498508Y-72396838D01*
X185599333Y-59497038D02*
X185599333Y-72496238D01*
X168998543Y-74496238D02*
X183599333Y-74496238D01*
X168998543Y-57497038D02*
X183599333Y-57497038D01*
X166998543Y-59497038D02*
X166998543Y-72496238D01*
X166998543Y-59497038D02*
G75*
G02*
X168998543Y-57497038I2000000J0D01*
G01*
X168998543Y-74496238D02*
G75*
G02*
X166998543Y-72496238I0J2000000D01*
G01*
X183599333Y-57497038D02*
G75*
G02*
X185599333Y-59497038I0J-2000000D01*
G01*
X185599333Y-72496238D02*
G75*
G02*
X183599333Y-74496238I-2000000J0D01*
G01*
X169048543Y-74456238D02*
G75*
G02*
X167048543Y-72456238I0J2000000D01*
G01*
X185649333Y-72456238D02*
G75*
G02*
X183649333Y-74456238I-2000000J0D01*
G01*
X183649333Y-57457038D02*
G75*
G02*
X185649333Y-59457038I0J-2000000D01*
G01*
X167048543Y-59457038D02*
G75*
G02*
X169048543Y-57457038I2000000J0D01*
G01*
X168998543Y-74496238D02*
G75*
G02*
X166998543Y-72496238I0J2000000D01*
G01*
X185649333Y-72456238D02*
G75*
G02*
X183649333Y-74456238I-2000000J0D01*
G01*
X185599333Y-72496238D02*
G75*
G02*
X183599333Y-74496238I-2000000J0D01*
G01*
X166998543Y-59497038D02*
G75*
G02*
X168998543Y-57497038I2000000J0D01*
G01*
X169048543Y-74456238D02*
G75*
G02*
X167048543Y-72456238I0J2000000D01*
G01*
X167048543Y-59457038D02*
G75*
G02*
X169048543Y-57457038I2000000J0D01*
G01*
X183599333Y-57497038D02*
G75*
G02*
X185599333Y-59497038I0J-2000000D01*
G01*
X183649333Y-57457038D02*
G75*
G02*
X185649333Y-59457038I0J-2000000D01*
G01*
X150249308Y-72946338D02*
X164248608Y-72946338D01*
X149498508Y-72306838D02*
X150299308Y-72306838D01*
X164298608Y-72306838D02*
X165099608Y-72306838D01*
X150249308Y-59546238D02*
X149448508Y-59546238D01*
X166549333Y-59447038D02*
X166549333Y-72446238D01*
X164298608Y-72906338D02*
X164298608Y-72306838D01*
X149448508Y-72346838D02*
X150249308Y-72346838D01*
X164248608Y-59546238D02*
X164248608Y-58946938D01*
X164298608Y-59506238D02*
X164298608Y-58906938D01*
X150299308Y-72306838D02*
X150299308Y-72906338D01*
X165099608Y-59506238D02*
X164298608Y-59506238D01*
X149998543Y-74406238D02*
X164599333Y-74406238D01*
X164298608Y-58906938D02*
X150299308Y-58906938D01*
X150299308Y-59506238D02*
X149498508Y-59506238D01*
X150249308Y-72346838D02*
X150249308Y-72946338D01*
X150249308Y-58946938D02*
X150249308Y-59546238D01*
X149448508Y-59546238D02*
X149448508Y-72346838D01*
X147998543Y-59407038D02*
X147998543Y-72406238D01*
X149998543Y-57407038D02*
X164599333Y-57407038D01*
X165049608Y-72346838D02*
X165049608Y-59546238D01*
X149498508Y-59506238D02*
X149498508Y-72306838D01*
X165049608Y-59546238D02*
X164248608Y-59546238D01*
X164248608Y-72346838D02*
X165049608Y-72346838D01*
X150299308Y-72906338D02*
X164298608Y-72906338D01*
X164248608Y-72946338D02*
X164248608Y-72346838D01*
X165099608Y-72306838D02*
X165099608Y-59506238D01*
X166599333Y-59407038D02*
X166599333Y-72406238D01*
X164248608Y-58946938D02*
X150249308Y-58946938D01*
X150299308Y-58906938D02*
X150299308Y-59506238D01*
X149948543Y-74446238D02*
X164549333Y-74446238D01*
X149948543Y-57447038D02*
X164549333Y-57447038D01*
X147948543Y-59447038D02*
X147948543Y-72446238D01*
X149498508Y-72306838D02*
X150299308Y-72306838D01*
X150299308Y-72306838D02*
X150299308Y-72906338D01*
X149498508Y-59506238D02*
X149498508Y-72306838D01*
X164298608Y-72906338D02*
X164298608Y-72306838D01*
X164298608Y-59506238D02*
X164298608Y-58906938D01*
X150299308Y-59506238D02*
X149498508Y-59506238D01*
X165099608Y-72306838D02*
X165099608Y-59506238D01*
X164298608Y-58906938D02*
X150299308Y-58906938D01*
X164298608Y-72306838D02*
X165099608Y-72306838D01*
X150299308Y-58906938D02*
X150299308Y-59506238D01*
X165099608Y-59506238D02*
X164298608Y-59506238D01*
X150299308Y-72906338D02*
X164298608Y-72906338D01*
X149998543Y-74406238D02*
X164599333Y-74406238D01*
X166599333Y-59407038D02*
X166599333Y-72406238D01*
X149998543Y-57407038D02*
X164599333Y-57407038D01*
X147998543Y-59407038D02*
X147998543Y-72406238D01*
D11*
G36*
X165170000Y-57480000D02*
G01*
X165770000Y-57760000D01*
X166190000Y-58180000D01*
X166500000Y-58830000D01*
X166600000Y-59340000D01*
X166610000Y-60230000D01*
X166610000Y-72520000D01*
X166450000Y-73210000D01*
X166040000Y-73850000D01*
X165320000Y-74310000D01*
X164050000Y-74430000D01*
X149880000Y-74400000D01*
X149370000Y-74320000D01*
X148800000Y-74020000D01*
X148420000Y-73640000D01*
X148180000Y-73240000D01*
X148050000Y-72880000D01*
X148000000Y-72120000D01*
X148000000Y-67540000D01*
X147990000Y-59410000D01*
X149500000Y-59500000D01*
X149500000Y-72310000D01*
X150290000Y-72310000D01*
X150300000Y-72900000D01*
X164290000Y-72900000D01*
X164300000Y-72310000D01*
X165110000Y-72300000D01*
X165100000Y-59520000D01*
X164300000Y-59510000D01*
X164300000Y-58920000D01*
X150290000Y-58920000D01*
X150290000Y-57400000D01*
X164640000Y-57390000D01*
X165170000Y-57480000D01*
G37*
X165170000Y-57480000D02*
X165770000Y-57760000D01*
X166190000Y-58180000D01*
X166500000Y-58830000D01*
X166600000Y-59340000D01*
X166610000Y-60230000D01*
X166610000Y-72520000D01*
X166450000Y-73210000D01*
X166040000Y-73850000D01*
X165320000Y-74310000D01*
X164050000Y-74430000D01*
X149880000Y-74400000D01*
X149370000Y-74320000D01*
X148800000Y-74020000D01*
X148420000Y-73640000D01*
X148180000Y-73240000D01*
X148050000Y-72880000D01*
X148000000Y-72120000D01*
X148000000Y-67540000D01*
X147990000Y-59410000D01*
X149500000Y-59500000D01*
X149500000Y-72310000D01*
X150290000Y-72310000D01*
X150300000Y-72900000D01*
X164290000Y-72900000D01*
X164300000Y-72310000D01*
X165110000Y-72300000D01*
X165100000Y-59520000D01*
X164300000Y-59510000D01*
X164300000Y-58920000D01*
X150290000Y-58920000D01*
X150290000Y-57400000D01*
X164640000Y-57390000D01*
X165170000Y-57480000D01*
G36*
X150300000Y-59520000D02*
G01*
X147980000Y-59500000D01*
X148050000Y-58910000D01*
X148350000Y-58270000D01*
X148630000Y-57920000D01*
X149040000Y-57670000D01*
X149690000Y-57430000D01*
X150290000Y-57390000D01*
X150300000Y-59520000D01*
G37*
X150300000Y-59520000D02*
X147980000Y-59500000D01*
X148050000Y-58910000D01*
X148350000Y-58270000D01*
X148630000Y-57920000D01*
X149040000Y-57670000D01*
X149690000Y-57430000D01*
X150290000Y-57390000D01*
X150300000Y-59520000D01*
D10*
X165049608Y-72346838D02*
X165049608Y-59546238D01*
X149448508Y-72346838D02*
X150249308Y-72346838D01*
X164248608Y-58946938D02*
X150249308Y-58946938D01*
X164248608Y-72346838D02*
X165049608Y-72346838D01*
X165049608Y-59546238D02*
X164248608Y-59546238D01*
X164248608Y-72946338D02*
X164248608Y-72346838D01*
X150249308Y-58946938D02*
X150249308Y-59546238D01*
X150249308Y-72946338D02*
X164248608Y-72946338D01*
X150249308Y-72346838D02*
X150249308Y-72946338D01*
X150249308Y-59546238D02*
X149448508Y-59546238D01*
X164248608Y-59546238D02*
X164248608Y-58946938D01*
X149448508Y-59546238D02*
X149448508Y-72346838D01*
X166549333Y-59447038D02*
X166549333Y-72446238D01*
X149948543Y-74446238D02*
X164549333Y-74446238D01*
X149948543Y-57447038D02*
X164549333Y-57447038D01*
X147948543Y-59447038D02*
X147948543Y-72446238D01*
X164599333Y-57407038D02*
G75*
G02*
X166599333Y-59407038I0J-2000000D01*
G01*
X164549333Y-57447038D02*
G75*
G02*
X166549333Y-59447038I0J-2000000D01*
G01*
X147998543Y-59407038D02*
G75*
G02*
X149998543Y-57407038I2000000J0D01*
G01*
X149998543Y-74406238D02*
G75*
G02*
X147998543Y-72406238I0J2000000D01*
G01*
X147948543Y-59447038D02*
G75*
G02*
X149948543Y-57447038I2000000J0D01*
G01*
X166549333Y-72446238D02*
G75*
G02*
X164549333Y-74446238I-2000000J0D01*
G01*
X166599333Y-72406238D02*
G75*
G02*
X164599333Y-74406238I-2000000J0D01*
G01*
X149948543Y-74446238D02*
G75*
G02*
X147948543Y-72446238I0J2000000D01*
G01*
X147998543Y-59407038D02*
G75*
G02*
X149998543Y-57407038I2000000J0D01*
G01*
X164599333Y-57407038D02*
G75*
G02*
X166599333Y-59407038I0J-2000000D01*
G01*
X166599333Y-72406238D02*
G75*
G02*
X164599333Y-74406238I-2000000J0D01*
G01*
X149998543Y-74406238D02*
G75*
G02*
X147998543Y-72406238I0J2000000D01*
G01*
X166549333Y-72446238D02*
G75*
G02*
X164549333Y-74446238I-2000000J0D01*
G01*
X164549333Y-57447038D02*
G75*
G02*
X166549333Y-59447038I0J-2000000D01*
G01*
X149948543Y-74446238D02*
G75*
G02*
X147948543Y-72446238I0J2000000D01*
G01*
X147948543Y-59447038D02*
G75*
G02*
X149948543Y-57447038I2000000J0D01*
G01*
D12*
X225450000Y-135100000D03*
D13*
X227100000Y-135100000D03*
X226616726Y-136266726D03*
X225450000Y-136750000D03*
X224283274Y-136266726D03*
X223800000Y-135100000D03*
X224283274Y-133933274D03*
X225450000Y-133450000D03*
X226616726Y-133933274D03*
D12*
X251050000Y-135100000D03*
D13*
X252700000Y-135100000D03*
X252216726Y-136266726D03*
X251050000Y-136750000D03*
X249883274Y-136266726D03*
X249400000Y-135100000D03*
X249883274Y-133933274D03*
X251050000Y-133450000D03*
X252216726Y-133933274D03*
D12*
X144500000Y-120800000D03*
D13*
X146150000Y-120800000D03*
X145666726Y-121966726D03*
X144500000Y-122450000D03*
X143333274Y-121966726D03*
X142850000Y-120800000D03*
X143333274Y-119633274D03*
X144500000Y-119150000D03*
X145666726Y-119633274D03*
D12*
X246231830Y-53950000D03*
D13*
X247881830Y-53950000D03*
X247398556Y-55116726D03*
X246231830Y-55600000D03*
X245065104Y-55116726D03*
X244581830Y-53950000D03*
X245065104Y-52783274D03*
X246231830Y-52300000D03*
X247398556Y-52783274D03*
X145666726Y-52783274D03*
X144500000Y-52300000D03*
X143333274Y-52783274D03*
X142850000Y-53950000D03*
X143333274Y-55116726D03*
X144500000Y-55600000D03*
X145666726Y-55116726D03*
X146150000Y-53950000D03*
D12*
X144500000Y-53950000D03*
M02*
