G04 #@! TF.GenerationSoftware,KiCad,Pcbnew,(5.1.4)-1*
G04 #@! TF.CreationDate,2020-11-17T13:55:59-05:00*
G04 #@! TF.ProjectId,Plate,506c6174-652e-46b6-9963-61645f706362,rev?*
G04 #@! TF.SameCoordinates,Original*
G04 #@! TF.FileFunction,Profile,NP*
%FSLAX46Y46*%
G04 Gerber Fmt 4.6, Leading zero omitted, Abs format (unit mm)*
G04 Created by KiCad (PCBNEW (5.1.4)-1) date 2020-11-17 13:55:59*
%MOMM*%
%LPD*%
G04 APERTURE LIST*
%ADD10C,0.200000*%
G04 APERTURE END LIST*
D10*
X150641086Y-53048579D02*
G75*
G03X150641086Y-53048579I-1200000J0D01*
G01*
X46859563Y-53048579D02*
G75*
G03X46859563Y-53048579I-1200000J0D01*
G01*
X150640632Y-121897763D02*
G75*
G03X150640632Y-121897763I-1200000J0D01*
G01*
X23106629Y-121945135D02*
G75*
G03X23106629Y-121945135I-1200000J0D01*
G01*
X23081825Y-95934335D02*
G75*
G03X23081825Y-95934335I-1200000J0D01*
G01*
X42659563Y-53047525D02*
G75*
G02X45659563Y-50048579I3000000J-1054D01*
G01*
X149441086Y-50048579D02*
G75*
G02X152441086Y-53048599I0J-3000000D01*
G01*
X152440632Y-121897783D02*
G75*
G02X149441746Y-124897763I-3000000J20D01*
G01*
X21907743Y-124945134D02*
G75*
G02X18906631Y-121947995I-1114J2999999D01*
G01*
X18881826Y-95937196D02*
G75*
G02X21881825Y-92934335I2999999J2861D01*
G01*
X18881827Y-95937196D02*
X18906631Y-121947995D01*
X21907744Y-124945134D02*
X149441746Y-124897763D01*
X152441086Y-53048599D02*
X152440632Y-121897783D01*
X45659563Y-50048579D02*
X149441086Y-50048579D01*
X42645550Y-92934335D02*
X42659563Y-53047525D01*
X21881825Y-92934335D02*
X42645550Y-92934335D01*
X142661526Y-58967541D02*
X142662729Y-59566627D01*
X128661982Y-58979392D02*
X142661526Y-58967541D01*
X128662721Y-59580216D02*
X128661982Y-58979392D01*
X127862466Y-59580496D02*
X128662721Y-59580216D01*
X127874022Y-72380156D02*
X127862466Y-59580496D01*
X128674103Y-72380141D02*
X127874022Y-72380156D01*
X128675404Y-72979252D02*
X128674103Y-72380141D01*
X142674825Y-72967472D02*
X128675404Y-72979252D01*
X142674112Y-72366551D02*
X142674825Y-72967472D01*
X143474367Y-72366271D02*
X142674112Y-72366551D01*
X143462985Y-59566347D02*
X143474367Y-72366271D01*
X142662729Y-59566627D02*
X143462985Y-59566347D01*
X123613164Y-58983462D02*
X123612648Y-59583951D01*
X109613085Y-58996929D02*
X123613164Y-58983462D01*
X109613104Y-59595802D02*
X109613085Y-58996929D01*
X108812681Y-59597486D02*
X109613104Y-59595802D01*
X108823773Y-72397333D02*
X108812681Y-59597486D01*
X109624221Y-72397105D02*
X108823773Y-72397333D01*
X109625225Y-72996551D02*
X109624221Y-72397105D01*
X123624847Y-72984411D02*
X109625225Y-72996551D01*
X123624030Y-72383876D02*
X123624847Y-72984411D01*
X124424285Y-72383596D02*
X123624030Y-72383876D01*
X124412806Y-59583646D02*
X124424285Y-72383596D01*
X123612648Y-59583951D02*
X124412806Y-59583646D01*
X104562625Y-59002114D02*
X104562669Y-59600890D01*
X90563081Y-59013964D02*
X104562625Y-59002114D01*
X90562661Y-59614479D02*
X90563081Y-59013964D01*
X89762213Y-59614707D02*
X90562661Y-59614479D01*
X89773691Y-72414658D02*
X89762213Y-59614707D01*
X90573850Y-72414352D02*
X89773691Y-72414658D01*
X90575247Y-73013489D02*
X90573850Y-72414352D01*
X104574765Y-73001735D02*
X90575247Y-73013489D01*
X104573858Y-72400763D02*
X104574765Y-73001735D01*
X105374210Y-72400509D02*
X104573858Y-72400763D01*
X105362731Y-59600558D02*
X105374210Y-72400509D01*
X104562669Y-59600890D02*
X105362731Y-59600558D01*
X85513008Y-59017700D02*
X85512588Y-59618215D01*
X71513025Y-59031192D02*
X85513008Y-59017700D01*
X71513044Y-59630065D02*
X71513025Y-59031192D01*
X70712595Y-59630293D02*
X71513044Y-59630065D01*
X70723810Y-72431622D02*
X70712595Y-59630293D01*
X71524233Y-72429938D02*
X70723810Y-72431622D01*
X71525165Y-73030814D02*
X71524233Y-72429938D01*
X85525148Y-73017321D02*
X71525165Y-73030814D01*
X85523777Y-72418087D02*
X85525148Y-73017321D01*
X86324225Y-72417859D02*
X85523777Y-72418087D01*
X86312650Y-59617883D02*
X86324225Y-72417859D01*
X85512588Y-59618215D02*
X86312650Y-59617883D01*
X142678657Y-78017571D02*
X142679861Y-78616657D01*
X128679113Y-78029422D02*
X142678657Y-78017571D01*
X128679853Y-78630246D02*
X128679113Y-78029422D01*
X127879694Y-78630552D02*
X128679853Y-78630246D01*
X127891076Y-91430476D02*
X127879694Y-78630552D01*
X128691235Y-91430171D02*
X127891076Y-91430476D01*
X128691183Y-92028921D02*
X128691235Y-91430171D01*
X142692024Y-92017520D02*
X128691183Y-92028921D01*
X142691291Y-91416594D02*
X142692024Y-92017520D01*
X143491527Y-91416309D02*
X142691291Y-91416594D01*
X143480155Y-78616387D02*
X143491527Y-91416309D01*
X142679861Y-78616657D02*
X143480155Y-78616387D01*
X66462565Y-59036377D02*
X66462609Y-59635153D01*
X52461862Y-59047918D02*
X66462565Y-59036377D01*
X52463252Y-59647467D02*
X52461862Y-59047918D01*
X51661766Y-59648867D02*
X52463252Y-59647467D01*
X51673342Y-72448843D02*
X51661766Y-59648867D01*
X52473790Y-72448615D02*
X51673342Y-72448843D01*
X52475187Y-73047752D02*
X52473790Y-72448615D01*
X66474705Y-73035998D02*
X52475187Y-73047752D01*
X66473798Y-72435026D02*
X66474705Y-73035998D01*
X67274247Y-72434797D02*
X66473798Y-72435026D01*
X67262929Y-59633855D02*
X67274247Y-72434797D01*
X66462609Y-59635153D02*
X67262929Y-59633855D01*
X123629040Y-78033157D02*
X123629779Y-78633982D01*
X109628961Y-78046624D02*
X123629040Y-78033157D01*
X109630429Y-78645883D02*
X109628961Y-78046624D01*
X108829619Y-78647464D02*
X109630429Y-78645883D01*
X108841098Y-91447414D02*
X108829619Y-78647464D01*
X109641160Y-91447083D02*
X108841098Y-91447414D01*
X109642189Y-92047985D02*
X109641160Y-91447083D01*
X123640626Y-92034079D02*
X109642189Y-92047985D01*
X123640800Y-91435259D02*
X123640626Y-92034079D01*
X124441417Y-91433626D02*
X123640800Y-91435259D01*
X124430034Y-78633702D02*
X124441417Y-91433626D01*
X123629779Y-78633982D02*
X124430034Y-78633702D01*
X104578500Y-78051809D02*
X104579504Y-78651255D01*
X90578982Y-78063562D02*
X104578500Y-78051809D01*
X90579599Y-78664458D02*
X90578982Y-78063562D01*
X89779537Y-78664789D02*
X90579599Y-78664458D01*
X89792369Y-91465100D02*
X89779537Y-78664789D01*
X90591175Y-91464434D02*
X89792369Y-91465100D01*
X90592185Y-92063467D02*
X90591175Y-91464434D01*
X104591703Y-92051714D02*
X90592185Y-92063467D01*
X104591086Y-91450818D02*
X104591703Y-92051714D01*
X105391245Y-91450513D02*
X104591086Y-91450818D01*
X105379953Y-78651027D02*
X105391245Y-91450513D01*
X104579504Y-78651255D02*
X105379953Y-78651027D01*
X85528806Y-78067684D02*
X85530879Y-78668554D01*
X71528997Y-78080913D02*
X85528806Y-78067684D01*
X71529905Y-78680333D02*
X71528997Y-78080913D01*
X70729817Y-78680761D02*
X71529905Y-78680333D01*
X70740748Y-91481600D02*
X70729817Y-78680761D01*
X71541557Y-91480019D02*
X70740748Y-91481600D01*
X71542104Y-92080792D02*
X71541557Y-91480019D01*
X85541725Y-92068652D02*
X71542104Y-92080792D01*
X85541005Y-91468143D02*
X85541725Y-92068652D01*
X86341163Y-91467838D02*
X85541005Y-91468143D01*
X86329974Y-78667965D02*
X86341163Y-91467838D01*
X85530879Y-78668554D02*
X86329974Y-78667965D01*
X142695827Y-97067612D02*
X142696947Y-97667089D01*
X128696367Y-97079381D02*
X142695827Y-97067612D01*
X128697081Y-97680302D02*
X128696367Y-97079381D01*
X127896825Y-97680582D02*
X128697081Y-97680302D01*
X127908233Y-110480410D02*
X127896825Y-97680582D01*
X128708489Y-110480130D02*
X127908233Y-110480410D01*
X128709615Y-111079505D02*
X128708489Y-110480130D01*
X142709191Y-111067456D02*
X128709615Y-111079505D01*
X142708442Y-110466629D02*
X142709191Y-111067456D01*
X143508668Y-110466342D02*
X142708442Y-110466629D01*
X143495876Y-97666351D02*
X143508668Y-110466342D01*
X142696947Y-97667089D02*
X143495876Y-97666351D01*
X66478440Y-78086072D02*
X66479444Y-78685518D01*
X52478916Y-78098238D02*
X66478440Y-78086072D01*
X52479539Y-78698721D02*
X52478916Y-78098238D01*
X51679477Y-78699052D02*
X52479539Y-78698721D01*
X51690666Y-91498925D02*
X51679477Y-78699052D01*
X52491115Y-91498697D02*
X51690666Y-91498925D01*
X52492170Y-92097949D02*
X52491115Y-91498697D01*
X66491643Y-92085977D02*
X52492170Y-92097949D01*
X66492372Y-91485855D02*
X66491643Y-92085977D01*
X67291082Y-91485162D02*
X66492372Y-91485855D01*
X67279893Y-78685290D02*
X67291082Y-91485162D01*
X66479444Y-78685518D02*
X67279893Y-78685290D01*
X123647447Y-97083838D02*
X123646911Y-97684012D01*
X109646285Y-97096706D02*
X123647447Y-97083838D01*
X109647289Y-97696152D02*
X109646285Y-97096706D01*
X108846944Y-97697546D02*
X109647289Y-97696152D01*
X108858081Y-110497612D02*
X108846944Y-97697546D01*
X109658362Y-110497235D02*
X108858081Y-110497612D01*
X109659224Y-111097989D02*
X109658362Y-110497235D01*
X123659084Y-111084567D02*
X109659224Y-111097989D01*
X123657932Y-110485289D02*
X123659084Y-111084567D01*
X124457196Y-110483295D02*
X123657932Y-110485289D01*
X124447166Y-97683732D02*
X124457196Y-110483295D01*
X123646911Y-97684012D02*
X124447166Y-97683732D01*
X104596888Y-97102174D02*
X104596829Y-97701336D01*
X90596204Y-97114030D02*
X104596888Y-97102174D01*
X90596924Y-97714539D02*
X90596204Y-97114030D01*
X89796862Y-97714871D02*
X90596924Y-97714539D01*
X89807954Y-110514718D02*
X89796862Y-97714871D01*
X90608403Y-110514489D02*
X89807954Y-110514718D01*
X90608106Y-111113381D02*
X90608403Y-110514489D01*
X104609028Y-111101795D02*
X90608106Y-111113381D01*
X104608360Y-110501093D02*
X104609028Y-111101795D01*
X105408422Y-110500762D02*
X104608360Y-110501093D01*
X105396917Y-97700908D02*
X105408422Y-110500762D01*
X104596829Y-97701336D02*
X105396917Y-97700908D01*
X85547193Y-97118049D02*
X85546851Y-97718275D01*
X71545910Y-97130988D02*
X85547193Y-97118049D01*
X71547229Y-97730415D02*
X71545910Y-97130988D01*
X70746446Y-97731899D02*
X71547229Y-97730415D01*
X70758021Y-110531875D02*
X70746446Y-97731899D01*
X71558444Y-110530191D02*
X70758021Y-110531875D01*
X71558050Y-111130609D02*
X71558444Y-110530191D01*
X85558998Y-111118927D02*
X71558050Y-111130609D01*
X85558040Y-110518147D02*
X85558998Y-111118927D01*
X86358823Y-110516663D02*
X85558040Y-110518147D01*
X86348265Y-97718304D02*
X86358823Y-110516663D01*
X85546851Y-97718275D02*
X86348265Y-97718304D01*
X66496828Y-97136437D02*
X66496795Y-97735503D01*
X52495880Y-97148119D02*
X66496828Y-97136437D01*
X52496864Y-97748802D02*
X52495880Y-97148119D01*
X51696390Y-97749127D02*
X52496864Y-97748802D01*
X51707991Y-110549006D02*
X51696390Y-97749127D01*
X52508053Y-110548675D02*
X51707991Y-110549006D01*
X52508020Y-111147741D02*
X52508053Y-110548675D01*
X66508968Y-111136058D02*
X52508020Y-111147741D01*
X66507984Y-110535375D02*
X66508968Y-111136058D01*
X67308458Y-110535051D02*
X66507984Y-110535375D01*
X67296857Y-97735171D02*
X67308458Y-110535051D01*
X66496795Y-97735503D02*
X67296857Y-97735171D01*
X42687255Y-101918998D02*
X42689302Y-102519964D01*
X28687369Y-101930964D02*
X42687255Y-101918998D01*
X28688450Y-102531673D02*
X28687369Y-101930964D01*
X27888292Y-102531978D02*
X28688450Y-102531673D01*
X27900833Y-115332212D02*
X27888292Y-102531978D01*
X28701000Y-115331877D02*
X27900833Y-115332212D01*
X28701450Y-115931072D02*
X28701000Y-115331877D01*
X42700559Y-115918909D02*
X28701450Y-115931072D01*
X42700938Y-115318549D02*
X42700559Y-115918909D01*
X43500031Y-115317969D02*
X42700938Y-115318549D01*
X43488830Y-102518145D02*
X43500031Y-115317969D01*
X42689302Y-102519964D02*
X43488830Y-102518145D01*
M02*
