G04 #@! TF.GenerationSoftware,KiCad,Pcbnew,(5.1.9)-1*
G04 #@! TF.CreationDate,2021-01-20T18:14:42-05:00*
G04 #@! TF.ProjectId,Plate,506c6174-652e-46b6-9963-61645f706362,rev?*
G04 #@! TF.SameCoordinates,Original*
G04 #@! TF.FileFunction,Soldermask,Top*
G04 #@! TF.FilePolarity,Negative*
%FSLAX46Y46*%
G04 Gerber Fmt 4.6, Leading zero omitted, Abs format (unit mm)*
G04 Created by KiCad (PCBNEW (5.1.9)-1) date 2021-01-20 18:14:42*
%MOMM*%
%LPD*%
G01*
G04 APERTURE LIST*
%ADD10C,0.010000*%
%ADD11C,4.502000*%
%ADD12C,0.802000*%
G04 APERTURE END LIST*
D10*
G36*
X150250000Y-97710000D02*
G01*
X147930000Y-97690000D01*
X148000000Y-97100000D01*
X148300000Y-96460000D01*
X148580000Y-96110000D01*
X148990000Y-95860000D01*
X149640000Y-95620000D01*
X150240000Y-95580000D01*
X150250000Y-97710000D01*
G37*
X150250000Y-97710000D02*
X147930000Y-97690000D01*
X148000000Y-97100000D01*
X148300000Y-96460000D01*
X148580000Y-96110000D01*
X148990000Y-95860000D01*
X149640000Y-95620000D01*
X150240000Y-95580000D01*
X150250000Y-97710000D01*
G36*
X165120000Y-95670000D02*
G01*
X165720000Y-95950000D01*
X166140000Y-96370000D01*
X166450000Y-97020000D01*
X166550000Y-97530000D01*
X166560000Y-98420000D01*
X166560000Y-110710000D01*
X166400000Y-111400000D01*
X165990000Y-112040000D01*
X165270000Y-112500000D01*
X164000000Y-112620000D01*
X149830000Y-112590000D01*
X149320000Y-112510000D01*
X148750000Y-112210000D01*
X148370000Y-111830000D01*
X148130000Y-111430000D01*
X148000000Y-111070000D01*
X147950000Y-110310000D01*
X147950000Y-105730000D01*
X147940000Y-97600000D01*
X149450000Y-97690000D01*
X149450000Y-110500000D01*
X150240000Y-110500000D01*
X150250000Y-111090000D01*
X164240000Y-111090000D01*
X164250000Y-110500000D01*
X165060000Y-110490000D01*
X165050000Y-97710000D01*
X164250000Y-97700000D01*
X164250000Y-97110000D01*
X150240000Y-97110000D01*
X150240000Y-95590000D01*
X164590000Y-95580000D01*
X165120000Y-95670000D01*
G37*
X165120000Y-95670000D02*
X165720000Y-95950000D01*
X166140000Y-96370000D01*
X166450000Y-97020000D01*
X166550000Y-97530000D01*
X166560000Y-98420000D01*
X166560000Y-110710000D01*
X166400000Y-111400000D01*
X165990000Y-112040000D01*
X165270000Y-112500000D01*
X164000000Y-112620000D01*
X149830000Y-112590000D01*
X149320000Y-112510000D01*
X148750000Y-112210000D01*
X148370000Y-111830000D01*
X148130000Y-111430000D01*
X148000000Y-111070000D01*
X147950000Y-110310000D01*
X147950000Y-105730000D01*
X147940000Y-97600000D01*
X149450000Y-97690000D01*
X149450000Y-110500000D01*
X150240000Y-110500000D01*
X150250000Y-111090000D01*
X164240000Y-111090000D01*
X164250000Y-110500000D01*
X165060000Y-110490000D01*
X165050000Y-97710000D01*
X164250000Y-97700000D01*
X164250000Y-97110000D01*
X150240000Y-97110000D01*
X150240000Y-95590000D01*
X164590000Y-95580000D01*
X165120000Y-95670000D01*
G36*
X169300000Y-97660000D02*
G01*
X166980000Y-97640000D01*
X167050000Y-97050000D01*
X167350000Y-96410000D01*
X167630000Y-96060000D01*
X168040000Y-95810000D01*
X168690000Y-95570000D01*
X169290000Y-95530000D01*
X169300000Y-97660000D01*
G37*
X169300000Y-97660000D02*
X166980000Y-97640000D01*
X167050000Y-97050000D01*
X167350000Y-96410000D01*
X167630000Y-96060000D01*
X168040000Y-95810000D01*
X168690000Y-95570000D01*
X169290000Y-95530000D01*
X169300000Y-97660000D01*
G36*
X184170000Y-95620000D02*
G01*
X184770000Y-95900000D01*
X185190000Y-96320000D01*
X185500000Y-96970000D01*
X185600000Y-97480000D01*
X185610000Y-98370000D01*
X185610000Y-110660000D01*
X185450000Y-111350000D01*
X185040000Y-111990000D01*
X184320000Y-112450000D01*
X183050000Y-112570000D01*
X168880000Y-112540000D01*
X168370000Y-112460000D01*
X167800000Y-112160000D01*
X167420000Y-111780000D01*
X167180000Y-111380000D01*
X167050000Y-111020000D01*
X167000000Y-110260000D01*
X167000000Y-105680000D01*
X166990000Y-97550000D01*
X168500000Y-97640000D01*
X168500000Y-110450000D01*
X169290000Y-110450000D01*
X169300000Y-111040000D01*
X183290000Y-111040000D01*
X183300000Y-110450000D01*
X184110000Y-110440000D01*
X184100000Y-97660000D01*
X183300000Y-97650000D01*
X183300000Y-97060000D01*
X169290000Y-97060000D01*
X169290000Y-95540000D01*
X183640000Y-95530000D01*
X184170000Y-95620000D01*
G37*
X184170000Y-95620000D02*
X184770000Y-95900000D01*
X185190000Y-96320000D01*
X185500000Y-96970000D01*
X185600000Y-97480000D01*
X185610000Y-98370000D01*
X185610000Y-110660000D01*
X185450000Y-111350000D01*
X185040000Y-111990000D01*
X184320000Y-112450000D01*
X183050000Y-112570000D01*
X168880000Y-112540000D01*
X168370000Y-112460000D01*
X167800000Y-112160000D01*
X167420000Y-111780000D01*
X167180000Y-111380000D01*
X167050000Y-111020000D01*
X167000000Y-110260000D01*
X167000000Y-105680000D01*
X166990000Y-97550000D01*
X168500000Y-97640000D01*
X168500000Y-110450000D01*
X169290000Y-110450000D01*
X169300000Y-111040000D01*
X183290000Y-111040000D01*
X183300000Y-110450000D01*
X184110000Y-110440000D01*
X184100000Y-97660000D01*
X183300000Y-97650000D01*
X183300000Y-97060000D01*
X169290000Y-97060000D01*
X169290000Y-95540000D01*
X183640000Y-95530000D01*
X184170000Y-95620000D01*
G36*
X188350000Y-97710000D02*
G01*
X186030000Y-97690000D01*
X186100000Y-97100000D01*
X186400000Y-96460000D01*
X186680000Y-96110000D01*
X187090000Y-95860000D01*
X187740000Y-95620000D01*
X188340000Y-95580000D01*
X188350000Y-97710000D01*
G37*
X188350000Y-97710000D02*
X186030000Y-97690000D01*
X186100000Y-97100000D01*
X186400000Y-96460000D01*
X186680000Y-96110000D01*
X187090000Y-95860000D01*
X187740000Y-95620000D01*
X188340000Y-95580000D01*
X188350000Y-97710000D01*
G36*
X203220000Y-95670000D02*
G01*
X203820000Y-95950000D01*
X204240000Y-96370000D01*
X204550000Y-97020000D01*
X204650000Y-97530000D01*
X204660000Y-98420000D01*
X204660000Y-110710000D01*
X204500000Y-111400000D01*
X204090000Y-112040000D01*
X203370000Y-112500000D01*
X202100000Y-112620000D01*
X187930000Y-112590000D01*
X187420000Y-112510000D01*
X186850000Y-112210000D01*
X186470000Y-111830000D01*
X186230000Y-111430000D01*
X186100000Y-111070000D01*
X186050000Y-110310000D01*
X186050000Y-105730000D01*
X186040000Y-97600000D01*
X187550000Y-97690000D01*
X187550000Y-110500000D01*
X188340000Y-110500000D01*
X188350000Y-111090000D01*
X202340000Y-111090000D01*
X202350000Y-110500000D01*
X203160000Y-110490000D01*
X203150000Y-97710000D01*
X202350000Y-97700000D01*
X202350000Y-97110000D01*
X188340000Y-97110000D01*
X188340000Y-95590000D01*
X202690000Y-95580000D01*
X203220000Y-95670000D01*
G37*
X203220000Y-95670000D02*
X203820000Y-95950000D01*
X204240000Y-96370000D01*
X204550000Y-97020000D01*
X204650000Y-97530000D01*
X204660000Y-98420000D01*
X204660000Y-110710000D01*
X204500000Y-111400000D01*
X204090000Y-112040000D01*
X203370000Y-112500000D01*
X202100000Y-112620000D01*
X187930000Y-112590000D01*
X187420000Y-112510000D01*
X186850000Y-112210000D01*
X186470000Y-111830000D01*
X186230000Y-111430000D01*
X186100000Y-111070000D01*
X186050000Y-110310000D01*
X186050000Y-105730000D01*
X186040000Y-97600000D01*
X187550000Y-97690000D01*
X187550000Y-110500000D01*
X188340000Y-110500000D01*
X188350000Y-111090000D01*
X202340000Y-111090000D01*
X202350000Y-110500000D01*
X203160000Y-110490000D01*
X203150000Y-97710000D01*
X202350000Y-97700000D01*
X202350000Y-97110000D01*
X188340000Y-97110000D01*
X188340000Y-95590000D01*
X202690000Y-95580000D01*
X203220000Y-95670000D01*
G36*
X207400000Y-97710000D02*
G01*
X205080000Y-97690000D01*
X205150000Y-97100000D01*
X205450000Y-96460000D01*
X205730000Y-96110000D01*
X206140000Y-95860000D01*
X206790000Y-95620000D01*
X207390000Y-95580000D01*
X207400000Y-97710000D01*
G37*
X207400000Y-97710000D02*
X205080000Y-97690000D01*
X205150000Y-97100000D01*
X205450000Y-96460000D01*
X205730000Y-96110000D01*
X206140000Y-95860000D01*
X206790000Y-95620000D01*
X207390000Y-95580000D01*
X207400000Y-97710000D01*
G36*
X222270000Y-95670000D02*
G01*
X222870000Y-95950000D01*
X223290000Y-96370000D01*
X223600000Y-97020000D01*
X223700000Y-97530000D01*
X223710000Y-98420000D01*
X223710000Y-110710000D01*
X223550000Y-111400000D01*
X223140000Y-112040000D01*
X222420000Y-112500000D01*
X221150000Y-112620000D01*
X206980000Y-112590000D01*
X206470000Y-112510000D01*
X205900000Y-112210000D01*
X205520000Y-111830000D01*
X205280000Y-111430000D01*
X205150000Y-111070000D01*
X205100000Y-110310000D01*
X205100000Y-105730000D01*
X205090000Y-97600000D01*
X206600000Y-97690000D01*
X206600000Y-110500000D01*
X207390000Y-110500000D01*
X207400000Y-111090000D01*
X221390000Y-111090000D01*
X221400000Y-110500000D01*
X222210000Y-110490000D01*
X222200000Y-97710000D01*
X221400000Y-97700000D01*
X221400000Y-97110000D01*
X207390000Y-97110000D01*
X207390000Y-95590000D01*
X221740000Y-95580000D01*
X222270000Y-95670000D01*
G37*
X222270000Y-95670000D02*
X222870000Y-95950000D01*
X223290000Y-96370000D01*
X223600000Y-97020000D01*
X223700000Y-97530000D01*
X223710000Y-98420000D01*
X223710000Y-110710000D01*
X223550000Y-111400000D01*
X223140000Y-112040000D01*
X222420000Y-112500000D01*
X221150000Y-112620000D01*
X206980000Y-112590000D01*
X206470000Y-112510000D01*
X205900000Y-112210000D01*
X205520000Y-111830000D01*
X205280000Y-111430000D01*
X205150000Y-111070000D01*
X205100000Y-110310000D01*
X205100000Y-105730000D01*
X205090000Y-97600000D01*
X206600000Y-97690000D01*
X206600000Y-110500000D01*
X207390000Y-110500000D01*
X207400000Y-111090000D01*
X221390000Y-111090000D01*
X221400000Y-110500000D01*
X222210000Y-110490000D01*
X222200000Y-97710000D01*
X221400000Y-97700000D01*
X221400000Y-97110000D01*
X207390000Y-97110000D01*
X207390000Y-95590000D01*
X221740000Y-95580000D01*
X222270000Y-95670000D01*
G36*
X226450000Y-97660000D02*
G01*
X224130000Y-97640000D01*
X224200000Y-97050000D01*
X224500000Y-96410000D01*
X224780000Y-96060000D01*
X225190000Y-95810000D01*
X225840000Y-95570000D01*
X226440000Y-95530000D01*
X226450000Y-97660000D01*
G37*
X226450000Y-97660000D02*
X224130000Y-97640000D01*
X224200000Y-97050000D01*
X224500000Y-96410000D01*
X224780000Y-96060000D01*
X225190000Y-95810000D01*
X225840000Y-95570000D01*
X226440000Y-95530000D01*
X226450000Y-97660000D01*
G36*
X241320000Y-95620000D02*
G01*
X241920000Y-95900000D01*
X242340000Y-96320000D01*
X242650000Y-96970000D01*
X242750000Y-97480000D01*
X242760000Y-98370000D01*
X242760000Y-110660000D01*
X242600000Y-111350000D01*
X242190000Y-111990000D01*
X241470000Y-112450000D01*
X240200000Y-112570000D01*
X226030000Y-112540000D01*
X225520000Y-112460000D01*
X224950000Y-112160000D01*
X224570000Y-111780000D01*
X224330000Y-111380000D01*
X224200000Y-111020000D01*
X224150000Y-110260000D01*
X224150000Y-105680000D01*
X224140000Y-97550000D01*
X225650000Y-97640000D01*
X225650000Y-110450000D01*
X226440000Y-110450000D01*
X226450000Y-111040000D01*
X240440000Y-111040000D01*
X240450000Y-110450000D01*
X241260000Y-110440000D01*
X241250000Y-97660000D01*
X240450000Y-97650000D01*
X240450000Y-97060000D01*
X226440000Y-97060000D01*
X226440000Y-95540000D01*
X240790000Y-95530000D01*
X241320000Y-95620000D01*
G37*
X241320000Y-95620000D02*
X241920000Y-95900000D01*
X242340000Y-96320000D01*
X242650000Y-96970000D01*
X242750000Y-97480000D01*
X242760000Y-98370000D01*
X242760000Y-110660000D01*
X242600000Y-111350000D01*
X242190000Y-111990000D01*
X241470000Y-112450000D01*
X240200000Y-112570000D01*
X226030000Y-112540000D01*
X225520000Y-112460000D01*
X224950000Y-112160000D01*
X224570000Y-111780000D01*
X224330000Y-111380000D01*
X224200000Y-111020000D01*
X224150000Y-110260000D01*
X224150000Y-105680000D01*
X224140000Y-97550000D01*
X225650000Y-97640000D01*
X225650000Y-110450000D01*
X226440000Y-110450000D01*
X226450000Y-111040000D01*
X240440000Y-111040000D01*
X240450000Y-110450000D01*
X241260000Y-110440000D01*
X241250000Y-97660000D01*
X240450000Y-97650000D01*
X240450000Y-97060000D01*
X226440000Y-97060000D01*
X226440000Y-95540000D01*
X240790000Y-95530000D01*
X241320000Y-95620000D01*
G36*
X231200000Y-116710000D02*
G01*
X228880000Y-116690000D01*
X228950000Y-116100000D01*
X229250000Y-115460000D01*
X229530000Y-115110000D01*
X229940000Y-114860000D01*
X230590000Y-114620000D01*
X231190000Y-114580000D01*
X231200000Y-116710000D01*
G37*
X231200000Y-116710000D02*
X228880000Y-116690000D01*
X228950000Y-116100000D01*
X229250000Y-115460000D01*
X229530000Y-115110000D01*
X229940000Y-114860000D01*
X230590000Y-114620000D01*
X231190000Y-114580000D01*
X231200000Y-116710000D01*
G36*
X246070000Y-114670000D02*
G01*
X246670000Y-114950000D01*
X247090000Y-115370000D01*
X247400000Y-116020000D01*
X247500000Y-116530000D01*
X247510000Y-117420000D01*
X247510000Y-129710000D01*
X247350000Y-130400000D01*
X246940000Y-131040000D01*
X246220000Y-131500000D01*
X244950000Y-131620000D01*
X230780000Y-131590000D01*
X230270000Y-131510000D01*
X229700000Y-131210000D01*
X229320000Y-130830000D01*
X229080000Y-130430000D01*
X228950000Y-130070000D01*
X228900000Y-129310000D01*
X228900000Y-124730000D01*
X228890000Y-116600000D01*
X230400000Y-116690000D01*
X230400000Y-129500000D01*
X231190000Y-129500000D01*
X231200000Y-130090000D01*
X245190000Y-130090000D01*
X245200000Y-129500000D01*
X246010000Y-129490000D01*
X246000000Y-116710000D01*
X245200000Y-116700000D01*
X245200000Y-116110000D01*
X231190000Y-116110000D01*
X231190000Y-114590000D01*
X245540000Y-114580000D01*
X246070000Y-114670000D01*
G37*
X246070000Y-114670000D02*
X246670000Y-114950000D01*
X247090000Y-115370000D01*
X247400000Y-116020000D01*
X247500000Y-116530000D01*
X247510000Y-117420000D01*
X247510000Y-129710000D01*
X247350000Y-130400000D01*
X246940000Y-131040000D01*
X246220000Y-131500000D01*
X244950000Y-131620000D01*
X230780000Y-131590000D01*
X230270000Y-131510000D01*
X229700000Y-131210000D01*
X229320000Y-130830000D01*
X229080000Y-130430000D01*
X228950000Y-130070000D01*
X228900000Y-129310000D01*
X228900000Y-124730000D01*
X228890000Y-116600000D01*
X230400000Y-116690000D01*
X230400000Y-129500000D01*
X231190000Y-129500000D01*
X231200000Y-130090000D01*
X245190000Y-130090000D01*
X245200000Y-129500000D01*
X246010000Y-129490000D01*
X246000000Y-116710000D01*
X245200000Y-116700000D01*
X245200000Y-116110000D01*
X231190000Y-116110000D01*
X231190000Y-114590000D01*
X245540000Y-114580000D01*
X246070000Y-114670000D01*
G36*
X150250000Y-78610000D02*
G01*
X147930000Y-78590000D01*
X148000000Y-78000000D01*
X148300000Y-77360000D01*
X148580000Y-77010000D01*
X148990000Y-76760000D01*
X149640000Y-76520000D01*
X150240000Y-76480000D01*
X150250000Y-78610000D01*
G37*
X150250000Y-78610000D02*
X147930000Y-78590000D01*
X148000000Y-78000000D01*
X148300000Y-77360000D01*
X148580000Y-77010000D01*
X148990000Y-76760000D01*
X149640000Y-76520000D01*
X150240000Y-76480000D01*
X150250000Y-78610000D01*
G36*
X165120000Y-76570000D02*
G01*
X165720000Y-76850000D01*
X166140000Y-77270000D01*
X166450000Y-77920000D01*
X166550000Y-78430000D01*
X166560000Y-79320000D01*
X166560000Y-91610000D01*
X166400000Y-92300000D01*
X165990000Y-92940000D01*
X165270000Y-93400000D01*
X164000000Y-93520000D01*
X149830000Y-93490000D01*
X149320000Y-93410000D01*
X148750000Y-93110000D01*
X148370000Y-92730000D01*
X148130000Y-92330000D01*
X148000000Y-91970000D01*
X147950000Y-91210000D01*
X147950000Y-86630000D01*
X147940000Y-78500000D01*
X149450000Y-78590000D01*
X149450000Y-91400000D01*
X150240000Y-91400000D01*
X150250000Y-91990000D01*
X164240000Y-91990000D01*
X164250000Y-91400000D01*
X165060000Y-91390000D01*
X165050000Y-78610000D01*
X164250000Y-78600000D01*
X164250000Y-78010000D01*
X150240000Y-78010000D01*
X150240000Y-76490000D01*
X164590000Y-76480000D01*
X165120000Y-76570000D01*
G37*
X165120000Y-76570000D02*
X165720000Y-76850000D01*
X166140000Y-77270000D01*
X166450000Y-77920000D01*
X166550000Y-78430000D01*
X166560000Y-79320000D01*
X166560000Y-91610000D01*
X166400000Y-92300000D01*
X165990000Y-92940000D01*
X165270000Y-93400000D01*
X164000000Y-93520000D01*
X149830000Y-93490000D01*
X149320000Y-93410000D01*
X148750000Y-93110000D01*
X148370000Y-92730000D01*
X148130000Y-92330000D01*
X148000000Y-91970000D01*
X147950000Y-91210000D01*
X147950000Y-86630000D01*
X147940000Y-78500000D01*
X149450000Y-78590000D01*
X149450000Y-91400000D01*
X150240000Y-91400000D01*
X150250000Y-91990000D01*
X164240000Y-91990000D01*
X164250000Y-91400000D01*
X165060000Y-91390000D01*
X165050000Y-78610000D01*
X164250000Y-78600000D01*
X164250000Y-78010000D01*
X150240000Y-78010000D01*
X150240000Y-76490000D01*
X164590000Y-76480000D01*
X165120000Y-76570000D01*
G36*
X169300000Y-78610000D02*
G01*
X166980000Y-78590000D01*
X167050000Y-78000000D01*
X167350000Y-77360000D01*
X167630000Y-77010000D01*
X168040000Y-76760000D01*
X168690000Y-76520000D01*
X169290000Y-76480000D01*
X169300000Y-78610000D01*
G37*
X169300000Y-78610000D02*
X166980000Y-78590000D01*
X167050000Y-78000000D01*
X167350000Y-77360000D01*
X167630000Y-77010000D01*
X168040000Y-76760000D01*
X168690000Y-76520000D01*
X169290000Y-76480000D01*
X169300000Y-78610000D01*
G36*
X184170000Y-76570000D02*
G01*
X184770000Y-76850000D01*
X185190000Y-77270000D01*
X185500000Y-77920000D01*
X185600000Y-78430000D01*
X185610000Y-79320000D01*
X185610000Y-91610000D01*
X185450000Y-92300000D01*
X185040000Y-92940000D01*
X184320000Y-93400000D01*
X183050000Y-93520000D01*
X168880000Y-93490000D01*
X168370000Y-93410000D01*
X167800000Y-93110000D01*
X167420000Y-92730000D01*
X167180000Y-92330000D01*
X167050000Y-91970000D01*
X167000000Y-91210000D01*
X167000000Y-86630000D01*
X166990000Y-78500000D01*
X168500000Y-78590000D01*
X168500000Y-91400000D01*
X169290000Y-91400000D01*
X169300000Y-91990000D01*
X183290000Y-91990000D01*
X183300000Y-91400000D01*
X184110000Y-91390000D01*
X184100000Y-78610000D01*
X183300000Y-78600000D01*
X183300000Y-78010000D01*
X169290000Y-78010000D01*
X169290000Y-76490000D01*
X183640000Y-76480000D01*
X184170000Y-76570000D01*
G37*
X184170000Y-76570000D02*
X184770000Y-76850000D01*
X185190000Y-77270000D01*
X185500000Y-77920000D01*
X185600000Y-78430000D01*
X185610000Y-79320000D01*
X185610000Y-91610000D01*
X185450000Y-92300000D01*
X185040000Y-92940000D01*
X184320000Y-93400000D01*
X183050000Y-93520000D01*
X168880000Y-93490000D01*
X168370000Y-93410000D01*
X167800000Y-93110000D01*
X167420000Y-92730000D01*
X167180000Y-92330000D01*
X167050000Y-91970000D01*
X167000000Y-91210000D01*
X167000000Y-86630000D01*
X166990000Y-78500000D01*
X168500000Y-78590000D01*
X168500000Y-91400000D01*
X169290000Y-91400000D01*
X169300000Y-91990000D01*
X183290000Y-91990000D01*
X183300000Y-91400000D01*
X184110000Y-91390000D01*
X184100000Y-78610000D01*
X183300000Y-78600000D01*
X183300000Y-78010000D01*
X169290000Y-78010000D01*
X169290000Y-76490000D01*
X183640000Y-76480000D01*
X184170000Y-76570000D01*
G36*
X188350000Y-78660000D02*
G01*
X186030000Y-78640000D01*
X186100000Y-78050000D01*
X186400000Y-77410000D01*
X186680000Y-77060000D01*
X187090000Y-76810000D01*
X187740000Y-76570000D01*
X188340000Y-76530000D01*
X188350000Y-78660000D01*
G37*
X188350000Y-78660000D02*
X186030000Y-78640000D01*
X186100000Y-78050000D01*
X186400000Y-77410000D01*
X186680000Y-77060000D01*
X187090000Y-76810000D01*
X187740000Y-76570000D01*
X188340000Y-76530000D01*
X188350000Y-78660000D01*
G36*
X203220000Y-76620000D02*
G01*
X203820000Y-76900000D01*
X204240000Y-77320000D01*
X204550000Y-77970000D01*
X204650000Y-78480000D01*
X204660000Y-79370000D01*
X204660000Y-91660000D01*
X204500000Y-92350000D01*
X204090000Y-92990000D01*
X203370000Y-93450000D01*
X202100000Y-93570000D01*
X187930000Y-93540000D01*
X187420000Y-93460000D01*
X186850000Y-93160000D01*
X186470000Y-92780000D01*
X186230000Y-92380000D01*
X186100000Y-92020000D01*
X186050000Y-91260000D01*
X186050000Y-86680000D01*
X186040000Y-78550000D01*
X187550000Y-78640000D01*
X187550000Y-91450000D01*
X188340000Y-91450000D01*
X188350000Y-92040000D01*
X202340000Y-92040000D01*
X202350000Y-91450000D01*
X203160000Y-91440000D01*
X203150000Y-78660000D01*
X202350000Y-78650000D01*
X202350000Y-78060000D01*
X188340000Y-78060000D01*
X188340000Y-76540000D01*
X202690000Y-76530000D01*
X203220000Y-76620000D01*
G37*
X203220000Y-76620000D02*
X203820000Y-76900000D01*
X204240000Y-77320000D01*
X204550000Y-77970000D01*
X204650000Y-78480000D01*
X204660000Y-79370000D01*
X204660000Y-91660000D01*
X204500000Y-92350000D01*
X204090000Y-92990000D01*
X203370000Y-93450000D01*
X202100000Y-93570000D01*
X187930000Y-93540000D01*
X187420000Y-93460000D01*
X186850000Y-93160000D01*
X186470000Y-92780000D01*
X186230000Y-92380000D01*
X186100000Y-92020000D01*
X186050000Y-91260000D01*
X186050000Y-86680000D01*
X186040000Y-78550000D01*
X187550000Y-78640000D01*
X187550000Y-91450000D01*
X188340000Y-91450000D01*
X188350000Y-92040000D01*
X202340000Y-92040000D01*
X202350000Y-91450000D01*
X203160000Y-91440000D01*
X203150000Y-78660000D01*
X202350000Y-78650000D01*
X202350000Y-78060000D01*
X188340000Y-78060000D01*
X188340000Y-76540000D01*
X202690000Y-76530000D01*
X203220000Y-76620000D01*
G36*
X207350000Y-78610000D02*
G01*
X205030000Y-78590000D01*
X205100000Y-78000000D01*
X205400000Y-77360000D01*
X205680000Y-77010000D01*
X206090000Y-76760000D01*
X206740000Y-76520000D01*
X207340000Y-76480000D01*
X207350000Y-78610000D01*
G37*
X207350000Y-78610000D02*
X205030000Y-78590000D01*
X205100000Y-78000000D01*
X205400000Y-77360000D01*
X205680000Y-77010000D01*
X206090000Y-76760000D01*
X206740000Y-76520000D01*
X207340000Y-76480000D01*
X207350000Y-78610000D01*
G36*
X222220000Y-76570000D02*
G01*
X222820000Y-76850000D01*
X223240000Y-77270000D01*
X223550000Y-77920000D01*
X223650000Y-78430000D01*
X223660000Y-79320000D01*
X223660000Y-91610000D01*
X223500000Y-92300000D01*
X223090000Y-92940000D01*
X222370000Y-93400000D01*
X221100000Y-93520000D01*
X206930000Y-93490000D01*
X206420000Y-93410000D01*
X205850000Y-93110000D01*
X205470000Y-92730000D01*
X205230000Y-92330000D01*
X205100000Y-91970000D01*
X205050000Y-91210000D01*
X205050000Y-86630000D01*
X205040000Y-78500000D01*
X206550000Y-78590000D01*
X206550000Y-91400000D01*
X207340000Y-91400000D01*
X207350000Y-91990000D01*
X221340000Y-91990000D01*
X221350000Y-91400000D01*
X222160000Y-91390000D01*
X222150000Y-78610000D01*
X221350000Y-78600000D01*
X221350000Y-78010000D01*
X207340000Y-78010000D01*
X207340000Y-76490000D01*
X221690000Y-76480000D01*
X222220000Y-76570000D01*
G37*
X222220000Y-76570000D02*
X222820000Y-76850000D01*
X223240000Y-77270000D01*
X223550000Y-77920000D01*
X223650000Y-78430000D01*
X223660000Y-79320000D01*
X223660000Y-91610000D01*
X223500000Y-92300000D01*
X223090000Y-92940000D01*
X222370000Y-93400000D01*
X221100000Y-93520000D01*
X206930000Y-93490000D01*
X206420000Y-93410000D01*
X205850000Y-93110000D01*
X205470000Y-92730000D01*
X205230000Y-92330000D01*
X205100000Y-91970000D01*
X205050000Y-91210000D01*
X205050000Y-86630000D01*
X205040000Y-78500000D01*
X206550000Y-78590000D01*
X206550000Y-91400000D01*
X207340000Y-91400000D01*
X207350000Y-91990000D01*
X221340000Y-91990000D01*
X221350000Y-91400000D01*
X222160000Y-91390000D01*
X222150000Y-78610000D01*
X221350000Y-78600000D01*
X221350000Y-78010000D01*
X207340000Y-78010000D01*
X207340000Y-76490000D01*
X221690000Y-76480000D01*
X222220000Y-76570000D01*
G36*
X226450000Y-78610000D02*
G01*
X224130000Y-78590000D01*
X224200000Y-78000000D01*
X224500000Y-77360000D01*
X224780000Y-77010000D01*
X225190000Y-76760000D01*
X225840000Y-76520000D01*
X226440000Y-76480000D01*
X226450000Y-78610000D01*
G37*
X226450000Y-78610000D02*
X224130000Y-78590000D01*
X224200000Y-78000000D01*
X224500000Y-77360000D01*
X224780000Y-77010000D01*
X225190000Y-76760000D01*
X225840000Y-76520000D01*
X226440000Y-76480000D01*
X226450000Y-78610000D01*
G36*
X241320000Y-76570000D02*
G01*
X241920000Y-76850000D01*
X242340000Y-77270000D01*
X242650000Y-77920000D01*
X242750000Y-78430000D01*
X242760000Y-79320000D01*
X242760000Y-91610000D01*
X242600000Y-92300000D01*
X242190000Y-92940000D01*
X241470000Y-93400000D01*
X240200000Y-93520000D01*
X226030000Y-93490000D01*
X225520000Y-93410000D01*
X224950000Y-93110000D01*
X224570000Y-92730000D01*
X224330000Y-92330000D01*
X224200000Y-91970000D01*
X224150000Y-91210000D01*
X224150000Y-86630000D01*
X224140000Y-78500000D01*
X225650000Y-78590000D01*
X225650000Y-91400000D01*
X226440000Y-91400000D01*
X226450000Y-91990000D01*
X240440000Y-91990000D01*
X240450000Y-91400000D01*
X241260000Y-91390000D01*
X241250000Y-78610000D01*
X240450000Y-78600000D01*
X240450000Y-78010000D01*
X226440000Y-78010000D01*
X226440000Y-76490000D01*
X240790000Y-76480000D01*
X241320000Y-76570000D01*
G37*
X241320000Y-76570000D02*
X241920000Y-76850000D01*
X242340000Y-77270000D01*
X242650000Y-77920000D01*
X242750000Y-78430000D01*
X242760000Y-79320000D01*
X242760000Y-91610000D01*
X242600000Y-92300000D01*
X242190000Y-92940000D01*
X241470000Y-93400000D01*
X240200000Y-93520000D01*
X226030000Y-93490000D01*
X225520000Y-93410000D01*
X224950000Y-93110000D01*
X224570000Y-92730000D01*
X224330000Y-92330000D01*
X224200000Y-91970000D01*
X224150000Y-91210000D01*
X224150000Y-86630000D01*
X224140000Y-78500000D01*
X225650000Y-78590000D01*
X225650000Y-91400000D01*
X226440000Y-91400000D01*
X226450000Y-91990000D01*
X240440000Y-91990000D01*
X240450000Y-91400000D01*
X241260000Y-91390000D01*
X241250000Y-78610000D01*
X240450000Y-78600000D01*
X240450000Y-78010000D01*
X226440000Y-78010000D01*
X226440000Y-76490000D01*
X240790000Y-76480000D01*
X241320000Y-76570000D01*
G36*
X226450000Y-59560000D02*
G01*
X224130000Y-59540000D01*
X224200000Y-58950000D01*
X224500000Y-58310000D01*
X224780000Y-57960000D01*
X225190000Y-57710000D01*
X225840000Y-57470000D01*
X226440000Y-57430000D01*
X226450000Y-59560000D01*
G37*
X226450000Y-59560000D02*
X224130000Y-59540000D01*
X224200000Y-58950000D01*
X224500000Y-58310000D01*
X224780000Y-57960000D01*
X225190000Y-57710000D01*
X225840000Y-57470000D01*
X226440000Y-57430000D01*
X226450000Y-59560000D01*
G36*
X241320000Y-57520000D02*
G01*
X241920000Y-57800000D01*
X242340000Y-58220000D01*
X242650000Y-58870000D01*
X242750000Y-59380000D01*
X242760000Y-60270000D01*
X242760000Y-72560000D01*
X242600000Y-73250000D01*
X242190000Y-73890000D01*
X241470000Y-74350000D01*
X240200000Y-74470000D01*
X226030000Y-74440000D01*
X225520000Y-74360000D01*
X224950000Y-74060000D01*
X224570000Y-73680000D01*
X224330000Y-73280000D01*
X224200000Y-72920000D01*
X224150000Y-72160000D01*
X224150000Y-67580000D01*
X224140000Y-59450000D01*
X225650000Y-59540000D01*
X225650000Y-72350000D01*
X226440000Y-72350000D01*
X226450000Y-72940000D01*
X240440000Y-72940000D01*
X240450000Y-72350000D01*
X241260000Y-72340000D01*
X241250000Y-59560000D01*
X240450000Y-59550000D01*
X240450000Y-58960000D01*
X226440000Y-58960000D01*
X226440000Y-57440000D01*
X240790000Y-57430000D01*
X241320000Y-57520000D01*
G37*
X241320000Y-57520000D02*
X241920000Y-57800000D01*
X242340000Y-58220000D01*
X242650000Y-58870000D01*
X242750000Y-59380000D01*
X242760000Y-60270000D01*
X242760000Y-72560000D01*
X242600000Y-73250000D01*
X242190000Y-73890000D01*
X241470000Y-74350000D01*
X240200000Y-74470000D01*
X226030000Y-74440000D01*
X225520000Y-74360000D01*
X224950000Y-74060000D01*
X224570000Y-73680000D01*
X224330000Y-73280000D01*
X224200000Y-72920000D01*
X224150000Y-72160000D01*
X224150000Y-67580000D01*
X224140000Y-59450000D01*
X225650000Y-59540000D01*
X225650000Y-72350000D01*
X226440000Y-72350000D01*
X226450000Y-72940000D01*
X240440000Y-72940000D01*
X240450000Y-72350000D01*
X241260000Y-72340000D01*
X241250000Y-59560000D01*
X240450000Y-59550000D01*
X240450000Y-58960000D01*
X226440000Y-58960000D01*
X226440000Y-57440000D01*
X240790000Y-57430000D01*
X241320000Y-57520000D01*
G36*
X207400000Y-59610000D02*
G01*
X205080000Y-59590000D01*
X205150000Y-59000000D01*
X205450000Y-58360000D01*
X205730000Y-58010000D01*
X206140000Y-57760000D01*
X206790000Y-57520000D01*
X207390000Y-57480000D01*
X207400000Y-59610000D01*
G37*
X207400000Y-59610000D02*
X205080000Y-59590000D01*
X205150000Y-59000000D01*
X205450000Y-58360000D01*
X205730000Y-58010000D01*
X206140000Y-57760000D01*
X206790000Y-57520000D01*
X207390000Y-57480000D01*
X207400000Y-59610000D01*
G36*
X222270000Y-57570000D02*
G01*
X222870000Y-57850000D01*
X223290000Y-58270000D01*
X223600000Y-58920000D01*
X223700000Y-59430000D01*
X223710000Y-60320000D01*
X223710000Y-72610000D01*
X223550000Y-73300000D01*
X223140000Y-73940000D01*
X222420000Y-74400000D01*
X221150000Y-74520000D01*
X206980000Y-74490000D01*
X206470000Y-74410000D01*
X205900000Y-74110000D01*
X205520000Y-73730000D01*
X205280000Y-73330000D01*
X205150000Y-72970000D01*
X205100000Y-72210000D01*
X205100000Y-67630000D01*
X205090000Y-59500000D01*
X206600000Y-59590000D01*
X206600000Y-72400000D01*
X207390000Y-72400000D01*
X207400000Y-72990000D01*
X221390000Y-72990000D01*
X221400000Y-72400000D01*
X222210000Y-72390000D01*
X222200000Y-59610000D01*
X221400000Y-59600000D01*
X221400000Y-59010000D01*
X207390000Y-59010000D01*
X207390000Y-57490000D01*
X221740000Y-57480000D01*
X222270000Y-57570000D01*
G37*
X222270000Y-57570000D02*
X222870000Y-57850000D01*
X223290000Y-58270000D01*
X223600000Y-58920000D01*
X223700000Y-59430000D01*
X223710000Y-60320000D01*
X223710000Y-72610000D01*
X223550000Y-73300000D01*
X223140000Y-73940000D01*
X222420000Y-74400000D01*
X221150000Y-74520000D01*
X206980000Y-74490000D01*
X206470000Y-74410000D01*
X205900000Y-74110000D01*
X205520000Y-73730000D01*
X205280000Y-73330000D01*
X205150000Y-72970000D01*
X205100000Y-72210000D01*
X205100000Y-67630000D01*
X205090000Y-59500000D01*
X206600000Y-59590000D01*
X206600000Y-72400000D01*
X207390000Y-72400000D01*
X207400000Y-72990000D01*
X221390000Y-72990000D01*
X221400000Y-72400000D01*
X222210000Y-72390000D01*
X222200000Y-59610000D01*
X221400000Y-59600000D01*
X221400000Y-59010000D01*
X207390000Y-59010000D01*
X207390000Y-57490000D01*
X221740000Y-57480000D01*
X222270000Y-57570000D01*
G36*
X188350000Y-59610000D02*
G01*
X186030000Y-59590000D01*
X186100000Y-59000000D01*
X186400000Y-58360000D01*
X186680000Y-58010000D01*
X187090000Y-57760000D01*
X187740000Y-57520000D01*
X188340000Y-57480000D01*
X188350000Y-59610000D01*
G37*
X188350000Y-59610000D02*
X186030000Y-59590000D01*
X186100000Y-59000000D01*
X186400000Y-58360000D01*
X186680000Y-58010000D01*
X187090000Y-57760000D01*
X187740000Y-57520000D01*
X188340000Y-57480000D01*
X188350000Y-59610000D01*
G36*
X203220000Y-57570000D02*
G01*
X203820000Y-57850000D01*
X204240000Y-58270000D01*
X204550000Y-58920000D01*
X204650000Y-59430000D01*
X204660000Y-60320000D01*
X204660000Y-72610000D01*
X204500000Y-73300000D01*
X204090000Y-73940000D01*
X203370000Y-74400000D01*
X202100000Y-74520000D01*
X187930000Y-74490000D01*
X187420000Y-74410000D01*
X186850000Y-74110000D01*
X186470000Y-73730000D01*
X186230000Y-73330000D01*
X186100000Y-72970000D01*
X186050000Y-72210000D01*
X186050000Y-67630000D01*
X186040000Y-59500000D01*
X187550000Y-59590000D01*
X187550000Y-72400000D01*
X188340000Y-72400000D01*
X188350000Y-72990000D01*
X202340000Y-72990000D01*
X202350000Y-72400000D01*
X203160000Y-72390000D01*
X203150000Y-59610000D01*
X202350000Y-59600000D01*
X202350000Y-59010000D01*
X188340000Y-59010000D01*
X188340000Y-57490000D01*
X202690000Y-57480000D01*
X203220000Y-57570000D01*
G37*
X203220000Y-57570000D02*
X203820000Y-57850000D01*
X204240000Y-58270000D01*
X204550000Y-58920000D01*
X204650000Y-59430000D01*
X204660000Y-60320000D01*
X204660000Y-72610000D01*
X204500000Y-73300000D01*
X204090000Y-73940000D01*
X203370000Y-74400000D01*
X202100000Y-74520000D01*
X187930000Y-74490000D01*
X187420000Y-74410000D01*
X186850000Y-74110000D01*
X186470000Y-73730000D01*
X186230000Y-73330000D01*
X186100000Y-72970000D01*
X186050000Y-72210000D01*
X186050000Y-67630000D01*
X186040000Y-59500000D01*
X187550000Y-59590000D01*
X187550000Y-72400000D01*
X188340000Y-72400000D01*
X188350000Y-72990000D01*
X202340000Y-72990000D01*
X202350000Y-72400000D01*
X203160000Y-72390000D01*
X203150000Y-59610000D01*
X202350000Y-59600000D01*
X202350000Y-59010000D01*
X188340000Y-59010000D01*
X188340000Y-57490000D01*
X202690000Y-57480000D01*
X203220000Y-57570000D01*
G36*
X169300000Y-59610000D02*
G01*
X166980000Y-59590000D01*
X167050000Y-59000000D01*
X167350000Y-58360000D01*
X167630000Y-58010000D01*
X168040000Y-57760000D01*
X168690000Y-57520000D01*
X169290000Y-57480000D01*
X169300000Y-59610000D01*
G37*
X169300000Y-59610000D02*
X166980000Y-59590000D01*
X167050000Y-59000000D01*
X167350000Y-58360000D01*
X167630000Y-58010000D01*
X168040000Y-57760000D01*
X168690000Y-57520000D01*
X169290000Y-57480000D01*
X169300000Y-59610000D01*
G36*
X184170000Y-57570000D02*
G01*
X184770000Y-57850000D01*
X185190000Y-58270000D01*
X185500000Y-58920000D01*
X185600000Y-59430000D01*
X185610000Y-60320000D01*
X185610000Y-72610000D01*
X185450000Y-73300000D01*
X185040000Y-73940000D01*
X184320000Y-74400000D01*
X183050000Y-74520000D01*
X168880000Y-74490000D01*
X168370000Y-74410000D01*
X167800000Y-74110000D01*
X167420000Y-73730000D01*
X167180000Y-73330000D01*
X167050000Y-72970000D01*
X167000000Y-72210000D01*
X167000000Y-67630000D01*
X166990000Y-59500000D01*
X168500000Y-59590000D01*
X168500000Y-72400000D01*
X169290000Y-72400000D01*
X169300000Y-72990000D01*
X183290000Y-72990000D01*
X183300000Y-72400000D01*
X184110000Y-72390000D01*
X184100000Y-59610000D01*
X183300000Y-59600000D01*
X183300000Y-59010000D01*
X169290000Y-59010000D01*
X169290000Y-57490000D01*
X183640000Y-57480000D01*
X184170000Y-57570000D01*
G37*
X184170000Y-57570000D02*
X184770000Y-57850000D01*
X185190000Y-58270000D01*
X185500000Y-58920000D01*
X185600000Y-59430000D01*
X185610000Y-60320000D01*
X185610000Y-72610000D01*
X185450000Y-73300000D01*
X185040000Y-73940000D01*
X184320000Y-74400000D01*
X183050000Y-74520000D01*
X168880000Y-74490000D01*
X168370000Y-74410000D01*
X167800000Y-74110000D01*
X167420000Y-73730000D01*
X167180000Y-73330000D01*
X167050000Y-72970000D01*
X167000000Y-72210000D01*
X167000000Y-67630000D01*
X166990000Y-59500000D01*
X168500000Y-59590000D01*
X168500000Y-72400000D01*
X169290000Y-72400000D01*
X169300000Y-72990000D01*
X183290000Y-72990000D01*
X183300000Y-72400000D01*
X184110000Y-72390000D01*
X184100000Y-59610000D01*
X183300000Y-59600000D01*
X183300000Y-59010000D01*
X169290000Y-59010000D01*
X169290000Y-57490000D01*
X183640000Y-57480000D01*
X184170000Y-57570000D01*
G36*
X150250000Y-59560000D02*
G01*
X147930000Y-59540000D01*
X148000000Y-58950000D01*
X148300000Y-58310000D01*
X148580000Y-57960000D01*
X148990000Y-57710000D01*
X149640000Y-57470000D01*
X150240000Y-57430000D01*
X150250000Y-59560000D01*
G37*
X150250000Y-59560000D02*
X147930000Y-59540000D01*
X148000000Y-58950000D01*
X148300000Y-58310000D01*
X148580000Y-57960000D01*
X148990000Y-57710000D01*
X149640000Y-57470000D01*
X150240000Y-57430000D01*
X150250000Y-59560000D01*
G36*
X165120000Y-57520000D02*
G01*
X165720000Y-57800000D01*
X166140000Y-58220000D01*
X166450000Y-58870000D01*
X166550000Y-59380000D01*
X166560000Y-60270000D01*
X166560000Y-72560000D01*
X166400000Y-73250000D01*
X165990000Y-73890000D01*
X165270000Y-74350000D01*
X164000000Y-74470000D01*
X149830000Y-74440000D01*
X149320000Y-74360000D01*
X148750000Y-74060000D01*
X148370000Y-73680000D01*
X148130000Y-73280000D01*
X148000000Y-72920000D01*
X147950000Y-72160000D01*
X147950000Y-67580000D01*
X147940000Y-59450000D01*
X149450000Y-59540000D01*
X149450000Y-72350000D01*
X150240000Y-72350000D01*
X150250000Y-72940000D01*
X164240000Y-72940000D01*
X164250000Y-72350000D01*
X165060000Y-72340000D01*
X165050000Y-59560000D01*
X164250000Y-59550000D01*
X164250000Y-58960000D01*
X150240000Y-58960000D01*
X150240000Y-57440000D01*
X164590000Y-57430000D01*
X165120000Y-57520000D01*
G37*
X165120000Y-57520000D02*
X165720000Y-57800000D01*
X166140000Y-58220000D01*
X166450000Y-58870000D01*
X166550000Y-59380000D01*
X166560000Y-60270000D01*
X166560000Y-72560000D01*
X166400000Y-73250000D01*
X165990000Y-73890000D01*
X165270000Y-74350000D01*
X164000000Y-74470000D01*
X149830000Y-74440000D01*
X149320000Y-74360000D01*
X148750000Y-74060000D01*
X148370000Y-73680000D01*
X148130000Y-73280000D01*
X148000000Y-72920000D01*
X147950000Y-72160000D01*
X147950000Y-67580000D01*
X147940000Y-59450000D01*
X149450000Y-59540000D01*
X149450000Y-72350000D01*
X150240000Y-72350000D01*
X150250000Y-72940000D01*
X164240000Y-72940000D01*
X164250000Y-72350000D01*
X165060000Y-72340000D01*
X165050000Y-59560000D01*
X164250000Y-59550000D01*
X164250000Y-58960000D01*
X150240000Y-58960000D01*
X150240000Y-57440000D01*
X164590000Y-57430000D01*
X165120000Y-57520000D01*
G36*
X150250000Y-97710000D02*
G01*
X147930000Y-97690000D01*
X148000000Y-97100000D01*
X148300000Y-96460000D01*
X148580000Y-96110000D01*
X148990000Y-95860000D01*
X149640000Y-95620000D01*
X150240000Y-95580000D01*
X150250000Y-97710000D01*
G37*
X150250000Y-97710000D02*
X147930000Y-97690000D01*
X148000000Y-97100000D01*
X148300000Y-96460000D01*
X148580000Y-96110000D01*
X148990000Y-95860000D01*
X149640000Y-95620000D01*
X150240000Y-95580000D01*
X150250000Y-97710000D01*
G36*
X165120000Y-95670000D02*
G01*
X165720000Y-95950000D01*
X166140000Y-96370000D01*
X166450000Y-97020000D01*
X166550000Y-97530000D01*
X166560000Y-98420000D01*
X166560000Y-110710000D01*
X166400000Y-111400000D01*
X165990000Y-112040000D01*
X165270000Y-112500000D01*
X164000000Y-112620000D01*
X149830000Y-112590000D01*
X149320000Y-112510000D01*
X148750000Y-112210000D01*
X148370000Y-111830000D01*
X148130000Y-111430000D01*
X148000000Y-111070000D01*
X147950000Y-110310000D01*
X147950000Y-105730000D01*
X147940000Y-97600000D01*
X149450000Y-97690000D01*
X149450000Y-110500000D01*
X150240000Y-110500000D01*
X150250000Y-111090000D01*
X164240000Y-111090000D01*
X164250000Y-110500000D01*
X165060000Y-110490000D01*
X165050000Y-97710000D01*
X164250000Y-97700000D01*
X164250000Y-97110000D01*
X150240000Y-97110000D01*
X150240000Y-95590000D01*
X164590000Y-95580000D01*
X165120000Y-95670000D01*
G37*
X165120000Y-95670000D02*
X165720000Y-95950000D01*
X166140000Y-96370000D01*
X166450000Y-97020000D01*
X166550000Y-97530000D01*
X166560000Y-98420000D01*
X166560000Y-110710000D01*
X166400000Y-111400000D01*
X165990000Y-112040000D01*
X165270000Y-112500000D01*
X164000000Y-112620000D01*
X149830000Y-112590000D01*
X149320000Y-112510000D01*
X148750000Y-112210000D01*
X148370000Y-111830000D01*
X148130000Y-111430000D01*
X148000000Y-111070000D01*
X147950000Y-110310000D01*
X147950000Y-105730000D01*
X147940000Y-97600000D01*
X149450000Y-97690000D01*
X149450000Y-110500000D01*
X150240000Y-110500000D01*
X150250000Y-111090000D01*
X164240000Y-111090000D01*
X164250000Y-110500000D01*
X165060000Y-110490000D01*
X165050000Y-97710000D01*
X164250000Y-97700000D01*
X164250000Y-97110000D01*
X150240000Y-97110000D01*
X150240000Y-95590000D01*
X164590000Y-95580000D01*
X165120000Y-95670000D01*
G36*
X169300000Y-97660000D02*
G01*
X166980000Y-97640000D01*
X167050000Y-97050000D01*
X167350000Y-96410000D01*
X167630000Y-96060000D01*
X168040000Y-95810000D01*
X168690000Y-95570000D01*
X169290000Y-95530000D01*
X169300000Y-97660000D01*
G37*
X169300000Y-97660000D02*
X166980000Y-97640000D01*
X167050000Y-97050000D01*
X167350000Y-96410000D01*
X167630000Y-96060000D01*
X168040000Y-95810000D01*
X168690000Y-95570000D01*
X169290000Y-95530000D01*
X169300000Y-97660000D01*
G36*
X184170000Y-95620000D02*
G01*
X184770000Y-95900000D01*
X185190000Y-96320000D01*
X185500000Y-96970000D01*
X185600000Y-97480000D01*
X185610000Y-98370000D01*
X185610000Y-110660000D01*
X185450000Y-111350000D01*
X185040000Y-111990000D01*
X184320000Y-112450000D01*
X183050000Y-112570000D01*
X168880000Y-112540000D01*
X168370000Y-112460000D01*
X167800000Y-112160000D01*
X167420000Y-111780000D01*
X167180000Y-111380000D01*
X167050000Y-111020000D01*
X167000000Y-110260000D01*
X167000000Y-105680000D01*
X166990000Y-97550000D01*
X168500000Y-97640000D01*
X168500000Y-110450000D01*
X169290000Y-110450000D01*
X169300000Y-111040000D01*
X183290000Y-111040000D01*
X183300000Y-110450000D01*
X184110000Y-110440000D01*
X184100000Y-97660000D01*
X183300000Y-97650000D01*
X183300000Y-97060000D01*
X169290000Y-97060000D01*
X169290000Y-95540000D01*
X183640000Y-95530000D01*
X184170000Y-95620000D01*
G37*
X184170000Y-95620000D02*
X184770000Y-95900000D01*
X185190000Y-96320000D01*
X185500000Y-96970000D01*
X185600000Y-97480000D01*
X185610000Y-98370000D01*
X185610000Y-110660000D01*
X185450000Y-111350000D01*
X185040000Y-111990000D01*
X184320000Y-112450000D01*
X183050000Y-112570000D01*
X168880000Y-112540000D01*
X168370000Y-112460000D01*
X167800000Y-112160000D01*
X167420000Y-111780000D01*
X167180000Y-111380000D01*
X167050000Y-111020000D01*
X167000000Y-110260000D01*
X167000000Y-105680000D01*
X166990000Y-97550000D01*
X168500000Y-97640000D01*
X168500000Y-110450000D01*
X169290000Y-110450000D01*
X169300000Y-111040000D01*
X183290000Y-111040000D01*
X183300000Y-110450000D01*
X184110000Y-110440000D01*
X184100000Y-97660000D01*
X183300000Y-97650000D01*
X183300000Y-97060000D01*
X169290000Y-97060000D01*
X169290000Y-95540000D01*
X183640000Y-95530000D01*
X184170000Y-95620000D01*
G36*
X188350000Y-97710000D02*
G01*
X186030000Y-97690000D01*
X186100000Y-97100000D01*
X186400000Y-96460000D01*
X186680000Y-96110000D01*
X187090000Y-95860000D01*
X187740000Y-95620000D01*
X188340000Y-95580000D01*
X188350000Y-97710000D01*
G37*
X188350000Y-97710000D02*
X186030000Y-97690000D01*
X186100000Y-97100000D01*
X186400000Y-96460000D01*
X186680000Y-96110000D01*
X187090000Y-95860000D01*
X187740000Y-95620000D01*
X188340000Y-95580000D01*
X188350000Y-97710000D01*
G36*
X203220000Y-95670000D02*
G01*
X203820000Y-95950000D01*
X204240000Y-96370000D01*
X204550000Y-97020000D01*
X204650000Y-97530000D01*
X204660000Y-98420000D01*
X204660000Y-110710000D01*
X204500000Y-111400000D01*
X204090000Y-112040000D01*
X203370000Y-112500000D01*
X202100000Y-112620000D01*
X187930000Y-112590000D01*
X187420000Y-112510000D01*
X186850000Y-112210000D01*
X186470000Y-111830000D01*
X186230000Y-111430000D01*
X186100000Y-111070000D01*
X186050000Y-110310000D01*
X186050000Y-105730000D01*
X186040000Y-97600000D01*
X187550000Y-97690000D01*
X187550000Y-110500000D01*
X188340000Y-110500000D01*
X188350000Y-111090000D01*
X202340000Y-111090000D01*
X202350000Y-110500000D01*
X203160000Y-110490000D01*
X203150000Y-97710000D01*
X202350000Y-97700000D01*
X202350000Y-97110000D01*
X188340000Y-97110000D01*
X188340000Y-95590000D01*
X202690000Y-95580000D01*
X203220000Y-95670000D01*
G37*
X203220000Y-95670000D02*
X203820000Y-95950000D01*
X204240000Y-96370000D01*
X204550000Y-97020000D01*
X204650000Y-97530000D01*
X204660000Y-98420000D01*
X204660000Y-110710000D01*
X204500000Y-111400000D01*
X204090000Y-112040000D01*
X203370000Y-112500000D01*
X202100000Y-112620000D01*
X187930000Y-112590000D01*
X187420000Y-112510000D01*
X186850000Y-112210000D01*
X186470000Y-111830000D01*
X186230000Y-111430000D01*
X186100000Y-111070000D01*
X186050000Y-110310000D01*
X186050000Y-105730000D01*
X186040000Y-97600000D01*
X187550000Y-97690000D01*
X187550000Y-110500000D01*
X188340000Y-110500000D01*
X188350000Y-111090000D01*
X202340000Y-111090000D01*
X202350000Y-110500000D01*
X203160000Y-110490000D01*
X203150000Y-97710000D01*
X202350000Y-97700000D01*
X202350000Y-97110000D01*
X188340000Y-97110000D01*
X188340000Y-95590000D01*
X202690000Y-95580000D01*
X203220000Y-95670000D01*
G36*
X207400000Y-97710000D02*
G01*
X205080000Y-97690000D01*
X205150000Y-97100000D01*
X205450000Y-96460000D01*
X205730000Y-96110000D01*
X206140000Y-95860000D01*
X206790000Y-95620000D01*
X207390000Y-95580000D01*
X207400000Y-97710000D01*
G37*
X207400000Y-97710000D02*
X205080000Y-97690000D01*
X205150000Y-97100000D01*
X205450000Y-96460000D01*
X205730000Y-96110000D01*
X206140000Y-95860000D01*
X206790000Y-95620000D01*
X207390000Y-95580000D01*
X207400000Y-97710000D01*
G36*
X222270000Y-95670000D02*
G01*
X222870000Y-95950000D01*
X223290000Y-96370000D01*
X223600000Y-97020000D01*
X223700000Y-97530000D01*
X223710000Y-98420000D01*
X223710000Y-110710000D01*
X223550000Y-111400000D01*
X223140000Y-112040000D01*
X222420000Y-112500000D01*
X221150000Y-112620000D01*
X206980000Y-112590000D01*
X206470000Y-112510000D01*
X205900000Y-112210000D01*
X205520000Y-111830000D01*
X205280000Y-111430000D01*
X205150000Y-111070000D01*
X205100000Y-110310000D01*
X205100000Y-105730000D01*
X205090000Y-97600000D01*
X206600000Y-97690000D01*
X206600000Y-110500000D01*
X207390000Y-110500000D01*
X207400000Y-111090000D01*
X221390000Y-111090000D01*
X221400000Y-110500000D01*
X222210000Y-110490000D01*
X222200000Y-97710000D01*
X221400000Y-97700000D01*
X221400000Y-97110000D01*
X207390000Y-97110000D01*
X207390000Y-95590000D01*
X221740000Y-95580000D01*
X222270000Y-95670000D01*
G37*
X222270000Y-95670000D02*
X222870000Y-95950000D01*
X223290000Y-96370000D01*
X223600000Y-97020000D01*
X223700000Y-97530000D01*
X223710000Y-98420000D01*
X223710000Y-110710000D01*
X223550000Y-111400000D01*
X223140000Y-112040000D01*
X222420000Y-112500000D01*
X221150000Y-112620000D01*
X206980000Y-112590000D01*
X206470000Y-112510000D01*
X205900000Y-112210000D01*
X205520000Y-111830000D01*
X205280000Y-111430000D01*
X205150000Y-111070000D01*
X205100000Y-110310000D01*
X205100000Y-105730000D01*
X205090000Y-97600000D01*
X206600000Y-97690000D01*
X206600000Y-110500000D01*
X207390000Y-110500000D01*
X207400000Y-111090000D01*
X221390000Y-111090000D01*
X221400000Y-110500000D01*
X222210000Y-110490000D01*
X222200000Y-97710000D01*
X221400000Y-97700000D01*
X221400000Y-97110000D01*
X207390000Y-97110000D01*
X207390000Y-95590000D01*
X221740000Y-95580000D01*
X222270000Y-95670000D01*
G36*
X226450000Y-97660000D02*
G01*
X224130000Y-97640000D01*
X224200000Y-97050000D01*
X224500000Y-96410000D01*
X224780000Y-96060000D01*
X225190000Y-95810000D01*
X225840000Y-95570000D01*
X226440000Y-95530000D01*
X226450000Y-97660000D01*
G37*
X226450000Y-97660000D02*
X224130000Y-97640000D01*
X224200000Y-97050000D01*
X224500000Y-96410000D01*
X224780000Y-96060000D01*
X225190000Y-95810000D01*
X225840000Y-95570000D01*
X226440000Y-95530000D01*
X226450000Y-97660000D01*
G36*
X241320000Y-95620000D02*
G01*
X241920000Y-95900000D01*
X242340000Y-96320000D01*
X242650000Y-96970000D01*
X242750000Y-97480000D01*
X242760000Y-98370000D01*
X242760000Y-110660000D01*
X242600000Y-111350000D01*
X242190000Y-111990000D01*
X241470000Y-112450000D01*
X240200000Y-112570000D01*
X226030000Y-112540000D01*
X225520000Y-112460000D01*
X224950000Y-112160000D01*
X224570000Y-111780000D01*
X224330000Y-111380000D01*
X224200000Y-111020000D01*
X224150000Y-110260000D01*
X224150000Y-105680000D01*
X224140000Y-97550000D01*
X225650000Y-97640000D01*
X225650000Y-110450000D01*
X226440000Y-110450000D01*
X226450000Y-111040000D01*
X240440000Y-111040000D01*
X240450000Y-110450000D01*
X241260000Y-110440000D01*
X241250000Y-97660000D01*
X240450000Y-97650000D01*
X240450000Y-97060000D01*
X226440000Y-97060000D01*
X226440000Y-95540000D01*
X240790000Y-95530000D01*
X241320000Y-95620000D01*
G37*
X241320000Y-95620000D02*
X241920000Y-95900000D01*
X242340000Y-96320000D01*
X242650000Y-96970000D01*
X242750000Y-97480000D01*
X242760000Y-98370000D01*
X242760000Y-110660000D01*
X242600000Y-111350000D01*
X242190000Y-111990000D01*
X241470000Y-112450000D01*
X240200000Y-112570000D01*
X226030000Y-112540000D01*
X225520000Y-112460000D01*
X224950000Y-112160000D01*
X224570000Y-111780000D01*
X224330000Y-111380000D01*
X224200000Y-111020000D01*
X224150000Y-110260000D01*
X224150000Y-105680000D01*
X224140000Y-97550000D01*
X225650000Y-97640000D01*
X225650000Y-110450000D01*
X226440000Y-110450000D01*
X226450000Y-111040000D01*
X240440000Y-111040000D01*
X240450000Y-110450000D01*
X241260000Y-110440000D01*
X241250000Y-97660000D01*
X240450000Y-97650000D01*
X240450000Y-97060000D01*
X226440000Y-97060000D01*
X226440000Y-95540000D01*
X240790000Y-95530000D01*
X241320000Y-95620000D01*
G36*
X231200000Y-116710000D02*
G01*
X228880000Y-116690000D01*
X228950000Y-116100000D01*
X229250000Y-115460000D01*
X229530000Y-115110000D01*
X229940000Y-114860000D01*
X230590000Y-114620000D01*
X231190000Y-114580000D01*
X231200000Y-116710000D01*
G37*
X231200000Y-116710000D02*
X228880000Y-116690000D01*
X228950000Y-116100000D01*
X229250000Y-115460000D01*
X229530000Y-115110000D01*
X229940000Y-114860000D01*
X230590000Y-114620000D01*
X231190000Y-114580000D01*
X231200000Y-116710000D01*
G36*
X246070000Y-114670000D02*
G01*
X246670000Y-114950000D01*
X247090000Y-115370000D01*
X247400000Y-116020000D01*
X247500000Y-116530000D01*
X247510000Y-117420000D01*
X247510000Y-129710000D01*
X247350000Y-130400000D01*
X246940000Y-131040000D01*
X246220000Y-131500000D01*
X244950000Y-131620000D01*
X230780000Y-131590000D01*
X230270000Y-131510000D01*
X229700000Y-131210000D01*
X229320000Y-130830000D01*
X229080000Y-130430000D01*
X228950000Y-130070000D01*
X228900000Y-129310000D01*
X228900000Y-124730000D01*
X228890000Y-116600000D01*
X230400000Y-116690000D01*
X230400000Y-129500000D01*
X231190000Y-129500000D01*
X231200000Y-130090000D01*
X245190000Y-130090000D01*
X245200000Y-129500000D01*
X246010000Y-129490000D01*
X246000000Y-116710000D01*
X245200000Y-116700000D01*
X245200000Y-116110000D01*
X231190000Y-116110000D01*
X231190000Y-114590000D01*
X245540000Y-114580000D01*
X246070000Y-114670000D01*
G37*
X246070000Y-114670000D02*
X246670000Y-114950000D01*
X247090000Y-115370000D01*
X247400000Y-116020000D01*
X247500000Y-116530000D01*
X247510000Y-117420000D01*
X247510000Y-129710000D01*
X247350000Y-130400000D01*
X246940000Y-131040000D01*
X246220000Y-131500000D01*
X244950000Y-131620000D01*
X230780000Y-131590000D01*
X230270000Y-131510000D01*
X229700000Y-131210000D01*
X229320000Y-130830000D01*
X229080000Y-130430000D01*
X228950000Y-130070000D01*
X228900000Y-129310000D01*
X228900000Y-124730000D01*
X228890000Y-116600000D01*
X230400000Y-116690000D01*
X230400000Y-129500000D01*
X231190000Y-129500000D01*
X231200000Y-130090000D01*
X245190000Y-130090000D01*
X245200000Y-129500000D01*
X246010000Y-129490000D01*
X246000000Y-116710000D01*
X245200000Y-116700000D01*
X245200000Y-116110000D01*
X231190000Y-116110000D01*
X231190000Y-114590000D01*
X245540000Y-114580000D01*
X246070000Y-114670000D01*
G36*
X150250000Y-78610000D02*
G01*
X147930000Y-78590000D01*
X148000000Y-78000000D01*
X148300000Y-77360000D01*
X148580000Y-77010000D01*
X148990000Y-76760000D01*
X149640000Y-76520000D01*
X150240000Y-76480000D01*
X150250000Y-78610000D01*
G37*
X150250000Y-78610000D02*
X147930000Y-78590000D01*
X148000000Y-78000000D01*
X148300000Y-77360000D01*
X148580000Y-77010000D01*
X148990000Y-76760000D01*
X149640000Y-76520000D01*
X150240000Y-76480000D01*
X150250000Y-78610000D01*
G36*
X165120000Y-76570000D02*
G01*
X165720000Y-76850000D01*
X166140000Y-77270000D01*
X166450000Y-77920000D01*
X166550000Y-78430000D01*
X166560000Y-79320000D01*
X166560000Y-91610000D01*
X166400000Y-92300000D01*
X165990000Y-92940000D01*
X165270000Y-93400000D01*
X164000000Y-93520000D01*
X149830000Y-93490000D01*
X149320000Y-93410000D01*
X148750000Y-93110000D01*
X148370000Y-92730000D01*
X148130000Y-92330000D01*
X148000000Y-91970000D01*
X147950000Y-91210000D01*
X147950000Y-86630000D01*
X147940000Y-78500000D01*
X149450000Y-78590000D01*
X149450000Y-91400000D01*
X150240000Y-91400000D01*
X150250000Y-91990000D01*
X164240000Y-91990000D01*
X164250000Y-91400000D01*
X165060000Y-91390000D01*
X165050000Y-78610000D01*
X164250000Y-78600000D01*
X164250000Y-78010000D01*
X150240000Y-78010000D01*
X150240000Y-76490000D01*
X164590000Y-76480000D01*
X165120000Y-76570000D01*
G37*
X165120000Y-76570000D02*
X165720000Y-76850000D01*
X166140000Y-77270000D01*
X166450000Y-77920000D01*
X166550000Y-78430000D01*
X166560000Y-79320000D01*
X166560000Y-91610000D01*
X166400000Y-92300000D01*
X165990000Y-92940000D01*
X165270000Y-93400000D01*
X164000000Y-93520000D01*
X149830000Y-93490000D01*
X149320000Y-93410000D01*
X148750000Y-93110000D01*
X148370000Y-92730000D01*
X148130000Y-92330000D01*
X148000000Y-91970000D01*
X147950000Y-91210000D01*
X147950000Y-86630000D01*
X147940000Y-78500000D01*
X149450000Y-78590000D01*
X149450000Y-91400000D01*
X150240000Y-91400000D01*
X150250000Y-91990000D01*
X164240000Y-91990000D01*
X164250000Y-91400000D01*
X165060000Y-91390000D01*
X165050000Y-78610000D01*
X164250000Y-78600000D01*
X164250000Y-78010000D01*
X150240000Y-78010000D01*
X150240000Y-76490000D01*
X164590000Y-76480000D01*
X165120000Y-76570000D01*
G36*
X169300000Y-78610000D02*
G01*
X166980000Y-78590000D01*
X167050000Y-78000000D01*
X167350000Y-77360000D01*
X167630000Y-77010000D01*
X168040000Y-76760000D01*
X168690000Y-76520000D01*
X169290000Y-76480000D01*
X169300000Y-78610000D01*
G37*
X169300000Y-78610000D02*
X166980000Y-78590000D01*
X167050000Y-78000000D01*
X167350000Y-77360000D01*
X167630000Y-77010000D01*
X168040000Y-76760000D01*
X168690000Y-76520000D01*
X169290000Y-76480000D01*
X169300000Y-78610000D01*
G36*
X184170000Y-76570000D02*
G01*
X184770000Y-76850000D01*
X185190000Y-77270000D01*
X185500000Y-77920000D01*
X185600000Y-78430000D01*
X185610000Y-79320000D01*
X185610000Y-91610000D01*
X185450000Y-92300000D01*
X185040000Y-92940000D01*
X184320000Y-93400000D01*
X183050000Y-93520000D01*
X168880000Y-93490000D01*
X168370000Y-93410000D01*
X167800000Y-93110000D01*
X167420000Y-92730000D01*
X167180000Y-92330000D01*
X167050000Y-91970000D01*
X167000000Y-91210000D01*
X167000000Y-86630000D01*
X166990000Y-78500000D01*
X168500000Y-78590000D01*
X168500000Y-91400000D01*
X169290000Y-91400000D01*
X169300000Y-91990000D01*
X183290000Y-91990000D01*
X183300000Y-91400000D01*
X184110000Y-91390000D01*
X184100000Y-78610000D01*
X183300000Y-78600000D01*
X183300000Y-78010000D01*
X169290000Y-78010000D01*
X169290000Y-76490000D01*
X183640000Y-76480000D01*
X184170000Y-76570000D01*
G37*
X184170000Y-76570000D02*
X184770000Y-76850000D01*
X185190000Y-77270000D01*
X185500000Y-77920000D01*
X185600000Y-78430000D01*
X185610000Y-79320000D01*
X185610000Y-91610000D01*
X185450000Y-92300000D01*
X185040000Y-92940000D01*
X184320000Y-93400000D01*
X183050000Y-93520000D01*
X168880000Y-93490000D01*
X168370000Y-93410000D01*
X167800000Y-93110000D01*
X167420000Y-92730000D01*
X167180000Y-92330000D01*
X167050000Y-91970000D01*
X167000000Y-91210000D01*
X167000000Y-86630000D01*
X166990000Y-78500000D01*
X168500000Y-78590000D01*
X168500000Y-91400000D01*
X169290000Y-91400000D01*
X169300000Y-91990000D01*
X183290000Y-91990000D01*
X183300000Y-91400000D01*
X184110000Y-91390000D01*
X184100000Y-78610000D01*
X183300000Y-78600000D01*
X183300000Y-78010000D01*
X169290000Y-78010000D01*
X169290000Y-76490000D01*
X183640000Y-76480000D01*
X184170000Y-76570000D01*
G36*
X188350000Y-78660000D02*
G01*
X186030000Y-78640000D01*
X186100000Y-78050000D01*
X186400000Y-77410000D01*
X186680000Y-77060000D01*
X187090000Y-76810000D01*
X187740000Y-76570000D01*
X188340000Y-76530000D01*
X188350000Y-78660000D01*
G37*
X188350000Y-78660000D02*
X186030000Y-78640000D01*
X186100000Y-78050000D01*
X186400000Y-77410000D01*
X186680000Y-77060000D01*
X187090000Y-76810000D01*
X187740000Y-76570000D01*
X188340000Y-76530000D01*
X188350000Y-78660000D01*
G36*
X203220000Y-76620000D02*
G01*
X203820000Y-76900000D01*
X204240000Y-77320000D01*
X204550000Y-77970000D01*
X204650000Y-78480000D01*
X204660000Y-79370000D01*
X204660000Y-91660000D01*
X204500000Y-92350000D01*
X204090000Y-92990000D01*
X203370000Y-93450000D01*
X202100000Y-93570000D01*
X187930000Y-93540000D01*
X187420000Y-93460000D01*
X186850000Y-93160000D01*
X186470000Y-92780000D01*
X186230000Y-92380000D01*
X186100000Y-92020000D01*
X186050000Y-91260000D01*
X186050000Y-86680000D01*
X186040000Y-78550000D01*
X187550000Y-78640000D01*
X187550000Y-91450000D01*
X188340000Y-91450000D01*
X188350000Y-92040000D01*
X202340000Y-92040000D01*
X202350000Y-91450000D01*
X203160000Y-91440000D01*
X203150000Y-78660000D01*
X202350000Y-78650000D01*
X202350000Y-78060000D01*
X188340000Y-78060000D01*
X188340000Y-76540000D01*
X202690000Y-76530000D01*
X203220000Y-76620000D01*
G37*
X203220000Y-76620000D02*
X203820000Y-76900000D01*
X204240000Y-77320000D01*
X204550000Y-77970000D01*
X204650000Y-78480000D01*
X204660000Y-79370000D01*
X204660000Y-91660000D01*
X204500000Y-92350000D01*
X204090000Y-92990000D01*
X203370000Y-93450000D01*
X202100000Y-93570000D01*
X187930000Y-93540000D01*
X187420000Y-93460000D01*
X186850000Y-93160000D01*
X186470000Y-92780000D01*
X186230000Y-92380000D01*
X186100000Y-92020000D01*
X186050000Y-91260000D01*
X186050000Y-86680000D01*
X186040000Y-78550000D01*
X187550000Y-78640000D01*
X187550000Y-91450000D01*
X188340000Y-91450000D01*
X188350000Y-92040000D01*
X202340000Y-92040000D01*
X202350000Y-91450000D01*
X203160000Y-91440000D01*
X203150000Y-78660000D01*
X202350000Y-78650000D01*
X202350000Y-78060000D01*
X188340000Y-78060000D01*
X188340000Y-76540000D01*
X202690000Y-76530000D01*
X203220000Y-76620000D01*
G36*
X207350000Y-78610000D02*
G01*
X205030000Y-78590000D01*
X205100000Y-78000000D01*
X205400000Y-77360000D01*
X205680000Y-77010000D01*
X206090000Y-76760000D01*
X206740000Y-76520000D01*
X207340000Y-76480000D01*
X207350000Y-78610000D01*
G37*
X207350000Y-78610000D02*
X205030000Y-78590000D01*
X205100000Y-78000000D01*
X205400000Y-77360000D01*
X205680000Y-77010000D01*
X206090000Y-76760000D01*
X206740000Y-76520000D01*
X207340000Y-76480000D01*
X207350000Y-78610000D01*
G36*
X222220000Y-76570000D02*
G01*
X222820000Y-76850000D01*
X223240000Y-77270000D01*
X223550000Y-77920000D01*
X223650000Y-78430000D01*
X223660000Y-79320000D01*
X223660000Y-91610000D01*
X223500000Y-92300000D01*
X223090000Y-92940000D01*
X222370000Y-93400000D01*
X221100000Y-93520000D01*
X206930000Y-93490000D01*
X206420000Y-93410000D01*
X205850000Y-93110000D01*
X205470000Y-92730000D01*
X205230000Y-92330000D01*
X205100000Y-91970000D01*
X205050000Y-91210000D01*
X205050000Y-86630000D01*
X205040000Y-78500000D01*
X206550000Y-78590000D01*
X206550000Y-91400000D01*
X207340000Y-91400000D01*
X207350000Y-91990000D01*
X221340000Y-91990000D01*
X221350000Y-91400000D01*
X222160000Y-91390000D01*
X222150000Y-78610000D01*
X221350000Y-78600000D01*
X221350000Y-78010000D01*
X207340000Y-78010000D01*
X207340000Y-76490000D01*
X221690000Y-76480000D01*
X222220000Y-76570000D01*
G37*
X222220000Y-76570000D02*
X222820000Y-76850000D01*
X223240000Y-77270000D01*
X223550000Y-77920000D01*
X223650000Y-78430000D01*
X223660000Y-79320000D01*
X223660000Y-91610000D01*
X223500000Y-92300000D01*
X223090000Y-92940000D01*
X222370000Y-93400000D01*
X221100000Y-93520000D01*
X206930000Y-93490000D01*
X206420000Y-93410000D01*
X205850000Y-93110000D01*
X205470000Y-92730000D01*
X205230000Y-92330000D01*
X205100000Y-91970000D01*
X205050000Y-91210000D01*
X205050000Y-86630000D01*
X205040000Y-78500000D01*
X206550000Y-78590000D01*
X206550000Y-91400000D01*
X207340000Y-91400000D01*
X207350000Y-91990000D01*
X221340000Y-91990000D01*
X221350000Y-91400000D01*
X222160000Y-91390000D01*
X222150000Y-78610000D01*
X221350000Y-78600000D01*
X221350000Y-78010000D01*
X207340000Y-78010000D01*
X207340000Y-76490000D01*
X221690000Y-76480000D01*
X222220000Y-76570000D01*
G36*
X226450000Y-78610000D02*
G01*
X224130000Y-78590000D01*
X224200000Y-78000000D01*
X224500000Y-77360000D01*
X224780000Y-77010000D01*
X225190000Y-76760000D01*
X225840000Y-76520000D01*
X226440000Y-76480000D01*
X226450000Y-78610000D01*
G37*
X226450000Y-78610000D02*
X224130000Y-78590000D01*
X224200000Y-78000000D01*
X224500000Y-77360000D01*
X224780000Y-77010000D01*
X225190000Y-76760000D01*
X225840000Y-76520000D01*
X226440000Y-76480000D01*
X226450000Y-78610000D01*
G36*
X241320000Y-76570000D02*
G01*
X241920000Y-76850000D01*
X242340000Y-77270000D01*
X242650000Y-77920000D01*
X242750000Y-78430000D01*
X242760000Y-79320000D01*
X242760000Y-91610000D01*
X242600000Y-92300000D01*
X242190000Y-92940000D01*
X241470000Y-93400000D01*
X240200000Y-93520000D01*
X226030000Y-93490000D01*
X225520000Y-93410000D01*
X224950000Y-93110000D01*
X224570000Y-92730000D01*
X224330000Y-92330000D01*
X224200000Y-91970000D01*
X224150000Y-91210000D01*
X224150000Y-86630000D01*
X224140000Y-78500000D01*
X225650000Y-78590000D01*
X225650000Y-91400000D01*
X226440000Y-91400000D01*
X226450000Y-91990000D01*
X240440000Y-91990000D01*
X240450000Y-91400000D01*
X241260000Y-91390000D01*
X241250000Y-78610000D01*
X240450000Y-78600000D01*
X240450000Y-78010000D01*
X226440000Y-78010000D01*
X226440000Y-76490000D01*
X240790000Y-76480000D01*
X241320000Y-76570000D01*
G37*
X241320000Y-76570000D02*
X241920000Y-76850000D01*
X242340000Y-77270000D01*
X242650000Y-77920000D01*
X242750000Y-78430000D01*
X242760000Y-79320000D01*
X242760000Y-91610000D01*
X242600000Y-92300000D01*
X242190000Y-92940000D01*
X241470000Y-93400000D01*
X240200000Y-93520000D01*
X226030000Y-93490000D01*
X225520000Y-93410000D01*
X224950000Y-93110000D01*
X224570000Y-92730000D01*
X224330000Y-92330000D01*
X224200000Y-91970000D01*
X224150000Y-91210000D01*
X224150000Y-86630000D01*
X224140000Y-78500000D01*
X225650000Y-78590000D01*
X225650000Y-91400000D01*
X226440000Y-91400000D01*
X226450000Y-91990000D01*
X240440000Y-91990000D01*
X240450000Y-91400000D01*
X241260000Y-91390000D01*
X241250000Y-78610000D01*
X240450000Y-78600000D01*
X240450000Y-78010000D01*
X226440000Y-78010000D01*
X226440000Y-76490000D01*
X240790000Y-76480000D01*
X241320000Y-76570000D01*
G36*
X226450000Y-59560000D02*
G01*
X224130000Y-59540000D01*
X224200000Y-58950000D01*
X224500000Y-58310000D01*
X224780000Y-57960000D01*
X225190000Y-57710000D01*
X225840000Y-57470000D01*
X226440000Y-57430000D01*
X226450000Y-59560000D01*
G37*
X226450000Y-59560000D02*
X224130000Y-59540000D01*
X224200000Y-58950000D01*
X224500000Y-58310000D01*
X224780000Y-57960000D01*
X225190000Y-57710000D01*
X225840000Y-57470000D01*
X226440000Y-57430000D01*
X226450000Y-59560000D01*
G36*
X241320000Y-57520000D02*
G01*
X241920000Y-57800000D01*
X242340000Y-58220000D01*
X242650000Y-58870000D01*
X242750000Y-59380000D01*
X242760000Y-60270000D01*
X242760000Y-72560000D01*
X242600000Y-73250000D01*
X242190000Y-73890000D01*
X241470000Y-74350000D01*
X240200000Y-74470000D01*
X226030000Y-74440000D01*
X225520000Y-74360000D01*
X224950000Y-74060000D01*
X224570000Y-73680000D01*
X224330000Y-73280000D01*
X224200000Y-72920000D01*
X224150000Y-72160000D01*
X224150000Y-67580000D01*
X224140000Y-59450000D01*
X225650000Y-59540000D01*
X225650000Y-72350000D01*
X226440000Y-72350000D01*
X226450000Y-72940000D01*
X240440000Y-72940000D01*
X240450000Y-72350000D01*
X241260000Y-72340000D01*
X241250000Y-59560000D01*
X240450000Y-59550000D01*
X240450000Y-58960000D01*
X226440000Y-58960000D01*
X226440000Y-57440000D01*
X240790000Y-57430000D01*
X241320000Y-57520000D01*
G37*
X241320000Y-57520000D02*
X241920000Y-57800000D01*
X242340000Y-58220000D01*
X242650000Y-58870000D01*
X242750000Y-59380000D01*
X242760000Y-60270000D01*
X242760000Y-72560000D01*
X242600000Y-73250000D01*
X242190000Y-73890000D01*
X241470000Y-74350000D01*
X240200000Y-74470000D01*
X226030000Y-74440000D01*
X225520000Y-74360000D01*
X224950000Y-74060000D01*
X224570000Y-73680000D01*
X224330000Y-73280000D01*
X224200000Y-72920000D01*
X224150000Y-72160000D01*
X224150000Y-67580000D01*
X224140000Y-59450000D01*
X225650000Y-59540000D01*
X225650000Y-72350000D01*
X226440000Y-72350000D01*
X226450000Y-72940000D01*
X240440000Y-72940000D01*
X240450000Y-72350000D01*
X241260000Y-72340000D01*
X241250000Y-59560000D01*
X240450000Y-59550000D01*
X240450000Y-58960000D01*
X226440000Y-58960000D01*
X226440000Y-57440000D01*
X240790000Y-57430000D01*
X241320000Y-57520000D01*
G36*
X207400000Y-59610000D02*
G01*
X205080000Y-59590000D01*
X205150000Y-59000000D01*
X205450000Y-58360000D01*
X205730000Y-58010000D01*
X206140000Y-57760000D01*
X206790000Y-57520000D01*
X207390000Y-57480000D01*
X207400000Y-59610000D01*
G37*
X207400000Y-59610000D02*
X205080000Y-59590000D01*
X205150000Y-59000000D01*
X205450000Y-58360000D01*
X205730000Y-58010000D01*
X206140000Y-57760000D01*
X206790000Y-57520000D01*
X207390000Y-57480000D01*
X207400000Y-59610000D01*
G36*
X222270000Y-57570000D02*
G01*
X222870000Y-57850000D01*
X223290000Y-58270000D01*
X223600000Y-58920000D01*
X223700000Y-59430000D01*
X223710000Y-60320000D01*
X223710000Y-72610000D01*
X223550000Y-73300000D01*
X223140000Y-73940000D01*
X222420000Y-74400000D01*
X221150000Y-74520000D01*
X206980000Y-74490000D01*
X206470000Y-74410000D01*
X205900000Y-74110000D01*
X205520000Y-73730000D01*
X205280000Y-73330000D01*
X205150000Y-72970000D01*
X205100000Y-72210000D01*
X205100000Y-67630000D01*
X205090000Y-59500000D01*
X206600000Y-59590000D01*
X206600000Y-72400000D01*
X207390000Y-72400000D01*
X207400000Y-72990000D01*
X221390000Y-72990000D01*
X221400000Y-72400000D01*
X222210000Y-72390000D01*
X222200000Y-59610000D01*
X221400000Y-59600000D01*
X221400000Y-59010000D01*
X207390000Y-59010000D01*
X207390000Y-57490000D01*
X221740000Y-57480000D01*
X222270000Y-57570000D01*
G37*
X222270000Y-57570000D02*
X222870000Y-57850000D01*
X223290000Y-58270000D01*
X223600000Y-58920000D01*
X223700000Y-59430000D01*
X223710000Y-60320000D01*
X223710000Y-72610000D01*
X223550000Y-73300000D01*
X223140000Y-73940000D01*
X222420000Y-74400000D01*
X221150000Y-74520000D01*
X206980000Y-74490000D01*
X206470000Y-74410000D01*
X205900000Y-74110000D01*
X205520000Y-73730000D01*
X205280000Y-73330000D01*
X205150000Y-72970000D01*
X205100000Y-72210000D01*
X205100000Y-67630000D01*
X205090000Y-59500000D01*
X206600000Y-59590000D01*
X206600000Y-72400000D01*
X207390000Y-72400000D01*
X207400000Y-72990000D01*
X221390000Y-72990000D01*
X221400000Y-72400000D01*
X222210000Y-72390000D01*
X222200000Y-59610000D01*
X221400000Y-59600000D01*
X221400000Y-59010000D01*
X207390000Y-59010000D01*
X207390000Y-57490000D01*
X221740000Y-57480000D01*
X222270000Y-57570000D01*
G36*
X188350000Y-59610000D02*
G01*
X186030000Y-59590000D01*
X186100000Y-59000000D01*
X186400000Y-58360000D01*
X186680000Y-58010000D01*
X187090000Y-57760000D01*
X187740000Y-57520000D01*
X188340000Y-57480000D01*
X188350000Y-59610000D01*
G37*
X188350000Y-59610000D02*
X186030000Y-59590000D01*
X186100000Y-59000000D01*
X186400000Y-58360000D01*
X186680000Y-58010000D01*
X187090000Y-57760000D01*
X187740000Y-57520000D01*
X188340000Y-57480000D01*
X188350000Y-59610000D01*
G36*
X203220000Y-57570000D02*
G01*
X203820000Y-57850000D01*
X204240000Y-58270000D01*
X204550000Y-58920000D01*
X204650000Y-59430000D01*
X204660000Y-60320000D01*
X204660000Y-72610000D01*
X204500000Y-73300000D01*
X204090000Y-73940000D01*
X203370000Y-74400000D01*
X202100000Y-74520000D01*
X187930000Y-74490000D01*
X187420000Y-74410000D01*
X186850000Y-74110000D01*
X186470000Y-73730000D01*
X186230000Y-73330000D01*
X186100000Y-72970000D01*
X186050000Y-72210000D01*
X186050000Y-67630000D01*
X186040000Y-59500000D01*
X187550000Y-59590000D01*
X187550000Y-72400000D01*
X188340000Y-72400000D01*
X188350000Y-72990000D01*
X202340000Y-72990000D01*
X202350000Y-72400000D01*
X203160000Y-72390000D01*
X203150000Y-59610000D01*
X202350000Y-59600000D01*
X202350000Y-59010000D01*
X188340000Y-59010000D01*
X188340000Y-57490000D01*
X202690000Y-57480000D01*
X203220000Y-57570000D01*
G37*
X203220000Y-57570000D02*
X203820000Y-57850000D01*
X204240000Y-58270000D01*
X204550000Y-58920000D01*
X204650000Y-59430000D01*
X204660000Y-60320000D01*
X204660000Y-72610000D01*
X204500000Y-73300000D01*
X204090000Y-73940000D01*
X203370000Y-74400000D01*
X202100000Y-74520000D01*
X187930000Y-74490000D01*
X187420000Y-74410000D01*
X186850000Y-74110000D01*
X186470000Y-73730000D01*
X186230000Y-73330000D01*
X186100000Y-72970000D01*
X186050000Y-72210000D01*
X186050000Y-67630000D01*
X186040000Y-59500000D01*
X187550000Y-59590000D01*
X187550000Y-72400000D01*
X188340000Y-72400000D01*
X188350000Y-72990000D01*
X202340000Y-72990000D01*
X202350000Y-72400000D01*
X203160000Y-72390000D01*
X203150000Y-59610000D01*
X202350000Y-59600000D01*
X202350000Y-59010000D01*
X188340000Y-59010000D01*
X188340000Y-57490000D01*
X202690000Y-57480000D01*
X203220000Y-57570000D01*
G36*
X169300000Y-59610000D02*
G01*
X166980000Y-59590000D01*
X167050000Y-59000000D01*
X167350000Y-58360000D01*
X167630000Y-58010000D01*
X168040000Y-57760000D01*
X168690000Y-57520000D01*
X169290000Y-57480000D01*
X169300000Y-59610000D01*
G37*
X169300000Y-59610000D02*
X166980000Y-59590000D01*
X167050000Y-59000000D01*
X167350000Y-58360000D01*
X167630000Y-58010000D01*
X168040000Y-57760000D01*
X168690000Y-57520000D01*
X169290000Y-57480000D01*
X169300000Y-59610000D01*
G36*
X184170000Y-57570000D02*
G01*
X184770000Y-57850000D01*
X185190000Y-58270000D01*
X185500000Y-58920000D01*
X185600000Y-59430000D01*
X185610000Y-60320000D01*
X185610000Y-72610000D01*
X185450000Y-73300000D01*
X185040000Y-73940000D01*
X184320000Y-74400000D01*
X183050000Y-74520000D01*
X168880000Y-74490000D01*
X168370000Y-74410000D01*
X167800000Y-74110000D01*
X167420000Y-73730000D01*
X167180000Y-73330000D01*
X167050000Y-72970000D01*
X167000000Y-72210000D01*
X167000000Y-67630000D01*
X166990000Y-59500000D01*
X168500000Y-59590000D01*
X168500000Y-72400000D01*
X169290000Y-72400000D01*
X169300000Y-72990000D01*
X183290000Y-72990000D01*
X183300000Y-72400000D01*
X184110000Y-72390000D01*
X184100000Y-59610000D01*
X183300000Y-59600000D01*
X183300000Y-59010000D01*
X169290000Y-59010000D01*
X169290000Y-57490000D01*
X183640000Y-57480000D01*
X184170000Y-57570000D01*
G37*
X184170000Y-57570000D02*
X184770000Y-57850000D01*
X185190000Y-58270000D01*
X185500000Y-58920000D01*
X185600000Y-59430000D01*
X185610000Y-60320000D01*
X185610000Y-72610000D01*
X185450000Y-73300000D01*
X185040000Y-73940000D01*
X184320000Y-74400000D01*
X183050000Y-74520000D01*
X168880000Y-74490000D01*
X168370000Y-74410000D01*
X167800000Y-74110000D01*
X167420000Y-73730000D01*
X167180000Y-73330000D01*
X167050000Y-72970000D01*
X167000000Y-72210000D01*
X167000000Y-67630000D01*
X166990000Y-59500000D01*
X168500000Y-59590000D01*
X168500000Y-72400000D01*
X169290000Y-72400000D01*
X169300000Y-72990000D01*
X183290000Y-72990000D01*
X183300000Y-72400000D01*
X184110000Y-72390000D01*
X184100000Y-59610000D01*
X183300000Y-59600000D01*
X183300000Y-59010000D01*
X169290000Y-59010000D01*
X169290000Y-57490000D01*
X183640000Y-57480000D01*
X184170000Y-57570000D01*
G36*
X150250000Y-59560000D02*
G01*
X147930000Y-59540000D01*
X148000000Y-58950000D01*
X148300000Y-58310000D01*
X148580000Y-57960000D01*
X148990000Y-57710000D01*
X149640000Y-57470000D01*
X150240000Y-57430000D01*
X150250000Y-59560000D01*
G37*
X150250000Y-59560000D02*
X147930000Y-59540000D01*
X148000000Y-58950000D01*
X148300000Y-58310000D01*
X148580000Y-57960000D01*
X148990000Y-57710000D01*
X149640000Y-57470000D01*
X150240000Y-57430000D01*
X150250000Y-59560000D01*
G36*
X165120000Y-57520000D02*
G01*
X165720000Y-57800000D01*
X166140000Y-58220000D01*
X166450000Y-58870000D01*
X166550000Y-59380000D01*
X166560000Y-60270000D01*
X166560000Y-72560000D01*
X166400000Y-73250000D01*
X165990000Y-73890000D01*
X165270000Y-74350000D01*
X164000000Y-74470000D01*
X149830000Y-74440000D01*
X149320000Y-74360000D01*
X148750000Y-74060000D01*
X148370000Y-73680000D01*
X148130000Y-73280000D01*
X148000000Y-72920000D01*
X147950000Y-72160000D01*
X147950000Y-67580000D01*
X147940000Y-59450000D01*
X149450000Y-59540000D01*
X149450000Y-72350000D01*
X150240000Y-72350000D01*
X150250000Y-72940000D01*
X164240000Y-72940000D01*
X164250000Y-72350000D01*
X165060000Y-72340000D01*
X165050000Y-59560000D01*
X164250000Y-59550000D01*
X164250000Y-58960000D01*
X150240000Y-58960000D01*
X150240000Y-57440000D01*
X164590000Y-57430000D01*
X165120000Y-57520000D01*
G37*
X165120000Y-57520000D02*
X165720000Y-57800000D01*
X166140000Y-58220000D01*
X166450000Y-58870000D01*
X166550000Y-59380000D01*
X166560000Y-60270000D01*
X166560000Y-72560000D01*
X166400000Y-73250000D01*
X165990000Y-73890000D01*
X165270000Y-74350000D01*
X164000000Y-74470000D01*
X149830000Y-74440000D01*
X149320000Y-74360000D01*
X148750000Y-74060000D01*
X148370000Y-73680000D01*
X148130000Y-73280000D01*
X148000000Y-72920000D01*
X147950000Y-72160000D01*
X147950000Y-67580000D01*
X147940000Y-59450000D01*
X149450000Y-59540000D01*
X149450000Y-72350000D01*
X150240000Y-72350000D01*
X150250000Y-72940000D01*
X164240000Y-72940000D01*
X164250000Y-72350000D01*
X165060000Y-72340000D01*
X165050000Y-59560000D01*
X164250000Y-59550000D01*
X164250000Y-58960000D01*
X150240000Y-58960000D01*
X150240000Y-57440000D01*
X164590000Y-57430000D01*
X165120000Y-57520000D01*
D11*
X225450000Y-135100000D03*
D12*
X227100000Y-135100000D03*
X226616726Y-136266726D03*
X225450000Y-136750000D03*
X224283274Y-136266726D03*
X223800000Y-135100000D03*
X224283274Y-133933274D03*
X225450000Y-133450000D03*
X226616726Y-133933274D03*
D11*
X251050000Y-135100000D03*
D12*
X252700000Y-135100000D03*
X252216726Y-136266726D03*
X251050000Y-136750000D03*
X249883274Y-136266726D03*
X249400000Y-135100000D03*
X249883274Y-133933274D03*
X251050000Y-133450000D03*
X252216726Y-133933274D03*
D11*
X144500000Y-120800000D03*
D12*
X146150000Y-120800000D03*
X145666726Y-121966726D03*
X144500000Y-122450000D03*
X143333274Y-121966726D03*
X142850000Y-120800000D03*
X143333274Y-119633274D03*
X144500000Y-119150000D03*
X145666726Y-119633274D03*
D11*
X246231830Y-53950000D03*
D12*
X247881830Y-53950000D03*
X247398556Y-55116726D03*
X246231830Y-55600000D03*
X245065104Y-55116726D03*
X244581830Y-53950000D03*
X245065104Y-52783274D03*
X246231830Y-52300000D03*
X247398556Y-52783274D03*
X145666726Y-52783274D03*
X144500000Y-52300000D03*
X143333274Y-52783274D03*
X142850000Y-53950000D03*
X143333274Y-55116726D03*
X144500000Y-55600000D03*
X145666726Y-55116726D03*
X146150000Y-53950000D03*
D11*
X144500000Y-53950000D03*
M02*
