%FSLAX45Y45*%
G04 Gerber Fmt 4.5, Leading zero omitted, Abs format (unit mm)*
G04 Created by KiCad (PCBNEW (5.1.9)-1) date 2021-01-20 18:14:50*
%MOMM*%
%LPD*%
G01*
G04 APERTURE LIST*
%TA.AperFunction,Profile*%
%ADD10C,0.200000*%
%TD*%
%ADD11C,0.200000*%
%ADD12C,0.300000*%
G04 APERTURE END LIST*
D10*
X25261495Y-10742729D02*
G75*
G02*
X25020530Y-10375704I159036J367025D01*
G01*
X21742719Y-12482290D02*
G75*
G02*
X22142719Y-12882471I0J-400000D01*
G01*
X25261495Y-10742729D02*
G75*
G02*
X25502459Y-11109757I-159036J-367025D01*
G01*
X25502443Y-13508927D02*
G75*
G02*
X25102443Y-13908924I-400000J3D01*
G01*
X22542434Y-13908924D02*
G75*
G02*
X22142435Y-13508743I0J400000D01*
G01*
X22542435Y-13908924D02*
X25102443Y-13908924D01*
X22142719Y-12882471D02*
X22142435Y-13508743D01*
X14651817Y-12482290D02*
X21742719Y-12482290D01*
X14451817Y-12482290D02*
G75*
G02*
X14051817Y-12082290I0J400000D01*
G01*
X24620530Y-4996163D02*
G75*
G02*
X25020530Y-5396163I0J-400000D01*
G01*
X14051817Y-5396163D02*
G75*
G02*
X14451817Y-4996163I400000J0D01*
G01*
X25502459Y-11109757D02*
X25502443Y-13508927D01*
X25020530Y-5396163D02*
X25020530Y-10375704D01*
X14451817Y-4996163D02*
X24620530Y-4996163D01*
X14051817Y-5396163D02*
X14051817Y-12082290D01*
X14651817Y-12482290D02*
X14451817Y-12482290D01*
X15026337Y-5894754D02*
X16426292Y-5894754D01*
X16426292Y-5954694D02*
X16426292Y-5894754D01*
X16506352Y-5954694D02*
X16426292Y-5954694D01*
X16506352Y-7234754D02*
X16506352Y-5954694D01*
X16426292Y-7234754D02*
X16506352Y-7234754D01*
X16426292Y-7294684D02*
X16426292Y-7234754D01*
X15026337Y-7294684D02*
X16426292Y-7294684D01*
X15026337Y-7234754D02*
X15026337Y-7294684D01*
X14946273Y-7234754D02*
X15026337Y-7234754D01*
X14946273Y-5954694D02*
X14946273Y-7234754D01*
X15026337Y-5954694D02*
X14946273Y-5954694D01*
X15026337Y-5894754D02*
X15026337Y-5954694D01*
X18331272Y-5894754D02*
X16931342Y-5894754D01*
X18331272Y-5954694D02*
X18331272Y-5894754D01*
X18411352Y-5954694D02*
X18331272Y-5954694D01*
X18411352Y-7234754D02*
X18411352Y-5954694D01*
X18331272Y-7234754D02*
X18411352Y-7234754D01*
X18331272Y-7294684D02*
X18331272Y-7234754D01*
X16931342Y-7294684D02*
X18331272Y-7294684D01*
X16931342Y-7234754D02*
X16931342Y-7294684D01*
X16851272Y-7234754D02*
X16931342Y-7234754D01*
X16851272Y-5954694D02*
X16851272Y-7234754D01*
X16931342Y-5954694D02*
X16851272Y-5954694D01*
X16931342Y-5894754D02*
X16931342Y-5954694D01*
X20236272Y-5894754D02*
X18836342Y-5894754D01*
X20236272Y-5954694D02*
X20236272Y-5894754D01*
X20316352Y-5954694D02*
X20236272Y-5954694D01*
X20316352Y-7234754D02*
X20316352Y-5954694D01*
X20236272Y-7234754D02*
X20316352Y-7234754D01*
X20236272Y-7294684D02*
X20236272Y-7234754D01*
X18836342Y-7294684D02*
X20236272Y-7294684D01*
X18836342Y-7234754D02*
X18836342Y-7294684D01*
X18756262Y-7234754D02*
X18836342Y-7234754D01*
X18756262Y-5954694D02*
X18756262Y-7234754D01*
X18836342Y-5954694D02*
X18756262Y-5954694D01*
X18836342Y-5894754D02*
X18836342Y-5954694D01*
X22141272Y-5894754D02*
X20741342Y-5894754D01*
X22141272Y-5954694D02*
X22141272Y-5894754D01*
X22221352Y-5954694D02*
X22141272Y-5954694D01*
X22221352Y-7234754D02*
X22221352Y-5954694D01*
X22141272Y-7234754D02*
X22221352Y-7234754D01*
X22141272Y-7294684D02*
X22141272Y-7234754D01*
X20741342Y-7294684D02*
X22141272Y-7294684D01*
X20741342Y-7234754D02*
X20741342Y-7294684D01*
X20661262Y-7234754D02*
X20741342Y-7234754D01*
X20661262Y-5954694D02*
X20661262Y-7234754D01*
X20741342Y-5954694D02*
X20661262Y-5954694D01*
X20741342Y-5894754D02*
X20741342Y-5954694D01*
X24046272Y-5894754D02*
X22646342Y-5894754D01*
X24046272Y-5954694D02*
X24046272Y-5894754D01*
X24126212Y-5954694D02*
X24046272Y-5954694D01*
X24126212Y-7234754D02*
X24126212Y-5954694D01*
X24046272Y-7234754D02*
X24126212Y-7234754D01*
X24046272Y-7294684D02*
X24046272Y-7234754D01*
X22646342Y-7294684D02*
X24046272Y-7294684D01*
X22646342Y-7234754D02*
X22646342Y-7294684D01*
X22566262Y-7234754D02*
X22646342Y-7234754D01*
X22566262Y-5954694D02*
X22566262Y-7234754D01*
X22646342Y-5954694D02*
X22566262Y-5954694D01*
X22646342Y-5894754D02*
X22646342Y-5954694D01*
X16426292Y-7799754D02*
X15026337Y-7799754D01*
X16426292Y-7859694D02*
X16426292Y-7799754D01*
X16506352Y-7859694D02*
X16426292Y-7859694D01*
X16506352Y-9139755D02*
X16506352Y-7859694D01*
X16426292Y-9139755D02*
X16506352Y-9139755D01*
X16426292Y-9199685D02*
X16426292Y-9139755D01*
X15026337Y-9199685D02*
X16426292Y-9199685D01*
X15026337Y-9139755D02*
X15026337Y-9199685D01*
X14946273Y-9139755D02*
X15026337Y-9139755D01*
X14946273Y-7859694D02*
X14946273Y-9139755D01*
X15026337Y-7859694D02*
X14946273Y-7859694D01*
X15026337Y-7799754D02*
X15026337Y-7859694D01*
X18331272Y-7799754D02*
X16931342Y-7799754D01*
X18331272Y-7859694D02*
X18331272Y-7799754D01*
X18411352Y-7859694D02*
X18331272Y-7859694D01*
X18411352Y-9139755D02*
X18411352Y-7859694D01*
X18331272Y-9139755D02*
X18411352Y-9139755D01*
X18331272Y-9199685D02*
X18331272Y-9139755D01*
X16931342Y-9199685D02*
X18331272Y-9199685D01*
X16931342Y-9139755D02*
X16931342Y-9199685D01*
X16851272Y-9139755D02*
X16931342Y-9139755D01*
X16851272Y-7859694D02*
X16851272Y-9139755D01*
X16931342Y-7859694D02*
X16851272Y-7859694D01*
X16931342Y-7799754D02*
X16931342Y-7859694D01*
X20236272Y-7799754D02*
X18836342Y-7799754D01*
X20236272Y-7859694D02*
X20236272Y-7799754D01*
X20316352Y-7859694D02*
X20236272Y-7859694D01*
X20316352Y-9139755D02*
X20316352Y-7859694D01*
X20236272Y-9139755D02*
X20316352Y-9139755D01*
X20236272Y-9199685D02*
X20236272Y-9139755D01*
X18836342Y-9199685D02*
X20236272Y-9199685D01*
X18836342Y-9139755D02*
X18836342Y-9199685D01*
X18756262Y-9139755D02*
X18836342Y-9139755D01*
X18756262Y-7859694D02*
X18756262Y-9139755D01*
X18836342Y-7859694D02*
X18756262Y-7859694D01*
X18836342Y-7799754D02*
X18836342Y-7859694D01*
X22141272Y-7799754D02*
X20741342Y-7799754D01*
X22141272Y-7859694D02*
X22141272Y-7799754D01*
X22221352Y-7859694D02*
X22141272Y-7859694D01*
X22221352Y-9139755D02*
X22221352Y-7859694D01*
X22141272Y-9139755D02*
X22221352Y-9139755D01*
X22141272Y-9199685D02*
X22141272Y-9139755D01*
X20741342Y-9199685D02*
X22141272Y-9199685D01*
X20741342Y-9139755D02*
X20741342Y-9199685D01*
X20661262Y-9139755D02*
X20741342Y-9139755D01*
X20661262Y-7859694D02*
X20661262Y-9139755D01*
X20741342Y-7859694D02*
X20661262Y-7859694D01*
X20741342Y-7799754D02*
X20741342Y-7859694D01*
X24046272Y-7799754D02*
X22646342Y-7799754D01*
X24046272Y-7859694D02*
X24046272Y-7799754D01*
X24126212Y-7859694D02*
X24046272Y-7859694D01*
X24126212Y-9139755D02*
X24126212Y-7859694D01*
X24046272Y-9139755D02*
X24126212Y-9139755D01*
X24046272Y-9199685D02*
X24046272Y-9139755D01*
X22646342Y-9199685D02*
X24046272Y-9199685D01*
X22646342Y-9139755D02*
X22646342Y-9199685D01*
X22566262Y-9139755D02*
X22646342Y-9139755D01*
X22566262Y-7859694D02*
X22566262Y-9139755D01*
X22646342Y-7859694D02*
X22566262Y-7859694D01*
X22646342Y-7799754D02*
X22646342Y-7859694D01*
X16426292Y-9704765D02*
X15026337Y-9704765D01*
X16426292Y-9764695D02*
X16426292Y-9704765D01*
X16506352Y-9764695D02*
X16426292Y-9764695D01*
X16506352Y-11044755D02*
X16506352Y-9764695D01*
X16426292Y-11044755D02*
X16506352Y-11044755D01*
X16426292Y-11104705D02*
X16426292Y-11044755D01*
X15026337Y-11104705D02*
X16426292Y-11104705D01*
X15026337Y-11044755D02*
X15026337Y-11104705D01*
X14946273Y-11044755D02*
X15026337Y-11044755D01*
X14946273Y-9764695D02*
X14946273Y-11044755D01*
X15026337Y-9764695D02*
X14946273Y-9764695D01*
X15026337Y-9704765D02*
X15026337Y-9764695D01*
X18331272Y-9704765D02*
X16931342Y-9704765D01*
X18331272Y-9764695D02*
X18331272Y-9704765D01*
X18411352Y-9764695D02*
X18331272Y-9764695D01*
X18411352Y-11044755D02*
X18411352Y-9764695D01*
X18331272Y-11044755D02*
X18411352Y-11044755D01*
X18331272Y-11104705D02*
X18331272Y-11044755D01*
X16931342Y-11104705D02*
X18331272Y-11104705D01*
X16931342Y-11044755D02*
X16931342Y-11104705D01*
X16851272Y-11044755D02*
X16931342Y-11044755D01*
X16851272Y-9764695D02*
X16851272Y-11044755D01*
X16931342Y-9764695D02*
X16851272Y-9764695D01*
X16931342Y-9704765D02*
X16931342Y-9764695D01*
X20236272Y-9704765D02*
X18836342Y-9704765D01*
X20236272Y-9764695D02*
X20236272Y-9704765D01*
X20316352Y-9764695D02*
X20236272Y-9764695D01*
X20316352Y-11044755D02*
X20316352Y-9764695D01*
X20236272Y-11044755D02*
X20316352Y-11044755D01*
X20236272Y-11104705D02*
X20236272Y-11044755D01*
X18836342Y-11104705D02*
X20236272Y-11104705D01*
X18836342Y-11044755D02*
X18836342Y-11104705D01*
X18756262Y-11044755D02*
X18836342Y-11044755D01*
X18756262Y-9764695D02*
X18756262Y-11044755D01*
X18836342Y-9764695D02*
X18756262Y-9764695D01*
X18836342Y-9704765D02*
X18836342Y-9764695D01*
X22141272Y-9704765D02*
X20741342Y-9704765D01*
X22141272Y-9764695D02*
X22141272Y-9704765D01*
X22221352Y-9764695D02*
X22141272Y-9764695D01*
X22221352Y-11044755D02*
X22221352Y-9764695D01*
X22141272Y-11044755D02*
X22221352Y-11044755D01*
X22141272Y-11104705D02*
X22141272Y-11044755D01*
X20741342Y-11104705D02*
X22141272Y-11104705D01*
X20741342Y-11044755D02*
X20741342Y-11104705D01*
X20661262Y-11044755D02*
X20741342Y-11044755D01*
X20661262Y-9764695D02*
X20661262Y-11044755D01*
X20741342Y-9764695D02*
X20661262Y-9764695D01*
X20741342Y-9704765D02*
X20741342Y-9764695D01*
X24046272Y-9704765D02*
X22646342Y-9704765D01*
X24046272Y-9764695D02*
X24046272Y-9704765D01*
X24126212Y-9764695D02*
X24046272Y-9764695D01*
X24126212Y-11044755D02*
X24126212Y-9764695D01*
X24046272Y-11044755D02*
X24126212Y-11044755D01*
X24046272Y-11104705D02*
X24046272Y-11044755D01*
X22646342Y-11104705D02*
X24046272Y-11104705D01*
X22646342Y-11044755D02*
X22646342Y-11104705D01*
X22566262Y-11044755D02*
X22646342Y-11044755D01*
X22566262Y-9764695D02*
X22566262Y-11044755D01*
X22646342Y-9764695D02*
X22566262Y-9764695D01*
X22646342Y-9704765D02*
X22646342Y-9764695D01*
X24522522Y-11609754D02*
X23122592Y-11609754D01*
X24522522Y-11669694D02*
X24522522Y-11609754D01*
X24602462Y-11669694D02*
X24522522Y-11669694D01*
X24602462Y-12949756D02*
X24602462Y-11669694D01*
X24522522Y-12949756D02*
X24602462Y-12949756D01*
X24522522Y-13009700D02*
X24522522Y-12949756D01*
X23122592Y-13009700D02*
X24522522Y-13009700D01*
X23122592Y-12949756D02*
X23122592Y-13009700D01*
X23042512Y-12949756D02*
X23122592Y-12949756D01*
X23042512Y-11669694D02*
X23042512Y-12949756D01*
X23122592Y-11669694D02*
X23042512Y-11669694D01*
X23122592Y-11609754D02*
X23122592Y-11669694D01*
D11*
D12*
X14328245Y-14384639D02*
X14328245Y-14084639D01*
X14399674Y-14084639D01*
X14442531Y-14098925D01*
X14471103Y-14127496D01*
X14485388Y-14156067D01*
X14499674Y-14213210D01*
X14499674Y-14256067D01*
X14485388Y-14313210D01*
X14471103Y-14341782D01*
X14442531Y-14370353D01*
X14399674Y-14384639D01*
X14328245Y-14384639D01*
X14628245Y-14384639D02*
X14628245Y-14184639D01*
X14628245Y-14241782D02*
X14642531Y-14213210D01*
X14656817Y-14198925D01*
X14685388Y-14184639D01*
X14713960Y-14184639D01*
X14813960Y-14384639D02*
X14813960Y-14184639D01*
X14813960Y-14084639D02*
X14799674Y-14098925D01*
X14813960Y-14113210D01*
X14828245Y-14098925D01*
X14813960Y-14084639D01*
X14813960Y-14113210D01*
X14999674Y-14384639D02*
X14971103Y-14370353D01*
X14956817Y-14341782D01*
X14956817Y-14084639D01*
X15156817Y-14384639D02*
X15128245Y-14370353D01*
X15113960Y-14341782D01*
X15113960Y-14084639D01*
X15499674Y-14384639D02*
X15499674Y-14084639D01*
X15599674Y-14298925D01*
X15699674Y-14084639D01*
X15699674Y-14384639D01*
X15971103Y-14384639D02*
X15971103Y-14227496D01*
X15956817Y-14198925D01*
X15928245Y-14184639D01*
X15871103Y-14184639D01*
X15842531Y-14198925D01*
X15971103Y-14370353D02*
X15942531Y-14384639D01*
X15871103Y-14384639D01*
X15842531Y-14370353D01*
X15828245Y-14341782D01*
X15828245Y-14313210D01*
X15842531Y-14284639D01*
X15871103Y-14270353D01*
X15942531Y-14270353D01*
X15971103Y-14256067D01*
X16113960Y-14184639D02*
X16113960Y-14484639D01*
X16113960Y-14198925D02*
X16142531Y-14184639D01*
X16199674Y-14184639D01*
X16228245Y-14198925D01*
X16242531Y-14213210D01*
X16256817Y-14241782D01*
X16256817Y-14327496D01*
X16242531Y-14356067D01*
X16228245Y-14370353D01*
X16199674Y-14384639D01*
X16142531Y-14384639D01*
X16113960Y-14370353D01*
X16385388Y-14356067D02*
X16399674Y-14370353D01*
X16385388Y-14384639D01*
X16371103Y-14370353D01*
X16385388Y-14356067D01*
X16385388Y-14384639D01*
X16385388Y-14198925D02*
X16399674Y-14213210D01*
X16385388Y-14227496D01*
X16371103Y-14213210D01*
X16385388Y-14198925D01*
X16385388Y-14227496D01*
M02*
