G04 #@! TF.GenerationSoftware,KiCad,Pcbnew,(5.1.4)-1*
G04 #@! TF.CreationDate,2020-11-18T14:35:40-05:00*
G04 #@! TF.ProjectId,Plate,506c6174-652e-46b6-9963-61645f706362,rev?*
G04 #@! TF.SameCoordinates,Original*
G04 #@! TF.FileFunction,Soldermask,Bot*
G04 #@! TF.FilePolarity,Negative*
%FSLAX46Y46*%
G04 Gerber Fmt 4.6, Leading zero omitted, Abs format (unit mm)*
G04 Created by KiCad (PCBNEW (5.1.4)-1) date 2020-11-18 14:35:40*
%MOMM*%
%LPD*%
G04 APERTURE LIST*
%ADD10C,0.100000*%
G04 APERTURE END LIST*
D10*
G36*
X247523000Y-131572000D02*
G01*
X228981000Y-131572000D01*
X228981000Y-114681000D01*
X247523000Y-114681000D01*
X247523000Y-131572000D01*
X247523000Y-131572000D01*
G37*
G36*
X242697000Y-112522000D02*
G01*
X224155000Y-112522000D01*
X224155000Y-95631000D01*
X242697000Y-95631000D01*
X242697000Y-112522000D01*
X242697000Y-112522000D01*
G37*
G36*
X166497000Y-112522000D02*
G01*
X147955000Y-112522000D01*
X147955000Y-95631000D01*
X166497000Y-95631000D01*
X166497000Y-112522000D01*
X166497000Y-112522000D01*
G37*
G36*
X185547000Y-112522000D02*
G01*
X167005000Y-112522000D01*
X167005000Y-95631000D01*
X185547000Y-95631000D01*
X185547000Y-112522000D01*
X185547000Y-112522000D01*
G37*
G36*
X204597000Y-112522000D02*
G01*
X186055000Y-112522000D01*
X186055000Y-95631000D01*
X204597000Y-95631000D01*
X204597000Y-112522000D01*
X204597000Y-112522000D01*
G37*
G36*
X223647000Y-112522000D02*
G01*
X205105000Y-112522000D01*
X205105000Y-95631000D01*
X223647000Y-95631000D01*
X223647000Y-112522000D01*
X223647000Y-112522000D01*
G37*
G36*
X185547000Y-93472000D02*
G01*
X167005000Y-93472000D01*
X167005000Y-76581000D01*
X185547000Y-76581000D01*
X185547000Y-93472000D01*
X185547000Y-93472000D01*
G37*
G36*
X166497000Y-93472000D02*
G01*
X147955000Y-93472000D01*
X147955000Y-76581000D01*
X166497000Y-76581000D01*
X166497000Y-93472000D01*
X166497000Y-93472000D01*
G37*
G36*
X204597000Y-93472000D02*
G01*
X186055000Y-93472000D01*
X186055000Y-76581000D01*
X204597000Y-76581000D01*
X204597000Y-93472000D01*
X204597000Y-93472000D01*
G37*
G36*
X223647000Y-93472000D02*
G01*
X205105000Y-93472000D01*
X205105000Y-76581000D01*
X223647000Y-76581000D01*
X223647000Y-93472000D01*
X223647000Y-93472000D01*
G37*
G36*
X242697000Y-93472000D02*
G01*
X224155000Y-93472000D01*
X224155000Y-76581000D01*
X242697000Y-76581000D01*
X242697000Y-93472000D01*
X242697000Y-93472000D01*
G37*
G36*
X166497000Y-74422000D02*
G01*
X147955000Y-74422000D01*
X147955000Y-57531000D01*
X166497000Y-57531000D01*
X166497000Y-74422000D01*
X166497000Y-74422000D01*
G37*
G36*
X185547000Y-74422000D02*
G01*
X167005000Y-74422000D01*
X167005000Y-57531000D01*
X185547000Y-57531000D01*
X185547000Y-74422000D01*
X185547000Y-74422000D01*
G37*
G36*
X204597000Y-74422000D02*
G01*
X186055000Y-74422000D01*
X186055000Y-57531000D01*
X204597000Y-57531000D01*
X204597000Y-74422000D01*
X204597000Y-74422000D01*
G37*
G36*
X223647000Y-74422000D02*
G01*
X205105000Y-74422000D01*
X205105000Y-57531000D01*
X223647000Y-57531000D01*
X223647000Y-74422000D01*
X223647000Y-74422000D01*
G37*
G36*
X242697000Y-74422000D02*
G01*
X224155000Y-74422000D01*
X224155000Y-57531000D01*
X242697000Y-57531000D01*
X242697000Y-74422000D01*
X242697000Y-74422000D01*
G37*
M02*
