G04 #@! TF.GenerationSoftware,KiCad,Pcbnew,(5.1.4)-1*
G04 #@! TF.CreationDate,2020-11-18T14:35:40-05:00*
G04 #@! TF.ProjectId,Plate,506c6174-652e-46b6-9963-61645f706362,rev?*
G04 #@! TF.SameCoordinates,Original*
G04 #@! TF.FileFunction,Copper,L1,Top*
G04 #@! TF.FilePolarity,Positive*
%FSLAX46Y46*%
G04 Gerber Fmt 4.6, Leading zero omitted, Abs format (unit mm)*
G04 Created by KiCad (PCBNEW (5.1.4)-1) date 2020-11-18 14:35:40*
%MOMM*%
%LPD*%
G04 APERTURE LIST*
%ADD10C,0.254000*%
G04 APERTURE END LIST*
D10*
G36*
X247396000Y-131445000D02*
G01*
X229108000Y-131445000D01*
X229108000Y-116696945D01*
X229686562Y-116696945D01*
X229690118Y-116733049D01*
X229690119Y-129461450D01*
X229686562Y-129497565D01*
X229700753Y-129641650D01*
X229742781Y-129780198D01*
X229811031Y-129907885D01*
X229902880Y-130019803D01*
X230014798Y-130111652D01*
X230142485Y-130179902D01*
X230281033Y-130221930D01*
X230389013Y-130232565D01*
X230425118Y-130236121D01*
X230461223Y-130232565D01*
X230500713Y-130232565D01*
X230501553Y-130241090D01*
X230543581Y-130379638D01*
X230611831Y-130507325D01*
X230703680Y-130619243D01*
X230815598Y-130711092D01*
X230943285Y-130779342D01*
X231081833Y-130821370D01*
X231189813Y-130832005D01*
X231225918Y-130835561D01*
X231262023Y-130832005D01*
X245189113Y-130832005D01*
X245225218Y-130835561D01*
X245261323Y-130832005D01*
X245369303Y-130821370D01*
X245507851Y-130779342D01*
X245635538Y-130711092D01*
X245747456Y-130619243D01*
X245839305Y-130507325D01*
X245907555Y-130379638D01*
X245949583Y-130241090D01*
X245950423Y-130232565D01*
X245988513Y-130232565D01*
X246024618Y-130236121D01*
X246060723Y-130232565D01*
X246168703Y-130221930D01*
X246307251Y-130179902D01*
X246434938Y-130111652D01*
X246546856Y-130019803D01*
X246638705Y-129907885D01*
X246706955Y-129780198D01*
X246748983Y-129641650D01*
X246763174Y-129497565D01*
X246759618Y-129461460D01*
X246759618Y-116733049D01*
X246763174Y-116696945D01*
X246748983Y-116552860D01*
X246706955Y-116414312D01*
X246638705Y-116286625D01*
X246546856Y-116174707D01*
X246434938Y-116082858D01*
X246307251Y-116014608D01*
X246168703Y-115972580D01*
X246060723Y-115961945D01*
X246024618Y-115958389D01*
X245988513Y-115961945D01*
X245950419Y-115961945D01*
X245949583Y-115953460D01*
X245907555Y-115814912D01*
X245839305Y-115687225D01*
X245747456Y-115575307D01*
X245635538Y-115483458D01*
X245507851Y-115415208D01*
X245369303Y-115373180D01*
X245261323Y-115362545D01*
X245225218Y-115358989D01*
X245189113Y-115362545D01*
X231262023Y-115362545D01*
X231225918Y-115358989D01*
X231189813Y-115362545D01*
X231081833Y-115373180D01*
X230943285Y-115415208D01*
X230815598Y-115483458D01*
X230703680Y-115575307D01*
X230611831Y-115687225D01*
X230543581Y-115814912D01*
X230501553Y-115953460D01*
X230500717Y-115961945D01*
X230461223Y-115961945D01*
X230425118Y-115958389D01*
X230389013Y-115961945D01*
X230281033Y-115972580D01*
X230142485Y-116014608D01*
X230014798Y-116082858D01*
X229902880Y-116174707D01*
X229811031Y-116286625D01*
X229742781Y-116414312D01*
X229700753Y-116552860D01*
X229686562Y-116696945D01*
X229108000Y-116696945D01*
X229108000Y-114808000D01*
X247396000Y-114808000D01*
X247396000Y-131445000D01*
X247396000Y-131445000D01*
G37*
X247396000Y-131445000D02*
X229108000Y-131445000D01*
X229108000Y-116696945D01*
X229686562Y-116696945D01*
X229690118Y-116733049D01*
X229690119Y-129461450D01*
X229686562Y-129497565D01*
X229700753Y-129641650D01*
X229742781Y-129780198D01*
X229811031Y-129907885D01*
X229902880Y-130019803D01*
X230014798Y-130111652D01*
X230142485Y-130179902D01*
X230281033Y-130221930D01*
X230389013Y-130232565D01*
X230425118Y-130236121D01*
X230461223Y-130232565D01*
X230500713Y-130232565D01*
X230501553Y-130241090D01*
X230543581Y-130379638D01*
X230611831Y-130507325D01*
X230703680Y-130619243D01*
X230815598Y-130711092D01*
X230943285Y-130779342D01*
X231081833Y-130821370D01*
X231189813Y-130832005D01*
X231225918Y-130835561D01*
X231262023Y-130832005D01*
X245189113Y-130832005D01*
X245225218Y-130835561D01*
X245261323Y-130832005D01*
X245369303Y-130821370D01*
X245507851Y-130779342D01*
X245635538Y-130711092D01*
X245747456Y-130619243D01*
X245839305Y-130507325D01*
X245907555Y-130379638D01*
X245949583Y-130241090D01*
X245950423Y-130232565D01*
X245988513Y-130232565D01*
X246024618Y-130236121D01*
X246060723Y-130232565D01*
X246168703Y-130221930D01*
X246307251Y-130179902D01*
X246434938Y-130111652D01*
X246546856Y-130019803D01*
X246638705Y-129907885D01*
X246706955Y-129780198D01*
X246748983Y-129641650D01*
X246763174Y-129497565D01*
X246759618Y-129461460D01*
X246759618Y-116733049D01*
X246763174Y-116696945D01*
X246748983Y-116552860D01*
X246706955Y-116414312D01*
X246638705Y-116286625D01*
X246546856Y-116174707D01*
X246434938Y-116082858D01*
X246307251Y-116014608D01*
X246168703Y-115972580D01*
X246060723Y-115961945D01*
X246024618Y-115958389D01*
X245988513Y-115961945D01*
X245950419Y-115961945D01*
X245949583Y-115953460D01*
X245907555Y-115814912D01*
X245839305Y-115687225D01*
X245747456Y-115575307D01*
X245635538Y-115483458D01*
X245507851Y-115415208D01*
X245369303Y-115373180D01*
X245261323Y-115362545D01*
X245225218Y-115358989D01*
X245189113Y-115362545D01*
X231262023Y-115362545D01*
X231225918Y-115358989D01*
X231189813Y-115362545D01*
X231081833Y-115373180D01*
X230943285Y-115415208D01*
X230815598Y-115483458D01*
X230703680Y-115575307D01*
X230611831Y-115687225D01*
X230543581Y-115814912D01*
X230501553Y-115953460D01*
X230500717Y-115961945D01*
X230461223Y-115961945D01*
X230425118Y-115958389D01*
X230389013Y-115961945D01*
X230281033Y-115972580D01*
X230142485Y-116014608D01*
X230014798Y-116082858D01*
X229902880Y-116174707D01*
X229811031Y-116286625D01*
X229742781Y-116414312D01*
X229700753Y-116552860D01*
X229686562Y-116696945D01*
X229108000Y-116696945D01*
X229108000Y-114808000D01*
X247396000Y-114808000D01*
X247396000Y-131445000D01*
G36*
X242570000Y-112395000D02*
G01*
X224282000Y-112395000D01*
X224282000Y-97646945D01*
X224924062Y-97646945D01*
X224927618Y-97683049D01*
X224927619Y-110411430D01*
X224924062Y-110447545D01*
X224938253Y-110591630D01*
X224980281Y-110730178D01*
X225048531Y-110857865D01*
X225140380Y-110969783D01*
X225252298Y-111061632D01*
X225379985Y-111129882D01*
X225518533Y-111171910D01*
X225626513Y-111182545D01*
X225662618Y-111186101D01*
X225698723Y-111182545D01*
X225738207Y-111182545D01*
X225739053Y-111191130D01*
X225781081Y-111329678D01*
X225849331Y-111457365D01*
X225941180Y-111569283D01*
X226053098Y-111661132D01*
X226180785Y-111729382D01*
X226319333Y-111771410D01*
X226427313Y-111782045D01*
X226463418Y-111785601D01*
X226499523Y-111782045D01*
X240426613Y-111782045D01*
X240462718Y-111785601D01*
X240498823Y-111782045D01*
X240606803Y-111771410D01*
X240745351Y-111729382D01*
X240873038Y-111661132D01*
X240984956Y-111569283D01*
X241076805Y-111457365D01*
X241145055Y-111329678D01*
X241187083Y-111191130D01*
X241187929Y-111182545D01*
X241226013Y-111182545D01*
X241262118Y-111186101D01*
X241298223Y-111182545D01*
X241406203Y-111171910D01*
X241544751Y-111129882D01*
X241672438Y-111061632D01*
X241784356Y-110969783D01*
X241876205Y-110857865D01*
X241944455Y-110730178D01*
X241986483Y-110591630D01*
X242000674Y-110447545D01*
X241997118Y-110411440D01*
X241997118Y-97683049D01*
X242000674Y-97646945D01*
X241986483Y-97502860D01*
X241944455Y-97364312D01*
X241876205Y-97236625D01*
X241784356Y-97124707D01*
X241672438Y-97032858D01*
X241544751Y-96964608D01*
X241406203Y-96922580D01*
X241298223Y-96911945D01*
X241262118Y-96908389D01*
X241226013Y-96911945D01*
X241187909Y-96911945D01*
X241187083Y-96903560D01*
X241145055Y-96765012D01*
X241076805Y-96637325D01*
X240984956Y-96525407D01*
X240873038Y-96433558D01*
X240745351Y-96365308D01*
X240606803Y-96323280D01*
X240498823Y-96312645D01*
X240462718Y-96309089D01*
X240426613Y-96312645D01*
X226499523Y-96312645D01*
X226463418Y-96309089D01*
X226427313Y-96312645D01*
X226319333Y-96323280D01*
X226180785Y-96365308D01*
X226053098Y-96433558D01*
X225941180Y-96525407D01*
X225849331Y-96637325D01*
X225781081Y-96765012D01*
X225739053Y-96903560D01*
X225738227Y-96911945D01*
X225698723Y-96911945D01*
X225662618Y-96908389D01*
X225626513Y-96911945D01*
X225518533Y-96922580D01*
X225379985Y-96964608D01*
X225252298Y-97032858D01*
X225140380Y-97124707D01*
X225048531Y-97236625D01*
X224980281Y-97364312D01*
X224938253Y-97502860D01*
X224924062Y-97646945D01*
X224282000Y-97646945D01*
X224282000Y-95758000D01*
X242570000Y-95758000D01*
X242570000Y-112395000D01*
X242570000Y-112395000D01*
G37*
X242570000Y-112395000D02*
X224282000Y-112395000D01*
X224282000Y-97646945D01*
X224924062Y-97646945D01*
X224927618Y-97683049D01*
X224927619Y-110411430D01*
X224924062Y-110447545D01*
X224938253Y-110591630D01*
X224980281Y-110730178D01*
X225048531Y-110857865D01*
X225140380Y-110969783D01*
X225252298Y-111061632D01*
X225379985Y-111129882D01*
X225518533Y-111171910D01*
X225626513Y-111182545D01*
X225662618Y-111186101D01*
X225698723Y-111182545D01*
X225738207Y-111182545D01*
X225739053Y-111191130D01*
X225781081Y-111329678D01*
X225849331Y-111457365D01*
X225941180Y-111569283D01*
X226053098Y-111661132D01*
X226180785Y-111729382D01*
X226319333Y-111771410D01*
X226427313Y-111782045D01*
X226463418Y-111785601D01*
X226499523Y-111782045D01*
X240426613Y-111782045D01*
X240462718Y-111785601D01*
X240498823Y-111782045D01*
X240606803Y-111771410D01*
X240745351Y-111729382D01*
X240873038Y-111661132D01*
X240984956Y-111569283D01*
X241076805Y-111457365D01*
X241145055Y-111329678D01*
X241187083Y-111191130D01*
X241187929Y-111182545D01*
X241226013Y-111182545D01*
X241262118Y-111186101D01*
X241298223Y-111182545D01*
X241406203Y-111171910D01*
X241544751Y-111129882D01*
X241672438Y-111061632D01*
X241784356Y-110969783D01*
X241876205Y-110857865D01*
X241944455Y-110730178D01*
X241986483Y-110591630D01*
X242000674Y-110447545D01*
X241997118Y-110411440D01*
X241997118Y-97683049D01*
X242000674Y-97646945D01*
X241986483Y-97502860D01*
X241944455Y-97364312D01*
X241876205Y-97236625D01*
X241784356Y-97124707D01*
X241672438Y-97032858D01*
X241544751Y-96964608D01*
X241406203Y-96922580D01*
X241298223Y-96911945D01*
X241262118Y-96908389D01*
X241226013Y-96911945D01*
X241187909Y-96911945D01*
X241187083Y-96903560D01*
X241145055Y-96765012D01*
X241076805Y-96637325D01*
X240984956Y-96525407D01*
X240873038Y-96433558D01*
X240745351Y-96365308D01*
X240606803Y-96323280D01*
X240498823Y-96312645D01*
X240462718Y-96309089D01*
X240426613Y-96312645D01*
X226499523Y-96312645D01*
X226463418Y-96309089D01*
X226427313Y-96312645D01*
X226319333Y-96323280D01*
X226180785Y-96365308D01*
X226053098Y-96433558D01*
X225941180Y-96525407D01*
X225849331Y-96637325D01*
X225781081Y-96765012D01*
X225739053Y-96903560D01*
X225738227Y-96911945D01*
X225698723Y-96911945D01*
X225662618Y-96908389D01*
X225626513Y-96911945D01*
X225518533Y-96922580D01*
X225379985Y-96964608D01*
X225252298Y-97032858D01*
X225140380Y-97124707D01*
X225048531Y-97236625D01*
X224980281Y-97364312D01*
X224938253Y-97502860D01*
X224924062Y-97646945D01*
X224282000Y-97646945D01*
X224282000Y-95758000D01*
X242570000Y-95758000D01*
X242570000Y-112395000D01*
G36*
X223520000Y-112395000D02*
G01*
X205232000Y-112395000D01*
X205232000Y-97646945D01*
X205874062Y-97646945D01*
X205877618Y-97683049D01*
X205877619Y-110411430D01*
X205874062Y-110447545D01*
X205888253Y-110591630D01*
X205930281Y-110730178D01*
X205998531Y-110857865D01*
X206090380Y-110969783D01*
X206202298Y-111061632D01*
X206329985Y-111129882D01*
X206468533Y-111171910D01*
X206576513Y-111182545D01*
X206612618Y-111186101D01*
X206648723Y-111182545D01*
X206688207Y-111182545D01*
X206689053Y-111191130D01*
X206731081Y-111329678D01*
X206799331Y-111457365D01*
X206891180Y-111569283D01*
X207003098Y-111661132D01*
X207130785Y-111729382D01*
X207269333Y-111771410D01*
X207377313Y-111782045D01*
X207413418Y-111785601D01*
X207449523Y-111782045D01*
X221376613Y-111782045D01*
X221412718Y-111785601D01*
X221448823Y-111782045D01*
X221556803Y-111771410D01*
X221695351Y-111729382D01*
X221823038Y-111661132D01*
X221934956Y-111569283D01*
X222026805Y-111457365D01*
X222095055Y-111329678D01*
X222137083Y-111191130D01*
X222137929Y-111182545D01*
X222177413Y-111182545D01*
X222213518Y-111186101D01*
X222249623Y-111182545D01*
X222357603Y-111171910D01*
X222496151Y-111129882D01*
X222623838Y-111061632D01*
X222735756Y-110969783D01*
X222827605Y-110857865D01*
X222895855Y-110730178D01*
X222937883Y-110591630D01*
X222952074Y-110447545D01*
X222948518Y-110411440D01*
X222948518Y-97683049D01*
X222952074Y-97646945D01*
X222937883Y-97502860D01*
X222895855Y-97364312D01*
X222827605Y-97236625D01*
X222735756Y-97124707D01*
X222623838Y-97032858D01*
X222496151Y-96964608D01*
X222357603Y-96922580D01*
X222249623Y-96911945D01*
X222213518Y-96908389D01*
X222177413Y-96911945D01*
X222137909Y-96911945D01*
X222137083Y-96903560D01*
X222095055Y-96765012D01*
X222026805Y-96637325D01*
X221934956Y-96525407D01*
X221823038Y-96433558D01*
X221695351Y-96365308D01*
X221556803Y-96323280D01*
X221448823Y-96312645D01*
X221412718Y-96309089D01*
X221376613Y-96312645D01*
X207449523Y-96312645D01*
X207413418Y-96309089D01*
X207377313Y-96312645D01*
X207269333Y-96323280D01*
X207130785Y-96365308D01*
X207003098Y-96433558D01*
X206891180Y-96525407D01*
X206799331Y-96637325D01*
X206731081Y-96765012D01*
X206689053Y-96903560D01*
X206688227Y-96911945D01*
X206648723Y-96911945D01*
X206612618Y-96908389D01*
X206576513Y-96911945D01*
X206468533Y-96922580D01*
X206329985Y-96964608D01*
X206202298Y-97032858D01*
X206090380Y-97124707D01*
X205998531Y-97236625D01*
X205930281Y-97364312D01*
X205888253Y-97502860D01*
X205874062Y-97646945D01*
X205232000Y-97646945D01*
X205232000Y-95758000D01*
X223520000Y-95758000D01*
X223520000Y-112395000D01*
X223520000Y-112395000D01*
G37*
X223520000Y-112395000D02*
X205232000Y-112395000D01*
X205232000Y-97646945D01*
X205874062Y-97646945D01*
X205877618Y-97683049D01*
X205877619Y-110411430D01*
X205874062Y-110447545D01*
X205888253Y-110591630D01*
X205930281Y-110730178D01*
X205998531Y-110857865D01*
X206090380Y-110969783D01*
X206202298Y-111061632D01*
X206329985Y-111129882D01*
X206468533Y-111171910D01*
X206576513Y-111182545D01*
X206612618Y-111186101D01*
X206648723Y-111182545D01*
X206688207Y-111182545D01*
X206689053Y-111191130D01*
X206731081Y-111329678D01*
X206799331Y-111457365D01*
X206891180Y-111569283D01*
X207003098Y-111661132D01*
X207130785Y-111729382D01*
X207269333Y-111771410D01*
X207377313Y-111782045D01*
X207413418Y-111785601D01*
X207449523Y-111782045D01*
X221376613Y-111782045D01*
X221412718Y-111785601D01*
X221448823Y-111782045D01*
X221556803Y-111771410D01*
X221695351Y-111729382D01*
X221823038Y-111661132D01*
X221934956Y-111569283D01*
X222026805Y-111457365D01*
X222095055Y-111329678D01*
X222137083Y-111191130D01*
X222137929Y-111182545D01*
X222177413Y-111182545D01*
X222213518Y-111186101D01*
X222249623Y-111182545D01*
X222357603Y-111171910D01*
X222496151Y-111129882D01*
X222623838Y-111061632D01*
X222735756Y-110969783D01*
X222827605Y-110857865D01*
X222895855Y-110730178D01*
X222937883Y-110591630D01*
X222952074Y-110447545D01*
X222948518Y-110411440D01*
X222948518Y-97683049D01*
X222952074Y-97646945D01*
X222937883Y-97502860D01*
X222895855Y-97364312D01*
X222827605Y-97236625D01*
X222735756Y-97124707D01*
X222623838Y-97032858D01*
X222496151Y-96964608D01*
X222357603Y-96922580D01*
X222249623Y-96911945D01*
X222213518Y-96908389D01*
X222177413Y-96911945D01*
X222137909Y-96911945D01*
X222137083Y-96903560D01*
X222095055Y-96765012D01*
X222026805Y-96637325D01*
X221934956Y-96525407D01*
X221823038Y-96433558D01*
X221695351Y-96365308D01*
X221556803Y-96323280D01*
X221448823Y-96312645D01*
X221412718Y-96309089D01*
X221376613Y-96312645D01*
X207449523Y-96312645D01*
X207413418Y-96309089D01*
X207377313Y-96312645D01*
X207269333Y-96323280D01*
X207130785Y-96365308D01*
X207003098Y-96433558D01*
X206891180Y-96525407D01*
X206799331Y-96637325D01*
X206731081Y-96765012D01*
X206689053Y-96903560D01*
X206688227Y-96911945D01*
X206648723Y-96911945D01*
X206612618Y-96908389D01*
X206576513Y-96911945D01*
X206468533Y-96922580D01*
X206329985Y-96964608D01*
X206202298Y-97032858D01*
X206090380Y-97124707D01*
X205998531Y-97236625D01*
X205930281Y-97364312D01*
X205888253Y-97502860D01*
X205874062Y-97646945D01*
X205232000Y-97646945D01*
X205232000Y-95758000D01*
X223520000Y-95758000D01*
X223520000Y-112395000D01*
G36*
X204470000Y-112395000D02*
G01*
X186182000Y-112395000D01*
X186182000Y-97646945D01*
X186824062Y-97646945D01*
X186827618Y-97683049D01*
X186827619Y-110411430D01*
X186824062Y-110447545D01*
X186838253Y-110591630D01*
X186880281Y-110730178D01*
X186948531Y-110857865D01*
X187040380Y-110969783D01*
X187152298Y-111061632D01*
X187279985Y-111129882D01*
X187418533Y-111171910D01*
X187526513Y-111182545D01*
X187562618Y-111186101D01*
X187598723Y-111182545D01*
X187638207Y-111182545D01*
X187639053Y-111191130D01*
X187681081Y-111329678D01*
X187749331Y-111457365D01*
X187841180Y-111569283D01*
X187953098Y-111661132D01*
X188080785Y-111729382D01*
X188219333Y-111771410D01*
X188327313Y-111782045D01*
X188363418Y-111785601D01*
X188399523Y-111782045D01*
X202326613Y-111782045D01*
X202362718Y-111785601D01*
X202398823Y-111782045D01*
X202506803Y-111771410D01*
X202645351Y-111729382D01*
X202773038Y-111661132D01*
X202884956Y-111569283D01*
X202976805Y-111457365D01*
X203045055Y-111329678D01*
X203087083Y-111191130D01*
X203087929Y-111182545D01*
X203127413Y-111182545D01*
X203163518Y-111186101D01*
X203199623Y-111182545D01*
X203307603Y-111171910D01*
X203446151Y-111129882D01*
X203573838Y-111061632D01*
X203685756Y-110969783D01*
X203777605Y-110857865D01*
X203845855Y-110730178D01*
X203887883Y-110591630D01*
X203902074Y-110447545D01*
X203898518Y-110411440D01*
X203898518Y-97683049D01*
X203902074Y-97646945D01*
X203887883Y-97502860D01*
X203845855Y-97364312D01*
X203777605Y-97236625D01*
X203685756Y-97124707D01*
X203573838Y-97032858D01*
X203446151Y-96964608D01*
X203307603Y-96922580D01*
X203199623Y-96911945D01*
X203163518Y-96908389D01*
X203127413Y-96911945D01*
X203087909Y-96911945D01*
X203087083Y-96903560D01*
X203045055Y-96765012D01*
X202976805Y-96637325D01*
X202884956Y-96525407D01*
X202773038Y-96433558D01*
X202645351Y-96365308D01*
X202506803Y-96323280D01*
X202398823Y-96312645D01*
X202362718Y-96309089D01*
X202326613Y-96312645D01*
X188399523Y-96312645D01*
X188363418Y-96309089D01*
X188327313Y-96312645D01*
X188219333Y-96323280D01*
X188080785Y-96365308D01*
X187953098Y-96433558D01*
X187841180Y-96525407D01*
X187749331Y-96637325D01*
X187681081Y-96765012D01*
X187639053Y-96903560D01*
X187638227Y-96911945D01*
X187598723Y-96911945D01*
X187562618Y-96908389D01*
X187526513Y-96911945D01*
X187418533Y-96922580D01*
X187279985Y-96964608D01*
X187152298Y-97032858D01*
X187040380Y-97124707D01*
X186948531Y-97236625D01*
X186880281Y-97364312D01*
X186838253Y-97502860D01*
X186824062Y-97646945D01*
X186182000Y-97646945D01*
X186182000Y-95758000D01*
X204470000Y-95758000D01*
X204470000Y-112395000D01*
X204470000Y-112395000D01*
G37*
X204470000Y-112395000D02*
X186182000Y-112395000D01*
X186182000Y-97646945D01*
X186824062Y-97646945D01*
X186827618Y-97683049D01*
X186827619Y-110411430D01*
X186824062Y-110447545D01*
X186838253Y-110591630D01*
X186880281Y-110730178D01*
X186948531Y-110857865D01*
X187040380Y-110969783D01*
X187152298Y-111061632D01*
X187279985Y-111129882D01*
X187418533Y-111171910D01*
X187526513Y-111182545D01*
X187562618Y-111186101D01*
X187598723Y-111182545D01*
X187638207Y-111182545D01*
X187639053Y-111191130D01*
X187681081Y-111329678D01*
X187749331Y-111457365D01*
X187841180Y-111569283D01*
X187953098Y-111661132D01*
X188080785Y-111729382D01*
X188219333Y-111771410D01*
X188327313Y-111782045D01*
X188363418Y-111785601D01*
X188399523Y-111782045D01*
X202326613Y-111782045D01*
X202362718Y-111785601D01*
X202398823Y-111782045D01*
X202506803Y-111771410D01*
X202645351Y-111729382D01*
X202773038Y-111661132D01*
X202884956Y-111569283D01*
X202976805Y-111457365D01*
X203045055Y-111329678D01*
X203087083Y-111191130D01*
X203087929Y-111182545D01*
X203127413Y-111182545D01*
X203163518Y-111186101D01*
X203199623Y-111182545D01*
X203307603Y-111171910D01*
X203446151Y-111129882D01*
X203573838Y-111061632D01*
X203685756Y-110969783D01*
X203777605Y-110857865D01*
X203845855Y-110730178D01*
X203887883Y-110591630D01*
X203902074Y-110447545D01*
X203898518Y-110411440D01*
X203898518Y-97683049D01*
X203902074Y-97646945D01*
X203887883Y-97502860D01*
X203845855Y-97364312D01*
X203777605Y-97236625D01*
X203685756Y-97124707D01*
X203573838Y-97032858D01*
X203446151Y-96964608D01*
X203307603Y-96922580D01*
X203199623Y-96911945D01*
X203163518Y-96908389D01*
X203127413Y-96911945D01*
X203087909Y-96911945D01*
X203087083Y-96903560D01*
X203045055Y-96765012D01*
X202976805Y-96637325D01*
X202884956Y-96525407D01*
X202773038Y-96433558D01*
X202645351Y-96365308D01*
X202506803Y-96323280D01*
X202398823Y-96312645D01*
X202362718Y-96309089D01*
X202326613Y-96312645D01*
X188399523Y-96312645D01*
X188363418Y-96309089D01*
X188327313Y-96312645D01*
X188219333Y-96323280D01*
X188080785Y-96365308D01*
X187953098Y-96433558D01*
X187841180Y-96525407D01*
X187749331Y-96637325D01*
X187681081Y-96765012D01*
X187639053Y-96903560D01*
X187638227Y-96911945D01*
X187598723Y-96911945D01*
X187562618Y-96908389D01*
X187526513Y-96911945D01*
X187418533Y-96922580D01*
X187279985Y-96964608D01*
X187152298Y-97032858D01*
X187040380Y-97124707D01*
X186948531Y-97236625D01*
X186880281Y-97364312D01*
X186838253Y-97502860D01*
X186824062Y-97646945D01*
X186182000Y-97646945D01*
X186182000Y-95758000D01*
X204470000Y-95758000D01*
X204470000Y-112395000D01*
G36*
X166370000Y-112395000D02*
G01*
X148082000Y-112395000D01*
X148082000Y-97646945D01*
X148724172Y-97646945D01*
X148727728Y-97683049D01*
X148727729Y-110411430D01*
X148724172Y-110447545D01*
X148738363Y-110591630D01*
X148780391Y-110730178D01*
X148848641Y-110857865D01*
X148940490Y-110969783D01*
X149052408Y-111061632D01*
X149180095Y-111129882D01*
X149318643Y-111171910D01*
X149426623Y-111182545D01*
X149462728Y-111186101D01*
X149498833Y-111182545D01*
X149538157Y-111182545D01*
X149539003Y-111191130D01*
X149581031Y-111329678D01*
X149649281Y-111457365D01*
X149741130Y-111569283D01*
X149853048Y-111661132D01*
X149980735Y-111729382D01*
X150119283Y-111771410D01*
X150227263Y-111782045D01*
X150263368Y-111785601D01*
X150299473Y-111782045D01*
X164226813Y-111782045D01*
X164262918Y-111785601D01*
X164299023Y-111782045D01*
X164407003Y-111771410D01*
X164545551Y-111729382D01*
X164673238Y-111661132D01*
X164785156Y-111569283D01*
X164877005Y-111457365D01*
X164945255Y-111329678D01*
X164987283Y-111191130D01*
X164988129Y-111182545D01*
X165027413Y-111182545D01*
X165063518Y-111186101D01*
X165099623Y-111182545D01*
X165207603Y-111171910D01*
X165346151Y-111129882D01*
X165473838Y-111061632D01*
X165585756Y-110969783D01*
X165677605Y-110857865D01*
X165745855Y-110730178D01*
X165787883Y-110591630D01*
X165802074Y-110447545D01*
X165798518Y-110411440D01*
X165798518Y-97683049D01*
X165802074Y-97646945D01*
X165787883Y-97502860D01*
X165745855Y-97364312D01*
X165677605Y-97236625D01*
X165585756Y-97124707D01*
X165473838Y-97032858D01*
X165346151Y-96964608D01*
X165207603Y-96922580D01*
X165099623Y-96911945D01*
X165063518Y-96908389D01*
X165027413Y-96911945D01*
X164988109Y-96911945D01*
X164987283Y-96903560D01*
X164945255Y-96765012D01*
X164877005Y-96637325D01*
X164785156Y-96525407D01*
X164673238Y-96433558D01*
X164545551Y-96365308D01*
X164407003Y-96323280D01*
X164299023Y-96312645D01*
X164262918Y-96309089D01*
X164226813Y-96312645D01*
X150299473Y-96312645D01*
X150263368Y-96309089D01*
X150227263Y-96312645D01*
X150119283Y-96323280D01*
X149980735Y-96365308D01*
X149853048Y-96433558D01*
X149741130Y-96525407D01*
X149649281Y-96637325D01*
X149581031Y-96765012D01*
X149539003Y-96903560D01*
X149538177Y-96911945D01*
X149498833Y-96911945D01*
X149462728Y-96908389D01*
X149426623Y-96911945D01*
X149318643Y-96922580D01*
X149180095Y-96964608D01*
X149052408Y-97032858D01*
X148940490Y-97124707D01*
X148848641Y-97236625D01*
X148780391Y-97364312D01*
X148738363Y-97502860D01*
X148724172Y-97646945D01*
X148082000Y-97646945D01*
X148082000Y-95758000D01*
X166370000Y-95758000D01*
X166370000Y-112395000D01*
X166370000Y-112395000D01*
G37*
X166370000Y-112395000D02*
X148082000Y-112395000D01*
X148082000Y-97646945D01*
X148724172Y-97646945D01*
X148727728Y-97683049D01*
X148727729Y-110411430D01*
X148724172Y-110447545D01*
X148738363Y-110591630D01*
X148780391Y-110730178D01*
X148848641Y-110857865D01*
X148940490Y-110969783D01*
X149052408Y-111061632D01*
X149180095Y-111129882D01*
X149318643Y-111171910D01*
X149426623Y-111182545D01*
X149462728Y-111186101D01*
X149498833Y-111182545D01*
X149538157Y-111182545D01*
X149539003Y-111191130D01*
X149581031Y-111329678D01*
X149649281Y-111457365D01*
X149741130Y-111569283D01*
X149853048Y-111661132D01*
X149980735Y-111729382D01*
X150119283Y-111771410D01*
X150227263Y-111782045D01*
X150263368Y-111785601D01*
X150299473Y-111782045D01*
X164226813Y-111782045D01*
X164262918Y-111785601D01*
X164299023Y-111782045D01*
X164407003Y-111771410D01*
X164545551Y-111729382D01*
X164673238Y-111661132D01*
X164785156Y-111569283D01*
X164877005Y-111457365D01*
X164945255Y-111329678D01*
X164987283Y-111191130D01*
X164988129Y-111182545D01*
X165027413Y-111182545D01*
X165063518Y-111186101D01*
X165099623Y-111182545D01*
X165207603Y-111171910D01*
X165346151Y-111129882D01*
X165473838Y-111061632D01*
X165585756Y-110969783D01*
X165677605Y-110857865D01*
X165745855Y-110730178D01*
X165787883Y-110591630D01*
X165802074Y-110447545D01*
X165798518Y-110411440D01*
X165798518Y-97683049D01*
X165802074Y-97646945D01*
X165787883Y-97502860D01*
X165745855Y-97364312D01*
X165677605Y-97236625D01*
X165585756Y-97124707D01*
X165473838Y-97032858D01*
X165346151Y-96964608D01*
X165207603Y-96922580D01*
X165099623Y-96911945D01*
X165063518Y-96908389D01*
X165027413Y-96911945D01*
X164988109Y-96911945D01*
X164987283Y-96903560D01*
X164945255Y-96765012D01*
X164877005Y-96637325D01*
X164785156Y-96525407D01*
X164673238Y-96433558D01*
X164545551Y-96365308D01*
X164407003Y-96323280D01*
X164299023Y-96312645D01*
X164262918Y-96309089D01*
X164226813Y-96312645D01*
X150299473Y-96312645D01*
X150263368Y-96309089D01*
X150227263Y-96312645D01*
X150119283Y-96323280D01*
X149980735Y-96365308D01*
X149853048Y-96433558D01*
X149741130Y-96525407D01*
X149649281Y-96637325D01*
X149581031Y-96765012D01*
X149539003Y-96903560D01*
X149538177Y-96911945D01*
X149498833Y-96911945D01*
X149462728Y-96908389D01*
X149426623Y-96911945D01*
X149318643Y-96922580D01*
X149180095Y-96964608D01*
X149052408Y-97032858D01*
X148940490Y-97124707D01*
X148848641Y-97236625D01*
X148780391Y-97364312D01*
X148738363Y-97502860D01*
X148724172Y-97646945D01*
X148082000Y-97646945D01*
X148082000Y-95758000D01*
X166370000Y-95758000D01*
X166370000Y-112395000D01*
G36*
X185420000Y-112395000D02*
G01*
X167132000Y-112395000D01*
X167132000Y-97646945D01*
X167774162Y-97646945D01*
X167777718Y-97683049D01*
X167777719Y-110411430D01*
X167774162Y-110447545D01*
X167788353Y-110591630D01*
X167830381Y-110730178D01*
X167898631Y-110857865D01*
X167990480Y-110969783D01*
X168102398Y-111061632D01*
X168230085Y-111129882D01*
X168368633Y-111171910D01*
X168476613Y-111182545D01*
X168512718Y-111186101D01*
X168548823Y-111182545D01*
X168588207Y-111182545D01*
X168589053Y-111191130D01*
X168631081Y-111329678D01*
X168699331Y-111457365D01*
X168791180Y-111569283D01*
X168903098Y-111661132D01*
X169030785Y-111729382D01*
X169169333Y-111771410D01*
X169277313Y-111782045D01*
X169313418Y-111785601D01*
X169349523Y-111782045D01*
X183276613Y-111782045D01*
X183312718Y-111785601D01*
X183348823Y-111782045D01*
X183456803Y-111771410D01*
X183595351Y-111729382D01*
X183723038Y-111661132D01*
X183834956Y-111569283D01*
X183926805Y-111457365D01*
X183995055Y-111329678D01*
X184037083Y-111191130D01*
X184037929Y-111182545D01*
X184077413Y-111182545D01*
X184113518Y-111186101D01*
X184149623Y-111182545D01*
X184257603Y-111171910D01*
X184396151Y-111129882D01*
X184523838Y-111061632D01*
X184635756Y-110969783D01*
X184727605Y-110857865D01*
X184795855Y-110730178D01*
X184837883Y-110591630D01*
X184852074Y-110447545D01*
X184848518Y-110411440D01*
X184848518Y-97683049D01*
X184852074Y-97646945D01*
X184837883Y-97502860D01*
X184795855Y-97364312D01*
X184727605Y-97236625D01*
X184635756Y-97124707D01*
X184523838Y-97032858D01*
X184396151Y-96964608D01*
X184257603Y-96922580D01*
X184149623Y-96911945D01*
X184113518Y-96908389D01*
X184077413Y-96911945D01*
X184037909Y-96911945D01*
X184037083Y-96903560D01*
X183995055Y-96765012D01*
X183926805Y-96637325D01*
X183834956Y-96525407D01*
X183723038Y-96433558D01*
X183595351Y-96365308D01*
X183456803Y-96323280D01*
X183348823Y-96312645D01*
X183312718Y-96309089D01*
X183276613Y-96312645D01*
X169349523Y-96312645D01*
X169313418Y-96309089D01*
X169277313Y-96312645D01*
X169169333Y-96323280D01*
X169030785Y-96365308D01*
X168903098Y-96433558D01*
X168791180Y-96525407D01*
X168699331Y-96637325D01*
X168631081Y-96765012D01*
X168589053Y-96903560D01*
X168588227Y-96911945D01*
X168548823Y-96911945D01*
X168512718Y-96908389D01*
X168476613Y-96911945D01*
X168368633Y-96922580D01*
X168230085Y-96964608D01*
X168102398Y-97032858D01*
X167990480Y-97124707D01*
X167898631Y-97236625D01*
X167830381Y-97364312D01*
X167788353Y-97502860D01*
X167774162Y-97646945D01*
X167132000Y-97646945D01*
X167132000Y-95758000D01*
X185420000Y-95758000D01*
X185420000Y-112395000D01*
X185420000Y-112395000D01*
G37*
X185420000Y-112395000D02*
X167132000Y-112395000D01*
X167132000Y-97646945D01*
X167774162Y-97646945D01*
X167777718Y-97683049D01*
X167777719Y-110411430D01*
X167774162Y-110447545D01*
X167788353Y-110591630D01*
X167830381Y-110730178D01*
X167898631Y-110857865D01*
X167990480Y-110969783D01*
X168102398Y-111061632D01*
X168230085Y-111129882D01*
X168368633Y-111171910D01*
X168476613Y-111182545D01*
X168512718Y-111186101D01*
X168548823Y-111182545D01*
X168588207Y-111182545D01*
X168589053Y-111191130D01*
X168631081Y-111329678D01*
X168699331Y-111457365D01*
X168791180Y-111569283D01*
X168903098Y-111661132D01*
X169030785Y-111729382D01*
X169169333Y-111771410D01*
X169277313Y-111782045D01*
X169313418Y-111785601D01*
X169349523Y-111782045D01*
X183276613Y-111782045D01*
X183312718Y-111785601D01*
X183348823Y-111782045D01*
X183456803Y-111771410D01*
X183595351Y-111729382D01*
X183723038Y-111661132D01*
X183834956Y-111569283D01*
X183926805Y-111457365D01*
X183995055Y-111329678D01*
X184037083Y-111191130D01*
X184037929Y-111182545D01*
X184077413Y-111182545D01*
X184113518Y-111186101D01*
X184149623Y-111182545D01*
X184257603Y-111171910D01*
X184396151Y-111129882D01*
X184523838Y-111061632D01*
X184635756Y-110969783D01*
X184727605Y-110857865D01*
X184795855Y-110730178D01*
X184837883Y-110591630D01*
X184852074Y-110447545D01*
X184848518Y-110411440D01*
X184848518Y-97683049D01*
X184852074Y-97646945D01*
X184837883Y-97502860D01*
X184795855Y-97364312D01*
X184727605Y-97236625D01*
X184635756Y-97124707D01*
X184523838Y-97032858D01*
X184396151Y-96964608D01*
X184257603Y-96922580D01*
X184149623Y-96911945D01*
X184113518Y-96908389D01*
X184077413Y-96911945D01*
X184037909Y-96911945D01*
X184037083Y-96903560D01*
X183995055Y-96765012D01*
X183926805Y-96637325D01*
X183834956Y-96525407D01*
X183723038Y-96433558D01*
X183595351Y-96365308D01*
X183456803Y-96323280D01*
X183348823Y-96312645D01*
X183312718Y-96309089D01*
X183276613Y-96312645D01*
X169349523Y-96312645D01*
X169313418Y-96309089D01*
X169277313Y-96312645D01*
X169169333Y-96323280D01*
X169030785Y-96365308D01*
X168903098Y-96433558D01*
X168791180Y-96525407D01*
X168699331Y-96637325D01*
X168631081Y-96765012D01*
X168589053Y-96903560D01*
X168588227Y-96911945D01*
X168548823Y-96911945D01*
X168512718Y-96908389D01*
X168476613Y-96911945D01*
X168368633Y-96922580D01*
X168230085Y-96964608D01*
X168102398Y-97032858D01*
X167990480Y-97124707D01*
X167898631Y-97236625D01*
X167830381Y-97364312D01*
X167788353Y-97502860D01*
X167774162Y-97646945D01*
X167132000Y-97646945D01*
X167132000Y-95758000D01*
X185420000Y-95758000D01*
X185420000Y-112395000D01*
G36*
X166370000Y-93345000D02*
G01*
X148082000Y-93345000D01*
X148082000Y-78596945D01*
X148724172Y-78596945D01*
X148727728Y-78633049D01*
X148727729Y-91361430D01*
X148724172Y-91397545D01*
X148738363Y-91541630D01*
X148780391Y-91680178D01*
X148848641Y-91807865D01*
X148940490Y-91919783D01*
X149052408Y-92011632D01*
X149180095Y-92079882D01*
X149318643Y-92121910D01*
X149426623Y-92132545D01*
X149462728Y-92136101D01*
X149498833Y-92132545D01*
X149538177Y-92132545D01*
X149539003Y-92140930D01*
X149581031Y-92279478D01*
X149649281Y-92407165D01*
X149741130Y-92519083D01*
X149853048Y-92610932D01*
X149980735Y-92679182D01*
X150119283Y-92721210D01*
X150227263Y-92731845D01*
X150263368Y-92735401D01*
X150299473Y-92731845D01*
X164226813Y-92731845D01*
X164262918Y-92735401D01*
X164299023Y-92731845D01*
X164407003Y-92721210D01*
X164545551Y-92679182D01*
X164673238Y-92610932D01*
X164785156Y-92519083D01*
X164877005Y-92407165D01*
X164945255Y-92279478D01*
X164987283Y-92140930D01*
X164988109Y-92132545D01*
X165027413Y-92132545D01*
X165063518Y-92136101D01*
X165099623Y-92132545D01*
X165207603Y-92121910D01*
X165346151Y-92079882D01*
X165473838Y-92011632D01*
X165585756Y-91919783D01*
X165677605Y-91807865D01*
X165745855Y-91680178D01*
X165787883Y-91541630D01*
X165802074Y-91397545D01*
X165798518Y-91361440D01*
X165798518Y-78633049D01*
X165802074Y-78596945D01*
X165787883Y-78452860D01*
X165745855Y-78314312D01*
X165677605Y-78186625D01*
X165585756Y-78074707D01*
X165473838Y-77982858D01*
X165346151Y-77914608D01*
X165207603Y-77872580D01*
X165099623Y-77861945D01*
X165063518Y-77858389D01*
X165027413Y-77861945D01*
X164988119Y-77861945D01*
X164987283Y-77853460D01*
X164945255Y-77714912D01*
X164877005Y-77587225D01*
X164785156Y-77475307D01*
X164673238Y-77383458D01*
X164545551Y-77315208D01*
X164407003Y-77273180D01*
X164299023Y-77262545D01*
X164262918Y-77258989D01*
X164226813Y-77262545D01*
X150299473Y-77262545D01*
X150263368Y-77258989D01*
X150227263Y-77262545D01*
X150119283Y-77273180D01*
X149980735Y-77315208D01*
X149853048Y-77383458D01*
X149741130Y-77475307D01*
X149649281Y-77587225D01*
X149581031Y-77714912D01*
X149539003Y-77853460D01*
X149538167Y-77861945D01*
X149498833Y-77861945D01*
X149462728Y-77858389D01*
X149426623Y-77861945D01*
X149318643Y-77872580D01*
X149180095Y-77914608D01*
X149052408Y-77982858D01*
X148940490Y-78074707D01*
X148848641Y-78186625D01*
X148780391Y-78314312D01*
X148738363Y-78452860D01*
X148724172Y-78596945D01*
X148082000Y-78596945D01*
X148082000Y-76708000D01*
X166370000Y-76708000D01*
X166370000Y-93345000D01*
X166370000Y-93345000D01*
G37*
X166370000Y-93345000D02*
X148082000Y-93345000D01*
X148082000Y-78596945D01*
X148724172Y-78596945D01*
X148727728Y-78633049D01*
X148727729Y-91361430D01*
X148724172Y-91397545D01*
X148738363Y-91541630D01*
X148780391Y-91680178D01*
X148848641Y-91807865D01*
X148940490Y-91919783D01*
X149052408Y-92011632D01*
X149180095Y-92079882D01*
X149318643Y-92121910D01*
X149426623Y-92132545D01*
X149462728Y-92136101D01*
X149498833Y-92132545D01*
X149538177Y-92132545D01*
X149539003Y-92140930D01*
X149581031Y-92279478D01*
X149649281Y-92407165D01*
X149741130Y-92519083D01*
X149853048Y-92610932D01*
X149980735Y-92679182D01*
X150119283Y-92721210D01*
X150227263Y-92731845D01*
X150263368Y-92735401D01*
X150299473Y-92731845D01*
X164226813Y-92731845D01*
X164262918Y-92735401D01*
X164299023Y-92731845D01*
X164407003Y-92721210D01*
X164545551Y-92679182D01*
X164673238Y-92610932D01*
X164785156Y-92519083D01*
X164877005Y-92407165D01*
X164945255Y-92279478D01*
X164987283Y-92140930D01*
X164988109Y-92132545D01*
X165027413Y-92132545D01*
X165063518Y-92136101D01*
X165099623Y-92132545D01*
X165207603Y-92121910D01*
X165346151Y-92079882D01*
X165473838Y-92011632D01*
X165585756Y-91919783D01*
X165677605Y-91807865D01*
X165745855Y-91680178D01*
X165787883Y-91541630D01*
X165802074Y-91397545D01*
X165798518Y-91361440D01*
X165798518Y-78633049D01*
X165802074Y-78596945D01*
X165787883Y-78452860D01*
X165745855Y-78314312D01*
X165677605Y-78186625D01*
X165585756Y-78074707D01*
X165473838Y-77982858D01*
X165346151Y-77914608D01*
X165207603Y-77872580D01*
X165099623Y-77861945D01*
X165063518Y-77858389D01*
X165027413Y-77861945D01*
X164988119Y-77861945D01*
X164987283Y-77853460D01*
X164945255Y-77714912D01*
X164877005Y-77587225D01*
X164785156Y-77475307D01*
X164673238Y-77383458D01*
X164545551Y-77315208D01*
X164407003Y-77273180D01*
X164299023Y-77262545D01*
X164262918Y-77258989D01*
X164226813Y-77262545D01*
X150299473Y-77262545D01*
X150263368Y-77258989D01*
X150227263Y-77262545D01*
X150119283Y-77273180D01*
X149980735Y-77315208D01*
X149853048Y-77383458D01*
X149741130Y-77475307D01*
X149649281Y-77587225D01*
X149581031Y-77714912D01*
X149539003Y-77853460D01*
X149538167Y-77861945D01*
X149498833Y-77861945D01*
X149462728Y-77858389D01*
X149426623Y-77861945D01*
X149318643Y-77872580D01*
X149180095Y-77914608D01*
X149052408Y-77982858D01*
X148940490Y-78074707D01*
X148848641Y-78186625D01*
X148780391Y-78314312D01*
X148738363Y-78452860D01*
X148724172Y-78596945D01*
X148082000Y-78596945D01*
X148082000Y-76708000D01*
X166370000Y-76708000D01*
X166370000Y-93345000D01*
G36*
X185420000Y-93345000D02*
G01*
X167132000Y-93345000D01*
X167132000Y-78596945D01*
X167774162Y-78596945D01*
X167777718Y-78633049D01*
X167777719Y-91361430D01*
X167774162Y-91397545D01*
X167788353Y-91541630D01*
X167830381Y-91680178D01*
X167898631Y-91807865D01*
X167990480Y-91919783D01*
X168102398Y-92011632D01*
X168230085Y-92079882D01*
X168368633Y-92121910D01*
X168476613Y-92132545D01*
X168512718Y-92136101D01*
X168548823Y-92132545D01*
X168588227Y-92132545D01*
X168589053Y-92140930D01*
X168631081Y-92279478D01*
X168699331Y-92407165D01*
X168791180Y-92519083D01*
X168903098Y-92610932D01*
X169030785Y-92679182D01*
X169169333Y-92721210D01*
X169277313Y-92731845D01*
X169313418Y-92735401D01*
X169349523Y-92731845D01*
X183276613Y-92731845D01*
X183312718Y-92735401D01*
X183348823Y-92731845D01*
X183456803Y-92721210D01*
X183595351Y-92679182D01*
X183723038Y-92610932D01*
X183834956Y-92519083D01*
X183926805Y-92407165D01*
X183995055Y-92279478D01*
X184037083Y-92140930D01*
X184037909Y-92132545D01*
X184077413Y-92132545D01*
X184113518Y-92136101D01*
X184149623Y-92132545D01*
X184257603Y-92121910D01*
X184396151Y-92079882D01*
X184523838Y-92011632D01*
X184635756Y-91919783D01*
X184727605Y-91807865D01*
X184795855Y-91680178D01*
X184837883Y-91541630D01*
X184852074Y-91397545D01*
X184848518Y-91361440D01*
X184848518Y-78633049D01*
X184852074Y-78596945D01*
X184837883Y-78452860D01*
X184795855Y-78314312D01*
X184727605Y-78186625D01*
X184635756Y-78074707D01*
X184523838Y-77982858D01*
X184396151Y-77914608D01*
X184257603Y-77872580D01*
X184149623Y-77861945D01*
X184113518Y-77858389D01*
X184077413Y-77861945D01*
X184037919Y-77861945D01*
X184037083Y-77853460D01*
X183995055Y-77714912D01*
X183926805Y-77587225D01*
X183834956Y-77475307D01*
X183723038Y-77383458D01*
X183595351Y-77315208D01*
X183456803Y-77273180D01*
X183348823Y-77262545D01*
X183312718Y-77258989D01*
X183276613Y-77262545D01*
X169349523Y-77262545D01*
X169313418Y-77258989D01*
X169277313Y-77262545D01*
X169169333Y-77273180D01*
X169030785Y-77315208D01*
X168903098Y-77383458D01*
X168791180Y-77475307D01*
X168699331Y-77587225D01*
X168631081Y-77714912D01*
X168589053Y-77853460D01*
X168588217Y-77861945D01*
X168548823Y-77861945D01*
X168512718Y-77858389D01*
X168476613Y-77861945D01*
X168368633Y-77872580D01*
X168230085Y-77914608D01*
X168102398Y-77982858D01*
X167990480Y-78074707D01*
X167898631Y-78186625D01*
X167830381Y-78314312D01*
X167788353Y-78452860D01*
X167774162Y-78596945D01*
X167132000Y-78596945D01*
X167132000Y-76708000D01*
X185420000Y-76708000D01*
X185420000Y-93345000D01*
X185420000Y-93345000D01*
G37*
X185420000Y-93345000D02*
X167132000Y-93345000D01*
X167132000Y-78596945D01*
X167774162Y-78596945D01*
X167777718Y-78633049D01*
X167777719Y-91361430D01*
X167774162Y-91397545D01*
X167788353Y-91541630D01*
X167830381Y-91680178D01*
X167898631Y-91807865D01*
X167990480Y-91919783D01*
X168102398Y-92011632D01*
X168230085Y-92079882D01*
X168368633Y-92121910D01*
X168476613Y-92132545D01*
X168512718Y-92136101D01*
X168548823Y-92132545D01*
X168588227Y-92132545D01*
X168589053Y-92140930D01*
X168631081Y-92279478D01*
X168699331Y-92407165D01*
X168791180Y-92519083D01*
X168903098Y-92610932D01*
X169030785Y-92679182D01*
X169169333Y-92721210D01*
X169277313Y-92731845D01*
X169313418Y-92735401D01*
X169349523Y-92731845D01*
X183276613Y-92731845D01*
X183312718Y-92735401D01*
X183348823Y-92731845D01*
X183456803Y-92721210D01*
X183595351Y-92679182D01*
X183723038Y-92610932D01*
X183834956Y-92519083D01*
X183926805Y-92407165D01*
X183995055Y-92279478D01*
X184037083Y-92140930D01*
X184037909Y-92132545D01*
X184077413Y-92132545D01*
X184113518Y-92136101D01*
X184149623Y-92132545D01*
X184257603Y-92121910D01*
X184396151Y-92079882D01*
X184523838Y-92011632D01*
X184635756Y-91919783D01*
X184727605Y-91807865D01*
X184795855Y-91680178D01*
X184837883Y-91541630D01*
X184852074Y-91397545D01*
X184848518Y-91361440D01*
X184848518Y-78633049D01*
X184852074Y-78596945D01*
X184837883Y-78452860D01*
X184795855Y-78314312D01*
X184727605Y-78186625D01*
X184635756Y-78074707D01*
X184523838Y-77982858D01*
X184396151Y-77914608D01*
X184257603Y-77872580D01*
X184149623Y-77861945D01*
X184113518Y-77858389D01*
X184077413Y-77861945D01*
X184037919Y-77861945D01*
X184037083Y-77853460D01*
X183995055Y-77714912D01*
X183926805Y-77587225D01*
X183834956Y-77475307D01*
X183723038Y-77383458D01*
X183595351Y-77315208D01*
X183456803Y-77273180D01*
X183348823Y-77262545D01*
X183312718Y-77258989D01*
X183276613Y-77262545D01*
X169349523Y-77262545D01*
X169313418Y-77258989D01*
X169277313Y-77262545D01*
X169169333Y-77273180D01*
X169030785Y-77315208D01*
X168903098Y-77383458D01*
X168791180Y-77475307D01*
X168699331Y-77587225D01*
X168631081Y-77714912D01*
X168589053Y-77853460D01*
X168588217Y-77861945D01*
X168548823Y-77861945D01*
X168512718Y-77858389D01*
X168476613Y-77861945D01*
X168368633Y-77872580D01*
X168230085Y-77914608D01*
X168102398Y-77982858D01*
X167990480Y-78074707D01*
X167898631Y-78186625D01*
X167830381Y-78314312D01*
X167788353Y-78452860D01*
X167774162Y-78596945D01*
X167132000Y-78596945D01*
X167132000Y-76708000D01*
X185420000Y-76708000D01*
X185420000Y-93345000D01*
G36*
X204470000Y-93345000D02*
G01*
X186182000Y-93345000D01*
X186182000Y-78596945D01*
X186824062Y-78596945D01*
X186827618Y-78633049D01*
X186827619Y-91361430D01*
X186824062Y-91397545D01*
X186838253Y-91541630D01*
X186880281Y-91680178D01*
X186948531Y-91807865D01*
X187040380Y-91919783D01*
X187152298Y-92011632D01*
X187279985Y-92079882D01*
X187418533Y-92121910D01*
X187526513Y-92132545D01*
X187562618Y-92136101D01*
X187598723Y-92132545D01*
X187638227Y-92132545D01*
X187639053Y-92140930D01*
X187681081Y-92279478D01*
X187749331Y-92407165D01*
X187841180Y-92519083D01*
X187953098Y-92610932D01*
X188080785Y-92679182D01*
X188219333Y-92721210D01*
X188327313Y-92731845D01*
X188363418Y-92735401D01*
X188399523Y-92731845D01*
X202326613Y-92731845D01*
X202362718Y-92735401D01*
X202398823Y-92731845D01*
X202506803Y-92721210D01*
X202645351Y-92679182D01*
X202773038Y-92610932D01*
X202884956Y-92519083D01*
X202976805Y-92407165D01*
X203045055Y-92279478D01*
X203087083Y-92140930D01*
X203087909Y-92132545D01*
X203127413Y-92132545D01*
X203163518Y-92136101D01*
X203199623Y-92132545D01*
X203307603Y-92121910D01*
X203446151Y-92079882D01*
X203573838Y-92011632D01*
X203685756Y-91919783D01*
X203777605Y-91807865D01*
X203845855Y-91680178D01*
X203887883Y-91541630D01*
X203902074Y-91397545D01*
X203898518Y-91361440D01*
X203898518Y-78633049D01*
X203902074Y-78596945D01*
X203887883Y-78452860D01*
X203845855Y-78314312D01*
X203777605Y-78186625D01*
X203685756Y-78074707D01*
X203573838Y-77982858D01*
X203446151Y-77914608D01*
X203307603Y-77872580D01*
X203199623Y-77861945D01*
X203163518Y-77858389D01*
X203127413Y-77861945D01*
X203087919Y-77861945D01*
X203087083Y-77853460D01*
X203045055Y-77714912D01*
X202976805Y-77587225D01*
X202884956Y-77475307D01*
X202773038Y-77383458D01*
X202645351Y-77315208D01*
X202506803Y-77273180D01*
X202398823Y-77262545D01*
X202362718Y-77258989D01*
X202326613Y-77262545D01*
X188399523Y-77262545D01*
X188363418Y-77258989D01*
X188327313Y-77262545D01*
X188219333Y-77273180D01*
X188080785Y-77315208D01*
X187953098Y-77383458D01*
X187841180Y-77475307D01*
X187749331Y-77587225D01*
X187681081Y-77714912D01*
X187639053Y-77853460D01*
X187638217Y-77861945D01*
X187598723Y-77861945D01*
X187562618Y-77858389D01*
X187526513Y-77861945D01*
X187418533Y-77872580D01*
X187279985Y-77914608D01*
X187152298Y-77982858D01*
X187040380Y-78074707D01*
X186948531Y-78186625D01*
X186880281Y-78314312D01*
X186838253Y-78452860D01*
X186824062Y-78596945D01*
X186182000Y-78596945D01*
X186182000Y-76708000D01*
X204470000Y-76708000D01*
X204470000Y-93345000D01*
X204470000Y-93345000D01*
G37*
X204470000Y-93345000D02*
X186182000Y-93345000D01*
X186182000Y-78596945D01*
X186824062Y-78596945D01*
X186827618Y-78633049D01*
X186827619Y-91361430D01*
X186824062Y-91397545D01*
X186838253Y-91541630D01*
X186880281Y-91680178D01*
X186948531Y-91807865D01*
X187040380Y-91919783D01*
X187152298Y-92011632D01*
X187279985Y-92079882D01*
X187418533Y-92121910D01*
X187526513Y-92132545D01*
X187562618Y-92136101D01*
X187598723Y-92132545D01*
X187638227Y-92132545D01*
X187639053Y-92140930D01*
X187681081Y-92279478D01*
X187749331Y-92407165D01*
X187841180Y-92519083D01*
X187953098Y-92610932D01*
X188080785Y-92679182D01*
X188219333Y-92721210D01*
X188327313Y-92731845D01*
X188363418Y-92735401D01*
X188399523Y-92731845D01*
X202326613Y-92731845D01*
X202362718Y-92735401D01*
X202398823Y-92731845D01*
X202506803Y-92721210D01*
X202645351Y-92679182D01*
X202773038Y-92610932D01*
X202884956Y-92519083D01*
X202976805Y-92407165D01*
X203045055Y-92279478D01*
X203087083Y-92140930D01*
X203087909Y-92132545D01*
X203127413Y-92132545D01*
X203163518Y-92136101D01*
X203199623Y-92132545D01*
X203307603Y-92121910D01*
X203446151Y-92079882D01*
X203573838Y-92011632D01*
X203685756Y-91919783D01*
X203777605Y-91807865D01*
X203845855Y-91680178D01*
X203887883Y-91541630D01*
X203902074Y-91397545D01*
X203898518Y-91361440D01*
X203898518Y-78633049D01*
X203902074Y-78596945D01*
X203887883Y-78452860D01*
X203845855Y-78314312D01*
X203777605Y-78186625D01*
X203685756Y-78074707D01*
X203573838Y-77982858D01*
X203446151Y-77914608D01*
X203307603Y-77872580D01*
X203199623Y-77861945D01*
X203163518Y-77858389D01*
X203127413Y-77861945D01*
X203087919Y-77861945D01*
X203087083Y-77853460D01*
X203045055Y-77714912D01*
X202976805Y-77587225D01*
X202884956Y-77475307D01*
X202773038Y-77383458D01*
X202645351Y-77315208D01*
X202506803Y-77273180D01*
X202398823Y-77262545D01*
X202362718Y-77258989D01*
X202326613Y-77262545D01*
X188399523Y-77262545D01*
X188363418Y-77258989D01*
X188327313Y-77262545D01*
X188219333Y-77273180D01*
X188080785Y-77315208D01*
X187953098Y-77383458D01*
X187841180Y-77475307D01*
X187749331Y-77587225D01*
X187681081Y-77714912D01*
X187639053Y-77853460D01*
X187638217Y-77861945D01*
X187598723Y-77861945D01*
X187562618Y-77858389D01*
X187526513Y-77861945D01*
X187418533Y-77872580D01*
X187279985Y-77914608D01*
X187152298Y-77982858D01*
X187040380Y-78074707D01*
X186948531Y-78186625D01*
X186880281Y-78314312D01*
X186838253Y-78452860D01*
X186824062Y-78596945D01*
X186182000Y-78596945D01*
X186182000Y-76708000D01*
X204470000Y-76708000D01*
X204470000Y-93345000D01*
G36*
X223520000Y-93345000D02*
G01*
X205232000Y-93345000D01*
X205232000Y-78596945D01*
X205874062Y-78596945D01*
X205877618Y-78633049D01*
X205877619Y-91361430D01*
X205874062Y-91397545D01*
X205888253Y-91541630D01*
X205930281Y-91680178D01*
X205998531Y-91807865D01*
X206090380Y-91919783D01*
X206202298Y-92011632D01*
X206329985Y-92079882D01*
X206468533Y-92121910D01*
X206576513Y-92132545D01*
X206612618Y-92136101D01*
X206648723Y-92132545D01*
X206688227Y-92132545D01*
X206689053Y-92140930D01*
X206731081Y-92279478D01*
X206799331Y-92407165D01*
X206891180Y-92519083D01*
X207003098Y-92610932D01*
X207130785Y-92679182D01*
X207269333Y-92721210D01*
X207377313Y-92731845D01*
X207413418Y-92735401D01*
X207449523Y-92731845D01*
X221376613Y-92731845D01*
X221412718Y-92735401D01*
X221448823Y-92731845D01*
X221556803Y-92721210D01*
X221695351Y-92679182D01*
X221823038Y-92610932D01*
X221934956Y-92519083D01*
X222026805Y-92407165D01*
X222095055Y-92279478D01*
X222137083Y-92140930D01*
X222137909Y-92132545D01*
X222177413Y-92132545D01*
X222213518Y-92136101D01*
X222249623Y-92132545D01*
X222357603Y-92121910D01*
X222496151Y-92079882D01*
X222623838Y-92011632D01*
X222735756Y-91919783D01*
X222827605Y-91807865D01*
X222895855Y-91680178D01*
X222937883Y-91541630D01*
X222952074Y-91397545D01*
X222948518Y-91361440D01*
X222948518Y-78633049D01*
X222952074Y-78596945D01*
X222937883Y-78452860D01*
X222895855Y-78314312D01*
X222827605Y-78186625D01*
X222735756Y-78074707D01*
X222623838Y-77982858D01*
X222496151Y-77914608D01*
X222357603Y-77872580D01*
X222249623Y-77861945D01*
X222213518Y-77858389D01*
X222177413Y-77861945D01*
X222137919Y-77861945D01*
X222137083Y-77853460D01*
X222095055Y-77714912D01*
X222026805Y-77587225D01*
X221934956Y-77475307D01*
X221823038Y-77383458D01*
X221695351Y-77315208D01*
X221556803Y-77273180D01*
X221448823Y-77262545D01*
X221412718Y-77258989D01*
X221376613Y-77262545D01*
X207449523Y-77262545D01*
X207413418Y-77258989D01*
X207377313Y-77262545D01*
X207269333Y-77273180D01*
X207130785Y-77315208D01*
X207003098Y-77383458D01*
X206891180Y-77475307D01*
X206799331Y-77587225D01*
X206731081Y-77714912D01*
X206689053Y-77853460D01*
X206688217Y-77861945D01*
X206648723Y-77861945D01*
X206612618Y-77858389D01*
X206576513Y-77861945D01*
X206468533Y-77872580D01*
X206329985Y-77914608D01*
X206202298Y-77982858D01*
X206090380Y-78074707D01*
X205998531Y-78186625D01*
X205930281Y-78314312D01*
X205888253Y-78452860D01*
X205874062Y-78596945D01*
X205232000Y-78596945D01*
X205232000Y-76708000D01*
X223520000Y-76708000D01*
X223520000Y-93345000D01*
X223520000Y-93345000D01*
G37*
X223520000Y-93345000D02*
X205232000Y-93345000D01*
X205232000Y-78596945D01*
X205874062Y-78596945D01*
X205877618Y-78633049D01*
X205877619Y-91361430D01*
X205874062Y-91397545D01*
X205888253Y-91541630D01*
X205930281Y-91680178D01*
X205998531Y-91807865D01*
X206090380Y-91919783D01*
X206202298Y-92011632D01*
X206329985Y-92079882D01*
X206468533Y-92121910D01*
X206576513Y-92132545D01*
X206612618Y-92136101D01*
X206648723Y-92132545D01*
X206688227Y-92132545D01*
X206689053Y-92140930D01*
X206731081Y-92279478D01*
X206799331Y-92407165D01*
X206891180Y-92519083D01*
X207003098Y-92610932D01*
X207130785Y-92679182D01*
X207269333Y-92721210D01*
X207377313Y-92731845D01*
X207413418Y-92735401D01*
X207449523Y-92731845D01*
X221376613Y-92731845D01*
X221412718Y-92735401D01*
X221448823Y-92731845D01*
X221556803Y-92721210D01*
X221695351Y-92679182D01*
X221823038Y-92610932D01*
X221934956Y-92519083D01*
X222026805Y-92407165D01*
X222095055Y-92279478D01*
X222137083Y-92140930D01*
X222137909Y-92132545D01*
X222177413Y-92132545D01*
X222213518Y-92136101D01*
X222249623Y-92132545D01*
X222357603Y-92121910D01*
X222496151Y-92079882D01*
X222623838Y-92011632D01*
X222735756Y-91919783D01*
X222827605Y-91807865D01*
X222895855Y-91680178D01*
X222937883Y-91541630D01*
X222952074Y-91397545D01*
X222948518Y-91361440D01*
X222948518Y-78633049D01*
X222952074Y-78596945D01*
X222937883Y-78452860D01*
X222895855Y-78314312D01*
X222827605Y-78186625D01*
X222735756Y-78074707D01*
X222623838Y-77982858D01*
X222496151Y-77914608D01*
X222357603Y-77872580D01*
X222249623Y-77861945D01*
X222213518Y-77858389D01*
X222177413Y-77861945D01*
X222137919Y-77861945D01*
X222137083Y-77853460D01*
X222095055Y-77714912D01*
X222026805Y-77587225D01*
X221934956Y-77475307D01*
X221823038Y-77383458D01*
X221695351Y-77315208D01*
X221556803Y-77273180D01*
X221448823Y-77262545D01*
X221412718Y-77258989D01*
X221376613Y-77262545D01*
X207449523Y-77262545D01*
X207413418Y-77258989D01*
X207377313Y-77262545D01*
X207269333Y-77273180D01*
X207130785Y-77315208D01*
X207003098Y-77383458D01*
X206891180Y-77475307D01*
X206799331Y-77587225D01*
X206731081Y-77714912D01*
X206689053Y-77853460D01*
X206688217Y-77861945D01*
X206648723Y-77861945D01*
X206612618Y-77858389D01*
X206576513Y-77861945D01*
X206468533Y-77872580D01*
X206329985Y-77914608D01*
X206202298Y-77982858D01*
X206090380Y-78074707D01*
X205998531Y-78186625D01*
X205930281Y-78314312D01*
X205888253Y-78452860D01*
X205874062Y-78596945D01*
X205232000Y-78596945D01*
X205232000Y-76708000D01*
X223520000Y-76708000D01*
X223520000Y-93345000D01*
G36*
X242570000Y-93345000D02*
G01*
X224282000Y-93345000D01*
X224282000Y-78596945D01*
X224924062Y-78596945D01*
X224927618Y-78633049D01*
X224927619Y-91361430D01*
X224924062Y-91397545D01*
X224938253Y-91541630D01*
X224980281Y-91680178D01*
X225048531Y-91807865D01*
X225140380Y-91919783D01*
X225252298Y-92011632D01*
X225379985Y-92079882D01*
X225518533Y-92121910D01*
X225626513Y-92132545D01*
X225662618Y-92136101D01*
X225698723Y-92132545D01*
X225738227Y-92132545D01*
X225739053Y-92140930D01*
X225781081Y-92279478D01*
X225849331Y-92407165D01*
X225941180Y-92519083D01*
X226053098Y-92610932D01*
X226180785Y-92679182D01*
X226319333Y-92721210D01*
X226427313Y-92731845D01*
X226463418Y-92735401D01*
X226499523Y-92731845D01*
X240426613Y-92731845D01*
X240462718Y-92735401D01*
X240498823Y-92731845D01*
X240606803Y-92721210D01*
X240745351Y-92679182D01*
X240873038Y-92610932D01*
X240984956Y-92519083D01*
X241076805Y-92407165D01*
X241145055Y-92279478D01*
X241187083Y-92140930D01*
X241187909Y-92132545D01*
X241226013Y-92132545D01*
X241262118Y-92136101D01*
X241298223Y-92132545D01*
X241406203Y-92121910D01*
X241544751Y-92079882D01*
X241672438Y-92011632D01*
X241784356Y-91919783D01*
X241876205Y-91807865D01*
X241944455Y-91680178D01*
X241986483Y-91541630D01*
X242000674Y-91397545D01*
X241997118Y-91361440D01*
X241997118Y-78633049D01*
X242000674Y-78596945D01*
X241986483Y-78452860D01*
X241944455Y-78314312D01*
X241876205Y-78186625D01*
X241784356Y-78074707D01*
X241672438Y-77982858D01*
X241544751Y-77914608D01*
X241406203Y-77872580D01*
X241298223Y-77861945D01*
X241262118Y-77858389D01*
X241226013Y-77861945D01*
X241187919Y-77861945D01*
X241187083Y-77853460D01*
X241145055Y-77714912D01*
X241076805Y-77587225D01*
X240984956Y-77475307D01*
X240873038Y-77383458D01*
X240745351Y-77315208D01*
X240606803Y-77273180D01*
X240498823Y-77262545D01*
X240462718Y-77258989D01*
X240426613Y-77262545D01*
X226499523Y-77262545D01*
X226463418Y-77258989D01*
X226427313Y-77262545D01*
X226319333Y-77273180D01*
X226180785Y-77315208D01*
X226053098Y-77383458D01*
X225941180Y-77475307D01*
X225849331Y-77587225D01*
X225781081Y-77714912D01*
X225739053Y-77853460D01*
X225738217Y-77861945D01*
X225698723Y-77861945D01*
X225662618Y-77858389D01*
X225626513Y-77861945D01*
X225518533Y-77872580D01*
X225379985Y-77914608D01*
X225252298Y-77982858D01*
X225140380Y-78074707D01*
X225048531Y-78186625D01*
X224980281Y-78314312D01*
X224938253Y-78452860D01*
X224924062Y-78596945D01*
X224282000Y-78596945D01*
X224282000Y-76708000D01*
X242570000Y-76708000D01*
X242570000Y-93345000D01*
X242570000Y-93345000D01*
G37*
X242570000Y-93345000D02*
X224282000Y-93345000D01*
X224282000Y-78596945D01*
X224924062Y-78596945D01*
X224927618Y-78633049D01*
X224927619Y-91361430D01*
X224924062Y-91397545D01*
X224938253Y-91541630D01*
X224980281Y-91680178D01*
X225048531Y-91807865D01*
X225140380Y-91919783D01*
X225252298Y-92011632D01*
X225379985Y-92079882D01*
X225518533Y-92121910D01*
X225626513Y-92132545D01*
X225662618Y-92136101D01*
X225698723Y-92132545D01*
X225738227Y-92132545D01*
X225739053Y-92140930D01*
X225781081Y-92279478D01*
X225849331Y-92407165D01*
X225941180Y-92519083D01*
X226053098Y-92610932D01*
X226180785Y-92679182D01*
X226319333Y-92721210D01*
X226427313Y-92731845D01*
X226463418Y-92735401D01*
X226499523Y-92731845D01*
X240426613Y-92731845D01*
X240462718Y-92735401D01*
X240498823Y-92731845D01*
X240606803Y-92721210D01*
X240745351Y-92679182D01*
X240873038Y-92610932D01*
X240984956Y-92519083D01*
X241076805Y-92407165D01*
X241145055Y-92279478D01*
X241187083Y-92140930D01*
X241187909Y-92132545D01*
X241226013Y-92132545D01*
X241262118Y-92136101D01*
X241298223Y-92132545D01*
X241406203Y-92121910D01*
X241544751Y-92079882D01*
X241672438Y-92011632D01*
X241784356Y-91919783D01*
X241876205Y-91807865D01*
X241944455Y-91680178D01*
X241986483Y-91541630D01*
X242000674Y-91397545D01*
X241997118Y-91361440D01*
X241997118Y-78633049D01*
X242000674Y-78596945D01*
X241986483Y-78452860D01*
X241944455Y-78314312D01*
X241876205Y-78186625D01*
X241784356Y-78074707D01*
X241672438Y-77982858D01*
X241544751Y-77914608D01*
X241406203Y-77872580D01*
X241298223Y-77861945D01*
X241262118Y-77858389D01*
X241226013Y-77861945D01*
X241187919Y-77861945D01*
X241187083Y-77853460D01*
X241145055Y-77714912D01*
X241076805Y-77587225D01*
X240984956Y-77475307D01*
X240873038Y-77383458D01*
X240745351Y-77315208D01*
X240606803Y-77273180D01*
X240498823Y-77262545D01*
X240462718Y-77258989D01*
X240426613Y-77262545D01*
X226499523Y-77262545D01*
X226463418Y-77258989D01*
X226427313Y-77262545D01*
X226319333Y-77273180D01*
X226180785Y-77315208D01*
X226053098Y-77383458D01*
X225941180Y-77475307D01*
X225849331Y-77587225D01*
X225781081Y-77714912D01*
X225739053Y-77853460D01*
X225738217Y-77861945D01*
X225698723Y-77861945D01*
X225662618Y-77858389D01*
X225626513Y-77861945D01*
X225518533Y-77872580D01*
X225379985Y-77914608D01*
X225252298Y-77982858D01*
X225140380Y-78074707D01*
X225048531Y-78186625D01*
X224980281Y-78314312D01*
X224938253Y-78452860D01*
X224924062Y-78596945D01*
X224282000Y-78596945D01*
X224282000Y-76708000D01*
X242570000Y-76708000D01*
X242570000Y-93345000D01*
G36*
X242570000Y-74295000D02*
G01*
X224282000Y-74295000D01*
X224282000Y-59546945D01*
X224924062Y-59546945D01*
X224927618Y-59583049D01*
X224927619Y-72311430D01*
X224924062Y-72347545D01*
X224938253Y-72491630D01*
X224980281Y-72630178D01*
X225048531Y-72757865D01*
X225140380Y-72869783D01*
X225252298Y-72961632D01*
X225379985Y-73029882D01*
X225518533Y-73071910D01*
X225626513Y-73082545D01*
X225662618Y-73086101D01*
X225698723Y-73082545D01*
X225738227Y-73082545D01*
X225739053Y-73090930D01*
X225781081Y-73229478D01*
X225849331Y-73357165D01*
X225941180Y-73469083D01*
X226053098Y-73560932D01*
X226180785Y-73629182D01*
X226319333Y-73671210D01*
X226427313Y-73681845D01*
X226463418Y-73685401D01*
X226499523Y-73681845D01*
X240426613Y-73681845D01*
X240462718Y-73685401D01*
X240498823Y-73681845D01*
X240606803Y-73671210D01*
X240745351Y-73629182D01*
X240873038Y-73560932D01*
X240984956Y-73469083D01*
X241076805Y-73357165D01*
X241145055Y-73229478D01*
X241187083Y-73090930D01*
X241187909Y-73082545D01*
X241226013Y-73082545D01*
X241262118Y-73086101D01*
X241298223Y-73082545D01*
X241406203Y-73071910D01*
X241544751Y-73029882D01*
X241672438Y-72961632D01*
X241784356Y-72869783D01*
X241876205Y-72757865D01*
X241944455Y-72630178D01*
X241986483Y-72491630D01*
X242000674Y-72347545D01*
X241997118Y-72311440D01*
X241997118Y-59583049D01*
X242000674Y-59546945D01*
X241986483Y-59402860D01*
X241944455Y-59264312D01*
X241876205Y-59136625D01*
X241784356Y-59024707D01*
X241672438Y-58932858D01*
X241544751Y-58864608D01*
X241406203Y-58822580D01*
X241298223Y-58811945D01*
X241262118Y-58808389D01*
X241226013Y-58811945D01*
X241187919Y-58811945D01*
X241187083Y-58803460D01*
X241145055Y-58664912D01*
X241076805Y-58537225D01*
X240984956Y-58425307D01*
X240873038Y-58333458D01*
X240745351Y-58265208D01*
X240606803Y-58223180D01*
X240498823Y-58212545D01*
X240462718Y-58208989D01*
X240426613Y-58212545D01*
X226499523Y-58212545D01*
X226463418Y-58208989D01*
X226427313Y-58212545D01*
X226319333Y-58223180D01*
X226180785Y-58265208D01*
X226053098Y-58333458D01*
X225941180Y-58425307D01*
X225849331Y-58537225D01*
X225781081Y-58664912D01*
X225739053Y-58803460D01*
X225738217Y-58811945D01*
X225698723Y-58811945D01*
X225662618Y-58808389D01*
X225626513Y-58811945D01*
X225518533Y-58822580D01*
X225379985Y-58864608D01*
X225252298Y-58932858D01*
X225140380Y-59024707D01*
X225048531Y-59136625D01*
X224980281Y-59264312D01*
X224938253Y-59402860D01*
X224924062Y-59546945D01*
X224282000Y-59546945D01*
X224282000Y-57658000D01*
X242570000Y-57658000D01*
X242570000Y-74295000D01*
X242570000Y-74295000D01*
G37*
X242570000Y-74295000D02*
X224282000Y-74295000D01*
X224282000Y-59546945D01*
X224924062Y-59546945D01*
X224927618Y-59583049D01*
X224927619Y-72311430D01*
X224924062Y-72347545D01*
X224938253Y-72491630D01*
X224980281Y-72630178D01*
X225048531Y-72757865D01*
X225140380Y-72869783D01*
X225252298Y-72961632D01*
X225379985Y-73029882D01*
X225518533Y-73071910D01*
X225626513Y-73082545D01*
X225662618Y-73086101D01*
X225698723Y-73082545D01*
X225738227Y-73082545D01*
X225739053Y-73090930D01*
X225781081Y-73229478D01*
X225849331Y-73357165D01*
X225941180Y-73469083D01*
X226053098Y-73560932D01*
X226180785Y-73629182D01*
X226319333Y-73671210D01*
X226427313Y-73681845D01*
X226463418Y-73685401D01*
X226499523Y-73681845D01*
X240426613Y-73681845D01*
X240462718Y-73685401D01*
X240498823Y-73681845D01*
X240606803Y-73671210D01*
X240745351Y-73629182D01*
X240873038Y-73560932D01*
X240984956Y-73469083D01*
X241076805Y-73357165D01*
X241145055Y-73229478D01*
X241187083Y-73090930D01*
X241187909Y-73082545D01*
X241226013Y-73082545D01*
X241262118Y-73086101D01*
X241298223Y-73082545D01*
X241406203Y-73071910D01*
X241544751Y-73029882D01*
X241672438Y-72961632D01*
X241784356Y-72869783D01*
X241876205Y-72757865D01*
X241944455Y-72630178D01*
X241986483Y-72491630D01*
X242000674Y-72347545D01*
X241997118Y-72311440D01*
X241997118Y-59583049D01*
X242000674Y-59546945D01*
X241986483Y-59402860D01*
X241944455Y-59264312D01*
X241876205Y-59136625D01*
X241784356Y-59024707D01*
X241672438Y-58932858D01*
X241544751Y-58864608D01*
X241406203Y-58822580D01*
X241298223Y-58811945D01*
X241262118Y-58808389D01*
X241226013Y-58811945D01*
X241187919Y-58811945D01*
X241187083Y-58803460D01*
X241145055Y-58664912D01*
X241076805Y-58537225D01*
X240984956Y-58425307D01*
X240873038Y-58333458D01*
X240745351Y-58265208D01*
X240606803Y-58223180D01*
X240498823Y-58212545D01*
X240462718Y-58208989D01*
X240426613Y-58212545D01*
X226499523Y-58212545D01*
X226463418Y-58208989D01*
X226427313Y-58212545D01*
X226319333Y-58223180D01*
X226180785Y-58265208D01*
X226053098Y-58333458D01*
X225941180Y-58425307D01*
X225849331Y-58537225D01*
X225781081Y-58664912D01*
X225739053Y-58803460D01*
X225738217Y-58811945D01*
X225698723Y-58811945D01*
X225662618Y-58808389D01*
X225626513Y-58811945D01*
X225518533Y-58822580D01*
X225379985Y-58864608D01*
X225252298Y-58932858D01*
X225140380Y-59024707D01*
X225048531Y-59136625D01*
X224980281Y-59264312D01*
X224938253Y-59402860D01*
X224924062Y-59546945D01*
X224282000Y-59546945D01*
X224282000Y-57658000D01*
X242570000Y-57658000D01*
X242570000Y-74295000D01*
G36*
X223520000Y-74295000D02*
G01*
X205232000Y-74295000D01*
X205232000Y-59546945D01*
X205874062Y-59546945D01*
X205877618Y-59583049D01*
X205877619Y-72311430D01*
X205874062Y-72347545D01*
X205888253Y-72491630D01*
X205930281Y-72630178D01*
X205998531Y-72757865D01*
X206090380Y-72869783D01*
X206202298Y-72961632D01*
X206329985Y-73029882D01*
X206468533Y-73071910D01*
X206576513Y-73082545D01*
X206612618Y-73086101D01*
X206648723Y-73082545D01*
X206688227Y-73082545D01*
X206689053Y-73090930D01*
X206731081Y-73229478D01*
X206799331Y-73357165D01*
X206891180Y-73469083D01*
X207003098Y-73560932D01*
X207130785Y-73629182D01*
X207269333Y-73671210D01*
X207377313Y-73681845D01*
X207413418Y-73685401D01*
X207449523Y-73681845D01*
X221376613Y-73681845D01*
X221412718Y-73685401D01*
X221448823Y-73681845D01*
X221556803Y-73671210D01*
X221695351Y-73629182D01*
X221823038Y-73560932D01*
X221934956Y-73469083D01*
X222026805Y-73357165D01*
X222095055Y-73229478D01*
X222137083Y-73090930D01*
X222137909Y-73082545D01*
X222177413Y-73082545D01*
X222213518Y-73086101D01*
X222249623Y-73082545D01*
X222357603Y-73071910D01*
X222496151Y-73029882D01*
X222623838Y-72961632D01*
X222735756Y-72869783D01*
X222827605Y-72757865D01*
X222895855Y-72630178D01*
X222937883Y-72491630D01*
X222952074Y-72347545D01*
X222948518Y-72311440D01*
X222948518Y-59583049D01*
X222952074Y-59546945D01*
X222937883Y-59402860D01*
X222895855Y-59264312D01*
X222827605Y-59136625D01*
X222735756Y-59024707D01*
X222623838Y-58932858D01*
X222496151Y-58864608D01*
X222357603Y-58822580D01*
X222249623Y-58811945D01*
X222213518Y-58808389D01*
X222177413Y-58811945D01*
X222137919Y-58811945D01*
X222137083Y-58803460D01*
X222095055Y-58664912D01*
X222026805Y-58537225D01*
X221934956Y-58425307D01*
X221823038Y-58333458D01*
X221695351Y-58265208D01*
X221556803Y-58223180D01*
X221448823Y-58212545D01*
X221412718Y-58208989D01*
X221376613Y-58212545D01*
X207449523Y-58212545D01*
X207413418Y-58208989D01*
X207377313Y-58212545D01*
X207269333Y-58223180D01*
X207130785Y-58265208D01*
X207003098Y-58333458D01*
X206891180Y-58425307D01*
X206799331Y-58537225D01*
X206731081Y-58664912D01*
X206689053Y-58803460D01*
X206688217Y-58811945D01*
X206648723Y-58811945D01*
X206612618Y-58808389D01*
X206576513Y-58811945D01*
X206468533Y-58822580D01*
X206329985Y-58864608D01*
X206202298Y-58932858D01*
X206090380Y-59024707D01*
X205998531Y-59136625D01*
X205930281Y-59264312D01*
X205888253Y-59402860D01*
X205874062Y-59546945D01*
X205232000Y-59546945D01*
X205232000Y-57658000D01*
X223520000Y-57658000D01*
X223520000Y-74295000D01*
X223520000Y-74295000D01*
G37*
X223520000Y-74295000D02*
X205232000Y-74295000D01*
X205232000Y-59546945D01*
X205874062Y-59546945D01*
X205877618Y-59583049D01*
X205877619Y-72311430D01*
X205874062Y-72347545D01*
X205888253Y-72491630D01*
X205930281Y-72630178D01*
X205998531Y-72757865D01*
X206090380Y-72869783D01*
X206202298Y-72961632D01*
X206329985Y-73029882D01*
X206468533Y-73071910D01*
X206576513Y-73082545D01*
X206612618Y-73086101D01*
X206648723Y-73082545D01*
X206688227Y-73082545D01*
X206689053Y-73090930D01*
X206731081Y-73229478D01*
X206799331Y-73357165D01*
X206891180Y-73469083D01*
X207003098Y-73560932D01*
X207130785Y-73629182D01*
X207269333Y-73671210D01*
X207377313Y-73681845D01*
X207413418Y-73685401D01*
X207449523Y-73681845D01*
X221376613Y-73681845D01*
X221412718Y-73685401D01*
X221448823Y-73681845D01*
X221556803Y-73671210D01*
X221695351Y-73629182D01*
X221823038Y-73560932D01*
X221934956Y-73469083D01*
X222026805Y-73357165D01*
X222095055Y-73229478D01*
X222137083Y-73090930D01*
X222137909Y-73082545D01*
X222177413Y-73082545D01*
X222213518Y-73086101D01*
X222249623Y-73082545D01*
X222357603Y-73071910D01*
X222496151Y-73029882D01*
X222623838Y-72961632D01*
X222735756Y-72869783D01*
X222827605Y-72757865D01*
X222895855Y-72630178D01*
X222937883Y-72491630D01*
X222952074Y-72347545D01*
X222948518Y-72311440D01*
X222948518Y-59583049D01*
X222952074Y-59546945D01*
X222937883Y-59402860D01*
X222895855Y-59264312D01*
X222827605Y-59136625D01*
X222735756Y-59024707D01*
X222623838Y-58932858D01*
X222496151Y-58864608D01*
X222357603Y-58822580D01*
X222249623Y-58811945D01*
X222213518Y-58808389D01*
X222177413Y-58811945D01*
X222137919Y-58811945D01*
X222137083Y-58803460D01*
X222095055Y-58664912D01*
X222026805Y-58537225D01*
X221934956Y-58425307D01*
X221823038Y-58333458D01*
X221695351Y-58265208D01*
X221556803Y-58223180D01*
X221448823Y-58212545D01*
X221412718Y-58208989D01*
X221376613Y-58212545D01*
X207449523Y-58212545D01*
X207413418Y-58208989D01*
X207377313Y-58212545D01*
X207269333Y-58223180D01*
X207130785Y-58265208D01*
X207003098Y-58333458D01*
X206891180Y-58425307D01*
X206799331Y-58537225D01*
X206731081Y-58664912D01*
X206689053Y-58803460D01*
X206688217Y-58811945D01*
X206648723Y-58811945D01*
X206612618Y-58808389D01*
X206576513Y-58811945D01*
X206468533Y-58822580D01*
X206329985Y-58864608D01*
X206202298Y-58932858D01*
X206090380Y-59024707D01*
X205998531Y-59136625D01*
X205930281Y-59264312D01*
X205888253Y-59402860D01*
X205874062Y-59546945D01*
X205232000Y-59546945D01*
X205232000Y-57658000D01*
X223520000Y-57658000D01*
X223520000Y-74295000D01*
G36*
X204470000Y-74295000D02*
G01*
X186182000Y-74295000D01*
X186182000Y-59546945D01*
X186824062Y-59546945D01*
X186827618Y-59583049D01*
X186827619Y-72311430D01*
X186824062Y-72347545D01*
X186838253Y-72491630D01*
X186880281Y-72630178D01*
X186948531Y-72757865D01*
X187040380Y-72869783D01*
X187152298Y-72961632D01*
X187279985Y-73029882D01*
X187418533Y-73071910D01*
X187526513Y-73082545D01*
X187562618Y-73086101D01*
X187598723Y-73082545D01*
X187638227Y-73082545D01*
X187639053Y-73090930D01*
X187681081Y-73229478D01*
X187749331Y-73357165D01*
X187841180Y-73469083D01*
X187953098Y-73560932D01*
X188080785Y-73629182D01*
X188219333Y-73671210D01*
X188327313Y-73681845D01*
X188363418Y-73685401D01*
X188399523Y-73681845D01*
X202326613Y-73681845D01*
X202362718Y-73685401D01*
X202398823Y-73681845D01*
X202506803Y-73671210D01*
X202645351Y-73629182D01*
X202773038Y-73560932D01*
X202884956Y-73469083D01*
X202976805Y-73357165D01*
X203045055Y-73229478D01*
X203087083Y-73090930D01*
X203087909Y-73082545D01*
X203127413Y-73082545D01*
X203163518Y-73086101D01*
X203199623Y-73082545D01*
X203307603Y-73071910D01*
X203446151Y-73029882D01*
X203573838Y-72961632D01*
X203685756Y-72869783D01*
X203777605Y-72757865D01*
X203845855Y-72630178D01*
X203887883Y-72491630D01*
X203902074Y-72347545D01*
X203898518Y-72311440D01*
X203898518Y-59583049D01*
X203902074Y-59546945D01*
X203887883Y-59402860D01*
X203845855Y-59264312D01*
X203777605Y-59136625D01*
X203685756Y-59024707D01*
X203573838Y-58932858D01*
X203446151Y-58864608D01*
X203307603Y-58822580D01*
X203199623Y-58811945D01*
X203163518Y-58808389D01*
X203127413Y-58811945D01*
X203087919Y-58811945D01*
X203087083Y-58803460D01*
X203045055Y-58664912D01*
X202976805Y-58537225D01*
X202884956Y-58425307D01*
X202773038Y-58333458D01*
X202645351Y-58265208D01*
X202506803Y-58223180D01*
X202398823Y-58212545D01*
X202362718Y-58208989D01*
X202326613Y-58212545D01*
X188399523Y-58212545D01*
X188363418Y-58208989D01*
X188327313Y-58212545D01*
X188219333Y-58223180D01*
X188080785Y-58265208D01*
X187953098Y-58333458D01*
X187841180Y-58425307D01*
X187749331Y-58537225D01*
X187681081Y-58664912D01*
X187639053Y-58803460D01*
X187638217Y-58811945D01*
X187598723Y-58811945D01*
X187562618Y-58808389D01*
X187526513Y-58811945D01*
X187418533Y-58822580D01*
X187279985Y-58864608D01*
X187152298Y-58932858D01*
X187040380Y-59024707D01*
X186948531Y-59136625D01*
X186880281Y-59264312D01*
X186838253Y-59402860D01*
X186824062Y-59546945D01*
X186182000Y-59546945D01*
X186182000Y-57658000D01*
X204470000Y-57658000D01*
X204470000Y-74295000D01*
X204470000Y-74295000D01*
G37*
X204470000Y-74295000D02*
X186182000Y-74295000D01*
X186182000Y-59546945D01*
X186824062Y-59546945D01*
X186827618Y-59583049D01*
X186827619Y-72311430D01*
X186824062Y-72347545D01*
X186838253Y-72491630D01*
X186880281Y-72630178D01*
X186948531Y-72757865D01*
X187040380Y-72869783D01*
X187152298Y-72961632D01*
X187279985Y-73029882D01*
X187418533Y-73071910D01*
X187526513Y-73082545D01*
X187562618Y-73086101D01*
X187598723Y-73082545D01*
X187638227Y-73082545D01*
X187639053Y-73090930D01*
X187681081Y-73229478D01*
X187749331Y-73357165D01*
X187841180Y-73469083D01*
X187953098Y-73560932D01*
X188080785Y-73629182D01*
X188219333Y-73671210D01*
X188327313Y-73681845D01*
X188363418Y-73685401D01*
X188399523Y-73681845D01*
X202326613Y-73681845D01*
X202362718Y-73685401D01*
X202398823Y-73681845D01*
X202506803Y-73671210D01*
X202645351Y-73629182D01*
X202773038Y-73560932D01*
X202884956Y-73469083D01*
X202976805Y-73357165D01*
X203045055Y-73229478D01*
X203087083Y-73090930D01*
X203087909Y-73082545D01*
X203127413Y-73082545D01*
X203163518Y-73086101D01*
X203199623Y-73082545D01*
X203307603Y-73071910D01*
X203446151Y-73029882D01*
X203573838Y-72961632D01*
X203685756Y-72869783D01*
X203777605Y-72757865D01*
X203845855Y-72630178D01*
X203887883Y-72491630D01*
X203902074Y-72347545D01*
X203898518Y-72311440D01*
X203898518Y-59583049D01*
X203902074Y-59546945D01*
X203887883Y-59402860D01*
X203845855Y-59264312D01*
X203777605Y-59136625D01*
X203685756Y-59024707D01*
X203573838Y-58932858D01*
X203446151Y-58864608D01*
X203307603Y-58822580D01*
X203199623Y-58811945D01*
X203163518Y-58808389D01*
X203127413Y-58811945D01*
X203087919Y-58811945D01*
X203087083Y-58803460D01*
X203045055Y-58664912D01*
X202976805Y-58537225D01*
X202884956Y-58425307D01*
X202773038Y-58333458D01*
X202645351Y-58265208D01*
X202506803Y-58223180D01*
X202398823Y-58212545D01*
X202362718Y-58208989D01*
X202326613Y-58212545D01*
X188399523Y-58212545D01*
X188363418Y-58208989D01*
X188327313Y-58212545D01*
X188219333Y-58223180D01*
X188080785Y-58265208D01*
X187953098Y-58333458D01*
X187841180Y-58425307D01*
X187749331Y-58537225D01*
X187681081Y-58664912D01*
X187639053Y-58803460D01*
X187638217Y-58811945D01*
X187598723Y-58811945D01*
X187562618Y-58808389D01*
X187526513Y-58811945D01*
X187418533Y-58822580D01*
X187279985Y-58864608D01*
X187152298Y-58932858D01*
X187040380Y-59024707D01*
X186948531Y-59136625D01*
X186880281Y-59264312D01*
X186838253Y-59402860D01*
X186824062Y-59546945D01*
X186182000Y-59546945D01*
X186182000Y-57658000D01*
X204470000Y-57658000D01*
X204470000Y-74295000D01*
G36*
X185420000Y-74295000D02*
G01*
X167132000Y-74295000D01*
X167132000Y-59546945D01*
X167774162Y-59546945D01*
X167777718Y-59583049D01*
X167777719Y-72311430D01*
X167774162Y-72347545D01*
X167788353Y-72491630D01*
X167830381Y-72630178D01*
X167898631Y-72757865D01*
X167990480Y-72869783D01*
X168102398Y-72961632D01*
X168230085Y-73029882D01*
X168368633Y-73071910D01*
X168476613Y-73082545D01*
X168512718Y-73086101D01*
X168548823Y-73082545D01*
X168588227Y-73082545D01*
X168589053Y-73090930D01*
X168631081Y-73229478D01*
X168699331Y-73357165D01*
X168791180Y-73469083D01*
X168903098Y-73560932D01*
X169030785Y-73629182D01*
X169169333Y-73671210D01*
X169277313Y-73681845D01*
X169313418Y-73685401D01*
X169349523Y-73681845D01*
X183276613Y-73681845D01*
X183312718Y-73685401D01*
X183348823Y-73681845D01*
X183456803Y-73671210D01*
X183595351Y-73629182D01*
X183723038Y-73560932D01*
X183834956Y-73469083D01*
X183926805Y-73357165D01*
X183995055Y-73229478D01*
X184037083Y-73090930D01*
X184037909Y-73082545D01*
X184077413Y-73082545D01*
X184113518Y-73086101D01*
X184149623Y-73082545D01*
X184257603Y-73071910D01*
X184396151Y-73029882D01*
X184523838Y-72961632D01*
X184635756Y-72869783D01*
X184727605Y-72757865D01*
X184795855Y-72630178D01*
X184837883Y-72491630D01*
X184852074Y-72347545D01*
X184848518Y-72311440D01*
X184848518Y-59583049D01*
X184852074Y-59546945D01*
X184837883Y-59402860D01*
X184795855Y-59264312D01*
X184727605Y-59136625D01*
X184635756Y-59024707D01*
X184523838Y-58932858D01*
X184396151Y-58864608D01*
X184257603Y-58822580D01*
X184149623Y-58811945D01*
X184113518Y-58808389D01*
X184077413Y-58811945D01*
X184037919Y-58811945D01*
X184037083Y-58803460D01*
X183995055Y-58664912D01*
X183926805Y-58537225D01*
X183834956Y-58425307D01*
X183723038Y-58333458D01*
X183595351Y-58265208D01*
X183456803Y-58223180D01*
X183348823Y-58212545D01*
X183312718Y-58208989D01*
X183276613Y-58212545D01*
X169349523Y-58212545D01*
X169313418Y-58208989D01*
X169277313Y-58212545D01*
X169169333Y-58223180D01*
X169030785Y-58265208D01*
X168903098Y-58333458D01*
X168791180Y-58425307D01*
X168699331Y-58537225D01*
X168631081Y-58664912D01*
X168589053Y-58803460D01*
X168588217Y-58811945D01*
X168548823Y-58811945D01*
X168512718Y-58808389D01*
X168476613Y-58811945D01*
X168368633Y-58822580D01*
X168230085Y-58864608D01*
X168102398Y-58932858D01*
X167990480Y-59024707D01*
X167898631Y-59136625D01*
X167830381Y-59264312D01*
X167788353Y-59402860D01*
X167774162Y-59546945D01*
X167132000Y-59546945D01*
X167132000Y-57658000D01*
X185420000Y-57658000D01*
X185420000Y-74295000D01*
X185420000Y-74295000D01*
G37*
X185420000Y-74295000D02*
X167132000Y-74295000D01*
X167132000Y-59546945D01*
X167774162Y-59546945D01*
X167777718Y-59583049D01*
X167777719Y-72311430D01*
X167774162Y-72347545D01*
X167788353Y-72491630D01*
X167830381Y-72630178D01*
X167898631Y-72757865D01*
X167990480Y-72869783D01*
X168102398Y-72961632D01*
X168230085Y-73029882D01*
X168368633Y-73071910D01*
X168476613Y-73082545D01*
X168512718Y-73086101D01*
X168548823Y-73082545D01*
X168588227Y-73082545D01*
X168589053Y-73090930D01*
X168631081Y-73229478D01*
X168699331Y-73357165D01*
X168791180Y-73469083D01*
X168903098Y-73560932D01*
X169030785Y-73629182D01*
X169169333Y-73671210D01*
X169277313Y-73681845D01*
X169313418Y-73685401D01*
X169349523Y-73681845D01*
X183276613Y-73681845D01*
X183312718Y-73685401D01*
X183348823Y-73681845D01*
X183456803Y-73671210D01*
X183595351Y-73629182D01*
X183723038Y-73560932D01*
X183834956Y-73469083D01*
X183926805Y-73357165D01*
X183995055Y-73229478D01*
X184037083Y-73090930D01*
X184037909Y-73082545D01*
X184077413Y-73082545D01*
X184113518Y-73086101D01*
X184149623Y-73082545D01*
X184257603Y-73071910D01*
X184396151Y-73029882D01*
X184523838Y-72961632D01*
X184635756Y-72869783D01*
X184727605Y-72757865D01*
X184795855Y-72630178D01*
X184837883Y-72491630D01*
X184852074Y-72347545D01*
X184848518Y-72311440D01*
X184848518Y-59583049D01*
X184852074Y-59546945D01*
X184837883Y-59402860D01*
X184795855Y-59264312D01*
X184727605Y-59136625D01*
X184635756Y-59024707D01*
X184523838Y-58932858D01*
X184396151Y-58864608D01*
X184257603Y-58822580D01*
X184149623Y-58811945D01*
X184113518Y-58808389D01*
X184077413Y-58811945D01*
X184037919Y-58811945D01*
X184037083Y-58803460D01*
X183995055Y-58664912D01*
X183926805Y-58537225D01*
X183834956Y-58425307D01*
X183723038Y-58333458D01*
X183595351Y-58265208D01*
X183456803Y-58223180D01*
X183348823Y-58212545D01*
X183312718Y-58208989D01*
X183276613Y-58212545D01*
X169349523Y-58212545D01*
X169313418Y-58208989D01*
X169277313Y-58212545D01*
X169169333Y-58223180D01*
X169030785Y-58265208D01*
X168903098Y-58333458D01*
X168791180Y-58425307D01*
X168699331Y-58537225D01*
X168631081Y-58664912D01*
X168589053Y-58803460D01*
X168588217Y-58811945D01*
X168548823Y-58811945D01*
X168512718Y-58808389D01*
X168476613Y-58811945D01*
X168368633Y-58822580D01*
X168230085Y-58864608D01*
X168102398Y-58932858D01*
X167990480Y-59024707D01*
X167898631Y-59136625D01*
X167830381Y-59264312D01*
X167788353Y-59402860D01*
X167774162Y-59546945D01*
X167132000Y-59546945D01*
X167132000Y-57658000D01*
X185420000Y-57658000D01*
X185420000Y-74295000D01*
G36*
X166370000Y-74295000D02*
G01*
X148082000Y-74295000D01*
X148082000Y-59546945D01*
X148724172Y-59546945D01*
X148727728Y-59583049D01*
X148727729Y-72311430D01*
X148724172Y-72347545D01*
X148738363Y-72491630D01*
X148780391Y-72630178D01*
X148848641Y-72757865D01*
X148940490Y-72869783D01*
X149052408Y-72961632D01*
X149180095Y-73029882D01*
X149318643Y-73071910D01*
X149426623Y-73082545D01*
X149462728Y-73086101D01*
X149498833Y-73082545D01*
X149538177Y-73082545D01*
X149539003Y-73090930D01*
X149581031Y-73229478D01*
X149649281Y-73357165D01*
X149741130Y-73469083D01*
X149853048Y-73560932D01*
X149980735Y-73629182D01*
X150119283Y-73671210D01*
X150227263Y-73681845D01*
X150263368Y-73685401D01*
X150299473Y-73681845D01*
X164226813Y-73681845D01*
X164262918Y-73685401D01*
X164299023Y-73681845D01*
X164407003Y-73671210D01*
X164545551Y-73629182D01*
X164673238Y-73560932D01*
X164785156Y-73469083D01*
X164877005Y-73357165D01*
X164945255Y-73229478D01*
X164987283Y-73090930D01*
X164988109Y-73082545D01*
X165027413Y-73082545D01*
X165063518Y-73086101D01*
X165099623Y-73082545D01*
X165207603Y-73071910D01*
X165346151Y-73029882D01*
X165473838Y-72961632D01*
X165585756Y-72869783D01*
X165677605Y-72757865D01*
X165745855Y-72630178D01*
X165787883Y-72491630D01*
X165802074Y-72347545D01*
X165798518Y-72311440D01*
X165798518Y-59583049D01*
X165802074Y-59546945D01*
X165787883Y-59402860D01*
X165745855Y-59264312D01*
X165677605Y-59136625D01*
X165585756Y-59024707D01*
X165473838Y-58932858D01*
X165346151Y-58864608D01*
X165207603Y-58822580D01*
X165099623Y-58811945D01*
X165063518Y-58808389D01*
X165027413Y-58811945D01*
X164988119Y-58811945D01*
X164987283Y-58803460D01*
X164945255Y-58664912D01*
X164877005Y-58537225D01*
X164785156Y-58425307D01*
X164673238Y-58333458D01*
X164545551Y-58265208D01*
X164407003Y-58223180D01*
X164299023Y-58212545D01*
X164262918Y-58208989D01*
X164226813Y-58212545D01*
X150299473Y-58212545D01*
X150263368Y-58208989D01*
X150227263Y-58212545D01*
X150119283Y-58223180D01*
X149980735Y-58265208D01*
X149853048Y-58333458D01*
X149741130Y-58425307D01*
X149649281Y-58537225D01*
X149581031Y-58664912D01*
X149539003Y-58803460D01*
X149538167Y-58811945D01*
X149498833Y-58811945D01*
X149462728Y-58808389D01*
X149426623Y-58811945D01*
X149318643Y-58822580D01*
X149180095Y-58864608D01*
X149052408Y-58932858D01*
X148940490Y-59024707D01*
X148848641Y-59136625D01*
X148780391Y-59264312D01*
X148738363Y-59402860D01*
X148724172Y-59546945D01*
X148082000Y-59546945D01*
X148082000Y-57658000D01*
X166370000Y-57658000D01*
X166370000Y-74295000D01*
X166370000Y-74295000D01*
G37*
X166370000Y-74295000D02*
X148082000Y-74295000D01*
X148082000Y-59546945D01*
X148724172Y-59546945D01*
X148727728Y-59583049D01*
X148727729Y-72311430D01*
X148724172Y-72347545D01*
X148738363Y-72491630D01*
X148780391Y-72630178D01*
X148848641Y-72757865D01*
X148940490Y-72869783D01*
X149052408Y-72961632D01*
X149180095Y-73029882D01*
X149318643Y-73071910D01*
X149426623Y-73082545D01*
X149462728Y-73086101D01*
X149498833Y-73082545D01*
X149538177Y-73082545D01*
X149539003Y-73090930D01*
X149581031Y-73229478D01*
X149649281Y-73357165D01*
X149741130Y-73469083D01*
X149853048Y-73560932D01*
X149980735Y-73629182D01*
X150119283Y-73671210D01*
X150227263Y-73681845D01*
X150263368Y-73685401D01*
X150299473Y-73681845D01*
X164226813Y-73681845D01*
X164262918Y-73685401D01*
X164299023Y-73681845D01*
X164407003Y-73671210D01*
X164545551Y-73629182D01*
X164673238Y-73560932D01*
X164785156Y-73469083D01*
X164877005Y-73357165D01*
X164945255Y-73229478D01*
X164987283Y-73090930D01*
X164988109Y-73082545D01*
X165027413Y-73082545D01*
X165063518Y-73086101D01*
X165099623Y-73082545D01*
X165207603Y-73071910D01*
X165346151Y-73029882D01*
X165473838Y-72961632D01*
X165585756Y-72869783D01*
X165677605Y-72757865D01*
X165745855Y-72630178D01*
X165787883Y-72491630D01*
X165802074Y-72347545D01*
X165798518Y-72311440D01*
X165798518Y-59583049D01*
X165802074Y-59546945D01*
X165787883Y-59402860D01*
X165745855Y-59264312D01*
X165677605Y-59136625D01*
X165585756Y-59024707D01*
X165473838Y-58932858D01*
X165346151Y-58864608D01*
X165207603Y-58822580D01*
X165099623Y-58811945D01*
X165063518Y-58808389D01*
X165027413Y-58811945D01*
X164988119Y-58811945D01*
X164987283Y-58803460D01*
X164945255Y-58664912D01*
X164877005Y-58537225D01*
X164785156Y-58425307D01*
X164673238Y-58333458D01*
X164545551Y-58265208D01*
X164407003Y-58223180D01*
X164299023Y-58212545D01*
X164262918Y-58208989D01*
X164226813Y-58212545D01*
X150299473Y-58212545D01*
X150263368Y-58208989D01*
X150227263Y-58212545D01*
X150119283Y-58223180D01*
X149980735Y-58265208D01*
X149853048Y-58333458D01*
X149741130Y-58425307D01*
X149649281Y-58537225D01*
X149581031Y-58664912D01*
X149539003Y-58803460D01*
X149538167Y-58811945D01*
X149498833Y-58811945D01*
X149462728Y-58808389D01*
X149426623Y-58811945D01*
X149318643Y-58822580D01*
X149180095Y-58864608D01*
X149052408Y-58932858D01*
X148940490Y-59024707D01*
X148848641Y-59136625D01*
X148780391Y-59264312D01*
X148738363Y-59402860D01*
X148724172Y-59546945D01*
X148082000Y-59546945D01*
X148082000Y-57658000D01*
X166370000Y-57658000D01*
X166370000Y-74295000D01*
M02*
