%FSLAX45Y45*%
G04 Gerber Fmt 4.5, Leading zero omitted, Abs format (unit mm)*
G04 Created by KiCad (PCBNEW (5.1.9)-1) date 2021-01-20 18:14:50*
%MOMM*%
%LPD*%
G01*
G04 APERTURE LIST*
%TA.AperFunction,Profile*%
%ADD10C,0.200000*%
%TD*%
%ADD11C,0.200000*%
%ADD12C,0.300000*%
G04 APERTURE END LIST*
D10*
X25261495Y-10742729D02*
G75*
G02*
X25020530Y-10375704I159036J367025D01*
G01*
X21742719Y-12482290D02*
G75*
G02*
X22142719Y-12882471I0J-400000D01*
G01*
X25261495Y-10742729D02*
G75*
G02*
X25502459Y-11109757I-159036J-367025D01*
G01*
X25502443Y-13508927D02*
G75*
G02*
X25102443Y-13908924I-400000J3D01*
G01*
X22542434Y-13908924D02*
G75*
G02*
X22142435Y-13508743I0J400000D01*
G01*
X22542435Y-13908924D02*
X25102443Y-13908924D01*
X22142719Y-12882471D02*
X22142435Y-13508743D01*
X14651817Y-12482290D02*
X21742719Y-12482290D01*
X14451817Y-12482290D02*
G75*
G02*
X14051817Y-12082290I0J400000D01*
G01*
X24620530Y-4996163D02*
G75*
G02*
X25020530Y-5396163I0J-400000D01*
G01*
X14051817Y-5396163D02*
G75*
G02*
X14451817Y-4996163I400000J0D01*
G01*
X25502459Y-11109757D02*
X25502443Y-13508927D01*
X25020530Y-5396163D02*
X25020530Y-10375704D01*
X14451817Y-4996163D02*
X24620530Y-4996163D01*
X14051817Y-5396163D02*
X14051817Y-12082290D01*
X14651817Y-12482290D02*
X14451817Y-12482290D01*
X15026337Y-5894754D02*
X16426292Y-5894754D01*
X16426292Y-5954694D02*
X16426292Y-5894754D01*
X16506352Y-5954694D02*
X16426292Y-5954694D01*
X16506352Y-7234754D02*
X16506352Y-5954694D01*
X16426292Y-7234754D02*
X16506352Y-7234754D01*
X16426292Y-7294684D02*
X16426292Y-7234754D01*
X15026337Y-7294684D02*
X16426292Y-7294684D01*
X15026337Y-7234754D02*
X15026337Y-7294684D01*
X14946273Y-7234754D02*
X15026337Y-7234754D01*
X14946273Y-5954694D02*
X14946273Y-7234754D01*
X15026337Y-5954694D02*
X14946273Y-5954694D01*
X15026337Y-5894754D02*
X15026337Y-5954694D01*
X18331272Y-5894754D02*
X16931342Y-5894754D01*
X18331272Y-5954694D02*
X18331272Y-5894754D01*
X18411352Y-5954694D02*
X18331272Y-5954694D01*
X18411352Y-7234754D02*
X18411352Y-5954694D01*
X18331272Y-7234754D02*
X18411352Y-7234754D01*
X18331272Y-7294684D02*
X18331272Y-7234754D01*
X16931342Y-7294684D02*
X18331272Y-7294684D01*
X16931342Y-7234754D02*
X16931342Y-7294684D01*
X16851272Y-7234754D02*
X16931342Y-7234754D01*
X16851272Y-5954694D02*
X16851272Y-7234754D01*
X16931342Y-5954694D02*
X16851272Y-5954694D01*
X16931342Y-5894754D02*
X16931342Y-5954694D01*
X20236272Y-5894754D02*
X18836342Y-5894754D01*
X20236272Y-5954694D02*
X20236272Y-5894754D01*
X20316352Y-5954694D02*
X20236272Y-5954694D01*
X20316352Y-7234754D02*
X20316352Y-5954694D01*
X20236272Y-7234754D02*
X20316352Y-7234754D01*
X20236272Y-7294684D02*
X20236272Y-7234754D01*
X18836342Y-7294684D02*
X20236272Y-7294684D01*
X18836342Y-7234754D02*
X18836342Y-7294684D01*
X18756262Y-7234754D02*
X18836342Y-7234754D01*
X18756262Y-5954694D02*
X18756262Y-7234754D01*
X18836342Y-5954694D02*
X18756262Y-5954694D01*
X18836342Y-5894754D02*
X18836342Y-5954694D01*
X22141272Y-5894754D02*
X20741342Y-5894754D01*
X22141272Y-5954694D02*
X22141272Y-5894754D01*
X22221352Y-5954694D02*
X22141272Y-5954694D01*
X22221352Y-7234754D02*
X22221352Y-5954694D01*
X22141272Y-7234754D02*
X22221352Y-7234754D01*
X22141272Y-7294684D02*
X22141272Y-7234754D01*
X20741342Y-7294684D02*
X22141272Y-7294684D01*
X20741342Y-7234754D02*
X20741342Y-7294684D01*
X20661262Y-7234754D02*
X20741342Y-7234754D01*
X20661262Y-5954694D02*
X20661262Y-7234754D01*
X20741342Y-5954694D02*
X20661262Y-5954694D01*
X20741342Y-5894754D02*
X20741342Y-5954694D01*
X24046272Y-5894754D02*
X22646342Y-5894754D01*
X24046272Y-5954694D02*
X24046272Y-5894754D01*
X24126212Y-5954694D02*
X24046272Y-5954694D01*
X24126212Y-7234754D02*
X24126212Y-5954694D01*
X24046272Y-7234754D02*
X24126212Y-7234754D01*
X24046272Y-7294684D02*
X24046272Y-7234754D01*
X22646342Y-7294684D02*
X24046272Y-7294684D01*
X22646342Y-7234754D02*
X22646342Y-7294684D01*
X22566262Y-7234754D02*
X22646342Y-7234754D01*
X22566262Y-5954694D02*
X22566262Y-7234754D01*
X22646342Y-5954694D02*
X22566262Y-5954694D01*
X22646342Y-5894754D02*
X22646342Y-5954694D01*
X16426292Y-7799754D02*
X15026337Y-7799754D01*
X16426292Y-7859694D02*
X16426292Y-7799754D01*
X16506352Y-7859694D02*
X16426292Y-7859694D01*
X16506352Y-9139755D02*
X16506352Y-7859694D01*
X16426292Y-9139755D02*
X16506352Y-9139755D01*
X16426292Y-9199685D02*
X16426292Y-9139755D01*
X15026337Y-9199685D02*
X16426292Y-9199685D01*
X15026337Y-9139755D02*
X15026337Y-9199685D01*
X14946273Y-9139755D02*
X15026337Y-9139755D01*
X14946273Y-7859694D02*
X14946273Y-9139755D01*
X15026337Y-7859694D02*
X14946273Y-7859694D01*
X15026337Y-7799754D02*
X15026337Y-7859694D01*
X18331272Y-7799754D02*
X16931342Y-7799754D01*
X18331272Y-7859694D02*
X18331272Y-7799754D01*
X18411352Y-7859694D02*
X18331272Y-7859694D01*
X18411352Y-9139755D02*
X18411352Y-7859694D01*
X18331272Y-9139755D02*
X18411352Y-9139755D01*
X18331272Y-9199685D02*
X18331272Y-9139755D01*
X16931342Y-9199685D02*
X18331272Y-9199685D01*
X16931342Y-9139755D02*
X16931342Y-9199685D01*
X16851272Y-9139755D02*
X16931342Y-9139755D01*
X16851272Y-7859694D02*
X16851272Y-9139755D01*
X16931342Y-7859694D02*
X16851272Y-7859694D01*
X16931342Y-7799754D02*
X16931342Y-7859694D01*
X20236272Y-7799754D02*
X18836342Y-7799754D01*
X20236272Y-7859694D02*
X20236272Y-7799754D01*
X20316352Y-7859694D02*
X20236272Y-7859694D01*
X20316352Y-9139755D02*
X20316352Y-7859694D01*
X20236272Y-9139755D02*
X20316352Y-9139755D01*
X20236272Y-9199685D02*
X20236272Y-9139755D01*
X18836342Y-9199685D02*
X20236272Y-9199685D01*
X18836342Y-9139755D02*
X18836342Y-9199685D01*
X18756262Y-9139755D02*
X18836342Y-9139755D01*
X18756262Y-7859694D02*
X18756262Y-9139755D01*
X18836342Y-7859694D02*
X18756262Y-7859694D01*
X18836342Y-7799754D02*
X18836342Y-7859694D01*
X22141272Y-7799754D02*
X20741342Y-7799754D01*
X22141272Y-7859694D02*
X22141272Y-7799754D01*
X22221352Y-7859694D02*
X22141272Y-7859694D01*
X22221352Y-9139755D02*
X22221352Y-7859694D01*
X22141272Y-9139755D02*
X22221352Y-9139755D01*
X22141272Y-9199685D02*
X22141272Y-9139755D01*
X20741342Y-9199685D02*
X22141272Y-9199685D01*
X20741342Y-9139755D02*
X20741342Y-9199685D01*
X20661262Y-9139755D02*
X20741342Y-9139755D01*
X20661262Y-7859694D02*
X20661262Y-9139755D01*
X20741342Y-7859694D02*
X20661262Y-7859694D01*
X20741342Y-7799754D02*
X20741342Y-7859694D01*
X24046272Y-7799754D02*
X22646342Y-7799754D01*
X24046272Y-7859694D02*
X24046272Y-7799754D01*
X24126212Y-7859694D02*
X24046272Y-7859694D01*
X24126212Y-9139755D02*
X24126212Y-7859694D01*
X24046272Y-9139755D02*
X24126212Y-9139755D01*
X24046272Y-9199685D02*
X24046272Y-9139755D01*
X22646342Y-9199685D02*
X24046272Y-9199685D01*
X22646342Y-9139755D02*
X22646342Y-9199685D01*
X22566262Y-9139755D02*
X22646342Y-9139755D01*
X22566262Y-7859694D02*
X22566262Y-9139755D01*
X22646342Y-7859694D02*
X22566262Y-7859694D01*
X22646342Y-7799754D02*
X22646342Y-7859694D01*
X16426292Y-9704765D02*
X15026337Y-9704765D01*
X16426292Y-9764695D02*
X16426292Y-9704765D01*
X16506352Y-9764695D02*
X16426292Y-9764695D01*
X16506352Y-11044755D02*
X16506352Y-9764695D01*
X16426292Y-11044755D02*
X16506352Y-11044755D01*
X16426292Y-11104705D02*
X16426292Y-11044755D01*
X15026337Y-11104705D02*
X16426292Y-11104705D01*
X15026337Y-11044755D02*
X15026337Y-11104705D01*
X14946273Y-11044755D02*
X15026337Y-11044755D01*
X14946273Y-9764695D02*
X14946273Y-11044755D01*
X15026337Y-9764695D02*
X14946273Y-9764695D01*
X15026337Y-9704765D02*
X15026337Y-9764695D01*
X18331272Y-9704765D02*
X16931342Y-9704765D01*
X18331272Y-9764695D02*
X18331272Y-9704765D01*
X18411352Y-9764695D02*
X18331272Y-9764695D01*
X18411352Y-11044755D02*
X18411352Y-9764695D01*
X18331272Y-11044755D02*
X18411352Y-11044755D01*
X18331272Y-11104705D02*
X18331272Y-11044755D01*
X16931342Y-11104705D02*
X18331272Y-11104705D01*
X16931342Y-11044755D02*
X16931342Y-11104705D01*
X16851272Y-11044755D02*
X16931342Y-11044755D01*
X16851272Y-9764695D02*
X16851272Y-11044755D01*
X16931342Y-9764695D02*
X16851272Y-9764695D01*
X16931342Y-9704765D02*
X16931342Y-9764695D01*
X20236272Y-9704765D02*
X18836342Y-9704765D01*
X20236272Y-9764695D02*
X20236272Y-9704765D01*
X20316352Y-9764695D02*
X20236272Y-9764695D01*
X20316352Y-11044755D02*
X20316352Y-9764695D01*
X20236272Y-11044755D02*
X20316352Y-11044755D01*
X20236272Y-11104705D02*
X20236272Y-11044755D01*
X18836342Y-11104705D02*
X20236272Y-11104705D01*
X18836342Y-11044755D02*
X18836342Y-11104705D01*
X18756262Y-11044755D02*
X18836342Y-11044755D01*
X18756262Y-9764695D02*
X18756262Y-11044755D01*
X18836342Y-9764695D02*
X18756262Y-9764695D01*
X18836342Y-9704765D02*
X18836342Y-9764695D01*
X22141272Y-9704765D02*
X20741342Y-9704765D01*
X22141272Y-9764695D02*
X22141272Y-9704765D01*
X22221352Y-9764695D02*
X22141272Y-9764695D01*
X22221352Y-11044755D02*
X22221352Y-9764695D01*
X22141272Y-11044755D02*
X22221352Y-11044755D01*
X22141272Y-11104705D02*
X22141272Y-11044755D01*
X20741342Y-11104705D02*
X22141272Y-11104705D01*
X20741342Y-11044755D02*
X20741342Y-11104705D01*
X20661262Y-11044755D02*
X20741342Y-11044755D01*
X20661262Y-9764695D02*
X20661262Y-11044755D01*
X20741342Y-9764695D02*
X20661262Y-9764695D01*
X20741342Y-9704765D02*
X20741342Y-9764695D01*
X24046272Y-9704765D02*
X22646342Y-9704765D01*
X24046272Y-9764695D02*
X24046272Y-9704765D01*
X24126212Y-9764695D02*
X24046272Y-9764695D01*
X24126212Y-11044755D02*
X24126212Y-9764695D01*
X24046272Y-11044755D02*
X24126212Y-11044755D01*
X24046272Y-11104705D02*
X24046272Y-11044755D01*
X22646342Y-11104705D02*
X24046272Y-11104705D01*
X22646342Y-11044755D02*
X22646342Y-11104705D01*
X22566262Y-11044755D02*
X22646342Y-11044755D01*
X22566262Y-9764695D02*
X22566262Y-11044755D01*
X22646342Y-9764695D02*
X22566262Y-9764695D01*
X22646342Y-9704765D02*
X22646342Y-9764695D01*
X24522522Y-11609754D02*
X23122592Y-11609754D01*
X24522522Y-11669694D02*
X24522522Y-11609754D01*
X24602462Y-11669694D02*
X24522522Y-11669694D01*
X24602462Y-12949756D02*
X24602462Y-11669694D01*
X24522522Y-12949756D02*
X24602462Y-12949756D01*
X24522522Y-13009700D02*
X24522522Y-12949756D01*
X23122592Y-13009700D02*
X24522522Y-13009700D01*
X23122592Y-12949756D02*
X23122592Y-13009700D01*
X23042512Y-12949756D02*
X23122592Y-12949756D01*
X23042512Y-11669694D02*
X23042512Y-12949756D01*
X23122592Y-11669694D02*
X23042512Y-11669694D01*
X23122592Y-11609754D02*
X23122592Y-11669694D01*
D11*
X14265000Y-5375000D02*
X14305000Y-5415000D01*
X14305000Y-5375000D02*
X14265000Y-5415000D01*
X14265000Y-12060000D02*
X14305000Y-12100000D01*
X14305000Y-12060000D02*
X14265000Y-12100000D01*
X14313327Y-5258327D02*
X14353327Y-5298327D01*
X14353327Y-5258327D02*
X14313327Y-5298327D01*
X14313327Y-5491673D02*
X14353327Y-5531673D01*
X14353327Y-5491673D02*
X14313327Y-5531673D01*
X14313327Y-11943327D02*
X14353327Y-11983327D01*
X14353327Y-11943327D02*
X14313327Y-11983327D01*
X14313327Y-12176673D02*
X14353327Y-12216673D01*
X14353327Y-12176673D02*
X14313327Y-12216673D01*
X14430000Y-5210000D02*
X14470000Y-5250000D01*
X14470000Y-5210000D02*
X14430000Y-5250000D01*
X14430000Y-5540000D02*
X14470000Y-5580000D01*
X14470000Y-5540000D02*
X14430000Y-5580000D01*
X14430000Y-11895000D02*
X14470000Y-11935000D01*
X14470000Y-11895000D02*
X14430000Y-11935000D01*
X14430000Y-12225000D02*
X14470000Y-12265000D01*
X14470000Y-12225000D02*
X14430000Y-12265000D01*
X14546673Y-5258327D02*
X14586673Y-5298327D01*
X14586673Y-5258327D02*
X14546673Y-5298327D01*
X14546673Y-5491673D02*
X14586673Y-5531673D01*
X14586673Y-5491673D02*
X14546673Y-5531673D01*
X14546673Y-11943327D02*
X14586673Y-11983327D01*
X14586673Y-11943327D02*
X14546673Y-11983327D01*
X14546673Y-12176673D02*
X14586673Y-12216673D01*
X14586673Y-12176673D02*
X14546673Y-12216673D01*
X14595000Y-5375000D02*
X14635000Y-5415000D01*
X14635000Y-5375000D02*
X14595000Y-5415000D01*
X14595000Y-12060000D02*
X14635000Y-12100000D01*
X14635000Y-12060000D02*
X14595000Y-12100000D01*
X22360000Y-13490000D02*
X22400000Y-13530000D01*
X22400000Y-13490000D02*
X22360000Y-13530000D01*
X22408327Y-13373327D02*
X22448327Y-13413327D01*
X22448327Y-13373327D02*
X22408327Y-13413327D01*
X22408327Y-13606673D02*
X22448327Y-13646673D01*
X22448327Y-13606673D02*
X22408327Y-13646673D01*
X22525000Y-13325000D02*
X22565000Y-13365000D01*
X22565000Y-13325000D02*
X22525000Y-13365000D01*
X22525000Y-13655000D02*
X22565000Y-13695000D01*
X22565000Y-13655000D02*
X22525000Y-13695000D01*
X22641673Y-13373327D02*
X22681673Y-13413327D01*
X22681673Y-13373327D02*
X22641673Y-13413327D01*
X22641673Y-13606673D02*
X22681673Y-13646673D01*
X22681673Y-13606673D02*
X22641673Y-13646673D01*
X22690000Y-13490000D02*
X22730000Y-13530000D01*
X22730000Y-13490000D02*
X22690000Y-13530000D01*
X24438183Y-5375000D02*
X24478183Y-5415000D01*
X24478183Y-5375000D02*
X24438183Y-5415000D01*
X24486510Y-5258327D02*
X24526510Y-5298327D01*
X24526510Y-5258327D02*
X24486510Y-5298327D01*
X24486510Y-5491673D02*
X24526510Y-5531673D01*
X24526510Y-5491673D02*
X24486510Y-5531673D01*
X24603183Y-5210000D02*
X24643183Y-5250000D01*
X24643183Y-5210000D02*
X24603183Y-5250000D01*
X24603183Y-5540000D02*
X24643183Y-5580000D01*
X24643183Y-5540000D02*
X24603183Y-5580000D01*
X24719856Y-5258327D02*
X24759856Y-5298327D01*
X24759856Y-5258327D02*
X24719856Y-5298327D01*
X24719856Y-5491673D02*
X24759856Y-5531673D01*
X24759856Y-5491673D02*
X24719856Y-5531673D01*
X24768183Y-5375000D02*
X24808183Y-5415000D01*
X24808183Y-5375000D02*
X24768183Y-5415000D01*
X24920000Y-13490000D02*
X24960000Y-13530000D01*
X24960000Y-13490000D02*
X24920000Y-13530000D01*
X24968327Y-13373327D02*
X25008327Y-13413327D01*
X25008327Y-13373327D02*
X24968327Y-13413327D01*
X24968327Y-13606673D02*
X25008327Y-13646673D01*
X25008327Y-13606673D02*
X24968327Y-13646673D01*
X25085000Y-13325000D02*
X25125000Y-13365000D01*
X25125000Y-13325000D02*
X25085000Y-13365000D01*
X25085000Y-13655000D02*
X25125000Y-13695000D01*
X25125000Y-13655000D02*
X25085000Y-13695000D01*
X25201673Y-13373327D02*
X25241673Y-13413327D01*
X25241673Y-13373327D02*
X25201673Y-13413327D01*
X25201673Y-13606673D02*
X25241673Y-13646673D01*
X25241673Y-13606673D02*
X25201673Y-13646673D01*
X25250000Y-13490000D02*
X25290000Y-13530000D01*
X25290000Y-13490000D02*
X25250000Y-13530000D01*
X14560000Y-5395000D02*
G75*
G03*
X14560000Y-5395000I-110000J0D01*
G01*
X14560000Y-12080000D02*
G75*
G03*
X14560000Y-12080000I-110000J0D01*
G01*
X22655000Y-13510000D02*
G75*
G03*
X22655000Y-13510000I-110000J0D01*
G01*
X24733183Y-5395000D02*
G75*
G03*
X24733183Y-5395000I-110000J0D01*
G01*
X25215000Y-13510000D02*
G75*
G03*
X25215000Y-13510000I-110000J0D01*
G01*
D12*
X14328245Y-14384639D02*
X14328245Y-14084639D01*
X14399674Y-14084639D01*
X14442531Y-14098925D01*
X14471103Y-14127496D01*
X14485388Y-14156067D01*
X14499674Y-14213210D01*
X14499674Y-14256067D01*
X14485388Y-14313210D01*
X14471103Y-14341782D01*
X14442531Y-14370353D01*
X14399674Y-14384639D01*
X14328245Y-14384639D01*
X14628245Y-14384639D02*
X14628245Y-14184639D01*
X14628245Y-14241782D02*
X14642531Y-14213210D01*
X14656817Y-14198925D01*
X14685388Y-14184639D01*
X14713960Y-14184639D01*
X14813960Y-14384639D02*
X14813960Y-14184639D01*
X14813960Y-14084639D02*
X14799674Y-14098925D01*
X14813960Y-14113210D01*
X14828245Y-14098925D01*
X14813960Y-14084639D01*
X14813960Y-14113210D01*
X14999674Y-14384639D02*
X14971103Y-14370353D01*
X14956817Y-14341782D01*
X14956817Y-14084639D01*
X15156817Y-14384639D02*
X15128245Y-14370353D01*
X15113960Y-14341782D01*
X15113960Y-14084639D01*
X15499674Y-14384639D02*
X15499674Y-14084639D01*
X15599674Y-14298925D01*
X15699674Y-14084639D01*
X15699674Y-14384639D01*
X15971103Y-14384639D02*
X15971103Y-14227496D01*
X15956817Y-14198925D01*
X15928245Y-14184639D01*
X15871103Y-14184639D01*
X15842531Y-14198925D01*
X15971103Y-14370353D02*
X15942531Y-14384639D01*
X15871103Y-14384639D01*
X15842531Y-14370353D01*
X15828245Y-14341782D01*
X15828245Y-14313210D01*
X15842531Y-14284639D01*
X15871103Y-14270353D01*
X15942531Y-14270353D01*
X15971103Y-14256067D01*
X16113960Y-14184639D02*
X16113960Y-14484639D01*
X16113960Y-14198925D02*
X16142531Y-14184639D01*
X16199674Y-14184639D01*
X16228245Y-14198925D01*
X16242531Y-14213210D01*
X16256817Y-14241782D01*
X16256817Y-14327496D01*
X16242531Y-14356067D01*
X16228245Y-14370353D01*
X16199674Y-14384639D01*
X16142531Y-14384639D01*
X16113960Y-14370353D01*
X16385388Y-14356067D02*
X16399674Y-14370353D01*
X16385388Y-14384639D01*
X16371103Y-14370353D01*
X16385388Y-14356067D01*
X16385388Y-14384639D01*
X16385388Y-14198925D02*
X16399674Y-14213210D01*
X16385388Y-14227496D01*
X16371103Y-14213210D01*
X16385388Y-14198925D01*
X16385388Y-14227496D01*
X14001817Y-14858925D02*
X14041817Y-14898925D01*
X14041817Y-14858925D02*
X14001817Y-14898925D01*
X14385388Y-14714639D02*
X14413960Y-14714639D01*
X14442531Y-14728925D01*
X14456817Y-14743210D01*
X14471103Y-14771782D01*
X14485388Y-14828925D01*
X14485388Y-14900353D01*
X14471103Y-14957496D01*
X14456817Y-14986067D01*
X14442531Y-15000353D01*
X14413960Y-15014639D01*
X14385388Y-15014639D01*
X14356817Y-15000353D01*
X14342531Y-14986067D01*
X14328245Y-14957496D01*
X14313960Y-14900353D01*
X14313960Y-14828925D01*
X14328245Y-14771782D01*
X14342531Y-14743210D01*
X14356817Y-14728925D01*
X14385388Y-14714639D01*
X14613960Y-14986067D02*
X14628245Y-15000353D01*
X14613960Y-15014639D01*
X14599674Y-15000353D01*
X14613960Y-14986067D01*
X14613960Y-15014639D01*
X14885388Y-14814639D02*
X14885388Y-15014639D01*
X14813960Y-14700353D02*
X14742531Y-14914639D01*
X14928245Y-14914639D01*
X15099674Y-14714639D02*
X15128245Y-14714639D01*
X15156817Y-14728925D01*
X15171103Y-14743210D01*
X15185388Y-14771782D01*
X15199674Y-14828925D01*
X15199674Y-14900353D01*
X15185388Y-14957496D01*
X15171103Y-14986067D01*
X15156817Y-15000353D01*
X15128245Y-15014639D01*
X15099674Y-15014639D01*
X15071103Y-15000353D01*
X15056817Y-14986067D01*
X15042531Y-14957496D01*
X15028245Y-14900353D01*
X15028245Y-14828925D01*
X15042531Y-14771782D01*
X15056817Y-14743210D01*
X15071103Y-14728925D01*
X15099674Y-14714639D01*
X15328245Y-15014639D02*
X15328245Y-14814639D01*
X15328245Y-14843210D02*
X15342531Y-14828925D01*
X15371103Y-14814639D01*
X15413960Y-14814639D01*
X15442531Y-14828925D01*
X15456817Y-14857496D01*
X15456817Y-15014639D01*
X15456817Y-14857496D02*
X15471103Y-14828925D01*
X15499674Y-14814639D01*
X15542531Y-14814639D01*
X15571103Y-14828925D01*
X15585388Y-14857496D01*
X15585388Y-15014639D01*
X15728245Y-15014639D02*
X15728245Y-14814639D01*
X15728245Y-14843210D02*
X15742531Y-14828925D01*
X15771103Y-14814639D01*
X15813960Y-14814639D01*
X15842531Y-14828925D01*
X15856817Y-14857496D01*
X15856817Y-15014639D01*
X15856817Y-14857496D02*
X15871103Y-14828925D01*
X15899674Y-14814639D01*
X15942531Y-14814639D01*
X15971103Y-14828925D01*
X15985388Y-14857496D01*
X15985388Y-15014639D01*
X16571103Y-14700353D02*
X16313960Y-15086067D01*
X16956817Y-14714639D02*
X16985388Y-14714639D01*
X17013960Y-14728925D01*
X17028245Y-14743210D01*
X17042531Y-14771782D01*
X17056817Y-14828925D01*
X17056817Y-14900353D01*
X17042531Y-14957496D01*
X17028245Y-14986067D01*
X17013960Y-15000353D01*
X16985388Y-15014639D01*
X16956817Y-15014639D01*
X16928245Y-15000353D01*
X16913960Y-14986067D01*
X16899674Y-14957496D01*
X16885388Y-14900353D01*
X16885388Y-14828925D01*
X16899674Y-14771782D01*
X16913960Y-14743210D01*
X16928245Y-14728925D01*
X16956817Y-14714639D01*
X17185388Y-14986067D02*
X17199674Y-15000353D01*
X17185388Y-15014639D01*
X17171103Y-15000353D01*
X17185388Y-14986067D01*
X17185388Y-15014639D01*
X17385388Y-14714639D02*
X17413960Y-14714639D01*
X17442531Y-14728925D01*
X17456817Y-14743210D01*
X17471103Y-14771782D01*
X17485388Y-14828925D01*
X17485388Y-14900353D01*
X17471103Y-14957496D01*
X17456817Y-14986067D01*
X17442531Y-15000353D01*
X17413960Y-15014639D01*
X17385388Y-15014639D01*
X17356817Y-15000353D01*
X17342531Y-14986067D01*
X17328245Y-14957496D01*
X17313960Y-14900353D01*
X17313960Y-14828925D01*
X17328245Y-14771782D01*
X17342531Y-14743210D01*
X17356817Y-14728925D01*
X17385388Y-14714639D01*
X17771103Y-15014639D02*
X17599674Y-15014639D01*
X17685388Y-15014639D02*
X17685388Y-14714639D01*
X17656817Y-14757496D01*
X17628245Y-14786067D01*
X17599674Y-14800353D01*
X18028245Y-14714639D02*
X17971103Y-14714639D01*
X17942531Y-14728925D01*
X17928245Y-14743210D01*
X17899674Y-14786067D01*
X17885388Y-14843210D01*
X17885388Y-14957496D01*
X17899674Y-14986067D01*
X17913960Y-15000353D01*
X17942531Y-15014639D01*
X17999674Y-15014639D01*
X18028245Y-15000353D01*
X18042531Y-14986067D01*
X18056817Y-14957496D01*
X18056817Y-14886067D01*
X18042531Y-14857496D01*
X18028245Y-14843210D01*
X17999674Y-14828925D01*
X17942531Y-14828925D01*
X17913960Y-14843210D01*
X17899674Y-14857496D01*
X17885388Y-14886067D01*
X18171103Y-14714639D02*
X18171103Y-14771782D01*
X18285388Y-14714639D02*
X18285388Y-14771782D01*
X18728245Y-15128925D02*
X18713960Y-15114639D01*
X18685388Y-15071782D01*
X18671103Y-15043210D01*
X18656817Y-15000353D01*
X18642531Y-14928925D01*
X18642531Y-14871782D01*
X18656817Y-14800353D01*
X18671103Y-14757496D01*
X18685388Y-14728925D01*
X18713960Y-14686067D01*
X18728245Y-14671782D01*
X18971103Y-14814639D02*
X18971103Y-15014639D01*
X18899674Y-14700353D02*
X18828245Y-14914639D01*
X19013960Y-14914639D01*
X19185388Y-14714639D02*
X19213960Y-14714639D01*
X19242531Y-14728925D01*
X19256817Y-14743210D01*
X19271103Y-14771782D01*
X19285388Y-14828925D01*
X19285388Y-14900353D01*
X19271103Y-14957496D01*
X19256817Y-14986067D01*
X19242531Y-15000353D01*
X19213960Y-15014639D01*
X19185388Y-15014639D01*
X19156817Y-15000353D01*
X19142531Y-14986067D01*
X19128245Y-14957496D01*
X19113960Y-14900353D01*
X19113960Y-14828925D01*
X19128245Y-14771782D01*
X19142531Y-14743210D01*
X19156817Y-14728925D01*
X19185388Y-14714639D01*
X19642531Y-15014639D02*
X19642531Y-14714639D01*
X19771103Y-15014639D02*
X19771103Y-14857496D01*
X19756817Y-14828925D01*
X19728245Y-14814639D01*
X19685388Y-14814639D01*
X19656817Y-14828925D01*
X19642531Y-14843210D01*
X19956817Y-15014639D02*
X19928245Y-15000353D01*
X19913960Y-14986067D01*
X19899674Y-14957496D01*
X19899674Y-14871782D01*
X19913960Y-14843210D01*
X19928245Y-14828925D01*
X19956817Y-14814639D01*
X19999674Y-14814639D01*
X20028245Y-14828925D01*
X20042531Y-14843210D01*
X20056817Y-14871782D01*
X20056817Y-14957496D01*
X20042531Y-14986067D01*
X20028245Y-15000353D01*
X19999674Y-15014639D01*
X19956817Y-15014639D01*
X20228245Y-15014639D02*
X20199674Y-15000353D01*
X20185388Y-14971782D01*
X20185388Y-14714639D01*
X20456817Y-15000353D02*
X20428245Y-15014639D01*
X20371103Y-15014639D01*
X20342531Y-15000353D01*
X20328245Y-14971782D01*
X20328245Y-14857496D01*
X20342531Y-14828925D01*
X20371103Y-14814639D01*
X20428245Y-14814639D01*
X20456817Y-14828925D01*
X20471103Y-14857496D01*
X20471103Y-14886067D01*
X20328245Y-14914639D01*
X20585388Y-15000353D02*
X20613960Y-15014639D01*
X20671103Y-15014639D01*
X20699674Y-15000353D01*
X20713960Y-14971782D01*
X20713960Y-14957496D01*
X20699674Y-14928925D01*
X20671103Y-14914639D01*
X20628245Y-14914639D01*
X20599674Y-14900353D01*
X20585388Y-14871782D01*
X20585388Y-14857496D01*
X20599674Y-14828925D01*
X20628245Y-14814639D01*
X20671103Y-14814639D01*
X20699674Y-14828925D01*
X20813960Y-15128925D02*
X20828245Y-15114639D01*
X20856817Y-15071782D01*
X20871103Y-15043210D01*
X20885388Y-15000353D01*
X20899674Y-14928925D01*
X20899674Y-14871782D01*
X20885388Y-14800353D01*
X20871103Y-14757496D01*
X20856817Y-14728925D01*
X20828245Y-14686067D01*
X20813960Y-14671782D01*
X14041817Y-15274925D02*
G75*
G03*
X14041817Y-15274925I-110000J0D01*
G01*
X14313960Y-15139210D02*
X14328245Y-15124925D01*
X14356817Y-15110639D01*
X14428245Y-15110639D01*
X14456817Y-15124925D01*
X14471103Y-15139210D01*
X14485388Y-15167782D01*
X14485388Y-15196353D01*
X14471103Y-15239210D01*
X14299674Y-15410639D01*
X14485388Y-15410639D01*
X14613960Y-15382067D02*
X14628245Y-15396353D01*
X14613960Y-15410639D01*
X14599674Y-15396353D01*
X14613960Y-15382067D01*
X14613960Y-15410639D01*
X14742531Y-15139210D02*
X14756817Y-15124925D01*
X14785388Y-15110639D01*
X14856817Y-15110639D01*
X14885388Y-15124925D01*
X14899674Y-15139210D01*
X14913960Y-15167782D01*
X14913960Y-15196353D01*
X14899674Y-15239210D01*
X14728245Y-15410639D01*
X14913960Y-15410639D01*
X15099674Y-15110639D02*
X15128245Y-15110639D01*
X15156817Y-15124925D01*
X15171103Y-15139210D01*
X15185388Y-15167782D01*
X15199674Y-15224925D01*
X15199674Y-15296353D01*
X15185388Y-15353496D01*
X15171103Y-15382067D01*
X15156817Y-15396353D01*
X15128245Y-15410639D01*
X15099674Y-15410639D01*
X15071103Y-15396353D01*
X15056817Y-15382067D01*
X15042531Y-15353496D01*
X15028245Y-15296353D01*
X15028245Y-15224925D01*
X15042531Y-15167782D01*
X15056817Y-15139210D01*
X15071103Y-15124925D01*
X15099674Y-15110639D01*
X15328245Y-15410639D02*
X15328245Y-15210639D01*
X15328245Y-15239210D02*
X15342531Y-15224925D01*
X15371103Y-15210639D01*
X15413960Y-15210639D01*
X15442531Y-15224925D01*
X15456817Y-15253496D01*
X15456817Y-15410639D01*
X15456817Y-15253496D02*
X15471103Y-15224925D01*
X15499674Y-15210639D01*
X15542531Y-15210639D01*
X15571103Y-15224925D01*
X15585388Y-15253496D01*
X15585388Y-15410639D01*
X15728245Y-15410639D02*
X15728245Y-15210639D01*
X15728245Y-15239210D02*
X15742531Y-15224925D01*
X15771103Y-15210639D01*
X15813960Y-15210639D01*
X15842531Y-15224925D01*
X15856817Y-15253496D01*
X15856817Y-15410639D01*
X15856817Y-15253496D02*
X15871103Y-15224925D01*
X15899674Y-15210639D01*
X15942531Y-15210639D01*
X15971103Y-15224925D01*
X15985388Y-15253496D01*
X15985388Y-15410639D01*
X16571103Y-15096353D02*
X16313960Y-15482067D01*
X16956817Y-15110639D02*
X16985388Y-15110639D01*
X17013960Y-15124925D01*
X17028245Y-15139210D01*
X17042531Y-15167782D01*
X17056817Y-15224925D01*
X17056817Y-15296353D01*
X17042531Y-15353496D01*
X17028245Y-15382067D01*
X17013960Y-15396353D01*
X16985388Y-15410639D01*
X16956817Y-15410639D01*
X16928245Y-15396353D01*
X16913960Y-15382067D01*
X16899674Y-15353496D01*
X16885388Y-15296353D01*
X16885388Y-15224925D01*
X16899674Y-15167782D01*
X16913960Y-15139210D01*
X16928245Y-15124925D01*
X16956817Y-15110639D01*
X17185388Y-15382067D02*
X17199674Y-15396353D01*
X17185388Y-15410639D01*
X17171103Y-15396353D01*
X17185388Y-15382067D01*
X17185388Y-15410639D01*
X17385388Y-15110639D02*
X17413960Y-15110639D01*
X17442531Y-15124925D01*
X17456817Y-15139210D01*
X17471103Y-15167782D01*
X17485388Y-15224925D01*
X17485388Y-15296353D01*
X17471103Y-15353496D01*
X17456817Y-15382067D01*
X17442531Y-15396353D01*
X17413960Y-15410639D01*
X17385388Y-15410639D01*
X17356817Y-15396353D01*
X17342531Y-15382067D01*
X17328245Y-15353496D01*
X17313960Y-15296353D01*
X17313960Y-15224925D01*
X17328245Y-15167782D01*
X17342531Y-15139210D01*
X17356817Y-15124925D01*
X17385388Y-15110639D01*
X17656817Y-15239210D02*
X17628245Y-15224925D01*
X17613960Y-15210639D01*
X17599674Y-15182067D01*
X17599674Y-15167782D01*
X17613960Y-15139210D01*
X17628245Y-15124925D01*
X17656817Y-15110639D01*
X17713960Y-15110639D01*
X17742531Y-15124925D01*
X17756817Y-15139210D01*
X17771103Y-15167782D01*
X17771103Y-15182067D01*
X17756817Y-15210639D01*
X17742531Y-15224925D01*
X17713960Y-15239210D01*
X17656817Y-15239210D01*
X17628245Y-15253496D01*
X17613960Y-15267782D01*
X17599674Y-15296353D01*
X17599674Y-15353496D01*
X17613960Y-15382067D01*
X17628245Y-15396353D01*
X17656817Y-15410639D01*
X17713960Y-15410639D01*
X17742531Y-15396353D01*
X17756817Y-15382067D01*
X17771103Y-15353496D01*
X17771103Y-15296353D01*
X17756817Y-15267782D01*
X17742531Y-15253496D01*
X17713960Y-15239210D01*
X17871103Y-15110639D02*
X18071103Y-15110639D01*
X17942531Y-15410639D01*
X18171103Y-15110639D02*
X18171103Y-15167782D01*
X18285388Y-15110639D02*
X18285388Y-15167782D01*
X18728245Y-15524925D02*
X18713960Y-15510639D01*
X18685388Y-15467782D01*
X18671103Y-15439210D01*
X18656817Y-15396353D01*
X18642531Y-15324925D01*
X18642531Y-15267782D01*
X18656817Y-15196353D01*
X18671103Y-15153496D01*
X18685388Y-15124925D01*
X18713960Y-15082067D01*
X18728245Y-15067782D01*
X18985388Y-15110639D02*
X18842531Y-15110639D01*
X18828245Y-15253496D01*
X18842531Y-15239210D01*
X18871103Y-15224925D01*
X18942531Y-15224925D01*
X18971103Y-15239210D01*
X18985388Y-15253496D01*
X18999674Y-15282067D01*
X18999674Y-15353496D01*
X18985388Y-15382067D01*
X18971103Y-15396353D01*
X18942531Y-15410639D01*
X18871103Y-15410639D01*
X18842531Y-15396353D01*
X18828245Y-15382067D01*
X19356817Y-15410639D02*
X19356817Y-15110639D01*
X19485388Y-15410639D02*
X19485388Y-15253496D01*
X19471103Y-15224925D01*
X19442531Y-15210639D01*
X19399674Y-15210639D01*
X19371103Y-15224925D01*
X19356817Y-15239210D01*
X19671103Y-15410639D02*
X19642531Y-15396353D01*
X19628245Y-15382067D01*
X19613960Y-15353496D01*
X19613960Y-15267782D01*
X19628245Y-15239210D01*
X19642531Y-15224925D01*
X19671103Y-15210639D01*
X19713960Y-15210639D01*
X19742531Y-15224925D01*
X19756817Y-15239210D01*
X19771103Y-15267782D01*
X19771103Y-15353496D01*
X19756817Y-15382067D01*
X19742531Y-15396353D01*
X19713960Y-15410639D01*
X19671103Y-15410639D01*
X19942531Y-15410639D02*
X19913960Y-15396353D01*
X19899674Y-15367782D01*
X19899674Y-15110639D01*
X20171103Y-15396353D02*
X20142531Y-15410639D01*
X20085388Y-15410639D01*
X20056817Y-15396353D01*
X20042531Y-15367782D01*
X20042531Y-15253496D01*
X20056817Y-15224925D01*
X20085388Y-15210639D01*
X20142531Y-15210639D01*
X20171103Y-15224925D01*
X20185388Y-15253496D01*
X20185388Y-15282067D01*
X20042531Y-15310639D01*
X20299674Y-15396353D02*
X20328245Y-15410639D01*
X20385388Y-15410639D01*
X20413960Y-15396353D01*
X20428245Y-15367782D01*
X20428245Y-15353496D01*
X20413960Y-15324925D01*
X20385388Y-15310639D01*
X20342531Y-15310639D01*
X20313960Y-15296353D01*
X20299674Y-15267782D01*
X20299674Y-15253496D01*
X20313960Y-15224925D01*
X20342531Y-15210639D01*
X20385388Y-15210639D01*
X20413960Y-15224925D01*
X20528245Y-15524925D02*
X20542531Y-15510639D01*
X20571103Y-15467782D01*
X20585388Y-15439210D01*
X20599674Y-15396353D01*
X20613960Y-15324925D01*
X20613960Y-15267782D01*
X20599674Y-15196353D01*
X20585388Y-15153496D01*
X20571103Y-15124925D01*
X20542531Y-15082067D01*
X20528245Y-15067782D01*
M02*
