G04 #@! TF.GenerationSoftware,KiCad,Pcbnew,(5.1.4)-1*
G04 #@! TF.CreationDate,2020-11-18T14:40:22-05:00*
G04 #@! TF.ProjectId,base,62617365-2e6b-4696-9361-645f70636258,rev?*
G04 #@! TF.SameCoordinates,Original*
G04 #@! TF.FileFunction,Copper,L1,Top*
G04 #@! TF.FilePolarity,Positive*
%FSLAX46Y46*%
G04 Gerber Fmt 4.6, Leading zero omitted, Abs format (unit mm)*
G04 Created by KiCad (PCBNEW (5.1.4)-1) date 2020-11-18 14:40:22*
%MOMM*%
%LPD*%
G04 APERTURE LIST*
%ADD10C,0.254000*%
G04 APERTURE END LIST*
D10*
G36*
X195239794Y-86909395D02*
G01*
X195259143Y-86925062D01*
X195281177Y-86936652D01*
X195305049Y-86943721D01*
X195329000Y-86946000D01*
X195339000Y-86946000D01*
X195363776Y-86943560D01*
X195387601Y-86936333D01*
X195409557Y-86924597D01*
X195428206Y-86909395D01*
X196098407Y-86248013D01*
X196438798Y-86588404D01*
X195769794Y-87248605D01*
X195753873Y-87267745D01*
X195741992Y-87289623D01*
X195734607Y-87313399D01*
X195732003Y-87338159D01*
X195734279Y-87362951D01*
X195741348Y-87386823D01*
X195752938Y-87408857D01*
X195768039Y-87427629D01*
X196438821Y-88116063D01*
X196095078Y-88446586D01*
X195428198Y-87788597D01*
X195408847Y-87772932D01*
X195386812Y-87761344D01*
X195362940Y-87754277D01*
X195339000Y-87752000D01*
X195329000Y-87752000D01*
X195304224Y-87754440D01*
X195280399Y-87761667D01*
X195258443Y-87773403D01*
X195241876Y-87786596D01*
X194568229Y-88421749D01*
X194231673Y-88098391D01*
X194897597Y-87449992D01*
X194913647Y-87430959D01*
X194925674Y-87409161D01*
X194933218Y-87385435D01*
X194936000Y-87359000D01*
X194936000Y-87349000D01*
X194933560Y-87324224D01*
X194926333Y-87300399D01*
X194914597Y-87278443D01*
X194899388Y-87259786D01*
X194228885Y-86580461D01*
X194568725Y-86247156D01*
X195239794Y-86909395D01*
X195239794Y-86909395D01*
G37*
X195239794Y-86909395D02*
X195259143Y-86925062D01*
X195281177Y-86936652D01*
X195305049Y-86943721D01*
X195329000Y-86946000D01*
X195339000Y-86946000D01*
X195363776Y-86943560D01*
X195387601Y-86936333D01*
X195409557Y-86924597D01*
X195428206Y-86909395D01*
X196098407Y-86248013D01*
X196438798Y-86588404D01*
X195769794Y-87248605D01*
X195753873Y-87267745D01*
X195741992Y-87289623D01*
X195734607Y-87313399D01*
X195732003Y-87338159D01*
X195734279Y-87362951D01*
X195741348Y-87386823D01*
X195752938Y-87408857D01*
X195768039Y-87427629D01*
X196438821Y-88116063D01*
X196095078Y-88446586D01*
X195428198Y-87788597D01*
X195408847Y-87772932D01*
X195386812Y-87761344D01*
X195362940Y-87754277D01*
X195339000Y-87752000D01*
X195329000Y-87752000D01*
X195304224Y-87754440D01*
X195280399Y-87761667D01*
X195258443Y-87773403D01*
X195241876Y-87786596D01*
X194568229Y-88421749D01*
X194231673Y-88098391D01*
X194897597Y-87449992D01*
X194913647Y-87430959D01*
X194925674Y-87409161D01*
X194933218Y-87385435D01*
X194936000Y-87359000D01*
X194936000Y-87349000D01*
X194933560Y-87324224D01*
X194926333Y-87300399D01*
X194914597Y-87278443D01*
X194899388Y-87259786D01*
X194228885Y-86580461D01*
X194568725Y-86247156D01*
X195239794Y-86909395D01*
G36*
X203260793Y-90395309D02*
G01*
X203588752Y-90816970D01*
X203605890Y-90835030D01*
X203621183Y-90846377D01*
X204001183Y-91086377D01*
X204023434Y-91097544D01*
X204038907Y-91102383D01*
X204448907Y-91202383D01*
X204473556Y-91205883D01*
X204494013Y-91205110D01*
X204914013Y-91155110D01*
X204946800Y-91146661D01*
X205266800Y-91016661D01*
X205295200Y-91000600D01*
X205575200Y-90790600D01*
X205594835Y-90772335D01*
X205794835Y-90542335D01*
X205810018Y-90520677D01*
X205877750Y-90398759D01*
X205887045Y-90397829D01*
X206267944Y-90509312D01*
X206482314Y-90593196D01*
X206628257Y-90682383D01*
X206621085Y-90708681D01*
X206485079Y-90935357D01*
X206108159Y-91389594D01*
X205915310Y-91554893D01*
X205420488Y-91840367D01*
X204870766Y-91982537D01*
X204299476Y-92001580D01*
X203928058Y-91927296D01*
X203445014Y-91709453D01*
X203018374Y-91377621D01*
X202685335Y-90968460D01*
X202526828Y-90670093D01*
X202517511Y-90639814D01*
X202711783Y-90568580D01*
X203135387Y-90420812D01*
X203251435Y-90391800D01*
X203260793Y-90395309D01*
X203260793Y-90395309D01*
G37*
X203260793Y-90395309D02*
X203588752Y-90816970D01*
X203605890Y-90835030D01*
X203621183Y-90846377D01*
X204001183Y-91086377D01*
X204023434Y-91097544D01*
X204038907Y-91102383D01*
X204448907Y-91202383D01*
X204473556Y-91205883D01*
X204494013Y-91205110D01*
X204914013Y-91155110D01*
X204946800Y-91146661D01*
X205266800Y-91016661D01*
X205295200Y-91000600D01*
X205575200Y-90790600D01*
X205594835Y-90772335D01*
X205794835Y-90542335D01*
X205810018Y-90520677D01*
X205877750Y-90398759D01*
X205887045Y-90397829D01*
X206267944Y-90509312D01*
X206482314Y-90593196D01*
X206628257Y-90682383D01*
X206621085Y-90708681D01*
X206485079Y-90935357D01*
X206108159Y-91389594D01*
X205915310Y-91554893D01*
X205420488Y-91840367D01*
X204870766Y-91982537D01*
X204299476Y-92001580D01*
X203928058Y-91927296D01*
X203445014Y-91709453D01*
X203018374Y-91377621D01*
X202685335Y-90968460D01*
X202526828Y-90670093D01*
X202517511Y-90639814D01*
X202711783Y-90568580D01*
X203135387Y-90420812D01*
X203251435Y-90391800D01*
X203260793Y-90395309D01*
G36*
X196439115Y-86580461D02*
G01*
X195768612Y-87259786D01*
X195752944Y-87279134D01*
X195741352Y-87301167D01*
X195734281Y-87325038D01*
X195732000Y-87349000D01*
X195732000Y-87359000D01*
X195734440Y-87383776D01*
X195741667Y-87407601D01*
X195753403Y-87429557D01*
X195770403Y-87449992D01*
X196436327Y-88098391D01*
X196099771Y-88421749D01*
X195426124Y-87786596D01*
X195406422Y-87771375D01*
X195384130Y-87760289D01*
X195360104Y-87753766D01*
X195339000Y-87752000D01*
X195329000Y-87752000D01*
X195304224Y-87754440D01*
X195280399Y-87761667D01*
X195258443Y-87773403D01*
X195239802Y-87788597D01*
X194572922Y-88446586D01*
X194229179Y-88116063D01*
X194899961Y-87427629D01*
X194915504Y-87408180D01*
X194926954Y-87386073D01*
X194933871Y-87362157D01*
X194935989Y-87337351D01*
X194933227Y-87312608D01*
X194925692Y-87288880D01*
X194913671Y-87267077D01*
X194898206Y-87248605D01*
X194229202Y-86588404D01*
X194569593Y-86248013D01*
X195239794Y-86909395D01*
X195259143Y-86925062D01*
X195281177Y-86936652D01*
X195305049Y-86943721D01*
X195329000Y-86946000D01*
X195339000Y-86946000D01*
X195363776Y-86943560D01*
X195387601Y-86936333D01*
X195409557Y-86924597D01*
X195428206Y-86909395D01*
X196099275Y-86247156D01*
X196439115Y-86580461D01*
X196439115Y-86580461D01*
G37*
X196439115Y-86580461D02*
X195768612Y-87259786D01*
X195752944Y-87279134D01*
X195741352Y-87301167D01*
X195734281Y-87325038D01*
X195732000Y-87349000D01*
X195732000Y-87359000D01*
X195734440Y-87383776D01*
X195741667Y-87407601D01*
X195753403Y-87429557D01*
X195770403Y-87449992D01*
X196436327Y-88098391D01*
X196099771Y-88421749D01*
X195426124Y-87786596D01*
X195406422Y-87771375D01*
X195384130Y-87760289D01*
X195360104Y-87753766D01*
X195339000Y-87752000D01*
X195329000Y-87752000D01*
X195304224Y-87754440D01*
X195280399Y-87761667D01*
X195258443Y-87773403D01*
X195239802Y-87788597D01*
X194572922Y-88446586D01*
X194229179Y-88116063D01*
X194899961Y-87427629D01*
X194915504Y-87408180D01*
X194926954Y-87386073D01*
X194933871Y-87362157D01*
X194935989Y-87337351D01*
X194933227Y-87312608D01*
X194925692Y-87288880D01*
X194913671Y-87267077D01*
X194898206Y-87248605D01*
X194229202Y-86588404D01*
X194569593Y-86248013D01*
X195239794Y-86909395D01*
X195259143Y-86925062D01*
X195281177Y-86936652D01*
X195305049Y-86943721D01*
X195329000Y-86946000D01*
X195339000Y-86946000D01*
X195363776Y-86943560D01*
X195387601Y-86936333D01*
X195409557Y-86924597D01*
X195428206Y-86909395D01*
X196099275Y-86247156D01*
X196439115Y-86580461D01*
G36*
X185062340Y-89873578D02*
G01*
X184794095Y-89901815D01*
X184449369Y-89892239D01*
X184261181Y-89866577D01*
X184187061Y-89823340D01*
X184133042Y-89746170D01*
X184132344Y-89745183D01*
X184085368Y-89679417D01*
X180973353Y-84469525D01*
X180998029Y-84466000D01*
X181846762Y-84466000D01*
X185062340Y-89873578D01*
X185062340Y-89873578D01*
G37*
X185062340Y-89873578D02*
X184794095Y-89901815D01*
X184449369Y-89892239D01*
X184261181Y-89866577D01*
X184187061Y-89823340D01*
X184133042Y-89746170D01*
X184132344Y-89745183D01*
X184085368Y-89679417D01*
X180973353Y-84469525D01*
X180998029Y-84466000D01*
X181846762Y-84466000D01*
X185062340Y-89873578D01*
G36*
X206607507Y-88555165D02*
G01*
X206443541Y-88876266D01*
X206084799Y-89272770D01*
X205629217Y-89585983D01*
X205116869Y-89785229D01*
X204566826Y-89861097D01*
X204011827Y-89803684D01*
X203847846Y-89760531D01*
X203739061Y-89697550D01*
X203776500Y-88791537D01*
X203987947Y-88934264D01*
X204009848Y-88946103D01*
X204026823Y-88951856D01*
X204446823Y-89061856D01*
X204471410Y-89065773D01*
X204495785Y-89064886D01*
X204945785Y-89004886D01*
X204979408Y-88995568D01*
X205349408Y-88835568D01*
X205371180Y-88823494D01*
X205381355Y-88815678D01*
X205651355Y-88585678D01*
X205668634Y-88567754D01*
X205677610Y-88554824D01*
X205825997Y-88309985D01*
X206607507Y-88555165D01*
X206607507Y-88555165D01*
G37*
X206607507Y-88555165D02*
X206443541Y-88876266D01*
X206084799Y-89272770D01*
X205629217Y-89585983D01*
X205116869Y-89785229D01*
X204566826Y-89861097D01*
X204011827Y-89803684D01*
X203847846Y-89760531D01*
X203739061Y-89697550D01*
X203776500Y-88791537D01*
X203987947Y-88934264D01*
X204009848Y-88946103D01*
X204026823Y-88951856D01*
X204446823Y-89061856D01*
X204471410Y-89065773D01*
X204495785Y-89064886D01*
X204945785Y-89004886D01*
X204979408Y-88995568D01*
X205349408Y-88835568D01*
X205371180Y-88823494D01*
X205381355Y-88815678D01*
X205651355Y-88585678D01*
X205668634Y-88567754D01*
X205677610Y-88554824D01*
X205825997Y-88309985D01*
X206607507Y-88555165D01*
G36*
X188497036Y-84515607D02*
G01*
X188822779Y-84563510D01*
X189095801Y-84638827D01*
X189279471Y-84721478D01*
X189829183Y-85059021D01*
X190256476Y-85495809D01*
X190560594Y-86037520D01*
X190733036Y-86669805D01*
X190761753Y-87138858D01*
X190722970Y-87749698D01*
X190599432Y-88253352D01*
X190364290Y-88695419D01*
X190085517Y-89003030D01*
X189815251Y-89292601D01*
X189628890Y-89423054D01*
X189324103Y-89613546D01*
X188937835Y-89745442D01*
X188474709Y-89822630D01*
X188060143Y-89847566D01*
X188527086Y-89656544D01*
X188552239Y-89642755D01*
X189062239Y-89282755D01*
X189087960Y-89258598D01*
X189457960Y-88798598D01*
X189475305Y-88770011D01*
X189725305Y-88200011D01*
X189734567Y-88168025D01*
X189834567Y-87508025D01*
X189836000Y-87489000D01*
X189836000Y-86929000D01*
X189835439Y-86917072D01*
X189785439Y-86387072D01*
X189781856Y-86366823D01*
X189671856Y-85946823D01*
X189661059Y-85919235D01*
X189581835Y-85770690D01*
X189482592Y-85572204D01*
X189470600Y-85552800D01*
X189410600Y-85472800D01*
X189404577Y-85465370D01*
X189336996Y-85388135D01*
X189199248Y-85211030D01*
X189188803Y-85199197D01*
X188918803Y-84929197D01*
X188903487Y-84916137D01*
X188613487Y-84706137D01*
X188589747Y-84692580D01*
X188199747Y-84522580D01*
X188187562Y-84517996D01*
X188131457Y-84500116D01*
X188497036Y-84515607D01*
X188497036Y-84515607D01*
G37*
X188497036Y-84515607D02*
X188822779Y-84563510D01*
X189095801Y-84638827D01*
X189279471Y-84721478D01*
X189829183Y-85059021D01*
X190256476Y-85495809D01*
X190560594Y-86037520D01*
X190733036Y-86669805D01*
X190761753Y-87138858D01*
X190722970Y-87749698D01*
X190599432Y-88253352D01*
X190364290Y-88695419D01*
X190085517Y-89003030D01*
X189815251Y-89292601D01*
X189628890Y-89423054D01*
X189324103Y-89613546D01*
X188937835Y-89745442D01*
X188474709Y-89822630D01*
X188060143Y-89847566D01*
X188527086Y-89656544D01*
X188552239Y-89642755D01*
X189062239Y-89282755D01*
X189087960Y-89258598D01*
X189457960Y-88798598D01*
X189475305Y-88770011D01*
X189725305Y-88200011D01*
X189734567Y-88168025D01*
X189834567Y-87508025D01*
X189836000Y-87489000D01*
X189836000Y-86929000D01*
X189835439Y-86917072D01*
X189785439Y-86387072D01*
X189781856Y-86366823D01*
X189671856Y-85946823D01*
X189661059Y-85919235D01*
X189581835Y-85770690D01*
X189482592Y-85572204D01*
X189470600Y-85552800D01*
X189410600Y-85472800D01*
X189404577Y-85465370D01*
X189336996Y-85388135D01*
X189199248Y-85211030D01*
X189188803Y-85199197D01*
X188918803Y-84929197D01*
X188903487Y-84916137D01*
X188613487Y-84706137D01*
X188589747Y-84692580D01*
X188199747Y-84522580D01*
X188187562Y-84517996D01*
X188131457Y-84500116D01*
X188497036Y-84515607D01*
G36*
X205227177Y-85482703D02*
G01*
X205520451Y-85592680D01*
X206014171Y-85924992D01*
X206393251Y-86360933D01*
X206649171Y-86853817D01*
X206782000Y-87404108D01*
X206782000Y-87984427D01*
X206688699Y-88385622D01*
X206490598Y-88781824D01*
X205745835Y-88435773D01*
X205875178Y-88238679D01*
X205889135Y-88210189D01*
X206009135Y-87860189D01*
X206015130Y-87833839D01*
X206035130Y-87663839D01*
X206035601Y-87638947D01*
X206033825Y-87625595D01*
X205973825Y-87305595D01*
X205964503Y-87276199D01*
X205804503Y-86926199D01*
X205791413Y-86903897D01*
X205571413Y-86603897D01*
X205551651Y-86582574D01*
X205411651Y-86462574D01*
X205384680Y-86444856D01*
X204974680Y-86244856D01*
X204951342Y-86236187D01*
X204930498Y-86232522D01*
X204490498Y-86192522D01*
X204465602Y-86192709D01*
X204445865Y-86196399D01*
X204261991Y-86246095D01*
X204379453Y-85423859D01*
X204771028Y-85416181D01*
X205227177Y-85482703D01*
X205227177Y-85482703D01*
G37*
X205227177Y-85482703D02*
X205520451Y-85592680D01*
X206014171Y-85924992D01*
X206393251Y-86360933D01*
X206649171Y-86853817D01*
X206782000Y-87404108D01*
X206782000Y-87984427D01*
X206688699Y-88385622D01*
X206490598Y-88781824D01*
X205745835Y-88435773D01*
X205875178Y-88238679D01*
X205889135Y-88210189D01*
X206009135Y-87860189D01*
X206015130Y-87833839D01*
X206035130Y-87663839D01*
X206035601Y-87638947D01*
X206033825Y-87625595D01*
X205973825Y-87305595D01*
X205964503Y-87276199D01*
X205804503Y-86926199D01*
X205791413Y-86903897D01*
X205571413Y-86603897D01*
X205551651Y-86582574D01*
X205411651Y-86462574D01*
X205384680Y-86444856D01*
X204974680Y-86244856D01*
X204951342Y-86236187D01*
X204930498Y-86232522D01*
X204490498Y-86192522D01*
X204465602Y-86192709D01*
X204445865Y-86196399D01*
X204261991Y-86246095D01*
X204379453Y-85423859D01*
X204771028Y-85416181D01*
X205227177Y-85482703D01*
G36*
X203513544Y-86671861D02*
G01*
X203331935Y-86887101D01*
X203317822Y-86907611D01*
X203310465Y-86923410D01*
X203160465Y-87313410D01*
X203153848Y-87337411D01*
X203152151Y-87352812D01*
X203132151Y-87762812D01*
X203133381Y-87787678D01*
X203137113Y-87804674D01*
X203257113Y-88214674D01*
X203266415Y-88237768D01*
X203276758Y-88254336D01*
X203556758Y-88634336D01*
X203573420Y-88652835D01*
X203586170Y-88663042D01*
X203927645Y-88902075D01*
X203872376Y-89754796D01*
X203854815Y-89749917D01*
X203320369Y-89482694D01*
X202865318Y-89084525D01*
X202563913Y-88632417D01*
X202383927Y-88101933D01*
X202327036Y-87533021D01*
X202421386Y-86957486D01*
X202638009Y-86505403D01*
X202865432Y-86204618D01*
X203513544Y-86671861D01*
X203513544Y-86671861D01*
G37*
X203513544Y-86671861D02*
X203331935Y-86887101D01*
X203317822Y-86907611D01*
X203310465Y-86923410D01*
X203160465Y-87313410D01*
X203153848Y-87337411D01*
X203152151Y-87352812D01*
X203132151Y-87762812D01*
X203133381Y-87787678D01*
X203137113Y-87804674D01*
X203257113Y-88214674D01*
X203266415Y-88237768D01*
X203276758Y-88254336D01*
X203556758Y-88634336D01*
X203573420Y-88652835D01*
X203586170Y-88663042D01*
X203927645Y-88902075D01*
X203872376Y-89754796D01*
X203854815Y-89749917D01*
X203320369Y-89482694D01*
X202865318Y-89084525D01*
X202563913Y-88632417D01*
X202383927Y-88101933D01*
X202327036Y-87533021D01*
X202421386Y-86957486D01*
X202638009Y-86505403D01*
X202865432Y-86204618D01*
X203513544Y-86671861D01*
G36*
X204377167Y-86214475D02*
G01*
X204066679Y-86296182D01*
X204035694Y-86308903D01*
X203635694Y-86538903D01*
X203615432Y-86553369D01*
X203601935Y-86567101D01*
X203401068Y-86805166D01*
X202717971Y-86402898D01*
X202970477Y-86078248D01*
X203388036Y-85736608D01*
X203830506Y-85520080D01*
X204283319Y-85425744D01*
X204608753Y-85419363D01*
X204377167Y-86214475D01*
X204377167Y-86214475D01*
G37*
X204377167Y-86214475D02*
X204066679Y-86296182D01*
X204035694Y-86308903D01*
X203635694Y-86538903D01*
X203615432Y-86553369D01*
X203601935Y-86567101D01*
X203401068Y-86805166D01*
X202717971Y-86402898D01*
X202970477Y-86078248D01*
X203388036Y-85736608D01*
X203830506Y-85520080D01*
X204283319Y-85425744D01*
X204608753Y-85419363D01*
X204377167Y-86214475D01*
G36*
X185627195Y-84611856D02*
G01*
X185626349Y-84612574D01*
X185556349Y-84672574D01*
X185535245Y-84695761D01*
X185415743Y-84865056D01*
X185336291Y-84974302D01*
X185325408Y-84992204D01*
X185276895Y-85089229D01*
X185256048Y-85039717D01*
X185244670Y-85018553D01*
X185044670Y-84718553D01*
X185022176Y-84693027D01*
X184779137Y-84482393D01*
X185061886Y-84475967D01*
X185062097Y-84475962D01*
X185470539Y-84466000D01*
X185800399Y-84466000D01*
X185627195Y-84611856D01*
X185627195Y-84611856D01*
G37*
X185627195Y-84611856D02*
X185626349Y-84612574D01*
X185556349Y-84672574D01*
X185535245Y-84695761D01*
X185415743Y-84865056D01*
X185336291Y-84974302D01*
X185325408Y-84992204D01*
X185276895Y-85089229D01*
X185256048Y-85039717D01*
X185244670Y-85018553D01*
X185044670Y-84718553D01*
X185022176Y-84693027D01*
X184779137Y-84482393D01*
X185061886Y-84475967D01*
X185062097Y-84475962D01*
X185470539Y-84466000D01*
X185800399Y-84466000D01*
X185627195Y-84611856D01*
G36*
X180972960Y-89638890D02*
G01*
X180996349Y-89665426D01*
X181256057Y-89888032D01*
X180887596Y-89898560D01*
X180892616Y-89516989D01*
X180972960Y-89638890D01*
X180972960Y-89638890D01*
G37*
X180972960Y-89638890D02*
X180996349Y-89665426D01*
X181256057Y-89888032D01*
X180887596Y-89898560D01*
X180892616Y-89516989D01*
X180972960Y-89638890D01*
G36*
X201273073Y-83571873D02*
G01*
X201282005Y-84590114D01*
X201282017Y-84591096D01*
X201352017Y-88831096D01*
X201357356Y-88865493D01*
X201387356Y-88965493D01*
X201400098Y-88994341D01*
X201430098Y-89044341D01*
X201444938Y-89064331D01*
X201463393Y-89081042D01*
X201484753Y-89093832D01*
X201515595Y-89103825D01*
X201623009Y-89123965D01*
X201632824Y-89138688D01*
X201649239Y-89902000D01*
X200446000Y-89902000D01*
X200446000Y-84439000D01*
X200443560Y-84414224D01*
X200436333Y-84390399D01*
X200424597Y-84368443D01*
X200408803Y-84349197D01*
X200389557Y-84333403D01*
X200367601Y-84321667D01*
X200343776Y-84314440D01*
X200319000Y-84312000D01*
X200124279Y-84312000D01*
X200055908Y-84306302D01*
X200045993Y-84296387D01*
X200026000Y-84196423D01*
X200026000Y-83530304D01*
X201273073Y-83571873D01*
X201273073Y-83571873D01*
G37*
X201273073Y-83571873D02*
X201282005Y-84590114D01*
X201282017Y-84591096D01*
X201352017Y-88831096D01*
X201357356Y-88865493D01*
X201387356Y-88965493D01*
X201400098Y-88994341D01*
X201430098Y-89044341D01*
X201444938Y-89064331D01*
X201463393Y-89081042D01*
X201484753Y-89093832D01*
X201515595Y-89103825D01*
X201623009Y-89123965D01*
X201632824Y-89138688D01*
X201649239Y-89902000D01*
X200446000Y-89902000D01*
X200446000Y-84439000D01*
X200443560Y-84414224D01*
X200436333Y-84390399D01*
X200424597Y-84368443D01*
X200408803Y-84349197D01*
X200389557Y-84333403D01*
X200367601Y-84321667D01*
X200343776Y-84314440D01*
X200319000Y-84312000D01*
X200124279Y-84312000D01*
X200055908Y-84306302D01*
X200045993Y-84296387D01*
X200026000Y-84196423D01*
X200026000Y-83530304D01*
X201273073Y-83571873D01*
M02*
