%FSLAX45Y45*%
G04 Gerber Fmt 4.5, Leading zero omitted, Abs format (unit mm)*
G04 Created by KiCad (PCBNEW (5.1.4)-1) date 2020-11-18 14:40:30*
%MOMM*%
%LPD*%
G04 APERTURE LIST*
%ADD10C,0.200000*%
%ADD11C,0.300000*%
G04 APERTURE END LIST*
D10*
X25222443Y-13508924D02*
G75*
G03X25222443Y-13508924I-120000J0D01*
G01*
X25222459Y-11109755D02*
G75*
G03X25222459Y-11109755I-120000J0D01*
G01*
X22662435Y-13508924D02*
G75*
G03X22662435Y-13508924I-120000J0D01*
G01*
X14571817Y-12082290D02*
G75*
G03X14571817Y-12082290I-120000J0D01*
G01*
X24740530Y-5396163D02*
G75*
G03X24740530Y-5396163I-120000J0D01*
G01*
X14571817Y-5396163D02*
G75*
G03X14571817Y-5396163I-120000J0D01*
G01*
X25261495Y-10742729D02*
G75*
G02X25020530Y-10375704I159036J367025D01*
G01*
X21742719Y-12482290D02*
G75*
G02X22142719Y-12882471I0J-400000D01*
G01*
X25261495Y-10742729D02*
G75*
G02X25502459Y-11109757I-159036J-367025D01*
G01*
X25502443Y-13508927D02*
G75*
G02X25102443Y-13908924I-400000J3D01*
G01*
X22542434Y-13908924D02*
G75*
G02X22142435Y-13508743I0J400000D01*
G01*
X22542435Y-13908924D02*
X25102443Y-13908924D01*
X22142719Y-12882471D02*
X22142435Y-13508743D01*
X14651817Y-12482290D02*
X21742719Y-12482290D01*
X14451817Y-12482290D02*
G75*
G02X14051817Y-12082290I0J400000D01*
G01*
X24620530Y-4996163D02*
G75*
G02X25020530Y-5396163I0J-400000D01*
G01*
X14051817Y-5396163D02*
G75*
G02X14451817Y-4996163I400000J0D01*
G01*
X25502459Y-11109757D02*
X25502443Y-13508927D01*
X25020530Y-5396163D02*
X25020530Y-10375704D01*
X14451817Y-4996163D02*
X24620530Y-4996163D01*
X14051817Y-5396163D02*
X14051817Y-12082290D01*
X14651817Y-12482290D02*
X14451817Y-12482290D01*
D10*
D11*
X14328245Y-14384639D02*
X14328245Y-14084639D01*
X14399674Y-14084639D01*
X14442531Y-14098925D01*
X14471103Y-14127496D01*
X14485388Y-14156067D01*
X14499674Y-14213210D01*
X14499674Y-14256067D01*
X14485388Y-14313210D01*
X14471103Y-14341782D01*
X14442531Y-14370353D01*
X14399674Y-14384639D01*
X14328245Y-14384639D01*
X14628245Y-14384639D02*
X14628245Y-14184639D01*
X14628245Y-14241782D02*
X14642531Y-14213210D01*
X14656817Y-14198925D01*
X14685388Y-14184639D01*
X14713960Y-14184639D01*
X14813960Y-14384639D02*
X14813960Y-14184639D01*
X14813960Y-14084639D02*
X14799674Y-14098925D01*
X14813960Y-14113210D01*
X14828245Y-14098925D01*
X14813960Y-14084639D01*
X14813960Y-14113210D01*
X14999674Y-14384639D02*
X14971103Y-14370353D01*
X14956817Y-14341782D01*
X14956817Y-14084639D01*
X15156817Y-14384639D02*
X15128245Y-14370353D01*
X15113960Y-14341782D01*
X15113960Y-14084639D01*
X15499674Y-14384639D02*
X15499674Y-14084639D01*
X15599674Y-14298925D01*
X15699674Y-14084639D01*
X15699674Y-14384639D01*
X15971103Y-14384639D02*
X15971103Y-14227496D01*
X15956817Y-14198925D01*
X15928245Y-14184639D01*
X15871103Y-14184639D01*
X15842531Y-14198925D01*
X15971103Y-14370353D02*
X15942531Y-14384639D01*
X15871103Y-14384639D01*
X15842531Y-14370353D01*
X15828245Y-14341782D01*
X15828245Y-14313210D01*
X15842531Y-14284639D01*
X15871103Y-14270353D01*
X15942531Y-14270353D01*
X15971103Y-14256067D01*
X16113960Y-14184639D02*
X16113960Y-14484639D01*
X16113960Y-14198925D02*
X16142531Y-14184639D01*
X16199674Y-14184639D01*
X16228245Y-14198925D01*
X16242531Y-14213210D01*
X16256817Y-14241782D01*
X16256817Y-14327496D01*
X16242531Y-14356067D01*
X16228245Y-14370353D01*
X16199674Y-14384639D01*
X16142531Y-14384639D01*
X16113960Y-14370353D01*
X16385388Y-14356067D02*
X16399674Y-14370353D01*
X16385388Y-14384639D01*
X16371103Y-14370353D01*
X16385388Y-14356067D01*
X16385388Y-14384639D01*
X16385388Y-14198925D02*
X16399674Y-14213210D01*
X16385388Y-14227496D01*
X16371103Y-14213210D01*
X16385388Y-14198925D01*
X16385388Y-14227496D01*
M02*
