G04 #@! TF.GenerationSoftware,KiCad,Pcbnew,(5.1.4)-1*
G04 #@! TF.CreationDate,2020-11-17T13:56:55-05:00*
G04 #@! TF.ProjectId,base,62617365-2e6b-4696-9361-645f70636258,rev?*
G04 #@! TF.SameCoordinates,Original*
G04 #@! TF.FileFunction,Copper,L1,Top*
G04 #@! TF.FilePolarity,Positive*
%FSLAX46Y46*%
G04 Gerber Fmt 4.6, Leading zero omitted, Abs format (unit mm)*
G04 Created by KiCad (PCBNEW (5.1.4)-1) date 2020-11-17 13:56:55*
%MOMM*%
%LPD*%
G04 APERTURE LIST*
%ADD10C,0.254000*%
G04 APERTURE END LIST*
D10*
G36*
X97830794Y-87290395D02*
G01*
X97850143Y-87306062D01*
X97872177Y-87317652D01*
X97896049Y-87324721D01*
X97920000Y-87327000D01*
X97930000Y-87327000D01*
X97954776Y-87324560D01*
X97978601Y-87317333D01*
X98000557Y-87305597D01*
X98019206Y-87290395D01*
X98689407Y-86629013D01*
X99029798Y-86969404D01*
X98360794Y-87629605D01*
X98344873Y-87648745D01*
X98332992Y-87670623D01*
X98325607Y-87694399D01*
X98323003Y-87719159D01*
X98325279Y-87743951D01*
X98332348Y-87767823D01*
X98343938Y-87789857D01*
X98359039Y-87808629D01*
X99029821Y-88497063D01*
X98686078Y-88827586D01*
X98019198Y-88169597D01*
X97999847Y-88153932D01*
X97977812Y-88142344D01*
X97953940Y-88135277D01*
X97930000Y-88133000D01*
X97920000Y-88133000D01*
X97895224Y-88135440D01*
X97871399Y-88142667D01*
X97849443Y-88154403D01*
X97832876Y-88167596D01*
X97159229Y-88802749D01*
X96822673Y-88479391D01*
X97488597Y-87830992D01*
X97504647Y-87811959D01*
X97516674Y-87790161D01*
X97524218Y-87766435D01*
X97527000Y-87740000D01*
X97527000Y-87730000D01*
X97524560Y-87705224D01*
X97517333Y-87681399D01*
X97505597Y-87659443D01*
X97490388Y-87640786D01*
X96819885Y-86961461D01*
X97159725Y-86628156D01*
X97830794Y-87290395D01*
X97830794Y-87290395D01*
G37*
X97830794Y-87290395D02*
X97850143Y-87306062D01*
X97872177Y-87317652D01*
X97896049Y-87324721D01*
X97920000Y-87327000D01*
X97930000Y-87327000D01*
X97954776Y-87324560D01*
X97978601Y-87317333D01*
X98000557Y-87305597D01*
X98019206Y-87290395D01*
X98689407Y-86629013D01*
X99029798Y-86969404D01*
X98360794Y-87629605D01*
X98344873Y-87648745D01*
X98332992Y-87670623D01*
X98325607Y-87694399D01*
X98323003Y-87719159D01*
X98325279Y-87743951D01*
X98332348Y-87767823D01*
X98343938Y-87789857D01*
X98359039Y-87808629D01*
X99029821Y-88497063D01*
X98686078Y-88827586D01*
X98019198Y-88169597D01*
X97999847Y-88153932D01*
X97977812Y-88142344D01*
X97953940Y-88135277D01*
X97930000Y-88133000D01*
X97920000Y-88133000D01*
X97895224Y-88135440D01*
X97871399Y-88142667D01*
X97849443Y-88154403D01*
X97832876Y-88167596D01*
X97159229Y-88802749D01*
X96822673Y-88479391D01*
X97488597Y-87830992D01*
X97504647Y-87811959D01*
X97516674Y-87790161D01*
X97524218Y-87766435D01*
X97527000Y-87740000D01*
X97527000Y-87730000D01*
X97524560Y-87705224D01*
X97517333Y-87681399D01*
X97505597Y-87659443D01*
X97490388Y-87640786D01*
X96819885Y-86961461D01*
X97159725Y-86628156D01*
X97830794Y-87290395D01*
G36*
X105851793Y-90776309D02*
G01*
X106179752Y-91197970D01*
X106196890Y-91216030D01*
X106212183Y-91227377D01*
X106592183Y-91467377D01*
X106614434Y-91478544D01*
X106629907Y-91483383D01*
X107039907Y-91583383D01*
X107064556Y-91586883D01*
X107085013Y-91586110D01*
X107505013Y-91536110D01*
X107537800Y-91527661D01*
X107857800Y-91397661D01*
X107886200Y-91381600D01*
X108166200Y-91171600D01*
X108185835Y-91153335D01*
X108385835Y-90923335D01*
X108401018Y-90901677D01*
X108468750Y-90779759D01*
X108478045Y-90778829D01*
X108858944Y-90890312D01*
X109073314Y-90974196D01*
X109219257Y-91063383D01*
X109212085Y-91089681D01*
X109076079Y-91316357D01*
X108699159Y-91770594D01*
X108506310Y-91935893D01*
X108011488Y-92221367D01*
X107461766Y-92363537D01*
X106890476Y-92382580D01*
X106519058Y-92308296D01*
X106036014Y-92090453D01*
X105609374Y-91758621D01*
X105276335Y-91349460D01*
X105117828Y-91051093D01*
X105108511Y-91020814D01*
X105302783Y-90949580D01*
X105726387Y-90801812D01*
X105842435Y-90772800D01*
X105851793Y-90776309D01*
X105851793Y-90776309D01*
G37*
X105851793Y-90776309D02*
X106179752Y-91197970D01*
X106196890Y-91216030D01*
X106212183Y-91227377D01*
X106592183Y-91467377D01*
X106614434Y-91478544D01*
X106629907Y-91483383D01*
X107039907Y-91583383D01*
X107064556Y-91586883D01*
X107085013Y-91586110D01*
X107505013Y-91536110D01*
X107537800Y-91527661D01*
X107857800Y-91397661D01*
X107886200Y-91381600D01*
X108166200Y-91171600D01*
X108185835Y-91153335D01*
X108385835Y-90923335D01*
X108401018Y-90901677D01*
X108468750Y-90779759D01*
X108478045Y-90778829D01*
X108858944Y-90890312D01*
X109073314Y-90974196D01*
X109219257Y-91063383D01*
X109212085Y-91089681D01*
X109076079Y-91316357D01*
X108699159Y-91770594D01*
X108506310Y-91935893D01*
X108011488Y-92221367D01*
X107461766Y-92363537D01*
X106890476Y-92382580D01*
X106519058Y-92308296D01*
X106036014Y-92090453D01*
X105609374Y-91758621D01*
X105276335Y-91349460D01*
X105117828Y-91051093D01*
X105108511Y-91020814D01*
X105302783Y-90949580D01*
X105726387Y-90801812D01*
X105842435Y-90772800D01*
X105851793Y-90776309D01*
G36*
X99030115Y-86961461D02*
G01*
X98359612Y-87640786D01*
X98343944Y-87660134D01*
X98332352Y-87682167D01*
X98325281Y-87706038D01*
X98323000Y-87730000D01*
X98323000Y-87740000D01*
X98325440Y-87764776D01*
X98332667Y-87788601D01*
X98344403Y-87810557D01*
X98361403Y-87830992D01*
X99027327Y-88479391D01*
X98690771Y-88802749D01*
X98017124Y-88167596D01*
X97997422Y-88152375D01*
X97975130Y-88141289D01*
X97951104Y-88134766D01*
X97930000Y-88133000D01*
X97920000Y-88133000D01*
X97895224Y-88135440D01*
X97871399Y-88142667D01*
X97849443Y-88154403D01*
X97830802Y-88169597D01*
X97163922Y-88827586D01*
X96820179Y-88497063D01*
X97490961Y-87808629D01*
X97506504Y-87789180D01*
X97517954Y-87767073D01*
X97524871Y-87743157D01*
X97526989Y-87718351D01*
X97524227Y-87693608D01*
X97516692Y-87669880D01*
X97504671Y-87648077D01*
X97489206Y-87629605D01*
X96820202Y-86969404D01*
X97160593Y-86629013D01*
X97830794Y-87290395D01*
X97850143Y-87306062D01*
X97872177Y-87317652D01*
X97896049Y-87324721D01*
X97920000Y-87327000D01*
X97930000Y-87327000D01*
X97954776Y-87324560D01*
X97978601Y-87317333D01*
X98000557Y-87305597D01*
X98019206Y-87290395D01*
X98690275Y-86628156D01*
X99030115Y-86961461D01*
X99030115Y-86961461D01*
G37*
X99030115Y-86961461D02*
X98359612Y-87640786D01*
X98343944Y-87660134D01*
X98332352Y-87682167D01*
X98325281Y-87706038D01*
X98323000Y-87730000D01*
X98323000Y-87740000D01*
X98325440Y-87764776D01*
X98332667Y-87788601D01*
X98344403Y-87810557D01*
X98361403Y-87830992D01*
X99027327Y-88479391D01*
X98690771Y-88802749D01*
X98017124Y-88167596D01*
X97997422Y-88152375D01*
X97975130Y-88141289D01*
X97951104Y-88134766D01*
X97930000Y-88133000D01*
X97920000Y-88133000D01*
X97895224Y-88135440D01*
X97871399Y-88142667D01*
X97849443Y-88154403D01*
X97830802Y-88169597D01*
X97163922Y-88827586D01*
X96820179Y-88497063D01*
X97490961Y-87808629D01*
X97506504Y-87789180D01*
X97517954Y-87767073D01*
X97524871Y-87743157D01*
X97526989Y-87718351D01*
X97524227Y-87693608D01*
X97516692Y-87669880D01*
X97504671Y-87648077D01*
X97489206Y-87629605D01*
X96820202Y-86969404D01*
X97160593Y-86629013D01*
X97830794Y-87290395D01*
X97850143Y-87306062D01*
X97872177Y-87317652D01*
X97896049Y-87324721D01*
X97920000Y-87327000D01*
X97930000Y-87327000D01*
X97954776Y-87324560D01*
X97978601Y-87317333D01*
X98000557Y-87305597D01*
X98019206Y-87290395D01*
X98690275Y-86628156D01*
X99030115Y-86961461D01*
G36*
X87653340Y-90254578D02*
G01*
X87385095Y-90282815D01*
X87040369Y-90273239D01*
X86852181Y-90247577D01*
X86778061Y-90204340D01*
X86724042Y-90127170D01*
X86723344Y-90126183D01*
X86676368Y-90060417D01*
X83564353Y-84850525D01*
X83589029Y-84847000D01*
X84437762Y-84847000D01*
X87653340Y-90254578D01*
X87653340Y-90254578D01*
G37*
X87653340Y-90254578D02*
X87385095Y-90282815D01*
X87040369Y-90273239D01*
X86852181Y-90247577D01*
X86778061Y-90204340D01*
X86724042Y-90127170D01*
X86723344Y-90126183D01*
X86676368Y-90060417D01*
X83564353Y-84850525D01*
X83589029Y-84847000D01*
X84437762Y-84847000D01*
X87653340Y-90254578D01*
G36*
X109198507Y-88936165D02*
G01*
X109034541Y-89257266D01*
X108675799Y-89653770D01*
X108220217Y-89966983D01*
X107707869Y-90166229D01*
X107157826Y-90242097D01*
X106602827Y-90184684D01*
X106438846Y-90141531D01*
X106330061Y-90078550D01*
X106367500Y-89172537D01*
X106578947Y-89315264D01*
X106600848Y-89327103D01*
X106617823Y-89332856D01*
X107037823Y-89442856D01*
X107062410Y-89446773D01*
X107086785Y-89445886D01*
X107536785Y-89385886D01*
X107570408Y-89376568D01*
X107940408Y-89216568D01*
X107962180Y-89204494D01*
X107972355Y-89196678D01*
X108242355Y-88966678D01*
X108259634Y-88948754D01*
X108268610Y-88935824D01*
X108416997Y-88690985D01*
X109198507Y-88936165D01*
X109198507Y-88936165D01*
G37*
X109198507Y-88936165D02*
X109034541Y-89257266D01*
X108675799Y-89653770D01*
X108220217Y-89966983D01*
X107707869Y-90166229D01*
X107157826Y-90242097D01*
X106602827Y-90184684D01*
X106438846Y-90141531D01*
X106330061Y-90078550D01*
X106367500Y-89172537D01*
X106578947Y-89315264D01*
X106600848Y-89327103D01*
X106617823Y-89332856D01*
X107037823Y-89442856D01*
X107062410Y-89446773D01*
X107086785Y-89445886D01*
X107536785Y-89385886D01*
X107570408Y-89376568D01*
X107940408Y-89216568D01*
X107962180Y-89204494D01*
X107972355Y-89196678D01*
X108242355Y-88966678D01*
X108259634Y-88948754D01*
X108268610Y-88935824D01*
X108416997Y-88690985D01*
X109198507Y-88936165D01*
G36*
X91088036Y-84896607D02*
G01*
X91413779Y-84944510D01*
X91686801Y-85019827D01*
X91870471Y-85102478D01*
X92420183Y-85440021D01*
X92847476Y-85876809D01*
X93151594Y-86418520D01*
X93324036Y-87050805D01*
X93352753Y-87519858D01*
X93313970Y-88130698D01*
X93190432Y-88634352D01*
X92955290Y-89076419D01*
X92676517Y-89384030D01*
X92406251Y-89673601D01*
X92219890Y-89804054D01*
X91915103Y-89994546D01*
X91528835Y-90126442D01*
X91065709Y-90203630D01*
X90651143Y-90228566D01*
X91118086Y-90037544D01*
X91143239Y-90023755D01*
X91653239Y-89663755D01*
X91678960Y-89639598D01*
X92048960Y-89179598D01*
X92066305Y-89151011D01*
X92316305Y-88581011D01*
X92325567Y-88549025D01*
X92425567Y-87889025D01*
X92427000Y-87870000D01*
X92427000Y-87310000D01*
X92426439Y-87298072D01*
X92376439Y-86768072D01*
X92372856Y-86747823D01*
X92262856Y-86327823D01*
X92252059Y-86300235D01*
X92172835Y-86151690D01*
X92073592Y-85953204D01*
X92061600Y-85933800D01*
X92001600Y-85853800D01*
X91995577Y-85846370D01*
X91927996Y-85769135D01*
X91790248Y-85592030D01*
X91779803Y-85580197D01*
X91509803Y-85310197D01*
X91494487Y-85297137D01*
X91204487Y-85087137D01*
X91180747Y-85073580D01*
X90790747Y-84903580D01*
X90778562Y-84898996D01*
X90722457Y-84881116D01*
X91088036Y-84896607D01*
X91088036Y-84896607D01*
G37*
X91088036Y-84896607D02*
X91413779Y-84944510D01*
X91686801Y-85019827D01*
X91870471Y-85102478D01*
X92420183Y-85440021D01*
X92847476Y-85876809D01*
X93151594Y-86418520D01*
X93324036Y-87050805D01*
X93352753Y-87519858D01*
X93313970Y-88130698D01*
X93190432Y-88634352D01*
X92955290Y-89076419D01*
X92676517Y-89384030D01*
X92406251Y-89673601D01*
X92219890Y-89804054D01*
X91915103Y-89994546D01*
X91528835Y-90126442D01*
X91065709Y-90203630D01*
X90651143Y-90228566D01*
X91118086Y-90037544D01*
X91143239Y-90023755D01*
X91653239Y-89663755D01*
X91678960Y-89639598D01*
X92048960Y-89179598D01*
X92066305Y-89151011D01*
X92316305Y-88581011D01*
X92325567Y-88549025D01*
X92425567Y-87889025D01*
X92427000Y-87870000D01*
X92427000Y-87310000D01*
X92426439Y-87298072D01*
X92376439Y-86768072D01*
X92372856Y-86747823D01*
X92262856Y-86327823D01*
X92252059Y-86300235D01*
X92172835Y-86151690D01*
X92073592Y-85953204D01*
X92061600Y-85933800D01*
X92001600Y-85853800D01*
X91995577Y-85846370D01*
X91927996Y-85769135D01*
X91790248Y-85592030D01*
X91779803Y-85580197D01*
X91509803Y-85310197D01*
X91494487Y-85297137D01*
X91204487Y-85087137D01*
X91180747Y-85073580D01*
X90790747Y-84903580D01*
X90778562Y-84898996D01*
X90722457Y-84881116D01*
X91088036Y-84896607D01*
G36*
X107818177Y-85863703D02*
G01*
X108111451Y-85973680D01*
X108605171Y-86305992D01*
X108984251Y-86741933D01*
X109240171Y-87234817D01*
X109373000Y-87785108D01*
X109373000Y-88365427D01*
X109279699Y-88766622D01*
X109081598Y-89162824D01*
X108336835Y-88816773D01*
X108466178Y-88619679D01*
X108480135Y-88591189D01*
X108600135Y-88241189D01*
X108606130Y-88214839D01*
X108626130Y-88044839D01*
X108626601Y-88019947D01*
X108624825Y-88006595D01*
X108564825Y-87686595D01*
X108555503Y-87657199D01*
X108395503Y-87307199D01*
X108382413Y-87284897D01*
X108162413Y-86984897D01*
X108142651Y-86963574D01*
X108002651Y-86843574D01*
X107975680Y-86825856D01*
X107565680Y-86625856D01*
X107542342Y-86617187D01*
X107521498Y-86613522D01*
X107081498Y-86573522D01*
X107056602Y-86573709D01*
X107036865Y-86577399D01*
X106852991Y-86627095D01*
X106970453Y-85804859D01*
X107362028Y-85797181D01*
X107818177Y-85863703D01*
X107818177Y-85863703D01*
G37*
X107818177Y-85863703D02*
X108111451Y-85973680D01*
X108605171Y-86305992D01*
X108984251Y-86741933D01*
X109240171Y-87234817D01*
X109373000Y-87785108D01*
X109373000Y-88365427D01*
X109279699Y-88766622D01*
X109081598Y-89162824D01*
X108336835Y-88816773D01*
X108466178Y-88619679D01*
X108480135Y-88591189D01*
X108600135Y-88241189D01*
X108606130Y-88214839D01*
X108626130Y-88044839D01*
X108626601Y-88019947D01*
X108624825Y-88006595D01*
X108564825Y-87686595D01*
X108555503Y-87657199D01*
X108395503Y-87307199D01*
X108382413Y-87284897D01*
X108162413Y-86984897D01*
X108142651Y-86963574D01*
X108002651Y-86843574D01*
X107975680Y-86825856D01*
X107565680Y-86625856D01*
X107542342Y-86617187D01*
X107521498Y-86613522D01*
X107081498Y-86573522D01*
X107056602Y-86573709D01*
X107036865Y-86577399D01*
X106852991Y-86627095D01*
X106970453Y-85804859D01*
X107362028Y-85797181D01*
X107818177Y-85863703D01*
G36*
X106104544Y-87052861D02*
G01*
X105922935Y-87268101D01*
X105908822Y-87288611D01*
X105901465Y-87304410D01*
X105751465Y-87694410D01*
X105744848Y-87718411D01*
X105743151Y-87733812D01*
X105723151Y-88143812D01*
X105724381Y-88168678D01*
X105728113Y-88185674D01*
X105848113Y-88595674D01*
X105857415Y-88618768D01*
X105867758Y-88635336D01*
X106147758Y-89015336D01*
X106164420Y-89033835D01*
X106177170Y-89044042D01*
X106518645Y-89283075D01*
X106463376Y-90135796D01*
X106445815Y-90130917D01*
X105911369Y-89863694D01*
X105456318Y-89465525D01*
X105154913Y-89013417D01*
X104974927Y-88482933D01*
X104918036Y-87914021D01*
X105012386Y-87338486D01*
X105229009Y-86886403D01*
X105456432Y-86585618D01*
X106104544Y-87052861D01*
X106104544Y-87052861D01*
G37*
X106104544Y-87052861D02*
X105922935Y-87268101D01*
X105908822Y-87288611D01*
X105901465Y-87304410D01*
X105751465Y-87694410D01*
X105744848Y-87718411D01*
X105743151Y-87733812D01*
X105723151Y-88143812D01*
X105724381Y-88168678D01*
X105728113Y-88185674D01*
X105848113Y-88595674D01*
X105857415Y-88618768D01*
X105867758Y-88635336D01*
X106147758Y-89015336D01*
X106164420Y-89033835D01*
X106177170Y-89044042D01*
X106518645Y-89283075D01*
X106463376Y-90135796D01*
X106445815Y-90130917D01*
X105911369Y-89863694D01*
X105456318Y-89465525D01*
X105154913Y-89013417D01*
X104974927Y-88482933D01*
X104918036Y-87914021D01*
X105012386Y-87338486D01*
X105229009Y-86886403D01*
X105456432Y-86585618D01*
X106104544Y-87052861D01*
G36*
X106968167Y-86595475D02*
G01*
X106657679Y-86677182D01*
X106626694Y-86689903D01*
X106226694Y-86919903D01*
X106206432Y-86934369D01*
X106192935Y-86948101D01*
X105992068Y-87186166D01*
X105308971Y-86783898D01*
X105561477Y-86459247D01*
X105979036Y-86117608D01*
X106421506Y-85901080D01*
X106874319Y-85806744D01*
X107199753Y-85800363D01*
X106968167Y-86595475D01*
X106968167Y-86595475D01*
G37*
X106968167Y-86595475D02*
X106657679Y-86677182D01*
X106626694Y-86689903D01*
X106226694Y-86919903D01*
X106206432Y-86934369D01*
X106192935Y-86948101D01*
X105992068Y-87186166D01*
X105308971Y-86783898D01*
X105561477Y-86459247D01*
X105979036Y-86117608D01*
X106421506Y-85901080D01*
X106874319Y-85806744D01*
X107199753Y-85800363D01*
X106968167Y-86595475D01*
G36*
X88218195Y-84992856D02*
G01*
X88217349Y-84993574D01*
X88147349Y-85053574D01*
X88126245Y-85076761D01*
X88006743Y-85246056D01*
X87927291Y-85355302D01*
X87916408Y-85373204D01*
X87867895Y-85470229D01*
X87847048Y-85420717D01*
X87835670Y-85399553D01*
X87635670Y-85099553D01*
X87613176Y-85074027D01*
X87370137Y-84863393D01*
X87652886Y-84856967D01*
X87653097Y-84856962D01*
X88061539Y-84847000D01*
X88391399Y-84847000D01*
X88218195Y-84992856D01*
X88218195Y-84992856D01*
G37*
X88218195Y-84992856D02*
X88217349Y-84993574D01*
X88147349Y-85053574D01*
X88126245Y-85076761D01*
X88006743Y-85246056D01*
X87927291Y-85355302D01*
X87916408Y-85373204D01*
X87867895Y-85470229D01*
X87847048Y-85420717D01*
X87835670Y-85399553D01*
X87635670Y-85099553D01*
X87613176Y-85074027D01*
X87370137Y-84863393D01*
X87652886Y-84856967D01*
X87653097Y-84856962D01*
X88061539Y-84847000D01*
X88391399Y-84847000D01*
X88218195Y-84992856D01*
G36*
X83563960Y-90019890D02*
G01*
X83587349Y-90046426D01*
X83847057Y-90269032D01*
X83478596Y-90279560D01*
X83483616Y-89897989D01*
X83563960Y-90019890D01*
X83563960Y-90019890D01*
G37*
X83563960Y-90019890D02*
X83587349Y-90046426D01*
X83847057Y-90269032D01*
X83478596Y-90279560D01*
X83483616Y-89897989D01*
X83563960Y-90019890D01*
G36*
X103864073Y-83952873D02*
G01*
X103873005Y-84971114D01*
X103873017Y-84972096D01*
X103943017Y-89212096D01*
X103948356Y-89246493D01*
X103978356Y-89346493D01*
X103991098Y-89375341D01*
X104021098Y-89425341D01*
X104035938Y-89445331D01*
X104054393Y-89462042D01*
X104075753Y-89474832D01*
X104106595Y-89484825D01*
X104214009Y-89504965D01*
X104223824Y-89519688D01*
X104240239Y-90283000D01*
X103037000Y-90283000D01*
X103037000Y-84820000D01*
X103034560Y-84795224D01*
X103027333Y-84771399D01*
X103015597Y-84749443D01*
X102999803Y-84730197D01*
X102980557Y-84714403D01*
X102958601Y-84702667D01*
X102934776Y-84695440D01*
X102910000Y-84693000D01*
X102715279Y-84693000D01*
X102646908Y-84687302D01*
X102636993Y-84677387D01*
X102617000Y-84577423D01*
X102617000Y-83911304D01*
X103864073Y-83952873D01*
X103864073Y-83952873D01*
G37*
X103864073Y-83952873D02*
X103873005Y-84971114D01*
X103873017Y-84972096D01*
X103943017Y-89212096D01*
X103948356Y-89246493D01*
X103978356Y-89346493D01*
X103991098Y-89375341D01*
X104021098Y-89425341D01*
X104035938Y-89445331D01*
X104054393Y-89462042D01*
X104075753Y-89474832D01*
X104106595Y-89484825D01*
X104214009Y-89504965D01*
X104223824Y-89519688D01*
X104240239Y-90283000D01*
X103037000Y-90283000D01*
X103037000Y-84820000D01*
X103034560Y-84795224D01*
X103027333Y-84771399D01*
X103015597Y-84749443D01*
X102999803Y-84730197D01*
X102980557Y-84714403D01*
X102958601Y-84702667D01*
X102934776Y-84695440D01*
X102910000Y-84693000D01*
X102715279Y-84693000D01*
X102646908Y-84687302D01*
X102636993Y-84677387D01*
X102617000Y-84577423D01*
X102617000Y-83911304D01*
X103864073Y-83952873D01*
M02*
