G04 #@! TF.GenerationSoftware,KiCad,Pcbnew,(5.1.9)-1*
G04 #@! TF.CreationDate,2021-01-20T21:35:32-05:00*
G04 #@! TF.ProjectId,base,62617365-2e6b-4696-9361-645f70636258,rev?*
G04 #@! TF.SameCoordinates,Original*
G04 #@! TF.FileFunction,Copper,L1,Top*
G04 #@! TF.FilePolarity,Positive*
%FSLAX46Y46*%
G04 Gerber Fmt 4.6, Leading zero omitted, Abs format (unit mm)*
G04 Created by KiCad (PCBNEW (5.1.9)-1) date 2021-01-20 21:35:32*
%MOMM*%
%LPD*%
G01*
G04 APERTURE LIST*
G04 #@! TA.AperFunction,EtchedComponent*
%ADD10C,0.010000*%
G04 #@! TD*
G04 #@! TA.AperFunction,ComponentPad*
%ADD11C,4.400000*%
G04 #@! TD*
G04 #@! TA.AperFunction,ComponentPad*
%ADD12C,0.700000*%
G04 #@! TD*
G04 APERTURE END LIST*
D10*
G36*
X196611689Y-86633537D02*
G01*
X196236966Y-87015352D01*
X195862244Y-87397166D01*
X196236966Y-87778981D01*
X196611689Y-88160795D01*
X196153129Y-88619355D01*
X195771315Y-88244632D01*
X195389500Y-87869910D01*
X195026462Y-88226205D01*
X194826886Y-88415220D01*
X194677121Y-88544411D01*
X194617887Y-88582500D01*
X194535173Y-88526992D01*
X194392846Y-88391171D01*
X194372097Y-88369339D01*
X194171843Y-88156178D01*
X194916757Y-87397166D01*
X194542034Y-87015352D01*
X194167311Y-86633537D01*
X194625871Y-86174977D01*
X195007686Y-86549700D01*
X195389500Y-86924423D01*
X195771315Y-86549700D01*
X196153129Y-86174977D01*
X196611689Y-86633537D01*
G37*
X196611689Y-86633537D02*
X196236966Y-87015352D01*
X195862244Y-87397166D01*
X196236966Y-87778981D01*
X196611689Y-88160795D01*
X196153129Y-88619355D01*
X195771315Y-88244632D01*
X195389500Y-87869910D01*
X195026462Y-88226205D01*
X194826886Y-88415220D01*
X194677121Y-88544411D01*
X194617887Y-88582500D01*
X194535173Y-88526992D01*
X194392846Y-88391171D01*
X194372097Y-88369339D01*
X194171843Y-88156178D01*
X194916757Y-87397166D01*
X194542034Y-87015352D01*
X194167311Y-86633537D01*
X194625871Y-86174977D01*
X195007686Y-86549700D01*
X195389500Y-86924423D01*
X195771315Y-86549700D01*
X196153129Y-86174977D01*
X196611689Y-86633537D01*
G36*
X205228160Y-85476502D02*
G01*
X205779753Y-85701549D01*
X206249362Y-86060649D01*
X206617418Y-86538917D01*
X206860849Y-87109316D01*
X206949212Y-87690066D01*
X206886952Y-88250278D01*
X206692629Y-88769777D01*
X206384799Y-89228389D01*
X205982021Y-89605937D01*
X205502852Y-89882249D01*
X204965849Y-90037148D01*
X204389571Y-90050461D01*
X204184834Y-90018509D01*
X203678869Y-89842871D01*
X203205335Y-89545732D01*
X202802932Y-89160780D01*
X202510359Y-88721704D01*
X202412063Y-88475288D01*
X202300569Y-87849082D01*
X202318265Y-87584458D01*
X203276042Y-87584458D01*
X203307733Y-88016511D01*
X203483659Y-88425224D01*
X203779415Y-88771941D01*
X204170597Y-89018006D01*
X204184834Y-89023956D01*
X204422748Y-89062625D01*
X204740728Y-89043576D01*
X205064073Y-88977802D01*
X205318081Y-88876297D01*
X205355307Y-88851704D01*
X205707501Y-88500693D01*
X205910515Y-88098664D01*
X205965111Y-87673277D01*
X205872053Y-87252192D01*
X205632106Y-86863070D01*
X205292131Y-86563681D01*
X204909010Y-86397586D01*
X204504232Y-86375933D01*
X204109752Y-86482543D01*
X203757527Y-86701237D01*
X203479511Y-87015835D01*
X203307661Y-87410157D01*
X203276042Y-87584458D01*
X202318265Y-87584458D01*
X202340429Y-87253047D01*
X202517442Y-86707014D01*
X202817404Y-86230815D01*
X203226115Y-85844279D01*
X203729373Y-85567238D01*
X204312976Y-85419522D01*
X204614153Y-85400393D01*
X205228160Y-85476502D01*
G37*
X205228160Y-85476502D02*
X205779753Y-85701549D01*
X206249362Y-86060649D01*
X206617418Y-86538917D01*
X206860849Y-87109316D01*
X206949212Y-87690066D01*
X206886952Y-88250278D01*
X206692629Y-88769777D01*
X206384799Y-89228389D01*
X205982021Y-89605937D01*
X205502852Y-89882249D01*
X204965849Y-90037148D01*
X204389571Y-90050461D01*
X204184834Y-90018509D01*
X203678869Y-89842871D01*
X203205335Y-89545732D01*
X202802932Y-89160780D01*
X202510359Y-88721704D01*
X202412063Y-88475288D01*
X202300569Y-87849082D01*
X202318265Y-87584458D01*
X203276042Y-87584458D01*
X203307733Y-88016511D01*
X203483659Y-88425224D01*
X203779415Y-88771941D01*
X204170597Y-89018006D01*
X204184834Y-89023956D01*
X204422748Y-89062625D01*
X204740728Y-89043576D01*
X205064073Y-88977802D01*
X205318081Y-88876297D01*
X205355307Y-88851704D01*
X205707501Y-88500693D01*
X205910515Y-88098664D01*
X205965111Y-87673277D01*
X205872053Y-87252192D01*
X205632106Y-86863070D01*
X205292131Y-86563681D01*
X204909010Y-86397586D01*
X204504232Y-86375933D01*
X204109752Y-86482543D01*
X203757527Y-86701237D01*
X203479511Y-87015835D01*
X203307661Y-87410157D01*
X203276042Y-87584458D01*
X202318265Y-87584458D01*
X202340429Y-87253047D01*
X202517442Y-86707014D01*
X202817404Y-86230815D01*
X203226115Y-85844279D01*
X203729373Y-85567238D01*
X204312976Y-85419522D01*
X204614153Y-85400393D01*
X205228160Y-85476502D01*
G36*
X180896529Y-89378281D02*
G01*
X180899661Y-89385896D01*
X181006803Y-89545173D01*
X181194871Y-89742752D01*
X181294585Y-89830396D01*
X181617415Y-90096500D01*
X180816834Y-90096500D01*
X180822200Y-89652000D01*
X180831792Y-89409348D01*
X180855286Y-89322515D01*
X180896529Y-89378281D01*
G37*
X180896529Y-89378281D02*
X180899661Y-89385896D01*
X181006803Y-89545173D01*
X181194871Y-89742752D01*
X181294585Y-89830396D01*
X181617415Y-90096500D01*
X180816834Y-90096500D01*
X180822200Y-89652000D01*
X180831792Y-89409348D01*
X180855286Y-89322515D01*
X180896529Y-89378281D01*
G36*
X183442342Y-86977415D02*
G01*
X183802342Y-87577612D01*
X184142404Y-88144539D01*
X184450694Y-88658470D01*
X184715380Y-89099679D01*
X184924628Y-89448444D01*
X185066605Y-89685037D01*
X185118466Y-89771415D01*
X185313765Y-90096500D01*
X184213020Y-90096500D01*
X182557260Y-87338790D01*
X182186658Y-86720620D01*
X181844964Y-86148892D01*
X181541677Y-85639632D01*
X181286293Y-85208865D01*
X181088308Y-84872618D01*
X180957221Y-84646917D01*
X180902529Y-84547786D01*
X180901500Y-84544790D01*
X180978608Y-84525998D01*
X181179731Y-84512884D01*
X181431508Y-84508500D01*
X181961517Y-84508500D01*
X183442342Y-86977415D01*
G37*
X183442342Y-86977415D02*
X183802342Y-87577612D01*
X184142404Y-88144539D01*
X184450694Y-88658470D01*
X184715380Y-89099679D01*
X184924628Y-89448444D01*
X185066605Y-89685037D01*
X185118466Y-89771415D01*
X185313765Y-90096500D01*
X184213020Y-90096500D01*
X182557260Y-87338790D01*
X182186658Y-86720620D01*
X181844964Y-86148892D01*
X181541677Y-85639632D01*
X181286293Y-85208865D01*
X181088308Y-84872618D01*
X180957221Y-84646917D01*
X180902529Y-84547786D01*
X180901500Y-84544790D01*
X180978608Y-84525998D01*
X181179731Y-84512884D01*
X181431508Y-84508500D01*
X181961517Y-84508500D01*
X183442342Y-86977415D01*
G36*
X201390834Y-89080500D02*
G01*
X201602500Y-89080500D01*
X201719809Y-89091256D01*
X201783143Y-89150032D01*
X201809072Y-89296591D01*
X201814162Y-89570694D01*
X201814167Y-89588500D01*
X201814167Y-90096500D01*
X200461814Y-90096500D01*
X200439490Y-87323666D01*
X200417167Y-84550833D01*
X200226667Y-84523778D01*
X200119910Y-84492480D01*
X200062648Y-84409442D01*
X200039800Y-84232773D01*
X200036167Y-83994611D01*
X200036167Y-83492500D01*
X201390834Y-83492500D01*
X201390834Y-89080500D01*
G37*
X201390834Y-89080500D02*
X201602500Y-89080500D01*
X201719809Y-89091256D01*
X201783143Y-89150032D01*
X201809072Y-89296591D01*
X201814162Y-89570694D01*
X201814167Y-89588500D01*
X201814167Y-90096500D01*
X200461814Y-90096500D01*
X200439490Y-87323666D01*
X200417167Y-84550833D01*
X200226667Y-84523778D01*
X200119910Y-84492480D01*
X200062648Y-84409442D01*
X200039800Y-84232773D01*
X200036167Y-83994611D01*
X200036167Y-83492500D01*
X201390834Y-83492500D01*
X201390834Y-89080500D01*
G36*
X185738522Y-84723885D02*
G01*
X185557642Y-84906039D01*
X185440313Y-85078593D01*
X185429987Y-85104885D01*
X185356395Y-85239665D01*
X185304167Y-85270500D01*
X185222440Y-85200836D01*
X185178347Y-85104885D01*
X185080701Y-84943096D01*
X184907487Y-84756868D01*
X184869812Y-84723885D01*
X184613841Y-84508500D01*
X185994492Y-84508500D01*
X185738522Y-84723885D01*
G37*
X185738522Y-84723885D02*
X185557642Y-84906039D01*
X185440313Y-85078593D01*
X185429987Y-85104885D01*
X185356395Y-85239665D01*
X185304167Y-85270500D01*
X185222440Y-85200836D01*
X185178347Y-85104885D01*
X185080701Y-84943096D01*
X184907487Y-84756868D01*
X184869812Y-84723885D01*
X184613841Y-84508500D01*
X185994492Y-84508500D01*
X185738522Y-84723885D01*
G36*
X206381761Y-91114094D02*
G01*
X206673200Y-91119736D01*
X206848075Y-91135727D01*
X206932768Y-91167123D01*
X206953664Y-91218977D01*
X206937148Y-91296345D01*
X206935228Y-91303000D01*
X206755087Y-91666522D01*
X206470270Y-91932441D01*
X206293570Y-92017887D01*
X206091004Y-92059682D01*
X205767757Y-92094001D01*
X205372446Y-92116719D01*
X205046961Y-92123721D01*
X204633779Y-92124755D01*
X204362545Y-92119183D01*
X204205878Y-92101375D01*
X204136396Y-92065700D01*
X204126717Y-92006527D01*
X204143772Y-91938000D01*
X204296381Y-91615757D01*
X204530690Y-91339793D01*
X204700995Y-91219581D01*
X204894749Y-91168921D01*
X205237882Y-91133776D01*
X205711010Y-91115792D01*
X205947372Y-91113748D01*
X206381761Y-91114094D01*
G37*
X206381761Y-91114094D02*
X206673200Y-91119736D01*
X206848075Y-91135727D01*
X206932768Y-91167123D01*
X206953664Y-91218977D01*
X206937148Y-91296345D01*
X206935228Y-91303000D01*
X206755087Y-91666522D01*
X206470270Y-91932441D01*
X206293570Y-92017887D01*
X206091004Y-92059682D01*
X205767757Y-92094001D01*
X205372446Y-92116719D01*
X205046961Y-92123721D01*
X204633779Y-92124755D01*
X204362545Y-92119183D01*
X204205878Y-92101375D01*
X204136396Y-92065700D01*
X204126717Y-92006527D01*
X204143772Y-91938000D01*
X204296381Y-91615757D01*
X204530690Y-91339793D01*
X204700995Y-91219581D01*
X204894749Y-91168921D01*
X205237882Y-91133776D01*
X205711010Y-91115792D01*
X205947372Y-91113748D01*
X206381761Y-91114094D01*
G36*
X188394500Y-84534651D02*
G01*
X189052778Y-84624957D01*
X189604541Y-84836628D01*
X190070031Y-85178750D01*
X190246994Y-85366229D01*
X190589280Y-85889003D01*
X190805901Y-86487594D01*
X190896685Y-87127073D01*
X190861457Y-87772511D01*
X190700044Y-88388979D01*
X190412272Y-88941547D01*
X190265701Y-89132248D01*
X189829027Y-89519657D01*
X189274181Y-89816294D01*
X188632979Y-90009986D01*
X187937234Y-90088563D01*
X187765117Y-90088929D01*
X187378500Y-90081358D01*
X187778730Y-89971195D01*
X188416101Y-89724475D01*
X188952542Y-89370539D01*
X189370074Y-88925693D01*
X189650717Y-88406243D01*
X189710863Y-88218870D01*
X189763735Y-87906771D01*
X189791367Y-87499019D01*
X189793697Y-87058996D01*
X189770664Y-86650087D01*
X189722206Y-86335675D01*
X189712725Y-86300532D01*
X189457468Y-85719209D01*
X189065010Y-85231988D01*
X188545155Y-84848932D01*
X188097711Y-84643361D01*
X187717167Y-84503859D01*
X188394500Y-84534651D01*
G37*
X188394500Y-84534651D02*
X189052778Y-84624957D01*
X189604541Y-84836628D01*
X190070031Y-85178750D01*
X190246994Y-85366229D01*
X190589280Y-85889003D01*
X190805901Y-86487594D01*
X190896685Y-87127073D01*
X190861457Y-87772511D01*
X190700044Y-88388979D01*
X190412272Y-88941547D01*
X190265701Y-89132248D01*
X189829027Y-89519657D01*
X189274181Y-89816294D01*
X188632979Y-90009986D01*
X187937234Y-90088563D01*
X187765117Y-90088929D01*
X187378500Y-90081358D01*
X187778730Y-89971195D01*
X188416101Y-89724475D01*
X188952542Y-89370539D01*
X189370074Y-88925693D01*
X189650717Y-88406243D01*
X189710863Y-88218870D01*
X189763735Y-87906771D01*
X189791367Y-87499019D01*
X189793697Y-87058996D01*
X189770664Y-86650087D01*
X189722206Y-86335675D01*
X189712725Y-86300532D01*
X189457468Y-85719209D01*
X189065010Y-85231988D01*
X188545155Y-84848932D01*
X188097711Y-84643361D01*
X187717167Y-84503859D01*
X188394500Y-84534651D01*
D11*
X144531830Y-120838374D03*
D12*
X146181830Y-120838374D03*
X145698556Y-122005100D03*
X144531830Y-122488374D03*
X143365104Y-122005100D03*
X142881830Y-120838374D03*
X143365104Y-119671648D03*
X144531830Y-119188374D03*
X145698556Y-119671648D03*
D11*
X225450000Y-135100000D03*
D12*
X227100000Y-135100000D03*
X226616726Y-136266726D03*
X225450000Y-136750000D03*
X224283274Y-136266726D03*
X223800000Y-135100000D03*
X224283274Y-133933274D03*
X225450000Y-133450000D03*
X226616726Y-133933274D03*
D11*
X251050000Y-135100000D03*
D12*
X252700000Y-135100000D03*
X252216726Y-136266726D03*
X251050000Y-136750000D03*
X249883274Y-136266726D03*
X249400000Y-135100000D03*
X249883274Y-133933274D03*
X251050000Y-133450000D03*
X252216726Y-133933274D03*
D11*
X246200000Y-53950000D03*
D12*
X247850000Y-53950000D03*
X247366726Y-55116726D03*
X246200000Y-55600000D03*
X245033274Y-55116726D03*
X244550000Y-53950000D03*
X245033274Y-52783274D03*
X246200000Y-52300000D03*
X247366726Y-52783274D03*
X145666726Y-52783274D03*
X144500000Y-52300000D03*
X143333274Y-52783274D03*
X142850000Y-53950000D03*
X143333274Y-55116726D03*
X144500000Y-55600000D03*
X145666726Y-55116726D03*
X146150000Y-53950000D03*
D11*
X144500000Y-53950000D03*
M02*
