G04 #@! TF.GenerationSoftware,KiCad,Pcbnew,(5.1.9)-1*
G04 #@! TF.CreationDate,2021-01-20T21:35:32-05:00*
G04 #@! TF.ProjectId,base,62617365-2e6b-4696-9361-645f70636258,rev?*
G04 #@! TF.SameCoordinates,Original*
G04 #@! TF.FileFunction,Copper,L2,Bot*
G04 #@! TF.FilePolarity,Positive*
%FSLAX46Y46*%
G04 Gerber Fmt 4.6, Leading zero omitted, Abs format (unit mm)*
G04 Created by KiCad (PCBNEW (5.1.9)-1) date 2021-01-20 21:35:32*
%MOMM*%
%LPD*%
G01*
G04 APERTURE LIST*
G04 #@! TA.AperFunction,EtchedComponent*
%ADD10C,0.010000*%
G04 #@! TD*
G04 #@! TA.AperFunction,ComponentPad*
%ADD11C,4.400000*%
G04 #@! TD*
G04 #@! TA.AperFunction,ComponentPad*
%ADD12C,0.700000*%
G04 #@! TD*
G04 APERTURE END LIST*
D10*
G36*
X194139548Y-86617274D02*
G01*
X194514271Y-86999089D01*
X194888993Y-87380903D01*
X194514271Y-87762718D01*
X194139548Y-88144532D01*
X194598108Y-88603092D01*
X194979922Y-88228369D01*
X195361737Y-87853647D01*
X195724775Y-88209942D01*
X195924351Y-88398957D01*
X196074116Y-88528148D01*
X196133350Y-88566237D01*
X196216064Y-88510729D01*
X196358391Y-88374908D01*
X196379140Y-88353076D01*
X196579394Y-88139915D01*
X195834480Y-87380903D01*
X196209203Y-86999089D01*
X196583926Y-86617274D01*
X196125366Y-86158714D01*
X195743551Y-86533437D01*
X195361737Y-86908160D01*
X194979922Y-86533437D01*
X194598108Y-86158714D01*
X194139548Y-86617274D01*
G37*
X194139548Y-86617274D02*
X194514271Y-86999089D01*
X194888993Y-87380903D01*
X194514271Y-87762718D01*
X194139548Y-88144532D01*
X194598108Y-88603092D01*
X194979922Y-88228369D01*
X195361737Y-87853647D01*
X195724775Y-88209942D01*
X195924351Y-88398957D01*
X196074116Y-88528148D01*
X196133350Y-88566237D01*
X196216064Y-88510729D01*
X196358391Y-88374908D01*
X196379140Y-88353076D01*
X196579394Y-88139915D01*
X195834480Y-87380903D01*
X196209203Y-86999089D01*
X196583926Y-86617274D01*
X196125366Y-86158714D01*
X195743551Y-86533437D01*
X195361737Y-86908160D01*
X194979922Y-86533437D01*
X194598108Y-86158714D01*
X194139548Y-86617274D01*
G36*
X185523077Y-85460239D02*
G01*
X184971484Y-85685286D01*
X184501875Y-86044386D01*
X184133819Y-86522654D01*
X183890388Y-87093053D01*
X183802025Y-87673803D01*
X183864285Y-88234015D01*
X184058608Y-88753514D01*
X184366438Y-89212126D01*
X184769216Y-89589674D01*
X185248385Y-89865986D01*
X185785388Y-90020885D01*
X186361666Y-90034198D01*
X186566403Y-90002246D01*
X187072368Y-89826608D01*
X187545902Y-89529469D01*
X187948305Y-89144517D01*
X188240878Y-88705441D01*
X188339174Y-88459025D01*
X188450668Y-87832819D01*
X188432972Y-87568195D01*
X187475195Y-87568195D01*
X187443504Y-88000248D01*
X187267578Y-88408961D01*
X186971822Y-88755678D01*
X186580640Y-89001743D01*
X186566403Y-89007693D01*
X186328489Y-89046362D01*
X186010509Y-89027313D01*
X185687164Y-88961539D01*
X185433156Y-88860034D01*
X185395930Y-88835441D01*
X185043736Y-88484430D01*
X184840722Y-88082401D01*
X184786126Y-87657014D01*
X184879184Y-87235929D01*
X185119131Y-86846807D01*
X185459106Y-86547418D01*
X185842227Y-86381323D01*
X186247005Y-86359670D01*
X186641485Y-86466280D01*
X186993710Y-86684974D01*
X187271726Y-86999572D01*
X187443576Y-87393894D01*
X187475195Y-87568195D01*
X188432972Y-87568195D01*
X188410808Y-87236784D01*
X188233795Y-86690751D01*
X187933833Y-86214552D01*
X187525122Y-85828016D01*
X187021864Y-85550975D01*
X186438261Y-85403259D01*
X186137084Y-85384130D01*
X185523077Y-85460239D01*
G37*
X185523077Y-85460239D02*
X184971484Y-85685286D01*
X184501875Y-86044386D01*
X184133819Y-86522654D01*
X183890388Y-87093053D01*
X183802025Y-87673803D01*
X183864285Y-88234015D01*
X184058608Y-88753514D01*
X184366438Y-89212126D01*
X184769216Y-89589674D01*
X185248385Y-89865986D01*
X185785388Y-90020885D01*
X186361666Y-90034198D01*
X186566403Y-90002246D01*
X187072368Y-89826608D01*
X187545902Y-89529469D01*
X187948305Y-89144517D01*
X188240878Y-88705441D01*
X188339174Y-88459025D01*
X188450668Y-87832819D01*
X188432972Y-87568195D01*
X187475195Y-87568195D01*
X187443504Y-88000248D01*
X187267578Y-88408961D01*
X186971822Y-88755678D01*
X186580640Y-89001743D01*
X186566403Y-89007693D01*
X186328489Y-89046362D01*
X186010509Y-89027313D01*
X185687164Y-88961539D01*
X185433156Y-88860034D01*
X185395930Y-88835441D01*
X185043736Y-88484430D01*
X184840722Y-88082401D01*
X184786126Y-87657014D01*
X184879184Y-87235929D01*
X185119131Y-86846807D01*
X185459106Y-86547418D01*
X185842227Y-86381323D01*
X186247005Y-86359670D01*
X186641485Y-86466280D01*
X186993710Y-86684974D01*
X187271726Y-86999572D01*
X187443576Y-87393894D01*
X187475195Y-87568195D01*
X188432972Y-87568195D01*
X188410808Y-87236784D01*
X188233795Y-86690751D01*
X187933833Y-86214552D01*
X187525122Y-85828016D01*
X187021864Y-85550975D01*
X186438261Y-85403259D01*
X186137084Y-85384130D01*
X185523077Y-85460239D01*
G36*
X209854708Y-89362018D02*
G01*
X209851576Y-89369633D01*
X209744434Y-89528910D01*
X209556366Y-89726489D01*
X209456652Y-89814133D01*
X209133822Y-90080237D01*
X209934403Y-90080237D01*
X209929037Y-89635737D01*
X209919445Y-89393085D01*
X209895951Y-89306252D01*
X209854708Y-89362018D01*
G37*
X209854708Y-89362018D02*
X209851576Y-89369633D01*
X209744434Y-89528910D01*
X209556366Y-89726489D01*
X209456652Y-89814133D01*
X209133822Y-90080237D01*
X209934403Y-90080237D01*
X209929037Y-89635737D01*
X209919445Y-89393085D01*
X209895951Y-89306252D01*
X209854708Y-89362018D01*
G36*
X207308895Y-86961152D02*
G01*
X206948895Y-87561349D01*
X206608833Y-88128276D01*
X206300543Y-88642207D01*
X206035857Y-89083416D01*
X205826609Y-89432181D01*
X205684632Y-89668774D01*
X205632771Y-89755152D01*
X205437472Y-90080237D01*
X206538217Y-90080237D01*
X208193977Y-87322527D01*
X208564579Y-86704357D01*
X208906273Y-86132629D01*
X209209560Y-85623369D01*
X209464944Y-85192602D01*
X209662929Y-84856355D01*
X209794016Y-84630654D01*
X209848708Y-84531523D01*
X209849737Y-84528527D01*
X209772629Y-84509735D01*
X209571506Y-84496621D01*
X209319729Y-84492237D01*
X208789720Y-84492237D01*
X207308895Y-86961152D01*
G37*
X207308895Y-86961152D02*
X206948895Y-87561349D01*
X206608833Y-88128276D01*
X206300543Y-88642207D01*
X206035857Y-89083416D01*
X205826609Y-89432181D01*
X205684632Y-89668774D01*
X205632771Y-89755152D01*
X205437472Y-90080237D01*
X206538217Y-90080237D01*
X208193977Y-87322527D01*
X208564579Y-86704357D01*
X208906273Y-86132629D01*
X209209560Y-85623369D01*
X209464944Y-85192602D01*
X209662929Y-84856355D01*
X209794016Y-84630654D01*
X209848708Y-84531523D01*
X209849737Y-84528527D01*
X209772629Y-84509735D01*
X209571506Y-84496621D01*
X209319729Y-84492237D01*
X208789720Y-84492237D01*
X207308895Y-86961152D01*
G36*
X189360403Y-89064237D02*
G01*
X189148737Y-89064237D01*
X189031428Y-89074993D01*
X188968094Y-89133769D01*
X188942165Y-89280328D01*
X188937075Y-89554431D01*
X188937070Y-89572237D01*
X188937070Y-90080237D01*
X190289423Y-90080237D01*
X190311747Y-87307403D01*
X190334070Y-84534570D01*
X190524570Y-84507515D01*
X190631327Y-84476217D01*
X190688589Y-84393179D01*
X190711437Y-84216510D01*
X190715070Y-83978348D01*
X190715070Y-83476237D01*
X189360403Y-83476237D01*
X189360403Y-89064237D01*
G37*
X189360403Y-89064237D02*
X189148737Y-89064237D01*
X189031428Y-89074993D01*
X188968094Y-89133769D01*
X188942165Y-89280328D01*
X188937075Y-89554431D01*
X188937070Y-89572237D01*
X188937070Y-90080237D01*
X190289423Y-90080237D01*
X190311747Y-87307403D01*
X190334070Y-84534570D01*
X190524570Y-84507515D01*
X190631327Y-84476217D01*
X190688589Y-84393179D01*
X190711437Y-84216510D01*
X190715070Y-83978348D01*
X190715070Y-83476237D01*
X189360403Y-83476237D01*
X189360403Y-89064237D01*
G36*
X205012715Y-84707622D02*
G01*
X205193595Y-84889776D01*
X205310924Y-85062330D01*
X205321250Y-85088622D01*
X205394842Y-85223402D01*
X205447070Y-85254237D01*
X205528797Y-85184573D01*
X205572890Y-85088622D01*
X205670536Y-84926833D01*
X205843750Y-84740605D01*
X205881425Y-84707622D01*
X206137396Y-84492237D01*
X204756745Y-84492237D01*
X205012715Y-84707622D01*
G37*
X205012715Y-84707622D02*
X205193595Y-84889776D01*
X205310924Y-85062330D01*
X205321250Y-85088622D01*
X205394842Y-85223402D01*
X205447070Y-85254237D01*
X205528797Y-85184573D01*
X205572890Y-85088622D01*
X205670536Y-84926833D01*
X205843750Y-84740605D01*
X205881425Y-84707622D01*
X206137396Y-84492237D01*
X204756745Y-84492237D01*
X205012715Y-84707622D01*
G36*
X184369476Y-91097831D02*
G01*
X184078037Y-91103473D01*
X183903162Y-91119464D01*
X183818469Y-91150860D01*
X183797573Y-91202714D01*
X183814089Y-91280082D01*
X183816009Y-91286737D01*
X183996150Y-91650259D01*
X184280967Y-91916178D01*
X184457667Y-92001624D01*
X184660233Y-92043419D01*
X184983480Y-92077738D01*
X185378791Y-92100456D01*
X185704276Y-92107458D01*
X186117458Y-92108492D01*
X186388692Y-92102920D01*
X186545359Y-92085112D01*
X186614841Y-92049437D01*
X186624520Y-91990264D01*
X186607465Y-91921737D01*
X186454856Y-91599494D01*
X186220547Y-91323530D01*
X186050242Y-91203318D01*
X185856488Y-91152658D01*
X185513355Y-91117513D01*
X185040227Y-91099529D01*
X184803865Y-91097485D01*
X184369476Y-91097831D01*
G37*
X184369476Y-91097831D02*
X184078037Y-91103473D01*
X183903162Y-91119464D01*
X183818469Y-91150860D01*
X183797573Y-91202714D01*
X183814089Y-91280082D01*
X183816009Y-91286737D01*
X183996150Y-91650259D01*
X184280967Y-91916178D01*
X184457667Y-92001624D01*
X184660233Y-92043419D01*
X184983480Y-92077738D01*
X185378791Y-92100456D01*
X185704276Y-92107458D01*
X186117458Y-92108492D01*
X186388692Y-92102920D01*
X186545359Y-92085112D01*
X186614841Y-92049437D01*
X186624520Y-91990264D01*
X186607465Y-91921737D01*
X186454856Y-91599494D01*
X186220547Y-91323530D01*
X186050242Y-91203318D01*
X185856488Y-91152658D01*
X185513355Y-91117513D01*
X185040227Y-91099529D01*
X184803865Y-91097485D01*
X184369476Y-91097831D01*
G36*
X202356737Y-84518388D02*
G01*
X201698459Y-84608694D01*
X201146696Y-84820365D01*
X200681206Y-85162487D01*
X200504243Y-85349966D01*
X200161957Y-85872740D01*
X199945336Y-86471331D01*
X199854552Y-87110810D01*
X199889780Y-87756248D01*
X200051193Y-88372716D01*
X200338965Y-88925284D01*
X200485536Y-89115985D01*
X200922210Y-89503394D01*
X201477056Y-89800031D01*
X202118258Y-89993723D01*
X202814003Y-90072300D01*
X202986120Y-90072666D01*
X203372737Y-90065095D01*
X202972507Y-89954932D01*
X202335136Y-89708212D01*
X201798695Y-89354276D01*
X201381163Y-88909430D01*
X201100520Y-88389980D01*
X201040374Y-88202607D01*
X200987502Y-87890508D01*
X200959870Y-87482756D01*
X200957540Y-87042733D01*
X200980573Y-86633824D01*
X201029031Y-86319412D01*
X201038512Y-86284269D01*
X201293769Y-85702946D01*
X201686227Y-85215725D01*
X202206082Y-84832669D01*
X202653526Y-84627098D01*
X203034070Y-84487596D01*
X202356737Y-84518388D01*
G37*
X202356737Y-84518388D02*
X201698459Y-84608694D01*
X201146696Y-84820365D01*
X200681206Y-85162487D01*
X200504243Y-85349966D01*
X200161957Y-85872740D01*
X199945336Y-86471331D01*
X199854552Y-87110810D01*
X199889780Y-87756248D01*
X200051193Y-88372716D01*
X200338965Y-88925284D01*
X200485536Y-89115985D01*
X200922210Y-89503394D01*
X201477056Y-89800031D01*
X202118258Y-89993723D01*
X202814003Y-90072300D01*
X202986120Y-90072666D01*
X203372737Y-90065095D01*
X202972507Y-89954932D01*
X202335136Y-89708212D01*
X201798695Y-89354276D01*
X201381163Y-88909430D01*
X201100520Y-88389980D01*
X201040374Y-88202607D01*
X200987502Y-87890508D01*
X200959870Y-87482756D01*
X200957540Y-87042733D01*
X200980573Y-86633824D01*
X201029031Y-86319412D01*
X201038512Y-86284269D01*
X201293769Y-85702946D01*
X201686227Y-85215725D01*
X202206082Y-84832669D01*
X202653526Y-84627098D01*
X203034070Y-84487596D01*
X202356737Y-84518388D01*
D11*
X144531830Y-120838374D03*
D12*
X146181830Y-120838374D03*
X145698556Y-122005100D03*
X144531830Y-122488374D03*
X143365104Y-122005100D03*
X142881830Y-120838374D03*
X143365104Y-119671648D03*
X144531830Y-119188374D03*
X145698556Y-119671648D03*
D11*
X225450000Y-135100000D03*
D12*
X227100000Y-135100000D03*
X226616726Y-136266726D03*
X225450000Y-136750000D03*
X224283274Y-136266726D03*
X223800000Y-135100000D03*
X224283274Y-133933274D03*
X225450000Y-133450000D03*
X226616726Y-133933274D03*
D11*
X251050000Y-135100000D03*
D12*
X252700000Y-135100000D03*
X252216726Y-136266726D03*
X251050000Y-136750000D03*
X249883274Y-136266726D03*
X249400000Y-135100000D03*
X249883274Y-133933274D03*
X251050000Y-133450000D03*
X252216726Y-133933274D03*
D11*
X246200000Y-53950000D03*
D12*
X247850000Y-53950000D03*
X247366726Y-55116726D03*
X246200000Y-55600000D03*
X245033274Y-55116726D03*
X244550000Y-53950000D03*
X245033274Y-52783274D03*
X246200000Y-52300000D03*
X247366726Y-52783274D03*
X145666726Y-52783274D03*
X144500000Y-52300000D03*
X143333274Y-52783274D03*
X142850000Y-53950000D03*
X143333274Y-55116726D03*
X144500000Y-55600000D03*
X145666726Y-55116726D03*
X146150000Y-53950000D03*
D11*
X144500000Y-53950000D03*
M02*
