G04 #@! TF.GenerationSoftware,KiCad,Pcbnew,(5.1.4)-1*
G04 #@! TF.CreationDate,2020-11-18T14:40:23-05:00*
G04 #@! TF.ProjectId,base,62617365-2e6b-4696-9361-645f70636258,rev?*
G04 #@! TF.SameCoordinates,Original*
G04 #@! TF.FileFunction,Profile,NP*
%FSLAX46Y46*%
G04 Gerber Fmt 4.6, Leading zero omitted, Abs format (unit mm)*
G04 Created by KiCad (PCBNEW (5.1.4)-1) date 2020-11-18 14:40:23*
%MOMM*%
%LPD*%
G04 APERTURE LIST*
%ADD10C,0.200000*%
G04 APERTURE END LIST*
D10*
X252224431Y-135089245D02*
G75*
G03X252224431Y-135089245I-1200000J0D01*
G01*
X252224591Y-111097545D02*
G75*
G03X252224591Y-111097545I-1200000J0D01*
G01*
X226624346Y-135089245D02*
G75*
G03X226624346Y-135089245I-1200000J0D01*
G01*
X145718170Y-120822900D02*
G75*
G03X145718170Y-120822900I-1200000J0D01*
G01*
X247405304Y-53961626D02*
G75*
G03X247405304Y-53961626I-1200000J0D01*
G01*
X145718170Y-53961626D02*
G75*
G03X145718170Y-53961626I-1200000J0D01*
G01*
X252614947Y-107427291D02*
G75*
G02X250205304Y-103757037I1590357J3670254D01*
G01*
X217427187Y-124822900D02*
G75*
G02X221427186Y-128824714I-1J-4000000D01*
G01*
X252614948Y-107427291D02*
G75*
G02X255024591Y-111097572I-1590357J-3670254D01*
G01*
X255024431Y-135089272D02*
G75*
G02X251024431Y-139089245I-4000000J27D01*
G01*
X225424345Y-139089244D02*
G75*
G02X221424347Y-135087431I1J3999999D01*
G01*
X225424346Y-139089245D02*
X251024431Y-139089245D01*
X221427186Y-128824714D02*
X221424347Y-135087431D01*
X146518170Y-124822900D02*
X217427186Y-124822900D01*
X144518170Y-124822900D02*
G75*
G02X140518170Y-120822900I0J4000000D01*
G01*
X246205304Y-49961626D02*
G75*
G02X250205304Y-53961626I0J-4000000D01*
G01*
X140518170Y-53961626D02*
G75*
G02X144518170Y-49961626I4000000J0D01*
G01*
X255024591Y-111097572D02*
X255024431Y-135089271D01*
X250205304Y-53961626D02*
X250205304Y-103757037D01*
X144518170Y-49961626D02*
X246205304Y-49961626D01*
X140518170Y-53961626D02*
X140518170Y-120822900D01*
X146518170Y-124822900D02*
X144518170Y-124822900D01*
M02*
