M48
; DRILL file {KiCad (5.1.9)-1} date 01/20/21 21:35:34
; FORMAT={-:-/ absolute / inch / decimal}
; #@! TF.CreationDate,2021-01-20T21:35:34-05:00
; #@! TF.GenerationSoftware,Kicad,Pcbnew,(5.1.9)-1
; #@! TF.FileFunction,Plated,1,2,PTH
FMAT,2
INCH
T1C0.0157
T2C0.0866
%
G90
G05
T1
X5.624Y-2.124
X5.6253Y-4.7574
X5.643Y-2.0781
X5.643Y-2.1699
X5.6443Y-4.7115
X5.6443Y-4.8034
X5.689Y-2.0591
X5.689Y-2.189
X5.6902Y-4.6925
X5.6902Y-4.8224
X5.7349Y-2.0781
X5.7349Y-2.1699
X5.7362Y-4.7115
X5.7362Y-4.8034
X5.7539Y-2.124
X5.7552Y-4.7574
X8.811Y-5.3189
X8.8301Y-5.273
X8.8301Y-5.3648
X8.876Y-5.2539
X8.876Y-5.3839
X8.9219Y-5.273
X8.9219Y-5.3648
X8.9409Y-5.3189
X9.628Y-2.124
X9.647Y-2.0781
X9.647Y-2.1699
X9.6929Y-2.0591
X9.6929Y-2.189
X9.7388Y-2.0781
X9.7388Y-2.1699
X9.7579Y-2.124
X9.8189Y-5.3189
X9.8379Y-5.273
X9.8379Y-5.3648
X9.8839Y-5.2539
X9.8839Y-5.3839
X9.9298Y-5.273
X9.9298Y-5.3648
X9.9488Y-5.3189
T2
X5.689Y-2.124
X5.6902Y-4.7574
X8.876Y-5.3189
X9.6929Y-2.124
X9.8839Y-5.3189
T0
M30
