G04 #@! TF.GenerationSoftware,KiCad,Pcbnew,(5.1.4)-1*
G04 #@! TF.CreationDate,2020-11-18T14:40:22-05:00*
G04 #@! TF.ProjectId,base,62617365-2e6b-4696-9361-645f70636258,rev?*
G04 #@! TF.SameCoordinates,Original*
G04 #@! TF.FileFunction,Copper,L2,Bot*
G04 #@! TF.FilePolarity,Positive*
%FSLAX46Y46*%
G04 Gerber Fmt 4.6, Leading zero omitted, Abs format (unit mm)*
G04 Created by KiCad (PCBNEW (5.1.4)-1) date 2020-11-18 14:40:22*
%MOMM*%
%LPD*%
G04 APERTURE LIST*
%ADD10C,0.254000*%
G04 APERTURE END LIST*
D10*
G36*
X195239794Y-86909395D02*
G01*
X195259143Y-86925062D01*
X195281177Y-86936652D01*
X195305049Y-86943721D01*
X195329000Y-86946000D01*
X195339000Y-86946000D01*
X195363776Y-86943560D01*
X195387601Y-86936333D01*
X195409557Y-86924597D01*
X195428206Y-86909395D01*
X196098407Y-86248013D01*
X196438798Y-86588404D01*
X195769794Y-87248605D01*
X195753873Y-87267745D01*
X195741992Y-87289623D01*
X195734607Y-87313399D01*
X195732003Y-87338159D01*
X195734279Y-87362951D01*
X195741348Y-87386823D01*
X195752938Y-87408857D01*
X195768039Y-87427629D01*
X196438821Y-88116063D01*
X196095078Y-88446586D01*
X195428198Y-87788597D01*
X195408847Y-87772932D01*
X195386812Y-87761344D01*
X195362940Y-87754277D01*
X195339000Y-87752000D01*
X195329000Y-87752000D01*
X195304224Y-87754440D01*
X195280399Y-87761667D01*
X195258443Y-87773403D01*
X195241876Y-87786596D01*
X194568229Y-88421749D01*
X194231673Y-88098391D01*
X194897597Y-87449992D01*
X194913647Y-87430959D01*
X194925674Y-87409161D01*
X194933218Y-87385435D01*
X194936000Y-87359000D01*
X194936000Y-87349000D01*
X194933560Y-87324224D01*
X194926333Y-87300399D01*
X194914597Y-87278443D01*
X194899388Y-87259786D01*
X194228885Y-86580461D01*
X194568725Y-86247156D01*
X195239794Y-86909395D01*
X195239794Y-86909395D01*
G37*
X195239794Y-86909395D02*
X195259143Y-86925062D01*
X195281177Y-86936652D01*
X195305049Y-86943721D01*
X195329000Y-86946000D01*
X195339000Y-86946000D01*
X195363776Y-86943560D01*
X195387601Y-86936333D01*
X195409557Y-86924597D01*
X195428206Y-86909395D01*
X196098407Y-86248013D01*
X196438798Y-86588404D01*
X195769794Y-87248605D01*
X195753873Y-87267745D01*
X195741992Y-87289623D01*
X195734607Y-87313399D01*
X195732003Y-87338159D01*
X195734279Y-87362951D01*
X195741348Y-87386823D01*
X195752938Y-87408857D01*
X195768039Y-87427629D01*
X196438821Y-88116063D01*
X196095078Y-88446586D01*
X195428198Y-87788597D01*
X195408847Y-87772932D01*
X195386812Y-87761344D01*
X195362940Y-87754277D01*
X195339000Y-87752000D01*
X195329000Y-87752000D01*
X195304224Y-87754440D01*
X195280399Y-87761667D01*
X195258443Y-87773403D01*
X195241876Y-87786596D01*
X194568229Y-88421749D01*
X194231673Y-88098391D01*
X194897597Y-87449992D01*
X194913647Y-87430959D01*
X194925674Y-87409161D01*
X194933218Y-87385435D01*
X194936000Y-87359000D01*
X194936000Y-87349000D01*
X194933560Y-87324224D01*
X194926333Y-87300399D01*
X194914597Y-87278443D01*
X194899388Y-87259786D01*
X194228885Y-86580461D01*
X194568725Y-86247156D01*
X195239794Y-86909395D01*
G36*
X190642000Y-84196423D02*
G01*
X190622007Y-84296387D01*
X190612092Y-84306302D01*
X190543721Y-84312000D01*
X190349000Y-84312000D01*
X190324224Y-84314440D01*
X190300399Y-84321667D01*
X190278443Y-84333403D01*
X190259197Y-84349197D01*
X190243403Y-84368443D01*
X190231667Y-84390399D01*
X190224440Y-84414224D01*
X190222000Y-84439000D01*
X190222000Y-89902000D01*
X189018761Y-89902000D01*
X189035176Y-89138688D01*
X189044991Y-89123965D01*
X189152405Y-89103825D01*
X189176307Y-89096860D01*
X189198391Y-89085366D01*
X189217809Y-89069785D01*
X189237902Y-89044341D01*
X189267902Y-88994341D01*
X189280644Y-88965493D01*
X189310644Y-88865493D01*
X189315983Y-88831096D01*
X189385983Y-84591096D01*
X189385995Y-84590114D01*
X189394927Y-83571873D01*
X190642000Y-83530304D01*
X190642000Y-84196423D01*
X190642000Y-84196423D01*
G37*
X190642000Y-84196423D02*
X190622007Y-84296387D01*
X190612092Y-84306302D01*
X190543721Y-84312000D01*
X190349000Y-84312000D01*
X190324224Y-84314440D01*
X190300399Y-84321667D01*
X190278443Y-84333403D01*
X190259197Y-84349197D01*
X190243403Y-84368443D01*
X190231667Y-84390399D01*
X190224440Y-84414224D01*
X190222000Y-84439000D01*
X190222000Y-89902000D01*
X189018761Y-89902000D01*
X189035176Y-89138688D01*
X189044991Y-89123965D01*
X189152405Y-89103825D01*
X189176307Y-89096860D01*
X189198391Y-89085366D01*
X189217809Y-89069785D01*
X189237902Y-89044341D01*
X189267902Y-88994341D01*
X189280644Y-88965493D01*
X189310644Y-88865493D01*
X189315983Y-88831096D01*
X189385983Y-84591096D01*
X189385995Y-84590114D01*
X189394927Y-83571873D01*
X190642000Y-83530304D01*
X190642000Y-84196423D01*
G36*
X205605903Y-84475962D02*
G01*
X205606114Y-84475967D01*
X205888863Y-84482393D01*
X205645824Y-84693027D01*
X205623330Y-84718553D01*
X205423330Y-85018553D01*
X205411952Y-85039717D01*
X205391105Y-85089229D01*
X205342592Y-84992204D01*
X205331709Y-84974302D01*
X205252257Y-84865056D01*
X205132755Y-84695761D01*
X205111651Y-84672574D01*
X205041651Y-84612574D01*
X205040805Y-84611856D01*
X204867601Y-84466000D01*
X205197461Y-84466000D01*
X205605903Y-84475962D01*
X205605903Y-84475962D01*
G37*
X205605903Y-84475962D02*
X205606114Y-84475967D01*
X205888863Y-84482393D01*
X205645824Y-84693027D01*
X205623330Y-84718553D01*
X205423330Y-85018553D01*
X205411952Y-85039717D01*
X205391105Y-85089229D01*
X205342592Y-84992204D01*
X205331709Y-84974302D01*
X205252257Y-84865056D01*
X205132755Y-84695761D01*
X205111651Y-84672574D01*
X205041651Y-84612574D01*
X205040805Y-84611856D01*
X204867601Y-84466000D01*
X205197461Y-84466000D01*
X205605903Y-84475962D01*
G36*
X209694647Y-84469525D02*
G01*
X206582632Y-89679417D01*
X206535656Y-89745183D01*
X206534958Y-89746170D01*
X206480939Y-89823340D01*
X206406819Y-89866577D01*
X206218631Y-89892239D01*
X205873905Y-89901815D01*
X205605660Y-89873578D01*
X208821238Y-84466000D01*
X209669971Y-84466000D01*
X209694647Y-84469525D01*
X209694647Y-84469525D01*
G37*
X209694647Y-84469525D02*
X206582632Y-89679417D01*
X206535656Y-89745183D01*
X206534958Y-89746170D01*
X206480939Y-89823340D01*
X206406819Y-89866577D01*
X206218631Y-89892239D01*
X205873905Y-89901815D01*
X205605660Y-89873578D01*
X208821238Y-84466000D01*
X209669971Y-84466000D01*
X209694647Y-84469525D01*
G36*
X187532613Y-90420812D02*
G01*
X187956217Y-90568580D01*
X188150489Y-90639814D01*
X188141172Y-90670093D01*
X187982665Y-90968460D01*
X187649626Y-91377621D01*
X187222986Y-91709453D01*
X186739942Y-91927296D01*
X186368524Y-92001580D01*
X185797234Y-91982537D01*
X185247512Y-91840367D01*
X184752690Y-91554893D01*
X184559841Y-91389594D01*
X184182921Y-90935357D01*
X184046915Y-90708681D01*
X184039743Y-90682383D01*
X184185686Y-90593196D01*
X184400056Y-90509312D01*
X184780955Y-90397829D01*
X184790250Y-90398759D01*
X184857982Y-90520677D01*
X184873165Y-90542335D01*
X185073165Y-90772335D01*
X185092800Y-90790600D01*
X185372800Y-91000600D01*
X185401200Y-91016661D01*
X185721200Y-91146661D01*
X185753987Y-91155110D01*
X186173987Y-91205110D01*
X186198878Y-91205615D01*
X186219093Y-91202383D01*
X186629093Y-91102383D01*
X186652586Y-91094141D01*
X186666817Y-91086377D01*
X187046817Y-90846377D01*
X187066462Y-90831083D01*
X187079248Y-90816970D01*
X187407207Y-90395309D01*
X187416565Y-90391800D01*
X187532613Y-90420812D01*
X187532613Y-90420812D01*
G37*
X187532613Y-90420812D02*
X187956217Y-90568580D01*
X188150489Y-90639814D01*
X188141172Y-90670093D01*
X187982665Y-90968460D01*
X187649626Y-91377621D01*
X187222986Y-91709453D01*
X186739942Y-91927296D01*
X186368524Y-92001580D01*
X185797234Y-91982537D01*
X185247512Y-91840367D01*
X184752690Y-91554893D01*
X184559841Y-91389594D01*
X184182921Y-90935357D01*
X184046915Y-90708681D01*
X184039743Y-90682383D01*
X184185686Y-90593196D01*
X184400056Y-90509312D01*
X184780955Y-90397829D01*
X184790250Y-90398759D01*
X184857982Y-90520677D01*
X184873165Y-90542335D01*
X185073165Y-90772335D01*
X185092800Y-90790600D01*
X185372800Y-91000600D01*
X185401200Y-91016661D01*
X185721200Y-91146661D01*
X185753987Y-91155110D01*
X186173987Y-91205110D01*
X186198878Y-91205615D01*
X186219093Y-91202383D01*
X186629093Y-91102383D01*
X186652586Y-91094141D01*
X186666817Y-91086377D01*
X187046817Y-90846377D01*
X187066462Y-90831083D01*
X187079248Y-90816970D01*
X187407207Y-90395309D01*
X187416565Y-90391800D01*
X187532613Y-90420812D01*
G36*
X186384681Y-85425744D02*
G01*
X186837494Y-85520080D01*
X187279964Y-85736608D01*
X187697523Y-86078248D01*
X187950029Y-86402898D01*
X187266932Y-86805166D01*
X187066065Y-86567101D01*
X187048222Y-86549739D01*
X187032306Y-86538903D01*
X186632306Y-86308903D01*
X186601321Y-86296182D01*
X186290833Y-86214475D01*
X186059247Y-85419363D01*
X186384681Y-85425744D01*
X186384681Y-85425744D01*
G37*
X186384681Y-85425744D02*
X186837494Y-85520080D01*
X187279964Y-85736608D01*
X187697523Y-86078248D01*
X187950029Y-86402898D01*
X187266932Y-86805166D01*
X187066065Y-86567101D01*
X187048222Y-86549739D01*
X187032306Y-86538903D01*
X186632306Y-86308903D01*
X186601321Y-86296182D01*
X186290833Y-86214475D01*
X186059247Y-85419363D01*
X186384681Y-85425744D01*
G36*
X188029991Y-86505403D02*
G01*
X188246614Y-86957486D01*
X188340964Y-87533021D01*
X188284073Y-88101933D01*
X188104087Y-88632417D01*
X187802682Y-89084525D01*
X187347631Y-89482694D01*
X186813185Y-89749917D01*
X186795624Y-89754796D01*
X186740355Y-88902075D01*
X187081830Y-88663042D01*
X187100728Y-88646835D01*
X187111242Y-88634336D01*
X187391242Y-88254336D01*
X187403975Y-88232942D01*
X187410887Y-88214674D01*
X187530887Y-87804674D01*
X187535504Y-87780210D01*
X187535849Y-87762812D01*
X187515849Y-87352812D01*
X187512205Y-87328184D01*
X187507535Y-87313410D01*
X187357535Y-86923410D01*
X187346363Y-86901161D01*
X187336065Y-86887101D01*
X187154456Y-86671861D01*
X187802568Y-86204618D01*
X188029991Y-86505403D01*
X188029991Y-86505403D01*
G37*
X188029991Y-86505403D02*
X188246614Y-86957486D01*
X188340964Y-87533021D01*
X188284073Y-88101933D01*
X188104087Y-88632417D01*
X187802682Y-89084525D01*
X187347631Y-89482694D01*
X186813185Y-89749917D01*
X186795624Y-89754796D01*
X186740355Y-88902075D01*
X187081830Y-88663042D01*
X187100728Y-88646835D01*
X187111242Y-88634336D01*
X187391242Y-88254336D01*
X187403975Y-88232942D01*
X187410887Y-88214674D01*
X187530887Y-87804674D01*
X187535504Y-87780210D01*
X187535849Y-87762812D01*
X187515849Y-87352812D01*
X187512205Y-87328184D01*
X187507535Y-87313410D01*
X187357535Y-86923410D01*
X187346363Y-86901161D01*
X187336065Y-86887101D01*
X187154456Y-86671861D01*
X187802568Y-86204618D01*
X188029991Y-86505403D01*
G36*
X186288547Y-85423859D02*
G01*
X186406009Y-86246095D01*
X186222135Y-86196399D01*
X186197580Y-86192290D01*
X186177502Y-86192522D01*
X185737502Y-86232522D01*
X185713048Y-86237195D01*
X185693320Y-86244856D01*
X185283320Y-86444856D01*
X185256349Y-86462574D01*
X185116349Y-86582574D01*
X185096587Y-86603897D01*
X184876587Y-86903897D01*
X184863497Y-86926199D01*
X184703497Y-87276199D01*
X184694175Y-87305595D01*
X184634175Y-87625595D01*
X184632008Y-87650397D01*
X184632870Y-87663839D01*
X184652870Y-87833839D01*
X184658865Y-87860189D01*
X184778865Y-88210189D01*
X184792822Y-88238679D01*
X184922165Y-88435773D01*
X184177402Y-88781824D01*
X183979301Y-88385622D01*
X183886000Y-87984427D01*
X183886000Y-87404108D01*
X184018829Y-86853817D01*
X184274749Y-86360933D01*
X184653829Y-85924992D01*
X185147549Y-85592680D01*
X185440823Y-85482703D01*
X185896972Y-85416181D01*
X186288547Y-85423859D01*
X186288547Y-85423859D01*
G37*
X186288547Y-85423859D02*
X186406009Y-86246095D01*
X186222135Y-86196399D01*
X186197580Y-86192290D01*
X186177502Y-86192522D01*
X185737502Y-86232522D01*
X185713048Y-86237195D01*
X185693320Y-86244856D01*
X185283320Y-86444856D01*
X185256349Y-86462574D01*
X185116349Y-86582574D01*
X185096587Y-86603897D01*
X184876587Y-86903897D01*
X184863497Y-86926199D01*
X184703497Y-87276199D01*
X184694175Y-87305595D01*
X184634175Y-87625595D01*
X184632008Y-87650397D01*
X184632870Y-87663839D01*
X184652870Y-87833839D01*
X184658865Y-87860189D01*
X184778865Y-88210189D01*
X184792822Y-88238679D01*
X184922165Y-88435773D01*
X184177402Y-88781824D01*
X183979301Y-88385622D01*
X183886000Y-87984427D01*
X183886000Y-87404108D01*
X184018829Y-86853817D01*
X184274749Y-86360933D01*
X184653829Y-85924992D01*
X185147549Y-85592680D01*
X185440823Y-85482703D01*
X185896972Y-85416181D01*
X186288547Y-85423859D01*
G36*
X184990390Y-88554824D02*
G01*
X185005318Y-88574748D01*
X185016645Y-88585678D01*
X185286645Y-88815678D01*
X185307088Y-88829887D01*
X185318592Y-88835568D01*
X185688592Y-88995568D01*
X185722215Y-89004886D01*
X186172215Y-89064886D01*
X186197097Y-89065742D01*
X186221177Y-89061856D01*
X186641177Y-88951856D01*
X186664526Y-88943218D01*
X186680053Y-88934264D01*
X186891500Y-88791537D01*
X186928939Y-89697550D01*
X186820154Y-89760531D01*
X186656173Y-89803684D01*
X186101174Y-89861097D01*
X185551131Y-89785229D01*
X185038783Y-89585983D01*
X184583201Y-89272770D01*
X184224459Y-88876266D01*
X184060493Y-88555165D01*
X184842003Y-88309985D01*
X184990390Y-88554824D01*
X184990390Y-88554824D01*
G37*
X184990390Y-88554824D02*
X185005318Y-88574748D01*
X185016645Y-88585678D01*
X185286645Y-88815678D01*
X185307088Y-88829887D01*
X185318592Y-88835568D01*
X185688592Y-88995568D01*
X185722215Y-89004886D01*
X186172215Y-89064886D01*
X186197097Y-89065742D01*
X186221177Y-89061856D01*
X186641177Y-88951856D01*
X186664526Y-88943218D01*
X186680053Y-88934264D01*
X186891500Y-88791537D01*
X186928939Y-89697550D01*
X186820154Y-89760531D01*
X186656173Y-89803684D01*
X186101174Y-89861097D01*
X185551131Y-89785229D01*
X185038783Y-89585983D01*
X184583201Y-89272770D01*
X184224459Y-88876266D01*
X184060493Y-88555165D01*
X184842003Y-88309985D01*
X184990390Y-88554824D01*
G36*
X209780404Y-89898560D02*
G01*
X209411943Y-89888032D01*
X209671651Y-89665426D01*
X209695040Y-89638890D01*
X209775384Y-89516989D01*
X209780404Y-89898560D01*
X209780404Y-89898560D01*
G37*
X209780404Y-89898560D02*
X209411943Y-89888032D01*
X209671651Y-89665426D01*
X209695040Y-89638890D01*
X209775384Y-89516989D01*
X209780404Y-89898560D01*
G36*
X202480438Y-84517996D02*
G01*
X202468253Y-84522580D01*
X202078253Y-84692580D01*
X202054513Y-84706137D01*
X201764513Y-84916137D01*
X201749197Y-84929197D01*
X201479197Y-85199197D01*
X201468752Y-85211030D01*
X201331004Y-85388135D01*
X201263423Y-85465370D01*
X201257400Y-85472800D01*
X201197400Y-85552800D01*
X201185408Y-85572204D01*
X201086165Y-85770690D01*
X201006941Y-85919235D01*
X200996144Y-85946823D01*
X200886144Y-86366823D01*
X200882561Y-86387072D01*
X200832561Y-86917072D01*
X200832000Y-86929000D01*
X200832000Y-87489000D01*
X200833433Y-87508025D01*
X200933433Y-88168025D01*
X200942695Y-88200011D01*
X201192695Y-88770011D01*
X201210040Y-88798598D01*
X201580040Y-89258598D01*
X201605761Y-89282755D01*
X202115761Y-89642755D01*
X202140914Y-89656544D01*
X202607857Y-89847566D01*
X202193291Y-89822630D01*
X201730165Y-89745442D01*
X201343897Y-89613546D01*
X201039110Y-89423054D01*
X200852749Y-89292601D01*
X200582483Y-89003030D01*
X200303710Y-88695419D01*
X200068568Y-88253352D01*
X199945030Y-87749698D01*
X199906247Y-87138858D01*
X199934964Y-86669805D01*
X200107406Y-86037520D01*
X200411524Y-85495809D01*
X200838817Y-85059021D01*
X201388529Y-84721478D01*
X201572199Y-84638827D01*
X201845221Y-84563510D01*
X202170964Y-84515607D01*
X202536543Y-84500116D01*
X202480438Y-84517996D01*
X202480438Y-84517996D01*
G37*
X202480438Y-84517996D02*
X202468253Y-84522580D01*
X202078253Y-84692580D01*
X202054513Y-84706137D01*
X201764513Y-84916137D01*
X201749197Y-84929197D01*
X201479197Y-85199197D01*
X201468752Y-85211030D01*
X201331004Y-85388135D01*
X201263423Y-85465370D01*
X201257400Y-85472800D01*
X201197400Y-85552800D01*
X201185408Y-85572204D01*
X201086165Y-85770690D01*
X201006941Y-85919235D01*
X200996144Y-85946823D01*
X200886144Y-86366823D01*
X200882561Y-86387072D01*
X200832561Y-86917072D01*
X200832000Y-86929000D01*
X200832000Y-87489000D01*
X200833433Y-87508025D01*
X200933433Y-88168025D01*
X200942695Y-88200011D01*
X201192695Y-88770011D01*
X201210040Y-88798598D01*
X201580040Y-89258598D01*
X201605761Y-89282755D01*
X202115761Y-89642755D01*
X202140914Y-89656544D01*
X202607857Y-89847566D01*
X202193291Y-89822630D01*
X201730165Y-89745442D01*
X201343897Y-89613546D01*
X201039110Y-89423054D01*
X200852749Y-89292601D01*
X200582483Y-89003030D01*
X200303710Y-88695419D01*
X200068568Y-88253352D01*
X199945030Y-87749698D01*
X199906247Y-87138858D01*
X199934964Y-86669805D01*
X200107406Y-86037520D01*
X200411524Y-85495809D01*
X200838817Y-85059021D01*
X201388529Y-84721478D01*
X201572199Y-84638827D01*
X201845221Y-84563510D01*
X202170964Y-84515607D01*
X202536543Y-84500116D01*
X202480438Y-84517996D01*
G36*
X196439115Y-86580461D02*
G01*
X195768612Y-87259786D01*
X195752944Y-87279134D01*
X195741352Y-87301167D01*
X195734281Y-87325038D01*
X195732000Y-87349000D01*
X195732000Y-87359000D01*
X195734440Y-87383776D01*
X195741667Y-87407601D01*
X195753403Y-87429557D01*
X195770403Y-87449992D01*
X196436327Y-88098391D01*
X196099771Y-88421749D01*
X195426124Y-87786596D01*
X195406422Y-87771375D01*
X195384130Y-87760289D01*
X195360104Y-87753766D01*
X195339000Y-87752000D01*
X195329000Y-87752000D01*
X195304224Y-87754440D01*
X195280399Y-87761667D01*
X195258443Y-87773403D01*
X195239802Y-87788597D01*
X194572922Y-88446586D01*
X194229179Y-88116063D01*
X194899961Y-87427629D01*
X194915504Y-87408180D01*
X194926954Y-87386073D01*
X194933871Y-87362157D01*
X194935989Y-87337351D01*
X194933227Y-87312608D01*
X194925692Y-87288880D01*
X194913671Y-87267077D01*
X194898206Y-87248605D01*
X194229202Y-86588404D01*
X194569593Y-86248013D01*
X195239794Y-86909395D01*
X195259143Y-86925062D01*
X195281177Y-86936652D01*
X195305049Y-86943721D01*
X195329000Y-86946000D01*
X195339000Y-86946000D01*
X195363776Y-86943560D01*
X195387601Y-86936333D01*
X195409557Y-86924597D01*
X195428206Y-86909395D01*
X196099275Y-86247156D01*
X196439115Y-86580461D01*
X196439115Y-86580461D01*
G37*
X196439115Y-86580461D02*
X195768612Y-87259786D01*
X195752944Y-87279134D01*
X195741352Y-87301167D01*
X195734281Y-87325038D01*
X195732000Y-87349000D01*
X195732000Y-87359000D01*
X195734440Y-87383776D01*
X195741667Y-87407601D01*
X195753403Y-87429557D01*
X195770403Y-87449992D01*
X196436327Y-88098391D01*
X196099771Y-88421749D01*
X195426124Y-87786596D01*
X195406422Y-87771375D01*
X195384130Y-87760289D01*
X195360104Y-87753766D01*
X195339000Y-87752000D01*
X195329000Y-87752000D01*
X195304224Y-87754440D01*
X195280399Y-87761667D01*
X195258443Y-87773403D01*
X195239802Y-87788597D01*
X194572922Y-88446586D01*
X194229179Y-88116063D01*
X194899961Y-87427629D01*
X194915504Y-87408180D01*
X194926954Y-87386073D01*
X194933871Y-87362157D01*
X194935989Y-87337351D01*
X194933227Y-87312608D01*
X194925692Y-87288880D01*
X194913671Y-87267077D01*
X194898206Y-87248605D01*
X194229202Y-86588404D01*
X194569593Y-86248013D01*
X195239794Y-86909395D01*
X195259143Y-86925062D01*
X195281177Y-86936652D01*
X195305049Y-86943721D01*
X195329000Y-86946000D01*
X195339000Y-86946000D01*
X195363776Y-86943560D01*
X195387601Y-86936333D01*
X195409557Y-86924597D01*
X195428206Y-86909395D01*
X196099275Y-86247156D01*
X196439115Y-86580461D01*
M02*
