G04 #@! TF.GenerationSoftware,KiCad,Pcbnew,(5.1.4)-1*
G04 #@! TF.CreationDate,2020-11-17T13:56:55-05:00*
G04 #@! TF.ProjectId,base,62617365-2e6b-4696-9361-645f70636258,rev?*
G04 #@! TF.SameCoordinates,Original*
G04 #@! TF.FileFunction,Copper,L2,Bot*
G04 #@! TF.FilePolarity,Positive*
%FSLAX46Y46*%
G04 Gerber Fmt 4.6, Leading zero omitted, Abs format (unit mm)*
G04 Created by KiCad (PCBNEW (5.1.4)-1) date 2020-11-17 13:56:55*
%MOMM*%
%LPD*%
G04 APERTURE LIST*
%ADD10C,0.254000*%
G04 APERTURE END LIST*
D10*
G36*
X97830794Y-87290395D02*
G01*
X97850143Y-87306062D01*
X97872177Y-87317652D01*
X97896049Y-87324721D01*
X97920000Y-87327000D01*
X97930000Y-87327000D01*
X97954776Y-87324560D01*
X97978601Y-87317333D01*
X98000557Y-87305597D01*
X98019206Y-87290395D01*
X98689407Y-86629013D01*
X99029798Y-86969404D01*
X98360794Y-87629605D01*
X98344873Y-87648745D01*
X98332992Y-87670623D01*
X98325607Y-87694399D01*
X98323003Y-87719159D01*
X98325279Y-87743951D01*
X98332348Y-87767823D01*
X98343938Y-87789857D01*
X98359039Y-87808629D01*
X99029821Y-88497063D01*
X98686078Y-88827586D01*
X98019198Y-88169597D01*
X97999847Y-88153932D01*
X97977812Y-88142344D01*
X97953940Y-88135277D01*
X97930000Y-88133000D01*
X97920000Y-88133000D01*
X97895224Y-88135440D01*
X97871399Y-88142667D01*
X97849443Y-88154403D01*
X97832876Y-88167596D01*
X97159229Y-88802749D01*
X96822673Y-88479391D01*
X97488597Y-87830992D01*
X97504647Y-87811959D01*
X97516674Y-87790161D01*
X97524218Y-87766435D01*
X97527000Y-87740000D01*
X97527000Y-87730000D01*
X97524560Y-87705224D01*
X97517333Y-87681399D01*
X97505597Y-87659443D01*
X97490388Y-87640786D01*
X96819885Y-86961461D01*
X97159725Y-86628156D01*
X97830794Y-87290395D01*
X97830794Y-87290395D01*
G37*
X97830794Y-87290395D02*
X97850143Y-87306062D01*
X97872177Y-87317652D01*
X97896049Y-87324721D01*
X97920000Y-87327000D01*
X97930000Y-87327000D01*
X97954776Y-87324560D01*
X97978601Y-87317333D01*
X98000557Y-87305597D01*
X98019206Y-87290395D01*
X98689407Y-86629013D01*
X99029798Y-86969404D01*
X98360794Y-87629605D01*
X98344873Y-87648745D01*
X98332992Y-87670623D01*
X98325607Y-87694399D01*
X98323003Y-87719159D01*
X98325279Y-87743951D01*
X98332348Y-87767823D01*
X98343938Y-87789857D01*
X98359039Y-87808629D01*
X99029821Y-88497063D01*
X98686078Y-88827586D01*
X98019198Y-88169597D01*
X97999847Y-88153932D01*
X97977812Y-88142344D01*
X97953940Y-88135277D01*
X97930000Y-88133000D01*
X97920000Y-88133000D01*
X97895224Y-88135440D01*
X97871399Y-88142667D01*
X97849443Y-88154403D01*
X97832876Y-88167596D01*
X97159229Y-88802749D01*
X96822673Y-88479391D01*
X97488597Y-87830992D01*
X97504647Y-87811959D01*
X97516674Y-87790161D01*
X97524218Y-87766435D01*
X97527000Y-87740000D01*
X97527000Y-87730000D01*
X97524560Y-87705224D01*
X97517333Y-87681399D01*
X97505597Y-87659443D01*
X97490388Y-87640786D01*
X96819885Y-86961461D01*
X97159725Y-86628156D01*
X97830794Y-87290395D01*
G36*
X93233000Y-84577423D02*
G01*
X93213007Y-84677387D01*
X93203092Y-84687302D01*
X93134721Y-84693000D01*
X92940000Y-84693000D01*
X92915224Y-84695440D01*
X92891399Y-84702667D01*
X92869443Y-84714403D01*
X92850197Y-84730197D01*
X92834403Y-84749443D01*
X92822667Y-84771399D01*
X92815440Y-84795224D01*
X92813000Y-84820000D01*
X92813000Y-90283000D01*
X91609761Y-90283000D01*
X91626176Y-89519688D01*
X91635991Y-89504965D01*
X91743405Y-89484825D01*
X91767307Y-89477860D01*
X91789391Y-89466366D01*
X91808809Y-89450785D01*
X91828902Y-89425341D01*
X91858902Y-89375341D01*
X91871644Y-89346493D01*
X91901644Y-89246493D01*
X91906983Y-89212096D01*
X91976983Y-84972096D01*
X91976995Y-84971114D01*
X91985927Y-83952873D01*
X93233000Y-83911304D01*
X93233000Y-84577423D01*
X93233000Y-84577423D01*
G37*
X93233000Y-84577423D02*
X93213007Y-84677387D01*
X93203092Y-84687302D01*
X93134721Y-84693000D01*
X92940000Y-84693000D01*
X92915224Y-84695440D01*
X92891399Y-84702667D01*
X92869443Y-84714403D01*
X92850197Y-84730197D01*
X92834403Y-84749443D01*
X92822667Y-84771399D01*
X92815440Y-84795224D01*
X92813000Y-84820000D01*
X92813000Y-90283000D01*
X91609761Y-90283000D01*
X91626176Y-89519688D01*
X91635991Y-89504965D01*
X91743405Y-89484825D01*
X91767307Y-89477860D01*
X91789391Y-89466366D01*
X91808809Y-89450785D01*
X91828902Y-89425341D01*
X91858902Y-89375341D01*
X91871644Y-89346493D01*
X91901644Y-89246493D01*
X91906983Y-89212096D01*
X91976983Y-84972096D01*
X91976995Y-84971114D01*
X91985927Y-83952873D01*
X93233000Y-83911304D01*
X93233000Y-84577423D01*
G36*
X108196903Y-84856962D02*
G01*
X108197114Y-84856967D01*
X108479863Y-84863393D01*
X108236824Y-85074027D01*
X108214330Y-85099553D01*
X108014330Y-85399553D01*
X108002952Y-85420717D01*
X107982105Y-85470229D01*
X107933592Y-85373204D01*
X107922709Y-85355302D01*
X107843257Y-85246056D01*
X107723755Y-85076761D01*
X107702651Y-85053574D01*
X107632651Y-84993574D01*
X107631805Y-84992856D01*
X107458601Y-84847000D01*
X107788461Y-84847000D01*
X108196903Y-84856962D01*
X108196903Y-84856962D01*
G37*
X108196903Y-84856962D02*
X108197114Y-84856967D01*
X108479863Y-84863393D01*
X108236824Y-85074027D01*
X108214330Y-85099553D01*
X108014330Y-85399553D01*
X108002952Y-85420717D01*
X107982105Y-85470229D01*
X107933592Y-85373204D01*
X107922709Y-85355302D01*
X107843257Y-85246056D01*
X107723755Y-85076761D01*
X107702651Y-85053574D01*
X107632651Y-84993574D01*
X107631805Y-84992856D01*
X107458601Y-84847000D01*
X107788461Y-84847000D01*
X108196903Y-84856962D01*
G36*
X112285647Y-84850525D02*
G01*
X109173632Y-90060417D01*
X109126656Y-90126183D01*
X109125958Y-90127170D01*
X109071939Y-90204340D01*
X108997819Y-90247577D01*
X108809631Y-90273239D01*
X108464905Y-90282815D01*
X108196660Y-90254578D01*
X111412238Y-84847000D01*
X112260971Y-84847000D01*
X112285647Y-84850525D01*
X112285647Y-84850525D01*
G37*
X112285647Y-84850525D02*
X109173632Y-90060417D01*
X109126656Y-90126183D01*
X109125958Y-90127170D01*
X109071939Y-90204340D01*
X108997819Y-90247577D01*
X108809631Y-90273239D01*
X108464905Y-90282815D01*
X108196660Y-90254578D01*
X111412238Y-84847000D01*
X112260971Y-84847000D01*
X112285647Y-84850525D01*
G36*
X90123613Y-90801812D02*
G01*
X90547217Y-90949580D01*
X90741489Y-91020814D01*
X90732172Y-91051093D01*
X90573665Y-91349460D01*
X90240626Y-91758621D01*
X89813986Y-92090453D01*
X89330942Y-92308296D01*
X88959524Y-92382580D01*
X88388234Y-92363537D01*
X87838512Y-92221367D01*
X87343690Y-91935893D01*
X87150841Y-91770594D01*
X86773921Y-91316357D01*
X86637915Y-91089681D01*
X86630743Y-91063383D01*
X86776686Y-90974196D01*
X86991056Y-90890312D01*
X87371955Y-90778829D01*
X87381250Y-90779759D01*
X87448982Y-90901677D01*
X87464165Y-90923335D01*
X87664165Y-91153335D01*
X87683800Y-91171600D01*
X87963800Y-91381600D01*
X87992200Y-91397661D01*
X88312200Y-91527661D01*
X88344987Y-91536110D01*
X88764987Y-91586110D01*
X88789878Y-91586615D01*
X88810093Y-91583383D01*
X89220093Y-91483383D01*
X89243586Y-91475141D01*
X89257817Y-91467377D01*
X89637817Y-91227377D01*
X89657462Y-91212083D01*
X89670248Y-91197970D01*
X89998207Y-90776309D01*
X90007565Y-90772800D01*
X90123613Y-90801812D01*
X90123613Y-90801812D01*
G37*
X90123613Y-90801812D02*
X90547217Y-90949580D01*
X90741489Y-91020814D01*
X90732172Y-91051093D01*
X90573665Y-91349460D01*
X90240626Y-91758621D01*
X89813986Y-92090453D01*
X89330942Y-92308296D01*
X88959524Y-92382580D01*
X88388234Y-92363537D01*
X87838512Y-92221367D01*
X87343690Y-91935893D01*
X87150841Y-91770594D01*
X86773921Y-91316357D01*
X86637915Y-91089681D01*
X86630743Y-91063383D01*
X86776686Y-90974196D01*
X86991056Y-90890312D01*
X87371955Y-90778829D01*
X87381250Y-90779759D01*
X87448982Y-90901677D01*
X87464165Y-90923335D01*
X87664165Y-91153335D01*
X87683800Y-91171600D01*
X87963800Y-91381600D01*
X87992200Y-91397661D01*
X88312200Y-91527661D01*
X88344987Y-91536110D01*
X88764987Y-91586110D01*
X88789878Y-91586615D01*
X88810093Y-91583383D01*
X89220093Y-91483383D01*
X89243586Y-91475141D01*
X89257817Y-91467377D01*
X89637817Y-91227377D01*
X89657462Y-91212083D01*
X89670248Y-91197970D01*
X89998207Y-90776309D01*
X90007565Y-90772800D01*
X90123613Y-90801812D01*
G36*
X88975681Y-85806744D02*
G01*
X89428494Y-85901080D01*
X89870964Y-86117608D01*
X90288523Y-86459247D01*
X90541029Y-86783898D01*
X89857932Y-87186166D01*
X89657065Y-86948101D01*
X89639222Y-86930739D01*
X89623306Y-86919903D01*
X89223306Y-86689903D01*
X89192321Y-86677182D01*
X88881833Y-86595475D01*
X88650247Y-85800363D01*
X88975681Y-85806744D01*
X88975681Y-85806744D01*
G37*
X88975681Y-85806744D02*
X89428494Y-85901080D01*
X89870964Y-86117608D01*
X90288523Y-86459247D01*
X90541029Y-86783898D01*
X89857932Y-87186166D01*
X89657065Y-86948101D01*
X89639222Y-86930739D01*
X89623306Y-86919903D01*
X89223306Y-86689903D01*
X89192321Y-86677182D01*
X88881833Y-86595475D01*
X88650247Y-85800363D01*
X88975681Y-85806744D01*
G36*
X90620991Y-86886403D02*
G01*
X90837614Y-87338486D01*
X90931964Y-87914021D01*
X90875073Y-88482933D01*
X90695087Y-89013417D01*
X90393682Y-89465525D01*
X89938631Y-89863694D01*
X89404185Y-90130917D01*
X89386624Y-90135796D01*
X89331355Y-89283075D01*
X89672830Y-89044042D01*
X89691728Y-89027835D01*
X89702242Y-89015336D01*
X89982242Y-88635336D01*
X89994975Y-88613942D01*
X90001887Y-88595674D01*
X90121887Y-88185674D01*
X90126504Y-88161210D01*
X90126849Y-88143812D01*
X90106849Y-87733812D01*
X90103205Y-87709184D01*
X90098535Y-87694410D01*
X89948535Y-87304410D01*
X89937363Y-87282161D01*
X89927065Y-87268101D01*
X89745456Y-87052861D01*
X90393568Y-86585618D01*
X90620991Y-86886403D01*
X90620991Y-86886403D01*
G37*
X90620991Y-86886403D02*
X90837614Y-87338486D01*
X90931964Y-87914021D01*
X90875073Y-88482933D01*
X90695087Y-89013417D01*
X90393682Y-89465525D01*
X89938631Y-89863694D01*
X89404185Y-90130917D01*
X89386624Y-90135796D01*
X89331355Y-89283075D01*
X89672830Y-89044042D01*
X89691728Y-89027835D01*
X89702242Y-89015336D01*
X89982242Y-88635336D01*
X89994975Y-88613942D01*
X90001887Y-88595674D01*
X90121887Y-88185674D01*
X90126504Y-88161210D01*
X90126849Y-88143812D01*
X90106849Y-87733812D01*
X90103205Y-87709184D01*
X90098535Y-87694410D01*
X89948535Y-87304410D01*
X89937363Y-87282161D01*
X89927065Y-87268101D01*
X89745456Y-87052861D01*
X90393568Y-86585618D01*
X90620991Y-86886403D01*
G36*
X88879547Y-85804859D02*
G01*
X88997009Y-86627095D01*
X88813135Y-86577399D01*
X88788580Y-86573290D01*
X88768502Y-86573522D01*
X88328502Y-86613522D01*
X88304048Y-86618195D01*
X88284320Y-86625856D01*
X87874320Y-86825856D01*
X87847349Y-86843574D01*
X87707349Y-86963574D01*
X87687587Y-86984897D01*
X87467587Y-87284897D01*
X87454497Y-87307199D01*
X87294497Y-87657199D01*
X87285175Y-87686595D01*
X87225175Y-88006595D01*
X87223008Y-88031397D01*
X87223870Y-88044839D01*
X87243870Y-88214839D01*
X87249865Y-88241189D01*
X87369865Y-88591189D01*
X87383822Y-88619679D01*
X87513165Y-88816773D01*
X86768402Y-89162824D01*
X86570301Y-88766622D01*
X86477000Y-88365427D01*
X86477000Y-87785108D01*
X86609829Y-87234817D01*
X86865749Y-86741933D01*
X87244829Y-86305992D01*
X87738549Y-85973680D01*
X88031823Y-85863703D01*
X88487972Y-85797181D01*
X88879547Y-85804859D01*
X88879547Y-85804859D01*
G37*
X88879547Y-85804859D02*
X88997009Y-86627095D01*
X88813135Y-86577399D01*
X88788580Y-86573290D01*
X88768502Y-86573522D01*
X88328502Y-86613522D01*
X88304048Y-86618195D01*
X88284320Y-86625856D01*
X87874320Y-86825856D01*
X87847349Y-86843574D01*
X87707349Y-86963574D01*
X87687587Y-86984897D01*
X87467587Y-87284897D01*
X87454497Y-87307199D01*
X87294497Y-87657199D01*
X87285175Y-87686595D01*
X87225175Y-88006595D01*
X87223008Y-88031397D01*
X87223870Y-88044839D01*
X87243870Y-88214839D01*
X87249865Y-88241189D01*
X87369865Y-88591189D01*
X87383822Y-88619679D01*
X87513165Y-88816773D01*
X86768402Y-89162824D01*
X86570301Y-88766622D01*
X86477000Y-88365427D01*
X86477000Y-87785108D01*
X86609829Y-87234817D01*
X86865749Y-86741933D01*
X87244829Y-86305992D01*
X87738549Y-85973680D01*
X88031823Y-85863703D01*
X88487972Y-85797181D01*
X88879547Y-85804859D01*
G36*
X87581390Y-88935824D02*
G01*
X87596318Y-88955748D01*
X87607645Y-88966678D01*
X87877645Y-89196678D01*
X87898088Y-89210887D01*
X87909592Y-89216568D01*
X88279592Y-89376568D01*
X88313215Y-89385886D01*
X88763215Y-89445886D01*
X88788097Y-89446742D01*
X88812177Y-89442856D01*
X89232177Y-89332856D01*
X89255526Y-89324218D01*
X89271053Y-89315264D01*
X89482500Y-89172537D01*
X89519939Y-90078550D01*
X89411154Y-90141531D01*
X89247173Y-90184684D01*
X88692174Y-90242097D01*
X88142131Y-90166229D01*
X87629783Y-89966983D01*
X87174201Y-89653770D01*
X86815459Y-89257266D01*
X86651493Y-88936165D01*
X87433003Y-88690985D01*
X87581390Y-88935824D01*
X87581390Y-88935824D01*
G37*
X87581390Y-88935824D02*
X87596318Y-88955748D01*
X87607645Y-88966678D01*
X87877645Y-89196678D01*
X87898088Y-89210887D01*
X87909592Y-89216568D01*
X88279592Y-89376568D01*
X88313215Y-89385886D01*
X88763215Y-89445886D01*
X88788097Y-89446742D01*
X88812177Y-89442856D01*
X89232177Y-89332856D01*
X89255526Y-89324218D01*
X89271053Y-89315264D01*
X89482500Y-89172537D01*
X89519939Y-90078550D01*
X89411154Y-90141531D01*
X89247173Y-90184684D01*
X88692174Y-90242097D01*
X88142131Y-90166229D01*
X87629783Y-89966983D01*
X87174201Y-89653770D01*
X86815459Y-89257266D01*
X86651493Y-88936165D01*
X87433003Y-88690985D01*
X87581390Y-88935824D01*
G36*
X112371404Y-90279560D02*
G01*
X112002943Y-90269032D01*
X112262651Y-90046426D01*
X112286040Y-90019890D01*
X112366384Y-89897989D01*
X112371404Y-90279560D01*
X112371404Y-90279560D01*
G37*
X112371404Y-90279560D02*
X112002943Y-90269032D01*
X112262651Y-90046426D01*
X112286040Y-90019890D01*
X112366384Y-89897989D01*
X112371404Y-90279560D01*
G36*
X105071438Y-84898996D02*
G01*
X105059253Y-84903580D01*
X104669253Y-85073580D01*
X104645513Y-85087137D01*
X104355513Y-85297137D01*
X104340197Y-85310197D01*
X104070197Y-85580197D01*
X104059752Y-85592030D01*
X103922004Y-85769135D01*
X103854423Y-85846370D01*
X103848400Y-85853800D01*
X103788400Y-85933800D01*
X103776408Y-85953204D01*
X103677165Y-86151690D01*
X103597941Y-86300235D01*
X103587144Y-86327823D01*
X103477144Y-86747823D01*
X103473561Y-86768072D01*
X103423561Y-87298072D01*
X103423000Y-87310000D01*
X103423000Y-87870000D01*
X103424433Y-87889025D01*
X103524433Y-88549025D01*
X103533695Y-88581011D01*
X103783695Y-89151011D01*
X103801040Y-89179598D01*
X104171040Y-89639598D01*
X104196761Y-89663755D01*
X104706761Y-90023755D01*
X104731914Y-90037544D01*
X105198857Y-90228566D01*
X104784291Y-90203630D01*
X104321165Y-90126442D01*
X103934897Y-89994546D01*
X103630110Y-89804054D01*
X103443749Y-89673601D01*
X103173483Y-89384030D01*
X102894710Y-89076419D01*
X102659568Y-88634352D01*
X102536030Y-88130698D01*
X102497247Y-87519858D01*
X102525964Y-87050805D01*
X102698406Y-86418520D01*
X103002524Y-85876809D01*
X103429817Y-85440021D01*
X103979529Y-85102478D01*
X104163199Y-85019827D01*
X104436221Y-84944510D01*
X104761964Y-84896607D01*
X105127543Y-84881116D01*
X105071438Y-84898996D01*
X105071438Y-84898996D01*
G37*
X105071438Y-84898996D02*
X105059253Y-84903580D01*
X104669253Y-85073580D01*
X104645513Y-85087137D01*
X104355513Y-85297137D01*
X104340197Y-85310197D01*
X104070197Y-85580197D01*
X104059752Y-85592030D01*
X103922004Y-85769135D01*
X103854423Y-85846370D01*
X103848400Y-85853800D01*
X103788400Y-85933800D01*
X103776408Y-85953204D01*
X103677165Y-86151690D01*
X103597941Y-86300235D01*
X103587144Y-86327823D01*
X103477144Y-86747823D01*
X103473561Y-86768072D01*
X103423561Y-87298072D01*
X103423000Y-87310000D01*
X103423000Y-87870000D01*
X103424433Y-87889025D01*
X103524433Y-88549025D01*
X103533695Y-88581011D01*
X103783695Y-89151011D01*
X103801040Y-89179598D01*
X104171040Y-89639598D01*
X104196761Y-89663755D01*
X104706761Y-90023755D01*
X104731914Y-90037544D01*
X105198857Y-90228566D01*
X104784291Y-90203630D01*
X104321165Y-90126442D01*
X103934897Y-89994546D01*
X103630110Y-89804054D01*
X103443749Y-89673601D01*
X103173483Y-89384030D01*
X102894710Y-89076419D01*
X102659568Y-88634352D01*
X102536030Y-88130698D01*
X102497247Y-87519858D01*
X102525964Y-87050805D01*
X102698406Y-86418520D01*
X103002524Y-85876809D01*
X103429817Y-85440021D01*
X103979529Y-85102478D01*
X104163199Y-85019827D01*
X104436221Y-84944510D01*
X104761964Y-84896607D01*
X105127543Y-84881116D01*
X105071438Y-84898996D01*
G36*
X99030115Y-86961461D02*
G01*
X98359612Y-87640786D01*
X98343944Y-87660134D01*
X98332352Y-87682167D01*
X98325281Y-87706038D01*
X98323000Y-87730000D01*
X98323000Y-87740000D01*
X98325440Y-87764776D01*
X98332667Y-87788601D01*
X98344403Y-87810557D01*
X98361403Y-87830992D01*
X99027327Y-88479391D01*
X98690771Y-88802749D01*
X98017124Y-88167596D01*
X97997422Y-88152375D01*
X97975130Y-88141289D01*
X97951104Y-88134766D01*
X97930000Y-88133000D01*
X97920000Y-88133000D01*
X97895224Y-88135440D01*
X97871399Y-88142667D01*
X97849443Y-88154403D01*
X97830802Y-88169597D01*
X97163922Y-88827586D01*
X96820179Y-88497063D01*
X97490961Y-87808629D01*
X97506504Y-87789180D01*
X97517954Y-87767073D01*
X97524871Y-87743157D01*
X97526989Y-87718351D01*
X97524227Y-87693608D01*
X97516692Y-87669880D01*
X97504671Y-87648077D01*
X97489206Y-87629605D01*
X96820202Y-86969404D01*
X97160593Y-86629013D01*
X97830794Y-87290395D01*
X97850143Y-87306062D01*
X97872177Y-87317652D01*
X97896049Y-87324721D01*
X97920000Y-87327000D01*
X97930000Y-87327000D01*
X97954776Y-87324560D01*
X97978601Y-87317333D01*
X98000557Y-87305597D01*
X98019206Y-87290395D01*
X98690275Y-86628156D01*
X99030115Y-86961461D01*
X99030115Y-86961461D01*
G37*
X99030115Y-86961461D02*
X98359612Y-87640786D01*
X98343944Y-87660134D01*
X98332352Y-87682167D01*
X98325281Y-87706038D01*
X98323000Y-87730000D01*
X98323000Y-87740000D01*
X98325440Y-87764776D01*
X98332667Y-87788601D01*
X98344403Y-87810557D01*
X98361403Y-87830992D01*
X99027327Y-88479391D01*
X98690771Y-88802749D01*
X98017124Y-88167596D01*
X97997422Y-88152375D01*
X97975130Y-88141289D01*
X97951104Y-88134766D01*
X97930000Y-88133000D01*
X97920000Y-88133000D01*
X97895224Y-88135440D01*
X97871399Y-88142667D01*
X97849443Y-88154403D01*
X97830802Y-88169597D01*
X97163922Y-88827586D01*
X96820179Y-88497063D01*
X97490961Y-87808629D01*
X97506504Y-87789180D01*
X97517954Y-87767073D01*
X97524871Y-87743157D01*
X97526989Y-87718351D01*
X97524227Y-87693608D01*
X97516692Y-87669880D01*
X97504671Y-87648077D01*
X97489206Y-87629605D01*
X96820202Y-86969404D01*
X97160593Y-86629013D01*
X97830794Y-87290395D01*
X97850143Y-87306062D01*
X97872177Y-87317652D01*
X97896049Y-87324721D01*
X97920000Y-87327000D01*
X97930000Y-87327000D01*
X97954776Y-87324560D01*
X97978601Y-87317333D01*
X98000557Y-87305597D01*
X98019206Y-87290395D01*
X98690275Y-86628156D01*
X99030115Y-86961461D01*
M02*
