  0
SECTION
  2
HEADER
  9
$ACADVER
  1
AC1009
  9
$EXTMIN
 10
0.0
 20
0.0
 30
0.0
  9
$EXTMAX
 10
1000.0
 20
1000.0
 30
0.0
  9
$FILLMODE
 70
 0
  9
$SPLFRAME
 70
 1
  0
ENDSEC
  0
SECTION
  2
TABLES
  0
TABLE
  2
LAYER
 70
1
  0
LAYER
  2
0
 70
     0
 62
     7
  6
CONTINUOUS
  0
ENDTAB
  0
ENDSEC
  0
SECTION
  2
ENTITIES
  0
LINE
  8
0
 62
     0
 10
0.0950846
 20
105.033
 30
0.0
 11
257.554
 21
105.033
 31
0.0
  0
LINE
  8
0
 62
     0
 10
257.554
 20
105.033
 30
0.0
 11
257.554
 21
0.307303
 31
0.0
  0
LINE
  8
0
 62
     0
 10
257.554
 20
0.307303
 30
0.0
 11
0.0950846
 21
0.307303
 31
0.0
  0
LINE
  8
0
 62
     0
 10
0.0950846
 20
0.307303
 30
0.0
 11
0.0950846
 21
105.033
 31
0.0
  0
LINE
  8
0
 62
     0
 10
164.04
 20
18.1556
 30
0.0
 11
164.196
 21
17.5769
 31
0.0
  0
LINE
  8
0
 62
     0
 10
164.196
 20
17.5769
 30
0.0
 11
163.423
 21
17.3688
 31
0.0
  0
LINE
  8
0
 62
     0
 10
163.423
 20
17.3688
 30
0.0
 11
166.737
 21
5.00503
 31
0.0
  0
LINE
  8
0
 62
     0
 10
166.737
 20
5.00503
 30
0.0
 11
167.509
 21
5.21173
 31
0.0
  0
LINE
  8
0
 62
     0
 10
167.509
 20
5.21173
 30
0.0
 11
167.665
 21
4.63296
 31
0.0
  0
LINE
  8
0
 62
     0
 10
167.665
 20
4.63296
 30
0.0
 11
181.187
 21
8.25581
 31
0.0
  0
LINE
  8
0
 62
     0
 10
181.187
 20
8.25581
 30
0.0
 11
181.033
 21
8.83599
 31
0.0
  0
LINE
  8
0
 62
     0
 10
181.033
 20
8.83599
 30
0.0
 11
181.805
 21
9.04268
 31
0.0
  0
LINE
  8
0
 62
     0
 10
181.805
 20
9.04268
 30
0.0
 11
178.492
 21
21.4078
 31
0.0
  0
LINE
  8
0
 62
     0
 10
178.492
 20
21.4078
 30
0.0
 11
177.72
 21
21.1998
 31
0.0
  0
LINE
  8
0
 62
     0
 10
177.72
 20
21.1998
 30
0.0
 11
177.563
 21
21.7799
 31
0.0
  0
LINE
  8
0
 62
     0
 10
177.563
 20
21.7799
 30
0.0
 11
164.04
 21
18.1556
 31
0.0
  0
LINE
  8
0
 62
     0
 10
78.9383
 20
21.5057
 30
0.0
 11
78.165
 21
21.7138
 31
0.0
  0
LINE
  8
0
 62
     0
 10
78.165
 20
21.7138
 30
0.0
 11
74.851
 21
9.34861
 31
0.0
  0
LINE
  8
0
 62
     0
 10
74.851
 20
9.34861
 30
0.0
 11
75.6239
 21
9.14192
 31
0.0
  0
LINE
  8
0
 62
     0
 10
75.6239
 20
9.14192
 30
0.0
 11
75.4683
 21
8.56312
 31
0.0
  0
LINE
  8
0
 62
     0
 10
75.4683
 20
8.56312
 30
0.0
 11
88.991
 21
4.93889
 31
0.0
  0
LINE
  8
0
 62
     0
 10
88.991
 20
4.93889
 30
0.0
 11
89.148
 21
5.51903
 31
0.0
  0
LINE
  8
0
 62
     0
 10
89.148
 20
5.51903
 30
0.0
 11
89.9199
 21
5.31234
 31
0.0
  0
LINE
  8
0
 62
     0
 10
89.9199
 20
5.31234
 30
0.0
 11
93.2325
 21
17.6761
 31
0.0
  0
LINE
  8
0
 62
     0
 10
93.2325
 20
17.6761
 30
0.0
 11
92.4609
 21
17.8828
 31
0.0
  0
LINE
  8
0
 62
     0
 10
92.4609
 20
17.8828
 30
0.0
 11
92.6151
 21
18.4629
 31
0.0
  0
LINE
  8
0
 62
     0
 10
92.6151
 20
18.4629
 30
0.0
 11
79.0924
 21
22.0858
 31
0.0
  0
LINE
  8
0
 62
     0
 10
79.0924
 20
22.0858
 30
0.0
 11
78.9383
 21
21.5057
 31
0.0
  0
LINE
  8
0
 62
     0
 10
163.711
 20
37.7899
 30
0.0
 11
163.865
 21
37.2099
 31
0.0
  0
LINE
  8
0
 62
     0
 10
163.865
 20
37.2099
 30
0.0
 11
163.094
 21
37.0032
 31
0.0
  0
LINE
  8
0
 62
     0
 10
163.094
 20
37.0032
 30
0.0
 11
166.406
 21
24.6393
 31
0.0
  0
LINE
  8
0
 62
     0
 10
166.406
 20
24.6393
 30
0.0
 11
167.178
 21
24.846
 31
0.0
  0
LINE
  8
0
 62
     0
 10
167.178
 20
24.846
 30
0.0
 11
167.334
 21
24.2659
 31
0.0
  0
LINE
  8
0
 62
     0
 10
167.334
 20
24.2659
 30
0.0
 11
180.858
 21
27.8901
 31
0.0
  0
LINE
  8
0
 62
     0
 10
180.858
 20
27.8901
 30
0.0
 11
180.702
 21
28.4689
 31
0.0
  0
LINE
  8
0
 62
     0
 10
180.702
 20
28.4689
 30
0.0
 11
181.474
 21
28.677
 31
0.0
  0
LINE
  8
0
 62
     0
 10
181.474
 20
28.677
 30
0.0
 11
178.161
 21
41.0408
 31
0.0
  0
LINE
  8
0
 62
     0
 10
178.161
 20
41.0408
 30
0.0
 11
177.388
 21
40.8326
 31
0.0
  0
LINE
  8
0
 62
     0
 10
177.388
 20
40.8326
 30
0.0
 11
177.234
 21
41.4129
 31
0.0
  0
LINE
  8
0
 62
     0
 10
177.234
 20
41.4129
 30
0.0
 11
163.711
 21
37.7899
 31
0.0
  0
LINE
  8
0
 62
     0
 10
79.2674
 20
41.1399
 30
0.0
 11
78.4945
 21
41.3466
 31
0.0
  0
LINE
  8
0
 62
     0
 10
78.4945
 20
41.3466
 30
0.0
 11
75.1815
 21
28.9829
 31
0.0
  0
LINE
  8
0
 62
     0
 10
75.1815
 20
28.9829
 30
0.0
 11
75.9548
 21
28.7762
 31
0.0
  0
LINE
  8
0
 62
     0
 10
75.9548
 20
28.7762
 30
0.0
 11
75.7989
 21
28.196
 31
0.0
  0
LINE
  8
0
 62
     0
 10
75.7989
 20
28.196
 30
0.0
 11
89.323
 21
24.5732
 31
0.0
  0
LINE
  8
0
 62
     0
 10
89.323
 20
24.5732
 30
0.0
 11
89.4775
 21
25.152
 31
0.0
  0
LINE
  8
0
 62
     0
 10
89.4775
 20
25.152
 30
0.0
 11
90.2504
 21
24.9452
 31
0.0
  0
LINE
  8
0
 62
     0
 10
90.2504
 20
24.9452
 30
0.0
 11
93.5634
 21
37.3091
 31
0.0
  0
LINE
  8
0
 62
     0
 10
93.5634
 20
37.3091
 30
0.0
 11
92.7901
 21
37.5158
 31
0.0
  0
LINE
  8
0
 62
     0
 10
92.7901
 20
37.5158
 30
0.0
 11
92.946
 21
38.0958
 31
0.0
  0
LINE
  8
0
 62
     0
 10
92.946
 20
38.0958
 30
0.0
 11
79.4219
 21
41.7188
 31
0.0
  0
LINE
  8
0
 62
     0
 10
79.4219
 20
41.7188
 30
0.0
 11
79.2674
 21
41.1399
 31
0.0
  0
LINE
  8
0
 62
     0
 10
182.112
 20
42.7207
 30
0.0
 11
182.266
 21
42.1404
 31
0.0
  0
LINE
  8
0
 62
     0
 10
182.266
 20
42.1404
 30
0.0
 11
181.495
 21
41.9336
 31
0.0
  0
LINE
  8
0
 62
     0
 10
181.495
 20
41.9336
 30
0.0
 11
184.806
 21
29.5699
 31
0.0
  0
LINE
  8
0
 62
     0
 10
184.806
 20
29.5699
 30
0.0
 11
185.579
 21
29.7767
 31
0.0
  0
LINE
  8
0
 62
     0
 10
185.579
 20
29.7767
 30
0.0
 11
185.736
 21
29.1979
 31
0.0
  0
LINE
  8
0
 62
     0
 10
185.736
 20
29.1979
 30
0.0
 11
199.257
 21
32.8208
 31
0.0
  0
LINE
  8
0
 62
     0
 10
199.257
 20
32.8208
 30
0.0
 11
199.103
 21
33.4009
 31
0.0
  0
LINE
  8
0
 62
     0
 10
199.103
 20
33.4009
 30
0.0
 11
199.876
 21
33.6076
 31
0.0
  0
LINE
  8
0
 62
     0
 10
199.876
 20
33.6076
 30
0.0
 11
196.562
 21
45.9715
 31
0.0
  0
LINE
  8
0
 62
     0
 10
196.562
 20
45.9715
 30
0.0
 11
195.789
 21
45.7648
 31
0.0
  0
LINE
  8
0
 62
     0
 10
195.789
 20
45.7648
 30
0.0
 11
195.635
 21
46.3434
 31
0.0
  0
LINE
  8
0
 62
     0
 10
195.635
 20
46.3434
 30
0.0
 11
182.112
 21
42.7207
 31
0.0
  0
LINE
  8
0
 62
     0
 10
60.8665
 20
46.0707
 30
0.0
 11
60.0922
 21
46.2774
 31
0.0
  0
LINE
  8
0
 62
     0
 10
60.0922
 20
46.2774
 30
0.0
 11
56.7806
 21
33.9149
 31
0.0
  0
LINE
  8
0
 62
     0
 10
56.7806
 20
33.9149
 30
0.0
 11
57.5539
 21
33.7068
 31
0.0
  0
LINE
  8
0
 62
     0
 10
57.5539
 20
33.7068
 30
0.0
 11
57.398
 21
33.1266
 31
0.0
  0
LINE
  8
0
 62
     0
 10
57.398
 20
33.1266
 30
0.0
 11
70.9221
 21
29.5038
 31
0.0
  0
LINE
  8
0
 62
     0
 10
70.9221
 20
29.5038
 30
0.0
 11
71.0766
 21
30.0839
 31
0.0
  0
LINE
  8
0
 62
     0
 10
71.0766
 20
30.0839
 30
0.0
 11
71.8495
 21
29.8759
 31
0.0
  0
LINE
  8
0
 62
     0
 10
71.8495
 20
29.8759
 30
0.0
 11
75.1625
 21
42.2395
 31
0.0
  0
LINE
  8
0
 62
     0
 10
75.1625
 20
42.2395
 30
0.0
 11
74.3892
 21
42.4476
 31
0.0
  0
LINE
  8
0
 62
     0
 10
74.3892
 20
42.4476
 30
0.0
 11
74.5451
 21
43.0265
 31
0.0
  0
LINE
  8
0
 62
     0
 10
74.5451
 20
43.0265
 30
0.0
 11
61.021
 21
46.6506
 31
0.0
  0
LINE
  8
0
 62
     0
 10
61.021
 20
46.6506
 30
0.0
 11
60.8665
 21
46.0707
 31
0.0
  0
LINE
  8
0
 62
     0
 10
200.513
 20
47.6497
 30
0.0
 11
200.667
 21
47.0711
 31
0.0
  0
LINE
  8
0
 62
     0
 10
200.667
 20
47.0711
 30
0.0
 11
199.896
 21
46.8644
 31
0.0
  0
LINE
  8
0
 62
     0
 10
199.896
 20
46.8644
 30
0.0
 11
203.207
 21
34.5006
 31
0.0
  0
LINE
  8
0
 62
     0
 10
203.207
 20
34.5006
 30
0.0
 11
203.98
 21
34.7073
 31
0.0
  0
LINE
  8
0
 62
     0
 10
203.98
 20
34.7073
 30
0.0
 11
204.136
 21
34.1271
 31
0.0
  0
LINE
  8
0
 62
     0
 10
204.136
 20
34.1271
 30
0.0
 11
217.658
 21
37.7515
 31
0.0
  0
LINE
  8
0
 62
     0
 10
217.658
 20
37.7515
 30
0.0
 11
217.504
 21
38.33
 31
0.0
  0
LINE
  8
0
 62
     0
 10
217.504
 20
38.33
 30
0.0
 11
218.277
 21
38.5367
 31
0.0
  0
LINE
  8
0
 62
     0
 10
218.277
 20
38.5367
 30
0.0
 11
214.963
 21
50.902
 31
0.0
  0
LINE
  8
0
 62
     0
 10
214.963
 20
50.902
 30
0.0
 11
214.19
 21
50.6938
 31
0.0
  0
LINE
  8
0
 62
     0
 10
214.19
 20
50.6938
 30
0.0
 11
214.036
 21
51.2741
 31
0.0
  0
LINE
  8
0
 62
     0
 10
214.036
 20
51.2741
 30
0.0
 11
200.513
 21
47.6497
 31
0.0
  0
LINE
  8
0
 62
     0
 10
42.4656
 20
51.0011
 30
0.0
 11
41.6927
 21
51.2078
 31
0.0
  0
LINE
  8
0
 62
     0
 10
41.6927
 20
51.2078
 30
0.0
 11
38.3798
 21
38.844
 31
0.0
  0
LINE
  8
0
 62
     0
 10
38.3798
 20
38.844
 30
0.0
 11
39.1527
 21
38.6373
 31
0.0
  0
LINE
  8
0
 62
     0
 10
39.1527
 20
38.6373
 30
0.0
 11
38.9971
 21
38.0573
 31
0.0
  0
LINE
  8
0
 62
     0
 10
38.9971
 20
38.0573
 30
0.0
 11
52.5212
 21
34.4344
 31
0.0
  0
LINE
  8
0
 62
     0
 10
52.5212
 20
34.4344
 30
0.0
 11
52.6754
 21
35.0132
 31
0.0
  0
LINE
  8
0
 62
     0
 10
52.6754
 20
35.0132
 30
0.0
 11
53.4487
 21
34.8065
 31
0.0
  0
LINE
  8
0
 62
     0
 10
53.4487
 20
34.8065
 30
0.0
 11
56.7612
 21
47.1703
 31
0.0
  0
LINE
  8
0
 62
     0
 10
56.7612
 20
47.1703
 30
0.0
 11
55.9883
 21
47.377
 31
0.0
  0
LINE
  8
0
 62
     0
 10
55.9883
 20
47.377
 30
0.0
 11
56.1439
 21
47.957
 31
0.0
  0
LINE
  8
0
 62
     0
 10
56.1439
 20
47.957
 30
0.0
 11
42.6201
 21
51.58
 31
0.0
  0
LINE
  8
0
 62
     0
 10
42.6201
 20
51.58
 30
0.0
 11
42.4656
 21
51.0011
 31
0.0
  0
LINE
  8
0
 62
     0
 10
218.914
 20
52.5819
 30
0.0
 11
219.068
 21
52.0016
 31
0.0
  0
LINE
  8
0
 62
     0
 10
219.068
 20
52.0016
 30
0.0
 11
218.295
 21
51.7948
 31
0.0
  0
LINE
  8
0
 62
     0
 10
218.295
 20
51.7948
 30
0.0
 11
221.608
 21
39.43
 31
0.0
  0
LINE
  8
0
 62
     0
 10
221.608
 20
39.43
 30
0.0
 11
222.381
 21
39.6378
 31
0.0
  0
LINE
  8
0
 62
     0
 10
222.381
 20
39.6378
 30
0.0
 11
222.537
 21
39.0578
 31
0.0
  0
LINE
  8
0
 62
     0
 10
222.537
 20
39.0578
 30
0.0
 11
236.059
 21
42.6819
 31
0.0
  0
LINE
  8
0
 62
     0
 10
236.059
 20
42.6819
 30
0.0
 11
235.905
 21
43.2608
 31
0.0
  0
LINE
  8
0
 62
     0
 10
235.905
 20
43.2608
 30
0.0
 11
236.678
 21
43.4689
 31
0.0
  0
LINE
  8
0
 62
     0
 10
236.678
 20
43.4689
 30
0.0
 11
233.364
 21
55.8327
 31
0.0
  0
LINE
  8
0
 62
     0
 10
233.364
 20
55.8327
 30
0.0
 11
232.591
 21
55.626
 31
0.0
  0
LINE
  8
0
 62
     0
 10
232.591
 20
55.626
 30
0.0
 11
232.436
 21
56.2046
 31
0.0
  0
LINE
  8
0
 62
     0
 10
232.436
 20
56.2046
 30
0.0
 11
218.914
 21
52.5819
 31
0.0
  0
LINE
  8
0
 62
     0
 10
24.0647
 20
55.9319
 30
0.0
 11
23.2916
 21
56.1386
 31
0.0
  0
LINE
  8
0
 62
     0
 10
23.2916
 20
56.1386
 30
0.0
 11
19.9802
 21
43.7748
 31
0.0
  0
LINE
  8
0
 62
     0
 10
19.9802
 20
43.7748
 30
0.0
 11
20.7519
 21
43.5666
 31
0.0
  0
LINE
  8
0
 62
     0
 10
20.7519
 20
43.5666
 30
0.0
 11
20.5962
 21
42.9877
 31
0.0
  0
LINE
  8
0
 62
     0
 10
20.5962
 20
42.9877
 30
0.0
 11
34.1188
 21
39.3637
 31
0.0
  0
LINE
  8
0
 62
     0
 10
34.1188
 20
39.3637
 30
0.0
 11
34.2746
 21
39.944
 31
0.0
  0
LINE
  8
0
 62
     0
 10
34.2746
 20
39.944
 30
0.0
 11
35.0477
 21
39.7372
 31
0.0
  0
LINE
  8
0
 62
     0
 10
35.0477
 20
39.7372
 30
0.0
 11
38.3603
 21
52.101
 31
0.0
  0
LINE
  8
0
 62
     0
 10
38.3603
 20
52.101
 30
0.0
 11
37.5874
 21
52.3088
 31
0.0
  0
LINE
  8
0
 62
     0
 10
37.5874
 20
52.3088
 30
0.0
 11
37.743
 21
52.8877
 31
0.0
  0
LINE
  8
0
 62
     0
 10
37.743
 20
52.8877
 30
0.0
 11
24.219
 21
56.5118
 31
0.0
  0
LINE
  8
0
 62
     0
 10
24.219
 20
56.5118
 30
0.0
 11
24.0647
 21
55.9319
 31
0.0
  0
LINE
  8
0
 62
     0
 10
158.78
 20
56.1908
 30
0.0
 11
158.936
 21
55.6108
 31
0.0
  0
LINE
  8
0
 62
     0
 10
158.936
 20
55.6108
 30
0.0
 11
158.163
 21
55.4041
 31
0.0
  0
LINE
  8
0
 62
     0
 10
158.163
 20
55.4041
 30
0.0
 11
161.476
 21
43.0403
 31
0.0
  0
LINE
  8
0
 62
     0
 10
161.476
 20
43.0403
 30
0.0
 11
162.249
 21
43.247
 31
0.0
  0
LINE
  8
0
 62
     0
 10
162.249
 20
43.247
 30
0.0
 11
162.403
 21
42.6667
 31
0.0
  0
LINE
  8
0
 62
     0
 10
162.403
 20
42.6667
 30
0.0
 11
175.926
 21
46.2911
 31
0.0
  0
LINE
  8
0
 62
     0
 10
175.926
 20
46.2911
 30
0.0
 11
175.772
 21
46.8697
 31
0.0
  0
LINE
  8
0
 62
     0
 10
175.772
 20
46.8697
 30
0.0
 11
176.544
 21
47.0778
 31
0.0
  0
LINE
  8
0
 62
     0
 10
176.544
 20
47.0778
 30
0.0
 11
173.232
 21
59.4416
 31
0.0
  0
LINE
  8
0
 62
     0
 10
173.232
 20
59.4416
 30
0.0
 11
172.459
 21
59.2349
 31
0.0
  0
LINE
  8
0
 62
     0
 10
172.459
 20
59.2349
 30
0.0
 11
172.303
 21
59.8138
 31
0.0
  0
LINE
  8
0
 62
     0
 10
172.303
 20
59.8138
 30
0.0
 11
158.78
 21
56.1908
 31
0.0
  0
LINE
  8
0
 62
     0
 10
84.1982
 20
59.5408
 30
0.0
 11
83.4249
 21
59.7475
 31
0.0
  0
LINE
  8
0
 62
     0
 10
83.4249
 20
59.7475
 30
0.0
 11
80.1123
 21
47.3837
 31
0.0
  0
LINE
  8
0
 62
     0
 10
80.1123
 20
47.3837
 30
0.0
 11
80.8838
 21
47.177
 31
0.0
  0
LINE
  8
0
 62
     0
 10
80.8838
 20
47.177
 30
0.0
 11
80.7297
 21
46.597
 31
0.0
  0
LINE
  8
0
 62
     0
 10
80.7297
 20
46.597
 30
0.0
 11
94.2523
 21
42.974
 31
0.0
  0
LINE
  8
0
 62
     0
 10
94.2523
 20
42.974
 30
0.0
 11
94.4079
 21
43.5529
 31
0.0
  0
LINE
  8
0
 62
     0
 10
94.4079
 20
43.5529
 30
0.0
 11
95.1812
 21
43.3462
 31
0.0
  0
LINE
  8
0
 62
     0
 10
95.1812
 20
43.3462
 30
0.0
 11
98.4938
 21
55.71
 31
0.0
  0
LINE
  8
0
 62
     0
 10
98.4938
 20
55.71
 30
0.0
 11
97.7209
 21
55.9167
 31
0.0
  0
LINE
  8
0
 62
     0
 10
97.7209
 20
55.9167
 30
0.0
 11
97.8764
 21
56.4967
 31
0.0
  0
LINE
  8
0
 62
     0
 10
97.8764
 20
56.4967
 30
0.0
 11
84.3538
 21
60.1197
 31
0.0
  0
LINE
  8
0
 62
     0
 10
84.3538
 20
60.1197
 30
0.0
 11
84.1982
 21
59.5408
 31
0.0
  0
LINE
  8
0
 62
     0
 10
237.315
 20
57.5109
 30
0.0
 11
237.469
 21
56.9323
 31
0.0
  0
LINE
  8
0
 62
     0
 10
237.469
 20
56.9323
 30
0.0
 11
236.696
 21
56.7256
 31
0.0
  0
LINE
  8
0
 62
     0
 10
236.696
 20
56.7256
 30
0.0
 11
240.01
 21
44.3618
 31
0.0
  0
LINE
  8
0
 62
     0
 10
240.01
 20
44.3618
 30
0.0
 11
240.782
 21
44.5685
 31
0.0
  0
LINE
  8
0
 62
     0
 10
240.782
 20
44.5685
 30
0.0
 11
240.938
 21
43.9882
 31
0.0
  0
LINE
  8
0
 62
     0
 10
240.938
 20
43.9882
 30
0.0
 11
254.46
 21
47.6127
 31
0.0
  0
LINE
  8
0
 62
     0
 10
254.46
 20
47.6127
 30
0.0
 11
254.306
 21
48.1912
 31
0.0
  0
LINE
  8
0
 62
     0
 10
254.306
 20
48.1912
 30
0.0
 11
255.078
 21
48.3979
 31
0.0
  0
LINE
  8
0
 62
     0
 10
255.078
 20
48.3979
 30
0.0
 11
251.765
 21
60.7617
 31
0.0
  0
LINE
  8
0
 62
     0
 10
251.765
 20
60.7617
 30
0.0
 11
250.993
 21
60.555
 31
0.0
  0
LINE
  8
0
 62
     0
 10
250.993
 20
60.555
 30
0.0
 11
250.837
 21
61.1353
 31
0.0
  0
LINE
  8
0
 62
     0
 10
250.837
 20
61.1353
 30
0.0
 11
237.315
 21
57.5109
 31
0.0
  0
LINE
  8
0
 62
     0
 10
5.66374
 20
60.8623
 30
0.0
 11
4.89204
 21
61.069
 31
0.0
  0
LINE
  8
0
 62
     0
 10
4.89204
 20
61.069
 30
0.0
 11
1.57786
 21
48.7056
 31
0.0
  0
LINE
  8
0
 62
     0
 10
1.57786
 20
48.7056
 30
0.0
 11
2.35093
 21
48.4988
 31
0.0
  0
LINE
  8
0
 62
     0
 10
2.35093
 20
48.4988
 30
0.0
 11
2.19522
 21
47.9185
 31
0.0
  0
LINE
  8
0
 62
     0
 10
2.19522
 20
47.9185
 30
0.0
 11
15.7179
 21
44.2958
 31
0.0
  0
LINE
  8
0
 62
     0
 10
15.7179
 20
44.2958
 30
0.0
 11
15.8736
 21
44.8744
 31
0.0
  0
LINE
  8
0
 62
     0
 10
15.8736
 20
44.8744
 30
0.0
 11
16.6467
 21
44.6677
 31
0.0
  0
LINE
  8
0
 62
     0
 10
16.6467
 20
44.6677
 30
0.0
 11
19.9595
 21
57.0315
 31
0.0
  0
LINE
  8
0
 62
     0
 10
19.9595
 20
57.0315
 30
0.0
 11
19.1864
 21
57.2382
 31
0.0
  0
LINE
  8
0
 62
     0
 10
19.1864
 20
57.2382
 30
0.0
 11
19.3421
 21
57.8185
 31
0.0
  0
LINE
  8
0
 62
     0
 10
19.3421
 20
57.8185
 30
0.0
 11
5.81946
 21
61.4412
 31
0.0
  0
LINE
  8
0
 62
     0
 10
5.81946
 20
61.4412
 30
0.0
 11
5.66374
 21
60.8623
 31
0.0
  0
LINE
  8
0
 62
     0
 10
177.181
 20
61.1216
 30
0.0
 11
177.337
 21
60.5413
 31
0.0
  0
LINE
  8
0
 62
     0
 10
177.337
 20
60.5413
 30
0.0
 11
176.564
 21
60.3345
 31
0.0
  0
LINE
  8
0
 62
     0
 10
176.564
 20
60.3345
 30
0.0
 11
179.877
 21
47.9707
 31
0.0
  0
LINE
  8
0
 62
     0
 10
179.877
 20
47.9707
 30
0.0
 11
180.65
 21
48.1774
 31
0.0
  0
LINE
  8
0
 62
     0
 10
180.65
 20
48.1774
 30
0.0
 11
180.804
 21
47.5989
 31
0.0
  0
LINE
  8
0
 62
     0
 10
180.804
 20
47.5989
 30
0.0
 11
194.327
 21
51.2216
 31
0.0
  0
LINE
  8
0
 62
     0
 10
194.327
 20
51.2216
 30
0.0
 11
194.172
 21
51.8019
 31
0.0
  0
LINE
  8
0
 62
     0
 10
194.172
 20
51.8019
 30
0.0
 11
194.944
 21
52.0086
 31
0.0
  0
LINE
  8
0
 62
     0
 10
194.944
 20
52.0086
 30
0.0
 11
191.633
 21
64.3724
 31
0.0
  0
LINE
  8
0
 62
     0
 10
191.633
 20
64.3724
 30
0.0
 11
190.86
 21
64.1657
 31
0.0
  0
LINE
  8
0
 62
     0
 10
190.86
 20
64.1657
 30
0.0
 11
190.704
 21
64.7442
 31
0.0
  0
LINE
  8
0
 62
     0
 10
190.704
 20
64.7442
 30
0.0
 11
177.181
 21
61.1216
 31
0.0
  0
LINE
  8
0
 62
     0
 10
65.7959
 20
64.4715
 30
0.0
 11
65.024
 21
64.6783
 31
0.0
  0
LINE
  8
0
 62
     0
 10
65.024
 20
64.6783
 30
0.0
 11
61.7114
 21
52.3145
 31
0.0
  0
LINE
  8
0
 62
     0
 10
61.7114
 20
52.3145
 30
0.0
 11
62.4844
 21
52.1077
 31
0.0
  0
LINE
  8
0
 62
     0
 10
62.4844
 20
52.1077
 30
0.0
 11
62.3288
 21
51.5278
 31
0.0
  0
LINE
  8
0
 62
     0
 10
62.3288
 20
51.5278
 30
0.0
 11
75.8515
 21
47.9048
 31
0.0
  0
LINE
  8
0
 62
     0
 10
75.8515
 20
47.9048
 30
0.0
 11
76.007
 21
48.4851
 31
0.0
  0
LINE
  8
0
 62
     0
 10
76.007
 20
48.4851
 30
0.0
 11
76.7803
 21
48.2769
 31
0.0
  0
LINE
  8
0
 62
     0
 10
76.7803
 20
48.2769
 30
0.0
 11
80.0929
 21
60.6418
 31
0.0
  0
LINE
  8
0
 62
     0
 10
80.0929
 20
60.6418
 30
0.0
 11
79.32
 21
60.8485
 31
0.0
  0
LINE
  8
0
 62
     0
 10
79.32
 20
60.8485
 30
0.0
 11
79.4755
 21
61.4274
 31
0.0
  0
LINE
  8
0
 62
     0
 10
79.4755
 20
61.4274
 30
0.0
 11
65.9529
 21
65.0515
 31
0.0
  0
LINE
  8
0
 62
     0
 10
65.9529
 20
65.0515
 30
0.0
 11
65.7959
 21
64.4715
 31
0.0
  0
LINE
  8
0
 62
     0
 10
195.581
 20
66.0506
 30
0.0
 11
195.738
 21
65.472
 31
0.0
  0
LINE
  8
0
 62
     0
 10
195.738
 20
65.472
 30
0.0
 11
194.965
 21
65.2653
 31
0.0
  0
LINE
  8
0
 62
     0
 10
194.965
 20
65.2653
 30
0.0
 11
198.278
 21
52.9015
 31
0.0
  0
LINE
  8
0
 62
     0
 10
198.278
 20
52.9015
 30
0.0
 11
199.051
 21
53.1082
 31
0.0
  0
LINE
  8
0
 62
     0
 10
199.051
 20
53.1082
 30
0.0
 11
199.205
 21
52.5279
 31
0.0
  0
LINE
  8
0
 62
     0
 10
199.205
 20
52.5279
 30
0.0
 11
212.729
 21
56.1523
 31
0.0
  0
LINE
  8
0
 62
     0
 10
212.729
 20
56.1523
 30
0.0
 11
212.573
 21
56.7313
 31
0.0
  0
LINE
  8
0
 62
     0
 10
212.573
 20
56.7313
 30
0.0
 11
213.345
 21
56.9376
 31
0.0
  0
LINE
  8
0
 62
     0
 10
213.345
 20
56.9376
 30
0.0
 11
210.032
 21
69.3028
 31
0.0
  0
LINE
  8
0
 62
     0
 10
210.032
 20
69.3028
 30
0.0
 11
209.261
 21
69.0947
 31
0.0
  0
LINE
  8
0
 62
     0
 10
209.261
 20
69.0947
 30
0.0
 11
209.105
 21
69.675
 31
0.0
  0
LINE
  8
0
 62
     0
 10
209.105
 20
69.675
 30
0.0
 11
195.581
 21
66.0506
 31
0.0
  0
LINE
  8
0
 62
     0
 10
47.3964
 20
69.402
 30
0.0
 11
46.6231
 21
69.6087
 31
0.0
  0
LINE
  8
0
 62
     0
 10
46.6231
 20
69.6087
 30
0.0
 11
43.3105
 21
57.2453
 31
0.0
  0
LINE
  8
0
 62
     0
 10
43.3105
 20
57.2453
 30
0.0
 11
44.0835
 21
57.0385
 31
0.0
  0
LINE
  8
0
 62
     0
 10
44.0835
 20
57.0385
 30
0.0
 11
43.9279
 21
56.4582
 31
0.0
  0
LINE
  8
0
 62
     0
 10
43.9279
 20
56.4582
 30
0.0
 11
57.4506
 21
52.8355
 31
0.0
  0
LINE
  8
0
 62
     0
 10
57.4506
 20
52.8355
 30
0.0
 11
57.6061
 21
53.4141
 31
0.0
  0
LINE
  8
0
 62
     0
 10
57.6061
 20
53.4141
 30
0.0
 11
58.3777
 21
53.2074
 31
0.0
  0
LINE
  8
0
 62
     0
 10
58.3777
 20
53.2074
 30
0.0
 11
61.692
 21
65.5712
 31
0.0
  0
LINE
  8
0
 62
     0
 10
61.692
 20
65.5712
 30
0.0
 11
60.9191
 21
65.7779
 31
0.0
  0
LINE
  8
0
 62
     0
 10
60.9191
 20
65.7779
 30
0.0
 11
61.0747
 21
66.3582
 31
0.0
  0
LINE
  8
0
 62
     0
 10
61.0747
 20
66.3582
 30
0.0
 11
47.552
 21
69.9809
 31
0.0
  0
LINE
  8
0
 62
     0
 10
47.552
 20
69.9809
 30
0.0
 11
47.3964
 21
69.402
 31
0.0
  0
LINE
  8
0
 62
     0
 10
213.983
 20
70.9828
 30
0.0
 11
214.139
 21
70.4024
 31
0.0
  0
LINE
  8
0
 62
     0
 10
214.139
 20
70.4024
 30
0.0
 11
213.366
 21
70.1957
 31
0.0
  0
LINE
  8
0
 62
     0
 10
213.366
 20
70.1957
 30
0.0
 11
216.679
 21
57.8309
 31
0.0
  0
LINE
  8
0
 62
     0
 10
216.679
 20
57.8309
 30
0.0
 11
217.452
 21
58.039
 31
0.0
  0
LINE
  8
0
 62
     0
 10
217.452
 20
58.039
 30
0.0
 11
217.606
 21
57.4587
 31
0.0
  0
LINE
  8
0
 62
     0
 10
217.606
 20
57.4587
 30
0.0
 11
231.13
 21
61.0828
 31
0.0
  0
LINE
  8
0
 62
     0
 10
231.13
 20
61.0828
 30
0.0
 11
230.973
 21
61.6617
 31
0.0
  0
LINE
  8
0
 62
     0
 10
230.973
 20
61.6617
 30
0.0
 11
231.746
 21
61.8698
 31
0.0
  0
LINE
  8
0
 62
     0
 10
231.746
 20
61.8698
 30
0.0
 11
228.433
 21
74.2336
 31
0.0
  0
LINE
  8
0
 62
     0
 10
228.433
 20
74.2336
 30
0.0
 11
227.662
 21
74.0269
 31
0.0
  0
LINE
  8
0
 62
     0
 10
227.662
 20
74.0269
 30
0.0
 11
227.506
 21
74.6054
 31
0.0
  0
LINE
  8
0
 62
     0
 10
227.506
 20
74.6054
 30
0.0
 11
213.983
 21
70.9828
 31
0.0
  0
LINE
  8
0
 62
     0
 10
28.9953
 20
74.3327
 30
0.0
 11
28.2222
 21
74.5395
 31
0.0
  0
LINE
  8
0
 62
     0
 10
28.2222
 20
74.5395
 30
0.0
 11
24.9094
 21
62.1757
 31
0.0
  0
LINE
  8
0
 62
     0
 10
24.9094
 20
62.1757
 30
0.0
 11
25.6825
 21
61.9675
 31
0.0
  0
LINE
  8
0
 62
     0
 10
25.6825
 20
61.9675
 30
0.0
 11
25.5282
 21
61.389
 31
0.0
  0
LINE
  8
0
 62
     0
 10
25.5282
 20
61.389
 30
0.0
 11
39.0493
 21
57.7645
 31
0.0
  0
LINE
  8
0
 62
     0
 10
39.0493
 20
57.7645
 30
0.0
 11
39.2053
 21
58.3449
 31
0.0
  0
LINE
  8
0
 62
     0
 10
39.2053
 20
58.3449
 30
0.0
 11
39.9782
 21
58.1381
 31
0.0
  0
LINE
  8
0
 62
     0
 10
39.9782
 20
58.1381
 30
0.0
 11
43.2911
 21
70.5019
 31
0.0
  0
LINE
  8
0
 62
     0
 10
43.2911
 20
70.5019
 30
0.0
 11
42.5178
 21
70.7101
 31
0.0
  0
LINE
  8
0
 62
     0
 10
42.5178
 20
70.7101
 30
0.0
 11
42.6738
 21
71.2886
 31
0.0
  0
LINE
  8
0
 62
     0
 10
42.6738
 20
71.2886
 30
0.0
 11
29.151
 21
74.9131
 31
0.0
  0
LINE
  8
0
 62
     0
 10
29.151
 20
74.9131
 30
0.0
 11
28.9953
 21
74.3327
 31
0.0
  0
LINE
  8
0
 62
     0
 10
153.85
 20
74.5917
 30
0.0
 11
154.004
 21
74.0117
 31
0.0
  0
LINE
  8
0
 62
     0
 10
154.004
 20
74.0117
 30
0.0
 11
153.232
 21
73.805
 31
0.0
  0
LINE
  8
0
 62
     0
 10
153.232
 20
73.805
 30
0.0
 11
156.545
 21
61.4412
 31
0.0
  0
LINE
  8
0
 62
     0
 10
156.545
 20
61.4412
 30
0.0
 11
157.317
 21
61.6479
 31
0.0
  0
LINE
  8
0
 62
     0
 10
157.317
 20
61.6479
 30
0.0
 11
157.474
 21
61.0676
 31
0.0
  0
LINE
  8
0
 62
     0
 10
157.474
 20
61.0676
 30
0.0
 11
170.997
 21
64.692
 31
0.0
  0
LINE
  8
0
 62
     0
 10
170.997
 20
64.692
 30
0.0
 11
170.841
 21
65.2709
 31
0.0
  0
LINE
  8
0
 62
     0
 10
170.841
 20
65.2709
 30
0.0
 11
171.614
 21
65.4787
 31
0.0
  0
LINE
  8
0
 62
     0
 10
171.614
 20
65.4787
 30
0.0
 11
168.3
 21
77.8425
 31
0.0
  0
LINE
  8
0
 62
     0
 10
168.3
 20
77.8425
 30
0.0
 11
167.528
 21
77.6358
 31
0.0
  0
LINE
  8
0
 62
     0
 10
167.528
 20
77.6358
 30
0.0
 11
167.372
 21
78.2147
 31
0.0
  0
LINE
  8
0
 62
     0
 10
167.372
 20
78.2147
 30
0.0
 11
153.85
 21
74.5917
 31
0.0
  0
LINE
  8
0
 62
     0
 10
89.1286
 20
77.942
 30
0.0
 11
88.3557
 21
78.1498
 31
0.0
  0
LINE
  8
0
 62
     0
 10
88.3557
 20
78.1498
 30
0.0
 11
85.0427
 21
65.7849
 31
0.0
  0
LINE
  8
0
 62
     0
 10
85.0427
 20
65.7849
 30
0.0
 11
85.816
 21
65.5782
 31
0.0
  0
LINE
  8
0
 62
     0
 10
85.816
 20
65.5782
 30
0.0
 11
85.6601
 21
64.9979
 31
0.0
  0
LINE
  8
0
 62
     0
 10
85.6601
 20
64.9979
 30
0.0
 11
99.1828
 21
61.3752
 31
0.0
  0
LINE
  8
0
 62
     0
 10
99.1828
 20
61.3752
 30
0.0
 11
99.3387
 21
61.9538
 31
0.0
  0
LINE
  8
0
 62
     0
 10
99.3387
 20
61.9538
 30
0.0
 11
100.112
 21
61.747
 31
0.0
  0
LINE
  8
0
 62
     0
 10
100.112
 20
61.747
 30
0.0
 11
103.425
 21
74.1109
 31
0.0
  0
LINE
  8
0
 62
     0
 10
103.425
 20
74.1109
 30
0.0
 11
102.651
 21
74.319
 31
0.0
  0
LINE
  8
0
 62
     0
 10
102.651
 20
74.319
 30
0.0
 11
102.807
 21
74.8979
 31
0.0
  0
LINE
  8
0
 62
     0
 10
102.807
 20
74.8979
 30
0.0
 11
89.2831
 21
78.5206
 31
0.0
  0
LINE
  8
0
 62
     0
 10
89.2831
 20
78.5206
 30
0.0
 11
89.1286
 21
77.942
 31
0.0
  0
LINE
  8
0
 62
     0
 10
232.384
 20
75.9121
 30
0.0
 11
232.54
 21
75.3332
 31
0.0
  0
LINE
  8
0
 62
     0
 10
232.54
 20
75.3332
 30
0.0
 11
231.767
 21
75.1265
 31
0.0
  0
LINE
  8
0
 62
     0
 10
231.767
 20
75.1265
 30
0.0
 11
235.079
 21
62.7627
 31
0.0
  0
LINE
  8
0
 62
     0
 10
235.079
 20
62.7627
 30
0.0
 11
235.851
 21
62.9694
 31
0.0
  0
LINE
  8
0
 62
     0
 10
235.851
 20
62.9694
 30
0.0
 11
236.007
 21
62.3895
 31
0.0
  0
LINE
  8
0
 62
     0
 10
236.007
 20
62.3895
 30
0.0
 11
249.531
 21
66.0135
 31
0.0
  0
LINE
  8
0
 62
     0
 10
249.531
 20
66.0135
 30
0.0
 11
249.374
 21
66.5925
 31
0.0
  0
LINE
  8
0
 62
     0
 10
249.374
 20
66.5925
 30
0.0
 11
250.147
 21
66.7992
 31
0.0
  0
LINE
  8
0
 62
     0
 10
250.147
 20
66.7992
 30
0.0
 11
246.834
 21
79.1626
 31
0.0
  0
LINE
  8
0
 62
     0
 10
246.834
 20
79.1626
 30
0.0
 11
246.061
 21
78.9563
 31
0.0
  0
LINE
  8
0
 62
     0
 10
246.061
 20
78.9563
 30
0.0
 11
245.907
 21
79.5362
 31
0.0
  0
LINE
  8
0
 62
     0
 10
245.907
 20
79.5362
 30
0.0
 11
232.384
 21
75.9121
 31
0.0
  0
LINE
  8
0
 62
     0
 10
10.5944
 20
79.2635
 30
0.0
 11
9.82126
 21
79.4703
 31
0.0
  0
LINE
  8
0
 62
     0
 10
9.82126
 20
79.4703
 30
0.0
 11
6.50847
 21
67.1065
 31
0.0
  0
LINE
  8
0
 62
     0
 10
6.50847
 20
67.1065
 30
0.0
 11
7.28155
 21
66.8997
 31
0.0
  0
LINE
  8
0
 62
     0
 10
7.28155
 20
66.8997
 30
0.0
 11
7.12583
 21
66.3194
 31
0.0
  0
LINE
  8
0
 62
     0
 10
7.12583
 20
66.3194
 30
0.0
 11
20.6499
 21
62.6967
 31
0.0
  0
LINE
  8
0
 62
     0
 10
20.6499
 20
62.6967
 30
0.0
 11
20.8043
 21
63.2753
 31
0.0
  0
LINE
  8
0
 62
     0
 10
20.8043
 20
63.2753
 30
0.0
 11
21.5773
 21
63.0686
 31
0.0
  0
LINE
  8
0
 62
     0
 10
21.5773
 20
63.0686
 30
0.0
 11
24.8901
 21
75.4324
 31
0.0
  0
LINE
  8
0
 62
     0
 10
24.8901
 20
75.4324
 30
0.0
 11
24.1171
 21
75.6391
 31
0.0
  0
LINE
  8
0
 62
     0
 10
24.1171
 20
75.6391
 30
0.0
 11
24.2728
 21
76.2194
 31
0.0
  0
LINE
  8
0
 62
     0
 10
24.2728
 20
76.2194
 30
0.0
 11
10.7501
 21
79.8421
 31
0.0
  0
LINE
  8
0
 62
     0
 10
10.7501
 20
79.8421
 30
0.0
 11
10.5944
 21
79.2635
 31
0.0
  0
LINE
  8
0
 62
     0
 10
172.251
 20
79.5225
 30
0.0
 11
172.405
 21
78.9421
 31
0.0
  0
LINE
  8
0
 62
     0
 10
172.405
 20
78.9421
 30
0.0
 11
171.633
 21
78.7358
 31
0.0
  0
LINE
  8
0
 62
     0
 10
171.633
 20
78.7358
 30
0.0
 11
174.946
 21
66.372
 31
0.0
  0
LINE
  8
0
 62
     0
 10
174.946
 20
66.372
 30
0.0
 11
175.719
 21
66.5787
 31
0.0
  0
LINE
  8
0
 62
     0
 10
175.719
 20
66.5787
 30
0.0
 11
175.875
 21
65.9998
 31
0.0
  0
LINE
  8
0
 62
     0
 10
175.875
 20
65.9998
 30
0.0
 11
189.396
 21
69.6225
 31
0.0
  0
LINE
  8
0
 62
     0
 10
189.396
 20
69.6225
 30
0.0
 11
189.242
 21
70.2028
 31
0.0
  0
LINE
  8
0
 62
     0
 10
189.242
 20
70.2028
 30
0.0
 11
190.015
 21
70.4095
 31
0.0
  0
LINE
  8
0
 62
     0
 10
190.015
 20
70.4095
 30
0.0
 11
186.702
 21
82.7733
 31
0.0
  0
LINE
  8
0
 62
     0
 10
186.702
 20
82.7733
 30
0.0
 11
185.929
 21
82.5666
 31
0.0
  0
LINE
  8
0
 62
     0
 10
185.929
 20
82.5666
 30
0.0
 11
185.773
 21
83.1455
 31
0.0
  0
LINE
  8
0
 62
     0
 10
185.773
 20
83.1455
 30
0.0
 11
172.251
 21
79.5225
 31
0.0
  0
LINE
  8
0
 62
     0
 10
70.7277
 20
82.8724
 30
0.0
 11
69.9548
 21
83.0792
 31
0.0
  0
LINE
  8
0
 62
     0
 10
69.9548
 20
83.0792
 30
0.0
 11
66.6418
 21
70.7154
 31
0.0
  0
LINE
  8
0
 62
     0
 10
66.6418
 20
70.7154
 30
0.0
 11
67.4151
 21
70.5086
 31
0.0
  0
LINE
  8
0
 62
     0
 10
67.4151
 20
70.5086
 30
0.0
 11
67.2592
 21
69.9301
 31
0.0
  0
LINE
  8
0
 62
     0
 10
67.2592
 20
69.9301
 30
0.0
 11
80.7819
 21
66.3056
 31
0.0
  0
LINE
  8
0
 62
     0
 10
80.7819
 20
66.3056
 30
0.0
 11
80.9378
 21
66.886
 31
0.0
  0
LINE
  8
0
 62
     0
 10
80.9378
 20
66.886
 30
0.0
 11
81.7107
 21
66.6778
 31
0.0
  0
LINE
  8
0
 62
     0
 10
81.7107
 20
66.6778
 30
0.0
 11
85.0237
 21
79.043
 31
0.0
  0
LINE
  8
0
 62
     0
 10
85.0237
 20
79.043
 30
0.0
 11
84.2504
 21
79.2498
 31
0.0
  0
LINE
  8
0
 62
     0
 10
84.2504
 20
79.2498
 30
0.0
 11
84.4049
 21
79.8283
 31
0.0
  0
LINE
  8
0
 62
     0
 10
84.4049
 20
79.8283
 30
0.0
 11
70.8822
 21
83.4528
 31
0.0
  0
LINE
  8
0
 62
     0
 10
70.8822
 20
83.4528
 30
0.0
 11
70.7277
 21
82.8724
 31
0.0
  0
LINE
  8
0
 62
     0
 10
190.652
 20
84.4518
 30
0.0
 11
190.806
 21
83.8729
 31
0.0
  0
LINE
  8
0
 62
     0
 10
190.806
 20
83.8729
 30
0.0
 11
190.033
 21
83.6648
 31
0.0
  0
LINE
  8
0
 62
     0
 10
190.033
 20
83.6648
 30
0.0
 11
193.347
 21
71.3024
 31
0.0
  0
LINE
  8
0
 62
     0
 10
193.347
 20
71.3024
 30
0.0
 11
194.12
 21
71.5091
 31
0.0
  0
LINE
  8
0
 62
     0
 10
194.12
 20
71.5091
 30
0.0
 11
194.274
 21
70.9291
 31
0.0
  0
LINE
  8
0
 62
     0
 10
194.274
 20
70.9291
 30
0.0
 11
207.797
 21
74.5532
 31
0.0
  0
LINE
  8
0
 62
     0
 10
207.797
 20
74.5532
 30
0.0
 11
207.643
 21
75.1321
 31
0.0
  0
LINE
  8
0
 62
     0
 10
207.643
 20
75.1321
 30
0.0
 11
208.416
 21
75.3389
 31
0.0
  0
LINE
  8
0
 62
     0
 10
208.416
 20
75.3389
 30
0.0
 11
205.103
 21
87.7037
 31
0.0
  0
LINE
  8
0
 62
     0
 10
205.103
 20
87.7037
 30
0.0
 11
204.33
 21
87.4959
 31
0.0
  0
LINE
  8
0
 62
     0
 10
204.33
 20
87.4959
 30
0.0
 11
204.174
 21
88.0759
 31
0.0
  0
LINE
  8
0
 62
     0
 10
204.174
 20
88.0759
 30
0.0
 11
190.652
 21
84.4518
 31
0.0
  0
LINE
  8
0
 62
     0
 10
52.3268
 20
87.8032
 30
0.0
 11
51.5539
 21
88.0099
 31
0.0
  0
LINE
  8
0
 62
     0
 10
51.5539
 20
88.0099
 30
0.0
 11
48.241
 21
75.6461
 31
0.0
  0
LINE
  8
0
 62
     0
 10
48.241
 20
75.6461
 30
0.0
 11
49.0142
 21
75.4394
 31
0.0
  0
LINE
  8
0
 62
     0
 10
49.0142
 20
75.4394
 30
0.0
 11
48.8583
 21
74.8591
 31
0.0
  0
LINE
  8
0
 62
     0
 10
48.8583
 20
74.8591
 30
0.0
 11
62.381
 21
71.2364
 31
0.0
  0
LINE
  8
0
 62
     0
 10
62.381
 20
71.2364
 30
0.0
 11
62.5369
 21
71.815
 31
0.0
  0
LINE
  8
0
 62
     0
 10
62.5369
 20
71.815
 30
0.0
 11
63.3099
 21
71.6082
 31
0.0
  0
LINE
  8
0
 62
     0
 10
63.3099
 20
71.6082
 30
0.0
 11
66.6228
 21
83.972
 31
0.0
  0
LINE
  8
0
 62
     0
 10
66.6228
 20
83.972
 30
0.0
 11
65.8495
 21
84.1788
 31
0.0
  0
LINE
  8
0
 62
     0
 10
65.8495
 20
84.1788
 30
0.0
 11
66.004
 21
84.7591
 31
0.0
  0
LINE
  8
0
 62
     0
 10
66.004
 20
84.7591
 30
0.0
 11
52.4813
 21
88.3818
 31
0.0
  0
LINE
  8
0
 62
     0
 10
52.4813
 20
88.3818
 30
0.0
 11
52.3268
 21
87.8032
 31
0.0
  0
LINE
  8
0
 62
     0
 10
209.053
 20
89.3837
 30
0.0
 11
209.207
 21
88.8037
 31
0.0
  0
LINE
  8
0
 62
     0
 10
209.207
 20
88.8037
 30
0.0
 11
208.435
 21
88.597
 31
0.0
  0
LINE
  8
0
 62
     0
 10
208.435
 20
88.597
 30
0.0
 11
211.748
 21
76.2317
 31
0.0
  0
LINE
  8
0
 62
     0
 10
211.748
 20
76.2317
 30
0.0
 11
212.521
 21
76.4399
 31
0.0
  0
LINE
  8
0
 62
     0
 10
212.521
 20
76.4399
 30
0.0
 11
212.675
 21
75.8596
 31
0.0
  0
LINE
  8
0
 62
     0
 10
212.675
 20
75.8596
 30
0.0
 11
226.198
 21
79.484
 31
0.0
  0
LINE
  8
0
 62
     0
 10
226.198
 20
79.484
 30
0.0
 11
226.044
 21
80.0626
 31
0.0
  0
LINE
  8
0
 62
     0
 10
226.044
 20
80.0626
 30
0.0
 11
226.817
 21
80.2707
 31
0.0
  0
LINE
  8
0
 62
     0
 10
226.817
 20
80.2707
 30
0.0
 11
223.504
 21
92.6345
 31
0.0
  0
LINE
  8
0
 62
     0
 10
223.504
 20
92.6345
 30
0.0
 11
222.731
 21
92.4278
 31
0.0
  0
LINE
  8
0
 62
     0
 10
222.731
 20
92.4278
 30
0.0
 11
222.575
 21
93.0067
 31
0.0
  0
LINE
  8
0
 62
     0
 10
222.575
 20
93.0067
 30
0.0
 11
209.053
 21
89.3837
 31
0.0
  0
LINE
  8
0
 62
     0
 10
33.9259
 20
92.7336
 30
0.0
 11
33.1529
 21
92.9404
 31
0.0
  0
LINE
  8
0
 62
     0
 10
33.1529
 20
92.9404
 30
0.0
 11
29.84
 21
80.5766
 31
0.0
  0
LINE
  8
0
 62
     0
 10
29.84
 20
80.5766
 30
0.0
 11
30.6131
 21
80.3698
 31
0.0
  0
LINE
  8
0
 62
     0
 10
30.6131
 20
80.3698
 30
0.0
 11
30.4574
 21
79.7899
 31
0.0
  0
LINE
  8
0
 62
     0
 10
30.4574
 20
79.7899
 30
0.0
 11
43.9801
 21
76.1668
 31
0.0
  0
LINE
  8
0
 62
     0
 10
43.9801
 20
76.1668
 30
0.0
 11
44.1357
 21
76.7457
 31
0.0
  0
LINE
  8
0
 62
     0
 10
44.1357
 20
76.7457
 30
0.0
 11
44.909
 21
76.539
 31
0.0
  0
LINE
  8
0
 62
     0
 10
44.909
 20
76.539
 30
0.0
 11
48.2215
 21
88.9028
 31
0.0
  0
LINE
  8
0
 62
     0
 10
48.2215
 20
88.9028
 30
0.0
 11
47.4486
 21
89.111
 31
0.0
  0
LINE
  8
0
 62
     0
 10
47.4486
 20
89.111
 30
0.0
 11
47.6031
 21
89.6895
 31
0.0
  0
LINE
  8
0
 62
     0
 10
47.6031
 20
89.6895
 30
0.0
 11
34.0803
 21
93.314
 31
0.0
  0
LINE
  8
0
 62
     0
 10
34.0803
 20
93.314
 30
0.0
 11
33.9259
 21
92.7336
 31
0.0
  0
LINE
  8
0
 62
     0
 10
227.453
 20
94.313
 30
0.0
 11
227.608
 21
93.7341
 31
0.0
  0
LINE
  8
0
 62
     0
 10
227.608
 20
93.7341
 30
0.0
 11
226.836
 21
93.526
 31
0.0
  0
LINE
  8
0
 62
     0
 10
226.836
 20
93.526
 30
0.0
 11
230.149
 21
81.1636
 31
0.0
  0
LINE
  8
0
 62
     0
 10
230.149
 20
81.1636
 30
0.0
 11
230.922
 21
81.3703
 31
0.0
  0
LINE
  8
0
 62
     0
 10
230.922
 20
81.3703
 30
0.0
 11
231.077
 21
80.7903
 31
0.0
  0
LINE
  8
0
 62
     0
 10
231.077
 20
80.7903
 30
0.0
 11
244.599
 21
84.4144
 31
0.0
  0
LINE
  8
0
 62
     0
 10
244.599
 20
84.4144
 30
0.0
 11
244.445
 21
84.9933
 31
0.0
  0
LINE
  8
0
 62
     0
 10
244.445
 20
84.9933
 30
0.0
 11
245.218
 21
85.2001
 31
0.0
  0
LINE
  8
0
 62
     0
 10
245.218
 20
85.2001
 30
0.0
 11
241.905
 21
97.5639
 31
0.0
  0
LINE
  8
0
 62
     0
 10
241.905
 20
97.5639
 30
0.0
 11
241.132
 21
97.3571
 31
0.0
  0
LINE
  8
0
 62
     0
 10
241.132
 20
97.3571
 30
0.0
 11
240.976
 21
97.9371
 31
0.0
  0
LINE
  8
0
 62
     0
 10
240.976
 20
97.9371
 30
0.0
 11
227.453
 21
94.313
 31
0.0
  0
LINE
  8
0
 62
     0
 10
15.525
 20
97.6644
 30
0.0
 11
14.7519
 21
97.8711
 31
0.0
  0
LINE
  8
0
 62
     0
 10
14.7519
 20
97.8711
 30
0.0
 11
11.4391
 21
85.5073
 31
0.0
  0
LINE
  8
0
 62
     0
 10
11.4391
 20
85.5073
 30
0.0
 11
12.2122
 21
85.3006
 31
0.0
  0
LINE
  8
0
 62
     0
 10
12.2122
 20
85.3006
 30
0.0
 11
12.0565
 21
84.7203
 31
0.0
  0
LINE
  8
0
 62
     0
 10
12.0565
 20
84.7203
 30
0.0
 11
25.5791
 21
81.0976
 31
0.0
  0
LINE
  8
0
 62
     0
 10
25.5791
 20
81.0976
 30
0.0
 11
25.7349
 21
81.6762
 31
0.0
  0
LINE
  8
0
 62
     0
 10
25.7349
 20
81.6762
 30
0.0
 11
26.5079
 21
81.4698
 31
0.0
  0
LINE
  8
0
 62
     0
 10
26.5079
 20
81.4698
 30
0.0
 11
29.8208
 21
93.8332
 31
0.0
  0
LINE
  8
0
 62
     0
 10
29.8208
 20
93.8332
 30
0.0
 11
29.0477
 21
94.04
 31
0.0
  0
LINE
  8
0
 62
     0
 10
29.0477
 20
94.04
 30
0.0
 11
29.2034
 21
94.6203
 31
0.0
  0
LINE
  8
0
 62
     0
 10
29.2034
 20
94.6203
 30
0.0
 11
15.6807
 21
98.243
 31
0.0
  0
LINE
  8
0
 62
     0
 10
15.6807
 20
98.243
 30
0.0
 11
15.525
 21
97.6644
 31
0.0
  0
ENDSEC
  0
EOF
