  0
SECTION
  2
HEADER
  9
$ACADVER
  1
AC1032
  9
$ACADMAINTVER
 90
      174
  9
$DWGCODEPAGE
  3
ANSI_1252
  9
$LASTSAVEDBY
  1
lfgab
  9
$REQUIREDVERSIONS
160
                 0
  9
$INSBASE
 10
0.0
 20
0.0
 30
0.0
  9
$EXTMIN
 10
-105.997341245585
 20
16.72498369010915
 30
0.0
  9
$EXTMAX
 10
99.02461807965757
 20
94.12102864612595
 30
0.0
  9
$LIMMIN
 10
0.0
 20
0.0
  9
$LIMMAX
 10
12.0
 20
9.0
  9
$ORTHOMODE
 70
     0
  9
$REGENMODE
 70
     1
  9
$FILLMODE
 70
     0
  9
$QTEXTMODE
 70
     0
  9
$MIRRTEXT
 70
     0
  9
$LTSCALE
 40
1.0
  9
$ATTMODE
 70
     1
  9
$TEXTSIZE
 40
0.2
  9
$TRACEWID
 40
0.05
  9
$TEXTSTYLE
  7
Standard
  9
$CLAYER
  8
0
  9
$CELTYPE
  6
Continuous
  9
$CECOLOR
 62
   256
  9
$CELTSCALE
 40
1.0
  9
$DISPSILH
 70
     0
  9
$DIMSCALE
 40
1.0
  9
$DIMASZ
 40
0.18
  9
$DIMEXO
 40
0.0625
  9
$DIMDLI
 40
0.38
  9
$DIMRND
 40
0.0
  9
$DIMDLE
 40
0.0
  9
$DIMEXE
 40
0.18
  9
$DIMTP
 40
0.0
  9
$DIMTM
 40
0.0
  9
$DIMTXT
 40
0.18
  9
$DIMCEN
 40
0.09
  9
$DIMTSZ
 40
0.0
  9
$DIMTOL
 70
     0
  9
$DIMLIM
 70
     0
  9
$DIMTIH
 70
     1
  9
$DIMTOH
 70
     1
  9
$DIMSE1
 70
     0
  9
$DIMSE2
 70
     0
  9
$DIMTAD
 70
     0
  9
$DIMZIN
 70
     0
  9
$DIMBLK
  1

  9
$DIMASO
 70
     1
  9
$DIMSHO
 70
     1
  9
$DIMPOST
  1

  9
$DIMAPOST
  1

  9
$DIMALT
 70
     0
  9
$DIMALTD
 70
     2
  9
$DIMALTF
 40
25.4
  9
$DIMLFAC
 40
1.0
  9
$DIMTOFL
 70
     0
  9
$DIMTVP
 40
0.0
  9
$DIMTIX
 70
     0
  9
$DIMSOXD
 70
     0
  9
$DIMSAH
 70
     0
  9
$DIMBLK1
  1

  9
$DIMBLK2
  1

  9
$DIMSTYLE
  2
Standard
  9
$DIMCLRD
 70
     0
  9
$DIMCLRE
 70
     0
  9
$DIMCLRT
 70
     0
  9
$DIMTFAC
 40
1.0
  9
$DIMGAP
 40
0.09
  9
$DIMJUST
 70
     0
  9
$DIMSD1
 70
     0
  9
$DIMSD2
 70
     0
  9
$DIMTOLJ
 70
     1
  9
$DIMTZIN
 70
     0
  9
$DIMALTZ
 70
     0
  9
$DIMALTTZ
 70
     0
  9
$DIMUPT
 70
     0
  9
$DIMDEC
 70
     4
  9
$DIMTDEC
 70
     4
  9
$DIMALTU
 70
     2
  9
$DIMALTTD
 70
     2
  9
$DIMTXSTY
  7
Standard
  9
$DIMAUNIT
 70
     0
  9
$DIMADEC
 70
     0
  9
$DIMALTRND
 40
0.0
  9
$DIMAZIN
 70
     0
  9
$DIMDSEP
 70
    46
  9
$DIMATFIT
 70
     3
  9
$DIMFRAC
 70
     0
  9
$DIMLDRBLK
  1

  9
$DIMLUNIT
 70
     2
  9
$DIMLWD
 70
    -2
  9
$DIMLWE
 70
    -2
  9
$DIMTMOVE
 70
     0
  9
$DIMFXL
 40
1.0
  9
$DIMFXLON
 70
     0
  9
$DIMJOGANG
 40
0.7853981633974483
  9
$DIMTFILL
 70
     0
  9
$DIMTFILLCLR
 70
     0
  9
$DIMARCSYM
 70
     0
  9
$DIMLTYPE
  6

  9
$DIMLTEX1
  6

  9
$DIMLTEX2
  6

  9
$DIMTXTDIRECTION
 70
     0
  9
$LUNITS
 70
     2
  9
$LUPREC
 70
     4
  9
$SKETCHINC
 40
0.1
  9
$FILLETRAD
 40
3.0
  9
$AUNITS
 70
     0
  9
$AUPREC
 70
     0
  9
$MENU
  1
.
  9
$ELEVATION
 40
0.0
  9
$PELEVATION
 40
0.0
  9
$THICKNESS
 40
0.0
  9
$LIMCHECK
 70
     0
  9
$CHAMFERA
 40
0.0
  9
$CHAMFERB
 40
0.0
  9
$CHAMFERC
 40
0.0
  9
$CHAMFERD
 40
0.0
  9
$SKPOLY
 70
     0
  9
$TDCREATE
 40
2459170.473657408
  9
$TDUCREATE
 40
2459170.681990741
  9
$TDUPDATE
 40
2459172.534803240
  9
$TDUUPDATE
 40
2459172.743136574
  9
$TDINDWG
 40
0.0323842593
  9
$TDUSRTIMER
 40
0.0323842593
  9
$USRTIMER
 70
     1
  9
$ANGBASE
 50
0.0
  9
$ANGDIR
 70
     0
  9
$PDMODE
 70
     0
  9
$PDSIZE
 40
0.0
  9
$PLINEWID
 40
0.0
  9
$SPLFRAME
 70
     1
  9
$SPLINETYPE
 70
     6
  9
$SPLINESEGS
 70
     8
  9
$HANDSEED
  5
A70
  9
$SURFTAB1
 70
     6
  9
$SURFTAB2
 70
     6
  9
$SURFTYPE
 70
     6
  9
$SURFU
 70
     6
  9
$SURFV
 70
     6
  9
$UCSBASE
  2

  9
$UCSNAME
  2

  9
$UCSORG
 10
0.0
 20
0.0
 30
0.0
  9
$UCSXDIR
 10
1.0
 20
0.0
 30
0.0
  9
$UCSYDIR
 10
0.0
 20
1.0
 30
0.0
  9
$UCSORTHOREF
  2

  9
$UCSORTHOVIEW
 70
     0
  9
$UCSORGTOP
 10
0.0
 20
0.0
 30
0.0
  9
$UCSORGBOTTOM
 10
0.0
 20
0.0
 30
0.0
  9
$UCSORGLEFT
 10
0.0
 20
0.0
 30
0.0
  9
$UCSORGRIGHT
 10
0.0
 20
0.0
 30
0.0
  9
$UCSORGFRONT
 10
0.0
 20
0.0
 30
0.0
  9
$UCSORGBACK
 10
0.0
 20
0.0
 30
0.0
  9
$PUCSBASE
  2

  9
$PUCSNAME
  2

  9
$PUCSORG
 10
0.0
 20
0.0
 30
0.0
  9
$PUCSXDIR
 10
1.0
 20
0.0
 30
0.0
  9
$PUCSYDIR
 10
0.0
 20
1.0
 30
0.0
  9
$PUCSORTHOREF
  2

  9
$PUCSORTHOVIEW
 70
     0
  9
$PUCSORGTOP
 10
0.0
 20
0.0
 30
0.0
  9
$PUCSORGBOTTOM
 10
0.0
 20
0.0
 30
0.0
  9
$PUCSORGLEFT
 10
0.0
 20
0.0
 30
0.0
  9
$PUCSORGRIGHT
 10
0.0
 20
0.0
 30
0.0
  9
$PUCSORGFRONT
 10
0.0
 20
0.0
 30
0.0
  9
$PUCSORGBACK
 10
0.0
 20
0.0
 30
0.0
  9
$USERI1
 70
     0
  9
$USERI2
 70
     0
  9
$USERI3
 70
     0
  9
$USERI4
 70
     0
  9
$USERI5
 70
     0
  9
$USERR1
 40
0.0
  9
$USERR2
 40
0.0
  9
$USERR3
 40
0.0
  9
$USERR4
 40
0.0
  9
$USERR5
 40
0.0
  9
$WORLDVIEW
 70
     1
  9
$SHADEDGE
 70
     3
  9
$SHADEDIF
 70
    70
  9
$TILEMODE
 70
     1
  9
$MAXACTVP
 70
    64
  9
$PINSBASE
 10
0.0
 20
0.0
 30
0.0
  9
$PLIMCHECK
 70
     0
  9
$PEXTMIN
 10
1.000000000000000E+20
 20
1.000000000000000E+20
 30
1.000000000000000E+20
  9
$PEXTMAX
 10
-1.000000000000000E+20
 20
-1.000000000000000E+20
 30
-1.000000000000000E+20
  9
$PLIMMIN
 10
0.0
 20
0.0
  9
$PLIMMAX
 10
12.0
 20
9.0
  9
$UNITMODE
 70
     0
  9
$VISRETAIN
 70
     1
  9
$PLINEGEN
 70
     0
  9
$PSLTSCALE
 70
     1
  9
$TREEDEPTH
 70
  3020
  9
$CMLSTYLE
  2
Standard
  9
$CMLJUST
 70
     0
  9
$CMLSCALE
 40
1.0
  9
$PROXYGRAPHICS
 70
     1
  9
$MEASUREMENT
 70
     0
  9
$CELWEIGHT
370
    -1
  9
$ENDCAPS
280
     0
  9
$JOINSTYLE
280
     0
  9
$LWDISPLAY
290
     0
  9
$INSUNITS
 70
     0
  9
$HYPERLINKBASE
  1

  9
$STYLESHEET
  1

  9
$XEDIT
290
     1
  9
$CEPSNTYPE
380
     0
  9
$PSTYLEMODE
290
     1
  9
$FINGERPRINTGUID
  2
{C1518759-879C-3643-8055-FC7B1DD7AAFA}
  9
$VERSIONGUID
  2
{010BA566-D7C5-9347-94FA-749B55C54C26}
  9
$EXTNAMES
290
     1
  9
$PSVPSCALE
 40
0.0
  9
$OLESTARTUP
290
     0
  9
$SORTENTS
280
   127
  9
$INDEXCTL
280
     0
  9
$HIDETEXT
280
     0
  9
$XCLIPFRAME
280
     2
  9
$HALOGAP
280
     0
  9
$OBSCOLOR
 70
   257
  9
$OBSLTYPE
280
     0
  9
$INTERSECTIONDISPLAY
280
     0
  9
$INTERSECTIONCOLOR
 70
   257
  9
$DIMASSOC
280
     1
  9
$PROJECTNAME
  1

  9
$CAMERADISPLAY
290
     0
  9
$LENSLENGTH
 40
50.0
  9
$CAMERAHEIGHT
 40
0.0
  9
$STEPSPERSEC
 40
2.0
  9
$STEPSIZE
 40
6.0
  9
$3DDWFPREC
 40
2.0
  9
$PSOLWIDTH
 40
0.25
  9
$PSOLHEIGHT
 40
4.0
  9
$LOFTANG1
 40
1.570796326794896
  9
$LOFTANG2
 40
1.570796326794896
  9
$LOFTMAG1
 40
0.0
  9
$LOFTMAG2
 40
0.0
  9
$LOFTPARAM
 70
     7
  9
$LOFTNORMALS
280
     1
  9
$LATITUDE
 40
37.795
  9
$LONGITUDE
 40
-122.394
  9
$NORTHDIRECTION
 40
0.0
  9
$TIMEZONE
 70
 -8000
  9
$LIGHTGLYPHDISPLAY
280
     1
  9
$TILEMODELIGHTSYNCH
280
     1
  9
$CMATERIAL
347
11
  9
$SOLIDHIST
280
     0
  9
$SHOWHIST
280
     1
  9
$DWFFRAME
280
     2
  9
$DGNFRAME
280
     0
  9
$REALWORLDSCALE
290
     1
  9
$INTERFERECOLOR
 62
     1
  9
$INTERFEREOBJVS
345
33
  9
$INTERFEREVPVS
346
30
  9
$CSHADOW
280
     0
  9
$SHADOWPLANELOCATION
 40
0.0
  0
ENDSEC
  0
SECTION
  2
CLASSES
  0
CLASS
  1
ACDBDICTIONARYWDFLT
  2
AcDbDictionaryWithDefault
  3
ObjectDBX Classes
 90
        0
 91
        1
280
     0
281
     0
  0
CLASS
  1
MATERIAL
  2
AcDbMaterial
  3
ObjectDBX Classes
 90
     1153
 91
        3
280
     0
281
     0
  0
CLASS
  1
VISUALSTYLE
  2
AcDbVisualStyle
  3
ObjectDBX Classes
 90
     4095
 91
       24
280
     0
281
     0
  0
CLASS
  1
SCALE
  2
AcDbScale
  3
ObjectDBX Classes
 90
     1153
 91
       17
280
     0
281
     0
  0
CLASS
  1
TABLESTYLE
  2
AcDbTableStyle
  3
ObjectDBX Classes
 90
     4095
 91
        1
280
     0
281
     0
  0
CLASS
  1
MLEADERSTYLE
  2
AcDbMLeaderStyle
  3
ACDB_MLEADERSTYLE_CLASS
 90
     4095
 91
        1
280
     0
281
     0
  0
CLASS
  1
ACDBSECTIONVIEWSTYLE
  2
AcDbSectionViewStyle
  3
ObjectDBX Classes
 90
     1025
 91
        1
280
     0
281
     0
  0
CLASS
  1
ACDBDETAILVIEWSTYLE
  2
AcDbDetailViewStyle
  3
ObjectDBX Classes
 90
     1025
 91
        1
280
     0
281
     0
  0
CLASS
  1
DICTIONARYVAR
  2
AcDbDictionaryVar
  3
ObjectDBX Classes
 90
        0
 91
        9
280
     0
281
     0
  0
CLASS
  1
SORTENTSTABLE
  2
AcDbSortentsTable
  3
ObjectDBX Classes
 90
        0
 91
        1
280
     0
281
     0
  0
CLASS
  1
CELLSTYLEMAP
  2
AcDbCellStyleMap
  3
ObjectDBX Classes
 90
     1152
 91
        2
280
     0
281
     0
  0
ENDSEC
  0
SECTION
  2
TABLES
  0
TABLE
  2
VPORT
  5
8
330
0
100
AcDbSymbolTable
 70
     1
  0
VPORT
  5
74
330
8
100
AcDbSymbolTableRecord
100
AcDbViewportTableRecord
  2
*Active
 70
     0
 10
0.0
 20
0.0
 11
1.0
 21
1.0
 12
38.60664099863266
 22
32.18841468431424
 13
0.0
 23
0.0
 14
1.0
 24
1.0
 15
0.0
 25
0.0
 16
0.0
 26
0.0
 36
1.0
 17
0.0
 27
0.0
 37
0.0
 40
247.4676260866941
 41
2.292712066905615
 42
50.0
 43
0.0
 44
0.0
 50
0.0
 51
0.0
 71
     0
 72
   100
 73
     1
 74
     1
 75
     0
 76
     0
 77
     0
 78
     0
281
     0
 65
     1
110
0.0
120
0.0
130
0.0
111
1.0
121
0.0
131
0.0
112
0.0
122
1.0
132
0.0
 79
     0
146
0.0
348
2F
 60
     3
 61
     5
292
     1
282
     1
141
0.0
142
0.0
 63
   250
421
  3355443
1001
ACAD_NAV_VCDISPLAY
1070
     3
  0
ENDTAB
  0
TABLE
  2
LTYPE
  5
5
330
0
100
AcDbSymbolTable
 70
     2
  0
LTYPE
  5
5A
330
5
100
AcDbSymbolTableRecord
100
AcDbLinetypeTableRecord
  2
ByBlock
 70
     0
  3

 72
    65
 73
     0
 40
0.0
  0
LTYPE
  5
5B
330
5
100
AcDbSymbolTableRecord
100
AcDbLinetypeTableRecord
  2
ByLayer
 70
     0
  3

 72
    65
 73
     0
 40
0.0
  0
LTYPE
  5
5C
330
5
100
AcDbSymbolTableRecord
100
AcDbLinetypeTableRecord
  2
Continuous
 70
     0
  3
Solid line
 72
    65
 73
     0
 40
0.0
  0
ENDTAB
  0
TABLE
  2
LAYER
  5
2
102
{ACAD_XDICTIONARY
360
363
102
}
330
0
100
AcDbSymbolTable
 70
     3
  0
LAYER
  5
54
102
{ACAD_XDICTIONARY
360
346
102
}
330
2
100
AcDbSymbolTableRecord
100
AcDbLayerTableRecord
  2
0
 70
     0
 62
     7
  6
Continuous
370
    -3
390
F
347
21
348
0
  0
LAYER
  5
32A
102
{ACAD_XDICTIONARY
360
348
102
}
330
2
100
AcDbSymbolTableRecord
100
AcDbLayerTableRecord
  2
Row
 70
     0
 62
     3
  6
Continuous
370
    -3
390
F
347
21
348
0
1001
AcAecLayerStandard
1000

1000

1001
AcCmTransparency
1071
        0
  0
LAYER
  5
32D
102
{ACAD_XDICTIONARY
360
34A
102
}
330
2
100
AcDbSymbolTableRecord
100
AcDbLayerTableRecord
  2
Column
 70
     0
 62
     1
  6
Continuous
370
    -3
390
F
347
21
348
0
1001
AcAecLayerStandard
1000

1000

1001
AcCmTransparency
1071
        0
  0
ENDTAB
  0
TABLE
  2
STYLE
  5
3
330
0
100
AcDbSymbolTable
 70
     2
  0
STYLE
  5
55
330
3
100
AcDbSymbolTableRecord
100
AcDbTextStyleTableRecord
  2
Standard
 70
     0
 40
0.0
 41
1.0
 50
0.0
 71
     0
 42
0.2
  3
txt
  4

  0
STYLE
  5
59
330
3
100
AcDbSymbolTableRecord
100
AcDbTextStyleTableRecord
  2
Annotative
 70
     0
 40
0.0
 41
1.0
 50
0.0
 71
     0
 42
0.2
  3
txt
  4

1001
AcadAnnotative
1000
AnnotativeData
1002
{
1070
     1
1070
     1
1002
}
  0
ENDTAB
  0
TABLE
  2
VIEW
  5
6
330
0
100
AcDbSymbolTable
 70
     0
  0
ENDTAB
  0
TABLE
  2
UCS
  5
7
330
0
100
AcDbSymbolTable
 70
     0
  0
ENDTAB
  0
TABLE
  2
APPID
  5
9
330
0
100
AcDbSymbolTable
 70
     6
  0
APPID
  5
56
330
9
100
AcDbSymbolTableRecord
100
AcDbRegAppTableRecord
  2
ACAD
 70
     0
  0
APPID
  5
5D
330
9
100
AcDbSymbolTableRecord
100
AcDbRegAppTableRecord
  2
AcadAnnotative
 70
     0
  0
APPID
  5
1FB
330
9
100
AcDbSymbolTableRecord
100
AcDbRegAppTableRecord
  2
ACAD_EXEMPT_FROM_CAD_STANDARDS
 70
     0
  0
APPID
  5
206
330
9
100
AcDbSymbolTableRecord
100
AcDbRegAppTableRecord
  2
ACAD_NAV_VCDISPLAY
 70
     0
  0
APPID
  5
32B
330
9
100
AcDbSymbolTableRecord
100
AcDbRegAppTableRecord
  2
AcAecLayerStandard
 70
     0
  0
APPID
  5
32C
330
9
100
AcDbSymbolTableRecord
100
AcDbRegAppTableRecord
  2
AcCmTransparency
 70
     0
  0
ENDTAB
  0
TABLE
  2
DIMSTYLE
  5
A
330
0
100
AcDbSymbolTable
 70
     3
100
AcDbDimStyleTable
 71
     1
340
57
  0
DIMSTYLE
105
57
330
A
100
AcDbSymbolTableRecord
100
AcDbDimStyleTableRecord
  2
Standard
 70
     0
340
55
  0
DIMSTYLE
105
58
330
A
100
AcDbSymbolTableRecord
100
AcDbDimStyleTableRecord
  2
Annotative
 70
     0
340
55
1001
AcadAnnotative
1000
AnnotativeData
1002
{
1070
     1
1070
     1
1002
}
  0
ENDTAB
  0
TABLE
  2
BLOCK_RECORD
  5
1
330
0
100
AcDbSymbolTable
 70
     2
  0
BLOCK_RECORD
  5
6F
102
{ACAD_XDICTIONARY
360
235
102
}
330
1
100
AcDbSymbolTableRecord
100
AcDbBlockTableRecord
  2
*Model_Space
340
72
 70
     0
280
     1
281
     0
  0
BLOCK_RECORD
  5
6B
330
1
100
AcDbSymbolTableRecord
100
AcDbBlockTableRecord
  2
*Paper_Space
340
6E
 70
     0
280
     1
281
     0
  0
ENDTAB
  0
ENDSEC
  0
SECTION
  2
BLOCKS
  0
BLOCK
  5
70
330
6F
100
AcDbEntity
  8
0
100
AcDbBlockBegin
  2
*Model_Space
 70
     0
 10
0.0
 20
0.0
 30
0.0
  3
*Model_Space
  1

  0
ENDBLK
  5
71
330
6F
100
AcDbEntity
  8
0
100
AcDbBlockEnd
  0
BLOCK
  5
6C
330
6B
100
AcDbEntity
 67
     1
  8
0
100
AcDbBlockBegin
  2
*Paper_Space
 70
     0
 10
0.0
 20
0.0
 30
0.0
  3
*Paper_Space
  1

  0
ENDBLK
  5
6D
330
6B
100
AcDbEntity
 67
     1
  8
0
100
AcDbBlockEnd
  0
ENDSEC
  0
SECTION
  2
ENTITIES
  0
LINE
  5
221
330
6F
100
AcDbEntity
  8
0
  6
Continuous
100
AcDbLine
 10
91.26100542468616
 20
94.12102743021575
 30
0.0
 11
-0.5402513456816536
 21
94.03837533157092
 31
0.0
  0
LINE
  5
224
330
6F
100
AcDbEntity
  8
0
  6
Continuous
100
AcDbLine
 10
94.26370523528914
 20
91.12371226271262
 30
0.0
 11
94.29936315215462
 21
51.26194202036122
 31
0.0
  0
ARC
  5
234
330
6F
100
AcDbEntity
  8
0
  6
Continuous
100
AcDbCircle
 10
-0.4866856892362164
 20
34.17709601568943
 30
0.0
 40
3.0
100
AcDbArc
 50
180.0512533082514
 51
270.0512533082513
  0
ARC
  5
23A
330
6F
100
AcDbEntity
  8
0
  6
Continuous
100
AcDbCircle
 10
91.26370643558905
 20
91.12102864612594
 30
0.0
 40
3.0
100
AcDbArc
 50
0.0512533082512196
 51
90.05158551535428
  0
ARC
  5
23B
330
6F
100
AcDbEntity
  8
0
  6
Continuous
100
AcDbCircle
 10
-0.5375503347787607
 20
91.03837654748115
 30
0.0
 40
3.0
100
AcDbArc
 50
90.05158551535428
 51
180.0512533082514
  0
LINE
  5
8C5
330
6F
100
AcDbEntity
  8
0
 62
     0
100
AcDbLine
 10
81.22591807965756
 20
33.90245423366332
 30
0.0
 11
81.22591807965756
 21
33.30305423366332
 31
0.0
  0
LINE
  5
8C6
330
6F
100
AcDbEntity
  8
0
 62
     0
100
AcDbLine
 10
81.22591807965756
 20
33.30305423366332
 30
0.0
 11
80.42511807965757
 21
33.30305423366332
 31
0.0
  0
LINE
  5
8C7
330
6F
100
AcDbEntity
  8
0
 62
     0
100
AcDbLine
 10
80.42511807965757
 20
33.30305423366332
 30
0.0
 11
80.42511807965757
 21
20.50243423366332
 31
0.0
  0
LINE
  5
8C8
330
6F
100
AcDbEntity
  8
0
 62
     0
100
AcDbLine
 10
80.42511807965757
 20
20.50243423366332
 30
0.0
 11
81.22591807965756
 21
20.50243423366332
 31
0.0
  0
LINE
  5
8C9
330
6F
100
AcDbEntity
  8
0
 62
     0
100
AcDbLine
 10
81.22591807965756
 20
20.50243423366332
 30
0.0
 11
81.22591807965756
 21
19.90299423366332
 31
0.0
  0
LINE
  5
8CA
330
6F
100
AcDbEntity
  8
0
 62
     0
100
AcDbLine
 10
81.22591807965756
 20
19.90299423366332
 30
0.0
 11
95.22521807965757
 21
19.90299423366332
 31
0.0
  0
LINE
  5
8CB
330
6F
100
AcDbEntity
  8
0
 62
     0
100
AcDbLine
 10
95.22521807965757
 20
19.90299423366332
 30
0.0
 11
95.22521807965757
 21
20.50243423366332
 31
0.0
  0
LINE
  5
8CC
330
6F
100
AcDbEntity
  8
0
 62
     0
100
AcDbLine
 10
95.22521807965757
 20
20.50243423366332
 30
0.0
 11
96.02461807965756
 21
20.50243423366332
 31
0.0
  0
LINE
  5
8CD
330
6F
100
AcDbEntity
  8
0
 62
     0
100
AcDbLine
 10
96.02461807965756
 20
20.50243423366332
 30
0.0
 11
96.02461807965756
 21
33.30305423366332
 31
0.0
  0
LINE
  5
8CE
330
6F
100
AcDbEntity
  8
0
 62
     0
100
AcDbLine
 10
96.02461807965756
 20
33.30305423366332
 30
0.0
 11
95.22521807965757
 21
33.30305423366332
 31
0.0
  0
LINE
  5
8CF
330
6F
100
AcDbEntity
  8
0
 62
     0
100
AcDbLine
 10
95.22521807965757
 20
33.30305423366332
 30
0.0
 11
95.22521807965757
 21
33.90245423366332
 31
0.0
  0
LINE
  5
8D0
330
6F
100
AcDbEntity
  8
0
 62
     0
100
AcDbLine
 10
95.22521807965757
 20
33.90245423366332
 30
0.0
 11
81.22591807965756
 21
33.90245423366332
 31
0.0
  0
LINE
  5
8D1
330
6F
100
AcDbEntity
  8
0
 62
     0
100
AcDbLine
 10
76.46341807965756
 20
52.95235423366332
 30
0.0
 11
76.46341807965756
 21
52.35305423366331
 31
0.0
  0
LINE
  5
8D2
330
6F
100
AcDbEntity
  8
0
 62
     0
100
AcDbLine
 10
76.46341807965756
 20
52.35305423366331
 30
0.0
 11
75.66261807965756
 21
52.35305423366331
 31
0.0
  0
LINE
  5
8D3
330
6F
100
AcDbEntity
  8
0
 62
     0
100
AcDbLine
 10
75.66261807965756
 20
52.35305423366331
 30
0.0
 11
75.66261807965756
 21
39.55245423366331
 31
0.0
  0
LINE
  5
8D4
330
6F
100
AcDbEntity
  8
0
 62
     0
100
AcDbLine
 10
75.66261807965756
 20
39.55245423366331
 30
0.0
 11
76.46341807965756
 21
39.55245423366331
 31
0.0
  0
LINE
  5
8D5
330
6F
100
AcDbEntity
  8
0
 62
     0
100
AcDbLine
 10
76.46341807965756
 20
39.55245423366331
 30
0.0
 11
76.46341807965756
 21
38.95295423366332
 31
0.0
  0
LINE
  5
8D6
330
6F
100
AcDbEntity
  8
0
 62
     0
100
AcDbLine
 10
76.46341807965756
 20
38.95295423366332
 30
0.0
 11
90.46271807965757
 21
38.95295423366332
 31
0.0
  0
LINE
  5
8D7
330
6F
100
AcDbEntity
  8
0
 62
     0
100
AcDbLine
 10
90.46271807965757
 20
38.95295423366332
 30
0.0
 11
90.46271807965757
 21
39.55245423366331
 31
0.0
  0
LINE
  5
8D8
330
6F
100
AcDbEntity
  8
0
 62
     0
100
AcDbLine
 10
90.46271807965757
 20
39.55245423366331
 30
0.0
 11
91.26211807965757
 21
39.55245423366331
 31
0.0
  0
LINE
  5
8D9
330
6F
100
AcDbEntity
  8
0
 62
     0
100
AcDbLine
 10
91.26211807965757
 20
39.55245423366331
 30
0.0
 11
91.26211807965757
 21
52.35305423366331
 31
0.0
  0
LINE
  5
8DA
330
6F
100
AcDbEntity
  8
0
 62
     0
100
AcDbLine
 10
91.26211807965757
 20
52.35305423366331
 30
0.0
 11
90.46271807965757
 21
52.35305423366331
 31
0.0
  0
LINE
  5
8DB
330
6F
100
AcDbEntity
  8
0
 62
     0
100
AcDbLine
 10
90.46271807965757
 20
52.35305423366331
 30
0.0
 11
90.46271807965757
 21
52.95235423366332
 31
0.0
  0
LINE
  5
8DC
330
6F
100
AcDbEntity
  8
0
 62
     0
100
AcDbLine
 10
90.46271807965757
 20
52.95235423366332
 30
0.0
 11
76.46341807965756
 21
52.95235423366332
 31
0.0
  0
LINE
  5
8DD
330
6F
100
AcDbEntity
  8
0
 62
     0
100
AcDbLine
 10
57.41341807965756
 20
52.95235423366332
 30
0.0
 11
57.41341807965756
 21
52.35305423366331
 31
0.0
  0
LINE
  5
8DE
330
6F
100
AcDbEntity
  8
0
 62
     0
100
AcDbLine
 10
57.41341807965756
 20
52.35305423366331
 30
0.0
 11
56.61261807965756
 21
52.35305423366331
 31
0.0
  0
LINE
  5
8DF
330
6F
100
AcDbEntity
  8
0
 62
     0
100
AcDbLine
 10
56.61261807965756
 20
52.35305423366331
 30
0.0
 11
56.61261807965756
 21
39.55245423366331
 31
0.0
  0
LINE
  5
8E0
330
6F
100
AcDbEntity
  8
0
 62
     0
100
AcDbLine
 10
56.61261807965756
 20
39.55245423366331
 30
0.0
 11
57.41341807965756
 21
39.55245423366331
 31
0.0
  0
LINE
  5
8E1
330
6F
100
AcDbEntity
  8
0
 62
     0
100
AcDbLine
 10
57.41341807965756
 20
39.55245423366331
 30
0.0
 11
57.41341807965756
 21
38.95295423366332
 31
0.0
  0
LINE
  5
8E2
330
6F
100
AcDbEntity
  8
0
 62
     0
100
AcDbLine
 10
57.41341807965756
 20
38.95295423366332
 30
0.0
 11
71.41271807965755
 21
38.95295423366332
 31
0.0
  0
LINE
  5
8E3
330
6F
100
AcDbEntity
  8
0
 62
     0
100
AcDbLine
 10
71.41271807965755
 20
38.95295423366332
 30
0.0
 11
71.41271807965755
 21
39.55245423366331
 31
0.0
  0
LINE
  5
8E4
330
6F
100
AcDbEntity
  8
0
 62
     0
100
AcDbLine
 10
71.41271807965755
 20
39.55245423366331
 30
0.0
 11
72.21351807965756
 21
39.55245423366331
 31
0.0
  0
LINE
  5
8E5
330
6F
100
AcDbEntity
  8
0
 62
     0
100
AcDbLine
 10
72.21351807965756
 20
39.55245423366331
 30
0.0
 11
72.21351807965756
 21
52.35305423366331
 31
0.0
  0
LINE
  5
8E6
330
6F
100
AcDbEntity
  8
0
 62
     0
100
AcDbLine
 10
72.21351807965756
 20
52.35305423366331
 30
0.0
 11
71.41271807965755
 21
52.35305423366331
 31
0.0
  0
LINE
  5
8E7
330
6F
100
AcDbEntity
  8
0
 62
     0
100
AcDbLine
 10
71.41271807965755
 20
52.35305423366331
 30
0.0
 11
71.41271807965755
 21
52.95235423366332
 31
0.0
  0
LINE
  5
8E8
330
6F
100
AcDbEntity
  8
0
 62
     0
100
AcDbLine
 10
71.41271807965755
 20
52.95235423366332
 30
0.0
 11
57.41341807965756
 21
52.95235423366332
 31
0.0
  0
LINE
  5
8E9
330
6F
100
AcDbEntity
  8
0
 62
     0
100
AcDbLine
 10
38.36341807965757
 20
52.95235423366332
 30
0.0
 11
38.36341807965757
 21
52.35305423366331
 31
0.0
  0
LINE
  5
8EA
330
6F
100
AcDbEntity
  8
0
 62
     0
100
AcDbLine
 10
38.36341807965757
 20
52.35305423366331
 30
0.0
 11
37.56261807965756
 21
52.35305423366331
 31
0.0
  0
LINE
  5
8EB
330
6F
100
AcDbEntity
  8
0
 62
     0
100
AcDbLine
 10
37.56261807965756
 20
52.35305423366331
 30
0.0
 11
37.56261807965756
 21
39.55245423366331
 31
0.0
  0
LINE
  5
8EC
330
6F
100
AcDbEntity
  8
0
 62
     0
100
AcDbLine
 10
37.56261807965756
 20
39.55245423366331
 30
0.0
 11
38.36341807965757
 21
39.55245423366331
 31
0.0
  0
LINE
  5
8ED
330
6F
100
AcDbEntity
  8
0
 62
     0
100
AcDbLine
 10
38.36341807965757
 20
39.55245423366331
 30
0.0
 11
38.36341807965757
 21
38.95295423366332
 31
0.0
  0
LINE
  5
8EE
330
6F
100
AcDbEntity
  8
0
 62
     0
100
AcDbLine
 10
38.36341807965757
 20
38.95295423366332
 30
0.0
 11
52.36271807965755
 21
38.95295423366332
 31
0.0
  0
LINE
  5
8EF
330
6F
100
AcDbEntity
  8
0
 62
     0
100
AcDbLine
 10
52.36271807965755
 20
38.95295423366332
 30
0.0
 11
52.36271807965755
 21
39.55245423366331
 31
0.0
  0
LINE
  5
8F0
330
6F
100
AcDbEntity
  8
0
 62
     0
100
AcDbLine
 10
52.36271807965755
 20
39.55245423366331
 30
0.0
 11
53.16351807965755
 21
39.55245423366331
 31
0.0
  0
LINE
  5
8F1
330
6F
100
AcDbEntity
  8
0
 62
     0
100
AcDbLine
 10
53.16351807965755
 20
39.55245423366331
 30
0.0
 11
53.16351807965755
 21
52.35305423366331
 31
0.0
  0
LINE
  5
8F2
330
6F
100
AcDbEntity
  8
0
 62
     0
100
AcDbLine
 10
53.16351807965755
 20
52.35305423366331
 30
0.0
 11
52.36271807965755
 21
52.35305423366331
 31
0.0
  0
LINE
  5
8F3
330
6F
100
AcDbEntity
  8
0
 62
     0
100
AcDbLine
 10
52.36271807965755
 20
52.35305423366331
 30
0.0
 11
52.36271807965755
 21
52.95235423366332
 31
0.0
  0
LINE
  5
8F4
330
6F
100
AcDbEntity
  8
0
 62
     0
100
AcDbLine
 10
52.36271807965755
 20
52.95235423366332
 30
0.0
 11
38.36341807965757
 21
52.95235423366332
 31
0.0
  0
LINE
  5
8F5
330
6F
100
AcDbEntity
  8
0
 62
     0
100
AcDbLine
 10
19.31341807965756
 20
52.95235423366332
 30
0.0
 11
19.31341807965756
 21
52.35305423366331
 31
0.0
  0
LINE
  5
8F6
330
6F
100
AcDbEntity
  8
0
 62
     0
100
AcDbLine
 10
19.31341807965756
 20
52.35305423366331
 30
0.0
 11
18.51271807965756
 21
52.35305423366331
 31
0.0
  0
LINE
  5
8F7
330
6F
100
AcDbEntity
  8
0
 62
     0
100
AcDbLine
 10
18.51271807965756
 20
52.35305423366331
 30
0.0
 11
18.51271807965756
 21
39.55245423366331
 31
0.0
  0
LINE
  5
8F8
330
6F
100
AcDbEntity
  8
0
 62
     0
100
AcDbLine
 10
18.51271807965756
 20
39.55245423366331
 30
0.0
 11
19.31341807965756
 21
39.55245423366331
 31
0.0
  0
LINE
  5
8F9
330
6F
100
AcDbEntity
  8
0
 62
     0
100
AcDbLine
 10
19.31341807965756
 20
39.55245423366331
 30
0.0
 11
19.31341807965756
 21
38.95295423366332
 31
0.0
  0
LINE
  5
8FA
330
6F
100
AcDbEntity
  8
0
 62
     0
100
AcDbLine
 10
19.31341807965756
 20
38.95295423366332
 30
0.0
 11
33.31271807965757
 21
38.95295423366332
 31
0.0
  0
LINE
  5
8FB
330
6F
100
AcDbEntity
  8
0
 62
     0
100
AcDbLine
 10
33.31271807965757
 20
38.95295423366332
 30
0.0
 11
33.31271807965757
 21
39.55245423366331
 31
0.0
  0
LINE
  5
8FC
330
6F
100
AcDbEntity
  8
0
 62
     0
100
AcDbLine
 10
33.31271807965757
 20
39.55245423366331
 30
0.0
 11
34.11351807965756
 21
39.55245423366331
 31
0.0
  0
LINE
  5
8FD
330
6F
100
AcDbEntity
  8
0
 62
     0
100
AcDbLine
 10
34.11351807965756
 20
39.55245423366331
 30
0.0
 11
34.11351807965756
 21
52.35305423366331
 31
0.0
  0
LINE
  5
8FE
330
6F
100
AcDbEntity
  8
0
 62
     0
100
AcDbLine
 10
34.11351807965756
 20
52.35305423366331
 30
0.0
 11
33.31271807965757
 21
52.35305423366331
 31
0.0
  0
LINE
  5
8FF
330
6F
100
AcDbEntity
  8
0
 62
     0
100
AcDbLine
 10
33.31271807965757
 20
52.35305423366331
 30
0.0
 11
33.31271807965757
 21
52.95235423366332
 31
0.0
  0
LINE
  5
900
330
6F
100
AcDbEntity
  8
0
 62
     0
100
AcDbLine
 10
33.31271807965757
 20
52.95235423366332
 30
0.0
 11
19.31341807965756
 21
52.95235423366332
 31
0.0
  0
LINE
  5
901
330
6F
100
AcDbEntity
  8
0
 62
     0
100
AcDbLine
 10
0.2633680796575604
 20
52.95235423366332
 30
0.0
 11
0.2633680796575604
 21
52.35305423366331
 31
0.0
  0
LINE
  5
902
330
6F
100
AcDbEntity
  8
0
 62
     0
100
AcDbLine
 10
0.2633680796575604
 20
52.35305423366331
 30
0.0
 11
-0.5372719203424392
 21
52.35305423366331
 31
0.0
  0
LINE
  5
903
330
6F
100
AcDbEntity
  8
0
 62
     0
100
AcDbLine
 10
-0.5372719203424392
 20
52.35305423366331
 30
0.0
 11
-0.5372719203424392
 21
39.55245423366331
 31
0.0
  0
LINE
  5
904
330
6F
100
AcDbEntity
  8
0
 62
     0
100
AcDbLine
 10
-0.5372719203424392
 20
39.55245423366331
 30
0.0
 11
0.2633680796575604
 21
39.55245423366331
 31
0.0
  0
LINE
  5
905
330
6F
100
AcDbEntity
  8
0
 62
     0
100
AcDbLine
 10
0.2633680796575604
 20
39.55245423366331
 30
0.0
 11
0.2633680796575604
 21
38.95295423366332
 31
0.0
  0
LINE
  5
906
330
6F
100
AcDbEntity
  8
0
 62
     0
100
AcDbLine
 10
0.2633680796575604
 20
38.95295423366332
 30
0.0
 11
14.26291807965756
 21
38.95295423366332
 31
0.0
  0
LINE
  5
907
330
6F
100
AcDbEntity
  8
0
 62
     0
100
AcDbLine
 10
14.26291807965756
 20
38.95295423366332
 30
0.0
 11
14.26291807965756
 21
39.55245423366331
 31
0.0
  0
LINE
  5
908
330
6F
100
AcDbEntity
  8
0
 62
     0
100
AcDbLine
 10
14.26291807965756
 20
39.55245423366331
 30
0.0
 11
15.06351807965756
 21
39.55245423366331
 31
0.0
  0
LINE
  5
909
330
6F
100
AcDbEntity
  8
0
 62
     0
100
AcDbLine
 10
15.06351807965756
 20
39.55245423366331
 30
0.0
 11
15.06351807965756
 21
52.35305423366331
 31
0.0
  0
LINE
  5
90A
330
6F
100
AcDbEntity
  8
0
 62
     0
100
AcDbLine
 10
15.06351807965756
 20
52.35305423366331
 30
0.0
 11
14.26291807965756
 21
52.35305423366331
 31
0.0
  0
LINE
  5
90B
330
6F
100
AcDbEntity
  8
0
 62
     0
100
AcDbLine
 10
14.26291807965756
 20
52.35305423366331
 30
0.0
 11
14.26291807965756
 21
52.95235423366332
 31
0.0
  0
LINE
  5
90C
330
6F
100
AcDbEntity
  8
0
 62
     0
100
AcDbLine
 10
14.26291807965756
 20
52.95235423366332
 30
0.0
 11
0.2633680796575604
 21
52.95235423366332
 31
0.0
  0
LINE
  5
90D
330
6F
100
AcDbEntity
  8
0
 62
     0
100
AcDbLine
 10
76.46341807965756
 20
72.00245423366331
 30
0.0
 11
76.46341807965756
 21
71.40305423366331
 31
0.0
  0
LINE
  5
90E
330
6F
100
AcDbEntity
  8
0
 62
     0
100
AcDbLine
 10
76.46341807965756
 20
71.40305423366331
 30
0.0
 11
75.66261807965756
 21
71.40305423366331
 31
0.0
  0
LINE
  5
90F
330
6F
100
AcDbEntity
  8
0
 62
     0
100
AcDbLine
 10
75.66261807965756
 20
71.40305423366331
 30
0.0
 11
75.66261807965756
 21
58.60245423366332
 31
0.0
  0
LINE
  5
910
330
6F
100
AcDbEntity
  8
0
 62
     0
100
AcDbLine
 10
75.66261807965756
 20
58.60245423366332
 30
0.0
 11
76.46341807965756
 21
58.60245423366332
 31
0.0
  0
LINE
  5
911
330
6F
100
AcDbEntity
  8
0
 62
     0
100
AcDbLine
 10
76.46341807965756
 20
58.60245423366332
 30
0.0
 11
76.46341807965756
 21
58.00315423366331
 31
0.0
  0
LINE
  5
912
330
6F
100
AcDbEntity
  8
0
 62
     0
100
AcDbLine
 10
76.46341807965756
 20
58.00315423366331
 30
0.0
 11
90.46271807965757
 21
58.00315423366331
 31
0.0
  0
LINE
  5
913
330
6F
100
AcDbEntity
  8
0
 62
     0
100
AcDbLine
 10
90.46271807965757
 20
58.00315423366331
 30
0.0
 11
90.46271807965757
 21
58.60245423366332
 31
0.0
  0
LINE
  5
914
330
6F
100
AcDbEntity
  8
0
 62
     0
100
AcDbLine
 10
90.46271807965757
 20
58.60245423366332
 30
0.0
 11
91.26211807965757
 21
58.60245423366332
 31
0.0
  0
LINE
  5
915
330
6F
100
AcDbEntity
  8
0
 62
     0
100
AcDbLine
 10
91.26211807965757
 20
58.60245423366332
 30
0.0
 11
91.26211807965757
 21
71.40305423366331
 31
0.0
  0
LINE
  5
916
330
6F
100
AcDbEntity
  8
0
 62
     0
100
AcDbLine
 10
91.26211807965757
 20
71.40305423366331
 30
0.0
 11
90.46271807965757
 21
71.40305423366331
 31
0.0
  0
LINE
  5
917
330
6F
100
AcDbEntity
  8
0
 62
     0
100
AcDbLine
 10
90.46271807965757
 20
71.40305423366331
 30
0.0
 11
90.46271807965757
 21
72.00245423366331
 31
0.0
  0
LINE
  5
918
330
6F
100
AcDbEntity
  8
0
 62
     0
100
AcDbLine
 10
90.46271807965757
 20
72.00245423366331
 30
0.0
 11
76.46341807965756
 21
72.00245423366331
 31
0.0
  0
LINE
  5
919
330
6F
100
AcDbEntity
  8
0
 62
     0
100
AcDbLine
 10
57.41341807965756
 20
72.00245423366331
 30
0.0
 11
57.41341807965756
 21
71.40305423366331
 31
0.0
  0
LINE
  5
91A
330
6F
100
AcDbEntity
  8
0
 62
     0
100
AcDbLine
 10
57.41341807965756
 20
71.40305423366331
 30
0.0
 11
56.61261807965756
 21
71.40305423366331
 31
0.0
  0
LINE
  5
91B
330
6F
100
AcDbEntity
  8
0
 62
     0
100
AcDbLine
 10
56.61261807965756
 20
71.40305423366331
 30
0.0
 11
56.61261807965756
 21
58.60245423366332
 31
0.0
  0
LINE
  5
91C
330
6F
100
AcDbEntity
  8
0
 62
     0
100
AcDbLine
 10
56.61261807965756
 20
58.60245423366332
 30
0.0
 11
57.41341807965756
 21
58.60245423366332
 31
0.0
  0
LINE
  5
91D
330
6F
100
AcDbEntity
  8
0
 62
     0
100
AcDbLine
 10
57.41341807965756
 20
58.60245423366332
 30
0.0
 11
57.41341807965756
 21
58.00315423366331
 31
0.0
  0
LINE
  5
91E
330
6F
100
AcDbEntity
  8
0
 62
     0
100
AcDbLine
 10
57.41341807965756
 20
58.00315423366331
 30
0.0
 11
71.41271807965755
 21
58.00315423366331
 31
0.0
  0
LINE
  5
91F
330
6F
100
AcDbEntity
  8
0
 62
     0
100
AcDbLine
 10
71.41271807965755
 20
58.00315423366331
 30
0.0
 11
71.41271807965755
 21
58.60245423366332
 31
0.0
  0
LINE
  5
920
330
6F
100
AcDbEntity
  8
0
 62
     0
100
AcDbLine
 10
71.41271807965755
 20
58.60245423366332
 30
0.0
 11
72.21351807965756
 21
58.60245423366332
 31
0.0
  0
LINE
  5
921
330
6F
100
AcDbEntity
  8
0
 62
     0
100
AcDbLine
 10
72.21351807965756
 20
58.60245423366332
 30
0.0
 11
72.21351807965756
 21
71.40305423366331
 31
0.0
  0
LINE
  5
922
330
6F
100
AcDbEntity
  8
0
 62
     0
100
AcDbLine
 10
72.21351807965756
 20
71.40305423366331
 30
0.0
 11
71.41271807965755
 21
71.40305423366331
 31
0.0
  0
LINE
  5
923
330
6F
100
AcDbEntity
  8
0
 62
     0
100
AcDbLine
 10
71.41271807965755
 20
71.40305423366331
 30
0.0
 11
71.41271807965755
 21
72.00245423366331
 31
0.0
  0
LINE
  5
924
330
6F
100
AcDbEntity
  8
0
 62
     0
100
AcDbLine
 10
71.41271807965755
 20
72.00245423366331
 30
0.0
 11
57.41341807965756
 21
72.00245423366331
 31
0.0
  0
LINE
  5
925
330
6F
100
AcDbEntity
  8
0
 62
     0
100
AcDbLine
 10
38.36341807965757
 20
72.00245423366331
 30
0.0
 11
38.36341807965757
 21
71.40305423366331
 31
0.0
  0
LINE
  5
926
330
6F
100
AcDbEntity
  8
0
 62
     0
100
AcDbLine
 10
38.36341807965757
 20
71.40305423366331
 30
0.0
 11
37.56261807965756
 21
71.40305423366331
 31
0.0
  0
LINE
  5
927
330
6F
100
AcDbEntity
  8
0
 62
     0
100
AcDbLine
 10
37.56261807965756
 20
71.40305423366331
 30
0.0
 11
37.56261807965756
 21
58.60245423366332
 31
0.0
  0
LINE
  5
928
330
6F
100
AcDbEntity
  8
0
 62
     0
100
AcDbLine
 10
37.56261807965756
 20
58.60245423366332
 30
0.0
 11
38.36341807965757
 21
58.60245423366332
 31
0.0
  0
LINE
  5
929
330
6F
100
AcDbEntity
  8
0
 62
     0
100
AcDbLine
 10
38.36341807965757
 20
58.60245423366332
 30
0.0
 11
38.36341807965757
 21
58.00315423366331
 31
0.0
  0
LINE
  5
92A
330
6F
100
AcDbEntity
  8
0
 62
     0
100
AcDbLine
 10
38.36341807965757
 20
58.00315423366331
 30
0.0
 11
52.36271807965755
 21
58.00315423366331
 31
0.0
  0
LINE
  5
92B
330
6F
100
AcDbEntity
  8
0
 62
     0
100
AcDbLine
 10
52.36271807965755
 20
58.00315423366331
 30
0.0
 11
52.36271807965755
 21
58.60245423366332
 31
0.0
  0
LINE
  5
92C
330
6F
100
AcDbEntity
  8
0
 62
     0
100
AcDbLine
 10
52.36271807965755
 20
58.60245423366332
 30
0.0
 11
53.16351807965755
 21
58.60245423366332
 31
0.0
  0
LINE
  5
92D
330
6F
100
AcDbEntity
  8
0
 62
     0
100
AcDbLine
 10
53.16351807965755
 20
58.60245423366332
 30
0.0
 11
53.16351807965755
 21
71.40305423366331
 31
0.0
  0
LINE
  5
92E
330
6F
100
AcDbEntity
  8
0
 62
     0
100
AcDbLine
 10
53.16351807965755
 20
71.40305423366331
 30
0.0
 11
52.36271807965755
 21
71.40305423366331
 31
0.0
  0
LINE
  5
92F
330
6F
100
AcDbEntity
  8
0
 62
     0
100
AcDbLine
 10
52.36271807965755
 20
71.40305423366331
 30
0.0
 11
52.36271807965755
 21
72.00245423366331
 31
0.0
  0
LINE
  5
930
330
6F
100
AcDbEntity
  8
0
 62
     0
100
AcDbLine
 10
52.36271807965755
 20
72.00245423366331
 30
0.0
 11
38.36341807965757
 21
72.00245423366331
 31
0.0
  0
LINE
  5
931
330
6F
100
AcDbEntity
  8
0
 62
     0
100
AcDbLine
 10
19.31341807965756
 20
72.00245423366331
 30
0.0
 11
19.31341807965756
 21
71.40305423366331
 31
0.0
  0
LINE
  5
932
330
6F
100
AcDbEntity
  8
0
 62
     0
100
AcDbLine
 10
19.31341807965756
 20
71.40305423366331
 30
0.0
 11
18.51271807965756
 21
71.40305423366331
 31
0.0
  0
LINE
  5
933
330
6F
100
AcDbEntity
  8
0
 62
     0
100
AcDbLine
 10
18.51271807965756
 20
71.40305423366331
 30
0.0
 11
18.51271807965756
 21
58.60245423366332
 31
0.0
  0
LINE
  5
934
330
6F
100
AcDbEntity
  8
0
 62
     0
100
AcDbLine
 10
18.51271807965756
 20
58.60245423366332
 30
0.0
 11
19.31341807965756
 21
58.60245423366332
 31
0.0
  0
LINE
  5
935
330
6F
100
AcDbEntity
  8
0
 62
     0
100
AcDbLine
 10
19.31341807965756
 20
58.60245423366332
 30
0.0
 11
19.31341807965756
 21
58.00315423366331
 31
0.0
  0
LINE
  5
936
330
6F
100
AcDbEntity
  8
0
 62
     0
100
AcDbLine
 10
19.31341807965756
 20
58.00315423366331
 30
0.0
 11
33.31271807965757
 21
58.00315423366331
 31
0.0
  0
LINE
  5
937
330
6F
100
AcDbEntity
  8
0
 62
     0
100
AcDbLine
 10
33.31271807965757
 20
58.00315423366331
 30
0.0
 11
33.31271807965757
 21
58.60245423366332
 31
0.0
  0
LINE
  5
938
330
6F
100
AcDbEntity
  8
0
 62
     0
100
AcDbLine
 10
33.31271807965757
 20
58.60245423366332
 30
0.0
 11
34.11351807965756
 21
58.60245423366332
 31
0.0
  0
LINE
  5
939
330
6F
100
AcDbEntity
  8
0
 62
     0
100
AcDbLine
 10
34.11351807965756
 20
58.60245423366332
 30
0.0
 11
34.11351807965756
 21
71.40305423366331
 31
0.0
  0
LINE
  5
93A
330
6F
100
AcDbEntity
  8
0
 62
     0
100
AcDbLine
 10
34.11351807965756
 20
71.40305423366331
 30
0.0
 11
33.31271807965757
 21
71.40305423366331
 31
0.0
  0
LINE
  5
93B
330
6F
100
AcDbEntity
  8
0
 62
     0
100
AcDbLine
 10
33.31271807965757
 20
71.40305423366331
 30
0.0
 11
33.31271807965757
 21
72.00245423366331
 31
0.0
  0
LINE
  5
93C
330
6F
100
AcDbEntity
  8
0
 62
     0
100
AcDbLine
 10
33.31271807965757
 20
72.00245423366331
 30
0.0
 11
19.31341807965756
 21
72.00245423366331
 31
0.0
  0
LINE
  5
93D
330
6F
100
AcDbEntity
  8
0
 62
     0
100
AcDbLine
 10
0.2633680796575604
 20
72.00245423366331
 30
0.0
 11
0.2633680796575604
 21
71.40305423366331
 31
0.0
  0
LINE
  5
93E
330
6F
100
AcDbEntity
  8
0
 62
     0
100
AcDbLine
 10
0.2633680796575604
 20
71.40305423366331
 30
0.0
 11
-0.5372719203424392
 21
71.40305423366331
 31
0.0
  0
LINE
  5
93F
330
6F
100
AcDbEntity
  8
0
 62
     0
100
AcDbLine
 10
-0.5372719203424392
 20
71.40305423366331
 30
0.0
 11
-0.5372719203424392
 21
58.60245423366332
 31
0.0
  0
LINE
  5
940
330
6F
100
AcDbEntity
  8
0
 62
     0
100
AcDbLine
 10
-0.5372719203424392
 20
58.60245423366332
 30
0.0
 11
0.2633680796575604
 21
58.60245423366332
 31
0.0
  0
LINE
  5
941
330
6F
100
AcDbEntity
  8
0
 62
     0
100
AcDbLine
 10
0.2633680796575604
 20
58.60245423366332
 30
0.0
 11
0.2633680796575604
 21
58.00315423366331
 31
0.0
  0
LINE
  5
942
330
6F
100
AcDbEntity
  8
0
 62
     0
100
AcDbLine
 10
0.2633680796575604
 20
58.00315423366331
 30
0.0
 11
14.26291807965756
 21
58.00315423366331
 31
0.0
  0
LINE
  5
943
330
6F
100
AcDbEntity
  8
0
 62
     0
100
AcDbLine
 10
14.26291807965756
 20
58.00315423366331
 30
0.0
 11
14.26291807965756
 21
58.60245423366332
 31
0.0
  0
LINE
  5
944
330
6F
100
AcDbEntity
  8
0
 62
     0
100
AcDbLine
 10
14.26291807965756
 20
58.60245423366332
 30
0.0
 11
15.06351807965756
 21
58.60245423366332
 31
0.0
  0
LINE
  5
945
330
6F
100
AcDbEntity
  8
0
 62
     0
100
AcDbLine
 10
15.06351807965756
 20
58.60245423366332
 30
0.0
 11
15.06351807965756
 21
71.40305423366331
 31
0.0
  0
LINE
  5
946
330
6F
100
AcDbEntity
  8
0
 62
     0
100
AcDbLine
 10
15.06351807965756
 20
71.40305423366331
 30
0.0
 11
14.26291807965756
 21
71.40305423366331
 31
0.0
  0
LINE
  5
947
330
6F
100
AcDbEntity
  8
0
 62
     0
100
AcDbLine
 10
14.26291807965756
 20
71.40305423366331
 30
0.0
 11
14.26291807965756
 21
72.00245423366331
 31
0.0
  0
LINE
  5
948
330
6F
100
AcDbEntity
  8
0
 62
     0
100
AcDbLine
 10
14.26291807965756
 20
72.00245423366331
 30
0.0
 11
0.2633680796575604
 21
72.00245423366331
 31
0.0
  0
LINE
  5
949
330
6F
100
AcDbEntity
  8
0
 62
     0
100
AcDbLine
 10
76.46341807965756
 20
91.05245423366332
 30
0.0
 11
76.46341807965756
 21
90.45305423366331
 31
0.0
  0
LINE
  5
94A
330
6F
100
AcDbEntity
  8
0
 62
     0
100
AcDbLine
 10
76.46341807965756
 20
90.45305423366331
 30
0.0
 11
75.66261807965756
 21
90.45305423366331
 31
0.0
  0
LINE
  5
94B
330
6F
100
AcDbEntity
  8
0
 62
     0
100
AcDbLine
 10
75.66261807965756
 20
90.45305423366331
 30
0.0
 11
75.66261807965756
 21
77.65245423366332
 31
0.0
  0
LINE
  5
94C
330
6F
100
AcDbEntity
  8
0
 62
     0
100
AcDbLine
 10
75.66261807965756
 20
77.65245423366332
 30
0.0
 11
76.46341807965756
 21
77.65245423366332
 31
0.0
  0
LINE
  5
94D
330
6F
100
AcDbEntity
  8
0
 62
     0
100
AcDbLine
 10
76.46341807965756
 20
77.65245423366332
 30
0.0
 11
76.46341807965756
 21
77.05315423366332
 31
0.0
  0
LINE
  5
94E
330
6F
100
AcDbEntity
  8
0
 62
     0
100
AcDbLine
 10
76.46341807965756
 20
77.05315423366332
 30
0.0
 11
90.46271807965757
 21
77.05315423366332
 31
0.0
  0
LINE
  5
94F
330
6F
100
AcDbEntity
  8
0
 62
     0
100
AcDbLine
 10
90.46271807965757
 20
77.05315423366332
 30
0.0
 11
90.46271807965757
 21
77.65245423366332
 31
0.0
  0
LINE
  5
950
330
6F
100
AcDbEntity
  8
0
 62
     0
100
AcDbLine
 10
90.46271807965757
 20
77.65245423366332
 30
0.0
 11
91.26211807965757
 21
77.65245423366332
 31
0.0
  0
LINE
  5
951
330
6F
100
AcDbEntity
  8
0
 62
     0
100
AcDbLine
 10
91.26211807965757
 20
77.65245423366332
 30
0.0
 11
91.26211807965757
 21
90.45305423366331
 31
0.0
  0
LINE
  5
952
330
6F
100
AcDbEntity
  8
0
 62
     0
100
AcDbLine
 10
91.26211807965757
 20
90.45305423366331
 30
0.0
 11
90.46271807965757
 21
90.45305423366331
 31
0.0
  0
LINE
  5
953
330
6F
100
AcDbEntity
  8
0
 62
     0
100
AcDbLine
 10
90.46271807965757
 20
90.45305423366331
 30
0.0
 11
90.46271807965757
 21
91.05245423366332
 31
0.0
  0
LINE
  5
954
330
6F
100
AcDbEntity
  8
0
 62
     0
100
AcDbLine
 10
90.46271807965757
 20
91.05245423366332
 30
0.0
 11
76.46341807965756
 21
91.05245423366332
 31
0.0
  0
LINE
  5
955
330
6F
100
AcDbEntity
  8
0
 62
     0
100
AcDbLine
 10
57.41341807965756
 20
91.05245423366332
 30
0.0
 11
57.41341807965756
 21
90.45305423366331
 31
0.0
  0
LINE
  5
956
330
6F
100
AcDbEntity
  8
0
 62
     0
100
AcDbLine
 10
57.41341807965756
 20
90.45305423366331
 30
0.0
 11
56.61261807965756
 21
90.45305423366331
 31
0.0
  0
LINE
  5
957
330
6F
100
AcDbEntity
  8
0
 62
     0
100
AcDbLine
 10
56.61261807965756
 20
90.45305423366331
 30
0.0
 11
56.61261807965756
 21
77.65245423366332
 31
0.0
  0
LINE
  5
958
330
6F
100
AcDbEntity
  8
0
 62
     0
100
AcDbLine
 10
56.61261807965756
 20
77.65245423366332
 30
0.0
 11
57.41341807965756
 21
77.65245423366332
 31
0.0
  0
LINE
  5
959
330
6F
100
AcDbEntity
  8
0
 62
     0
100
AcDbLine
 10
57.41341807965756
 20
77.65245423366332
 30
0.0
 11
57.41341807965756
 21
77.05315423366332
 31
0.0
  0
LINE
  5
95A
330
6F
100
AcDbEntity
  8
0
 62
     0
100
AcDbLine
 10
57.41341807965756
 20
77.05315423366332
 30
0.0
 11
71.41271807965755
 21
77.05315423366332
 31
0.0
  0
LINE
  5
95B
330
6F
100
AcDbEntity
  8
0
 62
     0
100
AcDbLine
 10
71.41271807965755
 20
77.05315423366332
 30
0.0
 11
71.41271807965755
 21
77.65245423366332
 31
0.0
  0
LINE
  5
95C
330
6F
100
AcDbEntity
  8
0
 62
     0
100
AcDbLine
 10
71.41271807965755
 20
77.65245423366332
 30
0.0
 11
72.21351807965756
 21
77.65245423366332
 31
0.0
  0
LINE
  5
95D
330
6F
100
AcDbEntity
  8
0
 62
     0
100
AcDbLine
 10
72.21351807965756
 20
77.65245423366332
 30
0.0
 11
72.21351807965756
 21
90.45305423366331
 31
0.0
  0
LINE
  5
95E
330
6F
100
AcDbEntity
  8
0
 62
     0
100
AcDbLine
 10
72.21351807965756
 20
90.45305423366331
 30
0.0
 11
71.41271807965755
 21
90.45305423366331
 31
0.0
  0
LINE
  5
95F
330
6F
100
AcDbEntity
  8
0
 62
     0
100
AcDbLine
 10
71.41271807965755
 20
90.45305423366331
 30
0.0
 11
71.41271807965755
 21
91.05245423366332
 31
0.0
  0
LINE
  5
960
330
6F
100
AcDbEntity
  8
0
 62
     0
100
AcDbLine
 10
71.41271807965755
 20
91.05245423366332
 30
0.0
 11
57.41341807965756
 21
91.05245423366332
 31
0.0
  0
LINE
  5
961
330
6F
100
AcDbEntity
  8
0
 62
     0
100
AcDbLine
 10
38.36341807965757
 20
91.05245423366332
 30
0.0
 11
38.36341807965757
 21
90.45305423366331
 31
0.0
  0
LINE
  5
962
330
6F
100
AcDbEntity
  8
0
 62
     0
100
AcDbLine
 10
38.36341807965757
 20
90.45305423366331
 30
0.0
 11
37.56261807965756
 21
90.45305423366331
 31
0.0
  0
LINE
  5
963
330
6F
100
AcDbEntity
  8
0
 62
     0
100
AcDbLine
 10
37.56261807965756
 20
90.45305423366331
 30
0.0
 11
37.56261807965756
 21
77.65245423366332
 31
0.0
  0
LINE
  5
964
330
6F
100
AcDbEntity
  8
0
 62
     0
100
AcDbLine
 10
37.56261807965756
 20
77.65245423366332
 30
0.0
 11
38.36341807965757
 21
77.65245423366332
 31
0.0
  0
LINE
  5
965
330
6F
100
AcDbEntity
  8
0
 62
     0
100
AcDbLine
 10
38.36341807965757
 20
77.65245423366332
 30
0.0
 11
38.36341807965757
 21
77.05315423366332
 31
0.0
  0
LINE
  5
966
330
6F
100
AcDbEntity
  8
0
 62
     0
100
AcDbLine
 10
38.36341807965757
 20
77.05315423366332
 30
0.0
 11
52.36271807965755
 21
77.05315423366332
 31
0.0
  0
LINE
  5
967
330
6F
100
AcDbEntity
  8
0
 62
     0
100
AcDbLine
 10
52.36271807965755
 20
77.05315423366332
 30
0.0
 11
52.36271807965755
 21
77.65245423366332
 31
0.0
  0
LINE
  5
968
330
6F
100
AcDbEntity
  8
0
 62
     0
100
AcDbLine
 10
52.36271807965755
 20
77.65245423366332
 30
0.0
 11
53.16351807965755
 21
77.65245423366332
 31
0.0
  0
LINE
  5
969
330
6F
100
AcDbEntity
  8
0
 62
     0
100
AcDbLine
 10
53.16351807965755
 20
77.65245423366332
 30
0.0
 11
53.16351807965755
 21
90.45305423366331
 31
0.0
  0
LINE
  5
96A
330
6F
100
AcDbEntity
  8
0
 62
     0
100
AcDbLine
 10
53.16351807965755
 20
90.45305423366331
 30
0.0
 11
52.36271807965755
 21
90.45305423366331
 31
0.0
  0
LINE
  5
96B
330
6F
100
AcDbEntity
  8
0
 62
     0
100
AcDbLine
 10
52.36271807965755
 20
90.45305423366331
 30
0.0
 11
52.36271807965755
 21
91.05245423366332
 31
0.0
  0
LINE
  5
96C
330
6F
100
AcDbEntity
  8
0
 62
     0
100
AcDbLine
 10
52.36271807965755
 20
91.05245423366332
 30
0.0
 11
38.36341807965757
 21
91.05245423366332
 31
0.0
  0
LINE
  5
96D
330
6F
100
AcDbEntity
  8
0
 62
     0
100
AcDbLine
 10
19.31341807965756
 20
91.05245423366332
 30
0.0
 11
19.31341807965756
 21
90.45305423366331
 31
0.0
  0
LINE
  5
96E
330
6F
100
AcDbEntity
  8
0
 62
     0
100
AcDbLine
 10
19.31341807965756
 20
90.45305423366331
 30
0.0
 11
18.51271807965756
 21
90.45305423366331
 31
0.0
  0
LINE
  5
96F
330
6F
100
AcDbEntity
  8
0
 62
     0
100
AcDbLine
 10
18.51271807965756
 20
90.45305423366331
 30
0.0
 11
18.51271807965756
 21
77.65245423366332
 31
0.0
  0
LINE
  5
970
330
6F
100
AcDbEntity
  8
0
 62
     0
100
AcDbLine
 10
18.51271807965756
 20
77.65245423366332
 30
0.0
 11
19.31341807965756
 21
77.65245423366332
 31
0.0
  0
LINE
  5
971
330
6F
100
AcDbEntity
  8
0
 62
     0
100
AcDbLine
 10
19.31341807965756
 20
77.65245423366332
 30
0.0
 11
19.31341807965756
 21
77.05315423366332
 31
0.0
  0
LINE
  5
972
330
6F
100
AcDbEntity
  8
0
 62
     0
100
AcDbLine
 10
19.31341807965756
 20
77.05315423366332
 30
0.0
 11
33.31271807965757
 21
77.05315423366332
 31
0.0
  0
LINE
  5
973
330
6F
100
AcDbEntity
  8
0
 62
     0
100
AcDbLine
 10
33.31271807965757
 20
77.05315423366332
 30
0.0
 11
33.31271807965757
 21
77.65245423366332
 31
0.0
  0
LINE
  5
974
330
6F
100
AcDbEntity
  8
0
 62
     0
100
AcDbLine
 10
33.31271807965757
 20
77.65245423366332
 30
0.0
 11
34.11351807965756
 21
77.65245423366332
 31
0.0
  0
LINE
  5
975
330
6F
100
AcDbEntity
  8
0
 62
     0
100
AcDbLine
 10
34.11351807965756
 20
77.65245423366332
 30
0.0
 11
34.11351807965756
 21
90.45305423366331
 31
0.0
  0
LINE
  5
976
330
6F
100
AcDbEntity
  8
0
 62
     0
100
AcDbLine
 10
34.11351807965756
 20
90.45305423366331
 30
0.0
 11
33.31271807965757
 21
90.45305423366331
 31
0.0
  0
LINE
  5
977
330
6F
100
AcDbEntity
  8
0
 62
     0
100
AcDbLine
 10
33.31271807965757
 20
90.45305423366331
 30
0.0
 11
33.31271807965757
 21
91.05245423366332
 31
0.0
  0
LINE
  5
978
330
6F
100
AcDbEntity
  8
0
 62
     0
100
AcDbLine
 10
33.31271807965757
 20
91.05245423366332
 30
0.0
 11
19.31341807965756
 21
91.05245423366332
 31
0.0
  0
LINE
  5
979
330
6F
100
AcDbEntity
  8
0
 62
     0
100
AcDbLine
 10
0.2633680796575604
 20
91.05245423366332
 30
0.0
 11
0.2633680796575604
 21
90.45305423366331
 31
0.0
  0
LINE
  5
97A
330
6F
100
AcDbEntity
  8
0
 62
     0
100
AcDbLine
 10
0.2633680796575604
 20
90.45305423366331
 30
0.0
 11
-0.5372719203424392
 21
90.45305423366331
 31
0.0
  0
LINE
  5
97B
330
6F
100
AcDbEntity
  8
0
 62
     0
100
AcDbLine
 10
-0.5372719203424392
 20
90.45305423366331
 30
0.0
 11
-0.5372719203424392
 21
77.65245423366332
 31
0.0
  0
LINE
  5
97C
330
6F
100
AcDbEntity
  8
0
 62
     0
100
AcDbLine
 10
-0.5372719203424392
 20
77.65245423366332
 30
0.0
 11
0.2633680796575604
 21
77.65245423366332
 31
0.0
  0
LINE
  5
97D
330
6F
100
AcDbEntity
  8
0
 62
     0
100
AcDbLine
 10
0.2633680796575604
 20
77.65245423366332
 30
0.0
 11
0.2633680796575604
 21
77.05315423366332
 31
0.0
  0
LINE
  5
97E
330
6F
100
AcDbEntity
  8
0
 62
     0
100
AcDbLine
 10
0.2633680796575604
 20
77.05315423366332
 30
0.0
 11
14.26291807965756
 21
77.05315423366332
 31
0.0
  0
LINE
  5
97F
330
6F
100
AcDbEntity
  8
0
 62
     0
100
AcDbLine
 10
14.26291807965756
 20
77.05315423366332
 30
0.0
 11
14.26291807965756
 21
77.65245423366332
 31
0.0
  0
LINE
  5
980
330
6F
100
AcDbEntity
  8
0
 62
     0
100
AcDbLine
 10
14.26291807965756
 20
77.65245423366332
 30
0.0
 11
15.06351807965756
 21
77.65245423366332
 31
0.0
  0
LINE
  5
981
330
6F
100
AcDbEntity
  8
0
 62
     0
100
AcDbLine
 10
15.06351807965756
 20
77.65245423366332
 30
0.0
 11
15.06351807965756
 21
90.45305423366331
 31
0.0
  0
LINE
  5
982
330
6F
100
AcDbEntity
  8
0
 62
     0
100
AcDbLine
 10
15.06351807965756
 20
90.45305423366331
 30
0.0
 11
14.26291807965756
 21
90.45305423366331
 31
0.0
  0
LINE
  5
983
330
6F
100
AcDbEntity
  8
0
 62
     0
100
AcDbLine
 10
14.26291807965756
 20
90.45305423366331
 30
0.0
 11
14.26291807965756
 21
91.05245423366332
 31
0.0
  0
LINE
  5
989
330
6F
100
AcDbEntity
  8
0
  6
Continuous
100
AcDbLine
 10
0.2633680796575604
 20
91.05245423366332
 30
0.0
 11
14.26291807965756
 21
91.05245423366332
 31
0.0
  0
LINE
  5
98C
330
6F
100
AcDbEntity
  8
0
  6
Continuous
100
AcDbLine
 10
94.31220827716074
 20
36.90245423366332
 30
0.0
 11
94.29936315215462
 21
51.26194202036122
 31
0.0
  0
LINE
  5
98D
330
6F
100
AcDbEntity
  8
0
  6
Continuous
100
AcDbLine
 10
94.29936315215462
 20
51.26194202036122
 30
0.0
 11
94.31220827716074
 21
36.90245423366331
 31
0.0
  0
LINE
  5
994
330
6F
100
AcDbEntity
  8
0
  6
Continuous
100
AcDbLine
 10
80.42511807965757
 20
16.90299423366332
 30
0.0
 11
96.02461807965756
 21
16.90299423366332
 31
0.0
  0
LINE
  5
996
330
6F
100
AcDbEntity
  8
0
  6
Continuous
100
AcDbLine
 10
77.42511807965758
 20
31.24678997957116
 30
0.0
 11
-0.4840020726495509
 21
31.17709721598931
 31
0.0
  0
LINE
  5
997
330
6F
100
AcDbEntity
  8
0
  6
Continuous
100
AcDbLine
 10
94.31220827716074
 20
36.90245423366332
 30
0.0
 11
96.02461807965756
 21
36.90245423366332
 31
0.0
  0
LINE
  5
998
330
6F
100
AcDbEntity
  8
0
  6
Continuous
100
AcDbLine
 10
99.02461807965757
 20
19.90299423366332
 30
0.0
 11
99.02461807965757
 21
33.90245423366332
 31
0.0
  0
LINE
  5
999
330
6F
100
AcDbEntity
  8
0
  6
Continuous
100
AcDbLine
 10
77.42511807965758
 20
31.24678997957116
 30
0.0
 11
77.42511807965758
 21
19.90299423366332
 31
0.0
  0
ARC
  5
99A
330
6F
100
AcDbEntity
  8
0
  6
Continuous
100
AcDbCircle
 10
80.42511807965757
 20
19.90299423366332
 30
0.0
 40
3.0
100
AcDbArc
 50
180.0
 51
270.0
  0
ARC
  5
99B
330
6F
100
AcDbEntity
  8
0
  6
Continuous
100
AcDbCircle
 10
96.02461807965756
 20
19.90299423366332
 30
0.0
 40
3.0
100
AcDbArc
 50
270.0
 51
0.0
  0
ARC
  5
99C
330
6F
100
AcDbEntity
  8
0
  6
Continuous
100
AcDbCircle
 10
96.02461807965756
 20
33.90245423366332
 30
0.0
 40
3.0
100
AcDbArc
 50
0.0
 51
90.0
  0
LINE
  5
99D
330
6F
100
AcDbEntity
  8
0
  6
Continuous
100
AcDbLine
 10
-98.34147187909634
 20
93.9514205780336
 30
0.0
 11
-6.540214156449324
 21
94.03300812951737
 31
0.0
  0
ARC
  5
99E
330
6F
100
AcDbEntity
  8
0
  6
Continuous
100
AcDbCircle
 10
-6.537547934178953
 20
91.03300931430778
 30
0.0
 40
3.0
100
AcDbArc
 50
0.0512533082514628
 51
90.0509211011486
  0
ARC
  5
99F
330
6F
100
AcDbEntity
  8
0
  6
Continuous
100
AcDbCircle
 10
-98.33880565682596
 20
90.95142176282399
 30
0.0
 40
3.0
100
AcDbArc
 50
90.0509211011486
 51
180.0512533082516
  0
LINE
  5
9A0
330
6F
100
AcDbEntity
  8
0
  6
Continuous
100
AcDbLine
 10
-101.338804456526
 20
90.9487381462373
 30
0.0
 11
-101.3031465396603
 21
51.08696790388589
 31
0.0
  0
LINE
  5
9A1
330
6F
100
AcDbEntity
  8
0
  6
Continuous
100
AcDbLine
 10
-84.39311982435684
 20
31.10203721923358
 30
0.0
 11
-6.48399967204972
 21
31.17172998281596
 31
0.0
  0
ARC
  5
9A2
330
6F
100
AcDbEntity
  8
0
  6
Continuous
100
AcDbCircle
 10
-6.486683288636408
 20
34.17172878251609
 30
0.0
 40
3.0
100
AcDbArc
 50
270.0512533082516
 51
0.0512533082514628
  0
LINE
  5
9A3
330
6F
100
AcDbEntity
  8
0
 62
     0
100
AcDbLine
 10
-88.19866492941788
 20
33.75089729930741
 30
0.0
 11
-88.19759255665889
 21
33.1514982585869
 31
0.0
  0
LINE
  5
9A4
330
6F
100
AcDbEntity
  8
0
 62
     0
100
AcDbLine
 10
-88.19759255665889
 20
33.1514982585869
 30
0.0
 11
-87.39679383825887
 21
33.15293095145542
 31
0.0
  0
LINE
  5
9A5
330
6F
100
AcDbEntity
  8
0
 62
     0
100
AcDbLine
 10
-87.39679383825887
 20
33.15293095145542
 30
0.0
 11
-87.37389254332052
 21
20.35233143756194
 31
0.0
  0
LINE
  5
9A6
330
6F
100
AcDbEntity
  8
0
 62
     0
100
AcDbLine
 10
-87.37389254332052
 20
20.35233143756194
 30
0.0
 11
-88.17469126172055
 21
20.35089874469342
 31
0.0
  0
LINE
  5
9A7
330
6F
100
AcDbEntity
  8
0
 62
     0
100
AcDbLine
 10
-88.17469126172055
 20
20.35089874469342
 30
0.0
 11
-88.17361881739847
 21
19.75145970403693
 31
0.0
  0
LINE
  5
9A8
330
6F
100
AcDbEntity
  8
0
 62
     0
100
AcDbLine
 10
-88.17361881739847
 20
19.75145970403693
 30
0.0
 11
-102.172896412925
 21
19.72641387826985
 31
0.0
  0
LINE
  5
9A9
330
6F
100
AcDbEntity
  8
0
 62
     0
100
AcDbLine
 10
-102.172896412925
 20
19.72641387826985
 30
0.0
 11
-102.1739688572471
 21
20.32585291892635
 31
0.0
  0
LINE
  5
9AA
330
6F
100
AcDbEntity
  8
0
 62
     0
100
AcDbLine
 10
-102.1739688572471
 20
20.32585291892635
 30
0.0
 11
-102.9733675778877
 21
20.32442273076564
 31
0.0
  0
LINE
  5
9AB
330
6F
100
AcDbEntity
  8
0
 62
     0
100
AcDbLine
 10
-102.9733675778877
 20
20.32442273076564
 30
0.0
 11
-102.996268872826
 21
33.12502224465912
 31
0.0
  0
LINE
  5
9AC
330
6F
100
AcDbEntity
  8
0
 62
     0
100
AcDbLine
 10
-102.996268872826
 20
33.12502224465912
 30
0.0
 11
-102.1968701521854
 21
33.12645243281983
 31
0.0
  0
LINE
  5
9AD
330
6F
100
AcDbEntity
  8
0
 62
     0
100
AcDbLine
 10
-102.1968701521854
 20
33.12645243281983
 30
0.0
 11
-102.1979425249444
 21
33.72585147354034
 31
0.0
  0
LINE
  5
9AE
330
6F
100
AcDbEntity
  8
0
 62
     0
100
AcDbLine
 10
-102.1979425249444
 20
33.72585147354034
 30
0.0
 11
-88.19866492941788
 21
33.75089729930741
 31
0.0
  0
LINE
  5
9AF
330
6F
100
AcDbEntity
  8
0
 62
     0
100
AcDbLine
 10
-83.47025428942766
 20
52.80928729110963
 30
0.0
 11
-83.46918209557637
 21
52.20998825022908
 31
0.0
  0
LINE
  5
9B0
330
6F
100
AcDbEntity
  8
0
 62
     0
100
AcDbLine
 10
-83.46918209557637
 20
52.20998825022908
 30
0.0
 11
-82.66838337717635
 21
52.2114209430976
 31
0.0
  0
LINE
  5
9B1
330
6F
100
AcDbEntity
  8
0
 62
     0
100
AcDbLine
 10
-82.66838337717635
 20
52.2114209430976
 30
0.0
 11
-82.64548211801953
 21
39.41084142917211
 31
0.0
  0
LINE
  5
9B2
330
6F
100
AcDbEntity
  8
0
 62
     0
100
AcDbLine
 10
-82.64548211801953
 20
39.41084142917211
 30
0.0
 11
-83.44628083641955
 21
39.40940873630359
 31
0.0
  0
LINE
  5
9B3
330
6F
100
AcDbEntity
  8
0
 62
     0
100
AcDbLine
 10
-83.44628083641955
 20
39.40940873630359
 30
0.0
 11
-83.44520828475287
 21
38.80990969574312
 31
0.0
  0
LINE
  5
9B4
330
6F
100
AcDbEntity
  8
0
 62
     0
100
AcDbLine
 10
-83.44520828475287
 20
38.80990969574312
 30
0.0
 11
-97.44448588027946
 21
38.78486386997605
 31
0.0
  0
LINE
  5
9B5
330
6F
100
AcDbEntity
  8
0
 62
     0
100
AcDbLine
 10
-97.44448588027946
 20
38.78486386997605
 30
0.0
 11
-97.44555843194614
 21
39.38436291053652
 31
0.0
  0
LINE
  5
9B6
330
6F
100
AcDbEntity
  8
0
 62
     0
100
AcDbLine
 10
-97.44555843194614
 20
39.38436291053652
 30
0.0
 11
-98.24495715258672
 21
39.38293272237581
 31
0.0
  0
LINE
  5
9B7
330
6F
100
AcDbEntity
  8
0
 62
     0
100
AcDbLine
 10
-98.24495715258672
 20
39.38293272237581
 30
0.0
 11
-98.26785841174354
 21
52.1835122363013
 31
0.0
  0
LINE
  5
9B8
330
6F
100
AcDbEntity
  8
0
 62
     0
100
AcDbLine
 10
-98.26785841174354
 20
52.1835122363013
 30
0.0
 11
-97.46845969110296
 21
52.18494242446201
 31
0.0
  0
LINE
  5
9B9
330
6F
100
AcDbEntity
  8
0
 62
     0
100
AcDbLine
 10
-97.46845969110296
 20
52.18494242446201
 30
0.0
 11
-97.46953188495425
 21
52.78424146534256
 31
0.0
  0
LINE
  5
9BA
330
6F
100
AcDbEntity
  8
0
 62
     0
100
AcDbLine
 10
-97.46953188495425
 20
52.78424146534256
 30
0.0
 11
-83.47025428942766
 21
52.80928729110963
 31
0.0
  0
LINE
  5
9BB
330
6F
100
AcDbEntity
  8
0
 62
     0
100
AcDbLine
 10
-64.42028477703913
 20
52.84336920812425
 30
0.0
 11
-64.41921258318785
 21
52.2440701672437
 31
0.0
  0
LINE
  5
9BC
330
6F
100
AcDbEntity
  8
0
 62
     0
100
AcDbLine
 10
-64.41921258318785
 20
52.2440701672437
 30
0.0
 11
-63.61841386478781
 21
52.24550286011222
 31
0.0
  0
LINE
  5
9BD
330
6F
100
AcDbEntity
  8
0
 62
     0
100
AcDbLine
 10
-63.61841386478781
 20
52.24550286011222
 30
0.0
 11
-63.595512605631
 21
39.44492334618673
 31
0.0
  0
LINE
  5
9BE
330
6F
100
AcDbEntity
  8
0
 62
     0
100
AcDbLine
 10
-63.595512605631
 20
39.44492334618673
 30
0.0
 11
-64.39631132403103
 21
39.44349065331821
 31
0.0
  0
LINE
  5
9BF
330
6F
100
AcDbEntity
  8
0
 62
     0
100
AcDbLine
 10
-64.39631132403103
 20
39.44349065331821
 30
0.0
 11
-64.39523877236436
 21
38.84399161275774
 31
0.0
  0
LINE
  5
9C0
330
6F
100
AcDbEntity
  8
0
 62
     0
100
AcDbLine
 10
-64.39523877236436
 20
38.84399161275774
 30
0.0
 11
-78.3945163678909
 21
38.81894578699067
 31
0.0
  0
LINE
  5
9C1
330
6F
100
AcDbEntity
  8
0
 62
     0
100
AcDbLine
 10
-78.3945163678909
 20
38.81894578699067
 30
0.0
 11
-78.39558891955758
 21
39.41844482755114
 31
0.0
  0
LINE
  5
9C2
330
6F
100
AcDbEntity
  8
0
 62
     0
100
AcDbLine
 10
-78.39558891955758
 20
39.41844482755114
 30
0.0
 11
-79.19638763795763
 21
39.41701213468262
 31
0.0
  0
LINE
  5
9C3
330
6F
100
AcDbEntity
  8
0
 62
     0
100
AcDbLine
 10
-79.19638763795763
 20
39.41701213468262
 30
0.0
 11
-79.21928889711444
 21
52.2175916486081
 31
0.0
  0
LINE
  5
9C4
330
6F
100
AcDbEntity
  8
0
 62
     0
100
AcDbLine
 10
-79.21928889711444
 20
52.2175916486081
 30
0.0
 11
-78.41849017871439
 21
52.21902434147662
 31
0.0
  0
LINE
  5
9C5
330
6F
100
AcDbEntity
  8
0
 62
     0
100
AcDbLine
 10
-78.41849017871439
 20
52.21902434147662
 30
0.0
 11
-78.41956237256567
 21
52.81832338235718
 31
0.0
  0
LINE
  5
9C6
330
6F
100
AcDbEntity
  8
0
 62
     0
100
AcDbLine
 10
-78.41956237256567
 20
52.81832338235718
 30
0.0
 11
-64.42028477703913
 21
52.84336920812425
 31
0.0
  0
LINE
  5
9C7
330
6F
100
AcDbEntity
  8
0
 62
     0
100
AcDbLine
 10
-45.37031526465059
 20
52.87745112513887
 30
0.0
 11
-45.36924307079932
 21
52.27815208425831
 31
0.0
  0
LINE
  5
9C8
330
6F
100
AcDbEntity
  8
0
 62
     0
100
AcDbLine
 10
-45.36924307079932
 20
52.27815208425831
 30
0.0
 11
-44.56844435239928
 21
52.27958477712683
 31
0.0
  0
LINE
  5
9C9
330
6F
100
AcDbEntity
  8
0
 62
     0
100
AcDbLine
 10
-44.56844435239928
 20
52.27958477712683
 30
0.0
 11
-44.54554309324247
 21
39.47900526320135
 31
0.0
  0
LINE
  5
9CA
330
6F
100
AcDbEntity
  8
0
 62
     0
100
AcDbLine
 10
-44.54554309324247
 20
39.47900526320135
 30
0.0
 11
-45.3463418116425
 21
39.47757257033283
 31
0.0
  0
LINE
  5
9CB
330
6F
100
AcDbEntity
  8
0
 62
     0
100
AcDbLine
 10
-45.3463418116425
 20
39.47757257033283
 30
0.0
 11
-45.34526925997584
 21
38.87807352977236
 31
0.0
  0
LINE
  5
9CC
330
6F
100
AcDbEntity
  8
0
 62
     0
100
AcDbLine
 10
-45.34526925997584
 20
38.87807352977236
 30
0.0
 11
-59.34454685550237
 21
38.85302770400528
 31
0.0
  0
LINE
  5
9CD
330
6F
100
AcDbEntity
  8
0
 62
     0
100
AcDbLine
 10
-59.34454685550237
 20
38.85302770400528
 30
0.0
 11
-59.34561940716905
 21
39.45252674456575
 31
0.0
  0
LINE
  5
9CE
330
6F
100
AcDbEntity
  8
0
 62
     0
100
AcDbLine
 10
-59.34561940716905
 20
39.45252674456575
 30
0.0
 11
-60.14641812556908
 21
39.45109405169723
 31
0.0
  0
LINE
  5
9CF
330
6F
100
AcDbEntity
  8
0
 62
     0
100
AcDbLine
 10
-60.14641812556908
 20
39.45109405169723
 30
0.0
 11
-60.16931938472591
 21
52.25167356562272
 31
0.0
  0
LINE
  5
9D0
330
6F
100
AcDbEntity
  8
0
 62
     0
100
AcDbLine
 10
-60.16931938472591
 20
52.25167356562272
 30
0.0
 11
-59.36852066632586
 21
52.25310625849124
 31
0.0
  0
LINE
  5
9D1
330
6F
100
AcDbEntity
  8
0
 62
     0
100
AcDbLine
 10
-59.36852066632586
 20
52.25310625849124
 30
0.0
 11
-59.36959286017715
 21
52.8524052993718
 31
0.0
  0
LINE
  5
9D2
330
6F
100
AcDbEntity
  8
0
 62
     0
100
AcDbLine
 10
-59.36959286017715
 20
52.8524052993718
 30
0.0
 11
-45.37031526465059
 21
52.87745112513887
 31
0.0
  0
LINE
  5
9D3
330
6F
100
AcDbEntity
  8
0
 62
     0
100
AcDbLine
 10
-26.32034575226207
 20
52.91153304215349
 30
0.0
 11
-26.31927355841078
 21
52.31223400127293
 31
0.0
  0
LINE
  5
9D4
330
6F
100
AcDbEntity
  8
0
 62
     0
100
AcDbLine
 10
-26.31927355841078
 20
52.31223400127293
 30
0.0
 11
-25.51857483985071
 21
52.31366651523376
 31
0.0
  0
LINE
  5
9D5
330
6F
100
AcDbEntity
  8
0
 62
     0
100
AcDbLine
 10
-25.51857483985071
 20
52.31366651523376
 30
0.0
 11
-25.49567358069389
 21
39.51308700130827
 31
0.0
  0
LINE
  5
9D6
330
6F
100
AcDbEntity
  8
0
 62
     0
100
AcDbLine
 10
-25.49567358069389
 20
39.51308700130827
 30
0.0
 11
-26.29637229925397
 21
39.51165448734744
 31
0.0
  0
LINE
  5
9D7
330
6F
100
AcDbEntity
  8
0
 62
     0
100
AcDbLine
 10
-26.29637229925397
 20
39.51165448734744
 30
0.0
 11
-26.29529974758729
 21
38.91215544678697
 31
0.0
  0
LINE
  5
9D8
330
6F
100
AcDbEntity
  8
0
 62
     0
100
AcDbLine
 10
-26.29529974758729
 20
38.91215544678697
 30
0.0
 11
-40.29457734311385
 21
38.8871096210199
 31
0.0
  0
LINE
  5
9D9
330
6F
100
AcDbEntity
  8
0
 62
     0
100
AcDbLine
 10
-40.29457734311385
 20
38.8871096210199
 30
0.0
 11
-40.29564989478052
 21
39.48660866158037
 31
0.0
  0
LINE
  5
9DA
330
6F
100
AcDbEntity
  8
0
 62
     0
100
AcDbLine
 10
-40.29564989478052
 20
39.48660866158037
 30
0.0
 11
-41.09644861318055
 21
39.48517596871185
 31
0.0
  0
LINE
  5
9DB
330
6F
100
AcDbEntity
  8
0
 62
     0
100
AcDbLine
 10
-41.09644861318055
 20
39.48517596871185
 30
0.0
 11
-41.11934987233738
 21
52.28575548263734
 31
0.0
  0
LINE
  5
9DC
330
6F
100
AcDbEntity
  8
0
 62
     0
100
AcDbLine
 10
-41.11934987233738
 20
52.28575548263734
 30
0.0
 11
-40.31855115393734
 21
52.28718817550586
 31
0.0
  0
LINE
  5
9DD
330
6F
100
AcDbEntity
  8
0
 62
     0
100
AcDbLine
 10
-40.31855115393734
 20
52.28718817550586
 30
0.0
 11
-40.31962334778862
 21
52.88648721638641
 31
0.0
  0
LINE
  5
9DE
330
6F
100
AcDbEntity
  8
0
 62
     0
100
AcDbLine
 10
-40.31962334778862
 20
52.88648721638641
 30
0.0
 11
-26.32034575226207
 21
52.91153304215349
 31
0.0
  0
LINE
  5
9DF
330
6F
100
AcDbEntity
  8
0
 62
     0
100
AcDbLine
 10
-7.270326239953551
 20
52.94561504862195
 30
0.0
 11
-7.269254046102272
 21
52.3463160077414
 31
0.0
  0
LINE
  5
9E0
330
6F
100
AcDbEntity
  8
0
 62
     0
100
AcDbLine
 10
-7.269254046102272
 20
52.3463160077414
 30
0.0
 11
-6.468615327446169
 21
52.3477484143576
 31
0.0
  0
LINE
  5
9E1
330
6F
100
AcDbEntity
  8
0
 62
     0
100
AcDbLine
 10
-6.468615327446169
 20
52.3477484143576
 30
0.0
 11
-6.445714068289355
 21
39.54716890043211
 31
0.0
  0
LINE
  5
9E2
330
6F
100
AcDbEntity
  8
0
 62
     0
100
AcDbLine
 10
-6.445714068289355
 20
39.54716890043211
 30
0.0
 11
-7.246352786945458
 21
39.54573649381591
 31
0.0
  0
LINE
  5
9E3
330
6F
100
AcDbEntity
  8
0
 62
     0
100
AcDbLine
 10
-7.246352786945458
 20
39.54573649381591
 30
0.0
 11
-7.245280235278777
 21
38.94623745325544
 31
0.0
  0
LINE
  5
9E4
330
6F
100
AcDbEntity
  8
0
 62
     0
100
AcDbLine
 10
-7.245280235278777
 20
38.94623745325544
 30
0.0
 11
-21.24480783040523
 21
38.92119118021912
 31
0.0
  0
LINE
  5
9E5
330
6F
100
AcDbEntity
  8
0
 62
     0
100
AcDbLine
 10
-21.24480783040523
 20
38.92119118021912
 30
0.0
 11
-21.24588038207191
 21
39.52069022077959
 31
0.0
  0
LINE
  5
9E6
330
6F
100
AcDbEntity
  8
0
 62
     0
100
AcDbLine
 10
-21.24588038207191
 20
39.52069022077959
 30
0.0
 11
-22.04647910079203
 21
39.51925788572647
 31
0.0
  0
LINE
  5
9E7
330
6F
100
AcDbEntity
  8
0
 62
     0
100
AcDbLine
 10
-22.04647910079203
 20
39.51925788572647
 30
0.0
 11
-22.06938035994884
 21
52.31983739965196
 31
0.0
  0
LINE
  5
9E8
330
6F
100
AcDbEntity
  8
0
 62
     0
100
AcDbLine
 10
-22.06938035994884
 20
52.31983739965196
 30
0.0
 11
-21.26878164122873
 21
52.32126973470507
 31
0.0
  0
LINE
  5
9E9
330
6F
100
AcDbEntity
  8
0
 62
     0
100
AcDbLine
 10
-21.26878164122873
 20
52.32126973470507
 30
0.0
 11
-21.26985383508
 21
52.92056877558563
 31
0.0
  0
LINE
  5
9EA
330
6F
100
AcDbEntity
  8
0
 62
     0
100
AcDbLine
 10
-21.26985383508
 20
52.92056877558563
 30
0.0
 11
-7.270326239953551
 21
52.94561504862195
 31
0.0
  0
LINE
  5
9EB
330
6F
100
AcDbEntity
  8
0
 62
     0
100
AcDbLine
 10
-83.50433638534997
 20
71.85935680333813
 30
0.0
 11
-83.50326401259099
 21
71.25995776261762
 31
0.0
  0
LINE
  5
9EC
330
6F
100
AcDbEntity
  8
0
 62
     0
100
AcDbLine
 10
-83.50326401259099
 20
71.25995776261762
 30
0.0
 11
-82.70246529419095
 21
71.26139045548613
 31
0.0
  0
LINE
  5
9ED
330
6F
100
AcDbEntity
  8
0
 62
     0
100
AcDbLine
 10
-82.70246529419095
 20
71.26139045548613
 30
0.0
 11
-82.67956403503415
 21
58.46081094156065
 31
0.0
  0
LINE
  5
9EE
330
6F
100
AcDbEntity
  8
0
 62
     0
100
AcDbLine
 10
-82.67956403503415
 20
58.46081094156065
 30
0.0
 11
-83.48036275343417
 21
58.45937824869213
 31
0.0
  0
LINE
  5
9EF
330
6F
100
AcDbEntity
  8
0
 62
     0
100
AcDbLine
 10
-83.48036275343417
 20
58.45937824869213
 30
0.0
 11
-83.47929055958291
 21
57.86007920781157
 31
0.0
  0
LINE
  5
9F0
330
6F
100
AcDbEntity
  8
0
 62
     0
100
AcDbLine
 10
-83.47929055958291
 20
57.86007920781157
 30
0.0
 11
-97.47856815510949
 21
57.8350333820445
 31
0.0
  0
LINE
  5
9F1
330
6F
100
AcDbEntity
  8
0
 62
     0
100
AcDbLine
 10
-97.47856815510949
 20
57.8350333820445
 30
0.0
 11
-97.47964034896076
 21
58.43433242292505
 31
0.0
  0
LINE
  5
9F2
330
6F
100
AcDbEntity
  8
0
 62
     0
100
AcDbLine
 10
-97.47964034896076
 20
58.43433242292505
 30
0.0
 11
-98.27903906960134
 21
58.43290223476435
 31
0.0
  0
LINE
  5
9F3
330
6F
100
AcDbEntity
  8
0
 62
     0
100
AcDbLine
 10
-98.27903906960134
 20
58.43290223476435
 30
0.0
 11
-98.30194032875816
 21
71.23348174868983
 31
0.0
  0
LINE
  5
9F4
330
6F
100
AcDbEntity
  8
0
 62
     0
100
AcDbLine
 10
-98.30194032875816
 20
71.23348174868983
 30
0.0
 11
-97.50254160811756
 21
71.23491193685054
 31
0.0
  0
LINE
  5
9F5
330
6F
100
AcDbEntity
  8
0
 62
     0
100
AcDbLine
 10
-97.50254160811756
 20
71.23491193685054
 30
0.0
 11
-97.50361398087655
 21
71.83431097757105
 31
0.0
  0
LINE
  5
9F6
330
6F
100
AcDbEntity
  8
0
 62
     0
100
AcDbLine
 10
-97.50361398087655
 20
71.83431097757105
 30
0.0
 11
-83.50433638534997
 21
71.85935680333813
 31
0.0
  0
LINE
  5
9F7
330
6F
100
AcDbEntity
  8
0
 62
     0
100
AcDbLine
 10
-64.45436687296144
 20
71.89343872035275
 30
0.0
 11
-64.45329450020247
 21
71.29403967963224
 31
0.0
  0
LINE
  5
9F8
330
6F
100
AcDbEntity
  8
0
 62
     0
100
AcDbLine
 10
-64.45329450020247
 20
71.29403967963224
 30
0.0
 11
-63.65249578180243
 21
71.29547237250076
 31
0.0
  0
LINE
  5
9F9
330
6F
100
AcDbEntity
  8
0
 62
     0
100
AcDbLine
 10
-63.65249578180243
 20
71.29547237250076
 30
0.0
 11
-63.62959452264561
 21
58.49489285857526
 31
0.0
  0
LINE
  5
9FA
330
6F
100
AcDbEntity
  8
0
 62
     0
100
AcDbLine
 10
-63.62959452264561
 20
58.49489285857526
 30
0.0
 11
-64.43039324104565
 21
58.49346016570674
 31
0.0
  0
LINE
  5
9FB
330
6F
100
AcDbEntity
  8
0
 62
     0
100
AcDbLine
 10
-64.43039324104565
 20
58.49346016570674
 30
0.0
 11
-64.42932104719438
 21
57.89416112482619
 31
0.0
  0
LINE
  5
9FC
330
6F
100
AcDbEntity
  8
0
 62
     0
100
AcDbLine
 10
-64.42932104719438
 20
57.89416112482619
 30
0.0
 11
-78.42859864272092
 21
57.86911529905911
 31
0.0
  0
LINE
  5
9FD
330
6F
100
AcDbEntity
  8
0
 62
     0
100
AcDbLine
 10
-78.42859864272092
 20
57.86911529905911
 30
0.0
 11
-78.4296708365722
 21
58.46841433993967
 31
0.0
  0
LINE
  5
9FE
330
6F
100
AcDbEntity
  8
0
 62
     0
100
AcDbLine
 10
-78.4296708365722
 20
58.46841433993967
 30
0.0
 11
-79.23046955497224
 21
58.46698164707115
 31
0.0
  0
LINE
  5
9FF
330
6F
100
AcDbEntity
  8
0
 62
     0
100
AcDbLine
 10
-79.23046955497224
 20
58.46698164707115
 30
0.0
 11
-79.25337081412905
 21
71.26756116099663
 31
0.0
  0
LINE
  5
A00
330
6F
100
AcDbEntity
  8
0
 62
     0
100
AcDbLine
 10
-79.25337081412905
 20
71.26756116099663
 30
0.0
 11
-78.45257209572901
 21
71.26899385386515
 31
0.0
  0
LINE
  5
A01
330
6F
100
AcDbEntity
  8
0
 62
     0
100
AcDbLine
 10
-78.45257209572901
 20
71.26899385386515
 30
0.0
 11
-78.45364446848799
 21
71.86839289458567
 31
0.0
  0
LINE
  5
A02
330
6F
100
AcDbEntity
  8
0
 62
     0
100
AcDbLine
 10
-78.45364446848799
 20
71.86839289458567
 30
0.0
 11
-64.45436687296144
 21
71.89343872035275
 31
0.0
  0
LINE
  5
A03
330
6F
100
AcDbEntity
  8
0
 62
     0
100
AcDbLine
 10
-45.40439736057291
 20
71.92752063736737
 30
0.0
 11
-45.40332498781395
 21
71.32812159664685
 31
0.0
  0
LINE
  5
A04
330
6F
100
AcDbEntity
  8
0
 62
     0
100
AcDbLine
 10
-45.40332498781395
 20
71.32812159664685
 30
0.0
 11
-44.6025262694139
 21
71.32955428951537
 31
0.0
  0
LINE
  5
A05
330
6F
100
AcDbEntity
  8
0
 62
     0
100
AcDbLine
 10
-44.6025262694139
 20
71.32955428951537
 30
0.0
 11
-44.57962501025709
 21
58.52897477558988
 31
0.0
  0
LINE
  5
A06
330
6F
100
AcDbEntity
  8
0
 62
     0
100
AcDbLine
 10
-44.57962501025709
 20
58.52897477558988
 30
0.0
 11
-45.38042372865712
 21
58.52754208272136
 31
0.0
  0
LINE
  5
A07
330
6F
100
AcDbEntity
  8
0
 62
     0
100
AcDbLine
 10
-45.38042372865712
 20
58.52754208272136
 30
0.0
 11
-45.37935153480584
 21
57.92824304184081
 31
0.0
  0
LINE
  5
A08
330
6F
100
AcDbEntity
  8
0
 62
     0
100
AcDbLine
 10
-45.37935153480584
 20
57.92824304184081
 30
0.0
 11
-59.37862913033239
 21
57.90319721607374
 31
0.0
  0
LINE
  5
A09
330
6F
100
AcDbEntity
  8
0
 62
     0
100
AcDbLine
 10
-59.37862913033239
 20
57.90319721607374
 30
0.0
 11
-59.37970132418367
 21
58.50249625695429
 31
0.0
  0
LINE
  5
A0A
330
6F
100
AcDbEntity
  8
0
 62
     0
100
AcDbLine
 10
-59.37970132418367
 20
58.50249625695429
 30
0.0
 11
-60.1805000425837
 21
58.50106356408577
 31
0.0
  0
LINE
  5
A0B
330
6F
100
AcDbEntity
  8
0
 62
     0
100
AcDbLine
 10
-60.1805000425837
 20
58.50106356408577
 30
0.0
 11
-60.20340130174052
 21
71.30164307801125
 31
0.0
  0
LINE
  5
A0C
330
6F
100
AcDbEntity
  8
0
 62
     0
100
AcDbLine
 10
-60.20340130174052
 20
71.30164307801125
 30
0.0
 11
-59.40260258334048
 21
71.30307577087977
 31
0.0
  0
LINE
  5
A0D
330
6F
100
AcDbEntity
  8
0
 62
     0
100
AcDbLine
 10
-59.40260258334048
 20
71.30307577087977
 30
0.0
 11
-59.40367495609947
 21
71.90247481160028
 31
0.0
  0
LINE
  5
A0E
330
6F
100
AcDbEntity
  8
0
 62
     0
100
AcDbLine
 10
-59.40367495609947
 20
71.90247481160028
 30
0.0
 11
-45.40439736057291
 21
71.92752063736737
 31
0.0
  0
LINE
  5
A0F
330
6F
100
AcDbEntity
  8
0
 62
     0
100
AcDbLine
 10
-26.35442784818438
 20
71.96160255438198
 30
0.0
 11
-26.35335547542541
 21
71.36220351366147
 31
0.0
  0
LINE
  5
A10
330
6F
100
AcDbEntity
  8
0
 62
     0
100
AcDbLine
 10
-26.35335547542541
 20
71.36220351366147
 30
0.0
 11
-25.55265675686533
 21
71.36363602762227
 31
0.0
  0
LINE
  5
A11
330
6F
100
AcDbEntity
  8
0
 62
     0
100
AcDbLine
 10
-25.55265675686533
 20
71.36363602762227
 30
0.0
 11
-25.52975549770851
 21
58.5630565136968
 31
0.0
  0
LINE
  5
A12
330
6F
100
AcDbEntity
  8
0
 62
     0
100
AcDbLine
 10
-25.52975549770851
 20
58.5630565136968
 30
0.0
 11
-26.33045421626859
 21
58.56162399973598
 31
0.0
  0
LINE
  5
A13
330
6F
100
AcDbEntity
  8
0
 62
     0
100
AcDbLine
 10
-26.33045421626859
 20
58.56162399973598
 30
0.0
 11
-26.32938202241731
 21
57.96232495885543
 31
0.0
  0
LINE
  5
A14
330
6F
100
AcDbEntity
  8
0
 62
     0
100
AcDbLine
 10
-26.32938202241731
 20
57.96232495885543
 30
0.0
 11
-40.32865961794387
 21
57.93727913308835
 31
0.0
  0
LINE
  5
A15
330
6F
100
AcDbEntity
  8
0
 62
     0
100
AcDbLine
 10
-40.32865961794387
 20
57.93727913308835
 30
0.0
 11
-40.32973181179514
 21
58.5365781739689
 31
0.0
  0
LINE
  5
A16
330
6F
100
AcDbEntity
  8
0
 62
     0
100
AcDbLine
 10
-40.32973181179514
 20
58.5365781739689
 30
0.0
 11
-41.13053053019517
 21
58.53514548110038
 31
0.0
  0
LINE
  5
A17
330
6F
100
AcDbEntity
  8
0
 62
     0
100
AcDbLine
 10
-41.13053053019517
 20
58.53514548110038
 30
0.0
 11
-41.153431789352
 21
71.33572499502587
 31
0.0
  0
LINE
  5
A18
330
6F
100
AcDbEntity
  8
0
 62
     0
100
AcDbLine
 10
-41.153431789352
 20
71.33572499502587
 30
0.0
 11
-40.35263307095196
 21
71.33715768789439
 31
0.0
  0
LINE
  5
A19
330
6F
100
AcDbEntity
  8
0
 62
     0
100
AcDbLine
 10
-40.35263307095196
 20
71.33715768789439
 30
0.0
 11
-40.35370544371093
 21
71.9365567286149
 31
0.0
  0
LINE
  5
A1A
330
6F
100
AcDbEntity
  8
0
 62
     0
100
AcDbLine
 10
-40.35370544371093
 20
71.9365567286149
 30
0.0
 11
-26.35442784818438
 21
71.96160255438198
 31
0.0
  0
LINE
  5
A1B
330
6F
100
AcDbEntity
  8
0
 62
     0
100
AcDbLine
 10
-7.304408335875868
 20
71.99568456085045
 30
0.0
 11
-7.303335963116889
 21
71.39628552012993
 31
0.0
  0
LINE
  5
A1C
330
6F
100
AcDbEntity
  8
0
 62
     0
100
AcDbLine
 10
-7.303335963116889
 20
71.39628552012993
 30
0.0
 11
-6.502697244460787
 21
71.39771792674612
 31
0.0
  0
LINE
  5
A1D
330
6F
100
AcDbEntity
  8
0
 62
     0
100
AcDbLine
 10
-6.502697244460787
 20
71.39771792674612
 30
0.0
 11
-6.479795985303972
 21
58.59713841282065
 31
0.0
  0
LINE
  5
A1E
330
6F
100
AcDbEntity
  8
0
 62
     0
100
AcDbLine
 10
-6.479795985303972
 20
58.59713841282065
 30
0.0
 11
-7.280434703960074
 21
58.59570600620444
 31
0.0
  0
LINE
  5
A1F
330
6F
100
AcDbEntity
  8
0
 62
     0
100
AcDbLine
 10
-7.280434703960074
 20
58.59570600620444
 30
0.0
 11
-7.279362510108795
 21
57.99640696532389
 31
0.0
  0
LINE
  5
A20
330
6F
100
AcDbEntity
  8
0
 62
     0
100
AcDbLine
 10
-7.279362510108795
 20
57.99640696532389
 30
0.0
 11
-21.27889010523525
 21
57.97136069228757
 31
0.0
  0
LINE
  5
A21
330
6F
100
AcDbEntity
  8
0
 62
     0
100
AcDbLine
 10
-21.27889010523525
 20
57.97136069228757
 30
0.0
 11
-21.27996229908653
 21
58.57065973316812
 31
0.0
  0
LINE
  5
A22
330
6F
100
AcDbEntity
  8
0
 62
     0
100
AcDbLine
 10
-21.27996229908653
 20
58.57065973316812
 30
0.0
 11
-22.08056101780664
 21
58.569227398115
 31
0.0
  0
LINE
  5
A23
330
6F
100
AcDbEntity
  8
0
 62
     0
100
AcDbLine
 10
-22.08056101780664
 20
58.569227398115
 30
0.0
 11
-22.10346227696346
 21
71.36980691204048
 31
0.0
  0
LINE
  5
A24
330
6F
100
AcDbEntity
  8
0
 62
     0
100
AcDbLine
 10
-22.10346227696346
 20
71.36980691204048
 30
0.0
 11
-21.30286355824334
 21
71.37123924709361
 31
0.0
  0
LINE
  5
A25
330
6F
100
AcDbEntity
  8
0
 62
     0
100
AcDbLine
 10
-21.30286355824334
 20
71.37123924709361
 30
0.0
 11
-21.30393593100232
 21
71.97063828781413
 31
0.0
  0
LINE
  5
A26
330
6F
100
AcDbEntity
  8
0
 62
     0
100
AcDbLine
 10
-21.30393593100232
 20
71.97063828781413
 30
0.0
 11
-7.304408335875868
 21
71.99568456085045
 31
0.0
  0
LINE
  5
A27
330
6F
100
AcDbEntity
  8
0
 62
     0
100
AcDbLine
 10
-83.5384183023646
 20
90.90932631572666
 30
0.0
 11
-83.53734592960561
 21
90.30992727500615
 31
0.0
  0
LINE
  5
A28
330
6F
100
AcDbEntity
  8
0
 62
     0
100
AcDbLine
 10
-83.53734592960561
 20
90.30992727500615
 30
0.0
 11
-82.73654721120557
 21
90.31135996787467
 31
0.0
  0
LINE
  5
A29
330
6F
100
AcDbEntity
  8
0
 62
     0
100
AcDbLine
 10
-82.73654721120557
 20
90.31135996787467
 30
0.0
 11
-82.71364595204877
 21
77.51078045394918
 31
0.0
  0
LINE
  5
A2A
330
6F
100
AcDbEntity
  8
0
 62
     0
100
AcDbLine
 10
-82.71364595204877
 20
77.51078045394918
 30
0.0
 11
-83.51444467044879
 21
77.50934776108066
 31
0.0
  0
LINE
  5
A2B
330
6F
100
AcDbEntity
  8
0
 62
     0
100
AcDbLine
 10
-83.51444467044879
 20
77.50934776108066
 30
0.0
 11
-83.51337247659753
 21
76.91004872020013
 31
0.0
  0
LINE
  5
A2C
330
6F
100
AcDbEntity
  8
0
 62
     0
100
AcDbLine
 10
-83.51337247659753
 20
76.91004872020013
 30
0.0
 11
-97.5126500721241
 21
76.88500289443304
 31
0.0
  0
LINE
  5
A2D
330
6F
100
AcDbEntity
  8
0
 62
     0
100
AcDbLine
 10
-97.5126500721241
 20
76.88500289443304
 30
0.0
 11
-97.51372226597538
 21
77.48430193531358
 31
0.0
  0
LINE
  5
A2E
330
6F
100
AcDbEntity
  8
0
 62
     0
100
AcDbLine
 10
-97.51372226597538
 20
77.48430193531358
 30
0.0
 11
-98.31312098661596
 21
77.48287174715287
 31
0.0
  0
LINE
  5
A2F
330
6F
100
AcDbEntity
  8
0
 62
     0
100
AcDbLine
 10
-98.31312098661596
 20
77.48287174715287
 30
0.0
 11
-98.33602224577276
 21
90.28345126107835
 31
0.0
  0
LINE
  5
A30
330
6F
100
AcDbEntity
  8
0
 62
     0
100
AcDbLine
 10
-98.33602224577276
 20
90.28345126107835
 30
0.0
 11
-97.53662352513218
 21
90.28488144923906
 31
0.0
  0
LINE
  5
A31
330
6F
100
AcDbEntity
  8
0
 62
     0
100
AcDbLine
 10
-97.53662352513218
 20
90.28488144923906
 30
0.0
 11
-97.53769589789117
 21
90.88428048995957
 31
0.0
  0
LINE
  5
A32
330
6F
100
AcDbEntity
  8
0
 62
     0
100
AcDbLine
 10
-97.53769589789117
 20
90.88428048995957
 30
0.0
 11
-83.5384183023646
 21
90.90932631572666
 31
0.0
  0
LINE
  5
A33
330
6F
100
AcDbEntity
  8
0
 62
     0
100
AcDbLine
 10
-64.48844878997606
 20
90.94340823274128
 30
0.0
 11
-64.48737641721709
 21
90.34400919202075
 31
0.0
  0
LINE
  5
A34
330
6F
100
AcDbEntity
  8
0
 62
     0
100
AcDbLine
 10
-64.48737641721709
 20
90.34400919202075
 30
0.0
 11
-63.68657769881704
 21
90.34544188488927
 31
0.0
  0
LINE
  5
A35
330
6F
100
AcDbEntity
  8
0
 62
     0
100
AcDbLine
 10
-63.68657769881704
 20
90.34544188488927
 30
0.0
 11
-63.66367643966023
 21
77.54486237096379
 31
0.0
  0
LINE
  5
A36
330
6F
100
AcDbEntity
  8
0
 62
     0
100
AcDbLine
 10
-63.66367643966023
 20
77.54486237096379
 30
0.0
 11
-64.46447515806027
 21
77.54342967809527
 31
0.0
  0
LINE
  5
A37
330
6F
100
AcDbEntity
  8
0
 62
     0
100
AcDbLine
 10
-64.46447515806027
 20
77.54342967809527
 30
0.0
 11
-64.46340296420899
 21
76.94413063721474
 31
0.0
  0
LINE
  5
A38
330
6F
100
AcDbEntity
  8
0
 62
     0
100
AcDbLine
 10
-64.46340296420899
 20
76.94413063721474
 30
0.0
 11
-78.46268055973554
 21
76.91908481144766
 31
0.0
  0
LINE
  5
A39
330
6F
100
AcDbEntity
  8
0
 62
     0
100
AcDbLine
 10
-78.46268055973554
 20
76.91908481144766
 30
0.0
 11
-78.46375275358681
 21
77.5183838523282
 31
0.0
  0
LINE
  5
A3A
330
6F
100
AcDbEntity
  8
0
 62
     0
100
AcDbLine
 10
-78.46375275358681
 20
77.5183838523282
 30
0.0
 11
-79.26455147198686
 21
77.51695115945968
 31
0.0
  0
LINE
  5
A3B
330
6F
100
AcDbEntity
  8
0
 62
     0
100
AcDbLine
 10
-79.26455147198686
 20
77.51695115945968
 30
0.0
 11
-79.28745273114367
 21
90.31753067338517
 31
0.0
  0
LINE
  5
A3C
330
6F
100
AcDbEntity
  8
0
 62
     0
100
AcDbLine
 10
-79.28745273114367
 20
90.31753067338517
 30
0.0
 11
-78.48665401274363
 21
90.31896336625369
 31
0.0
  0
LINE
  5
A3D
330
6F
100
AcDbEntity
  8
0
 62
     0
100
AcDbLine
 10
-78.48665401274363
 20
90.31896336625369
 30
0.0
 11
-78.48772638550261
 21
90.9183624069742
 31
0.0
  0
LINE
  5
A3E
330
6F
100
AcDbEntity
  8
0
 62
     0
100
AcDbLine
 10
-78.48772638550261
 20
90.9183624069742
 30
0.0
 11
-64.48844878997606
 21
90.94340823274128
 31
0.0
  0
LINE
  5
A3F
330
6F
100
AcDbEntity
  8
0
 62
     0
100
AcDbLine
 10
-45.43847927758753
 20
90.97749014975589
 30
0.0
 11
-45.43740690482856
 21
90.37809110903538
 31
0.0
  0
LINE
  5
A40
330
6F
100
AcDbEntity
  8
0
 62
     0
100
AcDbLine
 10
-45.43740690482856
 20
90.37809110903538
 30
0.0
 11
-44.63660818642852
 21
90.3795238019039
 31
0.0
  0
LINE
  5
A41
330
6F
100
AcDbEntity
  8
0
 62
     0
100
AcDbLine
 10
-44.63660818642852
 20
90.3795238019039
 30
0.0
 11
-44.61370692727171
 21
77.57894428797841
 31
0.0
  0
LINE
  5
A42
330
6F
100
AcDbEntity
  8
0
 62
     0
100
AcDbLine
 10
-44.61370692727171
 20
77.57894428797841
 30
0.0
 11
-45.41450564567173
 21
77.5775115951099
 31
0.0
  0
LINE
  5
A43
330
6F
100
AcDbEntity
  8
0
 62
     0
100
AcDbLine
 10
-45.41450564567173
 20
77.5775115951099
 30
0.0
 11
-45.41343345182046
 21
76.97821255422936
 31
0.0
  0
LINE
  5
A44
330
6F
100
AcDbEntity
  8
0
 62
     0
100
AcDbLine
 10
-45.41343345182046
 20
76.97821255422936
 30
0.0
 11
-59.412711047347
 21
76.95316672846228
 31
0.0
  0
LINE
  5
A45
330
6F
100
AcDbEntity
  8
0
 62
     0
100
AcDbLine
 10
-59.412711047347
 20
76.95316672846228
 30
0.0
 11
-59.41378324119829
 21
77.55246576934282
 31
0.0
  0
LINE
  5
A46
330
6F
100
AcDbEntity
  8
0
 62
     0
100
AcDbLine
 10
-59.41378324119829
 20
77.55246576934282
 30
0.0
 11
-60.21458195959832
 21
77.5510330764743
 31
0.0
  0
LINE
  5
A47
330
6F
100
AcDbEntity
  8
0
 62
     0
100
AcDbLine
 10
-60.21458195959832
 20
77.5510330764743
 30
0.0
 11
-60.23748321875515
 21
90.35161259039979
 31
0.0
  0
LINE
  5
A48
330
6F
100
AcDbEntity
  8
0
 62
     0
100
AcDbLine
 10
-60.23748321875515
 20
90.35161259039979
 30
0.0
 11
-59.43668450035509
 21
90.35304528326831
 31
0.0
  0
LINE
  5
A49
330
6F
100
AcDbEntity
  8
0
 62
     0
100
AcDbLine
 10
-59.43668450035509
 20
90.35304528326831
 30
0.0
 11
-59.43775687311408
 21
90.95244432398882
 31
0.0
  0
LINE
  5
A4A
330
6F
100
AcDbEntity
  8
0
 62
     0
100
AcDbLine
 10
-59.43775687311408
 20
90.95244432398882
 30
0.0
 11
-45.43847927758753
 21
90.97749014975589
 31
0.0
  0
LINE
  5
A4B
330
6F
100
AcDbEntity
  8
0
 62
     0
100
AcDbLine
 10
-26.388509765199
 20
91.01157206677051
 30
0.0
 11
-26.38743739244002
 21
90.41217302605
 31
0.0
  0
LINE
  5
A4C
330
6F
100
AcDbEntity
  8
0
 62
     0
100
AcDbLine
 10
-26.38743739244002
 20
90.41217302605
 30
0.0
 11
-25.58673867387994
 21
90.4136055400108
 31
0.0
  0
LINE
  5
A4D
330
6F
100
AcDbEntity
  8
0
 62
     0
100
AcDbLine
 10
-25.58673867387994
 20
90.4136055400108
 30
0.0
 11
-25.56383741472313
 21
77.61302602608532
 31
0.0
  0
LINE
  5
A4E
330
6F
100
AcDbEntity
  8
0
 62
     0
100
AcDbLine
 10
-25.56383741472313
 20
77.61302602608532
 30
0.0
 11
-26.36453613328321
 21
77.61159351212452
 31
0.0
  0
LINE
  5
A4F
330
6F
100
AcDbEntity
  8
0
 62
     0
100
AcDbLine
 10
-26.36453613328321
 20
77.61159351212452
 30
0.0
 11
-26.36346393943193
 21
77.01229447124397
 31
0.0
  0
LINE
  5
A50
330
6F
100
AcDbEntity
  8
0
 62
     0
100
AcDbLine
 10
-26.36346393943193
 20
77.01229447124397
 30
0.0
 11
-40.36274153495848
 21
76.98724864547689
 31
0.0
  0
LINE
  5
A51
330
6F
100
AcDbEntity
  8
0
 62
     0
100
AcDbLine
 10
-40.36274153495848
 20
76.98724864547689
 30
0.0
 11
-40.36381372880976
 21
77.58654768635743
 31
0.0
  0
LINE
  5
A52
330
6F
100
AcDbEntity
  8
0
 62
     0
100
AcDbLine
 10
-40.36381372880976
 20
77.58654768635743
 30
0.0
 11
-41.16461244720979
 21
77.58511499348891
 31
0.0
  0
LINE
  5
A53
330
6F
100
AcDbEntity
  8
0
 62
     0
100
AcDbLine
 10
-41.16461244720979
 20
77.58511499348891
 30
0.0
 11
-41.18751370636661
 21
90.38569450741439
 31
0.0
  0
LINE
  5
A54
330
6F
100
AcDbEntity
  8
0
 62
     0
100
AcDbLine
 10
-41.18751370636661
 20
90.38569450741439
 30
0.0
 11
-40.38671498796658
 21
90.38712720028291
 31
0.0
  0
LINE
  5
A55
330
6F
100
AcDbEntity
  8
0
 62
     0
100
AcDbLine
 10
-40.38671498796658
 20
90.38712720028291
 30
0.0
 11
-40.38778736072555
 21
90.98652624100344
 31
0.0
  0
LINE
  5
A56
330
6F
100
AcDbEntity
  8
0
 62
     0
100
AcDbLine
 10
-40.38778736072555
 20
90.98652624100344
 30
0.0
 11
-26.388509765199
 21
91.01157206677051
 31
0.0
  0
LINE
  5
A57
330
6F
100
AcDbEntity
  8
0
 62
     0
100
AcDbLine
 10
-7.338490252890486
 20
91.04565407323898
 30
0.0
 11
-7.337417880131506
 21
90.44625503251847
 31
0.0
  0
LINE
  5
A58
330
6F
100
AcDbEntity
  8
0
 62
     0
100
AcDbLine
 10
-7.337417880131506
 20
90.44625503251847
 30
0.0
 11
-6.536779161475404
 21
90.44768743913465
 31
0.0
  0
LINE
  5
A59
330
6F
100
AcDbEntity
  8
0
 62
     0
100
AcDbLine
 10
-6.536779161475404
 20
90.44768743913465
 30
0.0
 11
-6.51387790231859
 21
77.64710792520917
 31
0.0
  0
LINE
  5
A5A
330
6F
100
AcDbEntity
  8
0
 62
     0
100
AcDbLine
 10
-6.51387790231859
 20
77.64710792520917
 30
0.0
 11
-7.314516620974692
 21
77.64567551859298
 31
0.0
  0
LINE
  5
A5B
330
6F
100
AcDbEntity
  8
0
 62
     0
100
AcDbLine
 10
-7.314516620974692
 20
77.64567551859298
 30
0.0
 11
-7.313444427123413
 21
77.04637647771244
 31
0.0
  0
LINE
  5
A5C
330
6F
100
AcDbEntity
  8
0
 62
     0
100
AcDbLine
 10
-7.313444427123413
 20
77.04637647771244
 30
0.0
 11
-21.31297202224986
 21
77.02133020467612
 31
0.0
  0
LINE
  5
A5D
330
6F
100
AcDbEntity
  8
0
 62
     0
100
AcDbLine
 10
-21.31297202224986
 20
77.02133020467612
 30
0.0
 11
-21.31404421610115
 21
77.62062924555666
 31
0.0
  0
LINE
  5
A5E
330
6F
100
AcDbEntity
  8
0
 62
     0
100
AcDbLine
 10
-21.31404421610115
 20
77.62062924555666
 30
0.0
 11
-22.11464293482126
 21
77.61919691050353
 31
0.0
  0
LINE
  5
A5F
330
6F
100
AcDbEntity
  8
0
 62
     0
100
AcDbLine
 10
-22.11464293482126
 20
77.61919691050353
 30
0.0
 11
-22.13754419397807
 21
90.41977642442901
 31
0.0
  0
LINE
  5
A60
330
6F
100
AcDbEntity
  8
0
 62
     0
100
AcDbLine
 10
-22.13754419397807
 20
90.41977642442901
 30
0.0
 11
-21.33694547525796
 21
90.42120875948214
 31
0.0
  0
LINE
  5
A61
330
6F
100
AcDbEntity
  8
0
 62
     0
100
AcDbLine
 10
-21.33694547525796
 20
90.42120875948214
 30
0.0
 11
-21.33801784801694
 21
91.02060780020265
 31
0.0
  0
LINE
  5
A62
330
6F
100
AcDbEntity
  8
0
  6
Continuous
100
AcDbLine
 10
-7.338490252890486
 20
91.04565407323898
 30
0.0
 11
-21.33801784801694
 21
91.02060780020265
 31
0.0
  0
LINE
  5
A63
330
6F
100
AcDbEntity
  8
0
  6
Continuous
100
AcDbLine
 10
-101.290301414654
 20
36.727480117188
 30
0.0
 11
-101.3031465396603
 21
51.08696790388589
 31
0.0
  0
LINE
  5
A64
330
6F
100
AcDbEntity
  8
0
  6
Continuous
100
AcDbLine
 10
-101.3031465396603
 20
51.08696790388589
 30
0.0
 11
-101.290301414654
 21
36.72748011718799
 31
0.0
  0
LINE
  5
A65
330
6F
100
AcDbEntity
  8
0
  6
Continuous
100
AcDbLine
 10
-87.36745286797255
 20
16.7528971981041
 30
0.0
 11
-102.9669279025397
 21
16.7249884913078
 31
0.0
  0
ARC
  5
A66
330
6F
100
AcDbEntity
  8
0
  6
Continuous
100
AcDbCircle
 10
-102.9722951335656
 20
19.72498369010915
 30
0.0
 40
3.0
100
AcDbArc
 50
180.1025066165028
 51
270.1025066165029
  0
LINE
  5
A67
330
6F
100
AcDbEntity
  8
0
  6
Continuous
100
AcDbLine
 10
-101.290301414654
 20
36.727480117188
 30
0.0
 11
-103.0027084766109
 21
36.72441648418098
 31
0.0
  0
LINE
  5
A68
330
6F
100
AcDbEntity
  8
0
  6
Continuous
100
AcDbLine
 10
-105.972290332367
 20
19.71961645908322
 30
0.0
 11
-105.9973364443864
 21
33.71905405435371
 31
0.0
  0
ARC
  5
A69
330
6F
100
AcDbEntity
  8
0
  6
Continuous
100
AcDbCircle
 10
-102.997341245585
 20
33.72442128537964
 30
0.0
 40
3.0
100
AcDbArc
 50
90.10250661650292
 51
180.1025066165028
  0
LINE
  5
A6A
330
6F
100
AcDbEntity
  8
0
  6
Continuous
100
AcDbLine
 10
-84.39311982435684
 20
31.10203721923358
 30
0.0
 11
-84.37282490019711
 21
19.75825962793137
 31
0.0
  0
ARC
  5
A6B
330
6F
100
AcDbEntity
  8
0
  6
Continuous
100
AcDbCircle
 10
-87.37282009899846
 20
19.75289239690544
 30
0.0
 40
3.0
100
AcDbArc
 50
270.1025066165029
 51
0.1025066165028988
  0
CIRCLE
  5
A6C
330
6F
100
AcDbEntity
  8
0
  6
Continuous
100
AcDbCircle
 10
88.22556807965757
 20
26.90274423366332
 30
0.0
 40
2.0
  0
CIRCLE
  5
A6D
330
6F
100
AcDbEntity
  8
0
  6
Continuous
100
AcDbCircle
 10
-95.19830372718116
 20
26.72472248771239
 30
0.0
 40
2.0
  0
ENDSEC
  0
SECTION
  2
OBJECTS
  0
DICTIONARY
  5
C
330
0
100
AcDbDictionary
281
     1
  3
ACAD_CIP_PREVIOUS_PRODUCT_INFO
350
1FA
  3
ACAD_COLOR
350
62
  3
ACAD_DETAILVIEWSTYLE
350
69
  3
ACAD_GROUP
350
D
  3
ACAD_LAYOUT
350
61
  3
ACAD_MATERIAL
350
10
  3
ACAD_MLEADERSTYLE
350
65
  3
ACAD_MLINESTYLE
350
5E
  3
ACAD_PLOTSETTINGS
350
60
  3
ACAD_PLOTSTYLENAME
350
E
  3
ACAD_SCALELIST
350
42
  3
ACAD_SECTIONVIEWSTYLE
350
67
  3
ACAD_TABLESTYLE
350
63
  3
ACAD_VISUALSTYLE
350
29
  3
ACDB_RECOMPOSE_DATA
350
A6F
  3
AcDbVariableDictionary
350
207
  0
DICTIONARY
  5
363
330
2
100
AcDbDictionary
280
     1
281
     1
  3
ACAD_LAYERSTATES
360
364
  0
DICTIONARY
  5
346
330
54
100
AcDbDictionary
280
     1
281
     1
  3
ADSK_XREC_LAYER_RECONCILED
360
347
  0
DICTIONARY
  5
348
330
32A
100
AcDbDictionary
280
     1
281
     1
  3
ADSK_XREC_LAYER_RECONCILED
360
349
  0
DICTIONARY
  5
34A
330
32D
100
AcDbDictionary
280
     1
281
     1
  3
ADSK_XREC_LAYER_RECONCILED
360
34B
  0
DICTIONARY
  5
235
330
6F
100
AcDbDictionary
280
     1
281
     1
  3
ACAD_SORTENTS
360
236
  0
XRECORD
  5
1FA
102
{ACAD_REACTORS
330
C
102
}
330
C
100
AcDbXrecord
280
     1
300
ACD
300
2021
300

  0
DICTIONARY
  5
62
102
{ACAD_REACTORS
330
C
102
}
330
C
100
AcDbDictionary
281
     1
  0
DICTIONARY
  5
69
102
{ACAD_REACTORS
330
C
102
}
330
C
100
AcDbDictionary
281
     1
  3
Imperial24
350
6A
  0
DICTIONARY
  5
D
102
{ACAD_REACTORS
330
C
102
}
330
C
100
AcDbDictionary
281
     1
  0
DICTIONARY
  5
61
102
{ACAD_REACTORS
330
C
102
}
330
C
100
AcDbDictionary
281
     1
  3
Layout1
350
6E
  3
Model
350
72
  0
DICTIONARY
  5
10
102
{ACAD_REACTORS
330
C
102
}
330
C
100
AcDbDictionary
281
     1
  3
ByBlock
350
19
  3
ByLayer
350
11
  3
Global
350
21
  0
DICTIONARY
  5
65
102
{ACAD_REACTORS
330
C
102
}
330
C
100
AcDbDictionary
281
     1
  3
Standard
350
66
  0
DICTIONARY
  5
5E
102
{ACAD_REACTORS
330
C
102
}
330
C
100
AcDbDictionary
281
     1
  3
Standard
350
5F
  0
DICTIONARY
  5
60
102
{ACAD_REACTORS
330
C
102
}
330
C
100
AcDbDictionary
281
     1
  0
ACDBDICTIONARYWDFLT
  5
E
102
{ACAD_REACTORS
330
C
102
}
330
C
100
AcDbDictionary
281
     1
  3
Normal
350
F
100
AcDbDictionaryWithDefault
340
F
  0
DICTIONARY
  5
42
102
{ACAD_REACTORS
330
C
102
}
330
C
100
AcDbDictionary
281
     1
  3
A0
350
43
  3
A1
350
44
  3
A2
350
45
  3
A3
350
46
  3
A4
350
47
  3
A5
350
48
  3
A6
350
49
  3
A7
350
4A
  3
A8
350
4B
  3
A9
350
4C
  3
B0
350
4D
  3
B1
350
4E
  3
B2
350
4F
  3
B3
350
50
  3
B4
350
51
  3
B5
350
52
  3
B6
350
53
  0
DICTIONARY
  5
67
102
{ACAD_REACTORS
330
C
102
}
330
C
100
AcDbDictionary
281
     1
  3
Imperial24
350
68
  0
DICTIONARY
  5
63
102
{ACAD_REACTORS
330
C
102
}
330
C
100
AcDbDictionary
281
     1
  3
Standard
350
64
  0
DICTIONARY
  5
29
102
{ACAD_REACTORS
330
C
102
}
330
C
100
AcDbDictionary
281
     1
  3
2dWireframe
350
2F
  3
Basic
350
2E
  3
Brighten
350
35
  3
ColorChange
350
39
  3
Conceptual
350
32
  3
Dim
350
34
  3
EdgeColorOff
350
41
  3
Facepattern
350
38
  3
Flat
350
2A
  3
FlatWithEdges
350
2B
  3
Gouraud
350
2C
  3
GouraudWithEdges
350
2D
  3
Hidden
350
31
  3
JitterOff
350
3F
  3
Linepattern
350
37
  3
OverhangOff
350
40
  3
Realistic
350
33
  3
Shaded
350
3E
  3
Shaded with edges
350
3D
  3
Shades of Gray
350
3A
  3
Sketchy
350
3B
  3
Thicken
350
36
  3
Wireframe
350
30
  3
X-Ray
350
3C
  0
XRECORD
  5
A6F
102
{ACAD_REACTORS
330
C
102
}
330
C
100
AcDbXrecord
280
     1
 90
        1
330
64
  0
DICTIONARY
  5
207
102
{ACAD_REACTORS
330
C
102
}
330
C
100
AcDbDictionary
281
     1
  3
CANNOSCALE
350
20D
  3
CMLEADERSTYLE
350
209
  3
CTABLESTYLE
350
208
  3
CVIEWDETAILSTYLE
350
20A
  3
CVIEWSECTIONSTYLE
350
20B
  3
LAYEREVAL
350
20F
  3
LAYERNOTIFY
350
210
  3
LIGHTINGUNITS
350
20E
  3
MSLTSCALE
350
20C
  0
DICTIONARY
  5
364
102
{ACAD_REACTORS
330
363
102
}
330
363
100
AcDbDictionary
281
     1
  0
XRECORD
  5
347
102
{ACAD_REACTORS
330
346
102
}
330
346
100
AcDbXrecord
280
     1
290
     1
  0
XRECORD
  5
349
102
{ACAD_REACTORS
330
348
102
}
330
348
100
AcDbXrecord
280
     1
290
     1
  0
XRECORD
  5
34B
102
{ACAD_REACTORS
330
34A
102
}
330
34A
100
AcDbXrecord
280
     1
290
     1
  0
SORTENTSTABLE
  5
236
102
{ACAD_REACTORS
330
235
102
}
330
235
100
AcDbSortentsTable
330
6F
331
224
  5
22F
331
234
  5
23A
331
23A
  5
22B
331
23B
  5
224
331
8C5
  5
8C6
331
8C6
  5
8C7
331
8C7
  5
8C8
331
8C8
  5
8C9
331
8C9
  5
8CA
331
8CA
  5
8CB
331
8CB
  5
8CC
331
8CC
  5
8CD
331
8CD
  5
8CE
331
8CE
  5
8CF
331
8CF
  5
8D0
331
8D0
  5
8D1
331
8D1
  5
8D2
331
8D2
  5
8D3
331
8D3
  5
8D4
331
8D4
  5
8D5
331
8D5
  5
8D6
331
8D6
  5
8D7
331
8D7
  5
8D8
331
8D8
  5
8D9
331
8D9
  5
8DA
331
8DA
  5
8DB
331
8DB
  5
8DC
331
8DC
  5
8DD
331
8DD
  5
8DE
331
8DE
  5
8DF
331
8DF
  5
8E0
331
8E0
  5
8E1
331
8E1
  5
8E2
331
8E2
  5
8E3
331
8E3
  5
8E4
331
8E4
  5
8E5
331
8E5
  5
8E6
331
8E6
  5
8E7
331
8E7
  5
8E8
331
8E8
  5
8E9
331
8E9
  5
8EA
331
8EA
  5
8EB
331
8EB
  5
8EC
331
8EC
  5
8ED
331
8ED
  5
8EE
331
8EE
  5
8EF
331
8EF
  5
8F0
331
8F0
  5
8F1
331
8F1
  5
8F2
331
8F2
  5
8F3
331
8F3
  5
8F4
331
8F4
  5
8F5
331
8F5
  5
8F6
331
8F6
  5
8F7
331
8F7
  5
8F8
331
8F8
  5
8F9
331
8F9
  5
8FA
331
8FA
  5
8FB
331
8FB
  5
8FC
331
8FC
  5
8FD
331
8FD
  5
8FE
331
8FE
  5
8FF
331
8FF
  5
900
331
900
  5
901
331
901
  5
902
331
902
  5
903
331
903
  5
904
331
904
  5
905
331
905
  5
906
331
906
  5
907
331
907
  5
908
331
908
  5
909
331
909
  5
90A
331
90A
  5
90B
331
90B
  5
90C
331
90C
  5
90D
331
90D
  5
90E
331
90E
  5
90F
331
90F
  5
910
331
910
  5
911
331
911
  5
912
331
912
  5
913
331
913
  5
914
331
914
  5
915
331
915
  5
916
331
916
  5
917
331
917
  5
918
331
918
  5
919
331
919
  5
91A
331
91A
  5
91B
331
91B
  5
91C
331
91C
  5
91D
331
91D
  5
91E
331
91E
  5
91F
331
91F
  5
920
331
920
  5
921
331
921
  5
922
331
922
  5
923
331
923
  5
924
331
924
  5
925
331
925
  5
926
331
926
  5
927
331
927
  5
928
331
928
  5
929
331
929
  5
92A
331
92A
  5
92B
331
92B
  5
92C
331
92C
  5
92D
331
92D
  5
92E
331
92E
  5
92F
331
92F
  5
930
331
930
  5
931
331
931
  5
932
331
932
  5
933
331
933
  5
934
331
934
  5
935
331
935
  5
936
331
936
  5
937
331
937
  5
938
331
938
  5
939
331
939
  5
93A
331
93A
  5
93B
331
93B
  5
93C
331
93C
  5
93D
331
93D
  5
93E
331
93E
  5
93F
331
93F
  5
940
331
940
  5
941
331
941
  5
942
331
942
  5
943
331
943
  5
944
331
944
  5
945
331
945
  5
946
331
946
  5
947
331
947
  5
948
331
948
  5
949
331
949
  5
94A
331
94A
  5
94B
331
94B
  5
94C
331
94C
  5
94D
331
94D
  5
94E
331
94E
  5
94F
331
94F
  5
950
331
950
  5
951
331
951
  5
952
331
952
  5
953
331
953
  5
954
331
954
  5
955
331
955
  5
956
331
956
  5
957
331
957
  5
958
331
958
  5
959
331
959
  5
95A
331
95A
  5
95B
331
95B
  5
95C
331
95C
  5
95D
331
95D
  5
95E
331
95E
  5
95F
331
95F
  5
960
331
960
  5
961
331
961
  5
962
331
962
  5
963
331
963
  5
964
331
964
  5
965
331
965
  5
966
331
966
  5
967
331
967
  5
968
331
968
  5
969
331
969
  5
96A
331
96A
  5
96B
331
96B
  5
96C
331
96C
  5
96D
331
96D
  5
96E
331
96E
  5
96F
331
96F
  5
970
331
970
  5
971
331
971
  5
972
331
972
  5
973
331
973
  5
974
331
974
  5
975
331
975
  5
976
331
976
  5
977
331
977
  5
978
331
978
  5
979
331
979
  5
97A
331
97A
  5
97B
331
97B
  5
97C
331
97C
  5
97D
331
97D
  5
97E
331
97E
  5
97F
331
97F
  5
980
331
980
  5
981
331
981
  5
982
331
982
  5
983
331
983
  5
989
331
989
  5
98A
331
98C
  5
98D
331
98D
  5
98E
331
994
  5
995
331
996
  5
239
331
997
  5
998
331
998
  5
999
331
999
  5
99B
331
99A
  5
99C
331
99B
  5
997
331
99C
  5
99A
  0
ACDBDETAILVIEWSTYLE
  5
6A
102
{ACAD_REACTORS
330
69
102
}
330
69
100
AcDbModelDocViewStyle
 70
     0
  3
Imperial24
290
     0
300
Imperial24
 90
        0
100
AcDbDetailViewStyle
 70
     0
 71
     0
 90
        3
 71
     1
340
55
 62
   256
 40
0.24
340
0
 62
   256
 40
0.24
300

 40
0.36
280
     3
 71
     2
340
5C
 90
       25
 62
   256
 71
     3
340
55
 62
   256
 40
0.24
 90
        1
 40
0.75
 90
        1
300
%<\AcVar ViewType \f "%tc1">% %<\AcVar ViewDetailId>%\PSCALE %<\AcVar ViewScale \f "%sn">%
 71
     4
340
5C
 90
       25
 62
   256
340
5C
 90
       25
 62
   256
280
     0
  0
LAYOUT
  5
6E
102
{ACAD_REACTORS
330
61
102
}
330
61
100
AcDbPlotSettings
  1

  2
Canon TS6100 series
  4

  6

 40
0.0
 41
0.0
 42
0.0
 43
0.0
 44
0.0
 45
0.0
 46
0.0
 47
0.0
 48
0.0
 49
0.0
140
0.0
141
0.0
142
1.0
143
1.0
 70
   688
 72
     0
 73
     0
 74
     5
  7

 75
    16
147
1.0
 76
     0
 77
     2
 78
   300
148
0.0
149
0.0
100
AcDbLayout
  1
Layout1
 70
     1
 71
     1
 10
0.0
 20
0.0
 11
12.0
 21
9.0
 12
0.0
 22
0.0
 32
0.0
 14
1.000000000000000E+20
 24
1.000000000000000E+20
 34
1.000000000000000E+20
 15
-1.000000000000000E+20
 25
-1.000000000000000E+20
 35
-1.000000000000000E+20
146
0.0
 13
0.0
 23
0.0
 33
0.0
 16
1.0
 26
0.0
 36
0.0
 17
0.0
 27
1.0
 37
0.0
 76
     0
330
6B
  0
LAYOUT
  5
72
102
{ACAD_REACTORS
330
61
102
}
330
61
100
AcDbPlotSettings
  1

  2
Canon TS6100 series
  4

  6

 40
0.0
 41
0.0
 42
0.0
 43
0.0
 44
0.0
 45
0.0
 46
0.0
 47
0.0
 48
0.0
 49
0.0
140
0.0
141
0.0
142
1.0
143
1.0
 70
  1712
 72
     0
 73
     0
 74
     0
  7

 75
     0
147
1.0
 76
     0
 77
     2
 78
   300
148
0.0
149
0.0
100
AcDbLayout
  1
Model
 70
     1
 71
     0
 10
0.0
 20
0.0
 11
12.0
 21
9.0
 12
0.0
 22
0.0
 32
0.0
 14
0.0
 24
0.0
 34
0.0
 15
0.0
 25
0.0
 35
0.0
146
0.0
 13
0.0
 23
0.0
 33
0.0
 16
1.0
 26
0.0
 36
0.0
 17
0.0
 27
1.0
 37
0.0
 76
     0
330
6F
331
74
  0
MATERIAL
  5
19
102
{ACAD_XDICTIONARY
360
1A
102
}
102
{ACAD_REACTORS
330
10
102
}
330
10
100
AcDbMaterial
  1
ByBlock
 72
     0
 43
0.0208333333333333
 43
0.0
 43
0.0
 43
0.0
 43
0.0
 43
0.0208333333333333
 43
0.0
 43
0.0
 43
0.0
 43
0.0
 43
1.0
 43
0.0
 43
0.0
 43
0.0
 43
0.0
 43
1.0
 77
     0
 47
0.0208333333333333
 47
0.0
 47
0.0
 47
0.0
 47
0.0
 47
0.0208333333333333
 47
0.0
 47
0.0
 47
0.0
 47
0.0
 47
1.0
 47
0.0
 47
0.0
 47
0.0
 47
0.0
 47
1.0
171
     0
 49
0.0208333333333333
 49
0.0
 49
0.0
 49
0.0
 49
0.0
 49
0.0208333333333333
 49
0.0
 49
0.0
 49
0.0
 49
0.0
 49
1.0
 49
0.0
 49
0.0
 49
0.0
 49
0.0
 49
1.0
175
     0
142
0.0208333333333333
142
0.0
142
0.0
142
0.0
142
0.0
142
0.0208333333333333
142
0.0
142
0.0
142
0.0
142
0.0
142
1.0
142
0.0
142
0.0
142
0.0
142
0.0
142
1.0
179
     0
144
0.0208333333333333
144
0.0
144
0.0
144
0.0
144
0.0
144
0.0208333333333333
144
0.0
144
0.0
144
0.0
144
0.0
144
1.0
144
0.0
144
0.0
144
0.0
144
0.0
144
1.0
147
0.0208333333333333
147
0.0
147
0.0
147
0.0
147
0.0
147
0.0208333333333333
147
0.0
147
0.0
147
0.0
147
0.0
147
1.0
147
0.0
147
0.0
147
0.0
147
0.0
147
1.0
  0
MATERIAL
  5
11
102
{ACAD_XDICTIONARY
360
12
102
}
102
{ACAD_REACTORS
330
10
102
}
330
10
100
AcDbMaterial
  1
ByLayer
 72
     0
 43
0.0208333333333333
 43
0.0
 43
0.0
 43
0.0
 43
0.0
 43
0.0208333333333333
 43
0.0
 43
0.0
 43
0.0
 43
0.0
 43
1.0
 43
0.0
 43
0.0
 43
0.0
 43
0.0
 43
1.0
 77
     0
 47
0.0208333333333333
 47
0.0
 47
0.0
 47
0.0
 47
0.0
 47
0.0208333333333333
 47
0.0
 47
0.0
 47
0.0
 47
0.0
 47
1.0
 47
0.0
 47
0.0
 47
0.0
 47
0.0
 47
1.0
171
     0
 49
0.0208333333333333
 49
0.0
 49
0.0
 49
0.0
 49
0.0
 49
0.0208333333333333
 49
0.0
 49
0.0
 49
0.0
 49
0.0
 49
1.0
 49
0.0
 49
0.0
 49
0.0
 49
0.0
 49
1.0
175
     0
142
0.0208333333333333
142
0.0
142
0.0
142
0.0
142
0.0
142
0.0208333333333333
142
0.0
142
0.0
142
0.0
142
0.0
142
1.0
142
0.0
142
0.0
142
0.0
142
0.0
142
1.0
179
     0
144
0.0208333333333333
144
0.0
144
0.0
144
0.0
144
0.0
144
0.0208333333333333
144
0.0
144
0.0
144
0.0
144
0.0
144
1.0
144
0.0
144
0.0
144
0.0
144
0.0
144
1.0
147
0.0208333333333333
147
0.0
147
0.0
147
0.0
147
0.0
147
0.0208333333333333
147
0.0
147
0.0
147
0.0
147
0.0
147
1.0
147
0.0
147
0.0
147
0.0
147
0.0
147
1.0
  0
MATERIAL
  5
21
102
{ACAD_XDICTIONARY
360
22
102
}
102
{ACAD_REACTORS
330
10
102
}
330
10
100
AcDbMaterial
  1
Global
 72
     0
 43
0.0208333333333333
 43
0.0
 43
0.0
 43
0.0
 43
0.0
 43
0.0208333333333333
 43
0.0
 43
0.0
 43
0.0
 43
0.0
 43
1.0
 43
0.0
 43
0.0
 43
0.0
 43
0.0
 43
1.0
 77
     0
 47
0.0208333333333333
 47
0.0
 47
0.0
 47
0.0
 47
0.0
 47
0.0208333333333333
 47
0.0
 47
0.0
 47
0.0
 47
0.0
 47
1.0
 47
0.0
 47
0.0
 47
0.0
 47
0.0
 47
1.0
171
     0
 49
0.0208333333333333
 49
0.0
 49
0.0
 49
0.0
 49
0.0
 49
0.0208333333333333
 49
0.0
 49
0.0
 49
0.0
 49
0.0
 49
1.0
 49
0.0
 49
0.0
 49
0.0
 49
0.0
 49
1.0
175
     0
142
0.0208333333333333
142
0.0
142
0.0
142
0.0
142
0.0
142
0.0208333333333333
142
0.0
142
0.0
142
0.0
142
0.0
142
1.0
142
0.0
142
0.0
142
0.0
142
0.0
142
1.0
179
     0
144
0.0208333333333333
144
0.0
144
0.0
144
0.0
144
0.0
144
0.0208333333333333
144
0.0
144
0.0
144
0.0
144
0.0
144
1.0
144
0.0
144
0.0
144
0.0
144
0.0
144
1.0
147
0.0208333333333333
147
0.0
147
0.0
147
0.0
147
0.0
147
0.0208333333333333
147
0.0
147
0.0
147
0.0
147
0.0
147
1.0
147
0.0
147
0.0
147
0.0
147
0.0
147
1.0
  0
MLEADERSTYLE
  5
66
102
{ACAD_REACTORS
330
65
102
}
330
65
100
AcDbMLeaderStyle
179
     2
170
     2
171
     1
172
     0
 90
        2
 40
0.0
 41
0.0
173
     1
 91
-1056964608
340
5A
 92
       -2
290
     1
 42
0.09
291
     1
 43
0.36
  3
Standard
 44
0.18
300

342
55
174
     1
178
     6
175
     1
176
     0
 93
-1056964608
 45
0.18
292
     0
297
     0
 46
0.18
 94
-1056964608
 47
1.0
 49
1.0
140
1.0
293
     1
141
0.0
294
     1
177
     0
142
1.0
295
     0
296
     0
143
0.125
271
     0
272
     9
273
     9
298
     0
  0
MLINESTYLE
  5
5F
102
{ACAD_REACTORS
330
5E
102
}
330
5E
100
AcDbMlineStyle
  2
STANDARD
 70
     0
  3

 62
   256
 51
90.0
 52
90.0
 71
     2
 49
0.5
 62
   256
  6
BYLAYER
 49
-0.5
 62
   256
  6
BYLAYER
  0
ACDBPLACEHOLDER
  5
F
102
{ACAD_REACTORS
330
E
102
}
330
E
  0
SCALE
  5
43
102
{ACAD_REACTORS
330
42
102
}
330
42
100
AcDbScale
 70
     0
300
1:1
140
1.0
141
1.0
290
     1
  0
SCALE
  5
44
102
{ACAD_REACTORS
330
42
102
}
330
42
100
AcDbScale
 70
     0
300
1/128" = 1'-0"
140
0.0078125
141
12.0
290
     0
  0
SCALE
  5
45
102
{ACAD_REACTORS
330
42
102
}
330
42
100
AcDbScale
 70
     0
300
1/64" = 1'-0"
140
0.015625
141
12.0
290
     0
  0
SCALE
  5
46
102
{ACAD_REACTORS
330
42
102
}
330
42
100
AcDbScale
 70
     0
300
1/32" = 1'-0"
140
0.03125
141
12.0
290
     0
  0
SCALE
  5
47
102
{ACAD_REACTORS
330
42
102
}
330
42
100
AcDbScale
 70
     0
300
1/16" = 1'-0"
140
0.0625
141
12.0
290
     0
  0
SCALE
  5
48
102
{ACAD_REACTORS
330
42
102
}
330
42
100
AcDbScale
 70
     0
300
3/32" = 1'-0"
140
0.09375
141
12.0
290
     0
  0
SCALE
  5
49
102
{ACAD_REACTORS
330
42
102
}
330
42
100
AcDbScale
 70
     0
300
1/8" = 1'-0"
140
0.125
141
12.0
290
     0
  0
SCALE
  5
4A
102
{ACAD_REACTORS
330
42
102
}
330
42
100
AcDbScale
 70
     0
300
3/16" = 1'-0"
140
0.1875
141
12.0
290
     0
  0
SCALE
  5
4B
102
{ACAD_REACTORS
330
42
102
}
330
42
100
AcDbScale
 70
     0
300
1/4" = 1'-0"
140
0.25
141
12.0
290
     0
  0
SCALE
  5
4C
102
{ACAD_REACTORS
330
42
102
}
330
42
100
AcDbScale
 70
     0
300
3/8" = 1'-0"
140
0.375
141
12.0
290
     0
  0
SCALE
  5
4D
102
{ACAD_REACTORS
330
42
102
}
330
42
100
AcDbScale
 70
     0
300
1/2" = 1'-0"
140
0.5
141
12.0
290
     0
  0
SCALE
  5
4E
102
{ACAD_REACTORS
330
42
102
}
330
42
100
AcDbScale
 70
     0
300
3/4" = 1'-0"
140
0.75
141
12.0
290
     0
  0
SCALE
  5
4F
102
{ACAD_REACTORS
330
42
102
}
330
42
100
AcDbScale
 70
     0
300
1" = 1'-0"
140
1.0
141
12.0
290
     0
  0
SCALE
  5
50
102
{ACAD_REACTORS
330
42
102
}
330
42
100
AcDbScale
 70
     0
300
1-1/2" = 1'-0"
140
1.5
141
12.0
290
     0
  0
SCALE
  5
51
102
{ACAD_REACTORS
330
42
102
}
330
42
100
AcDbScale
 70
     0
300
3" = 1'-0"
140
3.0
141
12.0
290
     0
  0
SCALE
  5
52
102
{ACAD_REACTORS
330
42
102
}
330
42
100
AcDbScale
 70
     0
300
6" = 1'-0"
140
6.0
141
12.0
290
     0
  0
SCALE
  5
53
102
{ACAD_REACTORS
330
42
102
}
330
42
100
AcDbScale
 70
     0
300
1'-0" = 1'-0"
140
12.0
141
12.0
290
     0
  0
ACDBSECTIONVIEWSTYLE
  5
68
102
{ACAD_REACTORS
330
67
102
}
330
67
100
AcDbModelDocViewStyle
 70
     0
  3
Imperial24
290
     0
300
Imperial24
 90
        0
100
AcDbSectionViewStyle
 70
     0
 71
     0
 90
       78
 71
     1
340
55
 62
   256
 40
0.24
340
0
340
0
 62
   256
 40
0.24
300
I, O, Q, S, X, Z
 40
0.48
 90
        3
 40
0.18
 90
        1
 71
     2
340
5C
 90
       25
 62
   256
340
5C
 90
       50
 62
   256
 40
0.24
 40
0.0
 40
0.24
 71
     3
340
55
 62
   256
 40
0.24
 90
        1
 40
0.75
 90
        1
300
%<\AcVar ViewType \f "%tc1">% %<\AcVar ViewSectionStartId>%-%<\AcVar ViewSectionEndId>%\PSCALE %<\AcVar ViewScale \f "%sn">%
 71
     4
 62
   256
 62
   257
300
ANSI31
 40
1.0
 90
        0
290
     0
290
     0
 90
        6
 40
0.0
 40
1.570796326794896
 40
0.2617993877991494
 40
1.308996938995747
 40
-0.2617993877991494
 40
1.832595714594044
  0
TABLESTYLE
  5
64
102
{ACAD_XDICTIONARY
360
34C
102
}
102
{ACAD_REACTORS
330
63
102
}
330
63
100
AcDbTableStyle
280
     0
  3
Standard
 70
     0
 71
     0
 40
0.06
 41
0.06
280
     0
281
     0
  7
Standard
140
0.18
170
     2
 62
     0
 63
     7
283
     0
 90
      512
 91
        0
  1

274
    -2
284
     1
 64
     0
275
    -2
285
     1
 65
     0
276
    -2
286
     1
 66
     0
277
    -2
287
     1
 67
     0
278
    -2
288
     1
 68
     0
279
    -2
289
     1
 69
     0
  7
Standard
140
0.25
170
     5
 62
     0
 63
     7
283
     0
 90
      512
 91
        0
  1

274
    -2
284
     1
 64
     0
275
    -2
285
     1
 65
     0
276
    -2
286
     1
 66
     0
277
    -2
287
     1
 67
     0
278
    -2
288
     1
 68
     0
279
    -2
289
     1
 69
     0
  7
Standard
140
0.18
170
     5
 62
     0
 63
     7
283
     0
 90
      512
 91
        0
  1

274
    -2
284
     1
 64
     0
275
    -2
285
     1
 65
     0
276
    -2
286
     1
 66
     0
277
    -2
287
     1
 67
     0
278
    -2
288
     1
 68
     0
279
    -2
289
     1
 69
     0
  0
VISUALSTYLE
  5
2F
102
{ACAD_REACTORS
330
29
102
}
330
29
100
AcDbVisualStyle
  2
2dWireframe
 70
     4
177
     3
291
     0
 70
    58
 90
        0
176
     1
 90
        2
176
     1
 90
        0
176
     1
 90
        0
176
     1
 40
0.6
176
     1
 40
30.0
176
     1
 62
     7
420
 16777215
176
     1
 90
        1
176
     1
 90
        4
176
     1
 62
     7
176
     1
 62
   257
176
     1
 90
        1
176
     1
 90
        1
176
     1
 40
1.0
176
     1
 90
        0
176
     1
 62
   257
176
     1
 40
1.0
176
     1
 90
        1
176
     1
 90
        6
176
     1
 90
        2
176
     1
 62
     7
176
     1
 90
        5
176
     1
 90
        0
176
     1
 90
        0
176
     1
290
     0
176
     1
 90
        1
176
     1
 40
0.0
176
     1
 90
        0
176
     1
290
     1
176
     1
290
     1
176
     1
290
     0
176
     1
290
     0
176
     1
290
     0
176
     1
290
     0
176
     1
290
     0
176
     1
290
     0
176
     1
290
     0
176
     1
 90
       50
176
     1
 40
0.0
176
     1
 40
1.0
176
     1
 90
        0
176
     1
 62
    18
176
     1
 90
       50
176
     1
 90
        3
176
     1
 62
     5
420
      255
176
     1
290
     0
176
     1
 90
       50
176
     1
 90
       50
176
     1
 90
       50
176
     1
290
     0
176
     1
 90
       50
176
     1
 62
   256
176
     0
 40
1.0
176
     0
 90
        2
176
     1
  1
strokes_ogs.tif
176
     1
290
     0
176
     1
 40
1.0
176
     1
 40
1.0
176
     1
  0
VISUALSTYLE
  5
2E
102
{ACAD_REACTORS
330
29
102
}
330
29
100
AcDbVisualStyle
  2
Basic
 70
     7
177
     3
291
     1
 70
    58
 90
        1
176
     1
 90
        0
176
     1
 90
        1
176
     1
 90
        0
176
     1
 40
0.6
176
     1
 40
30.0
176
     1
 62
     7
420
 16777215
176
     1
 90
        0
176
     1
 90
        4
176
     1
 62
     7
176
     1
 62
   257
176
     1
 90
        1
176
     1
 90
        1
176
     1
 40
1.0
176
     1
 90
        8
176
     1
 62
     7
176
     1
 40
1.0
176
     1
 90
        1
176
     1
 90
        6
176
     1
 90
        2
176
     1
 62
     7
176
     1
 90
        5
176
     1
 90
        0
176
     1
 90
        0
176
     1
290
     0
176
     1
 90
        1
176
     1
 40
0.0
176
     1
 90
        0
176
     1
290
     0
176
     1
290
     1
176
     1
290
     1
176
     1
290
     0
176
     1
290
     0
176
     1
290
     0
176
     1
290
     0
176
     1
290
     0
176
     1
290
     0
176
     1
 90
       50
176
     1
 40
0.0
176
     1
 40
1.0
176
     1
 90
        0
176
     1
 62
    18
176
     1
 90
       50
176
     1
 90
        3
176
     1
 62
     5
420
      255
176
     1
290
     0
176
     1
 90
       50
176
     1
 90
       50
176
     1
 90
       50
176
     1
290
     0
176
     1
 90
       50
176
     1
 62
   256
176
     0
 40
1.0
176
     0
 90
        2
176
     1
  1
strokes_ogs.tif
176
     1
290
     0
176
     1
 40
1.0
176
     1
 40
1.0
176
     1
  0
VISUALSTYLE
  5
35
102
{ACAD_REACTORS
330
29
102
}
330
29
100
AcDbVisualStyle
  2
Brighten
 70
    12
177
     3
291
     1
 70
    58
 90
        2
176
     1
 90
        2
176
     1
 90
        0
176
     1
 90
        0
176
     1
 40
0.6
176
     1
 40
30.0
176
     1
 62
     7
420
 16777215
176
     1
 90
        1
176
     1
 90
        4
176
     1
 62
     7
176
     1
 62
   257
176
     1
 90
        1
176
     1
 90
        1
176
     1
 40
1.0
176
     1
 90
        8
176
     1
 62
     7
176
     1
 40
1.0
176
     1
 90
        1
176
     1
 90
        6
176
     1
 90
        2
176
     1
 62
     7
176
     1
 90
        5
176
     1
 90
        0
176
     1
 90
        0
176
     1
290
     0
176
     1
 90
        1
176
     1
 40
50.0
176
     1
 90
        0
176
     1
290
     0
176
     1
290
     1
176
     1
290
     1
176
     1
290
     0
176
     1
290
     0
176
     1
290
     0
176
     1
290
     0
176
     1
290
     0
176
     1
290
     0
176
     1
 90
       50
176
     1
 40
0.0
176
     1
 40
1.0
176
     1
 90
        0
176
     1
 62
    18
176
     1
 90
       50
176
     1
 90
        3
176
     1
 62
     5
420
      255
176
     1
290
     0
176
     1
 90
       50
176
     1
 90
       50
176
     1
 90
       50
176
     1
290
     0
176
     1
 90
       50
176
     1
 62
   256
176
     0
 40
1.0
176
     0
 90
        2
176
     1
  1
strokes_ogs.tif
176
     1
290
     0
176
     1
 40
1.0
176
     1
 40
1.0
176
     1
  0
VISUALSTYLE
  5
39
102
{ACAD_REACTORS
330
29
102
}
330
29
100
AcDbVisualStyle
  2
ColorChange
 70
    16
177
     3
291
     1
 70
    58
 90
        2
176
     1
 90
        2
176
     1
 90
        3
176
     1
 90
        0
176
     1
 40
0.6
176
     1
 40
30.0
176
     1
 62
     8
420
  8421504
176
     1
 90
        1
176
     1
 90
        4
176
     1
 62
     7
176
     1
 62
   257
176
     1
 90
        1
176
     1
 90
        1
176
     1
 40
1.0
176
     1
 90
        8
176
     1
 62
     8
420
  8421504
176
     1
 40
1.0
176
     1
 90
        1
176
     1
 90
        6
176
     1
 90
        2
176
     1
 62
     7
176
     1
 90
        5
176
     1
 90
        0
176
     1
 90
        0
176
     1
290
     0
176
     1
 90
        1
176
     1
 40
0.0
176
     1
 90
        0
176
     1
290
     0
176
     1
290
     1
176
     1
290
     1
176
     1
290
     0
176
     1
290
     0
176
     1
290
     0
176
     1
290
     0
176
     1
290
     0
176
     1
290
     0
176
     1
 90
       50
176
     1
 40
0.0
176
     1
 40
1.0
176
     1
 90
        0
176
     1
 62
    18
176
     1
 90
       50
176
     1
 90
        3
176
     1
 62
     5
420
      255
176
     1
290
     0
176
     1
 90
       50
176
     1
 90
       50
176
     1
 90
       50
176
     1
290
     0
176
     1
 90
       50
176
     1
 62
   256
176
     0
 40
1.0
176
     0
 90
        2
176
     1
  1
strokes_ogs.tif
176
     1
290
     0
176
     1
 40
1.0
176
     1
 40
1.0
176
     1
  0
VISUALSTYLE
  5
32
102
{ACAD_REACTORS
330
29
102
}
330
29
100
AcDbVisualStyle
  2
Conceptual
 70
     9
177
     3
291
     0
 70
    58
 90
        3
176
     1
 90
        2
176
     1
 90
        0
176
     1
 90
        0
176
     1
 40
0.6
176
     1
 40
30.0
176
     1
 62
     7
420
 16777215
176
     1
 90
        2
176
     1
 90
        2
176
     1
 62
     7
176
     1
 62
   257
176
     1
 90
        1
176
     1
 90
        1
176
     1
 40
179.0
176
     1
 90
        8
176
     1
 62
     7
176
     1
 40
1.0
176
     1
 90
        1
176
     1
 90
        6
176
     1
 90
        2
176
     1
 62
     7
176
     1
 90
        3
176
     1
 90
        0
176
     1
 90
        0
176
     1
290
     0
176
     1
 90
        1
176
     1
 40
0.0
176
     1
 90
        0
176
     1
290
     0
176
     1
290
     1
176
     1
290
     1
176
     1
290
     0
176
     1
290
     0
176
     1
290
     0
176
     1
290
     0
176
     1
290
     0
176
     1
290
     0
176
     1
 90
       50
176
     1
 40
0.0
176
     1
 40
1.0
176
     1
 90
        0
176
     1
 62
    18
176
     1
 90
       50
176
     1
 90
        3
176
     1
 62
     5
420
      255
176
     1
290
     0
176
     1
 90
       50
176
     1
 90
       50
176
     1
 90
       50
176
     1
290
     0
176
     1
 90
       50
176
     1
 62
   256
176
     0
 40
1.0
176
     0
 90
        2
176
     1
  1
strokes_ogs.tif
176
     1
290
     0
176
     1
 40
1.0
176
     1
 40
1.0
176
     1
  0
VISUALSTYLE
  5
34
102
{ACAD_REACTORS
330
29
102
}
330
29
100
AcDbVisualStyle
  2
Dim
 70
    11
177
     3
291
     1
 70
    58
 90
        2
176
     1
 90
        2
176
     1
 90
        0
176
     1
 90
        0
176
     1
 40
0.6
176
     1
 40
30.0
176
     1
 62
     7
420
 16777215
176
     1
 90
        1
176
     1
 90
        4
176
     1
 62
     7
176
     1
 62
   257
176
     1
 90
        1
176
     1
 90
        1
176
     1
 40
1.0
176
     1
 90
        8
176
     1
 62
     7
176
     1
 40
1.0
176
     1
 90
        1
176
     1
 90
        6
176
     1
 90
        2
176
     1
 62
     7
176
     1
 90
        5
176
     1
 90
        0
176
     1
 90
        0
176
     1
290
     0
176
     1
 90
        1
176
     1
 40
-50.0
176
     1
 90
        0
176
     1
290
     0
176
     1
290
     1
176
     1
290
     1
176
     1
290
     0
176
     1
290
     0
176
     1
290
     0
176
     1
290
     0
176
     1
290
     0
176
     1
290
     0
176
     1
 90
       50
176
     1
 40
0.0
176
     1
 40
1.0
176
     1
 90
        0
176
     1
 62
    18
176
     1
 90
       50
176
     1
 90
        3
176
     1
 62
     5
420
      255
176
     1
290
     0
176
     1
 90
       50
176
     1
 90
       50
176
     1
 90
       50
176
     1
290
     0
176
     1
 90
       50
176
     1
 62
   256
176
     0
 40
1.0
176
     0
 90
        2
176
     1
  1
strokes_ogs.tif
176
     1
290
     0
176
     1
 40
1.0
176
     1
 40
1.0
176
     1
  0
VISUALSTYLE
  5
41
102
{ACAD_REACTORS
330
29
102
}
330
29
100
AcDbVisualStyle
  2
EdgeColorOff
 70
    22
177
     3
291
     1
 70
    58
 90
        2
176
     0
 90
        2
176
     0
 90
        0
176
     0
 90
        0
176
     0
 40
0.6
176
     0
 40
30.0
176
     0
 62
     7
420
 16777215
176
     0
 90
        1
176
     0
 90
        4
176
     0
 62
     7
176
     0
 62
   257
176
     0
 90
        1
176
     0
 90
        1
176
     0
 40
1.0
176
     0
 90
        8
176
     2
 62
     7
176
     0
 40
1.0
176
     0
 90
        1
176
     0
 90
        6
176
     0
 90
        2
176
     0
 62
     7
176
     0
 90
        5
176
     0
 90
        0
176
     0
 90
        0
176
     0
290
     0
176
     0
 90
        1
176
     0
 40
0.0
176
     0
 90
        0
176
     0
290
     0
176
     1
290
     1
176
     1
290
     1
176
     1
290
     0
176
     1
290
     0
176
     1
290
     0
176
     1
290
     0
176
     1
290
     0
176
     1
290
     0
176
     1
 90
       50
176
     0
 40
0.0
176
     0
 40
1.0
176
     0
 90
        0
176
     0
 62
    18
176
     0
 90
       50
176
     0
 90
        3
176
     0
 62
     5
420
      255
176
     0
290
     0
176
     1
 90
       50
176
     0
 90
       50
176
     0
 90
       50
176
     0
290
     0
176
     1
 90
       50
176
     0
 62
   256
176
     0
 40
1.0
176
     0
 90
        2
176
     0
  1
strokes_ogs.tif
176
     0
290
     0
176
     1
 40
1.0
176
     0
 40
1.0
176
     0
  0
VISUALSTYLE
  5
38
102
{ACAD_REACTORS
330
29
102
}
330
29
100
AcDbVisualStyle
  2
Facepattern
 70
    15
177
     3
291
     1
 70
    58
 90
        2
176
     1
 90
        2
176
     1
 90
        0
176
     1
 90
        0
176
     1
 40
0.6
176
     1
 40
30.0
176
     1
 62
     7
420
 16777215
176
     1
 90
        1
176
     1
 90
        4
176
     1
 62
     7
176
     1
 62
   257
176
     1
 90
        1
176
     1
 90
        1
176
     1
 40
1.0
176
     1
 90
        8
176
     1
 62
     7
176
     1
 40
1.0
176
     1
 90
        1
176
     1
 90
        6
176
     1
 90
        2
176
     1
 62
     7
176
     1
 90
        5
176
     1
 90
        0
176
     1
 90
        0
176
     1
290
     0
176
     1
 90
        1
176
     1
 40
0.0
176
     1
 90
        0
176
     1
290
     0
176
     1
290
     1
176
     1
290
     1
176
     1
290
     0
176
     1
290
     0
176
     1
290
     0
176
     1
290
     0
176
     1
290
     0
176
     1
290
     0
176
     1
 90
       50
176
     1
 40
0.0
176
     1
 40
1.0
176
     1
 90
        0
176
     1
 62
    18
176
     1
 90
       50
176
     1
 90
        3
176
     1
 62
     5
420
      255
176
     1
290
     0
176
     1
 90
       50
176
     1
 90
       50
176
     1
 90
       50
176
     1
290
     0
176
     1
 90
       50
176
     1
 62
   256
176
     0
 40
1.0
176
     0
 90
        2
176
     1
  1
strokes_ogs.tif
176
     1
290
     0
176
     1
 40
1.0
176
     1
 40
1.0
176
     1
  0
VISUALSTYLE
  5
2A
102
{ACAD_REACTORS
330
29
102
}
330
29
100
AcDbVisualStyle
  2
Flat
 70
     0
177
     3
291
     1
 70
    58
 90
        2
176
     1
 90
        1
176
     1
 90
        1
176
     1
 90
        2
176
     1
 40
0.6
176
     1
 40
30.0
176
     1
 62
     7
420
 16777215
176
     1
 90
        0
176
     1
 90
        0
176
     1
 62
     7
176
     1
 62
   257
176
     1
 90
        1
176
     1
 90
        1
176
     1
 40
1.0
176
     1
 90
        8
176
     1
 62
     7
176
     1
 40
1.0
176
     1
 90
        1
176
     1
 90
        6
176
     1
 90
        2
176
     1
 62
     7
176
     1
 90
        5
176
     1
 90
        0
176
     1
 90
        0
176
     1
290
     0
176
     1
 90
       13
176
     1
 40
0.0
176
     1
 90
        0
176
     1
290
     0
176
     1
290
     1
176
     1
290
     1
176
     1
290
     0
176
     1
290
     0
176
     1
290
     0
176
     1
290
     0
176
     1
290
     0
176
     1
290
     0
176
     1
 90
       50
176
     1
 40
0.0
176
     1
 40
1.0
176
     1
 90
        0
176
     1
 62
    18
176
     1
 90
       50
176
     1
 90
        3
176
     1
 62
     5
420
      255
176
     1
290
     0
176
     1
 90
       50
176
     1
 90
       50
176
     1
 90
       50
176
     1
290
     0
176
     1
 90
       50
176
     1
 62
   256
176
     0
 40
1.0
176
     0
 90
        2
176
     1
  1
strokes_ogs.tif
176
     1
290
     0
176
     1
 40
1.0
176
     1
 40
1.0
176
     1
  0
VISUALSTYLE
  5
2B
102
{ACAD_REACTORS
330
29
102
}
330
29
100
AcDbVisualStyle
  2
FlatWithEdges
 70
     1
177
     3
291
     1
 70
    58
 90
        2
176
     1
 90
        1
176
     1
 90
        1
176
     1
 90
        2
176
     1
 40
0.6
176
     1
 40
30.0
176
     1
 62
     7
420
 16777215
176
     1
 90
        1
176
     1
 90
        0
176
     1
 62
     7
176
     1
 62
   257
176
     1
 90
        1
176
     1
 90
        1
176
     1
 40
1.0
176
     1
 90
        0
176
     1
 62
   257
176
     1
 40
1.0
176
     1
 90
        1
176
     1
 90
        6
176
     1
 90
        2
176
     1
 62
     7
176
     1
 90
        5
176
     1
 90
        0
176
     1
 90
        0
176
     1
290
     0
176
     1
 90
       13
176
     1
 40
0.0
176
     1
 90
        0
176
     1
290
     0
176
     1
290
     1
176
     1
290
     1
176
     1
290
     0
176
     1
290
     0
176
     1
290
     0
176
     1
290
     0
176
     1
290
     0
176
     1
290
     0
176
     1
 90
       50
176
     1
 40
0.0
176
     1
 40
1.0
176
     1
 90
        0
176
     1
 62
    18
176
     1
 90
       50
176
     1
 90
        3
176
     1
 62
     5
420
      255
176
     1
290
     0
176
     1
 90
       50
176
     1
 90
       50
176
     1
 90
       50
176
     1
290
     0
176
     1
 90
       50
176
     1
 62
   256
176
     0
 40
1.0
176
     0
 90
        2
176
     1
  1
strokes_ogs.tif
176
     1
290
     0
176
     1
 40
1.0
176
     1
 40
1.0
176
     1
  0
VISUALSTYLE
  5
2C
102
{ACAD_REACTORS
330
29
102
}
330
29
100
AcDbVisualStyle
  2
Gouraud
 70
     2
177
     3
291
     1
 70
    58
 90
        2
176
     1
 90
        2
176
     1
 90
        1
176
     1
 90
        2
176
     1
 40
0.6
176
     1
 40
30.0
176
     1
 62
     7
420
 16777215
176
     1
 90
        0
176
     1
 90
        0
176
     1
 62
     7
176
     1
 62
   257
176
     1
 90
        1
176
     1
 90
        1
176
     1
 40
1.0
176
     1
 90
        0
176
     1
 62
     7
176
     1
 40
1.0
176
     1
 90
        1
176
     1
 90
        6
176
     1
 90
        2
176
     1
 62
     7
176
     1
 90
        5
176
     1
 90
        0
176
     1
 90
        0
176
     1
290
     0
176
     1
 90
       13
176
     1
 40
0.0
176
     1
 90
        0
176
     1
290
     0
176
     1
290
     1
176
     1
290
     1
176
     1
290
     0
176
     1
290
     0
176
     1
290
     0
176
     1
290
     0
176
     1
290
     0
176
     1
290
     0
176
     1
 90
       50
176
     1
 40
0.0
176
     1
 40
1.0
176
     1
 90
        0
176
     1
 62
    18
176
     1
 90
       50
176
     1
 90
        3
176
     1
 62
     5
420
      255
176
     1
290
     0
176
     1
 90
       50
176
     1
 90
       50
176
     1
 90
       50
176
     1
290
     0
176
     1
 90
       50
176
     1
 62
   256
176
     0
 40
1.0
176
     0
 90
        2
176
     1
  1
strokes_ogs.tif
176
     1
290
     0
176
     1
 40
1.0
176
     1
 40
1.0
176
     1
  0
VISUALSTYLE
  5
2D
102
{ACAD_REACTORS
330
29
102
}
330
29
100
AcDbVisualStyle
  2
GouraudWithEdges
 70
     3
177
     3
291
     1
 70
    58
 90
        2
176
     1
 90
        2
176
     1
 90
        1
176
     1
 90
        2
176
     1
 40
0.6
176
     1
 40
30.0
176
     1
 62
     7
420
 16777215
176
     1
 90
        1
176
     1
 90
        0
176
     1
 62
     7
176
     1
 62
   257
176
     1
 90
        1
176
     1
 90
        1
176
     1
 40
1.0
176
     1
 90
        0
176
     1
 62
   257
176
     1
 40
1.0
176
     1
 90
        1
176
     1
 90
        6
176
     1
 90
        2
176
     1
 62
     7
176
     1
 90
        5
176
     1
 90
        0
176
     1
 90
        0
176
     1
290
     0
176
     1
 90
       13
176
     1
 40
0.0
176
     1
 90
        0
176
     1
290
     0
176
     1
290
     1
176
     1
290
     1
176
     1
290
     0
176
     1
290
     0
176
     1
290
     0
176
     1
290
     0
176
     1
290
     0
176
     1
290
     0
176
     1
 90
       50
176
     1
 40
0.0
176
     1
 40
1.0
176
     1
 90
        0
176
     1
 62
    18
176
     1
 90
       50
176
     1
 90
        3
176
     1
 62
     5
420
      255
176
     1
290
     0
176
     1
 90
       50
176
     1
 90
       50
176
     1
 90
       50
176
     1
290
     0
176
     1
 90
       50
176
     1
 62
   256
176
     0
 40
1.0
176
     0
 90
        2
176
     1
  1
strokes_ogs.tif
176
     1
290
     0
176
     1
 40
1.0
176
     1
 40
1.0
176
     1
  0
VISUALSTYLE
  5
31
102
{ACAD_REACTORS
330
29
102
}
330
29
100
AcDbVisualStyle
  2
Hidden
 70
     6
177
     3
291
     0
 70
    58
 90
        1
176
     1
 90
        2
176
     1
 90
        2
176
     1
 90
        0
176
     1
 40
0.6
176
     1
 40
30.0
176
     1
 62
     7
420
 16777215
176
     1
 90
        2
176
     1
 90
        2
176
     1
 62
     7
176
     1
 62
   257
176
     1
 90
        2
176
     1
 90
        1
176
     1
 40
40.0
176
     1
 90
        0
176
     1
 62
   257
176
     1
 40
1.0
176
     1
 90
        1
176
     1
 90
        6
176
     1
 90
        2
176
     1
 62
     7
176
     1
 90
        3
176
     1
 90
        0
176
     1
 90
        0
176
     1
290
     0
176
     1
 90
        1
176
     1
 40
0.0
176
     1
 90
        0
176
     1
290
     0
176
     1
290
     1
176
     1
290
     1
176
     1
290
     0
176
     1
290
     0
176
     1
290
     0
176
     1
290
     0
176
     1
290
     0
176
     1
290
     0
176
     1
 90
       50
176
     1
 40
0.0
176
     1
 40
1.0
176
     1
 90
        0
176
     1
 62
    18
176
     1
 90
       50
176
     1
 90
        3
176
     1
 62
     5
420
      255
176
     1
290
     0
176
     1
 90
       50
176
     1
 90
       50
176
     1
 90
       50
176
     1
290
     0
176
     1
 90
       50
176
     1
 62
   256
176
     0
 40
1.0
176
     0
 90
        2
176
     1
  1
strokes_ogs.tif
176
     1
290
     0
176
     1
 40
1.0
176
     1
 40
1.0
176
     1
  0
VISUALSTYLE
  5
3F
102
{ACAD_REACTORS
330
29
102
}
330
29
100
AcDbVisualStyle
  2
JitterOff
 70
    20
177
     3
291
     1
 70
    58
 90
        2
176
     0
 90
        2
176
     0
 90
        0
176
     0
 90
        0
176
     0
 40
0.6
176
     0
 40
30.0
176
     0
 62
     7
420
 16777215
176
     0
 90
        1
176
     0
 90
        4
176
     0
 62
     7
176
     0
 62
   257
176
     0
 90
        1
176
     0
 90
        1
176
     0
 40
1.0
176
     0
 90
       10
176
     2
 62
     7
176
     0
 40
1.0
176
     0
 90
        1
176
     0
 90
        6
176
     0
 90
        2
176
     0
 62
     7
176
     0
 90
        5
176
     0
 90
        0
176
     0
 90
        0
176
     0
290
     0
176
     0
 90
        1
176
     0
 40
0.0
176
     0
 90
        0
176
     0
290
     0
176
     1
290
     1
176
     1
290
     1
176
     1
290
     0
176
     1
290
     0
176
     1
290
     0
176
     1
290
     0
176
     1
290
     0
176
     1
290
     0
176
     1
 90
       50
176
     0
 40
0.0
176
     0
 40
1.0
176
     0
 90
        0
176
     0
 62
    18
176
     0
 90
       50
176
     0
 90
        3
176
     0
 62
     5
420
      255
176
     0
290
     0
176
     1
 90
       50
176
     0
 90
       50
176
     0
 90
       50
176
     0
290
     0
176
     1
 90
       50
176
     0
 62
   256
176
     0
 40
1.0
176
     0
 90
        2
176
     0
  1
strokes_ogs.tif
176
     0
290
     0
176
     1
 40
1.0
176
     0
 40
1.0
176
     0
  0
VISUALSTYLE
  5
37
102
{ACAD_REACTORS
330
29
102
}
330
29
100
AcDbVisualStyle
  2
Linepattern
 70
    14
177
     3
291
     1
 70
    58
 90
        2
176
     1
 90
        2
176
     1
 90
        0
176
     1
 90
        0
176
     1
 40
0.6
176
     1
 40
30.0
176
     1
 62
     7
420
 16777215
176
     1
 90
        1
176
     1
 90
        4
176
     1
 62
     7
176
     1
 62
   257
176
     1
 90
        7
176
     1
 90
        7
176
     1
 40
1.0
176
     1
 90
        8
176
     1
 62
     7
176
     1
 40
1.0
176
     1
 90
        1
176
     1
 90
        6
176
     1
 90
        2
176
     1
 62
     7
176
     1
 90
        5
176
     1
 90
        0
176
     1
 90
        0
176
     1
290
     0
176
     1
 90
        1
176
     1
 40
0.0
176
     1
 90
        0
176
     1
290
     0
176
     1
290
     1
176
     1
290
     1
176
     1
290
     0
176
     1
290
     0
176
     1
290
     0
176
     1
290
     0
176
     1
290
     0
176
     1
290
     0
176
     1
 90
       50
176
     1
 40
0.0
176
     1
 40
1.0
176
     1
 90
        0
176
     1
 62
    18
176
     1
 90
       50
176
     1
 90
        3
176
     1
 62
     5
420
      255
176
     1
290
     0
176
     1
 90
       50
176
     1
 90
       50
176
     1
 90
       50
176
     1
290
     0
176
     1
 90
       50
176
     1
 62
   256
176
     0
 40
1.0
176
     0
 90
        2
176
     1
  1
strokes_ogs.tif
176
     1
290
     0
176
     1
 40
1.0
176
     1
 40
1.0
176
     1
  0
VISUALSTYLE
  5
40
102
{ACAD_REACTORS
330
29
102
}
330
29
100
AcDbVisualStyle
  2
OverhangOff
 70
    21
177
     3
291
     1
 70
    58
 90
        2
176
     0
 90
        2
176
     0
 90
        0
176
     0
 90
        0
176
     0
 40
0.6
176
     0
 40
30.0
176
     0
 62
     7
420
 16777215
176
     0
 90
        1
176
     0
 90
        4
176
     0
 62
     7
176
     0
 62
   257
176
     0
 90
        1
176
     0
 90
        1
176
     0
 40
1.0
176
     0
 90
        9
176
     2
 62
     7
176
     0
 40
1.0
176
     0
 90
        1
176
     0
 90
        6
176
     0
 90
        2
176
     0
 62
     7
176
     0
 90
        5
176
     0
 90
        0
176
     0
 90
        0
176
     0
290
     0
176
     0
 90
        1
176
     0
 40
0.0
176
     0
 90
        0
176
     0
290
     0
176
     1
290
     1
176
     1
290
     1
176
     1
290
     0
176
     1
290
     0
176
     1
290
     0
176
     1
290
     0
176
     1
290
     0
176
     1
290
     0
176
     1
 90
       50
176
     0
 40
0.0
176
     0
 40
1.0
176
     0
 90
        0
176
     0
 62
    18
176
     0
 90
       50
176
     0
 90
        3
176
     0
 62
     5
420
      255
176
     0
290
     0
176
     1
 90
       50
176
     0
 90
       50
176
     0
 90
       50
176
     0
290
     0
176
     1
 90
       50
176
     0
 62
   256
176
     0
 40
1.0
176
     0
 90
        2
176
     0
  1
strokes_ogs.tif
176
     0
290
     0
176
     1
 40
1.0
176
     0
 40
1.0
176
     0
  0
VISUALSTYLE
  5
33
102
{ACAD_REACTORS
330
29
102
}
330
29
100
AcDbVisualStyle
  2
Realistic
 70
     8
177
     3
291
     0
 70
    58
 90
        2
176
     1
 90
        3
176
     1
 90
        0
176
     1
 90
        2
176
     1
 40
0.6
176
     1
 40
30.0
176
     1
 62
     7
420
 16777215
176
     1
 90
        0
176
     1
 90
        0
176
     1
 62
     7
176
     1
 62
   257
176
     1
 90
        1
176
     1
 90
        1
176
     1
 40
1.0
176
     1
 90
        8
176
     1
 62
   257
176
     1
 40
1.0
176
     1
 90
        1
176
     1
 90
        6
176
     1
 90
        2
176
     1
 62
     7
176
     1
 90
        3
176
     1
 90
        0
176
     1
 90
        0
176
     1
290
     0
176
     1
 90
       13
176
     1
 40
0.0
176
     1
 90
        0
176
     1
290
     0
176
     1
290
     1
176
     1
290
     1
176
     1
290
     0
176
     1
290
     0
176
     1
290
     0
176
     1
290
     0
176
     1
290
     0
176
     1
290
     0
176
     1
 90
       50
176
     1
 40
0.0
176
     1
 40
1.0
176
     1
 90
        0
176
     1
 62
    18
176
     1
 90
       50
176
     1
 90
        3
176
     1
 62
     5
420
      255
176
     1
290
     0
176
     1
 90
       50
176
     1
 90
       50
176
     1
 90
       50
176
     1
290
     0
176
     1
 90
       50
176
     1
 62
   256
176
     0
 40
1.0
176
     0
 90
        2
176
     1
  1
strokes_ogs.tif
176
     1
290
     0
176
     1
 40
1.0
176
     1
 40
1.0
176
     1
  0
VISUALSTYLE
  5
3E
102
{ACAD_REACTORS
330
29
102
}
330
29
100
AcDbVisualStyle
  2
Shaded
 70
    27
177
     3
291
     0
 70
    58
 90
        2
176
     1
 90
        2
176
     1
 90
        1
176
     1
 90
        2
176
     1
 40
0.6
176
     1
 40
30.0
176
     1
 62
     7
420
 16777215
176
     1
 90
        0
176
     1
 90
        4
176
     1
 62
     7
176
     1
 62
   257
176
     1
 90
        1
176
     1
 90
        1
176
     1
 40
1.0
176
     1
 90
        8
176
     1
 62
   257
176
     1
 40
1.0
176
     1
 90
        1
176
     1
 90
        6
176
     1
 90
        2
176
     1
 62
     8
420
  7895160
176
     1
 90
        3
176
     1
 90
        0
176
     1
 90
        0
176
     1
290
     0
176
     1
 90
        5
176
     1
 40
0.0
176
     1
 90
        0
176
     1
290
     0
176
     1
290
     1
176
     1
290
     1
176
     1
290
     0
176
     1
290
     0
176
     1
290
     0
176
     1
290
     0
176
     1
290
     0
176
     1
290
     0
176
     1
 90
       50
176
     1
 40
0.0
176
     1
 40
1.0
176
     1
 90
        0
176
     1
 62
    18
176
     1
 90
       50
176
     1
 90
        3
176
     1
 62
     5
420
      255
176
     1
290
     0
176
     1
 90
       50
176
     1
 90
       50
176
     1
 90
       50
176
     1
290
     0
176
     1
 90
       50
176
     1
 62
   256
176
     0
 40
1.0
176
     0
 90
        2
176
     1
  1
strokes_ogs.tif
176
     1
290
     0
176
     1
 40
1.0
176
     1
 40
1.0
176
     1
  0
VISUALSTYLE
  5
3D
102
{ACAD_REACTORS
330
29
102
}
330
29
100
AcDbVisualStyle
  2
Shaded with edges
 70
    26
177
     3
291
     0
 70
    58
 90
        2
176
     1
 90
        2
176
     1
 90
        1
176
     1
 90
        2
176
     1
 40
0.6
176
     1
 40
30.0
176
     1
 62
     7
420
 16777215
176
     1
 90
        1
176
     1
 90
        2
176
     1
 62
     7
176
     1
 62
   257
176
     1
 90
        2
176
     1
 90
        1
176
     1
 40
1.0
176
     1
 90
        8
176
     1
 62
   257
176
     1
 40
1.0
176
     1
 90
        1
176
     1
 90
        6
176
     1
 90
        2
176
     1
 62
     7
176
     1
 90
        3
176
     1
 90
        0
176
     1
 90
        0
176
     1
290
     0
176
     1
 90
        5
176
     1
 40
0.0
176
     1
 90
        0
176
     1
290
     0
176
     1
290
     1
176
     1
290
     1
176
     1
290
     0
176
     1
290
     0
176
     1
290
     0
176
     1
290
     0
176
     1
290
     0
176
     1
290
     0
176
     1
 90
       50
176
     1
 40
0.0
176
     1
 40
1.0
176
     1
 90
        0
176
     1
 62
    18
176
     1
 90
       50
176
     1
 90
        3
176
     1
 62
     5
420
      255
176
     1
290
     0
176
     1
 90
       50
176
     1
 90
       50
176
     1
 90
       50
176
     1
290
     0
176
     1
 90
       50
176
     1
 62
   256
176
     0
 40
1.0
176
     0
 90
        2
176
     1
  1
strokes_ogs.tif
176
     1
290
     0
176
     1
 40
1.0
176
     1
 40
1.0
176
     1
  0
VISUALSTYLE
  5
3A
102
{ACAD_REACTORS
330
29
102
}
330
29
100
AcDbVisualStyle
  2
Shades of Gray
 70
    23
177
     3
291
     0
 70
    58
 90
        2
176
     1
 90
        2
176
     1
 90
        3
176
     1
 90
        0
176
     1
 40
0.6
176
     1
 40
30.0
176
     1
 62
     7
420
 16777215
176
     1
 90
        2
176
     1
 90
        2
176
     1
 62
     7
176
     1
 62
     7
176
     1
 90
        1
176
     1
 90
        1
176
     1
 40
40.0
176
     1
 90
        8
176
     1
 62
     7
176
     1
 40
1.0
176
     1
 90
        1
176
     1
 90
        6
176
     1
 90
        2
176
     1
 62
     7
176
     1
 90
        3
176
     1
 90
        0
176
     1
 90
        0
176
     1
290
     0
176
     1
 90
        1
176
     1
 40
0.0
176
     1
 90
        0
176
     1
290
     0
176
     1
290
     1
176
     1
290
     1
176
     1
290
     0
176
     1
290
     0
176
     1
290
     0
176
     1
290
     0
176
     1
290
     0
176
     1
290
     0
176
     1
 90
       50
176
     1
 40
0.0
176
     1
 40
1.0
176
     1
 90
        0
176
     1
 62
    18
176
     1
 90
       50
176
     1
 90
        3
176
     1
 62
     5
420
      255
176
     1
290
     0
176
     1
 90
       50
176
     1
 90
       50
176
     1
 90
       50
176
     1
290
     0
176
     1
 90
       50
176
     1
 62
   256
176
     0
 40
1.0
176
     0
 90
        2
176
     1
  1
strokes_ogs.tif
176
     1
290
     0
176
     1
 40
1.0
176
     1
 40
1.0
176
     1
  0
VISUALSTYLE
  5
3B
102
{ACAD_REACTORS
330
29
102
}
330
29
100
AcDbVisualStyle
  2
Sketchy
 70
    24
177
     3
291
     0
 70
    58
 90
        1
176
     1
 90
        2
176
     1
 90
        2
176
     1
 90
        0
176
     1
 40
0.6
176
     1
 40
30.0
176
     1
 62
     7
420
 16777215
176
     1
 90
        2
176
     1
 90
        2
176
     1
 62
     7
176
     1
 62
     7
176
     1
 90
        1
176
     1
 90
        1
176
     1
 40
40.0
176
     1
 90
       11
176
     1
 62
     7
176
     1
 40
1.0
176
     1
 90
        1
176
     1
 90
        6
176
     1
 90
        2
176
     1
 62
     7
176
     1
 90
        6
176
     1
 90
        0
176
     1
 90
        0
176
     1
290
     0
176
     1
 90
        1
176
     1
 40
0.0
176
     1
 90
        0
176
     1
290
     0
176
     1
290
     1
176
     1
290
     1
176
     1
290
     0
176
     1
290
     0
176
     1
290
     0
176
     1
290
     0
176
     1
290
     0
176
     1
290
     0
176
     1
 90
       50
176
     1
 40
0.0
176
     1
 40
1.0
176
     1
 90
        0
176
     1
 62
    18
176
     1
 90
       50
176
     1
 90
        3
176
     1
 62
     5
420
      255
176
     1
290
     0
176
     1
 90
       50
176
     1
 90
       50
176
     1
 90
       50
176
     1
290
     0
176
     1
 90
       50
176
     1
 62
   256
176
     0
 40
1.0
176
     0
 90
        2
176
     1
  1
strokes_ogs.tif
176
     1
290
     0
176
     1
 40
1.0
176
     1
 40
1.0
176
     1
  0
VISUALSTYLE
  5
36
102
{ACAD_REACTORS
330
29
102
}
330
29
100
AcDbVisualStyle
  2
Thicken
 70
    13
177
     3
291
     1
 70
    58
 90
        2
176
     1
 90
        2
176
     1
 90
        0
176
     1
 90
        0
176
     1
 40
0.6
176
     1
 40
30.0
176
     1
 62
     7
420
 16777215
176
     1
 90
        1
176
     1
 90
        4
176
     1
 62
     7
176
     1
 62
   257
176
     1
 90
        1
176
     1
 90
        1
176
     1
 40
1.0
176
     1
 90
       12
176
     1
 62
     7
176
     1
 40
1.0
176
     1
 90
        1
176
     1
 90
        6
176
     1
 90
        2
176
     1
 62
     7
176
     1
 90
        5
176
     1
 90
        0
176
     1
 90
        0
176
     1
290
     0
176
     1
 90
        1
176
     1
 40
0.0
176
     1
 90
        0
176
     1
290
     0
176
     1
290
     1
176
     1
290
     1
176
     1
290
     0
176
     1
290
     0
176
     1
290
     0
176
     1
290
     0
176
     1
290
     0
176
     1
290
     0
176
     1
 90
       50
176
     1
 40
0.0
176
     1
 40
1.0
176
     1
 90
        0
176
     1
 62
    18
176
     1
 90
       50
176
     1
 90
        3
176
     1
 62
     5
420
      255
176
     1
290
     0
176
     1
 90
       50
176
     1
 90
       50
176
     1
 90
       50
176
     1
290
     0
176
     1
 90
       50
176
     1
 62
   256
176
     0
 40
1.0
176
     0
 90
        2
176
     1
  1
strokes_ogs.tif
176
     1
290
     0
176
     1
 40
1.0
176
     1
 40
1.0
176
     1
  0
VISUALSTYLE
  5
30
102
{ACAD_REACTORS
330
29
102
}
330
29
100
AcDbVisualStyle
  2
Wireframe
 70
     5
177
     3
291
     0
 70
    58
 90
        0
176
     1
 90
        2
176
     1
 90
        0
176
     1
 90
        0
176
     1
 40
0.6
176
     1
 40
30.0
176
     1
 62
     7
420
 16777215
176
     1
 90
        1
176
     1
 90
        4
176
     1
 62
     7
176
     1
 62
   257
176
     1
 90
        1
176
     1
 90
        1
176
     1
 40
1.0
176
     1
 90
        0
176
     1
 62
   257
176
     1
 40
1.0
176
     1
 90
        1
176
     1
 90
        6
176
     1
 90
        2
176
     1
 62
     7
176
     1
 90
        3
176
     1
 90
        0
176
     1
 90
        0
176
     1
290
     0
176
     1
 90
        1
176
     1
 40
0.0
176
     1
 90
        0
176
     1
290
     0
176
     1
290
     1
176
     1
290
     1
176
     1
290
     0
176
     1
290
     0
176
     1
290
     0
176
     1
290
     0
176
     1
290
     0
176
     1
290
     0
176
     1
 90
       50
176
     1
 40
0.0
176
     1
 40
1.0
176
     1
 90
        0
176
     1
 62
    18
176
     1
 90
       50
176
     1
 90
        3
176
     1
 62
     5
420
      255
176
     1
290
     0
176
     1
 90
       50
176
     1
 90
       50
176
     1
 90
       50
176
     1
290
     0
176
     1
 90
       50
176
     1
 62
   256
176
     0
 40
1.0
176
     0
 90
        2
176
     1
  1
strokes_ogs.tif
176
     1
290
     0
176
     1
 40
1.0
176
     1
 40
1.0
176
     1
  0
VISUALSTYLE
  5
3C
102
{ACAD_REACTORS
330
29
102
}
330
29
100
AcDbVisualStyle
  2
X-Ray
 70
    25
177
     3
291
     0
 70
    58
 90
        2
176
     1
 90
        2
176
     1
 90
        1
176
     1
 90
        1
176
     1
 40
0.5
176
     1
 40
30.0
176
     1
 62
     7
420
 16777215
176
     1
 90
        1
176
     1
 90
        0
176
     1
 62
     7
176
     1
 62
   257
176
     1
 90
        1
176
     1
 90
        1
176
     1
 40
1.0
176
     1
 90
        8
176
     1
 62
     7
176
     1
 40
1.0
176
     1
 90
        1
176
     1
 90
        6
176
     1
 90
        2
176
     1
 62
     7
176
     1
 90
        3
176
     1
 90
        0
176
     1
 90
        0
176
     1
290
     0
176
     1
 90
       13
176
     1
 40
0.0
176
     1
 90
        0
176
     1
290
     0
176
     1
290
     1
176
     1
290
     1
176
     1
290
     0
176
     1
290
     0
176
     1
290
     0
176
     1
290
     0
176
     1
290
     0
176
     1
290
     0
176
     1
 90
       50
176
     1
 40
0.0
176
     1
 40
1.0
176
     1
 90
        0
176
     1
 62
    18
176
     1
 90
       50
176
     1
 90
        3
176
     1
 62
     5
420
      255
176
     1
290
     0
176
     1
 90
       50
176
     1
 90
       50
176
     1
 90
       50
176
     1
290
     0
176
     1
 90
       50
176
     1
 62
   256
176
     0
 40
1.0
176
     0
 90
        2
176
     1
  1
strokes_ogs.tif
176
     1
290
     0
176
     1
 40
1.0
176
     1
 40
1.0
176
     1
  0
DICTIONARYVAR
  5
20D
102
{ACAD_REACTORS
330
207
102
}
330
207
100
DictionaryVariables
280
     0
  1
1:1
  0
DICTIONARYVAR
  5
209
102
{ACAD_REACTORS
330
207
102
}
330
207
100
DictionaryVariables
280
     0
  1
STANDARD
  0
DICTIONARYVAR
  5
208
102
{ACAD_REACTORS
330
207
102
}
330
207
100
DictionaryVariables
280
     0
  1
STANDARD
  0
DICTIONARYVAR
  5
20A
102
{ACAD_REACTORS
330
207
102
}
330
207
100
DictionaryVariables
280
     0
  1
Imperial24
  0
DICTIONARYVAR
  5
20B
102
{ACAD_REACTORS
330
207
102
}
330
207
100
DictionaryVariables
280
     0
  1
Imperial24
  0
DICTIONARYVAR
  5
20F
102
{ACAD_REACTORS
330
207
102
}
330
207
100
DictionaryVariables
280
     0
  1
1
  0
DICTIONARYVAR
  5
210
102
{ACAD_REACTORS
330
207
102
}
330
207
100
DictionaryVariables
280
     0
  1
15
  0
DICTIONARYVAR
  5
20E
102
{ACAD_REACTORS
330
207
102
}
330
207
100
DictionaryVariables
280
     0
  1
0
  0
DICTIONARYVAR
  5
20C
102
{ACAD_REACTORS
330
207
102
}
330
207
100
DictionaryVariables
280
     0
  1
0
  0
DICTIONARY
  5
1A
330
19
100
AcDbDictionary
280
     1
281
     1
  3
BUMPTILE
360
1C
  3
DIFFUSETILE
360
1B
  3
OPACITYTILE
360
1F
  3
REFLECTIONTILE
360
1E
  3
REFRACTIONTILE
360
20
  3
SPECULARTILE
360
1D
  0
DICTIONARY
  5
12
330
11
100
AcDbDictionary
280
     1
281
     1
  3
BUMPTILE
360
14
  3
DIFFUSETILE
360
13
  3
OPACITYTILE
360
17
  3
REFLECTIONTILE
360
16
  3
REFRACTIONTILE
360
18
  3
SPECULARTILE
360
15
  0
DICTIONARY
  5
22
330
21
100
AcDbDictionary
280
     1
281
     1
  3
BUMPTILE
360
24
  3
DIFFUSETILE
360
23
  3
OPACITYTILE
360
27
  3
REFLECTIONTILE
360
26
  3
REFRACTIONTILE
360
28
  3
SPECULARTILE
360
25
  0
DICTIONARY
  5
34C
330
64
100
AcDbDictionary
280
     1
281
     1
  3
ACAD_ROUNDTRIP_2008_TABLESTYLE_CELLSTYLEMAP
360
A6E
  0
XRECORD
  5
1C
102
{ACAD_REACTORS
330
1A
102
}
330
1A
100
AcDbXrecord
280
     1
270
     1
271
     1
  0
XRECORD
  5
1B
102
{ACAD_REACTORS
330
1A
102
}
330
1A
100
AcDbXrecord
280
     1
270
     1
271
     1
  0
XRECORD
  5
1F
102
{ACAD_REACTORS
330
1A
102
}
330
1A
100
AcDbXrecord
280
     1
270
     1
271
     1
  0
XRECORD
  5
1E
102
{ACAD_REACTORS
330
1A
102
}
330
1A
100
AcDbXrecord
280
     1
270
     1
271
     1
  0
XRECORD
  5
20
102
{ACAD_REACTORS
330
1A
102
}
330
1A
100
AcDbXrecord
280
     1
270
     1
271
     1
  0
XRECORD
  5
1D
102
{ACAD_REACTORS
330
1A
102
}
330
1A
100
AcDbXrecord
280
     1
270
     1
271
     1
  0
XRECORD
  5
14
102
{ACAD_REACTORS
330
12
102
}
330
12
100
AcDbXrecord
280
     1
270
     1
271
     1
  0
XRECORD
  5
13
102
{ACAD_REACTORS
330
12
102
}
330
12
100
AcDbXrecord
280
     1
270
     1
271
     1
  0
XRECORD
  5
17
102
{ACAD_REACTORS
330
12
102
}
330
12
100
AcDbXrecord
280
     1
270
     1
271
     1
  0
XRECORD
  5
16
102
{ACAD_REACTORS
330
12
102
}
330
12
100
AcDbXrecord
280
     1
270
     1
271
     1
  0
XRECORD
  5
18
102
{ACAD_REACTORS
330
12
102
}
330
12
100
AcDbXrecord
280
     1
270
     1
271
     1
  0
XRECORD
  5
15
102
{ACAD_REACTORS
330
12
102
}
330
12
100
AcDbXrecord
280
     1
270
     1
271
     1
  0
XRECORD
  5
24
102
{ACAD_REACTORS
330
22
102
}
330
22
100
AcDbXrecord
280
     1
270
     1
271
     1
  0
XRECORD
  5
23
102
{ACAD_REACTORS
330
22
102
}
330
22
100
AcDbXrecord
280
     1
270
     1
271
     1
  0
XRECORD
  5
27
102
{ACAD_REACTORS
330
22
102
}
330
22
100
AcDbXrecord
280
     1
270
     1
271
     1
  0
XRECORD
  5
26
102
{ACAD_REACTORS
330
22
102
}
330
22
100
AcDbXrecord
280
     1
270
     1
271
     1
  0
XRECORD
  5
28
102
{ACAD_REACTORS
330
22
102
}
330
22
100
AcDbXrecord
280
     1
270
     1
271
     1
  0
XRECORD
  5
25
102
{ACAD_REACTORS
330
22
102
}
330
22
100
AcDbXrecord
280
     1
270
     1
271
     1
  0
CELLSTYLEMAP
  5
A6E
102
{ACAD_REACTORS
330
34C
102
}
330
34C
100
AcDbCellStyleMap
 90
        3
300
CELLSTYLE
  1
TABLEFORMAT_BEGIN
 90
        5
170
     1
 91
        0
 92
    32768
 62
   257
 93
        1
300
CONTENTFORMAT
  1
CONTENTFORMAT_BEGIN
 90
        0
 91
        0
 92
      512
 93
        0
300

 40
0.0
140
1.0
 94
        5
 62
     0
340
55
144
0.25
309
CONTENTFORMAT_END
171
     1
301
MARGIN
  1
CELLMARGIN_BEGIN
 40
0.06
 40
0.06
 40
0.06
 40
0.06
 40
0.18
 40
0.18
309
CELLMARGIN_END
 94
        6
 95
        1
302
GRIDFORMAT
  1
GRIDFORMAT_BEGIN
 90
        0
 91
        1
 62
     0
 92
       -2
340
0
 93
        0
 40
0.045
309
GRIDFORMAT_END
 95
        2
302
GRIDFORMAT
  1
GRIDFORMAT_BEGIN
 90
        0
 91
        1
 62
     0
 92
       -2
340
0
 93
        0
 40
0.045
309
GRIDFORMAT_END
 95
        4
302
GRIDFORMAT
  1
GRIDFORMAT_BEGIN
 90
        0
 91
        1
 62
     0
 92
       -2
340
0
 93
        0
 40
0.045
309
GRIDFORMAT_END
 95
        8
302
GRIDFORMAT
  1
GRIDFORMAT_BEGIN
 90
        0
 91
        1
 62
     0
 92
       -2
340
0
 93
        0
 40
0.045
309
GRIDFORMAT_END
 95
       16
302
GRIDFORMAT
  1
GRIDFORMAT_BEGIN
 90
        0
 91
        1
 62
     0
 92
       -2
340
0
 93
        0
 40
0.045
309
GRIDFORMAT_END
 95
       32
302
GRIDFORMAT
  1
GRIDFORMAT_BEGIN
 90
        0
 91
        1
 62
     0
 92
       -2
340
0
 93
        0
 40
0.045
309
GRIDFORMAT_END
309
TABLEFORMAT_END
  1
CELLSTYLE_BEGIN
 90
        1
 91
        1
300
_TITLE
309
CELLSTYLE_END
300
CELLSTYLE
  1
TABLEFORMAT_BEGIN
 90
        5
170
     1
 91
        0
 92
        0
 62
   257
 93
        1
300
CONTENTFORMAT
  1
CONTENTFORMAT_BEGIN
 90
        0
 91
        0
 92
      512
 93
        0
300

 40
0.0
140
1.0
 94
        5
 62
     0
340
55
144
0.18
309
CONTENTFORMAT_END
171
     1
301
MARGIN
  1
CELLMARGIN_BEGIN
 40
0.06
 40
0.06
 40
0.06
 40
0.06
 40
0.18
 40
0.18
309
CELLMARGIN_END
 94
        6
 95
        1
302
GRIDFORMAT
  1
GRIDFORMAT_BEGIN
 90
        0
 91
        1
 62
     0
 92
       -2
340
0
 93
        0
 40
0.045
309
GRIDFORMAT_END
 95
        2
302
GRIDFORMAT
  1
GRIDFORMAT_BEGIN
 90
        0
 91
        1
 62
     0
 92
       -2
340
0
 93
        0
 40
0.045
309
GRIDFORMAT_END
 95
        4
302
GRIDFORMAT
  1
GRIDFORMAT_BEGIN
 90
        0
 91
        1
 62
     0
 92
       -2
340
0
 93
        0
 40
0.045
309
GRIDFORMAT_END
 95
        8
302
GRIDFORMAT
  1
GRIDFORMAT_BEGIN
 90
        0
 91
        1
 62
     0
 92
       -2
340
0
 93
        0
 40
0.045
309
GRIDFORMAT_END
 95
       16
302
GRIDFORMAT
  1
GRIDFORMAT_BEGIN
 90
        0
 91
        1
 62
     0
 92
       -2
340
0
 93
        0
 40
0.045
309
GRIDFORMAT_END
 95
       32
302
GRIDFORMAT
  1
GRIDFORMAT_BEGIN
 90
        0
 91
        1
 62
     0
 92
       -2
340
0
 93
        0
 40
0.045
309
GRIDFORMAT_END
309
TABLEFORMAT_END
  1
CELLSTYLE_BEGIN
 90
        2
 91
        1
300
_HEADER
309
CELLSTYLE_END
300
CELLSTYLE
  1
TABLEFORMAT_BEGIN
 90
        5
170
     1
 91
        0
 92
        0
 62
   257
 93
        1
300
CONTENTFORMAT
  1
CONTENTFORMAT_BEGIN
 90
        0
 91
        0
 92
      512
 93
        0
300

 40
0.0
140
1.0
 94
        2
 62
     0
340
55
144
0.18
309
CONTENTFORMAT_END
171
     1
301
MARGIN
  1
CELLMARGIN_BEGIN
 40
0.06
 40
0.06
 40
0.06
 40
0.06
 40
0.18
 40
0.18
309
CELLMARGIN_END
 94
        6
 95
        1
302
GRIDFORMAT
  1
GRIDFORMAT_BEGIN
 90
        0
 91
        1
 62
     0
 92
       -2
340
0
 93
        0
 40
0.045
309
GRIDFORMAT_END
 95
        2
302
GRIDFORMAT
  1
GRIDFORMAT_BEGIN
 90
        0
 91
        1
 62
     0
 92
       -2
340
0
 93
        0
 40
0.045
309
GRIDFORMAT_END
 95
        4
302
GRIDFORMAT
  1
GRIDFORMAT_BEGIN
 90
        0
 91
        1
 62
     0
 92
       -2
340
0
 93
        0
 40
0.045
309
GRIDFORMAT_END
 95
        8
302
GRIDFORMAT
  1
GRIDFORMAT_BEGIN
 90
        0
 91
        1
 62
     0
 92
       -2
340
0
 93
        0
 40
0.045
309
GRIDFORMAT_END
 95
       16
302
GRIDFORMAT
  1
GRIDFORMAT_BEGIN
 90
        0
 91
        1
 62
     0
 92
       -2
340
0
 93
        0
 40
0.045
309
GRIDFORMAT_END
 95
       32
302
GRIDFORMAT
  1
GRIDFORMAT_BEGIN
 90
        0
 91
        1
 62
     0
 92
       -2
340
0
 93
        0
 40
0.045
309
GRIDFORMAT_END
309
TABLEFORMAT_END
  1
CELLSTYLE_BEGIN
 90
        3
 91
        2
300
_DATA
309
CELLSTYLE_END
  0
ENDSEC
  0
SECTION
  2
ACDSDATA
 70
     2
 71
     8
  0
ACDSSCHEMA
 90
        0
  1
AcDb_Thumbnail_Schema
  2
AcDbDs::ID
280
    10
 91
        8
  2
Thumbnail_Data
280
    15
 91
        0
101
ACDSRECORD
 95
        0
 90
        1
  2
AcDbDs::TreatedAsObjectData
280
     1
291
     1
101
ACDSRECORD
 95
        0
 90
        2
  2
AcDbDs::Legacy
280
     1
291
     1
101
ACDSRECORD
  1
AcDbDs::ID
 90
        3
  2
AcDs:Indexable
280
     1
291
     1
101
ACDSRECORD
  1
AcDbDs::ID
 90
        4
  2
AcDbDs::HandleAttribute
280
     7
282
     1
  0
ACDSSCHEMA
 90
        1
  1
AcDbDs::TreatedAsObjectDataSchema
  2
AcDbDs::TreatedAsObjectData
280
     1
 91
        0
  0
ACDSSCHEMA
 90
        2
  1
AcDbDs::LegacySchema
  2
AcDbDs::Legacy
280
     1
 91
        0
  0
ACDSSCHEMA
 90
        3
  1
AcDbDs::IndexedPropertySchema
  2
AcDs:Indexable
280
     1
 91
        0
  0
ACDSSCHEMA
 90
        4
  1
AcDbDs::HandleAttributeSchema
  2
AcDbDs::HandleAttribute
280
     7
 91
        1
284
     1
  0
ACDSRECORD
 90
        0
  2
AcDbDs::ID
280
    10
320
72
  2
Thumbnail_Data
280
    15
 94
     1322
310
89504E470D0A1A0A0000000D49484452000001000000006F08030000003479EE6F00000300504C5445212830FFFFFF2128300000000000000000000000000000000000000000000000000000330000660000990000CC0000FF0033000033330033660033990033CC0033FF0066000066330066660066990066CC0066FF0099
310
000099330099660099990099CC0099FF00CC0000CC3300CC6600CC9900CCCC00CCFF00FF0000FF3300FF6600FF9900FFCC00FFFF3300003300333300663300993300CC3300FF3333003333333333663333993333CC3333FF3366003366333366663366993366CC3366FF3399003399333399663399993399CC3399FF33CC00
310
33CC3333CC6633CC9933CCCC33CCFF33FF0033FF3333FF6633FF9933FFCC33FFFF6600006600336600666600996600CC6600FF6633006633336633666633996633CC6633FF6666006666336666666666996666CC6666FF6699006699336699666699996699CC6699FF66CC0066CC3366CC6666CC9966CCCC66CCFF66FF0066
310
FF3366FF6666FF9966FFCC66FFFF9900009900339900669900999900CC9900FF9933009933339933669933999933CC9933FF9966009966339966669966999966CC9966FF9999009999339999669999999999CC9999FF99CC0099CC3399CC6699CC9999CCCC99CCFF99FF0099FF3399FF6699FF9999FFCC99FFFFCC0000CC00
310
33CC0066CC0099CC00CCCC00FFCC3300CC3333CC3366CC3399CC33CCCC33FFCC6600CC6633CC6666CC6699CC66CCCC66FFCC9900CC9933CC9966CC9999CC99CCCC99FFCCCC00CCCC33CCCC66CCCC99CCCCCCCCCCFFCCFF00CCFF33CCFF66CCFF99CCFFCCCCFFFFFF0000FF0033FF0066FF0099FF00CCFF00FFFF3300FF3333
310
FF3366FF3399FF33CCFF33FFFF6600FF6633FF6666FF6699FF66CCFF66FFFF9900FF9933FF9966FF9999FF99CCFF99FFFFCC00FFCC33FFCC66FFCC99FFCCCCFFCCFFFFFF00FFFF33FFFF66FFFF99FFFFCCFFFFFF0000000D0D0D1A1A1A2828283535354343435050505D5D5D6B6B6B787878868686939393A1A1A1AEAEAEBB
310
BBBBC9C9C9D6D6D6E4E4E4F1F1F1FFFFFF0000000000000000000000000000000000000000000000000000000000002E4550F1000001E54944415478DAED9B5B72C3200C45594EF7BF0076A5FFA6933E6CF39410A909E7FE7412992B7A4C3196A62120841042082184104208218410420821841042082184104208BDAB64BA
310
5E976960725A6A8AF077964B32194AE078FBE703787E963187DBFDDD28C3296859FAF77F2B00879DE0B839C474A368EC23B5E8EF0F8341261CEB5B6CEC1E2C976DEAC02526B7EF188EC9DD9542F8F97DE3920EFF50F51FF4FE99600885CB92651993F55A1C1CC4C5DF9ABECB1B00000000000070BEEAF1B4AC989CA28DC179
310
006A7F6BFA2EEFD4441E9CA468728E36066701E8FDADE9BBBCF3267F9F7326D71CC5C145003A7F6BFAF6E08F196A009895D63453A715500FDF7905E44DBE5E19CA3338457BC2B3FD07BDE73FA6363807000000000000005605E051130CCBD6044D55E1A8ACDACA78E576665538A758ADA5D7A3695826FB3B7A030000000000
310
00B602C03960F79320EF0200000000B6029009DF0F805F73DA0AC0B97BABF4776C4E7779CFEFDEEAFC3D9BD35DDE77EB0D7A36A7DBDE7487775F0179937FED0E1BD28F79F31804C04B4E6A000000000000808ABFA924A9AF0966C3DE45CBE47F7EE452742ED4660D855D7555F81A766B311FC3A1D91898D9DB180BCF990100
310
00000000000000217F54683FAB973B07741C84F4A7B5954E82BC0B006019009F930668E325C030D90000000049454E44AE426082
  0
ENDSEC
  0
EOF
