  0
SECTION
  2
HEADER
  9
$ACADVER
  1
AC1032
  9
$ACADMAINTVER
 90
      174
  9
$DWGCODEPAGE
  3
ANSI_1252
  9
$LASTSAVEDBY
  1
lfgab
  9
$REQUIREDVERSIONS
160
                 0
  9
$INSBASE
 10
0.0
 20
0.0
 30
0.0
  9
$EXTMIN
 10
-125.1123343949259
 20
31.06830921313267
 30
0.0
  9
$EXTMAX
 10
118.1254272909748
 20
94.12102864612595
 30
0.0
  9
$LIMMIN
 10
0.0
 20
0.0
  9
$LIMMAX
 10
12.0
 20
9.0
  9
$ORTHOMODE
 70
     0
  9
$REGENMODE
 70
     1
  9
$FILLMODE
 70
     0
  9
$QTEXTMODE
 70
     0
  9
$MIRRTEXT
 70
     0
  9
$LTSCALE
 40
1.0
  9
$ATTMODE
 70
     1
  9
$TEXTSIZE
 40
0.2
  9
$TRACEWID
 40
0.05
  9
$TEXTSTYLE
  7
Standard
  9
$CLAYER
  8
0
  9
$CELTYPE
  6
Continuous
  9
$CECOLOR
 62
   256
  9
$CELTSCALE
 40
1.0
  9
$DISPSILH
 70
     0
  9
$DIMSCALE
 40
1.0
  9
$DIMASZ
 40
0.18
  9
$DIMEXO
 40
0.0625
  9
$DIMDLI
 40
0.38
  9
$DIMRND
 40
0.0
  9
$DIMDLE
 40
0.0
  9
$DIMEXE
 40
0.18
  9
$DIMTP
 40
0.0
  9
$DIMTM
 40
0.0
  9
$DIMTXT
 40
0.18
  9
$DIMCEN
 40
0.09
  9
$DIMTSZ
 40
0.0
  9
$DIMTOL
 70
     0
  9
$DIMLIM
 70
     0
  9
$DIMTIH
 70
     1
  9
$DIMTOH
 70
     1
  9
$DIMSE1
 70
     0
  9
$DIMSE2
 70
     0
  9
$DIMTAD
 70
     0
  9
$DIMZIN
 70
     0
  9
$DIMBLK
  1

  9
$DIMASO
 70
     1
  9
$DIMSHO
 70
     1
  9
$DIMPOST
  1

  9
$DIMAPOST
  1

  9
$DIMALT
 70
     0
  9
$DIMALTD
 70
     2
  9
$DIMALTF
 40
25.4
  9
$DIMLFAC
 40
1.0
  9
$DIMTOFL
 70
     0
  9
$DIMTVP
 40
0.0
  9
$DIMTIX
 70
     0
  9
$DIMSOXD
 70
     0
  9
$DIMSAH
 70
     0
  9
$DIMBLK1
  1

  9
$DIMBLK2
  1

  9
$DIMSTYLE
  2
Standard
  9
$DIMCLRD
 70
     0
  9
$DIMCLRE
 70
     0
  9
$DIMCLRT
 70
     0
  9
$DIMTFAC
 40
1.0
  9
$DIMGAP
 40
0.09
  9
$DIMJUST
 70
     0
  9
$DIMSD1
 70
     0
  9
$DIMSD2
 70
     0
  9
$DIMTOLJ
 70
     1
  9
$DIMTZIN
 70
     0
  9
$DIMALTZ
 70
     0
  9
$DIMALTTZ
 70
     0
  9
$DIMUPT
 70
     0
  9
$DIMDEC
 70
     4
  9
$DIMTDEC
 70
     4
  9
$DIMALTU
 70
     2
  9
$DIMALTTD
 70
     2
  9
$DIMTXSTY
  7
Standard
  9
$DIMAUNIT
 70
     0
  9
$DIMADEC
 70
     0
  9
$DIMALTRND
 40
0.0
  9
$DIMAZIN
 70
     0
  9
$DIMDSEP
 70
    46
  9
$DIMATFIT
 70
     3
  9
$DIMFRAC
 70
     0
  9
$DIMLDRBLK
  1

  9
$DIMLUNIT
 70
     2
  9
$DIMLWD
 70
    -2
  9
$DIMLWE
 70
    -2
  9
$DIMTMOVE
 70
     0
  9
$DIMFXL
 40
1.0
  9
$DIMFXLON
 70
     0
  9
$DIMJOGANG
 40
0.7853981633974483
  9
$DIMTFILL
 70
     0
  9
$DIMTFILLCLR
 70
     0
  9
$DIMARCSYM
 70
     0
  9
$DIMLTYPE
  6

  9
$DIMLTEX1
  6

  9
$DIMLTEX2
  6

  9
$DIMTXTDIRECTION
 70
     0
  9
$LUNITS
 70
     2
  9
$LUPREC
 70
     4
  9
$SKETCHINC
 40
0.1
  9
$FILLETRAD
 40
3.0
  9
$AUNITS
 70
     0
  9
$AUPREC
 70
     0
  9
$MENU
  1
.
  9
$ELEVATION
 40
0.0
  9
$PELEVATION
 40
0.0
  9
$THICKNESS
 40
0.0
  9
$LIMCHECK
 70
     0
  9
$CHAMFERA
 40
0.0
  9
$CHAMFERB
 40
0.0
  9
$CHAMFERC
 40
0.0
  9
$CHAMFERD
 40
0.0
  9
$SKPOLY
 70
     0
  9
$TDCREATE
 40
2459170.473657408
  9
$TDUCREATE
 40
2459170.681990741
  9
$TDUPDATE
 40
2459170.611666667
  9
$TDUUPDATE
 40
2459170.820000000
  9
$TDINDWG
 40
0.0236921296
  9
$TDUSRTIMER
 40
0.0236921296
  9
$USRTIMER
 70
     1
  9
$ANGBASE
 50
0.0
  9
$ANGDIR
 70
     0
  9
$PDMODE
 70
     0
  9
$PDSIZE
 40
0.0
  9
$PLINEWID
 40
0.0
  9
$SPLFRAME
 70
     1
  9
$SPLINETYPE
 70
     6
  9
$SPLINESEGS
 70
     8
  9
$HANDSEED
  5
36B
  9
$SURFTAB1
 70
     6
  9
$SURFTAB2
 70
     6
  9
$SURFTYPE
 70
     6
  9
$SURFU
 70
     6
  9
$SURFV
 70
     6
  9
$UCSBASE
  2

  9
$UCSNAME
  2

  9
$UCSORG
 10
0.0
 20
0.0
 30
0.0
  9
$UCSXDIR
 10
1.0
 20
0.0
 30
0.0
  9
$UCSYDIR
 10
0.0
 20
1.0
 30
0.0
  9
$UCSORTHOREF
  2

  9
$UCSORTHOVIEW
 70
     0
  9
$UCSORGTOP
 10
0.0
 20
0.0
 30
0.0
  9
$UCSORGBOTTOM
 10
0.0
 20
0.0
 30
0.0
  9
$UCSORGLEFT
 10
0.0
 20
0.0
 30
0.0
  9
$UCSORGRIGHT
 10
0.0
 20
0.0
 30
0.0
  9
$UCSORGFRONT
 10
0.0
 20
0.0
 30
0.0
  9
$UCSORGBACK
 10
0.0
 20
0.0
 30
0.0
  9
$PUCSBASE
  2

  9
$PUCSNAME
  2

  9
$PUCSORG
 10
0.0
 20
0.0
 30
0.0
  9
$PUCSXDIR
 10
1.0
 20
0.0
 30
0.0
  9
$PUCSYDIR
 10
0.0
 20
1.0
 30
0.0
  9
$PUCSORTHOREF
  2

  9
$PUCSORTHOVIEW
 70
     0
  9
$PUCSORGTOP
 10
0.0
 20
0.0
 30
0.0
  9
$PUCSORGBOTTOM
 10
0.0
 20
0.0
 30
0.0
  9
$PUCSORGLEFT
 10
0.0
 20
0.0
 30
0.0
  9
$PUCSORGRIGHT
 10
0.0
 20
0.0
 30
0.0
  9
$PUCSORGFRONT
 10
0.0
 20
0.0
 30
0.0
  9
$PUCSORGBACK
 10
0.0
 20
0.0
 30
0.0
  9
$USERI1
 70
     0
  9
$USERI2
 70
     0
  9
$USERI3
 70
     0
  9
$USERI4
 70
     0
  9
$USERI5
 70
     0
  9
$USERR1
 40
0.0
  9
$USERR2
 40
0.0
  9
$USERR3
 40
0.0
  9
$USERR4
 40
0.0
  9
$USERR5
 40
0.0
  9
$WORLDVIEW
 70
     1
  9
$SHADEDGE
 70
     3
  9
$SHADEDIF
 70
    70
  9
$TILEMODE
 70
     1
  9
$MAXACTVP
 70
    64
  9
$PINSBASE
 10
0.0
 20
0.0
 30
0.0
  9
$PLIMCHECK
 70
     0
  9
$PEXTMIN
 10
1.000000000000000E+20
 20
1.000000000000000E+20
 30
1.000000000000000E+20
  9
$PEXTMAX
 10
-1.000000000000000E+20
 20
-1.000000000000000E+20
 30
-1.000000000000000E+20
  9
$PLIMMIN
 10
0.0
 20
0.0
  9
$PLIMMAX
 10
12.0
 20
9.0
  9
$UNITMODE
 70
     0
  9
$VISRETAIN
 70
     1
  9
$PLINEGEN
 70
     0
  9
$PSLTSCALE
 70
     1
  9
$TREEDEPTH
 70
  3020
  9
$CMLSTYLE
  2
Standard
  9
$CMLJUST
 70
     0
  9
$CMLSCALE
 40
1.0
  9
$PROXYGRAPHICS
 70
     1
  9
$MEASUREMENT
 70
     0
  9
$CELWEIGHT
370
    -1
  9
$ENDCAPS
280
     0
  9
$JOINSTYLE
280
     0
  9
$LWDISPLAY
290
     0
  9
$INSUNITS
 70
     0
  9
$HYPERLINKBASE
  1

  9
$STYLESHEET
  1

  9
$XEDIT
290
     1
  9
$CEPSNTYPE
380
     0
  9
$PSTYLEMODE
290
     1
  9
$FINGERPRINTGUID
  2
{C1518759-879C-3643-8055-FC7B1DD7AAFA}
  9
$VERSIONGUID
  2
{123E0CAA-B174-C142-BDD0-487AD1DB8E7A}
  9
$EXTNAMES
290
     1
  9
$PSVPSCALE
 40
0.0
  9
$OLESTARTUP
290
     0
  9
$SORTENTS
280
   127
  9
$INDEXCTL
280
     0
  9
$HIDETEXT
280
     0
  9
$XCLIPFRAME
280
     2
  9
$HALOGAP
280
     0
  9
$OBSCOLOR
 70
   257
  9
$OBSLTYPE
280
     0
  9
$INTERSECTIONDISPLAY
280
     0
  9
$INTERSECTIONCOLOR
 70
   257
  9
$DIMASSOC
280
     1
  9
$PROJECTNAME
  1

  9
$CAMERADISPLAY
290
     0
  9
$LENSLENGTH
 40
50.0
  9
$CAMERAHEIGHT
 40
0.0
  9
$STEPSPERSEC
 40
2.0
  9
$STEPSIZE
 40
6.0
  9
$3DDWFPREC
 40
2.0
  9
$PSOLWIDTH
 40
0.25
  9
$PSOLHEIGHT
 40
4.0
  9
$LOFTANG1
 40
1.570796326794896
  9
$LOFTANG2
 40
1.570796326794896
  9
$LOFTMAG1
 40
0.0
  9
$LOFTMAG2
 40
0.0
  9
$LOFTPARAM
 70
     7
  9
$LOFTNORMALS
280
     1
  9
$LATITUDE
 40
37.795
  9
$LONGITUDE
 40
-122.394
  9
$NORTHDIRECTION
 40
0.0
  9
$TIMEZONE
 70
 -8000
  9
$LIGHTGLYPHDISPLAY
280
     1
  9
$TILEMODELIGHTSYNCH
280
     1
  9
$CMATERIAL
347
11
  9
$SOLIDHIST
280
     0
  9
$SHOWHIST
280
     1
  9
$DWFFRAME
280
     2
  9
$DGNFRAME
280
     0
  9
$REALWORLDSCALE
290
     1
  9
$INTERFERECOLOR
 62
     1
  9
$INTERFEREOBJVS
345
33
  9
$INTERFEREVPVS
346
30
  9
$CSHADOW
280
     0
  9
$SHADOWPLANELOCATION
 40
0.0
  0
ENDSEC
  0
SECTION
  2
CLASSES
  0
CLASS
  1
ACDBDICTIONARYWDFLT
  2
AcDbDictionaryWithDefault
  3
ObjectDBX Classes
 90
        0
 91
        1
280
     0
281
     0
  0
CLASS
  1
MATERIAL
  2
AcDbMaterial
  3
ObjectDBX Classes
 90
     1153
 91
        3
280
     0
281
     0
  0
CLASS
  1
VISUALSTYLE
  2
AcDbVisualStyle
  3
ObjectDBX Classes
 90
     4095
 91
       24
280
     0
281
     0
  0
CLASS
  1
SCALE
  2
AcDbScale
  3
ObjectDBX Classes
 90
     1153
 91
       17
280
     0
281
     0
  0
CLASS
  1
TABLESTYLE
  2
AcDbTableStyle
  3
ObjectDBX Classes
 90
     4095
 91
        1
280
     0
281
     0
  0
CLASS
  1
MLEADERSTYLE
  2
AcDbMLeaderStyle
  3
ACDB_MLEADERSTYLE_CLASS
 90
     4095
 91
        1
280
     0
281
     0
  0
CLASS
  1
ACDBSECTIONVIEWSTYLE
  2
AcDbSectionViewStyle
  3
ObjectDBX Classes
 90
     1025
 91
        1
280
     0
281
     0
  0
CLASS
  1
ACDBDETAILVIEWSTYLE
  2
AcDbDetailViewStyle
  3
ObjectDBX Classes
 90
     1025
 91
        1
280
     0
281
     0
  0
CLASS
  1
DICTIONARYVAR
  2
AcDbDictionaryVar
  3
ObjectDBX Classes
 90
        0
 91
        9
280
     0
281
     0
  0
CLASS
  1
SORTENTSTABLE
  2
AcDbSortentsTable
  3
ObjectDBX Classes
 90
        0
 91
        1
280
     0
281
     0
  0
CLASS
  1
CELLSTYLEMAP
  2
AcDbCellStyleMap
  3
ObjectDBX Classes
 90
     1152
 91
        3
280
     0
281
     0
  0
ENDSEC
  0
SECTION
  2
TABLES
  0
TABLE
  2
VPORT
  5
8
330
0
100
AcDbSymbolTable
 70
     1
  0
VPORT
  5
74
330
8
100
AcDbSymbolTableRecord
100
AcDbViewportTableRecord
  2
*Active
 70
     0
 10
0.0
 20
0.0
 11
1.0
 21
1.0
 12
12.65531804497941
 22
85.30408274801619
 13
0.0
 23
0.0
 14
1.0
 24
1.0
 15
0.0
 25
0.0
 16
0.0
 26
0.0
 36
1.0
 17
0.0
 27
0.0
 37
0.0
 40
69.10190991912145
 41
2.292712066905615
 42
50.0
 43
0.0
 44
0.0
 50
0.0
 51
0.0
 71
     0
 72
   100
 73
     1
 74
     1
 75
     0
 76
     0
 77
     0
 78
     0
281
     0
 65
     1
110
0.0
120
0.0
130
0.0
111
1.0
121
0.0
131
0.0
112
0.0
122
1.0
132
0.0
 79
     0
146
0.0
348
2F
 60
     3
 61
     5
292
     1
282
     1
141
0.0
142
0.0
 63
   250
421
  3355443
1001
ACAD_NAV_VCDISPLAY
1070
     3
  0
ENDTAB
  0
TABLE
  2
LTYPE
  5
5
330
0
100
AcDbSymbolTable
 70
     2
  0
LTYPE
  5
5A
330
5
100
AcDbSymbolTableRecord
100
AcDbLinetypeTableRecord
  2
ByBlock
 70
     0
  3

 72
    65
 73
     0
 40
0.0
  0
LTYPE
  5
5B
330
5
100
AcDbSymbolTableRecord
100
AcDbLinetypeTableRecord
  2
ByLayer
 70
     0
  3

 72
    65
 73
     0
 40
0.0
  0
LTYPE
  5
5C
330
5
100
AcDbSymbolTableRecord
100
AcDbLinetypeTableRecord
  2
Continuous
 70
     0
  3
Solid line
 72
    65
 73
     0
 40
0.0
  0
ENDTAB
  0
TABLE
  2
LAYER
  5
2
102
{ACAD_XDICTIONARY
360
363
102
}
330
0
100
AcDbSymbolTable
 70
     3
  0
LAYER
  5
54
102
{ACAD_XDICTIONARY
360
346
102
}
330
2
100
AcDbSymbolTableRecord
100
AcDbLayerTableRecord
  2
0
 70
     0
 62
     7
  6
Continuous
370
    -3
390
F
347
21
348
0
  0
LAYER
  5
32A
102
{ACAD_XDICTIONARY
360
348
102
}
330
2
100
AcDbSymbolTableRecord
100
AcDbLayerTableRecord
  2
Row
 70
     0
 62
     3
  6
Continuous
370
    -3
390
F
347
21
348
0
1001
AcAecLayerStandard
1000

1000

1001
AcCmTransparency
1071
        0
  0
LAYER
  5
32D
102
{ACAD_XDICTIONARY
360
34A
102
}
330
2
100
AcDbSymbolTableRecord
100
AcDbLayerTableRecord
  2
Column
 70
     0
 62
     1
  6
Continuous
370
    -3
390
F
347
21
348
0
1001
AcAecLayerStandard
1000

1000

1001
AcCmTransparency
1071
        0
  0
ENDTAB
  0
TABLE
  2
STYLE
  5
3
330
0
100
AcDbSymbolTable
 70
     2
  0
STYLE
  5
55
330
3
100
AcDbSymbolTableRecord
100
AcDbTextStyleTableRecord
  2
Standard
 70
     0
 40
0.0
 41
1.0
 50
0.0
 71
     0
 42
0.2
  3
txt
  4

  0
STYLE
  5
59
330
3
100
AcDbSymbolTableRecord
100
AcDbTextStyleTableRecord
  2
Annotative
 70
     0
 40
0.0
 41
1.0
 50
0.0
 71
     0
 42
0.2
  3
txt
  4

1001
AcadAnnotative
1000
AnnotativeData
1002
{
1070
     1
1070
     1
1002
}
  0
ENDTAB
  0
TABLE
  2
VIEW
  5
6
330
0
100
AcDbSymbolTable
 70
     1
  0
ENDTAB
  0
TABLE
  2
UCS
  5
7
330
0
100
AcDbSymbolTable
 70
     0
  0
ENDTAB
  0
TABLE
  2
APPID
  5
9
330
0
100
AcDbSymbolTable
 70
     6
  0
APPID
  5
56
330
9
100
AcDbSymbolTableRecord
100
AcDbRegAppTableRecord
  2
ACAD
 70
     0
  0
APPID
  5
5D
330
9
100
AcDbSymbolTableRecord
100
AcDbRegAppTableRecord
  2
AcadAnnotative
 70
     0
  0
APPID
  5
1FB
330
9
100
AcDbSymbolTableRecord
100
AcDbRegAppTableRecord
  2
ACAD_EXEMPT_FROM_CAD_STANDARDS
 70
     0
  0
APPID
  5
206
330
9
100
AcDbSymbolTableRecord
100
AcDbRegAppTableRecord
  2
ACAD_NAV_VCDISPLAY
 70
     0
  0
APPID
  5
32B
330
9
100
AcDbSymbolTableRecord
100
AcDbRegAppTableRecord
  2
AcAecLayerStandard
 70
     0
  0
APPID
  5
32C
330
9
100
AcDbSymbolTableRecord
100
AcDbRegAppTableRecord
  2
AcCmTransparency
 70
     0
  0
ENDTAB
  0
TABLE
  2
DIMSTYLE
  5
A
330
0
100
AcDbSymbolTable
 70
     3
100
AcDbDimStyleTable
 71
     1
340
57
  0
DIMSTYLE
105
57
330
A
100
AcDbSymbolTableRecord
100
AcDbDimStyleTableRecord
  2
Standard
 70
     0
340
55
  0
DIMSTYLE
105
58
330
A
100
AcDbSymbolTableRecord
100
AcDbDimStyleTableRecord
  2
Annotative
 70
     0
340
55
1001
AcadAnnotative
1000
AnnotativeData
1002
{
1070
     1
1070
     1
1002
}
  0
ENDTAB
  0
TABLE
  2
BLOCK_RECORD
  5
1
330
0
100
AcDbSymbolTable
 70
     1
  0
BLOCK_RECORD
  5
6F
102
{ACAD_XDICTIONARY
360
235
102
}
330
1
100
AcDbSymbolTableRecord
100
AcDbBlockTableRecord
  2
*Model_Space
340
72
 70
     0
280
     1
281
     0
  0
BLOCK_RECORD
  5
6B
330
1
100
AcDbSymbolTableRecord
100
AcDbBlockTableRecord
  2
*Paper_Space
340
6E
 70
     0
280
     1
281
     0
  0
ENDTAB
  0
ENDSEC
  0
SECTION
  2
BLOCKS
  0
BLOCK
  5
70
330
6F
100
AcDbEntity
  8
0
100
AcDbBlockBegin
  2
*Model_Space
 70
     0
 10
0.0
 20
0.0
 30
0.0
  3
*Model_Space
  1

  0
ENDBLK
  5
71
330
6F
100
AcDbEntity
  8
0
100
AcDbBlockEnd
  0
BLOCK
  5
6C
330
6B
100
AcDbEntity
 67
     1
  8
0
100
AcDbBlockBegin
  2
*Paper_Space
 70
     0
 10
0.0
 20
0.0
 30
0.0
  3
*Paper_Space
  1

  0
ENDBLK
  5
6D
330
6B
100
AcDbEntity
 67
     1
  8
0
100
AcDbBlockEnd
  0
ENDSEC
  0
SECTION
  2
ENTITIES
  0
LINE
  5
85
330
6F
100
AcDbEntity
  8
0
 62
     0
100
AcDbLine
 10
100.3133577889121
 20
47.66576308056953
 30
0.0
 11
99.5138280217156
 21
47.6661521393259
 31
0.0
  0
LINE
  5
86
330
6F
100
AcDbEntity
  8
0
 62
     0
100
AcDbLine
 10
99.5138280217156
 20
47.6661521393259
 30
0.0
 11
99.52552604316879
 21
34.86632807886345
 31
0.0
  0
LINE
  5
87
330
6F
100
AcDbEntity
  8
0
 62
     0
100
AcDbLine
 10
99.52552604316879
 20
34.86632807886345
 30
0.0
 11
100.324619056244
 21
34.86717811083722
 31
0.0
  0
LINE
  5
88
330
6F
100
AcDbEntity
  8
0
 62
     0
100
AcDbLine
 10
100.324619056244
 20
34.86717811083722
 30
0.0
 11
100.3260718416706
 21
34.26681941887506
 31
0.0
  0
LINE
  5
89
330
6F
100
AcDbEntity
  8
0
 62
     0
100
AcDbLine
 10
100.3260718416706
 20
34.26681941887506
 30
0.0
 11
114.3251810572605
 21
34.27970204614015
 31
0.0
  0
LINE
  5
8A
330
6F
100
AcDbEntity
  8
0
 62
     0
100
AcDbLine
 10
114.3251810572605
 20
34.27970204614015
 30
0.0
 11
114.3245590940116
 21
34.87889654975456
 31
0.0
  0
LINE
  5
8B
330
6F
100
AcDbEntity
  8
0
 62
     0
100
AcDbLine
 10
114.3245590940116
 20
34.87889654975456
 30
0.0
 11
115.1247247577146
 21
34.87999360527139
 31
0.0
  0
LINE
  5
8C
330
6F
100
AcDbEntity
  8
0
 62
     0
100
AcDbLine
 10
115.1247247577146
 20
34.87999360527139
 30
0.0
 11
115.114365723594
 21
47.68022950662931
 31
0.0
  0
LINE
  5
8D
330
6F
100
AcDbEntity
  8
0
 62
     0
100
AcDbLine
 10
115.114365723594
 20
47.68022950662931
 30
0.0
 11
114.314207850381
 21
47.67910348029498
 31
0.0
  0
LINE
  5
8E
330
6F
100
AcDbEntity
  8
0
 62
     0
100
AcDbLine
 10
114.314207850381
 20
47.67910348029498
 30
0.0
 11
114.3142139931486
 21
48.2798130690001
 31
0.0
  0
LINE
  5
8F
330
6F
100
AcDbEntity
  8
0
 62
     0
100
AcDbLine
 10
114.3142139931486
 20
48.2798130690001
 30
0.0
 11
100.3143296255958
 21
48.26673235227438
 31
0.0
  0
LINE
  5
90
330
6F
100
AcDbEntity
  8
0
 62
     0
100
AcDbLine
 10
100.3143296255958
 20
48.26673235227438
 30
0.0
 11
100.3133577889121
 21
47.66576308056953
 31
0.0
  0
LINE
  5
9D
330
6F
100
AcDbEntity
  8
0
 62
     0
100
AcDbLine
 10
76.49734302761611
 20
52.40762358987717
 30
0.0
 11
75.69728172379476
 21
52.40652353184282
 31
0.0
  0
LINE
  5
9E
330
6F
100
AcDbEntity
  8
0
 62
     0
100
AcDbLine
 10
75.69728172379476
 20
52.40652353184282
 30
0.0
 11
75.70858048353153
 21
39.60664388287625
 31
0.0
  0
LINE
  5
9F
330
6F
100
AcDbEntity
  8
0
 62
     0
100
AcDbLine
 10
75.70858048353153
 20
39.60664388287625
 30
0.0
 11
76.50905403321932
 21
39.6077512447189
 31
0.0
  0
LINE
  5
A0
330
6F
100
AcDbEntity
  8
0
 62
     0
100
AcDbLine
 10
76.50905403321932
 20
39.6077512447189
 30
0.0
 11
76.50914445984334
 21
39.00706762431375
 31
0.0
  0
LINE
  5
A1
330
6F
100
AcDbEntity
  8
0
 62
     0
100
AcDbLine
 10
76.50914445984334
 20
39.00706762431375
 30
0.0
 11
90.5100910907039
 21
39.02043399233918
 31
0.0
  0
LINE
  5
A2
330
6F
100
AcDbEntity
  8
0
 62
     0
100
AcDbLine
 10
90.5100910907039
 20
39.02043399233918
 30
0.0
 11
90.50898628049695
 21
39.61949865445372
 31
0.0
  0
LINE
  5
A3
330
6F
100
AcDbEntity
  8
0
 62
     0
100
AcDbLine
 10
90.50898628049695
 20
39.61949865445372
 30
0.0
 11
91.3090475843183
 21
39.62059871248807
 31
0.0
  0
LINE
  5
A4
330
6F
100
AcDbEntity
  8
0
 62
     0
100
AcDbLine
 10
91.3090475843183
 20
39.62059871248807
 30
0.0
 11
91.2977488245815
 21
52.42047836145463
 31
0.0
  0
LINE
  5
A5
330
6F
100
AcDbEntity
  8
0
 62
     0
100
AcDbLine
 10
91.2977488245815
 20
52.42047836145463
 30
0.0
 11
90.49727527489377
 21
52.419370999612
 31
0.0
  0
LINE
  5
A6
330
6F
100
AcDbEntity
  8
0
 62
     0
100
AcDbLine
 10
90.49727527489377
 20
52.419370999612
 30
0.0
 11
90.49718484826971
 21
53.02005462001713
 31
0.0
  0
LINE
  5
A7
330
6F
100
AcDbEntity
  8
0
 62
     0
100
AcDbLine
 10
90.49718484826971
 20
53.02005462001713
 30
0.0
 11
76.49623821740916
 21
53.00668825199171
 31
0.0
  0
LINE
  5
A8
330
6F
100
AcDbEntity
  8
0
 62
     0
100
AcDbLine
 10
76.49623821740916
 20
53.00668825199171
 30
0.0
 11
76.49734302761611
 21
52.40762358987717
 31
0.0
  0
LINE
  5
B5
330
6F
100
AcDbEntity
  8
0
 62
     0
100
AcDbLine
 10
57.44728687952406
 20
52.39076967223846
 30
0.0
 11
56.64587360422014
 21
52.38930605800447
 31
0.0
  0
LINE
  5
B6
330
6F
100
AcDbEntity
  8
0
 62
     0
100
AcDbLine
 10
56.64587360422014
 20
52.38930605800447
 30
0.0
 11
56.65821271583977
 21
39.59094879793692
 31
0.0
  0
LINE
  5
B7
330
6F
100
AcDbEntity
  8
0
 62
     0
100
AcDbLine
 10
56.65821271583977
 20
39.59094879793692
 30
0.0
 11
57.45899788512724
 21
39.59089732708019
 31
0.0
  0
LINE
  5
B8
330
6F
100
AcDbEntity
  8
0
 62
     0
100
AcDbLine
 10
57.45899788512724
 20
39.59089732708019
 30
0.0
 11
57.45911428005125
 21
38.99011713728344
 31
0.0
  0
LINE
  5
B9
330
6F
100
AcDbEntity
  8
0
 62
     0
100
AcDbLine
 10
57.45911428005125
 20
38.99011713728344
 30
0.0
 11
71.46006091091179
 21
39.00348350530887
 31
0.0
  0
LINE
  5
BA
330
6F
100
AcDbEntity
  8
0
 62
     0
100
AcDbLine
 10
71.46006091091179
 20
39.00348350530887
 30
0.0
 11
71.4585925445052
 21
39.60390013890599
 31
0.0
  0
LINE
  5
BB
330
6F
100
AcDbEntity
  8
0
 62
     0
100
AcDbLine
 10
71.4585925445052
 20
39.60390013890599
 30
0.0
 11
72.25901740452622
 21
39.60364822545775
 31
0.0
  0
LINE
  5
BC
330
6F
100
AcDbEntity
  8
0
 62
     0
100
AcDbLine
 10
72.25901740452622
 20
39.60364822545775
 30
0.0
 11
72.24769267648945
 21
52.40362444381592
 31
0.0
  0
LINE
  5
BD
330
6F
100
AcDbEntity
  8
0
 62
     0
100
AcDbLine
 10
72.24769267648945
 20
52.40362444381592
 30
0.0
 11
71.44690750720201
 21
52.40367591467265
 31
0.0
  0
LINE
  5
BE
330
6F
100
AcDbEntity
  8
0
 62
     0
100
AcDbLine
 10
71.44690750720201
 20
52.40367591467265
 30
0.0
 11
71.44715466847762
 21
53.00310413298682
 31
0.0
  0
LINE
  5
BF
330
6F
100
AcDbEntity
  8
0
 62
     0
100
AcDbLine
 10
71.44715466847762
 20
53.00310413298682
 30
0.0
 11
57.44587044971741
 21
52.99099316705237
 31
0.0
  0
LINE
  5
C0
330
6F
100
AcDbEntity
  8
0
 62
     0
100
AcDbLine
 10
57.44587044971741
 20
52.99099316705237
 30
0.0
 11
57.44728687952406
 21
52.39076967223846
 31
0.0
  0
LINE
  5
CD
330
6F
100
AcDbEntity
  8
0
 62
     0
100
AcDbLine
 10
38.39730863633191
 20
52.37362604642493
 30
0.0
 11
37.5972213642106
 21
52.37262255778219
 31
0.0
  0
LINE
  5
CE
330
6F
100
AcDbEntity
  8
0
 62
     0
100
AcDbLine
 10
37.5972213642106
 20
52.37262255778219
 30
0.0
 11
37.60861669333896
 21
39.57276887711561
 31
0.0
  0
LINE
  5
CF
330
6F
100
AcDbEntity
  8
0
 62
     0
100
AcDbLine
 10
37.60861669333896
 20
39.57276887711561
 30
0.0
 11
38.40867799716031
 21
39.57386893514995
 31
0.0
  0
LINE
  5
D0
330
6F
100
AcDbEntity
  8
0
 62
     0
100
AcDbLine
 10
38.40867799716031
 20
39.57386893514995
 30
0.0
 11
38.40908410025916
 21
38.97316665025312
 31
0.0
  0
LINE
  5
D1
330
6F
100
AcDbEntity
  8
0
 62
     0
100
AcDbLine
 10
38.40908410025916
 20
38.97316665025312
 30
0.0
 11
52.41000476281975
 21
38.98662958767017
 31
0.0
  0
LINE
  5
D2
330
6F
100
AcDbEntity
  8
0
 62
     0
100
AcDbLine
 10
52.41000476281975
 20
38.98662958767017
 30
0.0
 11
52.40863621273793
 21
39.58551977549316
 31
0.0
  0
LINE
  5
D3
330
6F
100
AcDbEntity
  8
0
 62
     0
100
AcDbLine
 10
52.40863621273793
 20
39.58551977549316
 30
0.0
 11
53.20908379412573
 21
39.5867237067274
 31
0.0
  0
LINE
  5
D4
330
6F
100
AcDbEntity
  8
0
 62
     0
100
AcDbLine
 10
53.20908379412573
 20
39.5867237067274
 30
0.0
 11
53.19727621913093
 21
52.38657008358572
 31
0.0
  0
LINE
  5
D5
330
6F
100
AcDbEntity
  8
0
 62
     0
100
AcDbLine
 10
53.19727621913093
 20
52.38657008358572
 30
0.0
 11
52.39721491530959
 21
52.38547002555136
 31
0.0
  0
LINE
  5
D6
330
6F
100
AcDbEntity
  8
0
 62
     0
100
AcDbLine
 10
52.39721491530959
 20
52.38547002555136
 30
0.0
 11
52.39686074881068
 21
52.98597917166496
 31
0.0
  0
LINE
  5
D7
330
6F
100
AcDbEntity
  8
0
 62
     0
100
AcDbLine
 10
52.39686074881068
 20
52.98597917166496
 30
0.0
 11
38.396177857825
 21
52.97278727793107
 31
0.0
  0
LINE
  5
D8
330
6F
100
AcDbEntity
  8
0
 62
     0
100
AcDbLine
 10
38.396177857825
 20
52.97278727793107
 30
0.0
 11
38.39730863633191
 21
52.37362604642493
 31
0.0
  0
LINE
  5
E5
330
6F
100
AcDbEntity
  8
0
 62
     0
100
AcDbLine
 10
19.34722651993987
 20
52.35686869817783
 30
0.0
 11
18.54697207733529
 21
52.35571670354353
 31
0.0
  0
LINE
  5
E6
330
6F
100
AcDbEntity
  8
0
 62
     0
100
AcDbLine
 10
18.54697207733529
 20
52.35571670354353
 30
0.0
 11
18.55984191563783
 21
39.55615597798495
 31
0.0
  0
LINE
  5
E7
330
6F
100
AcDbEntity
  8
0
 62
     0
100
AcDbLine
 10
18.55984191563783
 20
39.55615597798495
 30
0.0
 11
19.35910794295946
 21
39.55559244493704
 31
0.0
  0
LINE
  5
E8
330
6F
100
AcDbEntity
  8
0
 62
     0
100
AcDbLine
 10
19.35910794295946
 20
39.55559244493704
 30
0.0
 11
19.3590279521671
 21
38.95631273261441
 31
0.0
  0
LINE
  5
E9
330
6F
100
AcDbEntity
  8
0
 62
     0
100
AcDbLine
 10
19.3590279521671
 20
38.95631273261441
 30
0.0
 11
33.3588895983531
 21
38.96793760465765
 31
0.0
  0
LINE
  5
EA
330
6F
100
AcDbEntity
  8
0
 62
     0
100
AcDbLine
 10
33.3588895983531
 20
38.96793760465765
 30
0.0
 11
33.35867663403747
 21
39.56869182615444
 31
0.0
  0
LINE
  5
EB
330
6F
100
AcDbEntity
  8
0
 62
     0
100
AcDbLine
 10
33.35867663403747
 20
39.56869182615444
 30
0.0
 11
34.15895704494203
 21
39.56974725139712
 31
0.0
  0
LINE
  5
EC
330
6F
100
AcDbEntity
  8
0
 62
     0
100
AcDbLine
 10
34.15895704494203
 20
39.56974725139712
 30
0.0
 11
34.1471941027389
 21
52.36981273533864
 31
0.0
  0
LINE
  5
ED
330
6F
100
AcDbEntity
  8
0
 62
     0
100
AcDbLine
 10
34.1471941027389
 20
52.36981273533864
 30
0.0
 11
33.34684714761785
 21
52.36977494061202
 31
0.0
  0
LINE
  5
EE
330
6F
100
AcDbEntity
  8
0
 62
     0
100
AcDbLine
 10
33.34684714761785
 20
52.36977494061202
 30
0.0
 11
33.34677863241865
 21
52.96922182341788
 31
0.0
  0
LINE
  5
EF
330
6F
100
AcDbEntity
  8
0
 62
     0
100
AcDbLine
 10
33.34677863241865
 20
52.96922182341788
 30
0.0
 11
19.34561695135001
 21
52.95704025639178
 31
0.0
  0
LINE
  5
F0
330
6F
100
AcDbEntity
  8
0
 62
     0
100
AcDbLine
 10
19.34561695135001
 20
52.95704025639178
 30
0.0
 11
19.34722651993987
 21
52.35686869817783
 31
0.0
  0
LINE
  5
FD
330
6F
100
AcDbEntity
  8
0
 62
     0
100
AcDbLine
 10
76.48061164766899
 20
71.45760913687759
 30
0.0
 11
75.68016406628117
 21
71.45640520564334
 31
0.0
  0
LINE
  5
FE
330
6F
100
AcDbEntity
  8
0
 62
     0
100
AcDbLine
 10
75.68016406628117
 20
71.45640520564334
 30
0.0
 11
75.69187507188437
 21
58.65653286048506
 31
0.0
  0
LINE
  5
FF
330
6F
100
AcDbEntity
  8
0
 62
     0
100
AcDbLine
 10
75.69187507188437
 20
58.65653286048506
 30
0.0
 11
76.49058440422314
 21
58.65726936231978
 31
0.0
  0
LINE
  5
100
330
6F
100
AcDbEntity
  8
0
 62
     0
100
AcDbLine
 10
76.49058440422314
 20
58.65726936231978
 30
0.0
 11
76.49238711159623
 21
58.05714974070578
 31
0.0
  0
LINE
  5
101
330
6F
100
AcDbEntity
  8
0
 62
     0
100
AcDbLine
 10
76.49238711159623
 20
58.05714974070578
 30
0.0
 11
90.49185923328264
 21
58.07022315362321
 31
0.0
  0
LINE
  5
102
330
6F
100
AcDbEntity
  8
0
 62
     0
100
AcDbLine
 10
90.49185923328264
 20
58.07022315362321
 30
0.0
 11
90.49184265468339
 21
58.66947689764586
 31
0.0
  0
LINE
  5
103
330
6F
100
AcDbEntity
  8
0
 62
     0
100
AcDbLine
 10
90.49184265468339
 20
58.66947689764586
 30
0.0
 11
91.29229023607122
 21
58.6706808288801
 31
0.0
  0
LINE
  5
104
330
6F
100
AcDbEntity
  8
0
 62
     0
100
AcDbLine
 10
91.29229023607122
 20
58.6706808288801
 30
0.0
 11
91.28057923046801
 21
71.47055317403839
 31
0.0
  0
LINE
  5
105
330
6F
100
AcDbEntity
  8
0
 62
     0
100
AcDbLine
 10
91.28057923046801
 20
71.47055317403839
 30
0.0
 11
90.48051792664669
 21
71.46945311600403
 31
0.0
  0
LINE
  5
106
330
6F
100
AcDbEntity
  8
0
 62
     0
100
AcDbLine
 10
90.48051792664669
 20
71.46945311600403
 30
0.0
 11
90.48006719075614
 21
72.06993629381767
 31
0.0
  0
LINE
  5
107
330
6F
100
AcDbEntity
  8
0
 62
     0
100
AcDbLine
 10
90.48006719075614
 20
72.06993629381767
 30
0.0
 11
76.48054313246982
 21
72.05705601968346
 31
0.0
  0
LINE
  5
108
330
6F
100
AcDbEntity
  8
0
 62
     0
100
AcDbLine
 10
76.48054313246982
 20
72.05705601968346
 30
0.0
 11
76.48061164766899
 21
71.45760913687759
 31
0.0
  0
LINE
  5
115
330
6F
100
AcDbEntity
  8
0
 62
     0
100
AcDbLine
 10
0.2971903351127647
 20
52.33970949138431
 30
0.0
 11
-0.5017381043092062
 21
52.33901762234125
 31
0.0
  0
LINE
  5
116
330
6F
100
AcDbEntity
  8
0
 62
     0
100
AcDbLine
 10
-0.5017381043092062
 20
52.33901762234125
 30
0.0
 11
-0.4916307999934288
 21
39.53902468621823
 31
0.0
  0
LINE
  5
117
330
6F
100
AcDbEntity
  8
0
 62
     0
100
AcDbLine
 10
-0.4916307999934288
 20
39.53902468621823
 30
0.0
 11
0.3085946717936636
 21
39.54016889036254
 31
0.0
  0
LINE
  5
118
330
6F
100
AcDbEntity
  8
0
 62
     0
100
AcDbLine
 10
0.3085946717936636
 20
39.54016889036254
 30
0.0
 11
0.3089205168617157
 21
38.93934147094414
 31
0.0
  0
LINE
  5
119
330
6F
100
AcDbEntity
  8
0
 62
     0
100
AcDbLine
 10
0.3089205168617157
 20
38.93934147094414
 30
0.0
 11
14.30849586236138
 21
38.95233908910991
 31
0.0
  0
LINE
  5
11A
330
6F
100
AcDbEntity
  8
0
 62
     0
100
AcDbLine
 10
14.30849586236138
 20
38.95233908910991
 30
0.0
 11
14.30854988485377
 21
39.55171537082414
 31
0.0
  0
LINE
  5
11B
330
6F
100
AcDbEntity
  8
0
 62
     0
100
AcDbLine
 10
14.30854988485377
 20
39.55171537082414
 30
0.0
 11
15.10880432745835
 21
39.55286736545844
 31
0.0
  0
LINE
  5
11C
330
6F
100
AcDbEntity
  8
0
 62
     0
100
AcDbLine
 10
15.10880432745835
 20
39.55286736545844
 30
0.0
 11
15.09731242893837
 21
52.35269507782504
 31
0.0
  0
LINE
  5
11D
330
6F
100
AcDbEntity
  8
0
 62
     0
100
AcDbLine
 10
15.09731242893837
 20
52.35269507782504
 30
0.0
 11
14.29705798633379
 21
52.35154308319075
 31
0.0
  0
LINE
  5
11E
330
6F
100
AcDbEntity
  8
0
 62
     0
100
AcDbLine
 10
14.29705798633379
 20
52.35154308319075
 30
0.0
 11
14.2966965160266
 21
52.95246447517079
 31
0.0
  0
LINE
  5
11F
330
6F
100
AcDbEntity
  8
0
 62
     0
100
AcDbLine
 10
14.2966965160266
 20
52.95246447517079
 30
0.0
 11
0.2972377031835096
 21
52.93918753615014
 31
0.0
  0
LINE
  5
120
330
6F
100
AcDbEntity
  8
0
 62
     0
100
AcDbLine
 10
0.2972377031835096
 20
52.93918753615014
 30
0.0
 11
0.2971903351127647
 21
52.33970949138431
 31
0.0
  0
LINE
  5
12D
330
6F
100
AcDbEntity
  8
0
 62
     0
100
AcDbLine
 10
57.42917755979439
 20
71.44048823243088
 30
0.0
 11
56.63008194988917
 21
71.43964785739625
 31
0.0
  0
LINE
  5
12E
330
6F
100
AcDbEntity
  8
0
 62
     0
100
AcDbLine
 10
56.63008194988917
 20
71.43964785739625
 30
0.0
 11
56.64179295549232
 21
58.63977551223797
 31
0.0
  0
LINE
  5
12F
330
6F
100
AcDbEntity
  8
0
 62
     0
100
AcDbLine
 10
56.64179295549232
 20
58.63977551223797
 30
0.0
 11
57.44195082870531
 21
58.6409015385723
 31
0.0
  0
LINE
  5
130
330
6F
100
AcDbEntity
  8
0
 62
     0
100
AcDbLine
 10
57.44195082870531
 20
58.6409015385723
 30
0.0
 11
57.44230499520422
 21
58.0403923924587
 31
0.0
  0
LINE
  5
131
330
6F
100
AcDbEntity
  8
0
 62
     0
100
AcDbLine
 10
57.44230499520422
 20
58.0403923924587
 30
0.0
 11
71.44192562288218
 21
58.05329863489288
 31
0.0
  0
LINE
  5
132
330
6F
100
AcDbEntity
  8
0
 62
     0
100
AcDbLine
 10
71.44192562288218
 20
58.05329863489288
 30
0.0
 11
71.44139698209173
 21
58.65407152088135
 31
0.0
  0
LINE
  5
133
330
6F
100
AcDbEntity
  8
0
 62
     0
100
AcDbLine
 10
71.44139698209173
 20
58.65407152088135
 30
0.0
 11
72.24220811967917
 21
58.65392348063301
 31
0.0
  0
LINE
  5
134
330
6F
100
AcDbEntity
  8
0
 62
     0
100
AcDbLine
 10
72.24220811967917
 20
58.65392348063301
 30
0.0
 11
72.23023743107623
 21
71.45476151970742
 31
0.0
  0
LINE
  5
135
330
6F
100
AcDbEntity
  8
0
 62
     0
100
AcDbLine
 10
72.23023743107623
 20
71.45476151970742
 30
0.0
 11
71.43015015895493
 21
71.45375803106469
 31
0.0
  0
LINE
  5
136
330
6F
100
AcDbEntity
  8
0
 62
     0
100
AcDbLine
 10
71.43015015895493
 20
71.45375803106469
 30
0.0
 11
71.42998507436413
 21
72.05317894557058
 31
0.0
  0
LINE
  5
137
330
6F
100
AcDbEntity
  8
0
 62
     0
100
AcDbLine
 10
71.42998507436413
 20
72.05317894557058
 30
0.0
 11
57.43017536477807
 21
72.04136093474414
 31
0.0
  0
LINE
  5
138
330
6F
100
AcDbEntity
  8
0
 62
     0
100
AcDbLine
 10
57.43017536477807
 20
72.04136093474414
 30
0.0
 11
57.42917755979439
 21
71.44048823243088
 31
0.0
  0
LINE
  5
145
330
6F
100
AcDbEntity
  8
0
 62
     0
100
AcDbLine
 10
38.38055128808483
 20
71.42370816281695
 30
0.0
 11
37.58010370669703
 21
71.42250423158272
 31
0.0
  0
LINE
  5
146
330
6F
100
AcDbEntity
  8
0
 62
     0
100
AcDbLine
 10
37.58010370669703
 20
71.42250423158272
 30
0.0
 11
37.5917108391003
 21
58.62301816399089
 31
0.0
  0
LINE
  5
147
330
6F
100
AcDbEntity
  8
0
 62
     0
100
AcDbLine
 10
37.5917108391003
 20
58.62301816399089
 30
0.0
 11
38.39186871231328
 21
58.62414419032521
 31
0.0
  0
LINE
  5
148
330
6F
100
AcDbEntity
  8
0
 62
     0
100
AcDbLine
 10
38.39186871231328
 20
58.62414419032521
 30
0.0
 11
38.39232675201208
 21
58.02324876664514
 31
0.0
  0
LINE
  5
149
330
6F
100
AcDbEntity
  8
0
 62
     0
100
AcDbLine
 10
38.39232675201208
 20
58.02324876664514
 30
0.0
 11
52.39184350649013
 21
58.03654128664579
 31
0.0
  0
LINE
  5
14A
330
6F
100
AcDbEntity
  8
0
 62
     0
100
AcDbLine
 10
52.39184350649013
 20
58.03654128664579
 30
0.0
 11
52.39178229509922
 21
58.63557592358521
 31
0.0
  0
LINE
  5
14B
330
6F
100
AcDbEntity
  8
0
 62
     0
100
AcDbLine
 10
52.39178229509922
 20
58.63557592358521
 30
0.0
 11
53.19058819682961
 21
58.6363383937199
 31
0.0
  0
LINE
  5
14C
330
6F
100
AcDbEntity
  8
0
 62
     0
100
AcDbLine
 10
53.19058819682961
 20
58.6363383937199
 30
0.0
 11
53.18051887088386
 21
71.43665219997775
 31
0.0
  0
LINE
  5
14D
330
6F
100
AcDbEntity
  8
0
 62
     0
100
AcDbLine
 10
53.18051887088386
 20
71.43665219997775
 30
0.0
 11
52.38045756706249
 21
71.43555214194339
 31
0.0
  0
LINE
  5
14E
330
6F
100
AcDbEntity
  8
0
 62
     0
100
AcDbLine
 10
52.38045756706249
 20
71.43555214194339
 30
0.0
 11
52.3799995273637
 21
72.03644756562344
 31
0.0
  0
LINE
  5
14F
330
6F
100
AcDbEntity
  8
0
 62
     0
100
AcDbLine
 10
52.3799995273637
 20
72.03644756562344
 30
0.0
 11
38.38048277288564
 21
72.02315504562283
 31
0.0
  0
LINE
  5
150
330
6F
100
AcDbEntity
  8
0
 62
     0
100
AcDbLine
 10
38.38048277288564
 20
72.02315504562283
 30
0.0
 11
38.38055128808483
 21
71.42370816281695
 31
0.0
  0
LINE
  5
15D
330
6F
100
AcDbEntity
  8
0
 62
     0
100
AcDbLine
 10
19.33027603290956
 20
71.40689887796992
 30
0.0
 11
18.53002159030498
 21
71.40574688333562
 31
0.0
  0
LINE
  5
15E
330
6F
100
AcDbEntity
  8
0
 62
     0
100
AcDbLine
 10
18.53002159030498
 20
71.40574688333562
 30
0.0
 11
18.54153945712494
 21
58.60582260157739
 31
0.0
  0
LINE
  5
15F
330
6F
100
AcDbEntity
  8
0
 62
     0
100
AcDbLine
 10
18.54153945712494
 20
58.60582260157739
 30
0.0
 11
19.34215745592915
 21
58.6056226247291
 31
0.0
  0
LINE
  5
160
330
6F
100
AcDbEntity
  8
0
 62
     0
100
AcDbLine
 10
19.34215745592915
 20
58.6056226247291
 30
0.0
 11
19.34340346831938
 21
58.00680303799776
 31
0.0
  0
LINE
  5
161
330
6F
100
AcDbEntity
  8
0
 62
     0
100
AcDbLine
 10
19.34340346831938
 20
58.00680303799776
 30
0.0
 11
33.34184254193118
 21
58.01794181614977
 31
0.0
  0
LINE
  5
162
330
6F
100
AcDbEntity
  8
0
 62
     0
100
AcDbLine
 10
33.34184254193118
 20
58.01794181614977
 30
0.0
 11
33.3417967480988
 21
58.6188445436381
 31
0.0
  0
LINE
  5
163
330
6F
100
AcDbEntity
  8
0
 62
     0
100
AcDbLine
 10
33.3417967480988
 20
58.6188445436381
 30
0.0
 11
34.14185805192015
 21
58.61994460167245
 31
0.0
  0
LINE
  5
164
330
6F
100
AcDbEntity
  8
0
 62
     0
100
AcDbLine
 10
34.14185805192015
 20
58.61994460167245
 30
0.0
 11
34.13043675449181
 21
71.41989485173064
 31
0.0
  0
LINE
  5
165
330
6F
100
AcDbEntity
  8
0
 62
     0
100
AcDbLine
 10
34.13043675449181
 20
71.41989485173064
 30
0.0
 11
33.32962561690437
 21
71.42004289197899
 31
0.0
  0
LINE
  5
166
330
6F
100
AcDbEntity
  8
0
 62
     0
100
AcDbLine
 10
33.32962561690437
 20
71.42004289197899
 30
0.0
 11
33.33002128417155
 21
72.0193039398099
 31
0.0
  0
LINE
  5
167
330
6F
100
AcDbEntity
  8
0
 62
     0
100
AcDbLine
 10
33.33002128417155
 20
72.0193039398099
 30
0.0
 11
19.32994053090234
 21
72.00772370055834
 31
0.0
  0
LINE
  5
168
330
6F
100
AcDbEntity
  8
0
 62
     0
100
AcDbLine
 10
19.32994053090234
 20
72.00772370055834
 30
0.0
 11
19.33027603290956
 21
71.40689887796992
 31
0.0
  0
LINE
  5
175
330
6F
100
AcDbEntity
  8
0
 62
     0
100
AcDbLine
 10
76.46336414865557
 20
90.50797365763619
 30
0.0
 11
75.66304316183449
 21
90.50783929351799
 31
0.0
  0
LINE
  5
176
330
6F
100
AcDbEntity
  8
0
 62
     0
100
AcDbLine
 10
75.66304316183449
 20
90.50783929351799
 30
0.0
 11
75.67462757287095
 21
77.70689738124366
 31
0.0
  0
LINE
  5
177
330
6F
100
AcDbEntity
  8
0
 62
     0
100
AcDbLine
 10
75.67462757287095
 20
77.70689738124366
 30
0.0
 11
76.47507515425875
 21
77.70810131247791
 31
0.0
  0
LINE
  5
178
330
6F
100
AcDbEntity
  8
0
 62
     0
100
AcDbLine
 10
76.47507515425875
 20
77.70810131247791
 30
0.0
 11
76.4752434857827
 21
77.10712798389792
 31
0.0
  0
LINE
  5
179
330
6F
100
AcDbEntity
  8
0
 62
     0
100
AcDbLine
 10
76.4752434857827
 20
77.10712798389792
 30
0.0
 11
90.47476024026078
 21
77.12042050389856
 31
0.0
  0
LINE
  5
17A
330
6F
100
AcDbEntity
  8
0
 62
     0
100
AcDbLine
 10
90.47476024026078
 20
77.12042050389856
 30
0.0
 11
90.47508530643629
 21
77.7195590140379
 31
0.0
  0
LINE
  5
17B
330
6F
100
AcDbEntity
  8
0
 62
     0
100
AcDbLine
 10
90.47508530643629
 20
77.7195590140379
 30
0.0
 11
91.27553288782412
 21
77.72076294527214
 31
0.0
  0
LINE
  5
17C
330
6F
100
AcDbEntity
  8
0
 62
     0
100
AcDbLine
 10
91.27553288782412
 20
77.72076294527214
 30
0.0
 11
91.26420815978738
 21
90.52073916363031
 31
0.0
  0
LINE
  5
17D
330
6F
100
AcDbEntity
  8
0
 62
     0
100
AcDbLine
 10
91.26420815978738
 20
90.52073916363031
 30
0.0
 11
90.46272103645868
 21
90.52070542577885
 31
0.0
  0
LINE
  5
17E
330
6F
100
AcDbEntity
  8
0
 62
     0
100
AcDbLine
 10
90.46272103645868
 20
90.52070542577885
 30
0.0
 11
90.46303879882591
 21
91.12025618178456
 31
0.0
  0
LINE
  5
17F
330
6F
100
AcDbEntity
  8
0
 62
     0
100
AcDbLine
 10
90.46303879882591
 20
91.12025618178456
 30
0.0
 11
76.46233724334853
 21
91.1067486115759
 31
0.0
  0
LINE
  5
180
330
6F
100
AcDbEntity
  8
0
 62
     0
100
AcDbLine
 10
76.46233724334853
 20
91.1067486115759
 30
0.0
 11
76.46336414865557
 21
90.50797365763619
 31
0.0
  0
LINE
  5
18D
330
6F
100
AcDbEntity
  8
0
 62
     0
100
AcDbLine
 10
0.280193916517522
 20
71.39014152972283
 30
0.0
 11
-0.5200991538436988
 21
71.38897914776855
 31
0.0
  0
LINE
  5
18E
330
6F
100
AcDbEntity
  8
0
 62
     0
100
AcDbLine
 10
-0.5200991538436988
 20
71.38897914776855
 30
0.0
 11
-0.5085716300845835
 21
58.58905746284031
 31
0.0
  0
LINE
  5
18F
330
6F
100
AcDbEntity
  8
0
 62
     0
100
AcDbLine
 10
-0.5085716300845835
 20
58.58905746284031
 30
0.0
 11
0.2916634986416717
 21
58.59020426381461
 31
0.0
  0
LINE
  5
190
330
6F
100
AcDbEntity
  8
0
 62
     0
100
AcDbLine
 10
0.2916634986416717
 20
58.59020426381461
 30
0.0
 11
0.2920056550705352
 21
57.9892776781746
 31
0.0
  0
LINE
  5
191
330
6F
100
AcDbEntity
  8
0
 62
     0
100
AcDbLine
 10
0.2920056550705352
 20
57.9892776781746
 30
0.0
 11
14.29284541021369
 21
58.00292596388485
 31
0.0
  0
LINE
  5
192
330
6F
100
AcDbEntity
  8
0
 62
     0
100
AcDbLine
 10
14.29284541021369
 20
58.00292596388485
 30
0.0
 11
14.29172193551505
 21
58.6016749495246
 31
0.0
  0
LINE
  5
193
330
6F
100
AcDbEntity
  8
0
 62
     0
100
AcDbLine
 10
14.29172193551505
 20
58.6016749495246
 30
0.0
 11
15.09187980872801
 21
58.60280097585892
 31
0.0
  0
LINE
  5
194
330
6F
100
AcDbEntity
  8
0
 62
     0
100
AcDbLine
 10
15.09187980872801
 20
58.60280097585892
 30
0.0
 11
15.08036194190805
 21
71.40272525761716
 31
0.0
  0
LINE
  5
195
330
6F
100
AcDbEntity
  8
0
 62
     0
100
AcDbLine
 10
15.08036194190805
 20
71.40272525761716
 30
0.0
 11
14.28020406869509
 21
71.40159923128283
 31
0.0
  0
LINE
  5
196
330
6F
100
AcDbEntity
  8
0
 62
     0
100
AcDbLine
 10
14.28020406869509
 20
71.40159923128283
 30
0.0
 11
14.27986856668787
 21
72.00242405387122
 31
0.0
  0
LINE
  5
197
330
6F
100
AcDbEntity
  8
0
 62
     0
100
AcDbLine
 10
14.27986856668787
 20
72.00242405387122
 30
0.0
 11
0.2803258439098339
 21
71.98922810326222
 31
0.0
  0
LINE
  5
198
330
6F
100
AcDbEntity
  8
0
 62
     0
100
AcDbLine
 10
0.2803258439098339
 20
71.98922810326222
 30
0.0
 11
0.280193916517522
 21
71.39014152972283
 31
0.0
  0
LINE
  5
1A5
330
6F
100
AcDbEntity
  8
0
 62
     0
100
AcDbLine
 10
57.41338590546341
 20
90.49083003182266
 30
0.0
 11
56.61332460164207
 21
90.48972997378831
 31
0.0
  0
LINE
  5
1A6
330
6F
100
AcDbEntity
  8
0
 62
     0
100
AcDbLine
 10
56.61332460164207
 20
90.48972997378831
 30
0.0
 11
56.62464932967881
 21
77.68975375543011
 31
0.0
  0
LINE
  5
1A7
330
6F
100
AcDbEntity
  8
0
 62
     0
100
AcDbLine
 10
56.62464932967881
 20
77.68975375543011
 30
0.0
 11
57.42509691106659
 21
77.69095768666436
 31
0.0
  0
LINE
  5
1A8
330
6F
100
AcDbEntity
  8
0
 62
     0
100
AcDbLine
 10
57.42509691106659
 20
77.69095768666436
 30
0.0
 11
57.42479781319104
 21
77.09172260713342
 31
0.0
  0
LINE
  5
1A9
330
6F
100
AcDbEntity
  8
0
 62
     0
100
AcDbLine
 10
57.42479781319104
 20
77.09172260713342
 30
0.0
 11
71.42478199706862
 21
77.10327687808501
 31
0.0
  0
LINE
  5
1AA
330
6F
100
AcDbEntity
  8
0
 62
     0
100
AcDbLine
 10
71.42478199706862
 20
77.10327687808501
 30
0.0
 11
71.42463963384462
 21
77.70415363727337
 31
0.0
  0
LINE
  5
1AB
330
6F
100
AcDbEntity
  8
0
 62
     0
100
AcDbLine
 10
71.42463963384462
 20
77.70415363727337
 30
0.0
 11
72.22506449386561
 21
77.70390172382514
 31
0.0
  0
LINE
  5
1AC
330
6F
100
AcDbEntity
  8
0
 62
     0
100
AcDbLine
 10
72.22506449386561
 20
77.70390172382514
 30
0.0
 11
72.21337620962927
 21
90.50522991366587
 31
0.0
  0
LINE
  5
1AD
330
6F
100
AcDbEntity
  8
0
 62
     0
100
AcDbLine
 10
72.21337620962927
 20
90.50522991366587
 30
0.0
 11
71.41292862824146
 21
90.50402598243168
 31
0.0
  0
LINE
  5
1AE
330
6F
100
AcDbEntity
  8
0
 62
     0
100
AcDbLine
 10
71.41292862824146
 20
90.50402598243168
 30
0.0
 11
71.41187575463445
 21
91.10289750576296
 31
0.0
  0
LINE
  5
1AF
330
6F
100
AcDbEntity
  8
0
 62
     0
100
AcDbLine
 10
71.41187575463445
 20
91.10289750576296
 30
0.0
 11
57.41189157075686
 21
91.09134323481136
 31
0.0
  0
LINE
  5
1B0
330
6F
100
AcDbEntity
  8
0
 62
     0
100
AcDbLine
 10
57.41189157075686
 20
91.09134323481136
 30
0.0
 11
57.41338590546341
 21
90.49083003182266
 31
0.0
  0
LINE
  5
1BD
330
6F
100
AcDbEntity
  8
0
 62
     0
100
AcDbLine
 10
38.36330378907138
 20
90.47407268357556
 30
0.0
 11
37.56324248525004
 21
90.47297262554121
 31
0.0
  0
LINE
  5
1BE
330
6F
100
AcDbEntity
  8
0
 62
     0
100
AcDbLine
 10
37.56324248525004
 20
90.47297262554121
 30
0.0
 11
37.57466378267839
 21
77.673022375483
 31
0.0
  0
LINE
  5
1BF
330
6F
100
AcDbEntity
  8
0
 62
     0
100
AcDbLine
 10
37.57466378267839
 20
77.673022375483
 30
0.0
 11
38.37501479467457
 21
77.67420033841728
 31
0.0
  0
LINE
  5
1C0
330
6F
100
AcDbEntity
  8
0
 62
     0
100
AcDbLine
 10
38.37501479467457
 20
77.67420033841728
 30
0.0
 11
38.37518312619853
 21
77.0732270098373
 31
0.0
  0
LINE
  5
1C1
330
6F
100
AcDbEntity
  8
0
 62
     0
100
AcDbLine
 10
38.37518312619853
 20
77.0732270098373
 30
0.0
 11
52.37469988067659
 21
77.08651952983792
 31
0.0
  0
LINE
  5
1C2
330
6F
100
AcDbEntity
  8
0
 62
     0
100
AcDbLine
 10
52.37469988067659
 20
77.08651952983792
 30
0.0
 11
52.37502494685212
 21
77.68565803997724
 31
0.0
  0
LINE
  5
1C3
330
6F
100
AcDbEntity
  8
0
 62
     0
100
AcDbLine
 10
52.37502494685212
 20
77.68565803997724
 30
0.0
 11
53.1751828200651
 21
77.68678406631156
 31
0.0
  0
LINE
  5
1C4
330
6F
100
AcDbEntity
  8
0
 62
     0
100
AcDbLine
 10
53.1751828200651
 20
77.68678406631156
 30
0.0
 11
53.16376152263675
 21
90.48673431636975
 31
0.0
  0
LINE
  5
1C5
330
6F
100
AcDbEntity
  8
0
 62
     0
100
AcDbLine
 10
53.16376152263675
 20
90.48673431636975
 30
0.0
 11
52.36331394124896
 21
90.48553038513556
 31
0.0
  0
LINE
  5
1C6
330
6F
100
AcDbEntity
  8
0
 62
     0
100
AcDbLine
 10
52.36331394124896
 20
90.48553038513556
 30
0.0
 11
52.36181960654239
 21
91.08604358812426
 31
0.0
  0
LINE
  5
1C7
330
6F
100
AcDbEntity
  8
0
 62
     0
100
AcDbLine
 10
52.36181960654239
 20
91.08604358812426
 30
0.0
 11
38.36227688376435
 21
91.07284763751527
 31
0.0
  0
LINE
  5
1C8
330
6F
100
AcDbEntity
  8
0
 62
     0
100
AcDbLine
 10
38.36227688376435
 20
91.07284763751527
 30
0.0
 11
38.36330378907138
 21
90.47407268357556
 31
0.0
  0
LINE
  5
1D5
330
6F
100
AcDbEntity
  8
0
 62
     0
100
AcDbLine
 10
19.31332554587924
 20
90.45692905776199
 30
0.0
 11
18.51316767266628
 21
90.45580303142768
 31
0.0
  0
LINE
  5
1D6
330
6F
100
AcDbEntity
  8
0
 62
     0
100
AcDbLine
 10
18.51316767266628
 20
90.45580303142768
 30
0.0
 11
18.52458897009462
 21
77.65585278136949
 31
0.0
  0
LINE
  5
1D7
330
6F
100
AcDbEntity
  8
0
 62
     0
100
AcDbLine
 10
18.52458897009462
 20
77.65585278136949
 30
0.0
 11
19.32484341269919
 21
77.6570047760038
 31
0.0
  0
LINE
  5
1D8
330
6F
100
AcDbEntity
  8
0
 62
     0
100
AcDbLine
 10
19.32484341269919
 20
77.6570047760038
 30
0.0
 11
19.32510100980649
 21
77.0564696615902
 31
0.0
  0
LINE
  5
1D9
330
6F
100
AcDbEntity
  8
0
 62
     0
100
AcDbLine
 10
19.32510100980649
 20
77.0564696615902
 30
0.0
 11
33.32472163748445
 21
77.06937590402437
 31
0.0
  0
LINE
  5
1DA
330
6F
100
AcDbEntity
  8
0
 62
     0
100
AcDbLine
 10
33.32472163748445
 20
77.06937590402437
 30
0.0
 11
33.32465312228527
 21
77.66882278683024
 31
0.0
  0
LINE
  5
1DB
330
6F
100
AcDbEntity
  8
0
 62
     0
100
AcDbLine
 10
33.32465312228527
 20
77.66882278683024
 30
0.0
 11
34.12510070367306
 21
77.67002671806448
 31
0.0
  0
LINE
  5
1DC
330
6F
100
AcDbEntity
  8
0
 62
     0
100
AcDbLine
 10
34.12510070367306
 20
77.67002671806448
 30
0.0
 11
34.11329312867827
 21
90.46987309492278
 31
0.0
  0
LINE
  5
1DD
330
6F
100
AcDbEntity
  8
0
 62
     0
100
AcDbLine
 10
34.11329312867827
 20
90.46987309492278
 30
0.0
 11
33.31286826865728
 21
90.47012500837103
 31
0.0
  0
LINE
  5
1DE
330
6F
100
AcDbEntity
  8
0
 62
     0
100
AcDbLine
 10
33.31286826865728
 20
90.47012500837103
 30
0.0
 11
33.31181539505027
 21
91.06899653170236
 31
0.0
  0
LINE
  5
1DF
330
6F
100
AcDbEntity
  8
0
 62
     0
100
AcDbLine
 10
33.31181539505027
 20
91.06899653170236
 30
0.0
 11
19.31173464178106
 21
91.05741629245077
 31
0.0
  0
LINE
  5
1E0
330
6F
100
AcDbEntity
  8
0
 62
     0
100
AcDbLine
 10
19.31173464178106
 20
91.05741629245077
 30
0.0
 11
19.31332554587924
 21
90.45692905776199
 31
0.0
  0
LINE
  5
1ED
330
6F
100
AcDbEntity
  8
0
 62
     0
100
AcDbLine
 10
0.2632434294872077
 20
90.44017170951493
 30
0.0
 11
-0.5370110131173737
 21
90.43901971488065
 31
0.0
  0
LINE
  5
1EE
330
6F
100
AcDbEntity
  8
0
 62
     0
100
AcDbLine
 10
-0.5370110131173737
 20
90.43901971488065
 30
0.0
 11
-0.5254931462974161
 21
77.63909543312239
 31
0.0
  0
LINE
  5
1EF
330
6F
100
AcDbEntity
  8
0
 62
     0
100
AcDbLine
 10
-0.5254931462974161
 20
77.63909543312239
 30
0.0
 11
0.2747612963071599
 21
77.64024742775669
 31
0.0
  0
LINE
  5
1F0
330
6F
100
AcDbEntity
  8
0
 62
     0
100
AcDbLine
 10
0.2747612963071599
 20
77.64024742775669
 30
0.0
 11
0.275122766614345
 21
77.03932603577666
 31
0.0
  0
LINE
  5
1F1
330
6F
100
AcDbEntity
  8
0
 62
     0
100
AcDbLine
 10
0.275122766614345
 20
77.03932603577666
 30
0.0
 11
14.27454295170079
 21
77.05259258747729
 31
0.0
  0
LINE
  5
1F2
330
6F
100
AcDbEntity
  8
0
 62
     0
100
AcDbLine
 10
14.27454295170079
 20
77.05259258747729
 30
0.0
 11
14.27477144848472
 21
77.65170512931668
 31
0.0
  0
LINE
  5
1F3
330
6F
100
AcDbEntity
  8
0
 62
     0
100
AcDbLine
 10
14.27477144848472
 20
77.65170512931668
 30
0.0
 11
15.07485141679777
 21
77.65312086382583
 31
0.0
  0
LINE
  5
1F4
330
6F
100
AcDbEntity
  8
0
 62
     0
100
AcDbLine
 10
15.07485141679777
 20
77.65312086382583
 30
0.0
 11
15.06350802426935
 21
90.45278140570919
 31
0.0
  0
LINE
  5
1F5
330
6F
100
AcDbEntity
  8
0
 62
     0
100
AcDbLine
 10
15.06350802426935
 20
90.45278140570919
 30
0.0
 11
14.26325358166477
 21
90.4516294110749
 31
0.0
  0
LINE
  5
1F6
330
6F
100
AcDbEntity
  8
0
 62
     0
100
AcDbLine
 10
14.26325358166477
 20
90.4516294110749
 30
0.0
 11
14.26291807965756
 21
91.05245423366332
 31
0.0
  0
LINE
  5
1F7
330
6F
100
AcDbEntity
  8
0
 62
     0
100
AcDbLine
 10
14.26291807965756
 20
91.05245423366332
 30
0.0
 11
0.2633753568795196
 21
91.03925828305431
 31
0.0
  0
LINE
  5
1F8
330
6F
100
AcDbEntity
  8
0
 62
     0
100
AcDbLine
 10
0.2633753568795196
 20
91.03925828305431
 30
0.0
 11
0.2632434294872077
 21
90.44017170951493
 31
0.0
  0
LINE
  5
221
330
6F
100
AcDbEntity
  8
0
  6
Continuous
100
AcDbLine
 10
91.26100542468616
 20
94.12102743021575
 30
0.0
 11
-0.5402513456816536
 21
94.03837533157092
 31
0.0
  0
LINE
  5
224
330
6F
100
AcDbEntity
  8
0
  6
Continuous
100
AcDbLine
 10
94.26370523528914
 20
91.12371226271262
 30
0.0
 11
94.29936315215462
 21
51.26194202036122
 31
0.0
  0
LINE
  5
22B
330
6F
100
AcDbEntity
  8
0
  6
Continuous
100
AcDbLine
 10
118.1139172268896
 20
48.28302647231616
 30
0.0
 11
118.1254262772708
 21
34.2829818014512
 31
0.0
  0
LINE
  5
22F
330
6F
100
AcDbEntity
  8
0
  6
Continuous
100
AcDbLine
 10
115.1281109075615
 20
31.2805167853719
 30
0.0
 11
-0.4840020726495508
 21
31.17709721598931
 31
0.0
  0
ARC
  5
234
330
6F
100
AcDbEntity
  8
0
  6
Continuous
100
AcDbCircle
 10
-0.4866856892362163
 20
34.17709601568943
 30
0.0
 40
3.0
100
AcDbArc
 50
180.0512533082514
 51
270.0512533082513
  0
ARC
  5
237
330
6F
100
AcDbEntity
  8
0
  6
Continuous
100
AcDbCircle
 10
115.1254272909748
 20
34.280515585072
 30
0.0
 40
3.0
100
AcDbArc
 50
270.0512533082513
 51
0.0471012686033012
  0
LINE
  5
238
330
6F
100
AcDbEntity
  8
0
  6
Continuous
100
AcDbLine
 10
94.29936315215462
 20
51.26194202036122
 30
0.0
 11
115.1112346240069
 21
51.28055905563704
 31
0.0
  0
ARC
  5
239
330
6F
100
AcDbEntity
  8
0
  6
Continuous
100
AcDbCircle
 10
115.1139182405936
 20
48.28056025593696
 30
0.0
 40
3.0
100
AcDbArc
 50
0.0471012686033012
 51
90.05125330825125
  0
ARC
  5
23A
330
6F
100
AcDbEntity
  8
0
  6
Continuous
100
AcDbCircle
 10
91.26370643558905
 20
91.12102864612594
 30
0.0
 40
3.0
100
AcDbArc
 50
0.0512533082512196
 51
90.05158551535428
  0
ARC
  5
23B
330
6F
100
AcDbEntity
  8
0
  6
Continuous
100
AcDbCircle
 10
-0.5375503347787607
 20
91.03837654748115
 30
0.0
 40
3.0
100
AcDbArc
 50
90.05158551535428
 51
180.0512533082514
  0
LINE
  5
23C
330
6F
100
AcDbEntity
  8
0
 62
     0
100
AcDbLine
 10
-107.3106977105633
 20
47.48003521988263
 30
0.0
 11
-106.5111699189899
 21
47.48185469834059
 31
0.0
  0
LINE
  5
23D
330
6F
100
AcDbEntity
  8
0
 62
     0
100
AcDbLine
 10
-106.5111699189899
 20
47.48185469834059
 30
0.0
 11
-106.4999680507804
 21
34.6820301940496
 31
0.0
  0
LINE
  5
23E
330
6F
100
AcDbEntity
  8
0
 62
     0
100
AcDbLine
 10
-106.4999680507804
 20
34.6820301940496
 30
0.0
 11
-107.2990613057602
 21
34.68145058572551
 31
0.0
  0
LINE
  5
23F
330
6F
100
AcDbEntity
  8
0
 62
     0
100
AcDbLine
 10
-107.2990613057602
 20
34.68145058572551
 30
0.0
 11
-107.2994400009291
 21
34.08109025543212
 31
0.0
  0
LINE
  5
240
330
6F
100
AcDbEntity
  8
0
 62
     0
100
AcDbLine
 10
-107.2994400009291
 20
34.08109025543212
 30
0.0
 11
-121.2985498603631
 21
34.06892737764079
 31
0.0
  0
LINE
  5
241
330
6F
100
AcDbEntity
  8
0
 62
     0
100
AcDbLine
 10
-121.2985498603631
 20
34.06892737764079
 30
0.0
 11
-121.2989999032197
 21
34.66812203504474
 31
0.0
  0
LINE
  5
242
330
6F
100
AcDbEntity
  8
0
 62
     0
100
AcDbLine
 10
-121.2989999032197
 20
34.66812203504474
 30
0.0
 11
-122.0991662490547
 21
34.66778753081381
 31
0.0
  0
LINE
  5
243
330
6F
100
AcDbEntity
  8
0
 62
     0
100
AcDbLine
 10
-122.0991662490547
 20
34.66778753081381
 30
0.0
 11
-122.111707839269
 21
47.46802147978971
 31
0.0
  0
LINE
  5
244
330
6F
100
AcDbEntity
  8
0
 62
     0
100
AcDbLine
 10
-122.111707839269
 20
47.46802147978971
 30
0.0
 11
-121.3115492320805
 21
47.46832699931171
 31
0.0
  0
LINE
  5
245
330
6F
100
AcDbEntity
  8
0
 62
     0
100
AcDbLine
 10
-121.3115492320805
 20
47.46832699931171
 30
0.0
 11
-121.3126300905523
 21
48.06903561565158
 31
0.0
  0
LINE
  5
246
330
6F
100
AcDbEntity
  8
0
 62
     0
100
AcDbLine
 10
-121.3126300905523
 20
48.06903561565158
 30
0.0
 11
-107.3127447259986
 21
48.08100179110589
 31
0.0
  0
LINE
  5
247
330
6F
100
AcDbEntity
  8
0
 62
     0
100
AcDbLine
 10
-107.3127447259986
 20
48.08100179110589
 30
0.0
 11
-107.3106977105633
 21
47.48003521988263
 31
0.0
  0
LINE
  5
248
330
6F
100
AcDbEntity
  8
0
 62
     0
100
AcDbLine
 10
-83.50320461802203
 20
52.26449682476573
 30
0.0
 11
-82.70314262652993
 21
52.2648281397761
 31
0.0
  0
LINE
  5
249
330
6F
100
AcDbEntity
  8
0
 62
     0
100
AcDbLine
 10
-82.70314262652993
 20
52.2648281397761
 30
0.0
 11
-82.69154139779081
 21
39.46494876137992
 31
0.0
  0
LINE
  5
24A
330
6F
100
AcDbEntity
  8
0
 62
     0
100
AcDbLine
 10
-82.69154139779081
 20
39.46494876137992
 30
0.0
 11
-83.49201564755672
 21
39.46462401262657
 31
0.0
  0
LINE
  5
24B
330
6F
100
AcDbEntity
  8
0
 62
     0
100
AcDbLine
 10
-83.49201564755672
 20
39.46462401262657
 30
0.0
 11
-83.49103140478128
 21
38.86394119177502
 31
0.0
  0
LINE
  5
24C
330
6F
100
AcDbEntity
  8
0
 62
     0
100
AcDbLine
 10
-83.49103140478128
 20
38.86394119177502
 30
0.0
 11
-97.49197954199482
 21
38.85225876669243
 31
0.0
  0
LINE
  5
24D
330
6F
100
AcDbEntity
  8
0
 62
     0
100
AcDbLine
 10
-97.49197954199482
 20
38.85225876669243
 30
0.0
 11
-97.49194650636972
 21
39.4513244466547
 31
0.0
  0
LINE
  5
24E
330
6F
100
AcDbEntity
  8
0
 62
     0
100
AcDbLine
 10
-97.49194650636972
 20
39.4513244466547
 30
0.0
 11
-98.29200849786181
 21
39.45099313164433
 31
0.0
  0
LINE
  5
24F
330
6F
100
AcDbEntity
  8
0
 62
     0
100
AcDbLine
 10
-98.29200849786181
 20
39.45099313164433
 30
0.0
 11
-98.30360972660095
 21
52.25087251004051
 31
0.0
  0
LINE
  5
250
330
6F
100
AcDbEntity
  8
0
 62
     0
100
AcDbLine
 10
-98.30360972660095
 20
52.25087251004051
 30
0.0
 11
-97.50313547683509
 21
52.25119725879387
 31
0.0
  0
LINE
  5
251
330
6F
100
AcDbEntity
  8
0
 62
     0
100
AcDbLine
 10
-97.50313547683509
 20
52.25119725879387
 30
0.0
 11
-97.5041197196105
 21
52.8518800796454
 31
0.0
  0
LINE
  5
252
330
6F
100
AcDbEntity
  8
0
 62
     0
100
AcDbLine
 10
-97.5041197196105
 20
52.8518800796454
 30
0.0
 11
-83.50317158239692
 21
52.863562504728
 31
0.0
  0
LINE
  5
253
330
6F
100
AcDbEntity
  8
0
 62
     0
100
AcDbLine
 10
-83.50317158239692
 20
52.863562504728
 30
0.0
 11
-83.50320461802203
 21
52.26449682476573
 31
0.0
  0
LINE
  5
254
330
6F
100
AcDbEntity
  8
0
 62
     0
100
AcDbLine
 10
-64.45314880467478
 20
52.2817249515679
 30
0.0
 11
-63.65173419343371
 21
52.28169512974156
 31
0.0
  0
LINE
  5
255
330
6F
100
AcDbEntity
  8
0
 62
     0
100
AcDbLine
 10
-63.65173419343371
 20
52.28169512974156
 30
0.0
 11
-63.64117603858348
 21
39.48333627653833
 31
0.0
  0
LINE
  5
256
330
6F
100
AcDbEntity
  8
0
 62
     0
100
AcDbLine
 10
-63.64117603858348
 20
39.48333627653833
 30
0.0
 11
-64.44195983420939
 21
39.48185213942873
 31
0.0
  0
LINE
  5
257
330
6F
100
AcDbEntity
  8
0
 62
     0
100
AcDbLine
 10
-64.44195983420939
 20
39.48185213942873
 30
0.0
 11
-64.44100138692231
 21
38.88107270288085
 31
0.0
  0
LINE
  5
258
330
6F
100
AcDbEntity
  8
0
 62
     0
100
AcDbLine
 10
-64.44100138692231
 20
38.88107270288085
 30
0.0
 11
-78.44194952413587
 21
38.86939027779826
 31
0.0
  0
LINE
  5
259
330
6F
100
AcDbEntity
  8
0
 62
     0
100
AcDbLine
 10
-78.44194952413587
 20
38.86939027779826
 30
0.0
 11
-78.44155535167401
 21
39.46980857750946
 31
0.0
  0
LINE
  5
25A
330
6F
100
AcDbEntity
  8
0
 62
     0
100
AcDbLine
 10
-78.44155535167401
 20
39.46980857750946
 30
0.0
 11
-79.24197848000289
 21
39.46812464275016
 31
0.0
  0
LINE
  5
25B
330
6F
100
AcDbEntity
  8
0
 62
     0
100
AcDbLine
 10
-79.24197848000289
 20
39.46812464275016
 30
0.0
 11
-79.25355391325364
 21
52.26810063684268
 31
0.0
  0
LINE
  5
25C
330
6F
100
AcDbEntity
  8
0
 62
     0
100
AcDbLine
 10
-79.25355391325364
 20
52.26810063684268
 30
0.0
 11
-78.45277011762775
 21
52.26958477395228
 31
0.0
  0
LINE
  5
25D
330
6F
100
AcDbEntity
  8
0
 62
     0
100
AcDbLine
 10
-78.45277011762775
 20
52.26958477395228
 30
0.0
 11
-78.45408970175153
 21
52.86901159075124
 31
0.0
  0
LINE
  5
25E
330
6F
100
AcDbEntity
  8
0
 62
     0
100
AcDbLine
 10
-78.45408970175153
 20
52.86901159075124
 30
0.0
 11
-64.4528062231896
 21
52.88195001988641
 31
0.0
  0
LINE
  5
25F
330
6F
100
AcDbEntity
  8
0
 62
     0
100
AcDbLine
 10
-64.4528062231896
 20
52.88195001988641
 30
0.0
 11
-64.45314880467478
 21
52.2817249515679
 31
0.0
  0
LINE
  5
260
330
6F
100
AcDbEntity
  8
0
 62
     0
100
AcDbLine
 10
-45.40317037779247
 20
52.29866323128105
 30
0.0
 11
-44.60308259081201
 21
52.29909116198776
 31
0.0
  0
LINE
  5
261
330
6F
100
AcDbEntity
  8
0
 62
     0
100
AcDbLine
 10
-44.60308259081201
 20
52.29909116198776
 30
0.0
 11
-44.59157797776923
 21
39.49923757907991
 31
0.0
  0
LINE
  5
262
330
6F
100
AcDbEntity
  8
0
 62
     0
100
AcDbLine
 10
-44.59157797776923
 20
39.49923757907991
 30
0.0
 11
-45.39163996926139
 21
39.49890626406955
 31
0.0
  0
LINE
  5
263
330
6F
100
AcDbEntity
  8
0
 62
     0
100
AcDbLine
 10
-45.39163996926139
 20
39.49890626406955
 30
0.0
 11
-45.39097136906335
 21
38.89820421398667
 31
0.0
  0
LINE
  5
264
330
6F
100
AcDbEntity
  8
0
 62
     0
100
AcDbLine
 10
-45.39097136906335
 20
38.89820421398667
 30
0.0
 11
-59.39189371078859
 21
38.88661840460044
 31
0.0
  0
LINE
  5
265
330
6F
100
AcDbEntity
  8
0
 62
     0
100
AcDbLine
 10
-59.39189371078859
 20
38.88661840460044
 30
0.0
 11
-59.39159662356273
 21
39.48551008240133
 31
0.0
  0
LINE
  5
266
330
6F
100
AcDbEntity
  8
0
 62
     0
100
AcDbLine
 10
-59.39159662356273
 20
39.48551008240133
 30
0.0
 11
-60.19204507784028
 21
39.48528194934432
 31
0.0
  0
LINE
  5
267
330
6F
100
AcDbEntity
  8
0
 62
     0
100
AcDbLine
 10
-60.19204507784028
 20
39.48528194934432
 30
0.0
 11
-60.20313743260931
 21
52.28512896599518
 31
0.0
  0
LINE
  5
268
330
6F
100
AcDbEntity
  8
0
 62
     0
100
AcDbLine
 10
-60.20313743260931
 20
52.28512896599518
 30
0.0
 11
-59.40307544111718
 21
52.28546028100552
 31
0.0
  0
LINE
  5
269
330
6F
100
AcDbEntity
  8
0
 62
     0
100
AcDbLine
 10
-59.40307544111718
 20
52.28546028100552
 30
0.0
 11
-59.40379563229186
 21
52.88596909969569
 31
0.0
  0
LINE
  5
26A
330
6F
100
AcDbEntity
  8
0
 62
     0
100
AcDbLine
 10
-59.40379563229186
 20
52.88596909969569
 30
0.0
 11
-45.403111546679
 21
52.89782552693965
 31
0.0
  0
LINE
  5
26B
330
6F
100
AcDbEntity
  8
0
 62
     0
100
AcDbLine
 10
-45.403111546679
 20
52.89782552693965
 30
0.0
 11
-45.40317037779247
 21
52.29866323128105
 31
0.0
  0
LINE
  5
26C
330
6F
100
AcDbEntity
  8
0
 62
     0
100
AcDbLine
 10
-26.35308876895685
 20
52.31598797377957
 30
0.0
 11
-25.55283354607202
 21
52.31626769781325
 31
0.0
  0
LINE
  5
26D
330
6F
100
AcDbEntity
  8
0
 62
     0
100
AcDbLine
 10
-25.55283354607202
 20
52.31626769781325
 30
0.0
 11
-25.54280396396286
 21
39.51670443153409
 31
0.0
  0
LINE
  5
26E
330
6F
100
AcDbEntity
  8
0
 62
     0
100
AcDbLine
 10
-25.54280396396286
 20
39.51670443153409
 30
0.0
 11
-26.34206770393548
 21
39.5147109509148
 31
0.0
  0
LINE
  5
26F
330
6F
100
AcDbEntity
  8
0
 62
     0
100
AcDbLine
 10
-26.34206770393548
 20
39.5147109509148
 30
0.0
 11
-26.34091555571607
 21
38.91543234078885
 31
0.0
  0
LINE
  5
270
330
6F
100
AcDbEntity
  8
0
 62
     0
100
AcDbLine
 10
-26.34091555571607
 20
38.91543234078885
 30
0.0
 11
-40.34077559432107
 21
38.9020103636323
 31
0.0
  0
LINE
  5
271
330
6F
100
AcDbEntity
  8
0
 62
     0
100
AcDbLine
 10
-40.34077559432107
 20
38.9020103636323
 30
0.0
 11
-40.34163742591178
 21
39.50276400469185
 31
0.0
  0
LINE
  5
272
330
6F
100
AcDbEntity
  8
0
 62
     0
100
AcDbLine
 10
-40.34163742591178
 20
39.50276400469185
 30
0.0
 11
-41.14191844428495
 21
39.50238766496183
 31
0.0
  0
LINE
  5
273
330
6F
100
AcDbEntity
  8
0
 62
     0
100
AcDbLine
 10
-41.14191844428495
 20
39.50238766496183
 30
0.0
 11
-41.15305582377366
 21
52.3024537084937
 31
0.0
  0
LINE
  5
274
330
6F
100
AcDbEntity
  8
0
 62
     0
100
AcDbLine
 10
-41.15305582377366
 20
52.3024537084937
 30
0.0
 11
-40.35271008190984
 21
52.30384779616393
 31
0.0
  0
LINE
  5
275
330
6F
100
AcDbEntity
  8
0
 62
     0
100
AcDbLine
 10
-40.35271008190984
 20
52.30384779616393
 30
0.0
 11
-40.35371402345623
 21
52.90329384219425
 31
0.0
  0
LINE
  5
276
330
6F
100
AcDbEntity
  8
0
 62
     0
100
AcDbLine
 10
-40.35371402345623
 20
52.90329384219425
 30
0.0
 11
-26.35255295607898
 21
52.91616145112139
 31
0.0
  0
LINE
  5
277
330
6F
100
AcDbEntity
  8
0
 62
     0
100
AcDbLine
 10
-26.35255295607898
 20
52.91616145112139
 30
0.0
 11
-26.35308876895685
 21
52.31598797377957
 31
0.0
  0
LINE
  5
278
330
6F
100
AcDbEntity
  8
0
 62
     0
100
AcDbLine
 10
-83.52055515600889
 20
71.31448181790499
 30
0.0
 11
-82.72010670173136
 21
71.31470995096201
 31
0.0
  0
LINE
  5
279
330
6F
100
AcDbEntity
  8
0
 62
     0
100
AcDbLine
 10
-82.72010670173136
 20
71.31470995096201
 30
0.0
 11
-82.70891773126598
 21
58.51483713882284
 31
0.0
  0
LINE
  5
27A
330
6F
100
AcDbEntity
  8
0
 62
     0
100
AcDbLine
 10
-82.70891773126598
 20
58.51483713882284
 30
0.0
 11
-83.50762710300918
 21
58.51414468697578
 31
0.0
  0
LINE
  5
27B
330
6F
100
AcDbEntity
  8
0
 62
     0
100
AcDbLine
 10
-83.50762710300918
 20
58.51414468697578
 30
0.0
 11
-83.50835614727978
 21
57.91402280061063
 31
0.0
  0
LINE
  5
27C
330
6F
100
AcDbEntity
  8
0
 62
     0
100
AcDbLine
 10
-83.50835614727978
 20
57.91402280061063
 30
0.0
 11
-97.50782925355977
 21
57.90205005889936
 31
0.0
  0
LINE
  5
27D
330
6F
100
AcDbEntity
  8
0
 62
     0
100
AcDbLine
 10
-97.50782925355977
 20
57.90205005889936
 30
0.0
 11
-97.50888478608281
 21
58.50130287353697
 31
0.0
  0
LINE
  5
27E
330
6F
100
AcDbEntity
  8
0
 62
     0
100
AcDbLine
 10
-97.50888478608281
 20
58.50130287353697
 30
0.0
 11
-98.30933324036037
 21
58.50107474047996
 31
0.0
  0
LINE
  5
27F
330
6F
100
AcDbEntity
  8
0
 62
     0
100
AcDbLine
 10
-98.30933324036037
 20
58.50107474047996
 30
0.0
 11
-98.32052221082571
 21
71.30094755261914
 31
0.0
  0
LINE
  5
280
330
6F
100
AcDbEntity
  8
0
 62
     0
100
AcDbLine
 10
-98.32052221082571
 20
71.30094755261914
 30
0.0
 11
-97.5204602193336
 21
71.3012788676295
 31
0.0
  0
LINE
  5
281
330
6F
100
AcDbEntity
  8
0
 62
     0
100
AcDbLine
 10
-97.5204602193336
 20
71.3012788676295
 30
0.0
 11
-97.52108379481192
 21
71.90176189083135
 31
0.0
  0
LINE
  5
282
330
6F
100
AcDbEntity
  8
0
 62
     0
100
AcDbLine
 10
-97.52108379481192
 20
71.90176189083135
 30
0.0
 11
-83.52155909755531
 21
71.91392786393532
 31
0.0
  0
LINE
  5
283
330
6F
100
AcDbEntity
  8
0
 62
     0
100
AcDbLine
 10
-83.52155909755531
 20
71.91392786393532
 30
0.0
 11
-83.52055515600889
 21
71.31448181790499
 31
0.0
  0
LINE
  5
284
330
6F
100
AcDbEntity
  8
0
 62
     0
100
AcDbLine
 10
-7.303052372656755
 20
52.33291077619968
 30
0.0
 11
-6.504123974032503
 21
52.33364825276641
 31
0.0
  0
LINE
  5
285
330
6F
100
AcDbEntity
  8
0
 62
     0
100
AcDbLine
 10
-6.504123974032503
 20
52.33364825276641
 30
0.0
 11
-6.491331089099767
 21
39.5336577190006
 31
0.0
  0
LINE
  5
286
330
6F
100
AcDbEntity
  8
0
 62
     0
100
AcDbLine
 10
-6.491331089099767
 20
39.5336577190006
 30
0.0
 11
-7.2915573272757
 21
39.5333702563204
 31
0.0
  0
LINE
  5
287
330
6F
100
AcDbEntity
  8
0
 62
     0
100
AcDbLine
 10
-7.2915573272757
 20
39.5333702563204
 30
0.0
 11
-7.290808245300026
 21
38.93254321550401
 31
0.0
  0
LINE
  5
288
330
6F
100
AcDbEntity
  8
0
 62
     0
100
AcDbLine
 10
-7.290808245300026
 20
38.93254321550401
 30
0.0
 11
-21.2903844396254
 21
38.92049449448704
 31
0.0
  0
LINE
  5
289
330
6F
100
AcDbEntity
  8
0
 62
     0
100
AcDbLine
 10
-21.2903844396254
 20
38.92049449448704
 30
0.0
 11
-21.29151079235648
 21
39.51986972030933
 31
0.0
  0
LINE
  5
28A
330
6F
100
AcDbEntity
  8
0
 62
     0
100
AcDbLine
 10
-21.29151079235648
 20
39.51986972030933
 30
0.0
 11
-22.09176601524132
 21
39.51958999627566
 31
0.0
  0
LINE
  5
28B
330
6F
100
AcDbEntity
  8
0
 62
     0
100
AcDbLine
 10
-22.09176601524132
 20
39.51958999627566
 30
0.0
 11
-22.10317401258774
 21
52.31941778369514
 31
0.0
  0
LINE
  5
28C
330
6F
100
AcDbEntity
  8
0
 62
     0
100
AcDbLine
 10
-22.10317401258774
 20
52.31941778369514
 30
0.0
 11
-21.3029187897029
 21
52.31969750772885
 31
0.0
  0
LINE
  5
28D
330
6F
100
AcDbEntity
  8
0
 62
     0
100
AcDbLine
 10
-21.3029187897029
 20
52.31969750772885
 30
0.0
 11
-21.3036324146206
 21
52.92061858469275
 31
0.0
  0
LINE
  5
28E
330
6F
100
AcDbEntity
  8
0
 62
     0
100
AcDbLine
 10
-21.3036324146206
 20
52.92061858469275
 30
0.0
 11
-7.304172253038767
 21
52.93238777681601
 31
0.0
  0
LINE
  5
28F
330
6F
100
AcDbEntity
  8
0
 62
     0
100
AcDbLine
 10
-7.304172253038767
 20
52.93238777681601
 30
0.0
 11
-7.303052372656755
 21
52.33291077619968
 31
0.0
  0
LINE
  5
290
330
6F
100
AcDbEntity
  8
0
 62
     0
100
AcDbLine
 10
-64.46912092742437
 20
71.33144542356685
 30
0.0
 11
-63.67002509289576
 21
71.33203469346056
 31
0.0
  0
LINE
  5
291
330
6F
100
AcDbEntity
  8
0
 62
     0
100
AcDbLine
 10
-63.67002509289576
 20
71.33203469346056
 30
0.0
 11
-63.65883612243036
 21
58.53216188132137
 31
0.0
  0
LINE
  5
292
330
6F
100
AcDbEntity
  8
0
 62
     0
100
AcDbLine
 10
-63.65883612243036
 20
58.53216188132137
 30
0.0
 11
-64.45899472961887
 21
58.53185636179937
 31
0.0
  0
LINE
  5
293
330
6F
100
AcDbEntity
  8
0
 62
     0
100
AcDbLine
 10
-64.45899472961887
 20
58.53185636179937
 30
0.0
 11
-64.45827453844417
 21
57.93134754310917
 31
0.0
  0
LINE
  5
294
330
6F
100
AcDbEntity
  8
0
 62
     0
100
AcDbLine
 10
-64.45827453844417
 20
57.93134754310917
 30
0.0
 11
-78.45789585139714
 21
57.91920736549354
 31
0.0
  0
LINE
  5
295
330
6F
100
AcDbEntity
  8
0
 62
     0
100
AcDbLine
 10
-78.45789585139714
 20
57.91920736549354
 30
0.0
 11
-78.45844204041047
 21
58.51998023578442
 31
0.0
  0
LINE
  5
296
330
6F
100
AcDbEntity
  8
0
 62
     0
100
AcDbLine
 10
-78.45844204041047
 20
58.51998023578442
 30
0.0
 11
-79.25925163152474
 21
58.5183994829785
 31
0.0
  0
LINE
  5
297
330
6F
100
AcDbEntity
  8
0
 62
     0
100
AcDbLine
 10
-79.25925163152474
 20
58.5183994829785
 30
0.0
 11
-79.27018264710674
 21
71.31923845208118
 31
0.0
  0
LINE
  5
298
330
6F
100
AcDbEntity
  8
0
 62
     0
100
AcDbLine
 10
-79.27018264710674
 20
71.31923845208118
 30
0.0
 11
-78.47009486012627
 21
71.3196663827879
 31
0.0
  0
LINE
  5
299
330
6F
100
AcDbEntity
  8
0
 62
     0
100
AcDbLine
 10
-78.47009486012627
 20
71.3196663827879
 30
0.0
 11
-78.47100218597631
 21
71.91908663332988
 31
0.0
  0
LINE
  5
29A
330
6F
100
AcDbEntity
  8
0
 62
     0
100
AcDbLine
 10
-78.47100218597631
 20
71.91908663332988
 30
0.0
 11
-64.47119373834799
 21
71.93231537909373
 31
0.0
  0
LINE
  5
29B
330
6F
100
AcDbEntity
  8
0
 62
     0
100
AcDbLine
 10
-64.47119373834799
 20
71.93231537909373
 30
0.0
 11
-64.46912092742437
 21
71.33144542356685
 31
0.0
  0
LINE
  5
29C
330
6F
100
AcDbEntity
  8
0
 62
     0
100
AcDbLine
 10
-45.420495120291
 20
71.34874484011665
 30
0.0
 11
-44.62004666601345
 21
71.34897297317367
 31
0.0
  0
LINE
  5
29D
330
6F
100
AcDbEntity
  8
0
 62
     0
100
AcDbLine
 10
-44.62004666601345
 20
71.34897297317367
 30
0.0
 11
-44.60875451359473
 21
58.54948662381989
 31
0.0
  0
LINE
  5
29E
330
6F
100
AcDbEntity
  8
0
 62
     0
100
AcDbLine
 10
-44.60875451359473
 20
58.54948662381989
 30
0.0
 11
-45.40891312078325
 21
58.54918110429789
 31
0.0
  0
LINE
  5
29F
330
6F
100
AcDbEntity
  8
0
 62
     0
100
AcDbLine
 10
-45.40891312078325
 20
58.54918110429789
 30
0.0
 11
-45.40829611156188
 21
57.94828582282228
 31
0.0
  0
LINE
  5
2A0
330
6F
100
AcDbEntity
  8
0
 62
     0
100
AcDbLine
 10
-45.40829611156188
 20
57.94828582282228
 30
0.0
 11
-59.40781424256153
 21
57.93653210799206
 31
0.0
  0
LINE
  5
2A1
330
6F
100
AcDbEntity
  8
0
 62
     0
100
AcDbLine
 10
-59.40781424256153
 20
57.93653210799206
 30
0.0
 11
-59.40882475036492
 21
58.53556589574862
 31
0.0
  0
LINE
  5
2A2
330
6F
100
AcDbEntity
  8
0
 62
     0
100
AcDbLine
 10
-59.40882475036492
 20
58.53556589574862
 30
0.0
 11
-60.20763073780448
 21
58.53489923938989
 31
0.0
  0
LINE
  5
2A3
330
6F
100
AcDbEntity
  8
0
 62
     0
100
AcDbLine
 10
-60.20763073780448
 20
58.53489923938989
 30
0.0
 11
-60.22046217510784
 21
71.33521057483079
 31
0.0
  0
LINE
  5
2A4
330
6F
100
AcDbEntity
  8
0
 62
     0
100
AcDbLine
 10
-60.22046217510784
 20
71.33521057483079
 30
0.0
 11
-59.42040018361567
 21
71.33554188984112
 31
0.0
  0
LINE
  5
2A5
330
6F
100
AcDbEntity
  8
0
 62
     0
100
AcDbLine
 10
-59.42040018361567
 20
71.33554188984112
 30
0.0
 11
-59.42101719283704
 21
71.93643717131672
 31
0.0
  0
LINE
  5
2A6
330
6F
100
AcDbEntity
  8
0
 62
     0
100
AcDbLine
 10
-59.42101719283704
 20
71.93643717131672
 30
0.0
 11
-45.42149906183738
 21
71.94819088614696
 31
0.0
  0
LINE
  5
2A7
330
6F
100
AcDbEntity
  8
0
 62
     0
100
AcDbLine
 10
-45.42149906183738
 20
71.94819088614696
 30
0.0
 11
-45.420495120291
 21
71.34874484011665
 31
0.0
  0
LINE
  5
2A8
330
6F
100
AcDbEntity
  8
0
 62
     0
100
AcDbLine
 10
-26.37022028006267
 20
71.36601799163853
 30
0.0
 11
-25.56996505717784
 21
71.3662977156722
 31
0.0
  0
LINE
  5
2A9
330
6F
100
AcDbEntity
  8
0
 62
     0
100
AcDbLine
 10
-25.56996505717784
 20
71.3662977156722
 30
0.0
 11
-25.55858285531976
 21
58.56637331255634
 31
0.0
  0
LINE
  5
2AA
330
6F
100
AcDbEntity
  8
0
 62
     0
100
AcDbLine
 10
-25.55858285531976
 20
58.56637331255634
 30
0.0
 11
-26.35919921504131
 21
58.56474096877374
 31
0.0
  0
LINE
  5
2AB
330
6F
100
AcDbEntity
  8
0
 62
     0
100
AcDbLine
 10
-26.35919921504131
 20
58.56474096877374
 30
0.0
 11
-26.35937389108247
 21
57.96592011118086
 31
0.0
  0
LINE
  5
2AC
330
6F
100
AcDbEntity
  8
0
 62
     0
100
AcDbLine
 10
-26.35937389108247
 20
57.96592011118086
 30
0.0
 11
-40.35781048973054
 21
57.9520145860029
 31
0.0
  0
LINE
  5
2AD
330
6F
100
AcDbEntity
  8
0
 62
     0
100
AcDbLine
 10
-40.35781048973054
 20
57.9520145860029
 30
0.0
 11
-40.35883975722565
 21
58.55291643373547
 31
0.0
  0
LINE
  5
2AE
330
6F
100
AcDbEntity
  8
0
 62
     0
100
AcDbLine
 10
-40.35883975722565
 20
58.55291643373547
 30
0.0
 11
-41.15890174871775
 21
58.55258511872513
 31
0.0
  0
LINE
  5
2AF
330
6F
100
AcDbEntity
  8
0
 62
     0
100
AcDbLine
 10
-41.15890174871775
 20
58.55258511872513
 30
0.0
 11
-41.1703805662722
 21
71.35253531732931
 31
0.0
  0
LINE
  5
2B0
330
6F
100
AcDbEntity
  8
0
 62
     0
100
AcDbLine
 10
-41.1703805662722
 20
71.35253531732931
 30
0.0
 11
-40.36957097515795
 21
71.35411607013526
 31
0.0
  0
LINE
  5
2B1
330
6F
100
AcDbEntity
  8
0
 62
     0
100
AcDbLine
 10
-40.36957097515795
 20
71.35411607013526
 30
0.0
 11
-40.37103876595475
 21
71.95337545102986
 31
0.0
  0
LINE
  5
2B2
330
6F
100
AcDbEntity
  8
0
 62
     0
100
AcDbLine
 10
-40.37103876595475
 20
71.95337545102986
 30
0.0
 11
-26.37095970046872
 21
71.96684245290609
 31
0.0
  0
LINE
  5
2B3
330
6F
100
AcDbEntity
  8
0
 62
     0
100
AcDbLine
 10
-26.37095970046872
 20
71.96684245290609
 30
0.0
 11
-26.37022028006267
 21
71.36601799163853
 31
0.0
  0
LINE
  5
2B4
330
6F
100
AcDbEntity
  8
0
 62
     0
100
AcDbLine
 10
-83.53739025376871
 20
90.36484670757273
 30
0.0
 11
-82.73707030739322
 21
90.36614417954657
 31
0.0
  0
LINE
  5
2B5
330
6F
100
AcDbEntity
  8
0
 62
     0
100
AcDbLine
 10
-82.73707030739322
 20
90.36614417954657
 30
0.0
 11
-82.72575282902577
 21
77.56520202849053
 31
0.0
  0
LINE
  5
2B6
330
6F
100
AcDbEntity
  8
0
 62
     0
100
AcDbLine
 10
-82.72575282902577
 20
77.56520202849053
 30
0.0
 11
-83.52620128330331
 21
77.56497389543351
 31
0.0
  0
LINE
  5
2B7
330
6F
100
AcDbEntity
  8
0
 62
     0
100
AcDbLine
 10
-83.52620128330331
 20
77.56497389543351
 30
0.0
 11
-83.52529442699292
 21
76.96400122749293
 31
0.0
  0
LINE
  5
2B8
330
6F
100
AcDbEntity
  8
0
 62
     0
100
AcDbLine
 10
-83.52529442699292
 20
76.96400122749293
 30
0.0
 11
-97.52481255799258
 21
76.95224751266271
 31
0.0
  0
LINE
  5
2B9
330
6F
100
AcDbEntity
  8
0
 62
     0
100
AcDbLine
 10
-97.52481255799258
 20
76.95224751266271
 30
0.0
 11
-97.52620952858135
 21
77.55138448237258
 31
0.0
  0
LINE
  5
2BA
330
6F
100
AcDbEntity
  8
0
 62
     0
100
AcDbLine
 10
-97.52620952858135
 20
77.55138448237258
 30
0.0
 11
-98.32665798285887
 21
77.55115634931559
 31
0.0
  0
LINE
  5
2BB
330
6F
100
AcDbEntity
  8
0
 62
     0
100
AcDbLine
 10
-98.32665798285887
 20
77.55115634931559
 30
0.0
 11
-98.33823341610971
 21
90.35113234340812
 31
0.0
  0
LINE
  5
2BC
330
6F
100
AcDbEntity
  8
0
 62
     0
100
AcDbLine
 10
-98.33823341610971
 20
90.35113234340812
 30
0.0
 11
-97.53674751512098
 21
90.3525325277957
 31
0.0
  0
LINE
  5
2BD
330
6F
100
AcDbEntity
  8
0
 62
     0
100
AcDbLine
 10
-97.53674751512098
 20
90.3525325277957
 30
0.0
 11
-97.53813791945276
 21
90.95208175577935
 31
0.0
  0
LINE
  5
2BE
330
6F
100
AcDbEntity
  8
0
 62
     0
100
AcDbLine
 10
-97.53813791945276
 20
90.95208175577935
 30
0.0
 11
-83.53743460460856
 21
90.96362254044592
 31
0.0
  0
LINE
  5
2BF
330
6F
100
AcDbEntity
  8
0
 62
     0
100
AcDbLine
 10
-83.53743460460856
 20
90.96362254044592
 30
0.0
 11
-83.53739025376871
 21
90.36484670757273
 31
0.0
  0
LINE
  5
2C0
330
6F
100
AcDbEntity
  8
0
 62
     0
100
AcDbLine
 10
-7.320138671227048
 20
71.38334273413703
 30
0.0
 11
-6.51984480206367
 21
71.3836121399754
 31
0.0
  0
LINE
  5
2C1
330
6F
100
AcDbEntity
  8
0
 62
     0
100
AcDbLine
 10
-6.51984480206367
 20
71.3836121399754
 30
0.0
 11
-6.508472261775227
 21
58.58369031640838
 31
0.0
  0
LINE
  5
2C2
330
6F
100
AcDbEntity
  8
0
 62
     0
100
AcDbLine
 10
-6.508472261775227
 20
58.58369031640838
 30
0.0
 11
-7.308708161520797
 21
58.58340543327702
 31
0.0
  0
LINE
  5
2C3
330
6F
100
AcDbEntity
  8
0
 62
     0
100
AcDbLine
 10
-7.308708161520797
 20
58.58340543327702
 30
0.0
 11
-7.307975213463823
 21
57.98247919721545
 31
0.0
  0
LINE
  5
2C4
330
6F
100
AcDbEntity
  8
0
 62
     0
100
AcDbLine
 10
-7.307975213463823
 20
57.98247919721545
 30
0.0
 11
-21.30881697950348
 21
57.97107888057539
 31
0.0
  0
LINE
  5
2C5
330
6F
100
AcDbEntity
  8
0
 62
     0
100
AcDbLine
 10
-21.30881697950348
 20
57.97107888057539
 30
0.0
 11
-21.308764714647
 21
58.56982891796028
 31
0.0
  0
LINE
  5
2C6
330
6F
100
AcDbEntity
  8
0
 62
     0
100
AcDbLine
 10
-21.308764714647
 20
58.56982891796028
 30
0.0
 11
-22.10892332183548
 21
58.56952339843827
 31
0.0
  0
LINE
  5
2C7
330
6F
100
AcDbEntity
  8
0
 62
     0
100
AcDbLine
 10
-22.10892332183548
 20
58.56952339843827
 30
0.0
 11
-22.12030552369355
 21
71.36944780155413
 31
0.0
  0
LINE
  5
2C8
330
6F
100
AcDbEntity
  8
0
 62
     0
100
AcDbLine
 10
-22.12030552369355
 20
71.36944780155413
 30
0.0
 11
-21.32014691650507
 21
71.36975332107614
 31
0.0
  0
LINE
  5
2C9
330
6F
100
AcDbEntity
  8
0
 62
     0
100
AcDbLine
 10
-21.32014691650507
 20
71.36975332107614
 30
0.0
 11
-21.32088633691111
 21
71.97057778234368
 31
0.0
  0
LINE
  5
2CA
330
6F
100
AcDbEntity
  8
0
 62
     0
100
AcDbLine
 10
-21.32088633691111
 20
71.97057778234368
 30
0.0
 11
-7.321342410423128
 21
71.9824281128703
 31
0.0
  0
LINE
  5
2CB
330
6F
100
AcDbEntity
  8
0
 62
     0
100
AcDbLine
 10
-7.321342410423128
 20
71.9824281128703
 30
0.0
 11
-7.320138671227048
 21
71.38334273413703
 31
0.0
  0
LINE
  5
2CC
330
6F
100
AcDbEntity
  8
0
 62
     0
100
AcDbLine
 10
-64.4874118268864
 20
90.3817849872858
 30
0.0
 11
-63.68734983539429
 21
90.38211630229618
 31
0.0
  0
LINE
  5
2CD
330
6F
100
AcDbEntity
  8
0
 62
     0
100
AcDbLine
 10
-63.68734983539429
 20
90.38211630229618
 30
0.0
 11
-63.67577440214351
 21
77.58214030820366
 31
0.0
  0
LINE
  5
2CE
330
6F
100
AcDbEntity
  8
0
 62
     0
100
AcDbLine
 10
-63.67577440214351
 20
77.58214030820366
 30
0.0
 11
-64.47622285642103
 21
77.58191217514663
 31
0.0
  0
LINE
  5
2CF
330
6F
100
AcDbEntity
  8
0
 62
     0
100
AcDbLine
 10
-64.47622285642103
 20
77.58191217514663
 30
0.0
 11
-64.4748516813206
 21
76.98267858974038
 31
0.0
  0
LINE
  5
2D0
330
6F
100
AcDbEntity
  8
0
 62
     0
100
AcDbLine
 10
-64.4748516813206
 20
76.98267858974038
 30
0.0
 11
-78.47483413111024
 21
76.96918579237579
 31
0.0
  0
LINE
  5
2D1
330
6F
100
AcDbEntity
  8
0
 62
     0
100
AcDbLine
 10
-78.47483413111024
 20
76.96918579237579
 30
0.0
 11
-78.475766782909
 21
77.57006184462004
 31
0.0
  0
LINE
  5
2D2
330
6F
100
AcDbEntity
  8
0
 62
     0
100
AcDbLine
 10
-78.475766782909
 20
77.57006184462004
 30
0.0
 11
-79.27618991123786
 21
77.56837790986075
 31
0.0
  0
LINE
  5
2D3
330
6F
100
AcDbEntity
  8
0
 62
     0
100
AcDbLine
 10
-79.27618991123786
 20
77.56837790986075
 30
0.0
 11
-79.28740420765194
 21
90.36970652370222
 31
0.0
  0
LINE
  5
2D4
330
6F
100
AcDbEntity
  8
0
 62
     0
100
AcDbLine
 10
-79.28740420765194
 20
90.36970652370222
 30
0.0
 11
-78.48695575337439
 21
90.36993465675925
 31
0.0
  0
LINE
  5
2D5
330
6F
100
AcDbEntity
  8
0
 62
     0
100
AcDbLine
 10
-78.48695575337439
 20
90.36993465675925
 30
0.0
 11
-78.48697430872592
 21
90.96880710532879
 31
0.0
  0
LINE
  5
2D6
330
6F
100
AcDbEntity
  8
0
 62
     0
100
AcDbLine
 10
-78.48697430872592
 20
90.96880710532879
 30
0.0
 11
-64.48699185893622
 21
90.98229990269336
 31
0.0
  0
LINE
  5
2D7
330
6F
100
AcDbEntity
  8
0
 62
     0
100
AcDbLine
 10
-64.48699185893622
 20
90.98229990269336
 30
0.0
 11
-64.4874118268864
 21
90.3817849872858
 31
0.0
  0
LINE
  5
2D8
330
6F
100
AcDbEntity
  8
0
 62
     0
100
AcDbLine
 10
-45.43733021805077
 20
90.39910972978434
 30
0.0
 11
-44.63726822655863
 21
90.39944104479472
 31
0.0
  0
LINE
  5
2D9
330
6F
100
AcDbEntity
  8
0
 62
     0
100
AcDbLine
 10
-44.63726822655863
 20
90.39944104479472
 30
0.0
 11
-44.62578940900423
 21
77.59949084619051
 31
0.0
  0
LINE
  5
2DA
330
6F
100
AcDbEntity
  8
0
 62
     0
100
AcDbLine
 10
-44.62578940900423
 20
77.59949084619051
 30
0.0
 11
-45.42614124758542
 21
77.59923691764517
 31
0.0
  0
LINE
  5
2DB
330
6F
100
AcDbEntity
  8
0
 62
     0
100
AcDbLine
 10
-45.42614124758542
 20
77.59923691764517
 30
0.0
 11
-45.42523439127499
 21
76.99826424970456
 31
0.0
  0
LINE
  5
2DC
330
6F
100
AcDbEntity
  8
0
 62
     0
100
AcDbLine
 10
-45.42523439127499
 20
76.99826424970456
 30
0.0
 11
-59.42475252227463
 21
76.98651053487433
 31
0.0
  0
LINE
  5
2DD
330
6F
100
AcDbEntity
  8
0
 62
     0
100
AcDbLine
 10
-59.42475252227463
 20
76.98651053487433
 30
0.0
 11
-59.42614949286344
 21
77.58564750458423
 31
0.0
  0
LINE
  5
2DE
330
6F
100
AcDbEntity
  8
0
 62
     0
100
AcDbLine
 10
-59.42614949286344
 20
77.58564750458423
 30
0.0
 11
-60.22630810005193
 21
77.58534198506224
 31
0.0
  0
LINE
  5
2DF
330
6F
100
AcDbEntity
  8
0
 62
     0
100
AcDbLine
 10
-60.22630810005193
 20
77.58534198506224
 30
0.0
 11
-60.23778691760634
 21
90.38529218366639
 31
0.0
  0
LINE
  5
2E0
330
6F
100
AcDbEntity
  8
0
 62
     0
100
AcDbLine
 10
-60.23778691760634
 20
90.38529218366639
 30
0.0
 11
-59.43733846332881
 21
90.38552031672344
 31
0.0
  0
LINE
  5
2E1
330
6F
100
AcDbEntity
  8
0
 62
     0
100
AcDbLine
 10
-59.43733846332881
 20
90.38552031672344
 30
0.0
 11
-59.43691849537863
 21
90.98603523213098
 31
0.0
  0
LINE
  5
2E2
330
6F
100
AcDbEntity
  8
0
 62
     0
100
AcDbLine
 10
-59.43691849537863
 20
90.98603523213098
 30
0.0
 11
-45.43737456889064
 21
90.99788556265757
 31
0.0
  0
LINE
  5
2E3
330
6F
100
AcDbEntity
  8
0
 62
     0
100
AcDbLine
 10
-45.43737456889064
 20
90.99788556265757
 30
0.0
 11
-45.43733021805077
 21
90.39910972978434
 31
0.0
  0
LINE
  5
2E4
330
6F
100
AcDbEntity
  8
0
 62
     0
100
AcDbLine
 10
-26.3873517911685
 20
90.41604800949746
 30
0.0
 11
-25.58719318398002
 21
90.4163535290195
 31
0.0
  0
LINE
  5
2E5
330
6F
100
AcDbEntity
  8
0
 62
     0
100
AcDbLine
 10
-25.58719318398002
 20
90.4163535290195
 30
0.0
 11
-25.57571436642558
 21
77.6164033304153
 31
0.0
  0
LINE
  5
2E6
330
6F
100
AcDbEntity
  8
0
 62
     0
100
AcDbLine
 10
-25.57571436642558
 20
77.6164033304153
 30
0.0
 11
-26.37596958931042
 21
77.61612360638162
 31
0.0
  0
LINE
  5
2E7
330
6F
100
AcDbEntity
  8
0
 62
     0
100
AcDbLine
 10
-26.37596958931042
 20
77.61612360638162
 30
0.0
 11
-26.37515278243938
 21
77.01558899220309
 31
0.0
  0
LINE
  5
2E8
330
6F
100
AcDbEntity
  8
0
 62
     0
100
AcDbLine
 10
-26.37515278243938
 20
77.01558899220309
 30
0.0
 11
-40.37477409539237
 21
77.00344881458744
 31
0.0
  0
LINE
  5
2E9
330
6F
100
AcDbEntity
  8
0
 62
     0
100
AcDbLine
 10
-40.37477409539237
 20
77.00344881458744
 30
0.0
 11
-40.37577803693874
 21
77.60289486061776
 31
0.0
  0
LINE
  5
2EA
330
6F
100
AcDbEntity
  8
0
 62
     0
100
AcDbLine
 10
-40.37577803693874
 20
77.60289486061776
 30
0.0
 11
-41.1762264912163
 21
77.60266672756073
 31
0.0
  0
LINE
  5
2EB
330
6F
100
AcDbEntity
  8
0
 62
     0
100
AcDbLine
 10
-41.1762264912163
 20
77.60266672756073
 30
0.0
 11
-41.1873188459853
 21
90.40251374421162
 31
0.0
  0
LINE
  5
2EC
330
6F
100
AcDbEntity
  8
0
 62
     0
100
AcDbLine
 10
-41.1873188459853
 20
90.40251374421162
 30
0.0
 11
-40.38689571765647
 21
90.40419767897088
 31
0.0
  0
LINE
  5
2ED
330
6F
100
AcDbEntity
  8
0
 62
     0
100
AcDbLine
 10
-40.38689571765647
 20
90.40419767897088
 30
0.0
 11
-40.386914273008
 21
91.00307012754043
 31
0.0
  0
LINE
  5
2EE
330
6F
100
AcDbEntity
  8
0
 62
     0
100
AcDbLine
 10
-40.386914273008
 20
91.00307012754043
 30
0.0
 11
-26.38683520752197
 21
91.01653712941669
 31
0.0
  0
LINE
  5
2EF
330
6F
100
AcDbEntity
  8
0
 62
     0
100
AcDbLine
 10
-26.38683520752197
 20
91.01653712941669
 30
0.0
 11
-26.3873517911685
 21
90.41604800949746
 31
0.0
  0
LINE
  5
2F0
330
6F
100
AcDbEntity
  8
0
 62
     0
100
AcDbLine
 10
-7.337270182332876
 20
90.43337275199602
 30
0.0
 11
-6.537014959448032
 21
90.43365247602968
 31
0.0
  0
LINE
  5
2F1
330
6F
100
AcDbEntity
  8
0
 62
     0
100
AcDbLine
 10
-6.537014959448032
 20
90.43365247602968
 30
0.0
 11
-6.525632757589956
 21
77.63372807291381
 31
0.0
  0
LINE
  5
2F2
330
6F
100
AcDbEntity
  8
0
 62
     0
100
AcDbLine
 10
-6.525632757589956
 20
77.63372807291381
 30
0.0
 11
-7.325887980474796
 21
77.63344834888015
 31
0.0
  0
LINE
  5
2F3
330
6F
100
AcDbEntity
  8
0
 62
     0
100
AcDbLine
 10
-7.325887980474796
 20
77.63344834888015
 30
0.0
 11
-7.325174355557092
 21
77.03252727191622
 31
0.0
  0
LINE
  5
2F4
330
6F
100
AcDbEntity
  8
0
 62
     0
100
AcDbLine
 10
-7.325174355557092
 20
77.03252727191622
 30
0.0
 11
-21.32459587086039
 21
77.02074776159761
 31
0.0
  0
LINE
  5
2F5
330
6F
100
AcDbEntity
  8
0
 62
     0
100
AcDbLine
 10
-21.32459587086039
 20
77.02074776159761
 30
0.0
 11
-21.32589622575282
 21
77.61985893581921
 31
0.0
  0
LINE
  5
2F6
330
6F
100
AcDbEntity
  8
0
 62
     0
100
AcDbLine
 10
-21.32589622575282
 20
77.61985893581921
 30
0.0
 11
-22.1259774464763
 21
77.61984326338627
 31
0.0
  0
LINE
  5
2F7
330
6F
100
AcDbEntity
  8
0
 62
     0
100
AcDbLine
 10
-22.1259774464763
 20
77.61984326338627
 30
0.0
 11
-22.13753365049574
 21
90.41950361490142
 31
0.0
  0
LINE
  5
2F8
330
6F
100
AcDbEntity
  8
0
 62
     0
100
AcDbLine
 10
-22.13753365049574
 20
90.41950361490142
 30
0.0
 11
-21.3372784276109
 21
90.41978333893508
 31
0.0
  0
LINE
  5
2F9
330
6F
100
AcDbEntity
  8
0
 62
     0
100
AcDbLine
 10
-21.3372784276109
 20
90.41978333893508
 30
0.0
 11
-21.33801784801693
 21
91.02060780020265
 31
0.0
  0
LINE
  5
2FA
330
6F
100
AcDbEntity
  8
0
 62
     0
100
AcDbLine
 10
-21.33801784801693
 20
91.02060780020265
 30
0.0
 11
-7.338473921528955
 21
91.03245813072923
 31
0.0
  0
LINE
  5
2FB
330
6F
100
AcDbEntity
  8
0
 62
     0
100
AcDbLine
 10
-7.338473921528955
 20
91.03245813072923
 30
0.0
 11
-7.337270182332876
 21
90.43337275199602
 31
0.0
  0
LINE
  5
2FC
330
6F
100
AcDbEntity
  8
0
  6
Continuous
100
AcDbLine
 10
-98.34147187909634
 20
93.95142057803354
 30
0.0
 11
-6.540214156449323
 21
94.03300812951737
 31
0.0
  0
ARC
  5
2FD
330
6F
100
AcDbEntity
  8
0
  6
Continuous
100
AcDbCircle
 10
-6.537547934178951
 20
91.03300931430778
 30
0.0
 40
3.0
100
AcDbArc
 50
0.0512533082514627
 51
90.05092110114858
  0
ARC
  5
2FE
330
6F
100
AcDbEntity
  8
0
  6
Continuous
100
AcDbCircle
 10
-98.33880565682598
 20
90.95142176282394
 30
0.0
 40
3.0
100
AcDbArc
 50
90.05092110114858
 51
180.0512533082516
  0
LINE
  5
2FF
330
6F
100
AcDbEntity
  8
0
  6
Continuous
100
AcDbLine
 10
-101.338804456526
 20
90.94873814623728
 30
0.0
 11
-101.3031465396603
 21
51.08696790388589
 31
0.0
  0
LINE
  5
300
330
6F
100
AcDbEntity
  8
0
  6
Continuous
100
AcDbLine
 10
-125.1123329922759
 20
48.06545105212978
 30
0.0
 11
-125.0987948661974
 21
34.06540819635262
 31
0.0
  0
ARC
  5
301
330
6F
100
AcDbEntity
  8
0
  6
Continuous
100
AcDbCircle
 10
-122.0987962688474
 20
34.06830921313267
 30
0.0
 40
3.0
100
AcDbArc
 50
180.0554053478996
 51
270.0512533082517
  0
LINE
  5
302
330
6F
100
AcDbEntity
  8
0
  6
Continuous
100
AcDbLine
 10
-122.0961126522608
 20
31.06831041343256
 30
0.0
 11
-6.48399967204972
 21
31.17172998281596
 31
0.0
  0
ARC
  5
304
330
6F
100
AcDbEntity
  8
0
  6
Continuous
100
AcDbCircle
 10
-6.486683288636406
 20
34.17172878251607
 30
0.0
 40
3.0
100
AcDbArc
 50
270.0512533082517
 51
0.0512533082514627
  0
LINE
  5
305
330
6F
100
AcDbEntity
  8
0
  6
Continuous
100
AcDbLine
 10
-101.3031465396603
 20
51.08696790388589
 30
0.0
 11
-122.1150180115126
 21
51.06835086860993
 31
0.0
  0
ARC
  5
306
330
6F
100
AcDbEntity
  8
0
  6
Continuous
100
AcDbCircle
 10
-122.1123343949259
 20
48.06835206890982
 30
0.0
 40
3.0
100
AcDbArc
 50
90.05125330825164
 51
180.0554053478996
  0
CIRCLE
  5
309
330
6F
100
AcDbEntity
  8
0
  6
Continuous
100
AcDbCircle
 10
-90.53128876183896
 20
83.95858377862071
 30
0.0
 40
2.0
  0
CIRCLE
  5
30A
330
6F
100
AcDbEntity
  8
0
  6
Continuous
100
AcDbCircle
 10
-71.48084601616661
 20
83.97726114086815
 30
0.0
 40
2.0
  0
CIRCLE
  5
30B
330
6F
100
AcDbEntity
  8
0
  6
Continuous
100
AcDbCircle
 10
-90.5139640193404
 20
64.90850216978508
 30
0.0
 40
2.0
  0
CIRCLE
  5
30C
330
6F
100
AcDbEntity
  8
0
  6
Continuous
100
AcDbCircle
 10
-71.46352127366809
 20
64.92717953203253
 30
0.0
 40
2.0
  0
CIRCLE
  5
30D
330
6F
100
AcDbEntity
  8
0
  6
Continuous
100
AcDbCircle
 10
-71.44663458493162
 20
45.87700787375754
 30
0.0
 40
2.0
  0
CIRCLE
  5
30E
330
6F
100
AcDbEntity
  8
0
  6
Continuous
100
AcDbCircle
 10
-90.49702573962731
 20
45.85852374290279
 30
0.0
 40
2.0
  0
CIRCLE
  5
30F
330
6F
100
AcDbEntity
  8
0
  6
Continuous
100
AcDbCircle
 10
-114.3040791364773
 20
41.07532133129285
 30
0.0
 40
2.0
  0
CIRCLE
  5
310
330
6F
100
AcDbEntity
  8
0
  6
Continuous
100
AcDbCircle
 10
-52.39667585682035
 20
45.89270937864943
 30
0.0
 40
2.0
  0
CIRCLE
  5
311
330
6F
100
AcDbEntity
  8
0
  6
Continuous
100
AcDbCircle
 10
-52.41390398362252
 20
64.94276519199671
 30
0.0
 40
2.0
  0
CIRCLE
  5
312
330
6F
100
AcDbEntity
  8
0
  6
Continuous
100
AcDbCircle
 10
-33.34671665916939
 20
45.90996330093996
 30
0.0
 40
2.0
  0
CIRCLE
  5
313
330
6F
100
AcDbEntity
  8
0
  6
Continuous
100
AcDbCircle
 10
-14.29659002561409
 20
45.92706901655744
 30
0.0
 40
2.0
  0
CIRCLE
  5
314
330
6F
100
AcDbEntity
  8
0
  6
Continuous
100
AcDbCircle
 10
-14.3138439479046
 20
64.97702821420839
 30
0.0
 40
2.0
  0
CIRCLE
  5
315
330
6F
100
AcDbEntity
  8
0
  6
Continuous
100
AcDbCircle
 10
-14.33097545901042
 20
84.02705823206733
 30
0.0
 40
2.0
  0
CIRCLE
  5
316
330
6F
100
AcDbEntity
  8
0
  6
Continuous
100
AcDbCircle
 10
-33.36391899048325
 20
64.9601157299836
 30
0.0
 40
2.0
  0
CIRCLE
  5
317
330
6F
100
AcDbEntity
  8
0
  6
Continuous
100
AcDbCircle
 10
-33.38085727019636
 20
84.01009415686587
 30
0.0
 40
2.0
  0
CIRCLE
  5
318
330
6F
100
AcDbEntity
  8
0
  6
Continuous
100
AcDbCircle
 10
-52.43122872612103
 20
83.99284680083235
 30
0.0
 40
2.0
  0
CIRCLE
  5
319
330
6F
100
AcDbEntity
  8
0
  6
Continuous
100
AcDbCircle
 10
83.46871276141127
 20
84.11423360428605
 30
0.0
 40
2.0
  0
CIRCLE
  5
31A
330
6F
100
AcDbEntity
  8
0
  6
Continuous
100
AcDbCircle
 10
64.4182670888196
 20
84.09882822752154
 30
0.0
 40
2.0
  0
CIRCLE
  5
31B
330
6F
100
AcDbEntity
  8
0
  6
Continuous
100
AcDbCircle
 10
83.48547010965836
 20
65.06415148789399
 30
0.0
 40
2.0
  0
CIRCLE
  5
31C
330
6F
100
AcDbEntity
  8
0
  6
Continuous
100
AcDbCircle
 10
64.4350244370667
 20
65.04874611112952
 30
0.0
 40
2.0
  0
CIRCLE
  5
31D
330
6F
100
AcDbEntity
  8
0
  6
Continuous
100
AcDbCircle
 10
64.45221999948019
 20
45.99857472915415
 30
0.0
 40
2.0
  0
CIRCLE
  5
31E
330
6F
100
AcDbEntity
  8
0
  6
Continuous
100
AcDbCircle
 10
83.50261373547194
 20
46.01417324470188
 30
0.0
 40
2.0
  0
CIRCLE
  5
31F
330
6F
100
AcDbEntity
  8
0
  6
Continuous
100
AcDbCircle
 10
107.3181865489867
 20
41.27357114000271
 30
0.0
 40
2.0
  0
CIRCLE
  5
320
330
6F
100
AcDbEntity
  8
0
  6
Continuous
100
AcDbCircle
 10
45.4022636677129
 20
45.98019436574132
 30
0.0
 40
2.0
  0
CIRCLE
  5
321
330
6F
100
AcDbEntity
  8
0
  6
Continuous
100
AcDbCircle
 10
45.3854097500742
 20
65.03025051383339
 30
0.0
 40
2.0
  0
CIRCLE
  5
322
330
6F
100
AcDbEntity
  8
0
  6
Continuous
100
AcDbCircle
 10
26.35230408901244
 20
45.9633664164026
 30
0.0
 40
2.0
  0
CIRCLE
  5
323
330
6F
100
AcDbEntity
  8
0
  6
Continuous
100
AcDbCircle
 10
7.302177339828737
 20
45.94638996107229
 30
0.0
 40
2.0
  0
CIRCLE
  5
324
330
6F
100
AcDbEntity
  8
0
  6
Continuous
100
AcDbCircle
 10
7.285349390490011
 20
64.99634953977277
 30
0.0
 40
2.0
  0
CIRCLE
  5
325
330
6F
100
AcDbEntity
  8
0
  6
Continuous
100
AcDbCircle
 10
7.268398903459693
 20
84.04637971956486
 30
0.0
 40
2.0
  0
CIRCLE
  5
326
330
6F
100
AcDbEntity
  8
0
  6
Continuous
100
AcDbCircle
 10
26.33542420307378
 20
65.01351913388626
 30
0.0
 40
2.0
  0
CIRCLE
  5
327
330
6F
100
AcDbEntity
  8
0
  6
Continuous
100
AcDbCircle
 10
26.31828057726022
 20
84.0634973770784
 30
0.0
 40
2.0
  0
CIRCLE
  5
328
330
6F
100
AcDbEntity
  8
0
  6
Continuous
100
AcDbCircle
 10
45.36865240182709
 20
84.08033263022542
 30
0.0
 40
2.0
  0
LINE
  5
329
330
6F
100
AcDbEntity
  8
0
  6
Continuous
100
AcDbLine
 10
-3.537549134478856
 20
91.03569293089448
 30
0.0
 11
-3.486684488936312
 21
34.17441239910275
 31
0.0
  0
LINE
  5
32E
330
6F
100
AcDbEntity
  8
Column
  6
Continuous
100
AcDbLine
 10
-114.3040791364773
 20
41.07532133129285
 30
0.0
 11
-114.3126874082754
 21
48.07501870337873
 31
0.0
  0
LINE
  5
32F
330
6F
100
AcDbEntity
  8
Column
  6
Continuous
100
AcDbLine
 10
-90.49702573962731
 20
45.85852374290279
 30
0.0
 11
-90.53778626203069
 21
90.95785214811263
 31
0.0
  0
LINE
  5
330
330
6F
100
AcDbEntity
  8
Column
  6
Continuous
100
AcDbLine
 10
-71.48698308383107
 20
90.97555350401107
 30
0.0
 11
-71.44663458493162
 21
45.87700787375754
 31
0.0
  0
LINE
  5
331
330
6F
100
AcDbEntity
  8
Column
  6
Continuous
100
AcDbLine
 10
-52.43714653213464
 20
90.99196039739428
 30
0.0
 11
-52.39667585682035
 21
45.89270937864943
 31
0.0
  0
LINE
  5
332
330
6F
100
AcDbEntity
  8
Column
  6
Continuous
100
AcDbLine
 10
-33.38687474026499
 20
91.00980362847854
 30
0.0
 11
-33.34671665916939
 21
45.90996330093996
 31
0.0
  0
LINE
  5
333
330
6F
100
AcDbEntity
  8
Column
  6
Continuous
100
AcDbLine
 10
-14.33824588477294
 20
91.02653296546595
 30
0.0
 11
-14.29659002561409
 21
45.92706901655744
 31
0.0
  0
LINE
  5
334
330
6F
100
AcDbEntity
  8
Column
  6
Continuous
100
AcDbLine
 10
107.3181865489867
 20
41.27357114000271
 30
0.0
 11
107.3142718093722
 21
48.27327271063722
 31
0.0
  0
LINE
  5
335
330
6F
100
AcDbEntity
  8
Column
  6
Continuous
100
AcDbLine
 10
83.50261373547194
 20
46.01417324470188
 30
0.0
 11
83.46268802108722
 21
91.11350239668025
 31
0.0
  0
LINE
  5
336
330
6F
100
AcDbEntity
  8
Column
  6
Continuous
100
AcDbLine
 10
64.41188366269566
 20
91.09712037028716
 30
0.0
 11
64.45221999948019
 21
45.99857472915415
 31
0.0
  0
LINE
  5
337
330
6F
100
AcDbEntity
  8
Column
  6
Continuous
100
AcDbLine
 10
45.36204824515336
 20
91.07944561281977
 30
0.0
 11
45.4022636677129
 21
45.98019436574132
 31
0.0
  0
LINE
  5
338
330
6F
100
AcDbEntity
  8
Column
  6
Continuous
100
AcDbLine
 10
26.31177501841567
 20
91.0632064120765
 30
0.0
 11
26.35230408901244
 21
45.9633664164026
 31
0.0
  0
LINE
  5
339
330
6F
100
AcDbEntity
  8
Column
  6
Continuous
100
AcDbLine
 10
7.263146718268539
 20
91.04585625835879
 30
0.0
 11
7.302177339828737
 21
45.94638996107229
 31
0.0
  0
LINE
  5
33A
330
6F
100
AcDbEntity
  8
Row
  6
Continuous
100
AcDbLine
 10
-122.1054443111222
 20
41.07532133129285
 30
0.0
 11
-114.3040791364773
 21
41.07532133129285
 31
0.0
  0
LINE
  5
33B
330
6F
100
AcDbEntity
  8
Row
  6
Continuous
100
AcDbLine
 10
-114.3040791364773
 20
41.07532133129285
 30
0.0
 11
-106.5055689848852
 21
41.08194244619507
 31
0.0
  0
LINE
  5
33C
330
6F
100
AcDbEntity
  8
Row
  6
Continuous
100
AcDbLine
 10
-106.5055689848852
 20
41.08194244619507
 30
0.0
 11
-98.2978091122314
 21
45.85093282084241
 31
0.0
  0
LINE
  5
33D
330
6F
100
AcDbEntity
  8
Row
  6
Continuous
100
AcDbLine
 10
-98.2978091122314
 20
45.85093282084241
 30
0.0
 11
-90.49702573962731
 21
45.85093282084241
 31
0.0
  0
LINE
  5
33E
330
6F
100
AcDbEntity
  8
Row
  6
Continuous
100
AcDbLine
 10
-90.49702573962731
 20
45.85093282084241
 30
0.0
 11
-14.29651970285705
 21
45.85093282084241
 31
0.0
  0
LINE
  5
33F
330
6F
100
AcDbEntity
  8
Row
  6
Continuous
100
AcDbLine
 10
-98.31492772559306
 20
64.90101114654956
 30
0.0
 11
-14.3138439479046
 21
64.97702821420839
 31
0.0
  0
LINE
  5
340
330
6F
100
AcDbEntity
  8
Row
  6
Continuous
100
AcDbLine
 10
-98.33244569948426
 20
83.95114434636186
 30
0.0
 11
-14.33171074297735
 21
83.95114434636186
 31
0.0
  0
LINE
  5
341
330
6F
100
AcDbEntity
  8
Row
  6
Continuous
100
AcDbLine
 10
107.3181865489867
 20
41.27357114000271
 30
0.0
 11
99.51967703244221
 21
41.26624010909468
 31
0.0
  0
LINE
  5
342
330
6F
100
AcDbEntity
  8
Row
  6
Continuous
100
AcDbLine
 10
99.51967703244221
 20
41.26624010909468
 30
0.0
 11
91.30339820444993
 21
46.02053853697134
 31
0.0
  0
LINE
  5
343
330
6F
100
AcDbEntity
  8
Row
  6
Continuous
100
AcDbLine
 10
91.30339820444993
 20
46.02053853697134
 30
0.0
 11
7.302177339828737
 21
45.94638996107229
 31
0.0
  0
LINE
  5
344
330
6F
100
AcDbEntity
  8
Row
  6
Continuous
100
AcDbLine
 10
91.2864347332696
 20
65.07061700145924
 30
0.0
 11
7.285349390490011
 21
64.99634953977277
 31
0.0
  0
LINE
  5
345
330
6F
100
AcDbEntity
  8
Row
  6
Continuous
100
AcDbLine
 10
91.26987052380576
 20
84.12075105445124
 30
0.0
 11
7.268398903459693
 21
84.04637971956486
 31
0.0
  0
LINE
  5
35A
330
6F
100
AcDbEntity
  8
0
  6
Continuous
100
AcDbLine
 10
26.31177501841567
 20
91.0632064120765
 30
0.0
 11
26.33203955371405
 21
94.06256945827864
 31
0.0
  0
LINE
  5
35B
330
6F
100
AcDbEntity
  8
0
  6
Continuous
100
AcDbLine
 10
-33.38687474026499
 20
91.00980362847856
 30
0.0
 11
-33.38954543342758
 21
94.00914602509518
 31
0.0
  0
LINE
  5
35E
330
6F
100
AcDbEntity
  8
0
  6
Continuous
100
AcDbLine
 10
-14.33824588477294
 20
91.02653296546595
 30
0.0
 11
-14.34101639465083
 21
94.02607523589464
 31
0.0
  0
LINE
  5
35F
330
6F
100
AcDbEntity
  8
0
  6
Continuous
100
AcDbLine
 10
7.263146718268539
 20
91.04585625835879
 30
0.0
 11
7.263146718268544
 21
94.04540102216861
 31
0.0
  0
ENDSEC
  0
SECTION
  2
OBJECTS
  0
DICTIONARY
  5
C
330
0
100
AcDbDictionary
281
     1
  3
ACAD_CIP_PREVIOUS_PRODUCT_INFO
350
1FA
  3
ACAD_COLOR
350
62
  3
ACAD_DETAILVIEWSTYLE
350
69
  3
ACAD_GROUP
350
D
  3
ACAD_LAYOUT
350
61
  3
ACAD_MATERIAL
350
10
  3
ACAD_MLEADERSTYLE
350
65
  3
ACAD_MLINESTYLE
350
5E
  3
ACAD_PLOTSETTINGS
350
60
  3
ACAD_PLOTSTYLENAME
350
E
  3
ACAD_SCALELIST
350
42
  3
ACAD_SECTIONVIEWSTYLE
350
67
  3
ACAD_TABLESTYLE
350
63
  3
ACAD_VISUALSTYLE
350
29
  3
ACDB_RECOMPOSE_DATA
350
36A
  3
AcDbVariableDictionary
350
207
  0
DICTIONARY
  5
363
330
2
100
AcDbDictionary
280
     1
281
     1
  3
ACAD_LAYERSTATES
360
364
  0
DICTIONARY
  5
346
330
54
100
AcDbDictionary
280
     1
281
     1
  3
ADSK_XREC_LAYER_RECONCILED
360
347
  0
DICTIONARY
  5
348
330
32A
100
AcDbDictionary
280
     1
281
     1
  3
ADSK_XREC_LAYER_RECONCILED
360
349
  0
DICTIONARY
  5
34A
330
32D
100
AcDbDictionary
280
     1
281
     1
  3
ADSK_XREC_LAYER_RECONCILED
360
34B
  0
DICTIONARY
  5
235
330
6F
100
AcDbDictionary
280
     1
281
     1
  3
ACAD_SORTENTS
360
236
  0
XRECORD
  5
1FA
102
{ACAD_REACTORS
330
C
102
}
330
C
100
AcDbXrecord
280
     1
300
ACD
300
2021
300

  0
DICTIONARY
  5
62
102
{ACAD_REACTORS
330
C
102
}
330
C
100
AcDbDictionary
281
     1
  0
DICTIONARY
  5
69
102
{ACAD_REACTORS
330
C
102
}
330
C
100
AcDbDictionary
281
     1
  3
Imperial24
350
6A
  0
DICTIONARY
  5
D
102
{ACAD_REACTORS
330
C
102
}
330
C
100
AcDbDictionary
281
     1
  0
DICTIONARY
  5
61
102
{ACAD_REACTORS
330
C
102
}
330
C
100
AcDbDictionary
281
     1
  3
Layout1
350
6E
  3
Model
350
72
  0
DICTIONARY
  5
10
102
{ACAD_REACTORS
330
C
102
}
330
C
100
AcDbDictionary
281
     1
  3
ByBlock
350
19
  3
ByLayer
350
11
  3
Global
350
21
  0
DICTIONARY
  5
65
102
{ACAD_REACTORS
330
C
102
}
330
C
100
AcDbDictionary
281
     1
  3
Standard
350
66
  0
DICTIONARY
  5
5E
102
{ACAD_REACTORS
330
C
102
}
330
C
100
AcDbDictionary
281
     1
  3
Standard
350
5F
  0
DICTIONARY
  5
60
102
{ACAD_REACTORS
330
C
102
}
330
C
100
AcDbDictionary
281
     1
  0
ACDBDICTIONARYWDFLT
  5
E
102
{ACAD_REACTORS
330
C
102
}
330
C
100
AcDbDictionary
281
     1
  3
Normal
350
F
100
AcDbDictionaryWithDefault
340
F
  0
DICTIONARY
  5
42
102
{ACAD_REACTORS
330
C
102
}
330
C
100
AcDbDictionary
281
     1
  3
A0
350
43
  3
A1
350
44
  3
A2
350
45
  3
A3
350
46
  3
A4
350
47
  3
A5
350
48
  3
A6
350
49
  3
A7
350
4A
  3
A8
350
4B
  3
A9
350
4C
  3
B0
350
4D
  3
B1
350
4E
  3
B2
350
4F
  3
B3
350
50
  3
B4
350
51
  3
B5
350
52
  3
B6
350
53
  0
DICTIONARY
  5
67
102
{ACAD_REACTORS
330
C
102
}
330
C
100
AcDbDictionary
281
     1
  3
Imperial24
350
68
  0
DICTIONARY
  5
63
102
{ACAD_REACTORS
330
C
102
}
330
C
100
AcDbDictionary
281
     1
  3
Standard
350
64
  0
DICTIONARY
  5
29
102
{ACAD_REACTORS
330
C
102
}
330
C
100
AcDbDictionary
281
     1
  3
2dWireframe
350
2F
  3
Basic
350
2E
  3
Brighten
350
35
  3
ColorChange
350
39
  3
Conceptual
350
32
  3
Dim
350
34
  3
EdgeColorOff
350
41
  3
Facepattern
350
38
  3
Flat
350
2A
  3
FlatWithEdges
350
2B
  3
Gouraud
350
2C
  3
GouraudWithEdges
350
2D
  3
Hidden
350
31
  3
JitterOff
350
3F
  3
Linepattern
350
37
  3
OverhangOff
350
40
  3
Realistic
350
33
  3
Shaded
350
3E
  3
Shaded with edges
350
3D
  3
Shades of Gray
350
3A
  3
Sketchy
350
3B
  3
Thicken
350
36
  3
Wireframe
350
30
  3
X-Ray
350
3C
  0
XRECORD
  5
36A
102
{ACAD_REACTORS
330
C
102
}
330
C
100
AcDbXrecord
280
     1
 90
        1
330
64
  0
DICTIONARY
  5
207
102
{ACAD_REACTORS
330
C
102
}
330
C
100
AcDbDictionary
281
     1
  3
CANNOSCALE
350
20D
  3
CMLEADERSTYLE
350
209
  3
CTABLESTYLE
350
208
  3
CVIEWDETAILSTYLE
350
20A
  3
CVIEWSECTIONSTYLE
350
20B
  3
LAYEREVAL
350
20F
  3
LAYERNOTIFY
350
210
  3
LIGHTINGUNITS
350
20E
  3
MSLTSCALE
350
20C
  0
DICTIONARY
  5
364
102
{ACAD_REACTORS
330
363
102
}
330
363
100
AcDbDictionary
281
     1
  0
XRECORD
  5
347
102
{ACAD_REACTORS
330
346
102
}
330
346
100
AcDbXrecord
280
     1
290
     1
  0
XRECORD
  5
349
102
{ACAD_REACTORS
330
348
102
}
330
348
100
AcDbXrecord
280
     1
290
     1
  0
XRECORD
  5
34B
102
{ACAD_REACTORS
330
34A
102
}
330
34A
100
AcDbXrecord
280
     1
290
     1
  0
SORTENTSTABLE
  5
236
102
{ACAD_REACTORS
330
235
102
}
330
235
100
AcDbSortentsTable
330
6F
331
224
  5
22F
331
22B
  5
233
331
22F
  5
237
331
234
  5
239
331
237
  5
234
331
238
  5
23A
331
239
  5
23B
331
23A
  5
22B
331
23B
  5
224
  0
ACDBDETAILVIEWSTYLE
  5
6A
102
{ACAD_REACTORS
330
69
102
}
330
69
100
AcDbModelDocViewStyle
 70
     0
  3
Imperial24
290
     0
300
Imperial24
 90
        0
100
AcDbDetailViewStyle
 70
     0
 71
     0
 90
        3
 71
     1
340
55
 62
   256
 40
0.24
340
0
 62
   256
 40
0.24
300

 40
0.36
280
     3
 71
     2
340
5C
 90
       25
 62
   256
 71
     3
340
55
 62
   256
 40
0.24
 90
        1
 40
0.75
 90
        1
300
%<\AcVar ViewType \f "%tc1">% %<\AcVar ViewDetailId>%\PSCALE %<\AcVar ViewScale \f "%sn">%
 71
     4
340
5C
 90
       25
 62
   256
340
5C
 90
       25
 62
   256
280
     0
  0
LAYOUT
  5
6E
102
{ACAD_REACTORS
330
61
102
}
330
61
100
AcDbPlotSettings
  1

  2
Canon TS6100 series
  4

  6

 40
0.0
 41
0.0
 42
0.0
 43
0.0
 44
0.0
 45
0.0
 46
0.0
 47
0.0
 48
0.0
 49
0.0
140
0.0
141
0.0
142
1.0
143
1.0
 70
   688
 72
     0
 73
     0
 74
     5
  7

 75
    16
147
1.0
 76
     0
 77
     2
 78
   300
148
0.0
149
0.0
100
AcDbLayout
  1
Layout1
 70
     1
 71
     1
 10
0.0
 20
0.0
 11
12.0
 21
9.0
 12
0.0
 22
0.0
 32
0.0
 14
1.000000000000000E+20
 24
1.000000000000000E+20
 34
1.000000000000000E+20
 15
-1.000000000000000E+20
 25
-1.000000000000000E+20
 35
-1.000000000000000E+20
146
0.0
 13
0.0
 23
0.0
 33
0.0
 16
1.0
 26
0.0
 36
0.0
 17
0.0
 27
1.0
 37
0.0
 76
     0
330
6B
  0
LAYOUT
  5
72
102
{ACAD_REACTORS
330
61
102
}
330
61
100
AcDbPlotSettings
  1

  2
Canon TS6100 series
  4

  6

 40
0.0
 41
0.0
 42
0.0
 43
0.0
 44
0.0
 45
0.0
 46
0.0
 47
0.0
 48
0.0
 49
0.0
140
0.0
141
0.0
142
1.0
143
1.0
 70
  1712
 72
     0
 73
     0
 74
     0
  7

 75
     0
147
1.0
 76
     0
 77
     2
 78
   300
148
0.0
149
0.0
100
AcDbLayout
  1
Model
 70
     1
 71
     0
 10
0.0
 20
0.0
 11
12.0
 21
9.0
 12
0.0
 22
0.0
 32
0.0
 14
0.0
 24
0.0
 34
0.0
 15
0.0
 25
0.0
 35
0.0
146
0.0
 13
0.0
 23
0.0
 33
0.0
 16
1.0
 26
0.0
 36
0.0
 17
0.0
 27
1.0
 37
0.0
 76
     0
330
6F
331
74
  0
MATERIAL
  5
19
102
{ACAD_XDICTIONARY
360
1A
102
}
102
{ACAD_REACTORS
330
10
102
}
330
10
100
AcDbMaterial
  1
ByBlock
 72
     0
 43
0.0208333333333333
 43
0.0
 43
0.0
 43
0.0
 43
0.0
 43
0.0208333333333333
 43
0.0
 43
0.0
 43
0.0
 43
0.0
 43
1.0
 43
0.0
 43
0.0
 43
0.0
 43
0.0
 43
1.0
 77
     0
 47
0.0208333333333333
 47
0.0
 47
0.0
 47
0.0
 47
0.0
 47
0.0208333333333333
 47
0.0
 47
0.0
 47
0.0
 47
0.0
 47
1.0
 47
0.0
 47
0.0
 47
0.0
 47
0.0
 47
1.0
171
     0
 49
0.0208333333333333
 49
0.0
 49
0.0
 49
0.0
 49
0.0
 49
0.0208333333333333
 49
0.0
 49
0.0
 49
0.0
 49
0.0
 49
1.0
 49
0.0
 49
0.0
 49
0.0
 49
0.0
 49
1.0
175
     0
142
0.0208333333333333
142
0.0
142
0.0
142
0.0
142
0.0
142
0.0208333333333333
142
0.0
142
0.0
142
0.0
142
0.0
142
1.0
142
0.0
142
0.0
142
0.0
142
0.0
142
1.0
179
     0
144
0.0208333333333333
144
0.0
144
0.0
144
0.0
144
0.0
144
0.0208333333333333
144
0.0
144
0.0
144
0.0
144
0.0
144
1.0
144
0.0
144
0.0
144
0.0
144
0.0
144
1.0
147
0.0208333333333333
147
0.0
147
0.0
147
0.0
147
0.0
147
0.0208333333333333
147
0.0
147
0.0
147
0.0
147
0.0
147
1.0
147
0.0
147
0.0
147
0.0
147
0.0
147
1.0
  0
MATERIAL
  5
11
102
{ACAD_XDICTIONARY
360
12
102
}
102
{ACAD_REACTORS
330
10
102
}
330
10
100
AcDbMaterial
  1
ByLayer
 72
     0
 43
0.0208333333333333
 43
0.0
 43
0.0
 43
0.0
 43
0.0
 43
0.0208333333333333
 43
0.0
 43
0.0
 43
0.0
 43
0.0
 43
1.0
 43
0.0
 43
0.0
 43
0.0
 43
0.0
 43
1.0
 77
     0
 47
0.0208333333333333
 47
0.0
 47
0.0
 47
0.0
 47
0.0
 47
0.0208333333333333
 47
0.0
 47
0.0
 47
0.0
 47
0.0
 47
1.0
 47
0.0
 47
0.0
 47
0.0
 47
0.0
 47
1.0
171
     0
 49
0.0208333333333333
 49
0.0
 49
0.0
 49
0.0
 49
0.0
 49
0.0208333333333333
 49
0.0
 49
0.0
 49
0.0
 49
0.0
 49
1.0
 49
0.0
 49
0.0
 49
0.0
 49
0.0
 49
1.0
175
     0
142
0.0208333333333333
142
0.0
142
0.0
142
0.0
142
0.0
142
0.0208333333333333
142
0.0
142
0.0
142
0.0
142
0.0
142
1.0
142
0.0
142
0.0
142
0.0
142
0.0
142
1.0
179
     0
144
0.0208333333333333
144
0.0
144
0.0
144
0.0
144
0.0
144
0.0208333333333333
144
0.0
144
0.0
144
0.0
144
0.0
144
1.0
144
0.0
144
0.0
144
0.0
144
0.0
144
1.0
147
0.0208333333333333
147
0.0
147
0.0
147
0.0
147
0.0
147
0.0208333333333333
147
0.0
147
0.0
147
0.0
147
0.0
147
1.0
147
0.0
147
0.0
147
0.0
147
0.0
147
1.0
  0
MATERIAL
  5
21
102
{ACAD_XDICTIONARY
360
22
102
}
102
{ACAD_REACTORS
330
10
102
}
330
10
100
AcDbMaterial
  1
Global
 72
     0
 43
0.0208333333333333
 43
0.0
 43
0.0
 43
0.0
 43
0.0
 43
0.0208333333333333
 43
0.0
 43
0.0
 43
0.0
 43
0.0
 43
1.0
 43
0.0
 43
0.0
 43
0.0
 43
0.0
 43
1.0
 77
     0
 47
0.0208333333333333
 47
0.0
 47
0.0
 47
0.0
 47
0.0
 47
0.0208333333333333
 47
0.0
 47
0.0
 47
0.0
 47
0.0
 47
1.0
 47
0.0
 47
0.0
 47
0.0
 47
0.0
 47
1.0
171
     0
 49
0.0208333333333333
 49
0.0
 49
0.0
 49
0.0
 49
0.0
 49
0.0208333333333333
 49
0.0
 49
0.0
 49
0.0
 49
0.0
 49
1.0
 49
0.0
 49
0.0
 49
0.0
 49
0.0
 49
1.0
175
     0
142
0.0208333333333333
142
0.0
142
0.0
142
0.0
142
0.0
142
0.0208333333333333
142
0.0
142
0.0
142
0.0
142
0.0
142
1.0
142
0.0
142
0.0
142
0.0
142
0.0
142
1.0
179
     0
144
0.0208333333333333
144
0.0
144
0.0
144
0.0
144
0.0
144
0.0208333333333333
144
0.0
144
0.0
144
0.0
144
0.0
144
1.0
144
0.0
144
0.0
144
0.0
144
0.0
144
1.0
147
0.0208333333333333
147
0.0
147
0.0
147
0.0
147
0.0
147
0.0208333333333333
147
0.0
147
0.0
147
0.0
147
0.0
147
1.0
147
0.0
147
0.0
147
0.0
147
0.0
147
1.0
  0
MLEADERSTYLE
  5
66
102
{ACAD_REACTORS
330
65
102
}
330
65
100
AcDbMLeaderStyle
179
     2
170
     2
171
     1
172
     0
 90
        2
 40
0.0
 41
0.0
173
     1
 91
-1056964608
340
5A
 92
       -2
290
     1
 42
0.09
291
     1
 43
0.36
  3
Standard
 44
0.18
300

342
55
174
     1
178
     6
175
     1
176
     0
 93
-1056964608
 45
0.18
292
     0
297
     0
 46
0.18
 94
-1056964608
 47
1.0
 49
1.0
140
1.0
293
     1
141
0.0
294
     1
177
     0
142
1.0
295
     0
296
     0
143
0.125
271
     0
272
     9
273
     9
298
     0
  0
MLINESTYLE
  5
5F
102
{ACAD_REACTORS
330
5E
102
}
330
5E
100
AcDbMlineStyle
  2
STANDARD
 70
     0
  3

 62
   256
 51
90.0
 52
90.0
 71
     2
 49
0.5
 62
   256
  6
BYLAYER
 49
-0.5
 62
   256
  6
BYLAYER
  0
ACDBPLACEHOLDER
  5
F
102
{ACAD_REACTORS
330
E
102
}
330
E
  0
SCALE
  5
43
102
{ACAD_REACTORS
330
42
102
}
330
42
100
AcDbScale
 70
     0
300
1:1
140
1.0
141
1.0
290
     1
  0
SCALE
  5
44
102
{ACAD_REACTORS
330
42
102
}
330
42
100
AcDbScale
 70
     0
300
1/128" = 1'-0"
140
0.0078125
141
12.0
290
     0
  0
SCALE
  5
45
102
{ACAD_REACTORS
330
42
102
}
330
42
100
AcDbScale
 70
     0
300
1/64" = 1'-0"
140
0.015625
141
12.0
290
     0
  0
SCALE
  5
46
102
{ACAD_REACTORS
330
42
102
}
330
42
100
AcDbScale
 70
     0
300
1/32" = 1'-0"
140
0.03125
141
12.0
290
     0
  0
SCALE
  5
47
102
{ACAD_REACTORS
330
42
102
}
330
42
100
AcDbScale
 70
     0
300
1/16" = 1'-0"
140
0.0625
141
12.0
290
     0
  0
SCALE
  5
48
102
{ACAD_REACTORS
330
42
102
}
330
42
100
AcDbScale
 70
     0
300
3/32" = 1'-0"
140
0.09375
141
12.0
290
     0
  0
SCALE
  5
49
102
{ACAD_REACTORS
330
42
102
}
330
42
100
AcDbScale
 70
     0
300
1/8" = 1'-0"
140
0.125
141
12.0
290
     0
  0
SCALE
  5
4A
102
{ACAD_REACTORS
330
42
102
}
330
42
100
AcDbScale
 70
     0
300
3/16" = 1'-0"
140
0.1875
141
12.0
290
     0
  0
SCALE
  5
4B
102
{ACAD_REACTORS
330
42
102
}
330
42
100
AcDbScale
 70
     0
300
1/4" = 1'-0"
140
0.25
141
12.0
290
     0
  0
SCALE
  5
4C
102
{ACAD_REACTORS
330
42
102
}
330
42
100
AcDbScale
 70
     0
300
3/8" = 1'-0"
140
0.375
141
12.0
290
     0
  0
SCALE
  5
4D
102
{ACAD_REACTORS
330
42
102
}
330
42
100
AcDbScale
 70
     0
300
1/2" = 1'-0"
140
0.5
141
12.0
290
     0
  0
SCALE
  5
4E
102
{ACAD_REACTORS
330
42
102
}
330
42
100
AcDbScale
 70
     0
300
3/4" = 1'-0"
140
0.75
141
12.0
290
     0
  0
SCALE
  5
4F
102
{ACAD_REACTORS
330
42
102
}
330
42
100
AcDbScale
 70
     0
300
1" = 1'-0"
140
1.0
141
12.0
290
     0
  0
SCALE
  5
50
102
{ACAD_REACTORS
330
42
102
}
330
42
100
AcDbScale
 70
     0
300
1-1/2" = 1'-0"
140
1.5
141
12.0
290
     0
  0
SCALE
  5
51
102
{ACAD_REACTORS
330
42
102
}
330
42
100
AcDbScale
 70
     0
300
3" = 1'-0"
140
3.0
141
12.0
290
     0
  0
SCALE
  5
52
102
{ACAD_REACTORS
330
42
102
}
330
42
100
AcDbScale
 70
     0
300
6" = 1'-0"
140
6.0
141
12.0
290
     0
  0
SCALE
  5
53
102
{ACAD_REACTORS
330
42
102
}
330
42
100
AcDbScale
 70
     0
300
1'-0" = 1'-0"
140
12.0
141
12.0
290
     0
  0
ACDBSECTIONVIEWSTYLE
  5
68
102
{ACAD_REACTORS
330
67
102
}
330
67
100
AcDbModelDocViewStyle
 70
     0
  3
Imperial24
290
     0
300
Imperial24
 90
        0
100
AcDbSectionViewStyle
 70
     0
 71
     0
 90
       78
 71
     1
340
55
 62
   256
 40
0.24
340
0
340
0
 62
   256
 40
0.24
300
I, O, Q, S, X, Z
 40
0.48
 90
        3
 40
0.18
 90
        1
 71
     2
340
5C
 90
       25
 62
   256
340
5C
 90
       50
 62
   256
 40
0.24
 40
0.0
 40
0.24
 71
     3
340
55
 62
   256
 40
0.24
 90
        1
 40
0.75
 90
        1
300
%<\AcVar ViewType \f "%tc1">% %<\AcVar ViewSectionStartId>%-%<\AcVar ViewSectionEndId>%\PSCALE %<\AcVar ViewScale \f "%sn">%
 71
     4
 62
   256
 62
   257
300
ANSI31
 40
1.0
 90
        0
290
     0
290
     0
 90
        6
 40
0.0
 40
1.570796326794896
 40
0.2617993877991494
 40
1.308996938995747
 40
-0.2617993877991494
 40
1.832595714594045
  0
TABLESTYLE
  5
64
102
{ACAD_XDICTIONARY
360
34C
102
}
102
{ACAD_REACTORS
330
63
102
}
330
63
100
AcDbTableStyle
280
     0
  3
Standard
 70
     0
 71
     0
 40
0.06
 41
0.06
280
     0
281
     0
  7
Standard
140
0.18
170
     2
 62
     0
 63
     7
283
     0
 90
      512
 91
        0
  1

274
    -2
284
     1
 64
     0
275
    -2
285
     1
 65
     0
276
    -2
286
     1
 66
     0
277
    -2
287
     1
 67
     0
278
    -2
288
     1
 68
     0
279
    -2
289
     1
 69
     0
  7
Standard
140
0.25
170
     5
 62
     0
 63
     7
283
     0
 90
      512
 91
        0
  1

274
    -2
284
     1
 64
     0
275
    -2
285
     1
 65
     0
276
    -2
286
     1
 66
     0
277
    -2
287
     1
 67
     0
278
    -2
288
     1
 68
     0
279
    -2
289
     1
 69
     0
  7
Standard
140
0.18
170
     5
 62
     0
 63
     7
283
     0
 90
      512
 91
        0
  1

274
    -2
284
     1
 64
     0
275
    -2
285
     1
 65
     0
276
    -2
286
     1
 66
     0
277
    -2
287
     1
 67
     0
278
    -2
288
     1
 68
     0
279
    -2
289
     1
 69
     0
  0
VISUALSTYLE
  5
2F
102
{ACAD_REACTORS
330
29
102
}
330
29
100
AcDbVisualStyle
  2
2dWireframe
 70
     4
177
     3
291
     0
 70
    58
 90
        0
176
     1
 90
        2
176
     1
 90
        0
176
     1
 90
        0
176
     1
 40
0.6
176
     1
 40
30.0
176
     1
 62
     7
420
 16777215
176
     1
 90
        1
176
     1
 90
        4
176
     1
 62
     7
176
     1
 62
   257
176
     1
 90
        1
176
     1
 90
        1
176
     1
 40
1.0
176
     1
 90
        0
176
     1
 62
   257
176
     1
 40
1.0
176
     1
 90
        1
176
     1
 90
        6
176
     1
 90
        2
176
     1
 62
     7
176
     1
 90
        5
176
     1
 90
        0
176
     1
 90
        0
176
     1
290
     0
176
     1
 90
        1
176
     1
 40
0.0
176
     1
 90
        0
176
     1
290
     1
176
     1
290
     1
176
     1
290
     0
176
     1
290
     0
176
     1
290
     0
176
     1
290
     0
176
     1
290
     0
176
     1
290
     0
176
     1
290
     0
176
     1
 90
       50
176
     1
 40
0.0
176
     1
 40
1.0
176
     1
 90
        0
176
     1
 62
    18
176
     1
 90
       50
176
     1
 90
        3
176
     1
 62
     5
420
      255
176
     1
290
     0
176
     1
 90
       50
176
     1
 90
       50
176
     1
 90
       50
176
     1
290
     0
176
     1
 90
       50
176
     1
 62
   256
176
     0
 40
1.0
176
     0
 90
        2
176
     1
  1
strokes_ogs.tif
176
     1
290
     0
176
     1
 40
1.0
176
     1
 40
1.0
176
     1
  0
VISUALSTYLE
  5
2E
102
{ACAD_REACTORS
330
29
102
}
330
29
100
AcDbVisualStyle
  2
Basic
 70
     7
177
     3
291
     1
 70
    58
 90
        1
176
     1
 90
        0
176
     1
 90
        1
176
     1
 90
        0
176
     1
 40
0.6
176
     1
 40
30.0
176
     1
 62
     7
420
 16777215
176
     1
 90
        0
176
     1
 90
        4
176
     1
 62
     7
176
     1
 62
   257
176
     1
 90
        1
176
     1
 90
        1
176
     1
 40
1.0
176
     1
 90
        8
176
     1
 62
     7
176
     1
 40
1.0
176
     1
 90
        1
176
     1
 90
        6
176
     1
 90
        2
176
     1
 62
     7
176
     1
 90
        5
176
     1
 90
        0
176
     1
 90
        0
176
     1
290
     0
176
     1
 90
        1
176
     1
 40
0.0
176
     1
 90
        0
176
     1
290
     0
176
     1
290
     1
176
     1
290
     1
176
     1
290
     0
176
     1
290
     0
176
     1
290
     0
176
     1
290
     0
176
     1
290
     0
176
     1
290
     0
176
     1
 90
       50
176
     1
 40
0.0
176
     1
 40
1.0
176
     1
 90
        0
176
     1
 62
    18
176
     1
 90
       50
176
     1
 90
        3
176
     1
 62
     5
420
      255
176
     1
290
     0
176
     1
 90
       50
176
     1
 90
       50
176
     1
 90
       50
176
     1
290
     0
176
     1
 90
       50
176
     1
 62
   256
176
     0
 40
1.0
176
     0
 90
        2
176
     1
  1
strokes_ogs.tif
176
     1
290
     0
176
     1
 40
1.0
176
     1
 40
1.0
176
     1
  0
VISUALSTYLE
  5
35
102
{ACAD_REACTORS
330
29
102
}
330
29
100
AcDbVisualStyle
  2
Brighten
 70
    12
177
     3
291
     1
 70
    58
 90
        2
176
     1
 90
        2
176
     1
 90
        0
176
     1
 90
        0
176
     1
 40
0.6
176
     1
 40
30.0
176
     1
 62
     7
420
 16777215
176
     1
 90
        1
176
     1
 90
        4
176
     1
 62
     7
176
     1
 62
   257
176
     1
 90
        1
176
     1
 90
        1
176
     1
 40
1.0
176
     1
 90
        8
176
     1
 62
     7
176
     1
 40
1.0
176
     1
 90
        1
176
     1
 90
        6
176
     1
 90
        2
176
     1
 62
     7
176
     1
 90
        5
176
     1
 90
        0
176
     1
 90
        0
176
     1
290
     0
176
     1
 90
        1
176
     1
 40
50.0
176
     1
 90
        0
176
     1
290
     0
176
     1
290
     1
176
     1
290
     1
176
     1
290
     0
176
     1
290
     0
176
     1
290
     0
176
     1
290
     0
176
     1
290
     0
176
     1
290
     0
176
     1
 90
       50
176
     1
 40
0.0
176
     1
 40
1.0
176
     1
 90
        0
176
     1
 62
    18
176
     1
 90
       50
176
     1
 90
        3
176
     1
 62
     5
420
      255
176
     1
290
     0
176
     1
 90
       50
176
     1
 90
       50
176
     1
 90
       50
176
     1
290
     0
176
     1
 90
       50
176
     1
 62
   256
176
     0
 40
1.0
176
     0
 90
        2
176
     1
  1
strokes_ogs.tif
176
     1
290
     0
176
     1
 40
1.0
176
     1
 40
1.0
176
     1
  0
VISUALSTYLE
  5
39
102
{ACAD_REACTORS
330
29
102
}
330
29
100
AcDbVisualStyle
  2
ColorChange
 70
    16
177
     3
291
     1
 70
    58
 90
        2
176
     1
 90
        2
176
     1
 90
        3
176
     1
 90
        0
176
     1
 40
0.6
176
     1
 40
30.0
176
     1
 62
     8
420
  8421504
176
     1
 90
        1
176
     1
 90
        4
176
     1
 62
     7
176
     1
 62
   257
176
     1
 90
        1
176
     1
 90
        1
176
     1
 40
1.0
176
     1
 90
        8
176
     1
 62
     8
420
  8421504
176
     1
 40
1.0
176
     1
 90
        1
176
     1
 90
        6
176
     1
 90
        2
176
     1
 62
     7
176
     1
 90
        5
176
     1
 90
        0
176
     1
 90
        0
176
     1
290
     0
176
     1
 90
        1
176
     1
 40
0.0
176
     1
 90
        0
176
     1
290
     0
176
     1
290
     1
176
     1
290
     1
176
     1
290
     0
176
     1
290
     0
176
     1
290
     0
176
     1
290
     0
176
     1
290
     0
176
     1
290
     0
176
     1
 90
       50
176
     1
 40
0.0
176
     1
 40
1.0
176
     1
 90
        0
176
     1
 62
    18
176
     1
 90
       50
176
     1
 90
        3
176
     1
 62
     5
420
      255
176
     1
290
     0
176
     1
 90
       50
176
     1
 90
       50
176
     1
 90
       50
176
     1
290
     0
176
     1
 90
       50
176
     1
 62
   256
176
     0
 40
1.0
176
     0
 90
        2
176
     1
  1
strokes_ogs.tif
176
     1
290
     0
176
     1
 40
1.0
176
     1
 40
1.0
176
     1
  0
VISUALSTYLE
  5
32
102
{ACAD_REACTORS
330
29
102
}
330
29
100
AcDbVisualStyle
  2
Conceptual
 70
     9
177
     3
291
     0
 70
    58
 90
        3
176
     1
 90
        2
176
     1
 90
        0
176
     1
 90
        0
176
     1
 40
0.6
176
     1
 40
30.0
176
     1
 62
     7
420
 16777215
176
     1
 90
        2
176
     1
 90
        2
176
     1
 62
     7
176
     1
 62
   257
176
     1
 90
        1
176
     1
 90
        1
176
     1
 40
179.0
176
     1
 90
        8
176
     1
 62
     7
176
     1
 40
1.0
176
     1
 90
        1
176
     1
 90
        6
176
     1
 90
        2
176
     1
 62
     7
176
     1
 90
        3
176
     1
 90
        0
176
     1
 90
        0
176
     1
290
     0
176
     1
 90
        1
176
     1
 40
0.0
176
     1
 90
        0
176
     1
290
     0
176
     1
290
     1
176
     1
290
     1
176
     1
290
     0
176
     1
290
     0
176
     1
290
     0
176
     1
290
     0
176
     1
290
     0
176
     1
290
     0
176
     1
 90
       50
176
     1
 40
0.0
176
     1
 40
1.0
176
     1
 90
        0
176
     1
 62
    18
176
     1
 90
       50
176
     1
 90
        3
176
     1
 62
     5
420
      255
176
     1
290
     0
176
     1
 90
       50
176
     1
 90
       50
176
     1
 90
       50
176
     1
290
     0
176
     1
 90
       50
176
     1
 62
   256
176
     0
 40
1.0
176
     0
 90
        2
176
     1
  1
strokes_ogs.tif
176
     1
290
     0
176
     1
 40
1.0
176
     1
 40
1.0
176
     1
  0
VISUALSTYLE
  5
34
102
{ACAD_REACTORS
330
29
102
}
330
29
100
AcDbVisualStyle
  2
Dim
 70
    11
177
     3
291
     1
 70
    58
 90
        2
176
     1
 90
        2
176
     1
 90
        0
176
     1
 90
        0
176
     1
 40
0.6
176
     1
 40
30.0
176
     1
 62
     7
420
 16777215
176
     1
 90
        1
176
     1
 90
        4
176
     1
 62
     7
176
     1
 62
   257
176
     1
 90
        1
176
     1
 90
        1
176
     1
 40
1.0
176
     1
 90
        8
176
     1
 62
     7
176
     1
 40
1.0
176
     1
 90
        1
176
     1
 90
        6
176
     1
 90
        2
176
     1
 62
     7
176
     1
 90
        5
176
     1
 90
        0
176
     1
 90
        0
176
     1
290
     0
176
     1
 90
        1
176
     1
 40
-50.0
176
     1
 90
        0
176
     1
290
     0
176
     1
290
     1
176
     1
290
     1
176
     1
290
     0
176
     1
290
     0
176
     1
290
     0
176
     1
290
     0
176
     1
290
     0
176
     1
290
     0
176
     1
 90
       50
176
     1
 40
0.0
176
     1
 40
1.0
176
     1
 90
        0
176
     1
 62
    18
176
     1
 90
       50
176
     1
 90
        3
176
     1
 62
     5
420
      255
176
     1
290
     0
176
     1
 90
       50
176
     1
 90
       50
176
     1
 90
       50
176
     1
290
     0
176
     1
 90
       50
176
     1
 62
   256
176
     0
 40
1.0
176
     0
 90
        2
176
     1
  1
strokes_ogs.tif
176
     1
290
     0
176
     1
 40
1.0
176
     1
 40
1.0
176
     1
  0
VISUALSTYLE
  5
41
102
{ACAD_REACTORS
330
29
102
}
330
29
100
AcDbVisualStyle
  2
EdgeColorOff
 70
    22
177
     3
291
     1
 70
    58
 90
        2
176
     0
 90
        2
176
     0
 90
        0
176
     0
 90
        0
176
     0
 40
0.6
176
     0
 40
30.0
176
     0
 62
     7
420
 16777215
176
     0
 90
        1
176
     0
 90
        4
176
     0
 62
     7
176
     0
 62
   257
176
     0
 90
        1
176
     0
 90
        1
176
     0
 40
1.0
176
     0
 90
        8
176
     2
 62
     7
176
     0
 40
1.0
176
     0
 90
        1
176
     0
 90
        6
176
     0
 90
        2
176
     0
 62
     7
176
     0
 90
        5
176
     0
 90
        0
176
     0
 90
        0
176
     0
290
     0
176
     0
 90
        1
176
     0
 40
0.0
176
     0
 90
        0
176
     0
290
     0
176
     1
290
     1
176
     1
290
     1
176
     1
290
     0
176
     1
290
     0
176
     1
290
     0
176
     1
290
     0
176
     1
290
     0
176
     1
290
     0
176
     1
 90
       50
176
     0
 40
0.0
176
     0
 40
1.0
176
     0
 90
        0
176
     0
 62
    18
176
     0
 90
       50
176
     0
 90
        3
176
     0
 62
     5
420
      255
176
     0
290
     0
176
     1
 90
       50
176
     0
 90
       50
176
     0
 90
       50
176
     0
290
     0
176
     1
 90
       50
176
     0
 62
   256
176
     0
 40
1.0
176
     0
 90
        2
176
     0
  1
strokes_ogs.tif
176
     0
290
     0
176
     1
 40
1.0
176
     0
 40
1.0
176
     0
  0
VISUALSTYLE
  5
38
102
{ACAD_REACTORS
330
29
102
}
330
29
100
AcDbVisualStyle
  2
Facepattern
 70
    15
177
     3
291
     1
 70
    58
 90
        2
176
     1
 90
        2
176
     1
 90
        0
176
     1
 90
        0
176
     1
 40
0.6
176
     1
 40
30.0
176
     1
 62
     7
420
 16777215
176
     1
 90
        1
176
     1
 90
        4
176
     1
 62
     7
176
     1
 62
   257
176
     1
 90
        1
176
     1
 90
        1
176
     1
 40
1.0
176
     1
 90
        8
176
     1
 62
     7
176
     1
 40
1.0
176
     1
 90
        1
176
     1
 90
        6
176
     1
 90
        2
176
     1
 62
     7
176
     1
 90
        5
176
     1
 90
        0
176
     1
 90
        0
176
     1
290
     0
176
     1
 90
        1
176
     1
 40
0.0
176
     1
 90
        0
176
     1
290
     0
176
     1
290
     1
176
     1
290
     1
176
     1
290
     0
176
     1
290
     0
176
     1
290
     0
176
     1
290
     0
176
     1
290
     0
176
     1
290
     0
176
     1
 90
       50
176
     1
 40
0.0
176
     1
 40
1.0
176
     1
 90
        0
176
     1
 62
    18
176
     1
 90
       50
176
     1
 90
        3
176
     1
 62
     5
420
      255
176
     1
290
     0
176
     1
 90
       50
176
     1
 90
       50
176
     1
 90
       50
176
     1
290
     0
176
     1
 90
       50
176
     1
 62
   256
176
     0
 40
1.0
176
     0
 90
        2
176
     1
  1
strokes_ogs.tif
176
     1
290
     0
176
     1
 40
1.0
176
     1
 40
1.0
176
     1
  0
VISUALSTYLE
  5
2A
102
{ACAD_REACTORS
330
29
102
}
330
29
100
AcDbVisualStyle
  2
Flat
 70
     0
177
     3
291
     1
 70
    58
 90
        2
176
     1
 90
        1
176
     1
 90
        1
176
     1
 90
        2
176
     1
 40
0.6
176
     1
 40
30.0
176
     1
 62
     7
420
 16777215
176
     1
 90
        0
176
     1
 90
        0
176
     1
 62
     7
176
     1
 62
   257
176
     1
 90
        1
176
     1
 90
        1
176
     1
 40
1.0
176
     1
 90
        8
176
     1
 62
     7
176
     1
 40
1.0
176
     1
 90
        1
176
     1
 90
        6
176
     1
 90
        2
176
     1
 62
     7
176
     1
 90
        5
176
     1
 90
        0
176
     1
 90
        0
176
     1
290
     0
176
     1
 90
       13
176
     1
 40
0.0
176
     1
 90
        0
176
     1
290
     0
176
     1
290
     1
176
     1
290
     1
176
     1
290
     0
176
     1
290
     0
176
     1
290
     0
176
     1
290
     0
176
     1
290
     0
176
     1
290
     0
176
     1
 90
       50
176
     1
 40
0.0
176
     1
 40
1.0
176
     1
 90
        0
176
     1
 62
    18
176
     1
 90
       50
176
     1
 90
        3
176
     1
 62
     5
420
      255
176
     1
290
     0
176
     1
 90
       50
176
     1
 90
       50
176
     1
 90
       50
176
     1
290
     0
176
     1
 90
       50
176
     1
 62
   256
176
     0
 40
1.0
176
     0
 90
        2
176
     1
  1
strokes_ogs.tif
176
     1
290
     0
176
     1
 40
1.0
176
     1
 40
1.0
176
     1
  0
VISUALSTYLE
  5
2B
102
{ACAD_REACTORS
330
29
102
}
330
29
100
AcDbVisualStyle
  2
FlatWithEdges
 70
     1
177
     3
291
     1
 70
    58
 90
        2
176
     1
 90
        1
176
     1
 90
        1
176
     1
 90
        2
176
     1
 40
0.6
176
     1
 40
30.0
176
     1
 62
     7
420
 16777215
176
     1
 90
        1
176
     1
 90
        0
176
     1
 62
     7
176
     1
 62
   257
176
     1
 90
        1
176
     1
 90
        1
176
     1
 40
1.0
176
     1
 90
        0
176
     1
 62
   257
176
     1
 40
1.0
176
     1
 90
        1
176
     1
 90
        6
176
     1
 90
        2
176
     1
 62
     7
176
     1
 90
        5
176
     1
 90
        0
176
     1
 90
        0
176
     1
290
     0
176
     1
 90
       13
176
     1
 40
0.0
176
     1
 90
        0
176
     1
290
     0
176
     1
290
     1
176
     1
290
     1
176
     1
290
     0
176
     1
290
     0
176
     1
290
     0
176
     1
290
     0
176
     1
290
     0
176
     1
290
     0
176
     1
 90
       50
176
     1
 40
0.0
176
     1
 40
1.0
176
     1
 90
        0
176
     1
 62
    18
176
     1
 90
       50
176
     1
 90
        3
176
     1
 62
     5
420
      255
176
     1
290
     0
176
     1
 90
       50
176
     1
 90
       50
176
     1
 90
       50
176
     1
290
     0
176
     1
 90
       50
176
     1
 62
   256
176
     0
 40
1.0
176
     0
 90
        2
176
     1
  1
strokes_ogs.tif
176
     1
290
     0
176
     1
 40
1.0
176
     1
 40
1.0
176
     1
  0
VISUALSTYLE
  5
2C
102
{ACAD_REACTORS
330
29
102
}
330
29
100
AcDbVisualStyle
  2
Gouraud
 70
     2
177
     3
291
     1
 70
    58
 90
        2
176
     1
 90
        2
176
     1
 90
        1
176
     1
 90
        2
176
     1
 40
0.6
176
     1
 40
30.0
176
     1
 62
     7
420
 16777215
176
     1
 90
        0
176
     1
 90
        0
176
     1
 62
     7
176
     1
 62
   257
176
     1
 90
        1
176
     1
 90
        1
176
     1
 40
1.0
176
     1
 90
        0
176
     1
 62
     7
176
     1
 40
1.0
176
     1
 90
        1
176
     1
 90
        6
176
     1
 90
        2
176
     1
 62
     7
176
     1
 90
        5
176
     1
 90
        0
176
     1
 90
        0
176
     1
290
     0
176
     1
 90
       13
176
     1
 40
0.0
176
     1
 90
        0
176
     1
290
     0
176
     1
290
     1
176
     1
290
     1
176
     1
290
     0
176
     1
290
     0
176
     1
290
     0
176
     1
290
     0
176
     1
290
     0
176
     1
290
     0
176
     1
 90
       50
176
     1
 40
0.0
176
     1
 40
1.0
176
     1
 90
        0
176
     1
 62
    18
176
     1
 90
       50
176
     1
 90
        3
176
     1
 62
     5
420
      255
176
     1
290
     0
176
     1
 90
       50
176
     1
 90
       50
176
     1
 90
       50
176
     1
290
     0
176
     1
 90
       50
176
     1
 62
   256
176
     0
 40
1.0
176
     0
 90
        2
176
     1
  1
strokes_ogs.tif
176
     1
290
     0
176
     1
 40
1.0
176
     1
 40
1.0
176
     1
  0
VISUALSTYLE
  5
2D
102
{ACAD_REACTORS
330
29
102
}
330
29
100
AcDbVisualStyle
  2
GouraudWithEdges
 70
     3
177
     3
291
     1
 70
    58
 90
        2
176
     1
 90
        2
176
     1
 90
        1
176
     1
 90
        2
176
     1
 40
0.6
176
     1
 40
30.0
176
     1
 62
     7
420
 16777215
176
     1
 90
        1
176
     1
 90
        0
176
     1
 62
     7
176
     1
 62
   257
176
     1
 90
        1
176
     1
 90
        1
176
     1
 40
1.0
176
     1
 90
        0
176
     1
 62
   257
176
     1
 40
1.0
176
     1
 90
        1
176
     1
 90
        6
176
     1
 90
        2
176
     1
 62
     7
176
     1
 90
        5
176
     1
 90
        0
176
     1
 90
        0
176
     1
290
     0
176
     1
 90
       13
176
     1
 40
0.0
176
     1
 90
        0
176
     1
290
     0
176
     1
290
     1
176
     1
290
     1
176
     1
290
     0
176
     1
290
     0
176
     1
290
     0
176
     1
290
     0
176
     1
290
     0
176
     1
290
     0
176
     1
 90
       50
176
     1
 40
0.0
176
     1
 40
1.0
176
     1
 90
        0
176
     1
 62
    18
176
     1
 90
       50
176
     1
 90
        3
176
     1
 62
     5
420
      255
176
     1
290
     0
176
     1
 90
       50
176
     1
 90
       50
176
     1
 90
       50
176
     1
290
     0
176
     1
 90
       50
176
     1
 62
   256
176
     0
 40
1.0
176
     0
 90
        2
176
     1
  1
strokes_ogs.tif
176
     1
290
     0
176
     1
 40
1.0
176
     1
 40
1.0
176
     1
  0
VISUALSTYLE
  5
31
102
{ACAD_REACTORS
330
29
102
}
330
29
100
AcDbVisualStyle
  2
Hidden
 70
     6
177
     3
291
     0
 70
    58
 90
        1
176
     1
 90
        2
176
     1
 90
        2
176
     1
 90
        0
176
     1
 40
0.6
176
     1
 40
30.0
176
     1
 62
     7
420
 16777215
176
     1
 90
        2
176
     1
 90
        2
176
     1
 62
     7
176
     1
 62
   257
176
     1
 90
        2
176
     1
 90
        1
176
     1
 40
40.0
176
     1
 90
        0
176
     1
 62
   257
176
     1
 40
1.0
176
     1
 90
        1
176
     1
 90
        6
176
     1
 90
        2
176
     1
 62
     7
176
     1
 90
        3
176
     1
 90
        0
176
     1
 90
        0
176
     1
290
     0
176
     1
 90
        1
176
     1
 40
0.0
176
     1
 90
        0
176
     1
290
     0
176
     1
290
     1
176
     1
290
     1
176
     1
290
     0
176
     1
290
     0
176
     1
290
     0
176
     1
290
     0
176
     1
290
     0
176
     1
290
     0
176
     1
 90
       50
176
     1
 40
0.0
176
     1
 40
1.0
176
     1
 90
        0
176
     1
 62
    18
176
     1
 90
       50
176
     1
 90
        3
176
     1
 62
     5
420
      255
176
     1
290
     0
176
     1
 90
       50
176
     1
 90
       50
176
     1
 90
       50
176
     1
290
     0
176
     1
 90
       50
176
     1
 62
   256
176
     0
 40
1.0
176
     0
 90
        2
176
     1
  1
strokes_ogs.tif
176
     1
290
     0
176
     1
 40
1.0
176
     1
 40
1.0
176
     1
  0
VISUALSTYLE
  5
3F
102
{ACAD_REACTORS
330
29
102
}
330
29
100
AcDbVisualStyle
  2
JitterOff
 70
    20
177
     3
291
     1
 70
    58
 90
        2
176
     0
 90
        2
176
     0
 90
        0
176
     0
 90
        0
176
     0
 40
0.6
176
     0
 40
30.0
176
     0
 62
     7
420
 16777215
176
     0
 90
        1
176
     0
 90
        4
176
     0
 62
     7
176
     0
 62
   257
176
     0
 90
        1
176
     0
 90
        1
176
     0
 40
1.0
176
     0
 90
       10
176
     2
 62
     7
176
     0
 40
1.0
176
     0
 90
        1
176
     0
 90
        6
176
     0
 90
        2
176
     0
 62
     7
176
     0
 90
        5
176
     0
 90
        0
176
     0
 90
        0
176
     0
290
     0
176
     0
 90
        1
176
     0
 40
0.0
176
     0
 90
        0
176
     0
290
     0
176
     1
290
     1
176
     1
290
     1
176
     1
290
     0
176
     1
290
     0
176
     1
290
     0
176
     1
290
     0
176
     1
290
     0
176
     1
290
     0
176
     1
 90
       50
176
     0
 40
0.0
176
     0
 40
1.0
176
     0
 90
        0
176
     0
 62
    18
176
     0
 90
       50
176
     0
 90
        3
176
     0
 62
     5
420
      255
176
     0
290
     0
176
     1
 90
       50
176
     0
 90
       50
176
     0
 90
       50
176
     0
290
     0
176
     1
 90
       50
176
     0
 62
   256
176
     0
 40
1.0
176
     0
 90
        2
176
     0
  1
strokes_ogs.tif
176
     0
290
     0
176
     1
 40
1.0
176
     0
 40
1.0
176
     0
  0
VISUALSTYLE
  5
37
102
{ACAD_REACTORS
330
29
102
}
330
29
100
AcDbVisualStyle
  2
Linepattern
 70
    14
177
     3
291
     1
 70
    58
 90
        2
176
     1
 90
        2
176
     1
 90
        0
176
     1
 90
        0
176
     1
 40
0.6
176
     1
 40
30.0
176
     1
 62
     7
420
 16777215
176
     1
 90
        1
176
     1
 90
        4
176
     1
 62
     7
176
     1
 62
   257
176
     1
 90
        7
176
     1
 90
        7
176
     1
 40
1.0
176
     1
 90
        8
176
     1
 62
     7
176
     1
 40
1.0
176
     1
 90
        1
176
     1
 90
        6
176
     1
 90
        2
176
     1
 62
     7
176
     1
 90
        5
176
     1
 90
        0
176
     1
 90
        0
176
     1
290
     0
176
     1
 90
        1
176
     1
 40
0.0
176
     1
 90
        0
176
     1
290
     0
176
     1
290
     1
176
     1
290
     1
176
     1
290
     0
176
     1
290
     0
176
     1
290
     0
176
     1
290
     0
176
     1
290
     0
176
     1
290
     0
176
     1
 90
       50
176
     1
 40
0.0
176
     1
 40
1.0
176
     1
 90
        0
176
     1
 62
    18
176
     1
 90
       50
176
     1
 90
        3
176
     1
 62
     5
420
      255
176
     1
290
     0
176
     1
 90
       50
176
     1
 90
       50
176
     1
 90
       50
176
     1
290
     0
176
     1
 90
       50
176
     1
 62
   256
176
     0
 40
1.0
176
     0
 90
        2
176
     1
  1
strokes_ogs.tif
176
     1
290
     0
176
     1
 40
1.0
176
     1
 40
1.0
176
     1
  0
VISUALSTYLE
  5
40
102
{ACAD_REACTORS
330
29
102
}
330
29
100
AcDbVisualStyle
  2
OverhangOff
 70
    21
177
     3
291
     1
 70
    58
 90
        2
176
     0
 90
        2
176
     0
 90
        0
176
     0
 90
        0
176
     0
 40
0.6
176
     0
 40
30.0
176
     0
 62
     7
420
 16777215
176
     0
 90
        1
176
     0
 90
        4
176
     0
 62
     7
176
     0
 62
   257
176
     0
 90
        1
176
     0
 90
        1
176
     0
 40
1.0
176
     0
 90
        9
176
     2
 62
     7
176
     0
 40
1.0
176
     0
 90
        1
176
     0
 90
        6
176
     0
 90
        2
176
     0
 62
     7
176
     0
 90
        5
176
     0
 90
        0
176
     0
 90
        0
176
     0
290
     0
176
     0
 90
        1
176
     0
 40
0.0
176
     0
 90
        0
176
     0
290
     0
176
     1
290
     1
176
     1
290
     1
176
     1
290
     0
176
     1
290
     0
176
     1
290
     0
176
     1
290
     0
176
     1
290
     0
176
     1
290
     0
176
     1
 90
       50
176
     0
 40
0.0
176
     0
 40
1.0
176
     0
 90
        0
176
     0
 62
    18
176
     0
 90
       50
176
     0
 90
        3
176
     0
 62
     5
420
      255
176
     0
290
     0
176
     1
 90
       50
176
     0
 90
       50
176
     0
 90
       50
176
     0
290
     0
176
     1
 90
       50
176
     0
 62
   256
176
     0
 40
1.0
176
     0
 90
        2
176
     0
  1
strokes_ogs.tif
176
     0
290
     0
176
     1
 40
1.0
176
     0
 40
1.0
176
     0
  0
VISUALSTYLE
  5
33
102
{ACAD_REACTORS
330
29
102
}
330
29
100
AcDbVisualStyle
  2
Realistic
 70
     8
177
     3
291
     0
 70
    58
 90
        2
176
     1
 90
        3
176
     1
 90
        0
176
     1
 90
        2
176
     1
 40
0.6
176
     1
 40
30.0
176
     1
 62
     7
420
 16777215
176
     1
 90
        0
176
     1
 90
        0
176
     1
 62
     7
176
     1
 62
   257
176
     1
 90
        1
176
     1
 90
        1
176
     1
 40
1.0
176
     1
 90
        8
176
     1
 62
   257
176
     1
 40
1.0
176
     1
 90
        1
176
     1
 90
        6
176
     1
 90
        2
176
     1
 62
     7
176
     1
 90
        3
176
     1
 90
        0
176
     1
 90
        0
176
     1
290
     0
176
     1
 90
       13
176
     1
 40
0.0
176
     1
 90
        0
176
     1
290
     0
176
     1
290
     1
176
     1
290
     1
176
     1
290
     0
176
     1
290
     0
176
     1
290
     0
176
     1
290
     0
176
     1
290
     0
176
     1
290
     0
176
     1
 90
       50
176
     1
 40
0.0
176
     1
 40
1.0
176
     1
 90
        0
176
     1
 62
    18
176
     1
 90
       50
176
     1
 90
        3
176
     1
 62
     5
420
      255
176
     1
290
     0
176
     1
 90
       50
176
     1
 90
       50
176
     1
 90
       50
176
     1
290
     0
176
     1
 90
       50
176
     1
 62
   256
176
     0
 40
1.0
176
     0
 90
        2
176
     1
  1
strokes_ogs.tif
176
     1
290
     0
176
     1
 40
1.0
176
     1
 40
1.0
176
     1
  0
VISUALSTYLE
  5
3E
102
{ACAD_REACTORS
330
29
102
}
330
29
100
AcDbVisualStyle
  2
Shaded
 70
    27
177
     3
291
     0
 70
    58
 90
        2
176
     1
 90
        2
176
     1
 90
        1
176
     1
 90
        2
176
     1
 40
0.6
176
     1
 40
30.0
176
     1
 62
     7
420
 16777215
176
     1
 90
        0
176
     1
 90
        4
176
     1
 62
     7
176
     1
 62
   257
176
     1
 90
        1
176
     1
 90
        1
176
     1
 40
1.0
176
     1
 90
        8
176
     1
 62
   257
176
     1
 40
1.0
176
     1
 90
        1
176
     1
 90
        6
176
     1
 90
        2
176
     1
 62
     8
420
  7895160
176
     1
 90
        3
176
     1
 90
        0
176
     1
 90
        0
176
     1
290
     0
176
     1
 90
        5
176
     1
 40
0.0
176
     1
 90
        0
176
     1
290
     0
176
     1
290
     1
176
     1
290
     1
176
     1
290
     0
176
     1
290
     0
176
     1
290
     0
176
     1
290
     0
176
     1
290
     0
176
     1
290
     0
176
     1
 90
       50
176
     1
 40
0.0
176
     1
 40
1.0
176
     1
 90
        0
176
     1
 62
    18
176
     1
 90
       50
176
     1
 90
        3
176
     1
 62
     5
420
      255
176
     1
290
     0
176
     1
 90
       50
176
     1
 90
       50
176
     1
 90
       50
176
     1
290
     0
176
     1
 90
       50
176
     1
 62
   256
176
     0
 40
1.0
176
     0
 90
        2
176
     1
  1
strokes_ogs.tif
176
     1
290
     0
176
     1
 40
1.0
176
     1
 40
1.0
176
     1
  0
VISUALSTYLE
  5
3D
102
{ACAD_REACTORS
330
29
102
}
330
29
100
AcDbVisualStyle
  2
Shaded with edges
 70
    26
177
     3
291
     0
 70
    58
 90
        2
176
     1
 90
        2
176
     1
 90
        1
176
     1
 90
        2
176
     1
 40
0.6
176
     1
 40
30.0
176
     1
 62
     7
420
 16777215
176
     1
 90
        1
176
     1
 90
        2
176
     1
 62
     7
176
     1
 62
   257
176
     1
 90
        2
176
     1
 90
        1
176
     1
 40
1.0
176
     1
 90
        8
176
     1
 62
   257
176
     1
 40
1.0
176
     1
 90
        1
176
     1
 90
        6
176
     1
 90
        2
176
     1
 62
     7
176
     1
 90
        3
176
     1
 90
        0
176
     1
 90
        0
176
     1
290
     0
176
     1
 90
        5
176
     1
 40
0.0
176
     1
 90
        0
176
     1
290
     0
176
     1
290
     1
176
     1
290
     1
176
     1
290
     0
176
     1
290
     0
176
     1
290
     0
176
     1
290
     0
176
     1
290
     0
176
     1
290
     0
176
     1
 90
       50
176
     1
 40
0.0
176
     1
 40
1.0
176
     1
 90
        0
176
     1
 62
    18
176
     1
 90
       50
176
     1
 90
        3
176
     1
 62
     5
420
      255
176
     1
290
     0
176
     1
 90
       50
176
     1
 90
       50
176
     1
 90
       50
176
     1
290
     0
176
     1
 90
       50
176
     1
 62
   256
176
     0
 40
1.0
176
     0
 90
        2
176
     1
  1
strokes_ogs.tif
176
     1
290
     0
176
     1
 40
1.0
176
     1
 40
1.0
176
     1
  0
VISUALSTYLE
  5
3A
102
{ACAD_REACTORS
330
29
102
}
330
29
100
AcDbVisualStyle
  2
Shades of Gray
 70
    23
177
     3
291
     0
 70
    58
 90
        2
176
     1
 90
        2
176
     1
 90
        3
176
     1
 90
        0
176
     1
 40
0.6
176
     1
 40
30.0
176
     1
 62
     7
420
 16777215
176
     1
 90
        2
176
     1
 90
        2
176
     1
 62
     7
176
     1
 62
     7
176
     1
 90
        1
176
     1
 90
        1
176
     1
 40
40.0
176
     1
 90
        8
176
     1
 62
     7
176
     1
 40
1.0
176
     1
 90
        1
176
     1
 90
        6
176
     1
 90
        2
176
     1
 62
     7
176
     1
 90
        3
176
     1
 90
        0
176
     1
 90
        0
176
     1
290
     0
176
     1
 90
        1
176
     1
 40
0.0
176
     1
 90
        0
176
     1
290
     0
176
     1
290
     1
176
     1
290
     1
176
     1
290
     0
176
     1
290
     0
176
     1
290
     0
176
     1
290
     0
176
     1
290
     0
176
     1
290
     0
176
     1
 90
       50
176
     1
 40
0.0
176
     1
 40
1.0
176
     1
 90
        0
176
     1
 62
    18
176
     1
 90
       50
176
     1
 90
        3
176
     1
 62
     5
420
      255
176
     1
290
     0
176
     1
 90
       50
176
     1
 90
       50
176
     1
 90
       50
176
     1
290
     0
176
     1
 90
       50
176
     1
 62
   256
176
     0
 40
1.0
176
     0
 90
        2
176
     1
  1
strokes_ogs.tif
176
     1
290
     0
176
     1
 40
1.0
176
     1
 40
1.0
176
     1
  0
VISUALSTYLE
  5
3B
102
{ACAD_REACTORS
330
29
102
}
330
29
100
AcDbVisualStyle
  2
Sketchy
 70
    24
177
     3
291
     0
 70
    58
 90
        1
176
     1
 90
        2
176
     1
 90
        2
176
     1
 90
        0
176
     1
 40
0.6
176
     1
 40
30.0
176
     1
 62
     7
420
 16777215
176
     1
 90
        2
176
     1
 90
        2
176
     1
 62
     7
176
     1
 62
     7
176
     1
 90
        1
176
     1
 90
        1
176
     1
 40
40.0
176
     1
 90
       11
176
     1
 62
     7
176
     1
 40
1.0
176
     1
 90
        1
176
     1
 90
        6
176
     1
 90
        2
176
     1
 62
     7
176
     1
 90
        6
176
     1
 90
        0
176
     1
 90
        0
176
     1
290
     0
176
     1
 90
        1
176
     1
 40
0.0
176
     1
 90
        0
176
     1
290
     0
176
     1
290
     1
176
     1
290
     1
176
     1
290
     0
176
     1
290
     0
176
     1
290
     0
176
     1
290
     0
176
     1
290
     0
176
     1
290
     0
176
     1
 90
       50
176
     1
 40
0.0
176
     1
 40
1.0
176
     1
 90
        0
176
     1
 62
    18
176
     1
 90
       50
176
     1
 90
        3
176
     1
 62
     5
420
      255
176
     1
290
     0
176
     1
 90
       50
176
     1
 90
       50
176
     1
 90
       50
176
     1
290
     0
176
     1
 90
       50
176
     1
 62
   256
176
     0
 40
1.0
176
     0
 90
        2
176
     1
  1
strokes_ogs.tif
176
     1
290
     0
176
     1
 40
1.0
176
     1
 40
1.0
176
     1
  0
VISUALSTYLE
  5
36
102
{ACAD_REACTORS
330
29
102
}
330
29
100
AcDbVisualStyle
  2
Thicken
 70
    13
177
     3
291
     1
 70
    58
 90
        2
176
     1
 90
        2
176
     1
 90
        0
176
     1
 90
        0
176
     1
 40
0.6
176
     1
 40
30.0
176
     1
 62
     7
420
 16777215
176
     1
 90
        1
176
     1
 90
        4
176
     1
 62
     7
176
     1
 62
   257
176
     1
 90
        1
176
     1
 90
        1
176
     1
 40
1.0
176
     1
 90
       12
176
     1
 62
     7
176
     1
 40
1.0
176
     1
 90
        1
176
     1
 90
        6
176
     1
 90
        2
176
     1
 62
     7
176
     1
 90
        5
176
     1
 90
        0
176
     1
 90
        0
176
     1
290
     0
176
     1
 90
        1
176
     1
 40
0.0
176
     1
 90
        0
176
     1
290
     0
176
     1
290
     1
176
     1
290
     1
176
     1
290
     0
176
     1
290
     0
176
     1
290
     0
176
     1
290
     0
176
     1
290
     0
176
     1
290
     0
176
     1
 90
       50
176
     1
 40
0.0
176
     1
 40
1.0
176
     1
 90
        0
176
     1
 62
    18
176
     1
 90
       50
176
     1
 90
        3
176
     1
 62
     5
420
      255
176
     1
290
     0
176
     1
 90
       50
176
     1
 90
       50
176
     1
 90
       50
176
     1
290
     0
176
     1
 90
       50
176
     1
 62
   256
176
     0
 40
1.0
176
     0
 90
        2
176
     1
  1
strokes_ogs.tif
176
     1
290
     0
176
     1
 40
1.0
176
     1
 40
1.0
176
     1
  0
VISUALSTYLE
  5
30
102
{ACAD_REACTORS
330
29
102
}
330
29
100
AcDbVisualStyle
  2
Wireframe
 70
     5
177
     3
291
     0
 70
    58
 90
        0
176
     1
 90
        2
176
     1
 90
        0
176
     1
 90
        0
176
     1
 40
0.6
176
     1
 40
30.0
176
     1
 62
     7
420
 16777215
176
     1
 90
        1
176
     1
 90
        4
176
     1
 62
     7
176
     1
 62
   257
176
     1
 90
        1
176
     1
 90
        1
176
     1
 40
1.0
176
     1
 90
        0
176
     1
 62
   257
176
     1
 40
1.0
176
     1
 90
        1
176
     1
 90
        6
176
     1
 90
        2
176
     1
 62
     7
176
     1
 90
        3
176
     1
 90
        0
176
     1
 90
        0
176
     1
290
     0
176
     1
 90
        1
176
     1
 40
0.0
176
     1
 90
        0
176
     1
290
     0
176
     1
290
     1
176
     1
290
     1
176
     1
290
     0
176
     1
290
     0
176
     1
290
     0
176
     1
290
     0
176
     1
290
     0
176
     1
290
     0
176
     1
 90
       50
176
     1
 40
0.0
176
     1
 40
1.0
176
     1
 90
        0
176
     1
 62
    18
176
     1
 90
       50
176
     1
 90
        3
176
     1
 62
     5
420
      255
176
     1
290
     0
176
     1
 90
       50
176
     1
 90
       50
176
     1
 90
       50
176
     1
290
     0
176
     1
 90
       50
176
     1
 62
   256
176
     0
 40
1.0
176
     0
 90
        2
176
     1
  1
strokes_ogs.tif
176
     1
290
     0
176
     1
 40
1.0
176
     1
 40
1.0
176
     1
  0
VISUALSTYLE
  5
3C
102
{ACAD_REACTORS
330
29
102
}
330
29
100
AcDbVisualStyle
  2
X-Ray
 70
    25
177
     3
291
     0
 70
    58
 90
        2
176
     1
 90
        2
176
     1
 90
        1
176
     1
 90
        1
176
     1
 40
0.5
176
     1
 40
30.0
176
     1
 62
     7
420
 16777215
176
     1
 90
        1
176
     1
 90
        0
176
     1
 62
     7
176
     1
 62
   257
176
     1
 90
        1
176
     1
 90
        1
176
     1
 40
1.0
176
     1
 90
        8
176
     1
 62
     7
176
     1
 40
1.0
176
     1
 90
        1
176
     1
 90
        6
176
     1
 90
        2
176
     1
 62
     7
176
     1
 90
        3
176
     1
 90
        0
176
     1
 90
        0
176
     1
290
     0
176
     1
 90
       13
176
     1
 40
0.0
176
     1
 90
        0
176
     1
290
     0
176
     1
290
     1
176
     1
290
     1
176
     1
290
     0
176
     1
290
     0
176
     1
290
     0
176
     1
290
     0
176
     1
290
     0
176
     1
290
     0
176
     1
 90
       50
176
     1
 40
0.0
176
     1
 40
1.0
176
     1
 90
        0
176
     1
 62
    18
176
     1
 90
       50
176
     1
 90
        3
176
     1
 62
     5
420
      255
176
     1
290
     0
176
     1
 90
       50
176
     1
 90
       50
176
     1
 90
       50
176
     1
290
     0
176
     1
 90
       50
176
     1
 62
   256
176
     0
 40
1.0
176
     0
 90
        2
176
     1
  1
strokes_ogs.tif
176
     1
290
     0
176
     1
 40
1.0
176
     1
 40
1.0
176
     1
  0
DICTIONARYVAR
  5
20D
102
{ACAD_REACTORS
330
207
102
}
330
207
100
DictionaryVariables
280
     0
  1
1:1
  0
DICTIONARYVAR
  5
209
102
{ACAD_REACTORS
330
207
102
}
330
207
100
DictionaryVariables
280
     0
  1
STANDARD
  0
DICTIONARYVAR
  5
208
102
{ACAD_REACTORS
330
207
102
}
330
207
100
DictionaryVariables
280
     0
  1
STANDARD
  0
DICTIONARYVAR
  5
20A
102
{ACAD_REACTORS
330
207
102
}
330
207
100
DictionaryVariables
280
     0
  1
Imperial24
  0
DICTIONARYVAR
  5
20B
102
{ACAD_REACTORS
330
207
102
}
330
207
100
DictionaryVariables
280
     0
  1
Imperial24
  0
DICTIONARYVAR
  5
20F
102
{ACAD_REACTORS
330
207
102
}
330
207
100
DictionaryVariables
280
     0
  1
1
  0
DICTIONARYVAR
  5
210
102
{ACAD_REACTORS
330
207
102
}
330
207
100
DictionaryVariables
280
     0
  1
15
  0
DICTIONARYVAR
  5
20E
102
{ACAD_REACTORS
330
207
102
}
330
207
100
DictionaryVariables
280
     0
  1
0
  0
DICTIONARYVAR
  5
20C
102
{ACAD_REACTORS
330
207
102
}
330
207
100
DictionaryVariables
280
     0
  1
0
  0
DICTIONARY
  5
1A
330
19
100
AcDbDictionary
280
     1
281
     1
  3
BUMPTILE
360
1C
  3
DIFFUSETILE
360
1B
  3
OPACITYTILE
360
1F
  3
REFLECTIONTILE
360
1E
  3
REFRACTIONTILE
360
20
  3
SPECULARTILE
360
1D
  0
DICTIONARY
  5
12
330
11
100
AcDbDictionary
280
     1
281
     1
  3
BUMPTILE
360
14
  3
DIFFUSETILE
360
13
  3
OPACITYTILE
360
17
  3
REFLECTIONTILE
360
16
  3
REFRACTIONTILE
360
18
  3
SPECULARTILE
360
15
  0
DICTIONARY
  5
22
330
21
100
AcDbDictionary
280
     1
281
     1
  3
BUMPTILE
360
24
  3
DIFFUSETILE
360
23
  3
OPACITYTILE
360
27
  3
REFLECTIONTILE
360
26
  3
REFRACTIONTILE
360
28
  3
SPECULARTILE
360
25
  0
DICTIONARY
  5
34C
330
64
100
AcDbDictionary
280
     1
281
     1
  3
ACAD_ROUNDTRIP_2008_TABLESTYLE_CELLSTYLEMAP
360
369
  0
XRECORD
  5
1C
102
{ACAD_REACTORS
330
1A
102
}
330
1A
100
AcDbXrecord
280
     1
270
     1
271
     1
  0
XRECORD
  5
1B
102
{ACAD_REACTORS
330
1A
102
}
330
1A
100
AcDbXrecord
280
     1
270
     1
271
     1
  0
XRECORD
  5
1F
102
{ACAD_REACTORS
330
1A
102
}
330
1A
100
AcDbXrecord
280
     1
270
     1
271
     1
  0
XRECORD
  5
1E
102
{ACAD_REACTORS
330
1A
102
}
330
1A
100
AcDbXrecord
280
     1
270
     1
271
     1
  0
XRECORD
  5
20
102
{ACAD_REACTORS
330
1A
102
}
330
1A
100
AcDbXrecord
280
     1
270
     1
271
     1
  0
XRECORD
  5
1D
102
{ACAD_REACTORS
330
1A
102
}
330
1A
100
AcDbXrecord
280
     1
270
     1
271
     1
  0
XRECORD
  5
14
102
{ACAD_REACTORS
330
12
102
}
330
12
100
AcDbXrecord
280
     1
270
     1
271
     1
  0
XRECORD
  5
13
102
{ACAD_REACTORS
330
12
102
}
330
12
100
AcDbXrecord
280
     1
270
     1
271
     1
  0
XRECORD
  5
17
102
{ACAD_REACTORS
330
12
102
}
330
12
100
AcDbXrecord
280
     1
270
     1
271
     1
  0
XRECORD
  5
16
102
{ACAD_REACTORS
330
12
102
}
330
12
100
AcDbXrecord
280
     1
270
     1
271
     1
  0
XRECORD
  5
18
102
{ACAD_REACTORS
330
12
102
}
330
12
100
AcDbXrecord
280
     1
270
     1
271
     1
  0
XRECORD
  5
15
102
{ACAD_REACTORS
330
12
102
}
330
12
100
AcDbXrecord
280
     1
270
     1
271
     1
  0
XRECORD
  5
24
102
{ACAD_REACTORS
330
22
102
}
330
22
100
AcDbXrecord
280
     1
270
     1
271
     1
  0
XRECORD
  5
23
102
{ACAD_REACTORS
330
22
102
}
330
22
100
AcDbXrecord
280
     1
270
     1
271
     1
  0
XRECORD
  5
27
102
{ACAD_REACTORS
330
22
102
}
330
22
100
AcDbXrecord
280
     1
270
     1
271
     1
  0
XRECORD
  5
26
102
{ACAD_REACTORS
330
22
102
}
330
22
100
AcDbXrecord
280
     1
270
     1
271
     1
  0
XRECORD
  5
28
102
{ACAD_REACTORS
330
22
102
}
330
22
100
AcDbXrecord
280
     1
270
     1
271
     1
  0
XRECORD
  5
25
102
{ACAD_REACTORS
330
22
102
}
330
22
100
AcDbXrecord
280
     1
270
     1
271
     1
  0
CELLSTYLEMAP
  5
369
102
{ACAD_REACTORS
330
34C
102
}
330
34C
100
AcDbCellStyleMap
 90
        3
300
CELLSTYLE
  1
TABLEFORMAT_BEGIN
 90
        5
170
     1
 91
        0
 92
    32768
 62
   257
 93
        1
300
CONTENTFORMAT
  1
CONTENTFORMAT_BEGIN
 90
        0
 91
        0
 92
      512
 93
        0
300

 40
0.0
140
1.0
 94
        5
 62
     0
340
55
144
0.25
309
CONTENTFORMAT_END
171
     1
301
MARGIN
  1
CELLMARGIN_BEGIN
 40
0.06
 40
0.06
 40
0.06
 40
0.06
 40
0.18
 40
0.18
309
CELLMARGIN_END
 94
        6
 95
        1
302
GRIDFORMAT
  1
GRIDFORMAT_BEGIN
 90
        0
 91
        1
 62
     0
 92
       -2
340
0
 93
        0
 40
0.045
309
GRIDFORMAT_END
 95
        2
302
GRIDFORMAT
  1
GRIDFORMAT_BEGIN
 90
        0
 91
        1
 62
     0
 92
       -2
340
0
 93
        0
 40
0.045
309
GRIDFORMAT_END
 95
        4
302
GRIDFORMAT
  1
GRIDFORMAT_BEGIN
 90
        0
 91
        1
 62
     0
 92
       -2
340
0
 93
        0
 40
0.045
309
GRIDFORMAT_END
 95
        8
302
GRIDFORMAT
  1
GRIDFORMAT_BEGIN
 90
        0
 91
        1
 62
     0
 92
       -2
340
0
 93
        0
 40
0.045
309
GRIDFORMAT_END
 95
       16
302
GRIDFORMAT
  1
GRIDFORMAT_BEGIN
 90
        0
 91
        1
 62
     0
 92
       -2
340
0
 93
        0
 40
0.045
309
GRIDFORMAT_END
 95
       32
302
GRIDFORMAT
  1
GRIDFORMAT_BEGIN
 90
        0
 91
        1
 62
     0
 92
       -2
340
0
 93
        0
 40
0.045
309
GRIDFORMAT_END
309
TABLEFORMAT_END
  1
CELLSTYLE_BEGIN
 90
        1
 91
        1
300
_TITLE
309
CELLSTYLE_END
300
CELLSTYLE
  1
TABLEFORMAT_BEGIN
 90
        5
170
     1
 91
        0
 92
        0
 62
   257
 93
        1
300
CONTENTFORMAT
  1
CONTENTFORMAT_BEGIN
 90
        0
 91
        0
 92
      512
 93
        0
300

 40
0.0
140
1.0
 94
        5
 62
     0
340
55
144
0.18
309
CONTENTFORMAT_END
171
     1
301
MARGIN
  1
CELLMARGIN_BEGIN
 40
0.06
 40
0.06
 40
0.06
 40
0.06
 40
0.18
 40
0.18
309
CELLMARGIN_END
 94
        6
 95
        1
302
GRIDFORMAT
  1
GRIDFORMAT_BEGIN
 90
        0
 91
        1
 62
     0
 92
       -2
340
0
 93
        0
 40
0.045
309
GRIDFORMAT_END
 95
        2
302
GRIDFORMAT
  1
GRIDFORMAT_BEGIN
 90
        0
 91
        1
 62
     0
 92
       -2
340
0
 93
        0
 40
0.045
309
GRIDFORMAT_END
 95
        4
302
GRIDFORMAT
  1
GRIDFORMAT_BEGIN
 90
        0
 91
        1
 62
     0
 92
       -2
340
0
 93
        0
 40
0.045
309
GRIDFORMAT_END
 95
        8
302
GRIDFORMAT
  1
GRIDFORMAT_BEGIN
 90
        0
 91
        1
 62
     0
 92
       -2
340
0
 93
        0
 40
0.045
309
GRIDFORMAT_END
 95
       16
302
GRIDFORMAT
  1
GRIDFORMAT_BEGIN
 90
        0
 91
        1
 62
     0
 92
       -2
340
0
 93
        0
 40
0.045
309
GRIDFORMAT_END
 95
       32
302
GRIDFORMAT
  1
GRIDFORMAT_BEGIN
 90
        0
 91
        1
 62
     0
 92
       -2
340
0
 93
        0
 40
0.045
309
GRIDFORMAT_END
309
TABLEFORMAT_END
  1
CELLSTYLE_BEGIN
 90
        2
 91
        1
300
_HEADER
309
CELLSTYLE_END
300
CELLSTYLE
  1
TABLEFORMAT_BEGIN
 90
        5
170
     1
 91
        0
 92
        0
 62
   257
 93
        1
300
CONTENTFORMAT
  1
CONTENTFORMAT_BEGIN
 90
        0
 91
        0
 92
      512
 93
        0
300

 40
0.0
140
1.0
 94
        2
 62
     0
340
55
144
0.18
309
CONTENTFORMAT_END
171
     1
301
MARGIN
  1
CELLMARGIN_BEGIN
 40
0.06
 40
0.06
 40
0.06
 40
0.06
 40
0.18
 40
0.18
309
CELLMARGIN_END
 94
        6
 95
        1
302
GRIDFORMAT
  1
GRIDFORMAT_BEGIN
 90
        0
 91
        1
 62
     0
 92
       -2
340
0
 93
        0
 40
0.045
309
GRIDFORMAT_END
 95
        2
302
GRIDFORMAT
  1
GRIDFORMAT_BEGIN
 90
        0
 91
        1
 62
     0
 92
       -2
340
0
 93
        0
 40
0.045
309
GRIDFORMAT_END
 95
        4
302
GRIDFORMAT
  1
GRIDFORMAT_BEGIN
 90
        0
 91
        1
 62
     0
 92
       -2
340
0
 93
        0
 40
0.045
309
GRIDFORMAT_END
 95
        8
302
GRIDFORMAT
  1
GRIDFORMAT_BEGIN
 90
        0
 91
        1
 62
     0
 92
       -2
340
0
 93
        0
 40
0.045
309
GRIDFORMAT_END
 95
       16
302
GRIDFORMAT
  1
GRIDFORMAT_BEGIN
 90
        0
 91
        1
 62
     0
 92
       -2
340
0
 93
        0
 40
0.045
309
GRIDFORMAT_END
 95
       32
302
GRIDFORMAT
  1
GRIDFORMAT_BEGIN
 90
        0
 91
        1
 62
     0
 92
       -2
340
0
 93
        0
 40
0.045
309
GRIDFORMAT_END
309
TABLEFORMAT_END
  1
CELLSTYLE_BEGIN
 90
        3
 91
        2
300
_DATA
309
CELLSTYLE_END
  0
ENDSEC
  0
SECTION
  2
ACDSDATA
 70
     2
 71
     8
  0
ACDSSCHEMA
 90
        0
  1
AcDb_Thumbnail_Schema
  2
AcDbDs::ID
280
    10
 91
        8
  2
Thumbnail_Data
280
    15
 91
        0
101
ACDSRECORD
 95
        0
 90
        1
  2
AcDbDs::TreatedAsObjectData
280
     1
291
     1
101
ACDSRECORD
 95
        0
 90
        2
  2
AcDbDs::Legacy
280
     1
291
     1
101
ACDSRECORD
  1
AcDbDs::ID
 90
        3
  2
AcDs:Indexable
280
     1
291
     1
101
ACDSRECORD
  1
AcDbDs::ID
 90
        4
  2
AcDbDs::HandleAttribute
280
     7
282
     1
  0
ACDSSCHEMA
 90
        1
  1
AcDbDs::TreatedAsObjectDataSchema
  2
AcDbDs::TreatedAsObjectData
280
     1
 91
        0
  0
ACDSSCHEMA
 90
        2
  1
AcDbDs::LegacySchema
  2
AcDbDs::Legacy
280
     1
 91
        0
  0
ACDSSCHEMA
 90
        3
  1
AcDbDs::IndexedPropertySchema
  2
AcDs:Indexable
280
     1
 91
        0
  0
ACDSSCHEMA
 90
        4
  1
AcDbDs::HandleAttributeSchema
  2
AcDbDs::HandleAttribute
280
     7
 91
        1
284
     1
  0
ACDSRECORD
 90
        0
  2
AcDbDs::ID
280
    10
320
72
  2
Thumbnail_Data
280
    15
 94
     1322
310
89504E470D0A1A0A0000000D49484452000001000000006F08030000003479EE6F00000300504C5445212830FFFFFF2128300000000000000000000000000000000000000000000000000000330000660000990000CC0000FF0033000033330033660033990033CC0033FF0066000066330066660066990066CC0066FF0099
310
000099330099660099990099CC0099FF00CC0000CC3300CC6600CC9900CCCC00CCFF00FF0000FF3300FF6600FF9900FFCC00FFFF3300003300333300663300993300CC3300FF3333003333333333663333993333CC3333FF3366003366333366663366993366CC3366FF3399003399333399663399993399CC3399FF33CC00
310
33CC3333CC6633CC9933CCCC33CCFF33FF0033FF3333FF6633FF9933FFCC33FFFF6600006600336600666600996600CC6600FF6633006633336633666633996633CC6633FF6666006666336666666666996666CC6666FF6699006699336699666699996699CC6699FF66CC0066CC3366CC6666CC9966CCCC66CCFF66FF0066
310
FF3366FF6666FF9966FFCC66FFFF9900009900339900669900999900CC9900FF9933009933339933669933999933CC9933FF9966009966339966669966999966CC9966FF9999009999339999669999999999CC9999FF99CC0099CC3399CC6699CC9999CCCC99CCFF99FF0099FF3399FF6699FF9999FFCC99FFFFCC0000CC00
310
33CC0066CC0099CC00CCCC00FFCC3300CC3333CC3366CC3399CC33CCCC33FFCC6600CC6633CC6666CC6699CC66CCCC66FFCC9900CC9933CC9966CC9999CC99CCCC99FFCCCC00CCCC33CCCC66CCCC99CCCCCCCCCCFFCCFF00CCFF33CCFF66CCFF99CCFFCCCCFFFFFF0000FF0033FF0066FF0099FF00CCFF00FFFF3300FF3333
310
FF3366FF3399FF33CCFF33FFFF6600FF6633FF6666FF6699FF66CCFF66FFFF9900FF9933FF9966FF9999FF99CCFF99FFFFCC00FFCC33FFCC66FFCC99FFCCCCFFCCFFFFFF00FFFF33FFFF66FFFF99FFFFCCFFFFFF0000000D0D0D1A1A1A2828283535354343435050505D5D5D6B6B6B787878868686939393A1A1A1AEAEAEBB
310
BBBBC9C9C9D6D6D6E4E4E4F1F1F1FFFFFF0000000000000000000000000000000000000000000000000000000000002E4550F1000001E54944415478DAED9B5B72C3200C45594EF7BF0076A5FFA6933E6CF39410A909E7FE7412992B7A4C3196A62120841042082184104208218410420821841042082184104208BDAB64BA
310
5E976960725A6A8AF077964B32194AE078FBE703787E963187DBFDDD28C3296859FAF77F2B00879DE0B839C474A368EC23B5E8EF0F8341261CEB5B6CEC1E2C976DEAC02526B7EF188EC9DD9542F8F97DE3920EFF50F51FF4FE99600885CB92651993F55A1C1CC4C5DF9ABECB1B00000000000070BEEAF1B4AC989CA28DC179
310
006A7F6BFA2EEFD4441E9CA468728E36066701E8FDADE9BBBCF3267F9F7326D71CC5C145003A7F6BFAF6E08F196A009895D63453A715500FDF7905E44DBE5E19CA3338457BC2B3FD07BDE73FA6363807000000000000005605E051130CCBD6044D55E1A8ACDACA78E576665538A758ADA5D7A3695826FB3B7A030000000000
310
00B602C03960F79320EF0200000000B6029009DF0F805F73DA0AC0B97BABF4776C4E7779CFEFDEEAFC3D9BD35DDE77EB0D7A36A7DBDE7487775F0179937FED0E1BD28F79F31804C04B4E6A000000000000808ABFA924A9AF0966C3DE45CBE47F7EE452742ED4660D855D7555F81A766B311FC3A1D91898D9DB180BCF990100
310
00000000000000217F54683FAB973B07741C84F4A7B5954E82BC0B006019009F930668E325C030D90000000049454E44AE426082
  0
ENDSEC
  0
EOF
