  0
SECTION
  2
HEADER
  9
$ACADVER
  1
AC1009
  9
$EXTMIN
 10
0.0
 20
0.0
 30
0.0
  9
$EXTMAX
 10
1000.0
 20
1000.0
 30
0.0
  9
$FILLMODE
 70
 0
  9
$SPLFRAME
 70
 1
  0
ENDSEC
  0
SECTION
  2
TABLES
  0
TABLE
  2
LAYER
 70
1
  0
LAYER
  2
0
 70
     0
 62
     7
  6
CONTINUOUS
  0
ENDTAB
  0
ENDSEC
  0
SECTION
  2
ENTITIES
  0
LINE
  8
0
 62
     0
 10
0.0950846
 20
94.802
 30
0.0
 11
257.554
 21
94.802
 31
0.0
  0
LINE
  8
0
 62
     0
 10
257.554
 20
94.802
 30
0.0
 11
257.554
 21
0.179145
 31
0.0
  0
LINE
  8
0
 62
     0
 10
257.554
 20
0.179145
 30
0.0
 11
0.0950846
 21
0.179145
 31
0.0
  0
LINE
  8
0
 62
     0
 10
0.0950846
 20
0.179145
 30
0.0
 11
0.0950846
 21
94.802
 31
0.0
  0
LINE
  8
0
 62
     0
 10
141.942
 20
16.7955
 30
0.0
 11
142.098
 21
16.2154
 31
0.0
  0
LINE
  8
0
 62
     0
 10
142.098
 20
16.2154
 30
0.0
 11
141.325
 21
16.0087
 31
0.0
  0
LINE
  8
0
 62
     0
 10
141.325
 20
16.0087
 30
0.0
 11
144.637
 21
3.64628
 31
0.0
  0
LINE
  8
0
 62
     0
 10
144.637
 20
3.64628
 30
0.0
 11
145.411
 21
3.853
 31
0.0
  0
LINE
  8
0
 62
     0
 10
145.411
 20
3.853
 30
0.0
 11
145.565
 21
3.27284
 31
0.0
  0
LINE
  8
0
 62
     0
 10
145.565
 20
3.27284
 30
0.0
 11
159.089
 21
6.89571
 31
0.0
  0
LINE
  8
0
 62
     0
 10
159.089
 20
6.89571
 30
0.0
 11
158.933
 21
7.47586
 31
0.0
  0
LINE
  8
0
 62
     0
 10
158.933
 20
7.47586
 30
0.0
 11
159.706
 21
7.68255
 31
0.0
  0
LINE
  8
0
 62
     0
 10
159.706
 20
7.68255
 30
0.0
 11
156.393
 21
20.0463
 31
0.0
  0
LINE
  8
0
 62
     0
 10
156.393
 20
20.0463
 30
0.0
 11
155.621
 21
19.8396
 31
0.0
  0
LINE
  8
0
 62
     0
 10
155.621
 20
19.8396
 30
0.0
 11
155.466
 21
20.4184
 31
0.0
  0
LINE
  8
0
 62
     0
 10
155.466
 20
20.4184
 30
0.0
 11
141.942
 21
16.7955
 31
0.0
  0
LINE
  8
0
 62
     0
 10
101.035
 20
20.1456
 30
0.0
 11
100.263
 21
20.3536
 31
0.0
  0
LINE
  8
0
 62
     0
 10
100.263
 20
20.3536
 30
0.0
 11
96.9504
 21
7.98985
 31
0.0
  0
LINE
  8
0
 62
     0
 10
96.9504
 20
7.98985
 30
0.0
 11
97.7223
 21
7.78316
 31
0.0
  0
LINE
  8
0
 62
     0
 10
97.7223
 20
7.78316
 30
0.0
 11
97.5678
 21
7.20302
 31
0.0
  0
LINE
  8
0
 62
     0
 10
97.5678
 20
7.20302
 30
0.0
 11
111.09
 21
3.58013
 31
0.0
  0
LINE
  8
0
 62
     0
 10
111.09
 20
3.58013
 30
0.0
 11
111.245
 21
4.15893
 31
0.0
  0
LINE
  8
0
 62
     0
 10
111.245
 20
4.15893
 30
0.0
 11
112.018
 21
3.9522
 31
0.0
  0
LINE
  8
0
 62
     0
 10
112.018
 20
3.9522
 30
0.0
 11
115.332
 21
16.316
 31
0.0
  0
LINE
  8
0
 62
     0
 10
115.332
 20
16.316
 30
0.0
 11
114.559
 21
16.5227
 31
0.0
  0
LINE
  8
0
 62
     0
 10
114.559
 20
16.5227
 30
0.0
 11
114.715
 21
17.1028
 31
0.0
  0
LINE
  8
0
 62
     0
 10
114.715
 20
17.1028
 30
0.0
 11
101.192
 21
20.7257
 31
0.0
  0
LINE
  8
0
 62
     0
 10
101.192
 20
20.7257
 30
0.0
 11
101.035
 21
20.1456
 31
0.0
  0
LINE
  8
0
 62
     0
 10
163.711
 20
27.5594
 30
0.0
 11
163.865
 21
26.9792
 31
0.0
  0
LINE
  8
0
 62
     0
 10
163.865
 20
26.9792
 30
0.0
 11
163.094
 21
26.7725
 31
0.0
  0
LINE
  8
0
 62
     0
 10
163.094
 20
26.7725
 30
0.0
 11
166.406
 21
14.4088
 31
0.0
  0
LINE
  8
0
 62
     0
 10
166.406
 20
14.4088
 30
0.0
 11
167.178
 21
14.6155
 31
0.0
  0
LINE
  8
0
 62
     0
 10
167.178
 20
14.6155
 30
0.0
 11
167.334
 21
14.0353
 31
0.0
  0
LINE
  8
0
 62
     0
 10
167.334
 20
14.0353
 30
0.0
 11
180.858
 21
17.6596
 31
0.0
  0
LINE
  8
0
 62
     0
 10
180.858
 20
17.6596
 30
0.0
 11
180.702
 21
18.2383
 31
0.0
  0
LINE
  8
0
 62
     0
 10
180.702
 20
18.2383
 30
0.0
 11
181.474
 21
18.4464
 31
0.0
  0
LINE
  8
0
 62
     0
 10
181.474
 20
18.4464
 30
0.0
 11
178.161
 21
30.8102
 31
0.0
  0
LINE
  8
0
 62
     0
 10
178.161
 20
30.8102
 30
0.0
 11
177.388
 21
30.6021
 31
0.0
  0
LINE
  8
0
 62
     0
 10
177.388
 20
30.6021
 30
0.0
 11
177.234
 21
31.1822
 31
0.0
  0
LINE
  8
0
 62
     0
 10
177.234
 20
31.1822
 30
0.0
 11
163.711
 21
27.5594
 31
0.0
  0
LINE
  8
0
 62
     0
 10
79.2674
 20
30.9094
 30
0.0
 11
78.4945
 21
31.1161
 31
0.0
  0
LINE
  8
0
 62
     0
 10
78.4945
 20
31.1161
 30
0.0
 11
75.1815
 21
18.7524
 31
0.0
  0
LINE
  8
0
 62
     0
 10
75.1815
 20
18.7524
 30
0.0
 11
75.9548
 21
18.5456
 31
0.0
  0
LINE
  8
0
 62
     0
 10
75.9548
 20
18.5456
 30
0.0
 11
75.7989
 21
17.9655
 31
0.0
  0
LINE
  8
0
 62
     0
 10
75.7989
 20
17.9655
 30
0.0
 11
89.323
 21
14.3426
 31
0.0
  0
LINE
  8
0
 62
     0
 10
89.323
 20
14.3426
 30
0.0
 11
89.4775
 21
14.9214
 31
0.0
  0
LINE
  8
0
 62
     0
 10
89.4775
 20
14.9214
 30
0.0
 11
90.2504
 21
14.7147
 31
0.0
  0
LINE
  8
0
 62
     0
 10
90.2504
 20
14.7147
 30
0.0
 11
93.5634
 21
27.0784
 31
0.0
  0
LINE
  8
0
 62
     0
 10
93.5634
 20
27.0784
 30
0.0
 11
92.7901
 21
27.2852
 31
0.0
  0
LINE
  8
0
 62
     0
 10
92.7901
 20
27.2852
 30
0.0
 11
92.946
 21
27.8653
 31
0.0
  0
LINE
  8
0
 62
     0
 10
92.946
 20
27.8653
 30
0.0
 11
79.4219
 21
31.4882
 31
0.0
  0
LINE
  8
0
 62
     0
 10
79.4219
 20
31.4882
 30
0.0
 11
79.2674
 21
30.9094
 31
0.0
  0
LINE
  8
0
 62
     0
 10
182.112
 20
32.49
 30
0.0
 11
182.266
 21
31.9098
 31
0.0
  0
LINE
  8
0
 62
     0
 10
182.266
 20
31.9098
 30
0.0
 11
181.495
 21
31.7032
 31
0.0
  0
LINE
  8
0
 62
     0
 10
181.495
 20
31.7032
 30
0.0
 11
184.806
 21
19.3394
 31
0.0
  0
LINE
  8
0
 62
     0
 10
184.806
 20
19.3394
 30
0.0
 11
185.579
 21
19.5461
 31
0.0
  0
LINE
  8
0
 62
     0
 10
185.579
 20
19.5461
 30
0.0
 11
185.736
 21
18.9673
 31
0.0
  0
LINE
  8
0
 62
     0
 10
185.736
 20
18.9673
 30
0.0
 11
199.257
 21
22.5902
 31
0.0
  0
LINE
  8
0
 62
     0
 10
199.257
 20
22.5902
 30
0.0
 11
199.103
 21
23.1703
 31
0.0
  0
LINE
  8
0
 62
     0
 10
199.103
 20
23.1703
 30
0.0
 11
199.876
 21
23.377
 31
0.0
  0
LINE
  8
0
 62
     0
 10
199.876
 20
23.377
 30
0.0
 11
196.562
 21
35.741
 31
0.0
  0
LINE
  8
0
 62
     0
 10
196.562
 20
35.741
 30
0.0
 11
195.789
 21
35.5342
 31
0.0
  0
LINE
  8
0
 62
     0
 10
195.789
 20
35.5342
 30
0.0
 11
195.635
 21
36.1128
 31
0.0
  0
LINE
  8
0
 62
     0
 10
195.635
 20
36.1128
 30
0.0
 11
182.112
 21
32.49
 31
0.0
  0
LINE
  8
0
 62
     0
 10
60.8665
 20
35.8401
 30
0.0
 11
60.0922
 21
36.0468
 31
0.0
  0
LINE
  8
0
 62
     0
 10
60.0922
 20
36.0468
 30
0.0
 11
56.7806
 21
23.6843
 31
0.0
  0
LINE
  8
0
 62
     0
 10
56.7806
 20
23.6843
 30
0.0
 11
57.5539
 21
23.4763
 31
0.0
  0
LINE
  8
0
 62
     0
 10
57.5539
 20
23.4763
 30
0.0
 11
57.398
 21
22.8961
 31
0.0
  0
LINE
  8
0
 62
     0
 10
57.398
 20
22.8961
 30
0.0
 11
70.9221
 21
19.2732
 31
0.0
  0
LINE
  8
0
 62
     0
 10
70.9221
 20
19.2732
 30
0.0
 11
71.0766
 21
19.8534
 31
0.0
  0
LINE
  8
0
 62
     0
 10
71.0766
 20
19.8534
 30
0.0
 11
71.8495
 21
19.6453
 31
0.0
  0
LINE
  8
0
 62
     0
 10
71.8495
 20
19.6453
 30
0.0
 11
75.1625
 21
32.0091
 31
0.0
  0
LINE
  8
0
 62
     0
 10
75.1625
 20
32.0091
 30
0.0
 11
74.3892
 21
32.2171
 31
0.0
  0
LINE
  8
0
 62
     0
 10
74.3892
 20
32.2171
 30
0.0
 11
74.5451
 21
32.7959
 31
0.0
  0
LINE
  8
0
 62
     0
 10
74.5451
 20
32.7959
 30
0.0
 11
61.021
 21
36.4201
 31
0.0
  0
LINE
  8
0
 62
     0
 10
61.021
 20
36.4201
 30
0.0
 11
60.8665
 21
35.8401
 31
0.0
  0
LINE
  8
0
 62
     0
 10
200.513
 20
37.4191
 30
0.0
 11
200.667
 21
36.8406
 31
0.0
  0
LINE
  8
0
 62
     0
 10
200.667
 20
36.8406
 30
0.0
 11
199.896
 21
36.6339
 31
0.0
  0
LINE
  8
0
 62
     0
 10
199.896
 20
36.6339
 30
0.0
 11
203.207
 21
24.27
 31
0.0
  0
LINE
  8
0
 62
     0
 10
203.207
 20
24.27
 30
0.0
 11
203.98
 21
24.4767
 31
0.0
  0
LINE
  8
0
 62
     0
 10
203.98
 20
24.4767
 30
0.0
 11
204.136
 21
23.8966
 31
0.0
  0
LINE
  8
0
 62
     0
 10
204.136
 20
23.8966
 30
0.0
 11
217.658
 21
27.5208
 31
0.0
  0
LINE
  8
0
 62
     0
 10
217.658
 20
27.5208
 30
0.0
 11
217.504
 21
28.0996
 31
0.0
  0
LINE
  8
0
 62
     0
 10
217.504
 20
28.0996
 30
0.0
 11
218.277
 21
28.3063
 31
0.0
  0
LINE
  8
0
 62
     0
 10
218.277
 20
28.3063
 30
0.0
 11
214.963
 21
40.6714
 31
0.0
  0
LINE
  8
0
 62
     0
 10
214.963
 20
40.6714
 30
0.0
 11
214.19
 21
40.4633
 31
0.0
  0
LINE
  8
0
 62
     0
 10
214.19
 20
40.4633
 30
0.0
 11
214.036
 21
41.0436
 31
0.0
  0
LINE
  8
0
 62
     0
 10
214.036
 20
41.0436
 30
0.0
 11
200.513
 21
37.4191
 31
0.0
  0
LINE
  8
0
 62
     0
 10
42.4656
 20
40.7705
 30
0.0
 11
41.6927
 21
40.9773
 31
0.0
  0
LINE
  8
0
 62
     0
 10
41.6927
 20
40.9773
 30
0.0
 11
38.3798
 21
28.6136
 31
0.0
  0
LINE
  8
0
 62
     0
 10
38.3798
 20
28.6136
 30
0.0
 11
39.1527
 21
28.4069
 31
0.0
  0
LINE
  8
0
 62
     0
 10
39.1527
 20
28.4069
 30
0.0
 11
38.9971
 21
27.8267
 31
0.0
  0
LINE
  8
0
 62
     0
 10
38.9971
 20
27.8267
 30
0.0
 11
52.5212
 21
24.2039
 31
0.0
  0
LINE
  8
0
 62
     0
 10
52.5212
 20
24.2039
 30
0.0
 11
52.6754
 21
24.7826
 31
0.0
  0
LINE
  8
0
 62
     0
 10
52.6754
 20
24.7826
 30
0.0
 11
53.4487
 21
24.5759
 31
0.0
  0
LINE
  8
0
 62
     0
 10
53.4487
 20
24.5759
 30
0.0
 11
56.7612
 21
36.9397
 31
0.0
  0
LINE
  8
0
 62
     0
 10
56.7612
 20
36.9397
 30
0.0
 11
55.9883
 21
37.1464
 31
0.0
  0
LINE
  8
0
 62
     0
 10
55.9883
 20
37.1464
 30
0.0
 11
56.1439
 21
37.7264
 31
0.0
  0
LINE
  8
0
 62
     0
 10
56.1439
 20
37.7264
 30
0.0
 11
42.6201
 21
41.3494
 31
0.0
  0
LINE
  8
0
 62
     0
 10
42.6201
 20
41.3494
 30
0.0
 11
42.4656
 21
40.7705
 31
0.0
  0
LINE
  8
0
 62
     0
 10
218.914
 20
42.3513
 30
0.0
 11
219.068
 21
41.771
 31
0.0
  0
LINE
  8
0
 62
     0
 10
219.068
 20
41.771
 30
0.0
 11
218.295
 21
41.5643
 31
0.0
  0
LINE
  8
0
 62
     0
 10
218.295
 20
41.5643
 30
0.0
 11
221.608
 21
29.1992
 31
0.0
  0
LINE
  8
0
 62
     0
 10
221.608
 20
29.1992
 30
0.0
 11
222.381
 21
29.4073
 31
0.0
  0
LINE
  8
0
 62
     0
 10
222.381
 20
29.4073
 30
0.0
 11
222.537
 21
28.8272
 31
0.0
  0
LINE
  8
0
 62
     0
 10
222.537
 20
28.8272
 30
0.0
 11
236.059
 21
32.4514
 31
0.0
  0
LINE
  8
0
 62
     0
 10
236.059
 20
32.4514
 30
0.0
 11
235.905
 21
33.0302
 31
0.0
  0
LINE
  8
0
 62
     0
 10
235.905
 20
33.0302
 30
0.0
 11
236.678
 21
33.2383
 31
0.0
  0
LINE
  8
0
 62
     0
 10
236.678
 20
33.2383
 30
0.0
 11
233.364
 21
45.6022
 31
0.0
  0
LINE
  8
0
 62
     0
 10
233.364
 20
45.6022
 30
0.0
 11
232.591
 21
45.3954
 31
0.0
  0
LINE
  8
0
 62
     0
 10
232.591
 20
45.3954
 30
0.0
 11
232.436
 21
45.974
 31
0.0
  0
LINE
  8
0
 62
     0
 10
232.436
 20
45.974
 30
0.0
 11
218.914
 21
42.3513
 31
0.0
  0
LINE
  8
0
 62
     0
 10
24.0647
 20
45.7013
 30
0.0
 11
23.2916
 21
45.908
 31
0.0
  0
LINE
  8
0
 62
     0
 10
23.2916
 20
45.908
 30
0.0
 11
19.9802
 21
33.5442
 31
0.0
  0
LINE
  8
0
 62
     0
 10
19.9802
 20
33.5442
 30
0.0
 11
20.7519
 21
33.3361
 31
0.0
  0
LINE
  8
0
 62
     0
 10
20.7519
 20
33.3361
 30
0.0
 11
20.5962
 21
32.7574
 31
0.0
  0
LINE
  8
0
 62
     0
 10
20.5962
 20
32.7574
 30
0.0
 11
34.1188
 21
29.1331
 31
0.0
  0
LINE
  8
0
 62
     0
 10
34.1188
 20
29.1331
 30
0.0
 11
34.2746
 21
29.7133
 31
0.0
  0
LINE
  8
0
 62
     0
 10
34.2746
 20
29.7133
 30
0.0
 11
35.0477
 21
29.5065
 31
0.0
  0
LINE
  8
0
 62
     0
 10
35.0477
 20
29.5065
 30
0.0
 11
38.3603
 21
41.8705
 31
0.0
  0
LINE
  8
0
 62
     0
 10
38.3603
 20
41.8705
 30
0.0
 11
37.5874
 21
42.0783
 31
0.0
  0
LINE
  8
0
 62
     0
 10
37.5874
 20
42.0783
 30
0.0
 11
37.743
 21
42.6572
 31
0.0
  0
LINE
  8
0
 62
     0
 10
37.743
 20
42.6572
 30
0.0
 11
24.219
 21
46.2813
 31
0.0
  0
LINE
  8
0
 62
     0
 10
24.219
 20
46.2813
 30
0.0
 11
24.0647
 21
45.7013
 31
0.0
  0
LINE
  8
0
 62
     0
 10
158.78
 20
45.9602
 30
0.0
 11
158.936
 21
45.3803
 31
0.0
  0
LINE
  8
0
 62
     0
 10
158.936
 20
45.3803
 30
0.0
 11
158.163
 21
45.1735
 31
0.0
  0
LINE
  8
0
 62
     0
 10
158.163
 20
45.1735
 30
0.0
 11
161.476
 21
32.8097
 31
0.0
  0
LINE
  8
0
 62
     0
 10
161.476
 20
32.8097
 30
0.0
 11
162.249
 21
33.0164
 31
0.0
  0
LINE
  8
0
 62
     0
 10
162.249
 20
33.0164
 30
0.0
 11
162.403
 21
32.4363
 31
0.0
  0
LINE
  8
0
 62
     0
 10
162.403
 20
32.4363
 30
0.0
 11
175.926
 21
36.0606
 31
0.0
  0
LINE
  8
0
 62
     0
 10
175.926
 20
36.0606
 30
0.0
 11
175.772
 21
36.6391
 31
0.0
  0
LINE
  8
0
 62
     0
 10
175.772
 20
36.6391
 30
0.0
 11
176.544
 21
36.8473
 31
0.0
  0
LINE
  8
0
 62
     0
 10
176.544
 20
36.8473
 30
0.0
 11
173.232
 21
49.2111
 31
0.0
  0
LINE
  8
0
 62
     0
 10
173.232
 20
49.2111
 30
0.0
 11
172.459
 21
49.0044
 31
0.0
  0
LINE
  8
0
 62
     0
 10
172.459
 20
49.0044
 30
0.0
 11
172.303
 21
49.5833
 31
0.0
  0
LINE
  8
0
 62
     0
 10
172.303
 20
49.5833
 30
0.0
 11
158.78
 21
45.9602
 31
0.0
  0
LINE
  8
0
 62
     0
 10
84.1982
 20
49.3102
 30
0.0
 11
83.4249
 21
49.5169
 31
0.0
  0
LINE
  8
0
 62
     0
 10
83.4249
 20
49.5169
 30
0.0
 11
80.1123
 21
37.1531
 31
0.0
  0
LINE
  8
0
 62
     0
 10
80.1123
 20
37.1531
 30
0.0
 11
80.8838
 21
36.9464
 31
0.0
  0
LINE
  8
0
 62
     0
 10
80.8838
 20
36.9464
 30
0.0
 11
80.7297
 21
36.3664
 31
0.0
  0
LINE
  8
0
 62
     0
 10
80.7297
 20
36.3664
 30
0.0
 11
94.2523
 21
32.7436
 31
0.0
  0
LINE
  8
0
 62
     0
 10
94.2523
 20
32.7436
 30
0.0
 11
94.4079
 21
33.3223
 31
0.0
  0
LINE
  8
0
 62
     0
 10
94.4079
 20
33.3223
 30
0.0
 11
95.1812
 21
33.1156
 31
0.0
  0
LINE
  8
0
 62
     0
 10
95.1812
 20
33.1156
 30
0.0
 11
98.4938
 21
45.4794
 31
0.0
  0
LINE
  8
0
 62
     0
 10
98.4938
 20
45.4794
 30
0.0
 11
97.7209
 21
45.6861
 31
0.0
  0
LINE
  8
0
 62
     0
 10
97.7209
 20
45.6861
 30
0.0
 11
97.8764
 21
46.2661
 31
0.0
  0
LINE
  8
0
 62
     0
 10
97.8764
 20
46.2661
 30
0.0
 11
84.3538
 21
49.8891
 31
0.0
  0
LINE
  8
0
 62
     0
 10
84.3538
 20
49.8891
 30
0.0
 11
84.1982
 21
49.3102
 31
0.0
  0
LINE
  8
0
 62
     0
 10
237.315
 20
47.2803
 30
0.0
 11
237.469
 21
46.7018
 31
0.0
  0
LINE
  8
0
 62
     0
 10
237.469
 20
46.7018
 30
0.0
 11
236.696
 21
46.4951
 31
0.0
  0
LINE
  8
0
 62
     0
 10
236.696
 20
46.4951
 30
0.0
 11
240.01
 21
34.1313
 31
0.0
  0
LINE
  8
0
 62
     0
 10
240.01
 20
34.1313
 30
0.0
 11
240.782
 21
34.3379
 31
0.0
  0
LINE
  8
0
 62
     0
 10
240.782
 20
34.3379
 30
0.0
 11
240.938
 21
33.7578
 31
0.0
  0
LINE
  8
0
 62
     0
 10
240.938
 20
33.7578
 30
0.0
 11
254.46
 21
37.3821
 31
0.0
  0
LINE
  8
0
 62
     0
 10
254.46
 20
37.3821
 30
0.0
 11
254.306
 21
37.9607
 31
0.0
  0
LINE
  8
0
 62
     0
 10
254.306
 20
37.9607
 30
0.0
 11
255.078
 21
38.1674
 31
0.0
  0
LINE
  8
0
 62
     0
 10
255.078
 20
38.1674
 30
0.0
 11
251.765
 21
50.5312
 31
0.0
  0
LINE
  8
0
 62
     0
 10
251.765
 20
50.5312
 30
0.0
 11
250.993
 21
50.3245
 31
0.0
  0
LINE
  8
0
 62
     0
 10
250.993
 20
50.3245
 30
0.0
 11
250.837
 21
50.9048
 31
0.0
  0
LINE
  8
0
 62
     0
 10
250.837
 20
50.9048
 30
0.0
 11
237.315
 21
47.2803
 31
0.0
  0
LINE
  8
0
 62
     0
 10
5.66374
 20
50.6317
 30
0.0
 11
4.89204
 21
50.8385
 31
0.0
  0
LINE
  8
0
 62
     0
 10
4.89204
 20
50.8385
 30
0.0
 11
1.57786
 21
38.475
 31
0.0
  0
LINE
  8
0
 62
     0
 10
1.57786
 20
38.475
 30
0.0
 11
2.35093
 21
38.2683
 31
0.0
  0
LINE
  8
0
 62
     0
 10
2.35093
 20
38.2683
 30
0.0
 11
2.19522
 21
37.688
 31
0.0
  0
LINE
  8
0
 62
     0
 10
2.19522
 20
37.688
 30
0.0
 11
15.7179
 21
34.0651
 31
0.0
  0
LINE
  8
0
 62
     0
 10
15.7179
 20
34.0651
 30
0.0
 11
15.8736
 21
34.6439
 31
0.0
  0
LINE
  8
0
 62
     0
 10
15.8736
 20
34.6439
 30
0.0
 11
16.6467
 21
34.4372
 31
0.0
  0
LINE
  8
0
 62
     0
 10
16.6467
 20
34.4372
 30
0.0
 11
19.9595
 21
46.8009
 31
0.0
  0
LINE
  8
0
 62
     0
 10
19.9595
 20
46.8009
 30
0.0
 11
19.1864
 21
47.0076
 31
0.0
  0
LINE
  8
0
 62
     0
 10
19.1864
 20
47.0076
 30
0.0
 11
19.3421
 21
47.588
 31
0.0
  0
LINE
  8
0
 62
     0
 10
19.3421
 20
47.588
 30
0.0
 11
5.81946
 21
51.2106
 31
0.0
  0
LINE
  8
0
 62
     0
 10
5.81946
 20
51.2106
 30
0.0
 11
5.66374
 21
50.6317
 31
0.0
  0
LINE
  8
0
 62
     0
 10
177.181
 20
50.891
 30
0.0
 11
177.337
 21
50.3107
 31
0.0
  0
LINE
  8
0
 62
     0
 10
177.337
 20
50.3107
 30
0.0
 11
176.564
 21
50.104
 31
0.0
  0
LINE
  8
0
 62
     0
 10
176.564
 20
50.104
 30
0.0
 11
179.877
 21
37.7402
 31
0.0
  0
LINE
  8
0
 62
     0
 10
179.877
 20
37.7402
 30
0.0
 11
180.65
 21
37.9469
 31
0.0
  0
LINE
  8
0
 62
     0
 10
180.65
 20
37.9469
 30
0.0
 11
180.804
 21
37.3683
 31
0.0
  0
LINE
  8
0
 62
     0
 10
180.804
 20
37.3683
 30
0.0
 11
194.327
 21
40.991
 31
0.0
  0
LINE
  8
0
 62
     0
 10
194.327
 20
40.991
 30
0.0
 11
194.172
 21
41.5713
 31
0.0
  0
LINE
  8
0
 62
     0
 10
194.172
 20
41.5713
 30
0.0
 11
194.944
 21
41.7781
 31
0.0
  0
LINE
  8
0
 62
     0
 10
194.944
 20
41.7781
 30
0.0
 11
191.633
 21
54.1419
 31
0.0
  0
LINE
  8
0
 62
     0
 10
191.633
 20
54.1419
 30
0.0
 11
190.86
 21
53.9351
 31
0.0
  0
LINE
  8
0
 62
     0
 10
190.86
 20
53.9351
 30
0.0
 11
190.704
 21
54.5137
 31
0.0
  0
LINE
  8
0
 62
     0
 10
190.704
 20
54.5137
 30
0.0
 11
177.181
 21
50.891
 31
0.0
  0
LINE
  8
0
 62
     0
 10
65.7959
 20
54.241
 30
0.0
 11
65.024
 21
54.4477
 31
0.0
  0
LINE
  8
0
 62
     0
 10
65.024
 20
54.4477
 30
0.0
 11
61.7114
 21
42.0839
 31
0.0
  0
LINE
  8
0
 62
     0
 10
61.7114
 20
42.0839
 30
0.0
 11
62.4844
 21
41.8772
 31
0.0
  0
LINE
  8
0
 62
     0
 10
62.4844
 20
41.8772
 30
0.0
 11
62.3288
 21
41.2972
 31
0.0
  0
LINE
  8
0
 62
     0
 10
62.3288
 20
41.2972
 30
0.0
 11
75.8515
 21
37.6742
 31
0.0
  0
LINE
  8
0
 62
     0
 10
75.8515
 20
37.6742
 30
0.0
 11
76.007
 21
38.2545
 31
0.0
  0
LINE
  8
0
 62
     0
 10
76.007
 20
38.2545
 30
0.0
 11
76.7803
 21
38.0464
 31
0.0
  0
LINE
  8
0
 62
     0
 10
76.7803
 20
38.0464
 30
0.0
 11
80.0929
 21
50.4112
 31
0.0
  0
LINE
  8
0
 62
     0
 10
80.0929
 20
50.4112
 30
0.0
 11
79.32
 21
50.618
 31
0.0
  0
LINE
  8
0
 62
     0
 10
79.32
 20
50.618
 30
0.0
 11
79.4755
 21
51.1969
 31
0.0
  0
LINE
  8
0
 62
     0
 10
79.4755
 20
51.1969
 30
0.0
 11
65.9529
 21
54.821
 31
0.0
  0
LINE
  8
0
 62
     0
 10
65.9529
 20
54.821
 30
0.0
 11
65.7959
 21
54.241
 31
0.0
  0
LINE
  8
0
 62
     0
 10
195.581
 20
55.82
 30
0.0
 11
195.738
 21
55.2415
 31
0.0
  0
LINE
  8
0
 62
     0
 10
195.738
 20
55.2415
 30
0.0
 11
194.965
 21
55.0347
 31
0.0
  0
LINE
  8
0
 62
     0
 10
194.965
 20
55.0347
 30
0.0
 11
198.278
 21
42.6709
 31
0.0
  0
LINE
  8
0
 62
     0
 10
198.278
 20
42.6709
 30
0.0
 11
199.051
 21
42.8777
 31
0.0
  0
LINE
  8
0
 62
     0
 10
199.051
 20
42.8777
 30
0.0
 11
199.205
 21
42.2974
 31
0.0
  0
LINE
  8
0
 62
     0
 10
199.205
 20
42.2974
 30
0.0
 11
212.729
 21
45.9218
 31
0.0
  0
LINE
  8
0
 62
     0
 10
212.729
 20
45.9218
 30
0.0
 11
212.573
 21
46.5007
 31
0.0
  0
LINE
  8
0
 62
     0
 10
212.573
 20
46.5007
 30
0.0
 11
213.345
 21
46.7071
 31
0.0
  0
LINE
  8
0
 62
     0
 10
213.345
 20
46.7071
 30
0.0
 11
210.032
 21
59.0723
 31
0.0
  0
LINE
  8
0
 62
     0
 10
210.032
 20
59.0723
 30
0.0
 11
209.261
 21
58.8641
 31
0.0
  0
LINE
  8
0
 62
     0
 10
209.261
 20
58.8641
 30
0.0
 11
209.105
 21
59.4445
 31
0.0
  0
LINE
  8
0
 62
     0
 10
209.105
 20
59.4445
 30
0.0
 11
195.581
 21
55.82
 31
0.0
  0
LINE
  8
0
 62
     0
 10
47.3964
 20
59.1714
 30
0.0
 11
46.6231
 21
59.3781
 31
0.0
  0
LINE
  8
0
 62
     0
 10
46.6231
 20
59.3781
 30
0.0
 11
43.3105
 21
47.0147
 31
0.0
  0
LINE
  8
0
 62
     0
 10
43.3105
 20
47.0147
 30
0.0
 11
44.0835
 21
46.808
 31
0.0
  0
LINE
  8
0
 62
     0
 10
44.0835
 20
46.808
 30
0.0
 11
43.9279
 21
46.2276
 31
0.0
  0
LINE
  8
0
 62
     0
 10
43.9279
 20
46.2276
 30
0.0
 11
57.4506
 21
42.605
 31
0.0
  0
LINE
  8
0
 62
     0
 10
57.4506
 20
42.605
 30
0.0
 11
57.6061
 21
43.1835
 31
0.0
  0
LINE
  8
0
 62
     0
 10
57.6061
 20
43.1835
 30
0.0
 11
58.3777
 21
42.9768
 31
0.0
  0
LINE
  8
0
 62
     0
 10
58.3777
 20
42.9768
 30
0.0
 11
61.692
 21
55.3406
 31
0.0
  0
LINE
  8
0
 62
     0
 10
61.692
 20
55.3406
 30
0.0
 11
60.9191
 21
55.5473
 31
0.0
  0
LINE
  8
0
 62
     0
 10
60.9191
 20
55.5473
 30
0.0
 11
61.0747
 21
56.1277
 31
0.0
  0
LINE
  8
0
 62
     0
 10
61.0747
 20
56.1277
 30
0.0
 11
47.552
 21
59.7503
 31
0.0
  0
LINE
  8
0
 62
     0
 10
47.552
 20
59.7503
 30
0.0
 11
47.3964
 21
59.1714
 31
0.0
  0
LINE
  8
0
 62
     0
 10
213.983
 20
60.7522
 30
0.0
 11
214.139
 21
60.1719
 31
0.0
  0
LINE
  8
0
 62
     0
 10
214.139
 20
60.1719
 30
0.0
 11
213.366
 21
59.9652
 31
0.0
  0
LINE
  8
0
 62
     0
 10
213.366
 20
59.9652
 30
0.0
 11
216.679
 21
47.6003
 31
0.0
  0
LINE
  8
0
 62
     0
 10
216.679
 20
47.6003
 30
0.0
 11
217.452
 21
47.8084
 31
0.0
  0
LINE
  8
0
 62
     0
 10
217.452
 20
47.8084
 30
0.0
 11
217.606
 21
47.2281
 31
0.0
  0
LINE
  8
0
 62
     0
 10
217.606
 20
47.2281
 30
0.0
 11
231.13
 21
50.8522
 31
0.0
  0
LINE
  8
0
 62
     0
 10
231.13
 20
50.8522
 30
0.0
 11
230.973
 21
51.4311
 31
0.0
  0
LINE
  8
0
 62
     0
 10
230.973
 20
51.4311
 30
0.0
 11
231.746
 21
51.6393
 31
0.0
  0
LINE
  8
0
 62
     0
 10
231.746
 20
51.6393
 30
0.0
 11
228.433
 21
64.0031
 31
0.0
  0
LINE
  8
0
 62
     0
 10
228.433
 20
64.0031
 30
0.0
 11
227.662
 21
63.7963
 31
0.0
  0
LINE
  8
0
 62
     0
 10
227.662
 20
63.7963
 30
0.0
 11
227.506
 21
64.3749
 31
0.0
  0
LINE
  8
0
 62
     0
 10
227.506
 20
64.3749
 30
0.0
 11
213.983
 21
60.7522
 31
0.0
  0
LINE
  8
0
 62
     0
 10
28.9953
 20
64.1022
 30
0.0
 11
28.2222
 21
64.3089
 31
0.0
  0
LINE
  8
0
 62
     0
 10
28.2222
 20
64.3089
 30
0.0
 11
24.9094
 21
51.9451
 31
0.0
  0
LINE
  8
0
 62
     0
 10
24.9094
 20
51.9451
 30
0.0
 11
25.6825
 21
51.737
 31
0.0
  0
LINE
  8
0
 62
     0
 10
25.6825
 20
51.737
 30
0.0
 11
25.5282
 21
51.1584
 31
0.0
  0
LINE
  8
0
 62
     0
 10
25.5282
 20
51.1584
 30
0.0
 11
39.0493
 21
47.534
 31
0.0
  0
LINE
  8
0
 62
     0
 10
39.0493
 20
47.534
 30
0.0
 11
39.2053
 21
48.1143
 31
0.0
  0
LINE
  8
0
 62
     0
 10
39.2053
 20
48.1143
 30
0.0
 11
39.9782
 21
47.9076
 31
0.0
  0
LINE
  8
0
 62
     0
 10
39.9782
 20
47.9076
 30
0.0
 11
43.2911
 21
60.2714
 31
0.0
  0
LINE
  8
0
 62
     0
 10
43.2911
 20
60.2714
 30
0.0
 11
42.5178
 21
60.4795
 31
0.0
  0
LINE
  8
0
 62
     0
 10
42.5178
 20
60.4795
 30
0.0
 11
42.6738
 21
61.0581
 31
0.0
  0
LINE
  8
0
 62
     0
 10
42.6738
 20
61.0581
 30
0.0
 11
29.151
 21
64.6825
 31
0.0
  0
LINE
  8
0
 62
     0
 10
29.151
 20
64.6825
 30
0.0
 11
28.9953
 21
64.1022
 31
0.0
  0
LINE
  8
0
 62
     0
 10
153.85
 20
64.3611
 30
0.0
 11
154.004
 21
63.7812
 31
0.0
  0
LINE
  8
0
 62
     0
 10
154.004
 20
63.7812
 30
0.0
 11
153.232
 21
63.5744
 31
0.0
  0
LINE
  8
0
 62
     0
 10
153.232
 20
63.5744
 30
0.0
 11
156.545
 21
51.2106
 31
0.0
  0
LINE
  8
0
 62
     0
 10
156.545
 20
51.2106
 30
0.0
 11
157.317
 21
51.4174
 31
0.0
  0
LINE
  8
0
 62
     0
 10
157.317
 20
51.4174
 30
0.0
 11
157.474
 21
50.837
 31
0.0
  0
LINE
  8
0
 62
     0
 10
157.474
 20
50.837
 30
0.0
 11
170.997
 21
54.4615
 31
0.0
  0
LINE
  8
0
 62
     0
 10
170.997
 20
54.4615
 30
0.0
 11
170.841
 21
55.0404
 31
0.0
  0
LINE
  8
0
 62
     0
 10
170.841
 20
55.0404
 30
0.0
 11
171.614
 21
55.2482
 31
0.0
  0
LINE
  8
0
 62
     0
 10
171.614
 20
55.2482
 30
0.0
 11
168.3
 21
67.612
 31
0.0
  0
LINE
  8
0
 62
     0
 10
168.3
 20
67.612
 30
0.0
 11
167.528
 21
67.4053
 31
0.0
  0
LINE
  8
0
 62
     0
 10
167.528
 20
67.4053
 30
0.0
 11
167.372
 21
67.9842
 31
0.0
  0
LINE
  8
0
 62
     0
 10
167.372
 20
67.9842
 30
0.0
 11
153.85
 21
64.3611
 31
0.0
  0
LINE
  8
0
 62
     0
 10
89.1286
 20
67.7115
 30
0.0
 11
88.3557
 21
67.9192
 31
0.0
  0
LINE
  8
0
 62
     0
 10
88.3557
 20
67.9192
 30
0.0
 11
85.0427
 21
55.5544
 31
0.0
  0
LINE
  8
0
 62
     0
 10
85.0427
 20
55.5544
 30
0.0
 11
85.816
 21
55.3477
 31
0.0
  0
LINE
  8
0
 62
     0
 10
85.816
 20
55.3477
 30
0.0
 11
85.6601
 21
54.7673
 31
0.0
  0
LINE
  8
0
 62
     0
 10
85.6601
 20
54.7673
 30
0.0
 11
99.1828
 21
51.1447
 31
0.0
  0
LINE
  8
0
 62
     0
 10
99.1828
 20
51.1447
 30
0.0
 11
99.3387
 21
51.7232
 31
0.0
  0
LINE
  8
0
 62
     0
 10
99.3387
 20
51.7232
 30
0.0
 11
100.112
 21
51.5165
 31
0.0
  0
LINE
  8
0
 62
     0
 10
100.112
 20
51.5165
 30
0.0
 11
103.425
 21
63.8803
 31
0.0
  0
LINE
  8
0
 62
     0
 10
103.425
 20
63.8803
 30
0.0
 11
102.651
 21
64.0884
 31
0.0
  0
LINE
  8
0
 62
     0
 10
102.651
 20
64.0884
 30
0.0
 11
102.807
 21
64.6673
 31
0.0
  0
LINE
  8
0
 62
     0
 10
102.807
 20
64.6673
 30
0.0
 11
89.2831
 21
68.29
 31
0.0
  0
LINE
  8
0
 62
     0
 10
89.2831
 20
68.29
 30
0.0
 11
89.1286
 21
67.7115
 31
0.0
  0
LINE
  8
0
 62
     0
 10
232.384
 20
65.6816
 30
0.0
 11
232.54
 21
65.1027
 31
0.0
  0
LINE
  8
0
 62
     0
 10
232.54
 20
65.1027
 30
0.0
 11
231.767
 21
64.8959
 31
0.0
  0
LINE
  8
0
 62
     0
 10
231.767
 20
64.8959
 30
0.0
 11
235.079
 21
52.5321
 31
0.0
  0
LINE
  8
0
 62
     0
 10
235.079
 20
52.5321
 30
0.0
 11
235.851
 21
52.7389
 31
0.0
  0
LINE
  8
0
 62
     0
 10
235.851
 20
52.7389
 30
0.0
 11
236.007
 21
52.1589
 31
0.0
  0
LINE
  8
0
 62
     0
 10
236.007
 20
52.1589
 30
0.0
 11
249.531
 21
55.783
 31
0.0
  0
LINE
  8
0
 62
     0
 10
249.531
 20
55.783
 30
0.0
 11
249.374
 21
56.3619
 31
0.0
  0
LINE
  8
0
 62
     0
 10
249.374
 20
56.3619
 30
0.0
 11
250.147
 21
56.5686
 31
0.0
  0
LINE
  8
0
 62
     0
 10
250.147
 20
56.5686
 30
0.0
 11
246.834
 21
68.9321
 31
0.0
  0
LINE
  8
0
 62
     0
 10
246.834
 20
68.9321
 30
0.0
 11
246.061
 21
68.7257
 31
0.0
  0
LINE
  8
0
 62
     0
 10
246.061
 20
68.7257
 30
0.0
 11
245.907
 21
69.3057
 31
0.0
  0
LINE
  8
0
 62
     0
 10
245.907
 20
69.3057
 30
0.0
 11
232.384
 21
65.6816
 31
0.0
  0
LINE
  8
0
 62
     0
 10
10.5944
 20
69.033
 30
0.0
 11
9.82126
 21
69.2397
 31
0.0
  0
LINE
  8
0
 62
     0
 10
9.82126
 20
69.2397
 30
0.0
 11
6.50847
 21
56.8759
 31
0.0
  0
LINE
  8
0
 62
     0
 10
6.50847
 20
56.8759
 30
0.0
 11
7.28155
 21
56.6692
 31
0.0
  0
LINE
  8
0
 62
     0
 10
7.28155
 20
56.6692
 30
0.0
 11
7.12583
 21
56.0888
 31
0.0
  0
LINE
  8
0
 62
     0
 10
7.12583
 20
56.0888
 30
0.0
 11
20.6499
 21
52.4662
 31
0.0
  0
LINE
  8
0
 62
     0
 10
20.6499
 20
52.4662
 30
0.0
 11
20.8043
 21
53.0447
 31
0.0
  0
LINE
  8
0
 62
     0
 10
20.8043
 20
53.0447
 30
0.0
 11
21.5773
 21
52.838
 31
0.0
  0
LINE
  8
0
 62
     0
 10
21.5773
 20
52.838
 30
0.0
 11
24.8901
 21
65.2018
 31
0.0
  0
LINE
  8
0
 62
     0
 10
24.8901
 20
65.2018
 30
0.0
 11
24.1171
 21
65.4085
 31
0.0
  0
LINE
  8
0
 62
     0
 10
24.1171
 20
65.4085
 30
0.0
 11
24.2728
 21
65.9888
 31
0.0
  0
LINE
  8
0
 62
     0
 10
24.2728
 20
65.9888
 30
0.0
 11
10.7501
 21
69.6115
 31
0.0
  0
LINE
  8
0
 62
     0
 10
10.7501
 20
69.6115
 30
0.0
 11
10.5944
 21
69.033
 31
0.0
  0
LINE
  8
0
 62
     0
 10
172.251
 20
69.2919
 30
0.0
 11
172.405
 21
68.7116
 31
0.0
  0
LINE
  8
0
 62
     0
 10
172.405
 20
68.7116
 30
0.0
 11
171.633
 21
68.5052
 31
0.0
  0
LINE
  8
0
 62
     0
 10
171.633
 20
68.5052
 30
0.0
 11
174.946
 21
56.1414
 31
0.0
  0
LINE
  8
0
 62
     0
 10
174.946
 20
56.1414
 30
0.0
 11
175.719
 21
56.3481
 31
0.0
  0
LINE
  8
0
 62
     0
 10
175.719
 20
56.3481
 30
0.0
 11
175.875
 21
55.7692
 31
0.0
  0
LINE
  8
0
 62
     0
 10
175.875
 20
55.7692
 30
0.0
 11
189.396
 21
59.3919
 31
0.0
  0
LINE
  8
0
 62
     0
 10
189.396
 20
59.3919
 30
0.0
 11
189.242
 21
59.9722
 31
0.0
  0
LINE
  8
0
 62
     0
 10
189.242
 20
59.9722
 30
0.0
 11
190.015
 21
60.1789
 31
0.0
  0
LINE
  8
0
 62
     0
 10
190.015
 20
60.1789
 30
0.0
 11
186.702
 21
72.5428
 31
0.0
  0
LINE
  8
0
 62
     0
 10
186.702
 20
72.5428
 30
0.0
 11
185.929
 21
72.336
 31
0.0
  0
LINE
  8
0
 62
     0
 10
185.929
 20
72.336
 30
0.0
 11
185.773
 21
72.9149
 31
0.0
  0
LINE
  8
0
 62
     0
 10
185.773
 20
72.9149
 30
0.0
 11
172.251
 21
69.2919
 31
0.0
  0
LINE
  8
0
 62
     0
 10
70.7277
 20
72.6419
 30
0.0
 11
69.9548
 21
72.8486
 31
0.0
  0
LINE
  8
0
 62
     0
 10
69.9548
 20
72.8486
 30
0.0
 11
66.6418
 21
60.4848
 31
0.0
  0
LINE
  8
0
 62
     0
 10
66.6418
 20
60.4848
 30
0.0
 11
67.4151
 21
60.2781
 31
0.0
  0
LINE
  8
0
 62
     0
 10
67.4151
 20
60.2781
 30
0.0
 11
67.2592
 21
59.6995
 31
0.0
  0
LINE
  8
0
 62
     0
 10
67.2592
 20
59.6995
 30
0.0
 11
80.7819
 21
56.0751
 31
0.0
  0
LINE
  8
0
 62
     0
 10
80.7819
 20
56.0751
 30
0.0
 11
80.9378
 21
56.6554
 31
0.0
  0
LINE
  8
0
 62
     0
 10
80.9378
 20
56.6554
 30
0.0
 11
81.7107
 21
56.4473
 31
0.0
  0
LINE
  8
0
 62
     0
 10
81.7107
 20
56.4473
 30
0.0
 11
85.0237
 21
68.8125
 31
0.0
  0
LINE
  8
0
 62
     0
 10
85.0237
 20
68.8125
 30
0.0
 11
84.2504
 21
69.0192
 31
0.0
  0
LINE
  8
0
 62
     0
 10
84.2504
 20
69.0192
 30
0.0
 11
84.4049
 21
69.5978
 31
0.0
  0
LINE
  8
0
 62
     0
 10
84.4049
 20
69.5978
 30
0.0
 11
70.8822
 21
73.2222
 31
0.0
  0
LINE
  8
0
 62
     0
 10
70.8822
 20
73.2222
 30
0.0
 11
70.7277
 21
72.6419
 31
0.0
  0
LINE
  8
0
 62
     0
 10
190.652
 20
74.2213
 30
0.0
 11
190.806
 21
73.6424
 31
0.0
  0
LINE
  8
0
 62
     0
 10
190.806
 20
73.6424
 30
0.0
 11
190.033
 21
73.4342
 31
0.0
  0
LINE
  8
0
 62
     0
 10
190.033
 20
73.4342
 30
0.0
 11
193.347
 21
61.0718
 31
0.0
  0
LINE
  8
0
 62
     0
 10
193.347
 20
61.0718
 30
0.0
 11
194.12
 21
61.2786
 31
0.0
  0
LINE
  8
0
 62
     0
 10
194.12
 20
61.2786
 30
0.0
 11
194.274
 21
60.6986
 31
0.0
  0
LINE
  8
0
 62
     0
 10
194.274
 20
60.6986
 30
0.0
 11
207.797
 21
64.3227
 31
0.0
  0
LINE
  8
0
 62
     0
 10
207.797
 20
64.3227
 30
0.0
 11
207.643
 21
64.9016
 31
0.0
  0
LINE
  8
0
 62
     0
 10
207.643
 20
64.9016
 30
0.0
 11
208.416
 21
65.1083
 31
0.0
  0
LINE
  8
0
 62
     0
 10
208.416
 20
65.1083
 30
0.0
 11
205.103
 21
77.4732
 31
0.0
  0
LINE
  8
0
 62
     0
 10
205.103
 20
77.4732
 30
0.0
 11
204.33
 21
77.2654
 31
0.0
  0
LINE
  8
0
 62
     0
 10
204.33
 20
77.2654
 30
0.0
 11
204.174
 21
77.8454
 31
0.0
  0
LINE
  8
0
 62
     0
 10
204.174
 20
77.8454
 30
0.0
 11
190.652
 21
74.2213
 31
0.0
  0
LINE
  8
0
 62
     0
 10
52.3268
 20
77.5727
 30
0.0
 11
51.5539
 21
77.7794
 31
0.0
  0
LINE
  8
0
 62
     0
 10
51.5539
 20
77.7794
 30
0.0
 11
48.241
 21
65.4156
 31
0.0
  0
LINE
  8
0
 62
     0
 10
48.241
 20
65.4156
 30
0.0
 11
49.0142
 21
65.2089
 31
0.0
  0
LINE
  8
0
 62
     0
 10
49.0142
 20
65.2089
 30
0.0
 11
48.8583
 21
64.6285
 31
0.0
  0
LINE
  8
0
 62
     0
 10
48.8583
 20
64.6285
 30
0.0
 11
62.381
 21
61.0059
 31
0.0
  0
LINE
  8
0
 62
     0
 10
62.381
 20
61.0059
 30
0.0
 11
62.5369
 21
61.5844
 31
0.0
  0
LINE
  8
0
 62
     0
 10
62.5369
 20
61.5844
 30
0.0
 11
63.3099
 21
61.3777
 31
0.0
  0
LINE
  8
0
 62
     0
 10
63.3099
 20
61.3777
 30
0.0
 11
66.6228
 21
73.7415
 31
0.0
  0
LINE
  8
0
 62
     0
 10
66.6228
 20
73.7415
 30
0.0
 11
65.8495
 21
73.9482
 31
0.0
  0
LINE
  8
0
 62
     0
 10
65.8495
 20
73.9482
 30
0.0
 11
66.004
 21
74.5285
 31
0.0
  0
LINE
  8
0
 62
     0
 10
66.004
 20
74.5285
 30
0.0
 11
52.4813
 21
78.1512
 31
0.0
  0
LINE
  8
0
 62
     0
 10
52.4813
 20
78.1512
 30
0.0
 11
52.3268
 21
77.5727
 31
0.0
  0
LINE
  8
0
 62
     0
 10
209.053
 20
79.1531
 30
0.0
 11
209.207
 21
78.5731
 31
0.0
  0
LINE
  8
0
 62
     0
 10
209.207
 20
78.5731
 30
0.0
 11
208.435
 21
78.3664
 31
0.0
  0
LINE
  8
0
 62
     0
 10
208.435
 20
78.3664
 30
0.0
 11
211.748
 21
66.0012
 31
0.0
  0
LINE
  8
0
 62
     0
 10
211.748
 20
66.0012
 30
0.0
 11
212.521
 21
66.2093
 31
0.0
  0
LINE
  8
0
 62
     0
 10
212.521
 20
66.2093
 30
0.0
 11
212.675
 21
65.629
 31
0.0
  0
LINE
  8
0
 62
     0
 10
212.675
 20
65.629
 30
0.0
 11
226.198
 21
69.2535
 31
0.0
  0
LINE
  8
0
 62
     0
 10
226.198
 20
69.2535
 30
0.0
 11
226.044
 21
69.832
 31
0.0
  0
LINE
  8
0
 62
     0
 10
226.044
 20
69.832
 30
0.0
 11
226.817
 21
70.0401
 31
0.0
  0
LINE
  8
0
 62
     0
 10
226.817
 20
70.0401
 30
0.0
 11
223.504
 21
82.4039
 31
0.0
  0
LINE
  8
0
 62
     0
 10
223.504
 20
82.4039
 30
0.0
 11
222.731
 21
82.1972
 31
0.0
  0
LINE
  8
0
 62
     0
 10
222.731
 20
82.1972
 30
0.0
 11
222.575
 21
82.7761
 31
0.0
  0
LINE
  8
0
 62
     0
 10
222.575
 20
82.7761
 30
0.0
 11
209.053
 21
79.1531
 31
0.0
  0
LINE
  8
0
 62
     0
 10
33.9259
 20
82.5031
 30
0.0
 11
33.1529
 21
82.7098
 31
0.0
  0
LINE
  8
0
 62
     0
 10
33.1529
 20
82.7098
 30
0.0
 11
29.84
 21
70.346
 31
0.0
  0
LINE
  8
0
 62
     0
 10
29.84
 20
70.346
 30
0.0
 11
30.6131
 21
70.1393
 31
0.0
  0
LINE
  8
0
 62
     0
 10
30.6131
 20
70.1393
 30
0.0
 11
30.4574
 21
69.5593
 31
0.0
  0
LINE
  8
0
 62
     0
 10
30.4574
 20
69.5593
 30
0.0
 11
43.9801
 21
65.9363
 31
0.0
  0
LINE
  8
0
 62
     0
 10
43.9801
 20
65.9363
 30
0.0
 11
44.1357
 21
66.5152
 31
0.0
  0
LINE
  8
0
 62
     0
 10
44.1357
 20
66.5152
 30
0.0
 11
44.909
 21
66.3085
 31
0.0
  0
LINE
  8
0
 62
     0
 10
44.909
 20
66.3085
 30
0.0
 11
48.2215
 21
78.6723
 31
0.0
  0
LINE
  8
0
 62
     0
 10
48.2215
 20
78.6723
 30
0.0
 11
47.4486
 21
78.8804
 31
0.0
  0
LINE
  8
0
 62
     0
 10
47.4486
 20
78.8804
 30
0.0
 11
47.6031
 21
79.459
 31
0.0
  0
LINE
  8
0
 62
     0
 10
47.6031
 20
79.459
 30
0.0
 11
34.0803
 21
83.0834
 31
0.0
  0
LINE
  8
0
 62
     0
 10
34.0803
 20
83.0834
 30
0.0
 11
33.9259
 21
82.5031
 31
0.0
  0
LINE
  8
0
 62
     0
 10
227.453
 20
84.0825
 30
0.0
 11
227.608
 21
83.5036
 31
0.0
  0
LINE
  8
0
 62
     0
 10
227.608
 20
83.5036
 30
0.0
 11
226.836
 21
83.2954
 31
0.0
  0
LINE
  8
0
 62
     0
 10
226.836
 20
83.2954
 30
0.0
 11
230.149
 21
70.933
 31
0.0
  0
LINE
  8
0
 62
     0
 10
230.149
 20
70.933
 30
0.0
 11
230.922
 21
71.1398
 31
0.0
  0
LINE
  8
0
 62
     0
 10
230.922
 20
71.1398
 30
0.0
 11
231.077
 21
70.5598
 31
0.0
  0
LINE
  8
0
 62
     0
 10
231.077
 20
70.5598
 30
0.0
 11
244.599
 21
74.1839
 31
0.0
  0
LINE
  8
0
 62
     0
 10
244.599
 20
74.1839
 30
0.0
 11
244.445
 21
74.7628
 31
0.0
  0
LINE
  8
0
 62
     0
 10
244.445
 20
74.7628
 30
0.0
 11
245.218
 21
74.9695
 31
0.0
  0
LINE
  8
0
 62
     0
 10
245.218
 20
74.9695
 30
0.0
 11
241.905
 21
87.3333
 31
0.0
  0
LINE
  8
0
 62
     0
 10
241.905
 20
87.3333
 30
0.0
 11
241.132
 21
87.1266
 31
0.0
  0
LINE
  8
0
 62
     0
 10
241.132
 20
87.1266
 30
0.0
 11
240.976
 21
87.7066
 31
0.0
  0
LINE
  8
0
 62
     0
 10
240.976
 20
87.7066
 30
0.0
 11
227.453
 21
84.0825
 31
0.0
  0
LINE
  8
0
 62
     0
 10
15.525
 20
87.4339
 30
0.0
 11
14.7519
 21
87.6406
 31
0.0
  0
LINE
  8
0
 62
     0
 10
14.7519
 20
87.6406
 30
0.0
 11
11.4391
 21
75.2768
 31
0.0
  0
LINE
  8
0
 62
     0
 10
11.4391
 20
75.2768
 30
0.0
 11
12.2122
 21
75.0701
 31
0.0
  0
LINE
  8
0
 62
     0
 10
12.2122
 20
75.0701
 30
0.0
 11
12.0565
 21
74.4897
 31
0.0
  0
LINE
  8
0
 62
     0
 10
12.0565
 20
74.4897
 30
0.0
 11
25.5791
 21
70.8671
 31
0.0
  0
LINE
  8
0
 62
     0
 10
25.5791
 20
70.8671
 30
0.0
 11
25.7349
 21
71.4456
 31
0.0
  0
LINE
  8
0
 62
     0
 10
25.7349
 20
71.4456
 30
0.0
 11
26.5079
 21
71.2392
 31
0.0
  0
LINE
  8
0
 62
     0
 10
26.5079
 20
71.2392
 30
0.0
 11
29.8208
 21
83.6027
 31
0.0
  0
LINE
  8
0
 62
     0
 10
29.8208
 20
83.6027
 30
0.0
 11
29.0477
 21
83.8094
 31
0.0
  0
LINE
  8
0
 62
     0
 10
29.0477
 20
83.8094
 30
0.0
 11
29.2034
 21
84.3897
 31
0.0
  0
LINE
  8
0
 62
     0
 10
29.2034
 20
84.3897
 30
0.0
 11
15.6807
 21
88.0124
 31
0.0
  0
LINE
  8
0
 62
     0
 10
15.6807
 20
88.0124
 30
0.0
 11
15.525
 21
87.4339
 31
0.0
  0
ENDSEC
  0
EOF
