G04 #@! TF.GenerationSoftware,KiCad,Pcbnew,(5.1.9)-1*
G04 #@! TF.CreationDate,2021-01-20T21:20:51-05:00*
G04 #@! TF.ProjectId,splitty,73706c69-7474-4792-9e6b-696361645f70,rev?*
G04 #@! TF.SameCoordinates,Original*
G04 #@! TF.FileFunction,Legend,Bot*
G04 #@! TF.FilePolarity,Positive*
%FSLAX46Y46*%
G04 Gerber Fmt 4.6, Leading zero omitted, Abs format (unit mm)*
G04 Created by KiCad (PCBNEW (5.1.9)-1) date 2021-01-20 21:20:51*
%MOMM*%
%LPD*%
G01*
G04 APERTURE LIST*
%ADD10C,0.010000*%
%ADD11C,0.150000*%
%ADD12C,1.626000*%
%ADD13C,2.302000*%
%ADD14C,1.702000*%
%ADD15C,2.352000*%
%ADD16C,4.089800*%
%ADD17C,1.852000*%
%ADD18C,2.102000*%
%ADD19C,1.802000*%
%ADD20C,1.302000*%
G04 APERTURE END LIST*
D10*
G36*
X149670400Y-107814200D02*
G01*
X149670400Y-107407800D01*
X150889600Y-107407800D01*
X150889600Y-107128400D01*
X149670400Y-107128400D01*
X149670400Y-106722000D01*
X149416400Y-106722000D01*
X149416400Y-107814200D01*
X149670400Y-107814200D01*
G37*
X149670400Y-107814200D02*
X149670400Y-107407800D01*
X150889600Y-107407800D01*
X150889600Y-107128400D01*
X149670400Y-107128400D01*
X149670400Y-106722000D01*
X149416400Y-106722000D01*
X149416400Y-107814200D01*
X149670400Y-107814200D01*
G36*
X149645000Y-108274188D02*
G01*
X149739251Y-108331198D01*
X149814596Y-108379078D01*
X149861912Y-108411887D01*
X149873517Y-108423011D01*
X149852883Y-108440506D01*
X149797370Y-108476777D01*
X149716443Y-108525824D01*
X149655173Y-108561440D01*
X149561050Y-108617616D01*
X149484741Y-108667477D01*
X149436471Y-108704106D01*
X149425137Y-108717067D01*
X149419642Y-108759537D01*
X149419482Y-108830994D01*
X149421230Y-108865795D01*
X149429100Y-108983836D01*
X149759300Y-108789633D01*
X149876894Y-108720861D01*
X149980226Y-108661159D01*
X150060808Y-108615376D01*
X150110154Y-108588359D01*
X150120138Y-108583524D01*
X150152286Y-108591458D01*
X150218509Y-108621609D01*
X150309712Y-108669417D01*
X150416797Y-108730323D01*
X150437638Y-108742671D01*
X150553372Y-108811681D01*
X150660708Y-108875682D01*
X150748193Y-108927844D01*
X150804373Y-108961338D01*
X150807050Y-108962933D01*
X150889600Y-109012143D01*
X150889407Y-108864021D01*
X150889214Y-108715900D01*
X150648107Y-108576979D01*
X150550782Y-108519682D01*
X150472273Y-108471139D01*
X150421556Y-108437054D01*
X150407000Y-108423800D01*
X150427636Y-108406154D01*
X150483561Y-108369288D01*
X150565796Y-108318907D01*
X150648107Y-108270620D01*
X150889214Y-108131700D01*
X150889600Y-107835456D01*
X150807050Y-107884666D01*
X150753509Y-107916584D01*
X150667916Y-107967613D01*
X150561852Y-108030847D01*
X150446898Y-108099383D01*
X150441440Y-108102637D01*
X150334479Y-108165737D01*
X150243570Y-108218105D01*
X150177379Y-108254839D01*
X150144571Y-108271040D01*
X150142959Y-108271400D01*
X150116935Y-108259050D01*
X150055188Y-108224967D01*
X149965526Y-108173599D01*
X149855758Y-108109395D01*
X149786246Y-108068200D01*
X149668523Y-107998625D01*
X149566506Y-107939311D01*
X149487972Y-107894701D01*
X149440700Y-107869241D01*
X149430677Y-107865000D01*
X149422789Y-107887953D01*
X149417603Y-107947052D01*
X149416400Y-108001927D01*
X149416400Y-108138854D01*
X149645000Y-108274188D01*
G37*
X149645000Y-108274188D02*
X149739251Y-108331198D01*
X149814596Y-108379078D01*
X149861912Y-108411887D01*
X149873517Y-108423011D01*
X149852883Y-108440506D01*
X149797370Y-108476777D01*
X149716443Y-108525824D01*
X149655173Y-108561440D01*
X149561050Y-108617616D01*
X149484741Y-108667477D01*
X149436471Y-108704106D01*
X149425137Y-108717067D01*
X149419642Y-108759537D01*
X149419482Y-108830994D01*
X149421230Y-108865795D01*
X149429100Y-108983836D01*
X149759300Y-108789633D01*
X149876894Y-108720861D01*
X149980226Y-108661159D01*
X150060808Y-108615376D01*
X150110154Y-108588359D01*
X150120138Y-108583524D01*
X150152286Y-108591458D01*
X150218509Y-108621609D01*
X150309712Y-108669417D01*
X150416797Y-108730323D01*
X150437638Y-108742671D01*
X150553372Y-108811681D01*
X150660708Y-108875682D01*
X150748193Y-108927844D01*
X150804373Y-108961338D01*
X150807050Y-108962933D01*
X150889600Y-109012143D01*
X150889407Y-108864021D01*
X150889214Y-108715900D01*
X150648107Y-108576979D01*
X150550782Y-108519682D01*
X150472273Y-108471139D01*
X150421556Y-108437054D01*
X150407000Y-108423800D01*
X150427636Y-108406154D01*
X150483561Y-108369288D01*
X150565796Y-108318907D01*
X150648107Y-108270620D01*
X150889214Y-108131700D01*
X150889600Y-107835456D01*
X150807050Y-107884666D01*
X150753509Y-107916584D01*
X150667916Y-107967613D01*
X150561852Y-108030847D01*
X150446898Y-108099383D01*
X150441440Y-108102637D01*
X150334479Y-108165737D01*
X150243570Y-108218105D01*
X150177379Y-108254839D01*
X150144571Y-108271040D01*
X150142959Y-108271400D01*
X150116935Y-108259050D01*
X150055188Y-108224967D01*
X149965526Y-108173599D01*
X149855758Y-108109395D01*
X149786246Y-108068200D01*
X149668523Y-107998625D01*
X149566506Y-107939311D01*
X149487972Y-107894701D01*
X149440700Y-107869241D01*
X149430677Y-107865000D01*
X149422789Y-107887953D01*
X149417603Y-107947052D01*
X149416400Y-108001927D01*
X149416400Y-108138854D01*
X149645000Y-108274188D01*
D11*
X179413000Y-112325000D02*
X148933000Y-112325000D01*
X179413000Y-109785000D02*
X179413000Y-112325000D01*
X148933000Y-109785000D02*
X179413000Y-109785000D01*
X148933000Y-112325000D02*
X148933000Y-109785000D01*
X179413000Y-97085000D02*
X148933000Y-97085000D01*
X179413000Y-94545000D02*
X179413000Y-97085000D01*
X148933000Y-94545000D02*
X179413000Y-94545000D01*
X148933000Y-97085000D02*
X148933000Y-94545000D01*
X179413000Y-112325000D02*
X146393000Y-112325000D01*
X146393000Y-94545000D02*
X179413000Y-94545000D01*
X146393000Y-112325000D02*
X146393000Y-94545000D01*
D10*
G36*
X151351458Y-117371127D02*
G01*
X151346836Y-117438902D01*
X151338718Y-117476924D01*
X151323513Y-117494518D01*
X151301654Y-117500474D01*
X151274002Y-117509767D01*
X151261110Y-117534605D01*
X151257713Y-117586101D01*
X151257692Y-117593281D01*
X151259765Y-117646983D01*
X151270008Y-117672222D01*
X151294459Y-117679555D01*
X151307200Y-117679846D01*
X151356707Y-117679846D01*
X151351161Y-117889884D01*
X151348281Y-117982667D01*
X151344428Y-118043455D01*
X151337983Y-118079324D01*
X151327327Y-118097349D01*
X151310839Y-118104607D01*
X151301654Y-118106166D01*
X151275152Y-118114607D01*
X151262079Y-118137124D01*
X151257896Y-118184307D01*
X151257692Y-118208743D01*
X151257692Y-118305076D01*
X151361748Y-118305076D01*
X151429356Y-118301535D01*
X151473705Y-118287488D01*
X151510242Y-118257795D01*
X151513171Y-118254717D01*
X151532433Y-118231883D01*
X151545889Y-118206462D01*
X151554816Y-118171015D01*
X151560496Y-118118107D01*
X151564206Y-118040299D01*
X151566937Y-117942101D01*
X151569898Y-117836272D01*
X151573395Y-117763421D01*
X151578451Y-117717451D01*
X151586085Y-117692267D01*
X151597322Y-117681772D01*
X151610899Y-117679846D01*
X151634465Y-117673578D01*
X151645595Y-117648264D01*
X151648460Y-117594139D01*
X151648462Y-117591923D01*
X151645832Y-117536850D01*
X151635098Y-117510827D01*
X151611991Y-117504013D01*
X151610317Y-117503999D01*
X151589003Y-117499089D01*
X151576455Y-117478597D01*
X151569561Y-117433884D01*
X151566356Y-117381884D01*
X151560539Y-117259769D01*
X151458920Y-117253896D01*
X151357301Y-117248024D01*
X151351458Y-117371127D01*
G37*
X151351458Y-117371127D02*
X151346836Y-117438902D01*
X151338718Y-117476924D01*
X151323513Y-117494518D01*
X151301654Y-117500474D01*
X151274002Y-117509767D01*
X151261110Y-117534605D01*
X151257713Y-117586101D01*
X151257692Y-117593281D01*
X151259765Y-117646983D01*
X151270008Y-117672222D01*
X151294459Y-117679555D01*
X151307200Y-117679846D01*
X151356707Y-117679846D01*
X151351161Y-117889884D01*
X151348281Y-117982667D01*
X151344428Y-118043455D01*
X151337983Y-118079324D01*
X151327327Y-118097349D01*
X151310839Y-118104607D01*
X151301654Y-118106166D01*
X151275152Y-118114607D01*
X151262079Y-118137124D01*
X151257896Y-118184307D01*
X151257692Y-118208743D01*
X151257692Y-118305076D01*
X151361748Y-118305076D01*
X151429356Y-118301535D01*
X151473705Y-118287488D01*
X151510242Y-118257795D01*
X151513171Y-118254717D01*
X151532433Y-118231883D01*
X151545889Y-118206462D01*
X151554816Y-118171015D01*
X151560496Y-118118107D01*
X151564206Y-118040299D01*
X151566937Y-117942101D01*
X151569898Y-117836272D01*
X151573395Y-117763421D01*
X151578451Y-117717451D01*
X151586085Y-117692267D01*
X151597322Y-117681772D01*
X151610899Y-117679846D01*
X151634465Y-117673578D01*
X151645595Y-117648264D01*
X151648460Y-117594139D01*
X151648462Y-117591923D01*
X151645832Y-117536850D01*
X151635098Y-117510827D01*
X151611991Y-117504013D01*
X151610317Y-117503999D01*
X151589003Y-117499089D01*
X151576455Y-117478597D01*
X151569561Y-117433884D01*
X151566356Y-117381884D01*
X151560539Y-117259769D01*
X151458920Y-117253896D01*
X151357301Y-117248024D01*
X151351458Y-117371127D01*
G36*
X152873185Y-117498900D02*
G01*
X152803862Y-117509903D01*
X152745373Y-117530985D01*
X152727589Y-117539799D01*
X152679482Y-117568055D01*
X152659838Y-117593797D01*
X152668252Y-117626293D01*
X152704319Y-117674812D01*
X152720838Y-117694306D01*
X152746518Y-117720486D01*
X152771688Y-117728167D01*
X152811150Y-117719156D01*
X152840855Y-117708960D01*
X152930121Y-117685421D01*
X153008915Y-117679272D01*
X153070135Y-117689691D01*
X153106683Y-117715856D01*
X153113846Y-117740551D01*
X153111674Y-117771695D01*
X153108962Y-117778495D01*
X153088814Y-117781678D01*
X153039058Y-117789382D01*
X152968711Y-117800214D01*
X152932870Y-117805716D01*
X152849234Y-117821222D01*
X152775547Y-117839651D01*
X152724123Y-117857766D01*
X152713829Y-117863323D01*
X152668165Y-117914605D01*
X152642276Y-117987836D01*
X152636537Y-118071045D01*
X152651324Y-118152258D01*
X152687012Y-118219503D01*
X152702163Y-118235447D01*
X152780800Y-118283415D01*
X152883646Y-118312449D01*
X153000015Y-118321201D01*
X153119222Y-118308327D01*
X153172462Y-118294651D01*
X153250670Y-118267175D01*
X153310377Y-118240081D01*
X153343838Y-118217162D01*
X153348308Y-118208534D01*
X153336924Y-118187761D01*
X153308057Y-118148509D01*
X153289787Y-118125754D01*
X153231267Y-118054758D01*
X153128595Y-118093884D01*
X153047788Y-118116735D01*
X152970290Y-118125076D01*
X152902958Y-118120254D01*
X152852650Y-118103612D01*
X152826225Y-118076494D01*
X152830541Y-118040246D01*
X152833068Y-118035947D01*
X152862710Y-118013919D01*
X152923833Y-117995275D01*
X153010345Y-117980170D01*
X153112013Y-117963180D01*
X153183210Y-117943921D01*
X153232524Y-117918895D01*
X153268542Y-117884603D01*
X153278921Y-117870732D01*
X153302954Y-117808326D01*
X153307319Y-117729055D01*
X153291970Y-117649847D01*
X153279592Y-117620591D01*
X153235015Y-117561196D01*
X153170222Y-117522041D01*
X153079617Y-117500883D01*
X152967308Y-117495391D01*
X152873185Y-117498900D01*
G37*
X152873185Y-117498900D02*
X152803862Y-117509903D01*
X152745373Y-117530985D01*
X152727589Y-117539799D01*
X152679482Y-117568055D01*
X152659838Y-117593797D01*
X152668252Y-117626293D01*
X152704319Y-117674812D01*
X152720838Y-117694306D01*
X152746518Y-117720486D01*
X152771688Y-117728167D01*
X152811150Y-117719156D01*
X152840855Y-117708960D01*
X152930121Y-117685421D01*
X153008915Y-117679272D01*
X153070135Y-117689691D01*
X153106683Y-117715856D01*
X153113846Y-117740551D01*
X153111674Y-117771695D01*
X153108962Y-117778495D01*
X153088814Y-117781678D01*
X153039058Y-117789382D01*
X152968711Y-117800214D01*
X152932870Y-117805716D01*
X152849234Y-117821222D01*
X152775547Y-117839651D01*
X152724123Y-117857766D01*
X152713829Y-117863323D01*
X152668165Y-117914605D01*
X152642276Y-117987836D01*
X152636537Y-118071045D01*
X152651324Y-118152258D01*
X152687012Y-118219503D01*
X152702163Y-118235447D01*
X152780800Y-118283415D01*
X152883646Y-118312449D01*
X153000015Y-118321201D01*
X153119222Y-118308327D01*
X153172462Y-118294651D01*
X153250670Y-118267175D01*
X153310377Y-118240081D01*
X153343838Y-118217162D01*
X153348308Y-118208534D01*
X153336924Y-118187761D01*
X153308057Y-118148509D01*
X153289787Y-118125754D01*
X153231267Y-118054758D01*
X153128595Y-118093884D01*
X153047788Y-118116735D01*
X152970290Y-118125076D01*
X152902958Y-118120254D01*
X152852650Y-118103612D01*
X152826225Y-118076494D01*
X152830541Y-118040246D01*
X152833068Y-118035947D01*
X152862710Y-118013919D01*
X152923833Y-117995275D01*
X153010345Y-117980170D01*
X153112013Y-117963180D01*
X153183210Y-117943921D01*
X153232524Y-117918895D01*
X153268542Y-117884603D01*
X153278921Y-117870732D01*
X153302954Y-117808326D01*
X153307319Y-117729055D01*
X153291970Y-117649847D01*
X153279592Y-117620591D01*
X153235015Y-117561196D01*
X153170222Y-117522041D01*
X153079617Y-117500883D01*
X152967308Y-117495391D01*
X152873185Y-117498900D01*
G36*
X154726650Y-117173420D02*
G01*
X154623979Y-117179255D01*
X154547496Y-117191016D01*
X154490801Y-117210371D01*
X154447493Y-117238986D01*
X154411170Y-117278528D01*
X154401405Y-117291750D01*
X154376385Y-117333067D01*
X154362084Y-117377720D01*
X154355740Y-117438415D01*
X154354539Y-117507451D01*
X154360166Y-117610487D01*
X154380462Y-117686527D01*
X154420549Y-117746468D01*
X154485552Y-117801207D01*
X154496046Y-117808474D01*
X154555808Y-117849179D01*
X154438353Y-118052705D01*
X154391760Y-118134050D01*
X154352200Y-118204254D01*
X154323910Y-118255720D01*
X154311206Y-118280653D01*
X154316875Y-118294699D01*
X154351103Y-118302484D01*
X154418843Y-118305063D01*
X154425857Y-118305076D01*
X154550203Y-118305076D01*
X154676076Y-118080384D01*
X154727718Y-117989044D01*
X154765203Y-117926527D01*
X154793148Y-117887382D01*
X154816168Y-117866161D01*
X154838882Y-117857414D01*
X154865905Y-117855692D01*
X154930923Y-117855692D01*
X154930923Y-118305076D01*
X155145846Y-118305076D01*
X155145846Y-117367230D01*
X154930923Y-117367230D01*
X154930923Y-117640769D01*
X154781039Y-117640769D01*
X154693188Y-117638097D01*
X154635675Y-117629101D01*
X154600064Y-117612311D01*
X154595423Y-117608433D01*
X154566440Y-117558737D01*
X154561109Y-117494745D01*
X154579158Y-117433059D01*
X154598769Y-117406307D01*
X154626971Y-117385287D01*
X154666066Y-117373268D01*
X154726561Y-117368038D01*
X154784385Y-117367230D01*
X154930923Y-117367230D01*
X155145846Y-117367230D01*
X155145846Y-117171846D01*
X154861911Y-117171846D01*
X154726650Y-117173420D01*
G37*
X154726650Y-117173420D02*
X154623979Y-117179255D01*
X154547496Y-117191016D01*
X154490801Y-117210371D01*
X154447493Y-117238986D01*
X154411170Y-117278528D01*
X154401405Y-117291750D01*
X154376385Y-117333067D01*
X154362084Y-117377720D01*
X154355740Y-117438415D01*
X154354539Y-117507451D01*
X154360166Y-117610487D01*
X154380462Y-117686527D01*
X154420549Y-117746468D01*
X154485552Y-117801207D01*
X154496046Y-117808474D01*
X154555808Y-117849179D01*
X154438353Y-118052705D01*
X154391760Y-118134050D01*
X154352200Y-118204254D01*
X154323910Y-118255720D01*
X154311206Y-118280653D01*
X154316875Y-118294699D01*
X154351103Y-118302484D01*
X154418843Y-118305063D01*
X154425857Y-118305076D01*
X154550203Y-118305076D01*
X154676076Y-118080384D01*
X154727718Y-117989044D01*
X154765203Y-117926527D01*
X154793148Y-117887382D01*
X154816168Y-117866161D01*
X154838882Y-117857414D01*
X154865905Y-117855692D01*
X154930923Y-117855692D01*
X154930923Y-118305076D01*
X155145846Y-118305076D01*
X155145846Y-117367230D01*
X154930923Y-117367230D01*
X154930923Y-117640769D01*
X154781039Y-117640769D01*
X154693188Y-117638097D01*
X154635675Y-117629101D01*
X154600064Y-117612311D01*
X154595423Y-117608433D01*
X154566440Y-117558737D01*
X154561109Y-117494745D01*
X154579158Y-117433059D01*
X154598769Y-117406307D01*
X154626971Y-117385287D01*
X154666066Y-117373268D01*
X154726561Y-117368038D01*
X154784385Y-117367230D01*
X154930923Y-117367230D01*
X155145846Y-117367230D01*
X155145846Y-117171846D01*
X154861911Y-117171846D01*
X154726650Y-117173420D01*
G36*
X152084369Y-117493802D02*
G01*
X152001007Y-117509745D01*
X151947925Y-117535038D01*
X151875308Y-117611869D01*
X151822841Y-117717361D01*
X151793611Y-117845023D01*
X151791588Y-117863871D01*
X151779580Y-117992461D01*
X152034576Y-117992461D01*
X152138271Y-117992729D01*
X152208858Y-117994176D01*
X152252302Y-117997772D01*
X152274572Y-118004484D01*
X152281635Y-118015280D01*
X152279459Y-118031127D01*
X152279197Y-118032136D01*
X152247630Y-118082156D01*
X152189777Y-118115555D01*
X152115840Y-118129705D01*
X152036017Y-118121978D01*
X151990937Y-118106388D01*
X151955031Y-118094953D01*
X151924766Y-118103644D01*
X151884924Y-118137088D01*
X151882556Y-118139351D01*
X151846090Y-118177720D01*
X151825799Y-118205736D01*
X151824308Y-118210642D01*
X151841869Y-118233608D01*
X151887855Y-118259603D01*
X151952221Y-118284798D01*
X152024923Y-118305364D01*
X152095914Y-118317473D01*
X152107041Y-118318412D01*
X152183619Y-118320253D01*
X152239868Y-118310689D01*
X152293704Y-118286319D01*
X152302422Y-118281326D01*
X152391908Y-118208735D01*
X152451502Y-118112349D01*
X152481479Y-117991427D01*
X152482114Y-117845228D01*
X152481029Y-117835048D01*
X152283937Y-117835048D01*
X152283107Y-117836727D01*
X152259060Y-117846171D01*
X152207021Y-117852963D01*
X152138059Y-117855688D01*
X152135157Y-117855692D01*
X152058647Y-117853607D01*
X152013195Y-117846262D01*
X151990949Y-117832022D01*
X151987096Y-117824858D01*
X151989723Y-117789069D01*
X152012236Y-117744370D01*
X152014092Y-117741820D01*
X152069477Y-117695001D01*
X152134996Y-117679444D01*
X152199597Y-117694397D01*
X152252228Y-117739107D01*
X152264366Y-117758856D01*
X152281925Y-117803968D01*
X152283937Y-117835048D01*
X152481029Y-117835048D01*
X152478135Y-117807921D01*
X152446063Y-117685556D01*
X152383025Y-117586688D01*
X152326097Y-117535183D01*
X152261807Y-117506527D01*
X152176266Y-117492732D01*
X152084369Y-117493802D01*
G37*
X152084369Y-117493802D02*
X152001007Y-117509745D01*
X151947925Y-117535038D01*
X151875308Y-117611869D01*
X151822841Y-117717361D01*
X151793611Y-117845023D01*
X151791588Y-117863871D01*
X151779580Y-117992461D01*
X152034576Y-117992461D01*
X152138271Y-117992729D01*
X152208858Y-117994176D01*
X152252302Y-117997772D01*
X152274572Y-118004484D01*
X152281635Y-118015280D01*
X152279459Y-118031127D01*
X152279197Y-118032136D01*
X152247630Y-118082156D01*
X152189777Y-118115555D01*
X152115840Y-118129705D01*
X152036017Y-118121978D01*
X151990937Y-118106388D01*
X151955031Y-118094953D01*
X151924766Y-118103644D01*
X151884924Y-118137088D01*
X151882556Y-118139351D01*
X151846090Y-118177720D01*
X151825799Y-118205736D01*
X151824308Y-118210642D01*
X151841869Y-118233608D01*
X151887855Y-118259603D01*
X151952221Y-118284798D01*
X152024923Y-118305364D01*
X152095914Y-118317473D01*
X152107041Y-118318412D01*
X152183619Y-118320253D01*
X152239868Y-118310689D01*
X152293704Y-118286319D01*
X152302422Y-118281326D01*
X152391908Y-118208735D01*
X152451502Y-118112349D01*
X152481479Y-117991427D01*
X152482114Y-117845228D01*
X152481029Y-117835048D01*
X152283937Y-117835048D01*
X152283107Y-117836727D01*
X152259060Y-117846171D01*
X152207021Y-117852963D01*
X152138059Y-117855688D01*
X152135157Y-117855692D01*
X152058647Y-117853607D01*
X152013195Y-117846262D01*
X151990949Y-117832022D01*
X151987096Y-117824858D01*
X151989723Y-117789069D01*
X152012236Y-117744370D01*
X152014092Y-117741820D01*
X152069477Y-117695001D01*
X152134996Y-117679444D01*
X152199597Y-117694397D01*
X152252228Y-117739107D01*
X152264366Y-117758856D01*
X152281925Y-117803968D01*
X152283937Y-117835048D01*
X152481029Y-117835048D01*
X152478135Y-117807921D01*
X152446063Y-117685556D01*
X152383025Y-117586688D01*
X152326097Y-117535183D01*
X152261807Y-117506527D01*
X152176266Y-117492732D01*
X152084369Y-117493802D01*
G36*
X153666242Y-117525803D02*
G01*
X153586011Y-117590392D01*
X153527293Y-117682794D01*
X153493042Y-117799958D01*
X153485186Y-117899653D01*
X153485077Y-117992461D01*
X153729308Y-117992461D01*
X153840635Y-117993632D01*
X153916358Y-117998230D01*
X153959910Y-118007879D01*
X153974723Y-118024207D01*
X153964228Y-118048840D01*
X153931858Y-118083402D01*
X153928318Y-118086748D01*
X153866832Y-118119964D01*
X153786300Y-118129091D01*
X153699336Y-118112942D01*
X153689051Y-118109243D01*
X153650076Y-118100234D01*
X153613655Y-118110558D01*
X153567502Y-118141869D01*
X153498523Y-118194481D01*
X153552541Y-118237554D01*
X153652701Y-118294615D01*
X153765986Y-118321771D01*
X153881647Y-118318304D01*
X153988937Y-118283501D01*
X154015486Y-118268379D01*
X154084526Y-118212427D01*
X154131005Y-118142920D01*
X154157897Y-118052688D01*
X154168174Y-117934558D01*
X154168494Y-117899258D01*
X154161280Y-117810251D01*
X153973539Y-117810251D01*
X153971269Y-117833383D01*
X153958987Y-117846945D01*
X153928481Y-117853483D01*
X153871540Y-117855544D01*
X153827000Y-117855692D01*
X153752465Y-117855083D01*
X153708773Y-117851428D01*
X153687696Y-117841982D01*
X153681000Y-117824002D01*
X153680462Y-117806846D01*
X153698098Y-117746941D01*
X153744117Y-117701678D01*
X153808185Y-117680406D01*
X153820856Y-117679846D01*
X153884774Y-117694864D01*
X153938288Y-117733265D01*
X153969715Y-117785070D01*
X153973539Y-117810251D01*
X154161280Y-117810251D01*
X154157227Y-117760253D01*
X154123322Y-117652017D01*
X154065296Y-117572465D01*
X153981670Y-117519512D01*
X153879423Y-117492280D01*
X153765031Y-117492082D01*
X153666242Y-117525803D01*
G37*
X153666242Y-117525803D02*
X153586011Y-117590392D01*
X153527293Y-117682794D01*
X153493042Y-117799958D01*
X153485186Y-117899653D01*
X153485077Y-117992461D01*
X153729308Y-117992461D01*
X153840635Y-117993632D01*
X153916358Y-117998230D01*
X153959910Y-118007879D01*
X153974723Y-118024207D01*
X153964228Y-118048840D01*
X153931858Y-118083402D01*
X153928318Y-118086748D01*
X153866832Y-118119964D01*
X153786300Y-118129091D01*
X153699336Y-118112942D01*
X153689051Y-118109243D01*
X153650076Y-118100234D01*
X153613655Y-118110558D01*
X153567502Y-118141869D01*
X153498523Y-118194481D01*
X153552541Y-118237554D01*
X153652701Y-118294615D01*
X153765986Y-118321771D01*
X153881647Y-118318304D01*
X153988937Y-118283501D01*
X154015486Y-118268379D01*
X154084526Y-118212427D01*
X154131005Y-118142920D01*
X154157897Y-118052688D01*
X154168174Y-117934558D01*
X154168494Y-117899258D01*
X154161280Y-117810251D01*
X153973539Y-117810251D01*
X153971269Y-117833383D01*
X153958987Y-117846945D01*
X153928481Y-117853483D01*
X153871540Y-117855544D01*
X153827000Y-117855692D01*
X153752465Y-117855083D01*
X153708773Y-117851428D01*
X153687696Y-117841982D01*
X153681000Y-117824002D01*
X153680462Y-117806846D01*
X153698098Y-117746941D01*
X153744117Y-117701678D01*
X153808185Y-117680406D01*
X153820856Y-117679846D01*
X153884774Y-117694864D01*
X153938288Y-117733265D01*
X153969715Y-117785070D01*
X153973539Y-117810251D01*
X154161280Y-117810251D01*
X154157227Y-117760253D01*
X154123322Y-117652017D01*
X154065296Y-117572465D01*
X153981670Y-117519512D01*
X153879423Y-117492280D01*
X153765031Y-117492082D01*
X153666242Y-117525803D01*
D11*
X244348000Y-108661000D02*
X244348000Y-109161000D01*
X244348000Y-114661000D02*
X232348000Y-114661000D01*
X232348000Y-114661000D02*
X232348000Y-108661000D01*
X232348000Y-108661000D02*
X244348000Y-108661000D01*
X244348000Y-109161000D02*
X246248000Y-109161000D01*
X246248000Y-109211000D02*
X246248000Y-114161000D01*
X244348000Y-114661000D02*
X244348000Y-114161000D01*
X244348000Y-114161000D02*
X246248000Y-114161000D01*
D10*
G36*
X220569626Y-112318109D02*
G01*
X221519966Y-112318109D01*
X221519966Y-111454164D01*
X220569626Y-111454164D01*
X220569626Y-112318109D01*
G37*
X220569626Y-112318109D02*
X221519966Y-112318109D01*
X221519966Y-111454164D01*
X220569626Y-111454164D01*
X220569626Y-112318109D01*
G36*
X184543095Y-116465048D02*
G01*
X185493435Y-116465048D01*
X185493435Y-115514708D01*
X184543095Y-115514708D01*
X184543095Y-116465048D01*
G37*
X184543095Y-116465048D02*
X185493435Y-116465048D01*
X185493435Y-115514708D01*
X184543095Y-115514708D01*
X184543095Y-116465048D01*
G36*
X187150500Y-112885756D02*
G01*
X186813972Y-112974080D01*
X186481922Y-113097160D01*
X186303407Y-113208797D01*
X186263459Y-113335809D01*
X186347112Y-113505014D01*
X186446280Y-113632948D01*
X186609659Y-113821238D01*
X186726546Y-113897014D01*
X186859517Y-113881781D01*
X187004541Y-113824780D01*
X187289520Y-113743703D01*
X187615084Y-113706024D01*
X187924422Y-113712027D01*
X188160725Y-113761997D01*
X188248548Y-113818551D01*
X188291396Y-113949660D01*
X188179486Y-114060028D01*
X187906948Y-114152743D01*
X187467913Y-114230895D01*
X187463972Y-114231434D01*
X186973516Y-114321361D01*
X186625229Y-114446793D01*
X186389407Y-114625467D01*
X186236346Y-114875119D01*
X186194640Y-114989347D01*
X186128243Y-115239794D01*
X186129398Y-115435859D01*
X186203257Y-115668675D01*
X186237837Y-115753265D01*
X186412036Y-116065920D01*
X186647286Y-116277423D01*
X186973370Y-116402183D01*
X187420074Y-116454609D01*
X187695149Y-116458227D01*
X188038179Y-116449946D01*
X188323194Y-116434147D01*
X188498504Y-116413916D01*
X188517245Y-116409167D01*
X188793188Y-116307011D01*
X189046573Y-116193072D01*
X189229604Y-116090869D01*
X189294796Y-116026583D01*
X189244778Y-115923831D01*
X189119326Y-115745804D01*
X189061548Y-115672527D01*
X188912589Y-115488071D01*
X188817019Y-115368036D01*
X188803245Y-115349999D01*
X188716439Y-115358115D01*
X188529564Y-115420869D01*
X188453330Y-115451727D01*
X188036429Y-115600938D01*
X187695793Y-115653307D01*
X187370268Y-115616740D01*
X187304484Y-115600231D01*
X187053805Y-115494686D01*
X186966759Y-115361433D01*
X187047381Y-115208029D01*
X187079706Y-115179112D01*
X187218422Y-115121766D01*
X187477223Y-115059660D01*
X187804225Y-115004873D01*
X187859507Y-114997580D01*
X188201338Y-114945688D01*
X188491871Y-114886281D01*
X188674602Y-114831149D01*
X188687854Y-114824718D01*
X188938585Y-114600492D01*
X189088521Y-114280549D01*
X189130892Y-113914141D01*
X189058931Y-113550515D01*
X188900467Y-113277605D01*
X188591991Y-113036438D01*
X188172007Y-112887032D01*
X187678761Y-112834950D01*
X187150500Y-112885756D01*
G37*
X187150500Y-112885756D02*
X186813972Y-112974080D01*
X186481922Y-113097160D01*
X186303407Y-113208797D01*
X186263459Y-113335809D01*
X186347112Y-113505014D01*
X186446280Y-113632948D01*
X186609659Y-113821238D01*
X186726546Y-113897014D01*
X186859517Y-113881781D01*
X187004541Y-113824780D01*
X187289520Y-113743703D01*
X187615084Y-113706024D01*
X187924422Y-113712027D01*
X188160725Y-113761997D01*
X188248548Y-113818551D01*
X188291396Y-113949660D01*
X188179486Y-114060028D01*
X187906948Y-114152743D01*
X187467913Y-114230895D01*
X187463972Y-114231434D01*
X186973516Y-114321361D01*
X186625229Y-114446793D01*
X186389407Y-114625467D01*
X186236346Y-114875119D01*
X186194640Y-114989347D01*
X186128243Y-115239794D01*
X186129398Y-115435859D01*
X186203257Y-115668675D01*
X186237837Y-115753265D01*
X186412036Y-116065920D01*
X186647286Y-116277423D01*
X186973370Y-116402183D01*
X187420074Y-116454609D01*
X187695149Y-116458227D01*
X188038179Y-116449946D01*
X188323194Y-116434147D01*
X188498504Y-116413916D01*
X188517245Y-116409167D01*
X188793188Y-116307011D01*
X189046573Y-116193072D01*
X189229604Y-116090869D01*
X189294796Y-116026583D01*
X189244778Y-115923831D01*
X189119326Y-115745804D01*
X189061548Y-115672527D01*
X188912589Y-115488071D01*
X188817019Y-115368036D01*
X188803245Y-115349999D01*
X188716439Y-115358115D01*
X188529564Y-115420869D01*
X188453330Y-115451727D01*
X188036429Y-115600938D01*
X187695793Y-115653307D01*
X187370268Y-115616740D01*
X187304484Y-115600231D01*
X187053805Y-115494686D01*
X186966759Y-115361433D01*
X187047381Y-115208029D01*
X187079706Y-115179112D01*
X187218422Y-115121766D01*
X187477223Y-115059660D01*
X187804225Y-115004873D01*
X187859507Y-114997580D01*
X188201338Y-114945688D01*
X188491871Y-114886281D01*
X188674602Y-114831149D01*
X188687854Y-114824718D01*
X188938585Y-114600492D01*
X189088521Y-114280549D01*
X189130892Y-113914141D01*
X189058931Y-113550515D01*
X188900467Y-113277605D01*
X188591991Y-113036438D01*
X188172007Y-112887032D01*
X187678761Y-112834950D01*
X187150500Y-112885756D01*
G36*
X190047825Y-112863366D02*
G01*
X189749408Y-112924830D01*
X189611120Y-113023621D01*
X189620703Y-113185283D01*
X189765899Y-113435356D01*
X189770279Y-113441690D01*
X189931605Y-113653258D01*
X190059578Y-113745833D01*
X190205615Y-113750990D01*
X190257521Y-113740899D01*
X190543171Y-113713179D01*
X190761583Y-113780939D01*
X190920041Y-113958593D01*
X191025832Y-114260551D01*
X191086239Y-114701227D01*
X191108549Y-115295032D01*
X191109082Y-115425538D01*
X191109082Y-116465048D01*
X192059422Y-116465048D01*
X192059422Y-112922871D01*
X191584252Y-112922871D01*
X191309652Y-112930371D01*
X191166601Y-112962797D01*
X191114149Y-113035041D01*
X191109082Y-113095660D01*
X191072902Y-113236048D01*
X191022687Y-113268449D01*
X190938786Y-113204328D01*
X190936292Y-113184273D01*
X190858969Y-113064379D01*
X190662984Y-112956831D01*
X190402318Y-112881126D01*
X190130951Y-112856760D01*
X190047825Y-112863366D01*
G37*
X190047825Y-112863366D02*
X189749408Y-112924830D01*
X189611120Y-113023621D01*
X189620703Y-113185283D01*
X189765899Y-113435356D01*
X189770279Y-113441690D01*
X189931605Y-113653258D01*
X190059578Y-113745833D01*
X190205615Y-113750990D01*
X190257521Y-113740899D01*
X190543171Y-113713179D01*
X190761583Y-113780939D01*
X190920041Y-113958593D01*
X191025832Y-114260551D01*
X191086239Y-114701227D01*
X191108549Y-115295032D01*
X191109082Y-115425538D01*
X191109082Y-116465048D01*
X192059422Y-116465048D01*
X192059422Y-112922871D01*
X191584252Y-112922871D01*
X191309652Y-112930371D01*
X191166601Y-112962797D01*
X191114149Y-113035041D01*
X191109082Y-113095660D01*
X191072902Y-113236048D01*
X191022687Y-113268449D01*
X190938786Y-113204328D01*
X190936292Y-113184273D01*
X190858969Y-113064379D01*
X190662984Y-112956831D01*
X190402318Y-112881126D01*
X190130951Y-112856760D01*
X190047825Y-112863366D01*
G36*
X193923797Y-112906144D02*
G01*
X193641908Y-113062107D01*
X193531627Y-113149172D01*
X193230990Y-113504008D01*
X193049090Y-113968287D01*
X192981654Y-114521170D01*
X192966565Y-115039538D01*
X195172929Y-115087922D01*
X195070771Y-115279716D01*
X194934424Y-115474907D01*
X194831534Y-115576756D01*
X194608800Y-115662031D01*
X194305535Y-115677573D01*
X193999092Y-115623862D01*
X193868146Y-115570816D01*
X193721024Y-115511045D01*
X193594804Y-115528429D01*
X193429295Y-115639914D01*
X193329235Y-115722539D01*
X193011873Y-115989878D01*
X193328348Y-116205864D01*
X193530406Y-116322453D01*
X193752645Y-116393611D01*
X194051195Y-116432775D01*
X194342428Y-116448610D01*
X194705117Y-116456724D01*
X194949513Y-116440591D01*
X195129531Y-116390107D01*
X195299087Y-116295170D01*
X195351666Y-116259498D01*
X195608739Y-116040766D01*
X195783863Y-115780108D01*
X195889787Y-115442621D01*
X195939256Y-114993400D01*
X195947177Y-114628883D01*
X195942589Y-114293223D01*
X195143627Y-114293223D01*
X195114864Y-114350915D01*
X195003714Y-114380029D01*
X194778149Y-114390327D01*
X194484291Y-114391578D01*
X194119371Y-114384231D01*
X193900325Y-114359210D01*
X193800743Y-114312047D01*
X193787313Y-114273638D01*
X193837461Y-114128235D01*
X193958899Y-113937663D01*
X193966373Y-113928059D01*
X194154707Y-113759685D01*
X194403175Y-113701957D01*
X194471350Y-113700422D01*
X194796041Y-113764627D01*
X195018108Y-113964363D01*
X195122032Y-114197191D01*
X195143627Y-114293223D01*
X195942589Y-114293223D01*
X195941664Y-114225607D01*
X195919701Y-113948796D01*
X195873152Y-113752324D01*
X195793884Y-113590067D01*
X195752789Y-113526754D01*
X195431433Y-113159142D01*
X195055806Y-112941326D01*
X194662379Y-112857068D01*
X194243267Y-112843142D01*
X193923797Y-112906144D01*
G37*
X193923797Y-112906144D02*
X193641908Y-113062107D01*
X193531627Y-113149172D01*
X193230990Y-113504008D01*
X193049090Y-113968287D01*
X192981654Y-114521170D01*
X192966565Y-115039538D01*
X195172929Y-115087922D01*
X195070771Y-115279716D01*
X194934424Y-115474907D01*
X194831534Y-115576756D01*
X194608800Y-115662031D01*
X194305535Y-115677573D01*
X193999092Y-115623862D01*
X193868146Y-115570816D01*
X193721024Y-115511045D01*
X193594804Y-115528429D01*
X193429295Y-115639914D01*
X193329235Y-115722539D01*
X193011873Y-115989878D01*
X193328348Y-116205864D01*
X193530406Y-116322453D01*
X193752645Y-116393611D01*
X194051195Y-116432775D01*
X194342428Y-116448610D01*
X194705117Y-116456724D01*
X194949513Y-116440591D01*
X195129531Y-116390107D01*
X195299087Y-116295170D01*
X195351666Y-116259498D01*
X195608739Y-116040766D01*
X195783863Y-115780108D01*
X195889787Y-115442621D01*
X195939256Y-114993400D01*
X195947177Y-114628883D01*
X195942589Y-114293223D01*
X195143627Y-114293223D01*
X195114864Y-114350915D01*
X195003714Y-114380029D01*
X194778149Y-114390327D01*
X194484291Y-114391578D01*
X194119371Y-114384231D01*
X193900325Y-114359210D01*
X193800743Y-114312047D01*
X193787313Y-114273638D01*
X193837461Y-114128235D01*
X193958899Y-113937663D01*
X193966373Y-113928059D01*
X194154707Y-113759685D01*
X194403175Y-113701957D01*
X194471350Y-113700422D01*
X194796041Y-113764627D01*
X195018108Y-113964363D01*
X195122032Y-114197191D01*
X195143627Y-114293223D01*
X195942589Y-114293223D01*
X195941664Y-114225607D01*
X195919701Y-113948796D01*
X195873152Y-113752324D01*
X195793884Y-113590067D01*
X195752789Y-113526754D01*
X195431433Y-113159142D01*
X195055806Y-112941326D01*
X194662379Y-112857068D01*
X194243267Y-112843142D01*
X193923797Y-112906144D01*
G36*
X197653469Y-111816825D02*
G01*
X197199898Y-111842939D01*
X197174177Y-112382905D01*
X197155302Y-112677907D01*
X197122756Y-112839803D01*
X197059094Y-112908234D01*
X196946876Y-112922840D01*
X196936592Y-112922871D01*
X196805772Y-112939612D01*
X196743791Y-113020627D01*
X196725479Y-113212103D01*
X196724728Y-113311647D01*
X196733563Y-113551455D01*
X196777475Y-113665073D01*
X196882570Y-113698866D01*
X196943637Y-113700422D01*
X197162546Y-113700422D01*
X197138025Y-114629164D01*
X197125288Y-115039429D01*
X197108252Y-115308219D01*
X197079755Y-115466821D01*
X197032635Y-115546525D01*
X196959731Y-115578620D01*
X196919116Y-115585512D01*
X196801930Y-115622836D01*
X196744123Y-115722403D01*
X196725627Y-115931035D01*
X196724728Y-116039084D01*
X196724728Y-116465048D01*
X197135102Y-116459201D01*
X197423662Y-116437006D01*
X197665854Y-116388052D01*
X197730008Y-116364002D01*
X197876820Y-116261153D01*
X197981656Y-116099804D01*
X198050674Y-115854018D01*
X198090034Y-115497859D01*
X198105894Y-115005389D01*
X198107041Y-114776289D01*
X198108625Y-114329098D01*
X198116390Y-114026568D01*
X198134851Y-113840577D01*
X198168525Y-113743004D01*
X198221928Y-113705729D01*
X198279830Y-113700422D01*
X198388918Y-113674247D01*
X198439773Y-113566184D01*
X198452610Y-113331928D01*
X198452619Y-113321723D01*
X198436699Y-113072159D01*
X198375698Y-112944806D01*
X198279830Y-112897838D01*
X198183083Y-112849504D01*
X198130632Y-112740585D01*
X198109737Y-112528601D01*
X198107041Y-112321682D01*
X198107041Y-111790712D01*
X197653469Y-111816825D01*
G37*
X197653469Y-111816825D02*
X197199898Y-111842939D01*
X197174177Y-112382905D01*
X197155302Y-112677907D01*
X197122756Y-112839803D01*
X197059094Y-112908234D01*
X196946876Y-112922840D01*
X196936592Y-112922871D01*
X196805772Y-112939612D01*
X196743791Y-113020627D01*
X196725479Y-113212103D01*
X196724728Y-113311647D01*
X196733563Y-113551455D01*
X196777475Y-113665073D01*
X196882570Y-113698866D01*
X196943637Y-113700422D01*
X197162546Y-113700422D01*
X197138025Y-114629164D01*
X197125288Y-115039429D01*
X197108252Y-115308219D01*
X197079755Y-115466821D01*
X197032635Y-115546525D01*
X196959731Y-115578620D01*
X196919116Y-115585512D01*
X196801930Y-115622836D01*
X196744123Y-115722403D01*
X196725627Y-115931035D01*
X196724728Y-116039084D01*
X196724728Y-116465048D01*
X197135102Y-116459201D01*
X197423662Y-116437006D01*
X197665854Y-116388052D01*
X197730008Y-116364002D01*
X197876820Y-116261153D01*
X197981656Y-116099804D01*
X198050674Y-115854018D01*
X198090034Y-115497859D01*
X198105894Y-115005389D01*
X198107041Y-114776289D01*
X198108625Y-114329098D01*
X198116390Y-114026568D01*
X198134851Y-113840577D01*
X198168525Y-113743004D01*
X198221928Y-113705729D01*
X198279830Y-113700422D01*
X198388918Y-113674247D01*
X198439773Y-113566184D01*
X198452610Y-113331928D01*
X198452619Y-113321723D01*
X198436699Y-113072159D01*
X198375698Y-112944806D01*
X198279830Y-112897838D01*
X198183083Y-112849504D01*
X198130632Y-112740585D01*
X198109737Y-112528601D01*
X198107041Y-112321682D01*
X198107041Y-111790712D01*
X197653469Y-111816825D01*
G36*
X199489354Y-112361306D02*
G01*
X199485566Y-112663179D01*
X199464195Y-112831319D01*
X199410225Y-112904763D01*
X199308643Y-112922547D01*
X199273367Y-112922871D01*
X199140087Y-112938985D01*
X199076940Y-113018191D01*
X199058206Y-113206785D01*
X199057381Y-113311647D01*
X199066216Y-113551455D01*
X199110128Y-113665073D01*
X199215223Y-113698866D01*
X199276290Y-113700422D01*
X199495199Y-113700422D01*
X199470678Y-114629164D01*
X199457941Y-115039429D01*
X199440905Y-115308219D01*
X199412408Y-115466821D01*
X199365289Y-115546525D01*
X199292384Y-115578620D01*
X199251769Y-115585512D01*
X199134583Y-115622836D01*
X199076776Y-115722403D01*
X199058280Y-115931035D01*
X199057381Y-116039084D01*
X199057381Y-116465048D01*
X199484536Y-116465048D01*
X199810669Y-116437030D01*
X200049005Y-116336754D01*
X200154094Y-116256751D01*
X200251263Y-116168115D01*
X200318997Y-116076795D01*
X200363547Y-115950873D01*
X200391163Y-115758428D01*
X200408097Y-115467541D01*
X200420600Y-115046292D01*
X200424789Y-114874438D01*
X200437787Y-114403149D01*
X200453076Y-114077840D01*
X200475093Y-113871714D01*
X200508274Y-113757975D01*
X200557057Y-113709826D01*
X200619177Y-113700422D01*
X200724467Y-113671926D01*
X200773477Y-113557466D01*
X200785272Y-113321723D01*
X200769352Y-113072159D01*
X200708351Y-112944806D01*
X200612483Y-112897838D01*
X200515388Y-112849190D01*
X200462938Y-112739511D01*
X200442238Y-112526143D01*
X200439694Y-112326197D01*
X200439694Y-111799742D01*
X199489354Y-111799742D01*
X199489354Y-112361306D01*
G37*
X199489354Y-112361306D02*
X199485566Y-112663179D01*
X199464195Y-112831319D01*
X199410225Y-112904763D01*
X199308643Y-112922547D01*
X199273367Y-112922871D01*
X199140087Y-112938985D01*
X199076940Y-113018191D01*
X199058206Y-113206785D01*
X199057381Y-113311647D01*
X199066216Y-113551455D01*
X199110128Y-113665073D01*
X199215223Y-113698866D01*
X199276290Y-113700422D01*
X199495199Y-113700422D01*
X199470678Y-114629164D01*
X199457941Y-115039429D01*
X199440905Y-115308219D01*
X199412408Y-115466821D01*
X199365289Y-115546525D01*
X199292384Y-115578620D01*
X199251769Y-115585512D01*
X199134583Y-115622836D01*
X199076776Y-115722403D01*
X199058280Y-115931035D01*
X199057381Y-116039084D01*
X199057381Y-116465048D01*
X199484536Y-116465048D01*
X199810669Y-116437030D01*
X200049005Y-116336754D01*
X200154094Y-116256751D01*
X200251263Y-116168115D01*
X200318997Y-116076795D01*
X200363547Y-115950873D01*
X200391163Y-115758428D01*
X200408097Y-115467541D01*
X200420600Y-115046292D01*
X200424789Y-114874438D01*
X200437787Y-114403149D01*
X200453076Y-114077840D01*
X200475093Y-113871714D01*
X200508274Y-113757975D01*
X200557057Y-113709826D01*
X200619177Y-113700422D01*
X200724467Y-113671926D01*
X200773477Y-113557466D01*
X200785272Y-113321723D01*
X200769352Y-113072159D01*
X200708351Y-112944806D01*
X200612483Y-112897838D01*
X200515388Y-112849190D01*
X200462938Y-112739511D01*
X200442238Y-112526143D01*
X200439694Y-112326197D01*
X200439694Y-111799742D01*
X199489354Y-111799742D01*
X199489354Y-112361306D01*
G36*
X202616967Y-112887363D02*
G01*
X202364059Y-112917886D01*
X202175662Y-112982705D01*
X202006620Y-113086905D01*
X201819582Y-113241014D01*
X201681540Y-113416774D01*
X201585400Y-113642010D01*
X201524068Y-113944548D01*
X201490448Y-114352211D01*
X201477447Y-114892824D01*
X201476429Y-115166355D01*
X201476429Y-116465048D01*
X201908401Y-116465048D01*
X202178733Y-116451589D01*
X202311218Y-116404431D01*
X202340374Y-116333237D01*
X202357704Y-116252519D01*
X202440012Y-116259018D01*
X202595267Y-116333237D01*
X202839585Y-116410955D01*
X203176148Y-116457569D01*
X203371455Y-116465048D01*
X203686704Y-116453420D01*
X203899097Y-116404064D01*
X204077824Y-116295269D01*
X204174895Y-116212951D01*
X204333829Y-116055313D01*
X204418429Y-115904292D01*
X204451769Y-115696461D01*
X204457041Y-115437364D01*
X204453615Y-115337078D01*
X203622899Y-115337078D01*
X203583496Y-115563750D01*
X203498393Y-115661058D01*
X203255719Y-115752708D01*
X202944391Y-115765123D01*
X202648324Y-115700184D01*
X202532387Y-115639401D01*
X202378791Y-115450388D01*
X202340374Y-115290038D01*
X202347946Y-115179672D01*
X202395311Y-115117446D01*
X202519446Y-115092174D01*
X202757327Y-115092670D01*
X202966735Y-115100549D01*
X203291079Y-115117652D01*
X203481410Y-115145508D01*
X203576473Y-115198082D01*
X203615013Y-115289342D01*
X203622899Y-115337078D01*
X204453615Y-115337078D01*
X204446389Y-115125621D01*
X204401107Y-114922277D01*
X204301210Y-114763562D01*
X204217880Y-114674324D01*
X204088701Y-114559211D01*
X203950108Y-114484638D01*
X203758034Y-114438586D01*
X203468410Y-114409037D01*
X203181146Y-114391578D01*
X202804725Y-114367982D01*
X202567432Y-114340551D01*
X202435689Y-114300042D01*
X202375919Y-114237207D01*
X202357375Y-114164762D01*
X202397681Y-113933681D01*
X202583216Y-113776173D01*
X202897915Y-113703844D01*
X203000184Y-113700422D01*
X203280888Y-113721093D01*
X203513150Y-113772794D01*
X203564367Y-113794560D01*
X203703177Y-113835843D01*
X203842999Y-113777015D01*
X203990660Y-113648804D01*
X204178501Y-113441913D01*
X204221483Y-113291156D01*
X204117515Y-113155340D01*
X203960272Y-113049569D01*
X203754007Y-112954546D01*
X203494408Y-112901278D01*
X203130318Y-112880826D01*
X202988333Y-112879751D01*
X202616967Y-112887363D01*
G37*
X202616967Y-112887363D02*
X202364059Y-112917886D01*
X202175662Y-112982705D01*
X202006620Y-113086905D01*
X201819582Y-113241014D01*
X201681540Y-113416774D01*
X201585400Y-113642010D01*
X201524068Y-113944548D01*
X201490448Y-114352211D01*
X201477447Y-114892824D01*
X201476429Y-115166355D01*
X201476429Y-116465048D01*
X201908401Y-116465048D01*
X202178733Y-116451589D01*
X202311218Y-116404431D01*
X202340374Y-116333237D01*
X202357704Y-116252519D01*
X202440012Y-116259018D01*
X202595267Y-116333237D01*
X202839585Y-116410955D01*
X203176148Y-116457569D01*
X203371455Y-116465048D01*
X203686704Y-116453420D01*
X203899097Y-116404064D01*
X204077824Y-116295269D01*
X204174895Y-116212951D01*
X204333829Y-116055313D01*
X204418429Y-115904292D01*
X204451769Y-115696461D01*
X204457041Y-115437364D01*
X204453615Y-115337078D01*
X203622899Y-115337078D01*
X203583496Y-115563750D01*
X203498393Y-115661058D01*
X203255719Y-115752708D01*
X202944391Y-115765123D01*
X202648324Y-115700184D01*
X202532387Y-115639401D01*
X202378791Y-115450388D01*
X202340374Y-115290038D01*
X202347946Y-115179672D01*
X202395311Y-115117446D01*
X202519446Y-115092174D01*
X202757327Y-115092670D01*
X202966735Y-115100549D01*
X203291079Y-115117652D01*
X203481410Y-115145508D01*
X203576473Y-115198082D01*
X203615013Y-115289342D01*
X203622899Y-115337078D01*
X204453615Y-115337078D01*
X204446389Y-115125621D01*
X204401107Y-114922277D01*
X204301210Y-114763562D01*
X204217880Y-114674324D01*
X204088701Y-114559211D01*
X203950108Y-114484638D01*
X203758034Y-114438586D01*
X203468410Y-114409037D01*
X203181146Y-114391578D01*
X202804725Y-114367982D01*
X202567432Y-114340551D01*
X202435689Y-114300042D01*
X202375919Y-114237207D01*
X202357375Y-114164762D01*
X202397681Y-113933681D01*
X202583216Y-113776173D01*
X202897915Y-113703844D01*
X203000184Y-113700422D01*
X203280888Y-113721093D01*
X203513150Y-113772794D01*
X203564367Y-113794560D01*
X203703177Y-113835843D01*
X203842999Y-113777015D01*
X203990660Y-113648804D01*
X204178501Y-113441913D01*
X204221483Y-113291156D01*
X204117515Y-113155340D01*
X203960272Y-113049569D01*
X203754007Y-112954546D01*
X203494408Y-112901278D01*
X203130318Y-112880826D01*
X202988333Y-112879751D01*
X202616967Y-112887363D01*
G36*
X208280257Y-112876693D02*
G01*
X207920754Y-113037928D01*
X207760132Y-113179741D01*
X207515440Y-113453598D01*
X207349883Y-113243126D01*
X207052013Y-112993493D01*
X206679058Y-112866179D01*
X206281175Y-112864457D01*
X205908516Y-112991602D01*
X205712510Y-113136224D01*
X205552987Y-113323066D01*
X205435875Y-113551975D01*
X205355513Y-113850402D01*
X205306240Y-114245798D01*
X205282394Y-114765612D01*
X205277789Y-115243949D01*
X205277789Y-116465048D01*
X206228129Y-116465048D01*
X206228129Y-115255524D01*
X206230244Y-114769019D01*
X206239143Y-114424634D01*
X206258656Y-114191723D01*
X206292615Y-114039640D01*
X206344849Y-113937743D01*
X206400918Y-113873211D01*
X206660142Y-113723192D01*
X206950797Y-113728637D01*
X207140358Y-113822795D01*
X207207610Y-113888716D01*
X207256470Y-113991889D01*
X207291388Y-114161023D01*
X207316815Y-114424826D01*
X207337199Y-114812008D01*
X207351258Y-115183509D01*
X207394456Y-116421851D01*
X207848027Y-116447964D01*
X208301599Y-116474078D01*
X208301599Y-115299309D01*
X208303035Y-114826188D01*
X208310626Y-114493647D01*
X208329296Y-114269480D01*
X208363970Y-114121483D01*
X208419573Y-114017450D01*
X208501028Y-113925177D01*
X208513658Y-113912481D01*
X208709724Y-113766408D01*
X208896698Y-113700706D01*
X208906360Y-113700422D01*
X209089481Y-113759109D01*
X209287812Y-113901473D01*
X209299063Y-113912481D01*
X209384350Y-114005771D01*
X209443054Y-114106709D01*
X209480129Y-114247584D01*
X209500528Y-114460685D01*
X209509205Y-114778303D01*
X209511113Y-115232727D01*
X209511122Y-115294794D01*
X209511122Y-116465048D01*
X210375068Y-116465048D01*
X210375068Y-112922871D01*
X209943095Y-112922871D01*
X209683996Y-112931968D01*
X209554774Y-112970582D01*
X209512971Y-113055694D01*
X209511122Y-113095660D01*
X209474943Y-113236048D01*
X209424728Y-113268449D01*
X209340827Y-113204328D01*
X209338333Y-113184273D01*
X209268953Y-113092519D01*
X209098579Y-112976758D01*
X209064833Y-112958665D01*
X208680242Y-112847116D01*
X208280257Y-112876693D01*
G37*
X208280257Y-112876693D02*
X207920754Y-113037928D01*
X207760132Y-113179741D01*
X207515440Y-113453598D01*
X207349883Y-113243126D01*
X207052013Y-112993493D01*
X206679058Y-112866179D01*
X206281175Y-112864457D01*
X205908516Y-112991602D01*
X205712510Y-113136224D01*
X205552987Y-113323066D01*
X205435875Y-113551975D01*
X205355513Y-113850402D01*
X205306240Y-114245798D01*
X205282394Y-114765612D01*
X205277789Y-115243949D01*
X205277789Y-116465048D01*
X206228129Y-116465048D01*
X206228129Y-115255524D01*
X206230244Y-114769019D01*
X206239143Y-114424634D01*
X206258656Y-114191723D01*
X206292615Y-114039640D01*
X206344849Y-113937743D01*
X206400918Y-113873211D01*
X206660142Y-113723192D01*
X206950797Y-113728637D01*
X207140358Y-113822795D01*
X207207610Y-113888716D01*
X207256470Y-113991889D01*
X207291388Y-114161023D01*
X207316815Y-114424826D01*
X207337199Y-114812008D01*
X207351258Y-115183509D01*
X207394456Y-116421851D01*
X207848027Y-116447964D01*
X208301599Y-116474078D01*
X208301599Y-115299309D01*
X208303035Y-114826188D01*
X208310626Y-114493647D01*
X208329296Y-114269480D01*
X208363970Y-114121483D01*
X208419573Y-114017450D01*
X208501028Y-113925177D01*
X208513658Y-113912481D01*
X208709724Y-113766408D01*
X208896698Y-113700706D01*
X208906360Y-113700422D01*
X209089481Y-113759109D01*
X209287812Y-113901473D01*
X209299063Y-113912481D01*
X209384350Y-114005771D01*
X209443054Y-114106709D01*
X209480129Y-114247584D01*
X209500528Y-114460685D01*
X209509205Y-114778303D01*
X209511113Y-115232727D01*
X209511122Y-115294794D01*
X209511122Y-116465048D01*
X210375068Y-116465048D01*
X210375068Y-112922871D01*
X209943095Y-112922871D01*
X209683996Y-112931968D01*
X209554774Y-112970582D01*
X209512971Y-113055694D01*
X209511122Y-113095660D01*
X209474943Y-113236048D01*
X209424728Y-113268449D01*
X209340827Y-113204328D01*
X209338333Y-113184273D01*
X209268953Y-113092519D01*
X209098579Y-112976758D01*
X209064833Y-112958665D01*
X208680242Y-112847116D01*
X208280257Y-112876693D01*
G36*
X214446740Y-112858274D02*
G01*
X214032755Y-112987168D01*
X213684927Y-113233339D01*
X213539863Y-113412839D01*
X213419231Y-113657492D01*
X213308045Y-113984099D01*
X213219298Y-114337524D01*
X213165982Y-114662632D01*
X213161090Y-114904288D01*
X213174632Y-114962773D01*
X213233230Y-115015159D01*
X213377937Y-115050683D01*
X213633132Y-115071936D01*
X214023192Y-115081510D01*
X214303309Y-115082735D01*
X214801543Y-115089794D01*
X215152853Y-115110440D01*
X215347696Y-115143878D01*
X215385952Y-115173057D01*
X215329760Y-115290331D01*
X215192598Y-115456381D01*
X215173893Y-115475437D01*
X214890142Y-115644802D01*
X214537116Y-115685770D01*
X214165564Y-115594245D01*
X214098465Y-115562265D01*
X213941594Y-115494113D01*
X213823973Y-115506026D01*
X213684053Y-115616920D01*
X213580678Y-115721396D01*
X213416597Y-115910466D01*
X213372929Y-116027624D01*
X213416766Y-116095014D01*
X213793446Y-116308802D01*
X214250271Y-116438286D01*
X214732815Y-116479037D01*
X215186653Y-116426630D01*
X215557361Y-116276637D01*
X215567564Y-116269963D01*
X215788046Y-116070374D01*
X215997067Y-115797913D01*
X216061513Y-115686800D01*
X216162290Y-115466467D01*
X216218734Y-115254538D01*
X216239408Y-114993753D01*
X216232875Y-114626855D01*
X216230093Y-114559505D01*
X216210143Y-114267905D01*
X215383284Y-114267905D01*
X215291054Y-114346471D01*
X215057482Y-114382979D01*
X214688974Y-114391578D01*
X214345300Y-114389439D01*
X214142385Y-114376514D01*
X214048198Y-114343040D01*
X214030713Y-114279254D01*
X214051234Y-114197191D01*
X214208279Y-113893609D01*
X214457906Y-113733227D01*
X214701915Y-113700422D01*
X214973691Y-113739459D01*
X215167903Y-113881286D01*
X215206893Y-113928059D01*
X215349966Y-114133146D01*
X215383284Y-114267905D01*
X216210143Y-114267905D01*
X216201769Y-114145516D01*
X216151180Y-113850211D01*
X216066476Y-113619798D01*
X215994753Y-113490971D01*
X215700888Y-113163005D01*
X215319282Y-112947417D01*
X214888407Y-112845432D01*
X214446740Y-112858274D01*
G37*
X214446740Y-112858274D02*
X214032755Y-112987168D01*
X213684927Y-113233339D01*
X213539863Y-113412839D01*
X213419231Y-113657492D01*
X213308045Y-113984099D01*
X213219298Y-114337524D01*
X213165982Y-114662632D01*
X213161090Y-114904288D01*
X213174632Y-114962773D01*
X213233230Y-115015159D01*
X213377937Y-115050683D01*
X213633132Y-115071936D01*
X214023192Y-115081510D01*
X214303309Y-115082735D01*
X214801543Y-115089794D01*
X215152853Y-115110440D01*
X215347696Y-115143878D01*
X215385952Y-115173057D01*
X215329760Y-115290331D01*
X215192598Y-115456381D01*
X215173893Y-115475437D01*
X214890142Y-115644802D01*
X214537116Y-115685770D01*
X214165564Y-115594245D01*
X214098465Y-115562265D01*
X213941594Y-115494113D01*
X213823973Y-115506026D01*
X213684053Y-115616920D01*
X213580678Y-115721396D01*
X213416597Y-115910466D01*
X213372929Y-116027624D01*
X213416766Y-116095014D01*
X213793446Y-116308802D01*
X214250271Y-116438286D01*
X214732815Y-116479037D01*
X215186653Y-116426630D01*
X215557361Y-116276637D01*
X215567564Y-116269963D01*
X215788046Y-116070374D01*
X215997067Y-115797913D01*
X216061513Y-115686800D01*
X216162290Y-115466467D01*
X216218734Y-115254538D01*
X216239408Y-114993753D01*
X216232875Y-114626855D01*
X216230093Y-114559505D01*
X216210143Y-114267905D01*
X215383284Y-114267905D01*
X215291054Y-114346471D01*
X215057482Y-114382979D01*
X214688974Y-114391578D01*
X214345300Y-114389439D01*
X214142385Y-114376514D01*
X214048198Y-114343040D01*
X214030713Y-114279254D01*
X214051234Y-114197191D01*
X214208279Y-113893609D01*
X214457906Y-113733227D01*
X214701915Y-113700422D01*
X214973691Y-113739459D01*
X215167903Y-113881286D01*
X215206893Y-113928059D01*
X215349966Y-114133146D01*
X215383284Y-114267905D01*
X216210143Y-114267905D01*
X216201769Y-114145516D01*
X216151180Y-113850211D01*
X216066476Y-113619798D01*
X215994753Y-113490971D01*
X215700888Y-113163005D01*
X215319282Y-112947417D01*
X214888407Y-112845432D01*
X214446740Y-112858274D01*
G36*
X217029855Y-113290048D02*
G01*
X217039933Y-113447437D01*
X217079410Y-113596002D01*
X217165514Y-113764584D01*
X217315477Y-113982021D01*
X217546530Y-114277156D01*
X217817003Y-114607565D01*
X218601745Y-115557905D01*
X217771400Y-115582632D01*
X216941054Y-115607359D01*
X216941054Y-116465048D01*
X218308968Y-116465048D01*
X218778621Y-116461583D01*
X219186138Y-116452015D01*
X219500800Y-116437587D01*
X219691887Y-116419538D01*
X219734478Y-116407452D01*
X219771945Y-116290647D01*
X219791334Y-116075218D01*
X219792075Y-116022068D01*
X219780377Y-115879090D01*
X219733939Y-115734229D01*
X219635741Y-115560855D01*
X219468764Y-115332338D01*
X219215989Y-115022048D01*
X218959270Y-114718950D01*
X218126466Y-113743619D01*
X218916073Y-113718779D01*
X219705680Y-113693938D01*
X219705680Y-112922871D01*
X217027449Y-112922871D01*
X217029855Y-113290048D01*
G37*
X217029855Y-113290048D02*
X217039933Y-113447437D01*
X217079410Y-113596002D01*
X217165514Y-113764584D01*
X217315477Y-113982021D01*
X217546530Y-114277156D01*
X217817003Y-114607565D01*
X218601745Y-115557905D01*
X217771400Y-115582632D01*
X216941054Y-115607359D01*
X216941054Y-116465048D01*
X218308968Y-116465048D01*
X218778621Y-116461583D01*
X219186138Y-116452015D01*
X219500800Y-116437587D01*
X219691887Y-116419538D01*
X219734478Y-116407452D01*
X219771945Y-116290647D01*
X219791334Y-116075218D01*
X219792075Y-116022068D01*
X219780377Y-115879090D01*
X219733939Y-115734229D01*
X219635741Y-115560855D01*
X219468764Y-115332338D01*
X219215989Y-115022048D01*
X218959270Y-114718950D01*
X218126466Y-113743619D01*
X218916073Y-113718779D01*
X219705680Y-113693938D01*
X219705680Y-112922871D01*
X217027449Y-112922871D01*
X217029855Y-113290048D01*
G36*
X220569626Y-116465048D02*
G01*
X221519966Y-116465048D01*
X221519966Y-112922871D01*
X220569626Y-112922871D01*
X220569626Y-116465048D01*
G37*
X220569626Y-116465048D02*
X221519966Y-116465048D01*
X221519966Y-112922871D01*
X220569626Y-112922871D01*
X220569626Y-116465048D01*
G36*
X223764154Y-111397551D02*
G01*
X223422994Y-111456354D01*
X223068555Y-111554397D01*
X222750480Y-111673829D01*
X222518414Y-111796803D01*
X222433359Y-111876023D01*
X222435884Y-111991606D01*
X222498886Y-112182405D01*
X222595618Y-112392293D01*
X222699335Y-112565144D01*
X222783292Y-112644830D01*
X222798925Y-112643186D01*
X223280327Y-112433384D01*
X223740042Y-112314552D01*
X224153770Y-112284574D01*
X224497214Y-112341336D01*
X224746076Y-112482725D01*
X224876057Y-112706626D01*
X224889354Y-112825078D01*
X224856653Y-113024204D01*
X224742764Y-113181918D01*
X224524003Y-113313270D01*
X224176688Y-113433307D01*
X223770869Y-113535806D01*
X223344253Y-113644168D01*
X223042125Y-113750052D01*
X222817609Y-113873120D01*
X222655094Y-114003800D01*
X222489425Y-114168977D01*
X222393276Y-114322502D01*
X222343685Y-114523442D01*
X222317689Y-114830868D01*
X222315015Y-114878617D01*
X222305663Y-115219920D01*
X222331163Y-115452924D01*
X222403481Y-115640597D01*
X222485128Y-115773891D01*
X222782380Y-116099728D01*
X223174546Y-116317303D01*
X223681070Y-116434431D01*
X224194905Y-116461007D01*
X224752983Y-116431969D01*
X225191555Y-116347276D01*
X225359307Y-116290349D01*
X225706513Y-116140696D01*
X225905779Y-116007369D01*
X225976334Y-115862993D01*
X225937409Y-115680192D01*
X225876615Y-115553942D01*
X225760628Y-115350098D01*
X225674613Y-115223465D01*
X225659628Y-115208926D01*
X225559693Y-115225190D01*
X225361381Y-115302637D01*
X225229593Y-115364428D01*
X224813618Y-115517907D01*
X224381704Y-115589015D01*
X223969064Y-115581927D01*
X223610912Y-115500821D01*
X223342460Y-115349874D01*
X223198922Y-115133262D01*
X223196264Y-115123239D01*
X223185851Y-114899313D01*
X223289872Y-114718582D01*
X223523701Y-114570485D01*
X223902712Y-114444458D01*
X224317211Y-114353114D01*
X224815127Y-114240143D01*
X225173001Y-114110387D01*
X225423568Y-113945324D01*
X225599566Y-113726431D01*
X225671796Y-113586699D01*
X225820398Y-113086194D01*
X225812038Y-112618756D01*
X225661830Y-112201725D01*
X225384883Y-111852444D01*
X224996311Y-111588254D01*
X224511224Y-111426496D01*
X223944733Y-111384511D01*
X223764154Y-111397551D01*
G37*
X223764154Y-111397551D02*
X223422994Y-111456354D01*
X223068555Y-111554397D01*
X222750480Y-111673829D01*
X222518414Y-111796803D01*
X222433359Y-111876023D01*
X222435884Y-111991606D01*
X222498886Y-112182405D01*
X222595618Y-112392293D01*
X222699335Y-112565144D01*
X222783292Y-112644830D01*
X222798925Y-112643186D01*
X223280327Y-112433384D01*
X223740042Y-112314552D01*
X224153770Y-112284574D01*
X224497214Y-112341336D01*
X224746076Y-112482725D01*
X224876057Y-112706626D01*
X224889354Y-112825078D01*
X224856653Y-113024204D01*
X224742764Y-113181918D01*
X224524003Y-113313270D01*
X224176688Y-113433307D01*
X223770869Y-113535806D01*
X223344253Y-113644168D01*
X223042125Y-113750052D01*
X222817609Y-113873120D01*
X222655094Y-114003800D01*
X222489425Y-114168977D01*
X222393276Y-114322502D01*
X222343685Y-114523442D01*
X222317689Y-114830868D01*
X222315015Y-114878617D01*
X222305663Y-115219920D01*
X222331163Y-115452924D01*
X222403481Y-115640597D01*
X222485128Y-115773891D01*
X222782380Y-116099728D01*
X223174546Y-116317303D01*
X223681070Y-116434431D01*
X224194905Y-116461007D01*
X224752983Y-116431969D01*
X225191555Y-116347276D01*
X225359307Y-116290349D01*
X225706513Y-116140696D01*
X225905779Y-116007369D01*
X225976334Y-115862993D01*
X225937409Y-115680192D01*
X225876615Y-115553942D01*
X225760628Y-115350098D01*
X225674613Y-115223465D01*
X225659628Y-115208926D01*
X225559693Y-115225190D01*
X225361381Y-115302637D01*
X225229593Y-115364428D01*
X224813618Y-115517907D01*
X224381704Y-115589015D01*
X223969064Y-115581927D01*
X223610912Y-115500821D01*
X223342460Y-115349874D01*
X223198922Y-115133262D01*
X223196264Y-115123239D01*
X223185851Y-114899313D01*
X223289872Y-114718582D01*
X223523701Y-114570485D01*
X223902712Y-114444458D01*
X224317211Y-114353114D01*
X224815127Y-114240143D01*
X225173001Y-114110387D01*
X225423568Y-113945324D01*
X225599566Y-113726431D01*
X225671796Y-113586699D01*
X225820398Y-113086194D01*
X225812038Y-112618756D01*
X225661830Y-112201725D01*
X225384883Y-111852444D01*
X224996311Y-111588254D01*
X224511224Y-111426496D01*
X223944733Y-111384511D01*
X223764154Y-111397551D01*
G36*
X159342903Y-115150042D02*
G01*
X159274877Y-115154729D01*
X159214460Y-115162827D01*
X159196629Y-115166313D01*
X159079878Y-115197966D01*
X158971355Y-115241198D01*
X158869942Y-115296619D01*
X158774520Y-115364839D01*
X158684249Y-115446192D01*
X158602774Y-115536820D01*
X158534583Y-115632761D01*
X158479177Y-115734955D01*
X158436059Y-115844342D01*
X158404730Y-115961862D01*
X158401059Y-115980029D01*
X158392922Y-116037434D01*
X158388373Y-116104044D01*
X158387374Y-116175103D01*
X158389885Y-116245850D01*
X158395869Y-116311529D01*
X158404195Y-116362396D01*
X158436711Y-116481816D01*
X158481902Y-116594732D01*
X158539204Y-116700396D01*
X158608052Y-116798059D01*
X158687884Y-116886974D01*
X158778136Y-116966392D01*
X158878244Y-117035565D01*
X158935986Y-117068282D01*
X159006196Y-117101060D01*
X159083785Y-117130153D01*
X159162321Y-117153356D01*
X159221714Y-117166232D01*
X159272455Y-117173241D01*
X159330277Y-117178199D01*
X159390355Y-117180926D01*
X159447867Y-117181241D01*
X159497990Y-117178964D01*
X159515628Y-117177198D01*
X159637156Y-117155336D01*
X159752691Y-117120611D01*
X159861536Y-117073677D01*
X159962990Y-117015188D01*
X160056354Y-116945796D01*
X160140928Y-116866156D01*
X160216012Y-116776919D01*
X160280907Y-116678739D01*
X160334913Y-116572269D01*
X160377330Y-116458163D01*
X160405668Y-116346251D01*
X160413510Y-116292110D01*
X160417974Y-116228467D01*
X160419103Y-116159929D01*
X160419037Y-116157829D01*
X159982562Y-116157829D01*
X159976620Y-116252367D01*
X159957467Y-116341056D01*
X159925209Y-116423647D01*
X159879949Y-116499893D01*
X159821795Y-116569544D01*
X159798616Y-116592130D01*
X159728409Y-116647459D01*
X159650969Y-116690850D01*
X159567895Y-116721882D01*
X159480786Y-116740137D01*
X159391240Y-116745193D01*
X159300856Y-116736632D01*
X159270963Y-116730712D01*
X159186050Y-116704403D01*
X159107153Y-116665495D01*
X159035394Y-116615054D01*
X158971894Y-116554146D01*
X158917774Y-116483836D01*
X158874155Y-116405190D01*
X158843770Y-116324743D01*
X158835146Y-116293813D01*
X158829421Y-116266502D01*
X158826016Y-116238156D01*
X158824349Y-116204123D01*
X158823858Y-116165086D01*
X158827622Y-116082913D01*
X158840220Y-116009558D01*
X158862622Y-115941642D01*
X158895794Y-115875785D01*
X158915924Y-115843768D01*
X158971469Y-115772467D01*
X159034479Y-115712659D01*
X159103658Y-115664264D01*
X159177708Y-115627203D01*
X159255334Y-115601398D01*
X159335239Y-115586769D01*
X159416126Y-115583238D01*
X159496698Y-115590724D01*
X159575660Y-115609150D01*
X159651714Y-115638437D01*
X159723563Y-115678505D01*
X159789912Y-115729275D01*
X159849463Y-115790668D01*
X159900921Y-115862606D01*
X159924592Y-115905226D01*
X159956056Y-115981692D01*
X159975189Y-116062835D01*
X159982478Y-116150779D01*
X159982562Y-116157829D01*
X160419037Y-116157829D01*
X160416937Y-116091101D01*
X160411521Y-116026587D01*
X160402894Y-115970992D01*
X160402219Y-115967776D01*
X160369316Y-115847128D01*
X160324138Y-115733766D01*
X160267299Y-115628310D01*
X160199415Y-115531378D01*
X160121104Y-115443591D01*
X160032981Y-115365568D01*
X159935663Y-115297928D01*
X159829766Y-115241290D01*
X159715905Y-115196276D01*
X159604265Y-115165574D01*
X159549218Y-115156534D01*
X159484415Y-115150937D01*
X159414196Y-115148775D01*
X159342903Y-115150042D01*
G37*
X159342903Y-115150042D02*
X159274877Y-115154729D01*
X159214460Y-115162827D01*
X159196629Y-115166313D01*
X159079878Y-115197966D01*
X158971355Y-115241198D01*
X158869942Y-115296619D01*
X158774520Y-115364839D01*
X158684249Y-115446192D01*
X158602774Y-115536820D01*
X158534583Y-115632761D01*
X158479177Y-115734955D01*
X158436059Y-115844342D01*
X158404730Y-115961862D01*
X158401059Y-115980029D01*
X158392922Y-116037434D01*
X158388373Y-116104044D01*
X158387374Y-116175103D01*
X158389885Y-116245850D01*
X158395869Y-116311529D01*
X158404195Y-116362396D01*
X158436711Y-116481816D01*
X158481902Y-116594732D01*
X158539204Y-116700396D01*
X158608052Y-116798059D01*
X158687884Y-116886974D01*
X158778136Y-116966392D01*
X158878244Y-117035565D01*
X158935986Y-117068282D01*
X159006196Y-117101060D01*
X159083785Y-117130153D01*
X159162321Y-117153356D01*
X159221714Y-117166232D01*
X159272455Y-117173241D01*
X159330277Y-117178199D01*
X159390355Y-117180926D01*
X159447867Y-117181241D01*
X159497990Y-117178964D01*
X159515628Y-117177198D01*
X159637156Y-117155336D01*
X159752691Y-117120611D01*
X159861536Y-117073677D01*
X159962990Y-117015188D01*
X160056354Y-116945796D01*
X160140928Y-116866156D01*
X160216012Y-116776919D01*
X160280907Y-116678739D01*
X160334913Y-116572269D01*
X160377330Y-116458163D01*
X160405668Y-116346251D01*
X160413510Y-116292110D01*
X160417974Y-116228467D01*
X160419103Y-116159929D01*
X160419037Y-116157829D01*
X159982562Y-116157829D01*
X159976620Y-116252367D01*
X159957467Y-116341056D01*
X159925209Y-116423647D01*
X159879949Y-116499893D01*
X159821795Y-116569544D01*
X159798616Y-116592130D01*
X159728409Y-116647459D01*
X159650969Y-116690850D01*
X159567895Y-116721882D01*
X159480786Y-116740137D01*
X159391240Y-116745193D01*
X159300856Y-116736632D01*
X159270963Y-116730712D01*
X159186050Y-116704403D01*
X159107153Y-116665495D01*
X159035394Y-116615054D01*
X158971894Y-116554146D01*
X158917774Y-116483836D01*
X158874155Y-116405190D01*
X158843770Y-116324743D01*
X158835146Y-116293813D01*
X158829421Y-116266502D01*
X158826016Y-116238156D01*
X158824349Y-116204123D01*
X158823858Y-116165086D01*
X158827622Y-116082913D01*
X158840220Y-116009558D01*
X158862622Y-115941642D01*
X158895794Y-115875785D01*
X158915924Y-115843768D01*
X158971469Y-115772467D01*
X159034479Y-115712659D01*
X159103658Y-115664264D01*
X159177708Y-115627203D01*
X159255334Y-115601398D01*
X159335239Y-115586769D01*
X159416126Y-115583238D01*
X159496698Y-115590724D01*
X159575660Y-115609150D01*
X159651714Y-115638437D01*
X159723563Y-115678505D01*
X159789912Y-115729275D01*
X159849463Y-115790668D01*
X159900921Y-115862606D01*
X159924592Y-115905226D01*
X159956056Y-115981692D01*
X159975189Y-116062835D01*
X159982478Y-116150779D01*
X159982562Y-116157829D01*
X160419037Y-116157829D01*
X160416937Y-116091101D01*
X160411521Y-116026587D01*
X160402894Y-115970992D01*
X160402219Y-115967776D01*
X160369316Y-115847128D01*
X160324138Y-115733766D01*
X160267299Y-115628310D01*
X160199415Y-115531378D01*
X160121104Y-115443591D01*
X160032981Y-115365568D01*
X159935663Y-115297928D01*
X159829766Y-115241290D01*
X159715905Y-115196276D01*
X159604265Y-115165574D01*
X159549218Y-115156534D01*
X159484415Y-115150937D01*
X159414196Y-115148775D01*
X159342903Y-115150042D01*
G36*
X160785628Y-116749286D02*
G01*
X160604200Y-116749286D01*
X160604200Y-117184714D01*
X161221014Y-117184714D01*
X161222850Y-115985472D01*
X161224686Y-114786229D01*
X161402486Y-114782153D01*
X161402486Y-114347172D01*
X160785628Y-114347172D01*
X160785628Y-116749286D01*
G37*
X160785628Y-116749286D02*
X160604200Y-116749286D01*
X160604200Y-117184714D01*
X161221014Y-117184714D01*
X161222850Y-115985472D01*
X161224686Y-114786229D01*
X161402486Y-114782153D01*
X161402486Y-114347172D01*
X160785628Y-114347172D01*
X160785628Y-116749286D01*
G36*
X158386948Y-117665500D02*
G01*
X158404004Y-117746379D01*
X158433552Y-117820359D01*
X158474895Y-117886601D01*
X158527336Y-117944268D01*
X158590179Y-117992520D01*
X158662725Y-118030521D01*
X158702828Y-118045549D01*
X158712137Y-118048302D01*
X158722859Y-118050661D01*
X158736171Y-118052665D01*
X158753251Y-118054352D01*
X158775273Y-118055760D01*
X158803414Y-118056929D01*
X158838851Y-118057896D01*
X158882760Y-118058701D01*
X158936318Y-118059380D01*
X159000699Y-118059973D01*
X159077081Y-118060518D01*
X159166641Y-118061054D01*
X159179986Y-118061129D01*
X159617228Y-118063561D01*
X159617228Y-118029771D01*
X159610469Y-117968926D01*
X159591279Y-117906970D01*
X159561290Y-117846387D01*
X159522133Y-117789659D01*
X159475439Y-117739270D01*
X159422841Y-117697704D01*
X159384664Y-117675808D01*
X159364808Y-117666152D01*
X159346911Y-117657874D01*
X159329721Y-117650868D01*
X159311987Y-117645027D01*
X159292457Y-117640246D01*
X159269880Y-117636418D01*
X159243004Y-117633437D01*
X159210578Y-117631198D01*
X159171350Y-117629595D01*
X159124069Y-117628521D01*
X159067483Y-117627870D01*
X159000340Y-117627537D01*
X158921390Y-117627416D01*
X158829380Y-117627400D01*
X158382152Y-117627400D01*
X158386948Y-117665500D01*
G37*
X158386948Y-117665500D02*
X158404004Y-117746379D01*
X158433552Y-117820359D01*
X158474895Y-117886601D01*
X158527336Y-117944268D01*
X158590179Y-117992520D01*
X158662725Y-118030521D01*
X158702828Y-118045549D01*
X158712137Y-118048302D01*
X158722859Y-118050661D01*
X158736171Y-118052665D01*
X158753251Y-118054352D01*
X158775273Y-118055760D01*
X158803414Y-118056929D01*
X158838851Y-118057896D01*
X158882760Y-118058701D01*
X158936318Y-118059380D01*
X159000699Y-118059973D01*
X159077081Y-118060518D01*
X159166641Y-118061054D01*
X159179986Y-118061129D01*
X159617228Y-118063561D01*
X159617228Y-118029771D01*
X159610469Y-117968926D01*
X159591279Y-117906970D01*
X159561290Y-117846387D01*
X159522133Y-117789659D01*
X159475439Y-117739270D01*
X159422841Y-117697704D01*
X159384664Y-117675808D01*
X159364808Y-117666152D01*
X159346911Y-117657874D01*
X159329721Y-117650868D01*
X159311987Y-117645027D01*
X159292457Y-117640246D01*
X159269880Y-117636418D01*
X159243004Y-117633437D01*
X159210578Y-117631198D01*
X159171350Y-117629595D01*
X159124069Y-117628521D01*
X159067483Y-117627870D01*
X159000340Y-117627537D01*
X158921390Y-117627416D01*
X158829380Y-117627400D01*
X158382152Y-117627400D01*
X158386948Y-117665500D01*
%LPC*%
D12*
X156478745Y-109756185D03*
X174258745Y-94516185D03*
X166638745Y-109756185D03*
X164098745Y-94516185D03*
X159018745Y-94516185D03*
X176798745Y-109756185D03*
X156478745Y-94516185D03*
X151398745Y-94516185D03*
X171718745Y-109756185D03*
X179338745Y-94516185D03*
X164098745Y-109756185D03*
X153938745Y-109756185D03*
X159018745Y-109756185D03*
X161558745Y-109756185D03*
X174258745Y-109756185D03*
X169178745Y-109756185D03*
X171718745Y-94516185D03*
X169178745Y-94516185D03*
X179338745Y-109756185D03*
X176798745Y-94516185D03*
X153938745Y-94516185D03*
X151398745Y-109756185D03*
X166638745Y-94516185D03*
X161558745Y-94516185D03*
X150203000Y-111055000D03*
X152743000Y-111055000D03*
X155283000Y-111055000D03*
X157823000Y-111055000D03*
X160363000Y-111055000D03*
X162903000Y-111055000D03*
X165443000Y-111055000D03*
X167983000Y-111055000D03*
X170523000Y-111055000D03*
X173063000Y-111055000D03*
X175603000Y-111055000D03*
X178143000Y-111055000D03*
X178143000Y-95815000D03*
X175603000Y-95815000D03*
X173063000Y-95815000D03*
X170523000Y-95815000D03*
X167983000Y-95815000D03*
X165443000Y-95815000D03*
X162903000Y-95815000D03*
X160363000Y-95815000D03*
X157823000Y-95815000D03*
X155283000Y-95815000D03*
X152743000Y-95815000D03*
X150203000Y-95815000D03*
D13*
X150622000Y-116078000D03*
X155702000Y-116078000D03*
G36*
G01*
X163919000Y-69089000D02*
X165519000Y-69089000D01*
G75*
G02*
X165570000Y-69140000I0J-51000D01*
G01*
X165570000Y-70740000D01*
G75*
G02*
X165519000Y-70791000I-51000J0D01*
G01*
X163919000Y-70791000D01*
G75*
G02*
X163868000Y-70740000I0J51000D01*
G01*
X163868000Y-69140000D01*
G75*
G02*
X163919000Y-69089000I51000J0D01*
G01*
G37*
D14*
X164719000Y-62140000D03*
G36*
G01*
X164118999Y-66589000D02*
X165319001Y-66589000D01*
G75*
G02*
X165370000Y-66639999I0J-50999D01*
G01*
X165370000Y-68240001D01*
G75*
G02*
X165319001Y-68291000I-50999J0D01*
G01*
X164118999Y-68291000D01*
G75*
G02*
X164068000Y-68240001I0J50999D01*
G01*
X164068000Y-66639999D01*
G75*
G02*
X164118999Y-66589000I50999J0D01*
G01*
G37*
G36*
G01*
X164118999Y-63789000D02*
X165319001Y-63789000D01*
G75*
G02*
X165370000Y-63839999I0J-50999D01*
G01*
X165370000Y-65440001D01*
G75*
G02*
X165319001Y-65491000I-50999J0D01*
G01*
X164118999Y-65491000D01*
G75*
G02*
X164068000Y-65440001I0J50999D01*
G01*
X164068000Y-63839999D01*
G75*
G02*
X164118999Y-63789000I50999J0D01*
G01*
G37*
G36*
G01*
X182969000Y-69089000D02*
X184569000Y-69089000D01*
G75*
G02*
X184620000Y-69140000I0J-51000D01*
G01*
X184620000Y-70740000D01*
G75*
G02*
X184569000Y-70791000I-51000J0D01*
G01*
X182969000Y-70791000D01*
G75*
G02*
X182918000Y-70740000I0J51000D01*
G01*
X182918000Y-69140000D01*
G75*
G02*
X182969000Y-69089000I51000J0D01*
G01*
G37*
X183769000Y-62140000D03*
G36*
G01*
X183168999Y-66589000D02*
X184369001Y-66589000D01*
G75*
G02*
X184420000Y-66639999I0J-50999D01*
G01*
X184420000Y-68240001D01*
G75*
G02*
X184369001Y-68291000I-50999J0D01*
G01*
X183168999Y-68291000D01*
G75*
G02*
X183118000Y-68240001I0J50999D01*
G01*
X183118000Y-66639999D01*
G75*
G02*
X183168999Y-66589000I50999J0D01*
G01*
G37*
G36*
G01*
X183168999Y-63789000D02*
X184369001Y-63789000D01*
G75*
G02*
X184420000Y-63839999I0J-50999D01*
G01*
X184420000Y-65440001D01*
G75*
G02*
X184369001Y-65491000I-50999J0D01*
G01*
X183168999Y-65491000D01*
G75*
G02*
X183118000Y-65440001I0J50999D01*
G01*
X183118000Y-63839999D01*
G75*
G02*
X183168999Y-63789000I50999J0D01*
G01*
G37*
G36*
G01*
X202019000Y-69089000D02*
X203619000Y-69089000D01*
G75*
G02*
X203670000Y-69140000I0J-51000D01*
G01*
X203670000Y-70740000D01*
G75*
G02*
X203619000Y-70791000I-51000J0D01*
G01*
X202019000Y-70791000D01*
G75*
G02*
X201968000Y-70740000I0J51000D01*
G01*
X201968000Y-69140000D01*
G75*
G02*
X202019000Y-69089000I51000J0D01*
G01*
G37*
X202819000Y-62140000D03*
G36*
G01*
X202218999Y-66589000D02*
X203419001Y-66589000D01*
G75*
G02*
X203470000Y-66639999I0J-50999D01*
G01*
X203470000Y-68240001D01*
G75*
G02*
X203419001Y-68291000I-50999J0D01*
G01*
X202218999Y-68291000D01*
G75*
G02*
X202168000Y-68240001I0J50999D01*
G01*
X202168000Y-66639999D01*
G75*
G02*
X202218999Y-66589000I50999J0D01*
G01*
G37*
G36*
G01*
X202218999Y-63789000D02*
X203419001Y-63789000D01*
G75*
G02*
X203470000Y-63839999I0J-50999D01*
G01*
X203470000Y-65440001D01*
G75*
G02*
X203419001Y-65491000I-50999J0D01*
G01*
X202218999Y-65491000D01*
G75*
G02*
X202168000Y-65440001I0J50999D01*
G01*
X202168000Y-63839999D01*
G75*
G02*
X202218999Y-63789000I50999J0D01*
G01*
G37*
G36*
G01*
X221069000Y-69089000D02*
X222669000Y-69089000D01*
G75*
G02*
X222720000Y-69140000I0J-51000D01*
G01*
X222720000Y-70740000D01*
G75*
G02*
X222669000Y-70791000I-51000J0D01*
G01*
X221069000Y-70791000D01*
G75*
G02*
X221018000Y-70740000I0J51000D01*
G01*
X221018000Y-69140000D01*
G75*
G02*
X221069000Y-69089000I51000J0D01*
G01*
G37*
X221869000Y-62140000D03*
G36*
G01*
X221268999Y-66589000D02*
X222469001Y-66589000D01*
G75*
G02*
X222520000Y-66639999I0J-50999D01*
G01*
X222520000Y-68240001D01*
G75*
G02*
X222469001Y-68291000I-50999J0D01*
G01*
X221268999Y-68291000D01*
G75*
G02*
X221218000Y-68240001I0J50999D01*
G01*
X221218000Y-66639999D01*
G75*
G02*
X221268999Y-66589000I50999J0D01*
G01*
G37*
G36*
G01*
X221268999Y-63789000D02*
X222469001Y-63789000D01*
G75*
G02*
X222520000Y-63839999I0J-50999D01*
G01*
X222520000Y-65440001D01*
G75*
G02*
X222469001Y-65491000I-50999J0D01*
G01*
X221268999Y-65491000D01*
G75*
G02*
X221218000Y-65440001I0J50999D01*
G01*
X221218000Y-63839999D01*
G75*
G02*
X221268999Y-63789000I50999J0D01*
G01*
G37*
G36*
G01*
X240119000Y-69089000D02*
X241719000Y-69089000D01*
G75*
G02*
X241770000Y-69140000I0J-51000D01*
G01*
X241770000Y-70740000D01*
G75*
G02*
X241719000Y-70791000I-51000J0D01*
G01*
X240119000Y-70791000D01*
G75*
G02*
X240068000Y-70740000I0J51000D01*
G01*
X240068000Y-69140000D01*
G75*
G02*
X240119000Y-69089000I51000J0D01*
G01*
G37*
X240919000Y-62140000D03*
G36*
G01*
X240318999Y-66589000D02*
X241519001Y-66589000D01*
G75*
G02*
X241570000Y-66639999I0J-50999D01*
G01*
X241570000Y-68240001D01*
G75*
G02*
X241519001Y-68291000I-50999J0D01*
G01*
X240318999Y-68291000D01*
G75*
G02*
X240268000Y-68240001I0J50999D01*
G01*
X240268000Y-66639999D01*
G75*
G02*
X240318999Y-66589000I50999J0D01*
G01*
G37*
G36*
G01*
X240318999Y-63789000D02*
X241519001Y-63789000D01*
G75*
G02*
X241570000Y-63839999I0J-50999D01*
G01*
X241570000Y-65440001D01*
G75*
G02*
X241519001Y-65491000I-50999J0D01*
G01*
X240318999Y-65491000D01*
G75*
G02*
X240268000Y-65440001I0J50999D01*
G01*
X240268000Y-63839999D01*
G75*
G02*
X240318999Y-63789000I50999J0D01*
G01*
G37*
G36*
G01*
X163919000Y-88102000D02*
X165519000Y-88102000D01*
G75*
G02*
X165570000Y-88153000I0J-51000D01*
G01*
X165570000Y-89753000D01*
G75*
G02*
X165519000Y-89804000I-51000J0D01*
G01*
X163919000Y-89804000D01*
G75*
G02*
X163868000Y-89753000I0J51000D01*
G01*
X163868000Y-88153000D01*
G75*
G02*
X163919000Y-88102000I51000J0D01*
G01*
G37*
X164719000Y-81153000D03*
G36*
G01*
X164118999Y-85602000D02*
X165319001Y-85602000D01*
G75*
G02*
X165370000Y-85652999I0J-50999D01*
G01*
X165370000Y-87253001D01*
G75*
G02*
X165319001Y-87304000I-50999J0D01*
G01*
X164118999Y-87304000D01*
G75*
G02*
X164068000Y-87253001I0J50999D01*
G01*
X164068000Y-85652999D01*
G75*
G02*
X164118999Y-85602000I50999J0D01*
G01*
G37*
G36*
G01*
X164118999Y-82802000D02*
X165319001Y-82802000D01*
G75*
G02*
X165370000Y-82852999I0J-50999D01*
G01*
X165370000Y-84453001D01*
G75*
G02*
X165319001Y-84504000I-50999J0D01*
G01*
X164118999Y-84504000D01*
G75*
G02*
X164068000Y-84453001I0J50999D01*
G01*
X164068000Y-82852999D01*
G75*
G02*
X164118999Y-82802000I50999J0D01*
G01*
G37*
G36*
G01*
X182969000Y-88099000D02*
X184569000Y-88099000D01*
G75*
G02*
X184620000Y-88150000I0J-51000D01*
G01*
X184620000Y-89750000D01*
G75*
G02*
X184569000Y-89801000I-51000J0D01*
G01*
X182969000Y-89801000D01*
G75*
G02*
X182918000Y-89750000I0J51000D01*
G01*
X182918000Y-88150000D01*
G75*
G02*
X182969000Y-88099000I51000J0D01*
G01*
G37*
X183769000Y-81150000D03*
G36*
G01*
X183168999Y-85599000D02*
X184369001Y-85599000D01*
G75*
G02*
X184420000Y-85649999I0J-50999D01*
G01*
X184420000Y-87250001D01*
G75*
G02*
X184369001Y-87301000I-50999J0D01*
G01*
X183168999Y-87301000D01*
G75*
G02*
X183118000Y-87250001I0J50999D01*
G01*
X183118000Y-85649999D01*
G75*
G02*
X183168999Y-85599000I50999J0D01*
G01*
G37*
G36*
G01*
X183168999Y-82799000D02*
X184369001Y-82799000D01*
G75*
G02*
X184420000Y-82849999I0J-50999D01*
G01*
X184420000Y-84450001D01*
G75*
G02*
X184369001Y-84501000I-50999J0D01*
G01*
X183168999Y-84501000D01*
G75*
G02*
X183118000Y-84450001I0J50999D01*
G01*
X183118000Y-82849999D01*
G75*
G02*
X183168999Y-82799000I50999J0D01*
G01*
G37*
G36*
G01*
X202019000Y-88102000D02*
X203619000Y-88102000D01*
G75*
G02*
X203670000Y-88153000I0J-51000D01*
G01*
X203670000Y-89753000D01*
G75*
G02*
X203619000Y-89804000I-51000J0D01*
G01*
X202019000Y-89804000D01*
G75*
G02*
X201968000Y-89753000I0J51000D01*
G01*
X201968000Y-88153000D01*
G75*
G02*
X202019000Y-88102000I51000J0D01*
G01*
G37*
X202819000Y-81153000D03*
G36*
G01*
X202218999Y-85602000D02*
X203419001Y-85602000D01*
G75*
G02*
X203470000Y-85652999I0J-50999D01*
G01*
X203470000Y-87253001D01*
G75*
G02*
X203419001Y-87304000I-50999J0D01*
G01*
X202218999Y-87304000D01*
G75*
G02*
X202168000Y-87253001I0J50999D01*
G01*
X202168000Y-85652999D01*
G75*
G02*
X202218999Y-85602000I50999J0D01*
G01*
G37*
G36*
G01*
X202218999Y-82802000D02*
X203419001Y-82802000D01*
G75*
G02*
X203470000Y-82852999I0J-50999D01*
G01*
X203470000Y-84453001D01*
G75*
G02*
X203419001Y-84504000I-50999J0D01*
G01*
X202218999Y-84504000D01*
G75*
G02*
X202168000Y-84453001I0J50999D01*
G01*
X202168000Y-82852999D01*
G75*
G02*
X202218999Y-82802000I50999J0D01*
G01*
G37*
G36*
G01*
X221069000Y-88099000D02*
X222669000Y-88099000D01*
G75*
G02*
X222720000Y-88150000I0J-51000D01*
G01*
X222720000Y-89750000D01*
G75*
G02*
X222669000Y-89801000I-51000J0D01*
G01*
X221069000Y-89801000D01*
G75*
G02*
X221018000Y-89750000I0J51000D01*
G01*
X221018000Y-88150000D01*
G75*
G02*
X221069000Y-88099000I51000J0D01*
G01*
G37*
X221869000Y-81150000D03*
G36*
G01*
X221268999Y-85599000D02*
X222469001Y-85599000D01*
G75*
G02*
X222520000Y-85649999I0J-50999D01*
G01*
X222520000Y-87250001D01*
G75*
G02*
X222469001Y-87301000I-50999J0D01*
G01*
X221268999Y-87301000D01*
G75*
G02*
X221218000Y-87250001I0J50999D01*
G01*
X221218000Y-85649999D01*
G75*
G02*
X221268999Y-85599000I50999J0D01*
G01*
G37*
G36*
G01*
X221268999Y-82799000D02*
X222469001Y-82799000D01*
G75*
G02*
X222520000Y-82849999I0J-50999D01*
G01*
X222520000Y-84450001D01*
G75*
G02*
X222469001Y-84501000I-50999J0D01*
G01*
X221268999Y-84501000D01*
G75*
G02*
X221218000Y-84450001I0J50999D01*
G01*
X221218000Y-82849999D01*
G75*
G02*
X221268999Y-82799000I50999J0D01*
G01*
G37*
G36*
G01*
X240119000Y-88099000D02*
X241719000Y-88099000D01*
G75*
G02*
X241770000Y-88150000I0J-51000D01*
G01*
X241770000Y-89750000D01*
G75*
G02*
X241719000Y-89801000I-51000J0D01*
G01*
X240119000Y-89801000D01*
G75*
G02*
X240068000Y-89750000I0J51000D01*
G01*
X240068000Y-88150000D01*
G75*
G02*
X240119000Y-88099000I51000J0D01*
G01*
G37*
X240919000Y-81150000D03*
G36*
G01*
X240318999Y-85599000D02*
X241519001Y-85599000D01*
G75*
G02*
X241570000Y-85649999I0J-50999D01*
G01*
X241570000Y-87250001D01*
G75*
G02*
X241519001Y-87301000I-50999J0D01*
G01*
X240318999Y-87301000D01*
G75*
G02*
X240268000Y-87250001I0J50999D01*
G01*
X240268000Y-85649999D01*
G75*
G02*
X240318999Y-85599000I50999J0D01*
G01*
G37*
G36*
G01*
X240318999Y-82799000D02*
X241519001Y-82799000D01*
G75*
G02*
X241570000Y-82849999I0J-50999D01*
G01*
X241570000Y-84450001D01*
G75*
G02*
X241519001Y-84501000I-50999J0D01*
G01*
X240318999Y-84501000D01*
G75*
G02*
X240268000Y-84450001I0J50999D01*
G01*
X240268000Y-82849999D01*
G75*
G02*
X240318999Y-82799000I50999J0D01*
G01*
G37*
G36*
G01*
X163792000Y-106898000D02*
X165392000Y-106898000D01*
G75*
G02*
X165443000Y-106949000I0J-51000D01*
G01*
X165443000Y-108549000D01*
G75*
G02*
X165392000Y-108600000I-51000J0D01*
G01*
X163792000Y-108600000D01*
G75*
G02*
X163741000Y-108549000I0J51000D01*
G01*
X163741000Y-106949000D01*
G75*
G02*
X163792000Y-106898000I51000J0D01*
G01*
G37*
X164592000Y-99949000D03*
G36*
G01*
X163991999Y-104398000D02*
X165192001Y-104398000D01*
G75*
G02*
X165243000Y-104448999I0J-50999D01*
G01*
X165243000Y-106049001D01*
G75*
G02*
X165192001Y-106100000I-50999J0D01*
G01*
X163991999Y-106100000D01*
G75*
G02*
X163941000Y-106049001I0J50999D01*
G01*
X163941000Y-104448999D01*
G75*
G02*
X163991999Y-104398000I50999J0D01*
G01*
G37*
G36*
G01*
X163991999Y-101598000D02*
X165192001Y-101598000D01*
G75*
G02*
X165243000Y-101648999I0J-50999D01*
G01*
X165243000Y-103249001D01*
G75*
G02*
X165192001Y-103300000I-50999J0D01*
G01*
X163991999Y-103300000D01*
G75*
G02*
X163941000Y-103249001I0J50999D01*
G01*
X163941000Y-101648999D01*
G75*
G02*
X163991999Y-101598000I50999J0D01*
G01*
G37*
G36*
G01*
X182969000Y-107276000D02*
X184569000Y-107276000D01*
G75*
G02*
X184620000Y-107327000I0J-51000D01*
G01*
X184620000Y-108927000D01*
G75*
G02*
X184569000Y-108978000I-51000J0D01*
G01*
X182969000Y-108978000D01*
G75*
G02*
X182918000Y-108927000I0J51000D01*
G01*
X182918000Y-107327000D01*
G75*
G02*
X182969000Y-107276000I51000J0D01*
G01*
G37*
X183769000Y-100327000D03*
G36*
G01*
X183168999Y-104776000D02*
X184369001Y-104776000D01*
G75*
G02*
X184420000Y-104826999I0J-50999D01*
G01*
X184420000Y-106427001D01*
G75*
G02*
X184369001Y-106478000I-50999J0D01*
G01*
X183168999Y-106478000D01*
G75*
G02*
X183118000Y-106427001I0J50999D01*
G01*
X183118000Y-104826999D01*
G75*
G02*
X183168999Y-104776000I50999J0D01*
G01*
G37*
G36*
G01*
X183168999Y-101976000D02*
X184369001Y-101976000D01*
G75*
G02*
X184420000Y-102026999I0J-50999D01*
G01*
X184420000Y-103627001D01*
G75*
G02*
X184369001Y-103678000I-50999J0D01*
G01*
X183168999Y-103678000D01*
G75*
G02*
X183118000Y-103627001I0J50999D01*
G01*
X183118000Y-102026999D01*
G75*
G02*
X183168999Y-101976000I50999J0D01*
G01*
G37*
G36*
G01*
X202019000Y-107152000D02*
X203619000Y-107152000D01*
G75*
G02*
X203670000Y-107203000I0J-51000D01*
G01*
X203670000Y-108803000D01*
G75*
G02*
X203619000Y-108854000I-51000J0D01*
G01*
X202019000Y-108854000D01*
G75*
G02*
X201968000Y-108803000I0J51000D01*
G01*
X201968000Y-107203000D01*
G75*
G02*
X202019000Y-107152000I51000J0D01*
G01*
G37*
X202819000Y-100203000D03*
G36*
G01*
X202218999Y-104652000D02*
X203419001Y-104652000D01*
G75*
G02*
X203470000Y-104702999I0J-50999D01*
G01*
X203470000Y-106303001D01*
G75*
G02*
X203419001Y-106354000I-50999J0D01*
G01*
X202218999Y-106354000D01*
G75*
G02*
X202168000Y-106303001I0J50999D01*
G01*
X202168000Y-104702999D01*
G75*
G02*
X202218999Y-104652000I50999J0D01*
G01*
G37*
G36*
G01*
X202218999Y-101852000D02*
X203419001Y-101852000D01*
G75*
G02*
X203470000Y-101902999I0J-50999D01*
G01*
X203470000Y-103503001D01*
G75*
G02*
X203419001Y-103554000I-50999J0D01*
G01*
X202218999Y-103554000D01*
G75*
G02*
X202168000Y-103503001I0J50999D01*
G01*
X202168000Y-101902999D01*
G75*
G02*
X202218999Y-101852000I50999J0D01*
G01*
G37*
G36*
G01*
X221069000Y-107149000D02*
X222669000Y-107149000D01*
G75*
G02*
X222720000Y-107200000I0J-51000D01*
G01*
X222720000Y-108800000D01*
G75*
G02*
X222669000Y-108851000I-51000J0D01*
G01*
X221069000Y-108851000D01*
G75*
G02*
X221018000Y-108800000I0J51000D01*
G01*
X221018000Y-107200000D01*
G75*
G02*
X221069000Y-107149000I51000J0D01*
G01*
G37*
X221869000Y-100200000D03*
G36*
G01*
X221268999Y-104649000D02*
X222469001Y-104649000D01*
G75*
G02*
X222520000Y-104699999I0J-50999D01*
G01*
X222520000Y-106300001D01*
G75*
G02*
X222469001Y-106351000I-50999J0D01*
G01*
X221268999Y-106351000D01*
G75*
G02*
X221218000Y-106300001I0J50999D01*
G01*
X221218000Y-104699999D01*
G75*
G02*
X221268999Y-104649000I50999J0D01*
G01*
G37*
G36*
G01*
X221268999Y-101849000D02*
X222469001Y-101849000D01*
G75*
G02*
X222520000Y-101899999I0J-50999D01*
G01*
X222520000Y-103500001D01*
G75*
G02*
X222469001Y-103551000I-50999J0D01*
G01*
X221268999Y-103551000D01*
G75*
G02*
X221218000Y-103500001I0J50999D01*
G01*
X221218000Y-101899999D01*
G75*
G02*
X221268999Y-101849000I50999J0D01*
G01*
G37*
G36*
G01*
X240119000Y-107152000D02*
X241719000Y-107152000D01*
G75*
G02*
X241770000Y-107203000I0J-51000D01*
G01*
X241770000Y-108803000D01*
G75*
G02*
X241719000Y-108854000I-51000J0D01*
G01*
X240119000Y-108854000D01*
G75*
G02*
X240068000Y-108803000I0J51000D01*
G01*
X240068000Y-107203000D01*
G75*
G02*
X240119000Y-107152000I51000J0D01*
G01*
G37*
X240919000Y-100203000D03*
G36*
G01*
X240318999Y-104652000D02*
X241519001Y-104652000D01*
G75*
G02*
X241570000Y-104702999I0J-50999D01*
G01*
X241570000Y-106303001D01*
G75*
G02*
X241519001Y-106354000I-50999J0D01*
G01*
X240318999Y-106354000D01*
G75*
G02*
X240268000Y-106303001I0J50999D01*
G01*
X240268000Y-104702999D01*
G75*
G02*
X240318999Y-104652000I50999J0D01*
G01*
G37*
G36*
G01*
X240318999Y-101852000D02*
X241519001Y-101852000D01*
G75*
G02*
X241570000Y-101902999I0J-50999D01*
G01*
X241570000Y-103503001D01*
G75*
G02*
X241519001Y-103554000I-50999J0D01*
G01*
X240318999Y-103554000D01*
G75*
G02*
X240268000Y-103503001I0J50999D01*
G01*
X240268000Y-101902999D01*
G75*
G02*
X240318999Y-101852000I50999J0D01*
G01*
G37*
G36*
G01*
X244945000Y-126239000D02*
X246545000Y-126239000D01*
G75*
G02*
X246596000Y-126290000I0J-51000D01*
G01*
X246596000Y-127890000D01*
G75*
G02*
X246545000Y-127941000I-51000J0D01*
G01*
X244945000Y-127941000D01*
G75*
G02*
X244894000Y-127890000I0J51000D01*
G01*
X244894000Y-126290000D01*
G75*
G02*
X244945000Y-126239000I51000J0D01*
G01*
G37*
X245745000Y-119290000D03*
G36*
G01*
X245144999Y-123739000D02*
X246345001Y-123739000D01*
G75*
G02*
X246396000Y-123789999I0J-50999D01*
G01*
X246396000Y-125390001D01*
G75*
G02*
X246345001Y-125441000I-50999J0D01*
G01*
X245144999Y-125441000D01*
G75*
G02*
X245094000Y-125390001I0J50999D01*
G01*
X245094000Y-123789999D01*
G75*
G02*
X245144999Y-123739000I50999J0D01*
G01*
G37*
G36*
G01*
X245144999Y-120939000D02*
X246345001Y-120939000D01*
G75*
G02*
X246396000Y-120989999I0J-50999D01*
G01*
X246396000Y-122590001D01*
G75*
G02*
X246345001Y-122641000I-50999J0D01*
G01*
X245144999Y-122641000D01*
G75*
G02*
X245094000Y-122590001I0J50999D01*
G01*
X245094000Y-120989999D01*
G75*
G02*
X245144999Y-120939000I50999J0D01*
G01*
G37*
G36*
G01*
X159646014Y-62586277D02*
X159646014Y-62586277D01*
G75*
G02*
X158552723Y-61333014I79986J1173277D01*
G01*
X158592265Y-60752982D01*
G75*
G02*
X159845528Y-59659691I1173277J-79986D01*
G01*
X159845528Y-59659691D01*
G75*
G02*
X160938819Y-60912954I-79986J-1173277D01*
G01*
X160899277Y-61492986D01*
G75*
G02*
X159646014Y-62586277I-1173277J79986D01*
G01*
G37*
D15*
X159766000Y-60833000D03*
G36*
G01*
X152630629Y-64248310D02*
X152630629Y-64248310D01*
G75*
G02*
X152540690Y-62587629I785371J875310D01*
G01*
X153850680Y-61127621D01*
G75*
G02*
X155511361Y-61037682I875310J-785371D01*
G01*
X155511361Y-61037682D01*
G75*
G02*
X155601300Y-62698363I-785371J-875310D01*
G01*
X154291310Y-64158371D01*
G75*
G02*
X152630629Y-64248310I-875310J785371D01*
G01*
G37*
D16*
X157226000Y-65913000D03*
D15*
X154726000Y-61913000D03*
D17*
X152146000Y-65913000D03*
X162306000Y-65913000D03*
D18*
X162226000Y-62113000D03*
X157226000Y-60013000D03*
D19*
X151726000Y-65913000D03*
X162726000Y-65913000D03*
D20*
X152006000Y-70113000D03*
D18*
X157226000Y-60013000D03*
D20*
X162446000Y-70113000D03*
D15*
X154686000Y-60833000D03*
G36*
G01*
X158940639Y-61037682D02*
X158940639Y-61037682D01*
G75*
G02*
X160601320Y-61127621I785371J-875310D01*
G01*
X161911310Y-62587629D01*
G75*
G02*
X161821371Y-64248310I-875310J-785371D01*
G01*
X161821371Y-64248310D01*
G75*
G02*
X160160690Y-64158371I-785371J875310D01*
G01*
X158850700Y-62698363D01*
G75*
G02*
X158940639Y-61037682I875310J785371D01*
G01*
G37*
D18*
X152226000Y-62113000D03*
G36*
G01*
X154606472Y-59659691D02*
X154606472Y-59659691D01*
G75*
G02*
X155859735Y-60752982I79986J-1173277D01*
G01*
X155899277Y-61333014D01*
G75*
G02*
X154805986Y-62586277I-1173277J-79986D01*
G01*
X154805986Y-62586277D01*
G75*
G02*
X153552723Y-61492986I-79986J1173277D01*
G01*
X153513181Y-60912954D01*
G75*
G02*
X154606472Y-59659691I1173277J79986D01*
G01*
G37*
D15*
X159726000Y-61913000D03*
G36*
G01*
X178696014Y-62586277D02*
X178696014Y-62586277D01*
G75*
G02*
X177602723Y-61333014I79986J1173277D01*
G01*
X177642265Y-60752982D01*
G75*
G02*
X178895528Y-59659691I1173277J-79986D01*
G01*
X178895528Y-59659691D01*
G75*
G02*
X179988819Y-60912954I-79986J-1173277D01*
G01*
X179949277Y-61492986D01*
G75*
G02*
X178696014Y-62586277I-1173277J79986D01*
G01*
G37*
X178816000Y-60833000D03*
G36*
G01*
X171680629Y-64248310D02*
X171680629Y-64248310D01*
G75*
G02*
X171590690Y-62587629I785371J875310D01*
G01*
X172900680Y-61127621D01*
G75*
G02*
X174561361Y-61037682I875310J-785371D01*
G01*
X174561361Y-61037682D01*
G75*
G02*
X174651300Y-62698363I-785371J-875310D01*
G01*
X173341310Y-64158371D01*
G75*
G02*
X171680629Y-64248310I-875310J785371D01*
G01*
G37*
D16*
X176276000Y-65913000D03*
D15*
X173776000Y-61913000D03*
D17*
X171196000Y-65913000D03*
X181356000Y-65913000D03*
D18*
X181276000Y-62113000D03*
X176276000Y-60013000D03*
D19*
X170776000Y-65913000D03*
X181776000Y-65913000D03*
D20*
X171056000Y-70113000D03*
D18*
X176276000Y-60013000D03*
D20*
X181496000Y-70113000D03*
D15*
X173736000Y-60833000D03*
G36*
G01*
X177990639Y-61037682D02*
X177990639Y-61037682D01*
G75*
G02*
X179651320Y-61127621I785371J-875310D01*
G01*
X180961310Y-62587629D01*
G75*
G02*
X180871371Y-64248310I-875310J-785371D01*
G01*
X180871371Y-64248310D01*
G75*
G02*
X179210690Y-64158371I-785371J875310D01*
G01*
X177900700Y-62698363D01*
G75*
G02*
X177990639Y-61037682I875310J785371D01*
G01*
G37*
D18*
X171276000Y-62113000D03*
G36*
G01*
X173656472Y-59659691D02*
X173656472Y-59659691D01*
G75*
G02*
X174909735Y-60752982I79986J-1173277D01*
G01*
X174949277Y-61333014D01*
G75*
G02*
X173855986Y-62586277I-1173277J-79986D01*
G01*
X173855986Y-62586277D01*
G75*
G02*
X172602723Y-61492986I-79986J1173277D01*
G01*
X172563181Y-60912954D01*
G75*
G02*
X173656472Y-59659691I1173277J79986D01*
G01*
G37*
D15*
X178776000Y-61913000D03*
G36*
G01*
X197746014Y-62586277D02*
X197746014Y-62586277D01*
G75*
G02*
X196652723Y-61333014I79986J1173277D01*
G01*
X196692265Y-60752982D01*
G75*
G02*
X197945528Y-59659691I1173277J-79986D01*
G01*
X197945528Y-59659691D01*
G75*
G02*
X199038819Y-60912954I-79986J-1173277D01*
G01*
X198999277Y-61492986D01*
G75*
G02*
X197746014Y-62586277I-1173277J79986D01*
G01*
G37*
X197866000Y-60833000D03*
G36*
G01*
X190730629Y-64248310D02*
X190730629Y-64248310D01*
G75*
G02*
X190640690Y-62587629I785371J875310D01*
G01*
X191950680Y-61127621D01*
G75*
G02*
X193611361Y-61037682I875310J-785371D01*
G01*
X193611361Y-61037682D01*
G75*
G02*
X193701300Y-62698363I-785371J-875310D01*
G01*
X192391310Y-64158371D01*
G75*
G02*
X190730629Y-64248310I-875310J785371D01*
G01*
G37*
D16*
X195326000Y-65913000D03*
D15*
X192826000Y-61913000D03*
D17*
X190246000Y-65913000D03*
X200406000Y-65913000D03*
D18*
X200326000Y-62113000D03*
X195326000Y-60013000D03*
D19*
X189826000Y-65913000D03*
X200826000Y-65913000D03*
D20*
X190106000Y-70113000D03*
D18*
X195326000Y-60013000D03*
D20*
X200546000Y-70113000D03*
D15*
X192786000Y-60833000D03*
G36*
G01*
X197040639Y-61037682D02*
X197040639Y-61037682D01*
G75*
G02*
X198701320Y-61127621I785371J-875310D01*
G01*
X200011310Y-62587629D01*
G75*
G02*
X199921371Y-64248310I-875310J-785371D01*
G01*
X199921371Y-64248310D01*
G75*
G02*
X198260690Y-64158371I-785371J875310D01*
G01*
X196950700Y-62698363D01*
G75*
G02*
X197040639Y-61037682I875310J785371D01*
G01*
G37*
D18*
X190326000Y-62113000D03*
G36*
G01*
X192706472Y-59659691D02*
X192706472Y-59659691D01*
G75*
G02*
X193959735Y-60752982I79986J-1173277D01*
G01*
X193999277Y-61333014D01*
G75*
G02*
X192905986Y-62586277I-1173277J-79986D01*
G01*
X192905986Y-62586277D01*
G75*
G02*
X191652723Y-61492986I-79986J1173277D01*
G01*
X191613181Y-60912954D01*
G75*
G02*
X192706472Y-59659691I1173277J79986D01*
G01*
G37*
D15*
X197826000Y-61913000D03*
G36*
G01*
X216796014Y-62586277D02*
X216796014Y-62586277D01*
G75*
G02*
X215702723Y-61333014I79986J1173277D01*
G01*
X215742265Y-60752982D01*
G75*
G02*
X216995528Y-59659691I1173277J-79986D01*
G01*
X216995528Y-59659691D01*
G75*
G02*
X218088819Y-60912954I-79986J-1173277D01*
G01*
X218049277Y-61492986D01*
G75*
G02*
X216796014Y-62586277I-1173277J79986D01*
G01*
G37*
X216916000Y-60833000D03*
G36*
G01*
X209780629Y-64248310D02*
X209780629Y-64248310D01*
G75*
G02*
X209690690Y-62587629I785371J875310D01*
G01*
X211000680Y-61127621D01*
G75*
G02*
X212661361Y-61037682I875310J-785371D01*
G01*
X212661361Y-61037682D01*
G75*
G02*
X212751300Y-62698363I-785371J-875310D01*
G01*
X211441310Y-64158371D01*
G75*
G02*
X209780629Y-64248310I-875310J785371D01*
G01*
G37*
D16*
X214376000Y-65913000D03*
D15*
X211876000Y-61913000D03*
D17*
X209296000Y-65913000D03*
X219456000Y-65913000D03*
D18*
X219376000Y-62113000D03*
X214376000Y-60013000D03*
D19*
X208876000Y-65913000D03*
X219876000Y-65913000D03*
D20*
X209156000Y-70113000D03*
D18*
X214376000Y-60013000D03*
D20*
X219596000Y-70113000D03*
D15*
X211836000Y-60833000D03*
G36*
G01*
X216090639Y-61037682D02*
X216090639Y-61037682D01*
G75*
G02*
X217751320Y-61127621I785371J-875310D01*
G01*
X219061310Y-62587629D01*
G75*
G02*
X218971371Y-64248310I-875310J-785371D01*
G01*
X218971371Y-64248310D01*
G75*
G02*
X217310690Y-64158371I-785371J875310D01*
G01*
X216000700Y-62698363D01*
G75*
G02*
X216090639Y-61037682I875310J785371D01*
G01*
G37*
D18*
X209376000Y-62113000D03*
G36*
G01*
X211756472Y-59659691D02*
X211756472Y-59659691D01*
G75*
G02*
X213009735Y-60752982I79986J-1173277D01*
G01*
X213049277Y-61333014D01*
G75*
G02*
X211955986Y-62586277I-1173277J-79986D01*
G01*
X211955986Y-62586277D01*
G75*
G02*
X210702723Y-61492986I-79986J1173277D01*
G01*
X210663181Y-60912954D01*
G75*
G02*
X211756472Y-59659691I1173277J79986D01*
G01*
G37*
D15*
X216876000Y-61913000D03*
G36*
G01*
X235846014Y-62586277D02*
X235846014Y-62586277D01*
G75*
G02*
X234752723Y-61333014I79986J1173277D01*
G01*
X234792265Y-60752982D01*
G75*
G02*
X236045528Y-59659691I1173277J-79986D01*
G01*
X236045528Y-59659691D01*
G75*
G02*
X237138819Y-60912954I-79986J-1173277D01*
G01*
X237099277Y-61492986D01*
G75*
G02*
X235846014Y-62586277I-1173277J79986D01*
G01*
G37*
X235966000Y-60833000D03*
G36*
G01*
X228830629Y-64248310D02*
X228830629Y-64248310D01*
G75*
G02*
X228740690Y-62587629I785371J875310D01*
G01*
X230050680Y-61127621D01*
G75*
G02*
X231711361Y-61037682I875310J-785371D01*
G01*
X231711361Y-61037682D01*
G75*
G02*
X231801300Y-62698363I-785371J-875310D01*
G01*
X230491310Y-64158371D01*
G75*
G02*
X228830629Y-64248310I-875310J785371D01*
G01*
G37*
D16*
X233426000Y-65913000D03*
D15*
X230926000Y-61913000D03*
D17*
X228346000Y-65913000D03*
X238506000Y-65913000D03*
D18*
X238426000Y-62113000D03*
X233426000Y-60013000D03*
D19*
X227926000Y-65913000D03*
X238926000Y-65913000D03*
D20*
X228206000Y-70113000D03*
D18*
X233426000Y-60013000D03*
D20*
X238646000Y-70113000D03*
D15*
X230886000Y-60833000D03*
G36*
G01*
X235140639Y-61037682D02*
X235140639Y-61037682D01*
G75*
G02*
X236801320Y-61127621I785371J-875310D01*
G01*
X238111310Y-62587629D01*
G75*
G02*
X238021371Y-64248310I-875310J-785371D01*
G01*
X238021371Y-64248310D01*
G75*
G02*
X236360690Y-64158371I-785371J875310D01*
G01*
X235050700Y-62698363D01*
G75*
G02*
X235140639Y-61037682I875310J785371D01*
G01*
G37*
D18*
X228426000Y-62113000D03*
G36*
G01*
X230806472Y-59659691D02*
X230806472Y-59659691D01*
G75*
G02*
X232059735Y-60752982I79986J-1173277D01*
G01*
X232099277Y-61333014D01*
G75*
G02*
X231005986Y-62586277I-1173277J-79986D01*
G01*
X231005986Y-62586277D01*
G75*
G02*
X229752723Y-61492986I-79986J1173277D01*
G01*
X229713181Y-60912954D01*
G75*
G02*
X230806472Y-59659691I1173277J79986D01*
G01*
G37*
D15*
X235926000Y-61913000D03*
G36*
G01*
X159646014Y-81636277D02*
X159646014Y-81636277D01*
G75*
G02*
X158552723Y-80383014I79986J1173277D01*
G01*
X158592265Y-79802982D01*
G75*
G02*
X159845528Y-78709691I1173277J-79986D01*
G01*
X159845528Y-78709691D01*
G75*
G02*
X160938819Y-79962954I-79986J-1173277D01*
G01*
X160899277Y-80542986D01*
G75*
G02*
X159646014Y-81636277I-1173277J79986D01*
G01*
G37*
X159766000Y-79883000D03*
G36*
G01*
X152630629Y-83298310D02*
X152630629Y-83298310D01*
G75*
G02*
X152540690Y-81637629I785371J875310D01*
G01*
X153850680Y-80177621D01*
G75*
G02*
X155511361Y-80087682I875310J-785371D01*
G01*
X155511361Y-80087682D01*
G75*
G02*
X155601300Y-81748363I-785371J-875310D01*
G01*
X154291310Y-83208371D01*
G75*
G02*
X152630629Y-83298310I-875310J785371D01*
G01*
G37*
D16*
X157226000Y-84963000D03*
D15*
X154726000Y-80963000D03*
D17*
X152146000Y-84963000D03*
X162306000Y-84963000D03*
D18*
X162226000Y-81163000D03*
X157226000Y-79063000D03*
D19*
X151726000Y-84963000D03*
X162726000Y-84963000D03*
D20*
X152006000Y-89163000D03*
D18*
X157226000Y-79063000D03*
D20*
X162446000Y-89163000D03*
D15*
X154686000Y-79883000D03*
G36*
G01*
X158940639Y-80087682D02*
X158940639Y-80087682D01*
G75*
G02*
X160601320Y-80177621I785371J-875310D01*
G01*
X161911310Y-81637629D01*
G75*
G02*
X161821371Y-83298310I-875310J-785371D01*
G01*
X161821371Y-83298310D01*
G75*
G02*
X160160690Y-83208371I-785371J875310D01*
G01*
X158850700Y-81748363D01*
G75*
G02*
X158940639Y-80087682I875310J785371D01*
G01*
G37*
D18*
X152226000Y-81163000D03*
G36*
G01*
X154606472Y-78709691D02*
X154606472Y-78709691D01*
G75*
G02*
X155859735Y-79802982I79986J-1173277D01*
G01*
X155899277Y-80383014D01*
G75*
G02*
X154805986Y-81636277I-1173277J-79986D01*
G01*
X154805986Y-81636277D01*
G75*
G02*
X153552723Y-80542986I-79986J1173277D01*
G01*
X153513181Y-79962954D01*
G75*
G02*
X154606472Y-78709691I1173277J79986D01*
G01*
G37*
D15*
X159726000Y-80963000D03*
G36*
G01*
X178696014Y-81636277D02*
X178696014Y-81636277D01*
G75*
G02*
X177602723Y-80383014I79986J1173277D01*
G01*
X177642265Y-79802982D01*
G75*
G02*
X178895528Y-78709691I1173277J-79986D01*
G01*
X178895528Y-78709691D01*
G75*
G02*
X179988819Y-79962954I-79986J-1173277D01*
G01*
X179949277Y-80542986D01*
G75*
G02*
X178696014Y-81636277I-1173277J79986D01*
G01*
G37*
X178816000Y-79883000D03*
G36*
G01*
X171680629Y-83298310D02*
X171680629Y-83298310D01*
G75*
G02*
X171590690Y-81637629I785371J875310D01*
G01*
X172900680Y-80177621D01*
G75*
G02*
X174561361Y-80087682I875310J-785371D01*
G01*
X174561361Y-80087682D01*
G75*
G02*
X174651300Y-81748363I-785371J-875310D01*
G01*
X173341310Y-83208371D01*
G75*
G02*
X171680629Y-83298310I-875310J785371D01*
G01*
G37*
D16*
X176276000Y-84963000D03*
D15*
X173776000Y-80963000D03*
D17*
X171196000Y-84963000D03*
X181356000Y-84963000D03*
D18*
X181276000Y-81163000D03*
X176276000Y-79063000D03*
D19*
X170776000Y-84963000D03*
X181776000Y-84963000D03*
D20*
X171056000Y-89163000D03*
D18*
X176276000Y-79063000D03*
D20*
X181496000Y-89163000D03*
D15*
X173736000Y-79883000D03*
G36*
G01*
X177990639Y-80087682D02*
X177990639Y-80087682D01*
G75*
G02*
X179651320Y-80177621I785371J-875310D01*
G01*
X180961310Y-81637629D01*
G75*
G02*
X180871371Y-83298310I-875310J-785371D01*
G01*
X180871371Y-83298310D01*
G75*
G02*
X179210690Y-83208371I-785371J875310D01*
G01*
X177900700Y-81748363D01*
G75*
G02*
X177990639Y-80087682I875310J785371D01*
G01*
G37*
D18*
X171276000Y-81163000D03*
G36*
G01*
X173656472Y-78709691D02*
X173656472Y-78709691D01*
G75*
G02*
X174909735Y-79802982I79986J-1173277D01*
G01*
X174949277Y-80383014D01*
G75*
G02*
X173855986Y-81636277I-1173277J-79986D01*
G01*
X173855986Y-81636277D01*
G75*
G02*
X172602723Y-80542986I-79986J1173277D01*
G01*
X172563181Y-79962954D01*
G75*
G02*
X173656472Y-78709691I1173277J79986D01*
G01*
G37*
D15*
X178776000Y-80963000D03*
G36*
G01*
X197746014Y-81636277D02*
X197746014Y-81636277D01*
G75*
G02*
X196652723Y-80383014I79986J1173277D01*
G01*
X196692265Y-79802982D01*
G75*
G02*
X197945528Y-78709691I1173277J-79986D01*
G01*
X197945528Y-78709691D01*
G75*
G02*
X199038819Y-79962954I-79986J-1173277D01*
G01*
X198999277Y-80542986D01*
G75*
G02*
X197746014Y-81636277I-1173277J79986D01*
G01*
G37*
X197866000Y-79883000D03*
G36*
G01*
X190730629Y-83298310D02*
X190730629Y-83298310D01*
G75*
G02*
X190640690Y-81637629I785371J875310D01*
G01*
X191950680Y-80177621D01*
G75*
G02*
X193611361Y-80087682I875310J-785371D01*
G01*
X193611361Y-80087682D01*
G75*
G02*
X193701300Y-81748363I-785371J-875310D01*
G01*
X192391310Y-83208371D01*
G75*
G02*
X190730629Y-83298310I-875310J785371D01*
G01*
G37*
D16*
X195326000Y-84963000D03*
D15*
X192826000Y-80963000D03*
D17*
X190246000Y-84963000D03*
X200406000Y-84963000D03*
D18*
X200326000Y-81163000D03*
X195326000Y-79063000D03*
D19*
X189826000Y-84963000D03*
X200826000Y-84963000D03*
D20*
X190106000Y-89163000D03*
D18*
X195326000Y-79063000D03*
D20*
X200546000Y-89163000D03*
D15*
X192786000Y-79883000D03*
G36*
G01*
X197040639Y-80087682D02*
X197040639Y-80087682D01*
G75*
G02*
X198701320Y-80177621I785371J-875310D01*
G01*
X200011310Y-81637629D01*
G75*
G02*
X199921371Y-83298310I-875310J-785371D01*
G01*
X199921371Y-83298310D01*
G75*
G02*
X198260690Y-83208371I-785371J875310D01*
G01*
X196950700Y-81748363D01*
G75*
G02*
X197040639Y-80087682I875310J785371D01*
G01*
G37*
D18*
X190326000Y-81163000D03*
G36*
G01*
X192706472Y-78709691D02*
X192706472Y-78709691D01*
G75*
G02*
X193959735Y-79802982I79986J-1173277D01*
G01*
X193999277Y-80383014D01*
G75*
G02*
X192905986Y-81636277I-1173277J-79986D01*
G01*
X192905986Y-81636277D01*
G75*
G02*
X191652723Y-80542986I-79986J1173277D01*
G01*
X191613181Y-79962954D01*
G75*
G02*
X192706472Y-78709691I1173277J79986D01*
G01*
G37*
D15*
X197826000Y-80963000D03*
G36*
G01*
X216796014Y-81636277D02*
X216796014Y-81636277D01*
G75*
G02*
X215702723Y-80383014I79986J1173277D01*
G01*
X215742265Y-79802982D01*
G75*
G02*
X216995528Y-78709691I1173277J-79986D01*
G01*
X216995528Y-78709691D01*
G75*
G02*
X218088819Y-79962954I-79986J-1173277D01*
G01*
X218049277Y-80542986D01*
G75*
G02*
X216796014Y-81636277I-1173277J79986D01*
G01*
G37*
X216916000Y-79883000D03*
G36*
G01*
X209780629Y-83298310D02*
X209780629Y-83298310D01*
G75*
G02*
X209690690Y-81637629I785371J875310D01*
G01*
X211000680Y-80177621D01*
G75*
G02*
X212661361Y-80087682I875310J-785371D01*
G01*
X212661361Y-80087682D01*
G75*
G02*
X212751300Y-81748363I-785371J-875310D01*
G01*
X211441310Y-83208371D01*
G75*
G02*
X209780629Y-83298310I-875310J785371D01*
G01*
G37*
D16*
X214376000Y-84963000D03*
D15*
X211876000Y-80963000D03*
D17*
X209296000Y-84963000D03*
X219456000Y-84963000D03*
D18*
X219376000Y-81163000D03*
X214376000Y-79063000D03*
D19*
X208876000Y-84963000D03*
X219876000Y-84963000D03*
D20*
X209156000Y-89163000D03*
D18*
X214376000Y-79063000D03*
D20*
X219596000Y-89163000D03*
D15*
X211836000Y-79883000D03*
G36*
G01*
X216090639Y-80087682D02*
X216090639Y-80087682D01*
G75*
G02*
X217751320Y-80177621I785371J-875310D01*
G01*
X219061310Y-81637629D01*
G75*
G02*
X218971371Y-83298310I-875310J-785371D01*
G01*
X218971371Y-83298310D01*
G75*
G02*
X217310690Y-83208371I-785371J875310D01*
G01*
X216000700Y-81748363D01*
G75*
G02*
X216090639Y-80087682I875310J785371D01*
G01*
G37*
D18*
X209376000Y-81163000D03*
G36*
G01*
X211756472Y-78709691D02*
X211756472Y-78709691D01*
G75*
G02*
X213009735Y-79802982I79986J-1173277D01*
G01*
X213049277Y-80383014D01*
G75*
G02*
X211955986Y-81636277I-1173277J-79986D01*
G01*
X211955986Y-81636277D01*
G75*
G02*
X210702723Y-80542986I-79986J1173277D01*
G01*
X210663181Y-79962954D01*
G75*
G02*
X211756472Y-78709691I1173277J79986D01*
G01*
G37*
D15*
X216876000Y-80963000D03*
G36*
G01*
X235846014Y-81636277D02*
X235846014Y-81636277D01*
G75*
G02*
X234752723Y-80383014I79986J1173277D01*
G01*
X234792265Y-79802982D01*
G75*
G02*
X236045528Y-78709691I1173277J-79986D01*
G01*
X236045528Y-78709691D01*
G75*
G02*
X237138819Y-79962954I-79986J-1173277D01*
G01*
X237099277Y-80542986D01*
G75*
G02*
X235846014Y-81636277I-1173277J79986D01*
G01*
G37*
X235966000Y-79883000D03*
G36*
G01*
X228830629Y-83298310D02*
X228830629Y-83298310D01*
G75*
G02*
X228740690Y-81637629I785371J875310D01*
G01*
X230050680Y-80177621D01*
G75*
G02*
X231711361Y-80087682I875310J-785371D01*
G01*
X231711361Y-80087682D01*
G75*
G02*
X231801300Y-81748363I-785371J-875310D01*
G01*
X230491310Y-83208371D01*
G75*
G02*
X228830629Y-83298310I-875310J785371D01*
G01*
G37*
D16*
X233426000Y-84963000D03*
D15*
X230926000Y-80963000D03*
D17*
X228346000Y-84963000D03*
X238506000Y-84963000D03*
D18*
X238426000Y-81163000D03*
X233426000Y-79063000D03*
D19*
X227926000Y-84963000D03*
X238926000Y-84963000D03*
D20*
X228206000Y-89163000D03*
D18*
X233426000Y-79063000D03*
D20*
X238646000Y-89163000D03*
D15*
X230886000Y-79883000D03*
G36*
G01*
X235140639Y-80087682D02*
X235140639Y-80087682D01*
G75*
G02*
X236801320Y-80177621I785371J-875310D01*
G01*
X238111310Y-81637629D01*
G75*
G02*
X238021371Y-83298310I-875310J-785371D01*
G01*
X238021371Y-83298310D01*
G75*
G02*
X236360690Y-83208371I-785371J875310D01*
G01*
X235050700Y-81748363D01*
G75*
G02*
X235140639Y-80087682I875310J785371D01*
G01*
G37*
D18*
X228426000Y-81163000D03*
G36*
G01*
X230806472Y-78709691D02*
X230806472Y-78709691D01*
G75*
G02*
X232059735Y-79802982I79986J-1173277D01*
G01*
X232099277Y-80383014D01*
G75*
G02*
X231005986Y-81636277I-1173277J-79986D01*
G01*
X231005986Y-81636277D01*
G75*
G02*
X229752723Y-80542986I-79986J1173277D01*
G01*
X229713181Y-79962954D01*
G75*
G02*
X230806472Y-78709691I1173277J79986D01*
G01*
G37*
D15*
X235926000Y-80963000D03*
G36*
G01*
X159646014Y-100686277D02*
X159646014Y-100686277D01*
G75*
G02*
X158552723Y-99433014I79986J1173277D01*
G01*
X158592265Y-98852982D01*
G75*
G02*
X159845528Y-97759691I1173277J-79986D01*
G01*
X159845528Y-97759691D01*
G75*
G02*
X160938819Y-99012954I-79986J-1173277D01*
G01*
X160899277Y-99592986D01*
G75*
G02*
X159646014Y-100686277I-1173277J79986D01*
G01*
G37*
X159766000Y-98933000D03*
G36*
G01*
X152630629Y-102348310D02*
X152630629Y-102348310D01*
G75*
G02*
X152540690Y-100687629I785371J875310D01*
G01*
X153850680Y-99227621D01*
G75*
G02*
X155511361Y-99137682I875310J-785371D01*
G01*
X155511361Y-99137682D01*
G75*
G02*
X155601300Y-100798363I-785371J-875310D01*
G01*
X154291310Y-102258371D01*
G75*
G02*
X152630629Y-102348310I-875310J785371D01*
G01*
G37*
D16*
X157226000Y-104013000D03*
D15*
X154726000Y-100013000D03*
D17*
X152146000Y-104013000D03*
X162306000Y-104013000D03*
D18*
X162226000Y-100213000D03*
X157226000Y-98113000D03*
D19*
X151726000Y-104013000D03*
X162726000Y-104013000D03*
D20*
X152006000Y-108213000D03*
D18*
X157226000Y-98113000D03*
D20*
X162446000Y-108213000D03*
D15*
X154686000Y-98933000D03*
G36*
G01*
X158940639Y-99137682D02*
X158940639Y-99137682D01*
G75*
G02*
X160601320Y-99227621I785371J-875310D01*
G01*
X161911310Y-100687629D01*
G75*
G02*
X161821371Y-102348310I-875310J-785371D01*
G01*
X161821371Y-102348310D01*
G75*
G02*
X160160690Y-102258371I-785371J875310D01*
G01*
X158850700Y-100798363D01*
G75*
G02*
X158940639Y-99137682I875310J785371D01*
G01*
G37*
D18*
X152226000Y-100213000D03*
G36*
G01*
X154606472Y-97759691D02*
X154606472Y-97759691D01*
G75*
G02*
X155859735Y-98852982I79986J-1173277D01*
G01*
X155899277Y-99433014D01*
G75*
G02*
X154805986Y-100686277I-1173277J-79986D01*
G01*
X154805986Y-100686277D01*
G75*
G02*
X153552723Y-99592986I-79986J1173277D01*
G01*
X153513181Y-99012954D01*
G75*
G02*
X154606472Y-97759691I1173277J79986D01*
G01*
G37*
D15*
X159726000Y-100013000D03*
G36*
G01*
X178696014Y-100686277D02*
X178696014Y-100686277D01*
G75*
G02*
X177602723Y-99433014I79986J1173277D01*
G01*
X177642265Y-98852982D01*
G75*
G02*
X178895528Y-97759691I1173277J-79986D01*
G01*
X178895528Y-97759691D01*
G75*
G02*
X179988819Y-99012954I-79986J-1173277D01*
G01*
X179949277Y-99592986D01*
G75*
G02*
X178696014Y-100686277I-1173277J79986D01*
G01*
G37*
X178816000Y-98933000D03*
G36*
G01*
X171680629Y-102348310D02*
X171680629Y-102348310D01*
G75*
G02*
X171590690Y-100687629I785371J875310D01*
G01*
X172900680Y-99227621D01*
G75*
G02*
X174561361Y-99137682I875310J-785371D01*
G01*
X174561361Y-99137682D01*
G75*
G02*
X174651300Y-100798363I-785371J-875310D01*
G01*
X173341310Y-102258371D01*
G75*
G02*
X171680629Y-102348310I-875310J785371D01*
G01*
G37*
D16*
X176276000Y-104013000D03*
D15*
X173776000Y-100013000D03*
D17*
X171196000Y-104013000D03*
X181356000Y-104013000D03*
D18*
X181276000Y-100213000D03*
X176276000Y-98113000D03*
D19*
X170776000Y-104013000D03*
X181776000Y-104013000D03*
D20*
X171056000Y-108213000D03*
D18*
X176276000Y-98113000D03*
D20*
X181496000Y-108213000D03*
D15*
X173736000Y-98933000D03*
G36*
G01*
X177990639Y-99137682D02*
X177990639Y-99137682D01*
G75*
G02*
X179651320Y-99227621I785371J-875310D01*
G01*
X180961310Y-100687629D01*
G75*
G02*
X180871371Y-102348310I-875310J-785371D01*
G01*
X180871371Y-102348310D01*
G75*
G02*
X179210690Y-102258371I-785371J875310D01*
G01*
X177900700Y-100798363D01*
G75*
G02*
X177990639Y-99137682I875310J785371D01*
G01*
G37*
D18*
X171276000Y-100213000D03*
G36*
G01*
X173656472Y-97759691D02*
X173656472Y-97759691D01*
G75*
G02*
X174909735Y-98852982I79986J-1173277D01*
G01*
X174949277Y-99433014D01*
G75*
G02*
X173855986Y-100686277I-1173277J-79986D01*
G01*
X173855986Y-100686277D01*
G75*
G02*
X172602723Y-99592986I-79986J1173277D01*
G01*
X172563181Y-99012954D01*
G75*
G02*
X173656472Y-97759691I1173277J79986D01*
G01*
G37*
D15*
X178776000Y-100013000D03*
G36*
G01*
X197746014Y-100686277D02*
X197746014Y-100686277D01*
G75*
G02*
X196652723Y-99433014I79986J1173277D01*
G01*
X196692265Y-98852982D01*
G75*
G02*
X197945528Y-97759691I1173277J-79986D01*
G01*
X197945528Y-97759691D01*
G75*
G02*
X199038819Y-99012954I-79986J-1173277D01*
G01*
X198999277Y-99592986D01*
G75*
G02*
X197746014Y-100686277I-1173277J79986D01*
G01*
G37*
X197866000Y-98933000D03*
G36*
G01*
X190730629Y-102348310D02*
X190730629Y-102348310D01*
G75*
G02*
X190640690Y-100687629I785371J875310D01*
G01*
X191950680Y-99227621D01*
G75*
G02*
X193611361Y-99137682I875310J-785371D01*
G01*
X193611361Y-99137682D01*
G75*
G02*
X193701300Y-100798363I-785371J-875310D01*
G01*
X192391310Y-102258371D01*
G75*
G02*
X190730629Y-102348310I-875310J785371D01*
G01*
G37*
D16*
X195326000Y-104013000D03*
D15*
X192826000Y-100013000D03*
D17*
X190246000Y-104013000D03*
X200406000Y-104013000D03*
D18*
X200326000Y-100213000D03*
X195326000Y-98113000D03*
D19*
X189826000Y-104013000D03*
X200826000Y-104013000D03*
D20*
X190106000Y-108213000D03*
D18*
X195326000Y-98113000D03*
D20*
X200546000Y-108213000D03*
D15*
X192786000Y-98933000D03*
G36*
G01*
X197040639Y-99137682D02*
X197040639Y-99137682D01*
G75*
G02*
X198701320Y-99227621I785371J-875310D01*
G01*
X200011310Y-100687629D01*
G75*
G02*
X199921371Y-102348310I-875310J-785371D01*
G01*
X199921371Y-102348310D01*
G75*
G02*
X198260690Y-102258371I-785371J875310D01*
G01*
X196950700Y-100798363D01*
G75*
G02*
X197040639Y-99137682I875310J785371D01*
G01*
G37*
D18*
X190326000Y-100213000D03*
G36*
G01*
X192706472Y-97759691D02*
X192706472Y-97759691D01*
G75*
G02*
X193959735Y-98852982I79986J-1173277D01*
G01*
X193999277Y-99433014D01*
G75*
G02*
X192905986Y-100686277I-1173277J-79986D01*
G01*
X192905986Y-100686277D01*
G75*
G02*
X191652723Y-99592986I-79986J1173277D01*
G01*
X191613181Y-99012954D01*
G75*
G02*
X192706472Y-97759691I1173277J79986D01*
G01*
G37*
D15*
X197826000Y-100013000D03*
G36*
G01*
X216796014Y-100686277D02*
X216796014Y-100686277D01*
G75*
G02*
X215702723Y-99433014I79986J1173277D01*
G01*
X215742265Y-98852982D01*
G75*
G02*
X216995528Y-97759691I1173277J-79986D01*
G01*
X216995528Y-97759691D01*
G75*
G02*
X218088819Y-99012954I-79986J-1173277D01*
G01*
X218049277Y-99592986D01*
G75*
G02*
X216796014Y-100686277I-1173277J79986D01*
G01*
G37*
X216916000Y-98933000D03*
G36*
G01*
X209780629Y-102348310D02*
X209780629Y-102348310D01*
G75*
G02*
X209690690Y-100687629I785371J875310D01*
G01*
X211000680Y-99227621D01*
G75*
G02*
X212661361Y-99137682I875310J-785371D01*
G01*
X212661361Y-99137682D01*
G75*
G02*
X212751300Y-100798363I-785371J-875310D01*
G01*
X211441310Y-102258371D01*
G75*
G02*
X209780629Y-102348310I-875310J785371D01*
G01*
G37*
D16*
X214376000Y-104013000D03*
D15*
X211876000Y-100013000D03*
D17*
X209296000Y-104013000D03*
X219456000Y-104013000D03*
D18*
X219376000Y-100213000D03*
X214376000Y-98113000D03*
D19*
X208876000Y-104013000D03*
X219876000Y-104013000D03*
D20*
X209156000Y-108213000D03*
D18*
X214376000Y-98113000D03*
D20*
X219596000Y-108213000D03*
D15*
X211836000Y-98933000D03*
G36*
G01*
X216090639Y-99137682D02*
X216090639Y-99137682D01*
G75*
G02*
X217751320Y-99227621I785371J-875310D01*
G01*
X219061310Y-100687629D01*
G75*
G02*
X218971371Y-102348310I-875310J-785371D01*
G01*
X218971371Y-102348310D01*
G75*
G02*
X217310690Y-102258371I-785371J875310D01*
G01*
X216000700Y-100798363D01*
G75*
G02*
X216090639Y-99137682I875310J785371D01*
G01*
G37*
D18*
X209376000Y-100213000D03*
G36*
G01*
X211756472Y-97759691D02*
X211756472Y-97759691D01*
G75*
G02*
X213009735Y-98852982I79986J-1173277D01*
G01*
X213049277Y-99433014D01*
G75*
G02*
X211955986Y-100686277I-1173277J-79986D01*
G01*
X211955986Y-100686277D01*
G75*
G02*
X210702723Y-99592986I-79986J1173277D01*
G01*
X210663181Y-99012954D01*
G75*
G02*
X211756472Y-97759691I1173277J79986D01*
G01*
G37*
D15*
X216876000Y-100013000D03*
G36*
G01*
X235846014Y-100686277D02*
X235846014Y-100686277D01*
G75*
G02*
X234752723Y-99433014I79986J1173277D01*
G01*
X234792265Y-98852982D01*
G75*
G02*
X236045528Y-97759691I1173277J-79986D01*
G01*
X236045528Y-97759691D01*
G75*
G02*
X237138819Y-99012954I-79986J-1173277D01*
G01*
X237099277Y-99592986D01*
G75*
G02*
X235846014Y-100686277I-1173277J79986D01*
G01*
G37*
X235966000Y-98933000D03*
G36*
G01*
X228830629Y-102348310D02*
X228830629Y-102348310D01*
G75*
G02*
X228740690Y-100687629I785371J875310D01*
G01*
X230050680Y-99227621D01*
G75*
G02*
X231711361Y-99137682I875310J-785371D01*
G01*
X231711361Y-99137682D01*
G75*
G02*
X231801300Y-100798363I-785371J-875310D01*
G01*
X230491310Y-102258371D01*
G75*
G02*
X228830629Y-102348310I-875310J785371D01*
G01*
G37*
D16*
X233426000Y-104013000D03*
D15*
X230926000Y-100013000D03*
D17*
X228346000Y-104013000D03*
X238506000Y-104013000D03*
D18*
X238426000Y-100213000D03*
X233426000Y-98113000D03*
D19*
X227926000Y-104013000D03*
X238926000Y-104013000D03*
D20*
X228206000Y-108213000D03*
D18*
X233426000Y-98113000D03*
D20*
X238646000Y-108213000D03*
D15*
X230886000Y-98933000D03*
G36*
G01*
X235140639Y-99137682D02*
X235140639Y-99137682D01*
G75*
G02*
X236801320Y-99227621I785371J-875310D01*
G01*
X238111310Y-100687629D01*
G75*
G02*
X238021371Y-102348310I-875310J-785371D01*
G01*
X238021371Y-102348310D01*
G75*
G02*
X236360690Y-102258371I-785371J875310D01*
G01*
X235050700Y-100798363D01*
G75*
G02*
X235140639Y-99137682I875310J785371D01*
G01*
G37*
D18*
X228426000Y-100213000D03*
G36*
G01*
X230806472Y-97759691D02*
X230806472Y-97759691D01*
G75*
G02*
X232059735Y-98852982I79986J-1173277D01*
G01*
X232099277Y-99433014D01*
G75*
G02*
X231005986Y-100686277I-1173277J-79986D01*
G01*
X231005986Y-100686277D01*
G75*
G02*
X229752723Y-99592986I-79986J1173277D01*
G01*
X229713181Y-99012954D01*
G75*
G02*
X230806472Y-97759691I1173277J79986D01*
G01*
G37*
D15*
X235926000Y-100013000D03*
G36*
G01*
X240672014Y-119736277D02*
X240672014Y-119736277D01*
G75*
G02*
X239578723Y-118483014I79986J1173277D01*
G01*
X239618265Y-117902982D01*
G75*
G02*
X240871528Y-116809691I1173277J-79986D01*
G01*
X240871528Y-116809691D01*
G75*
G02*
X241964819Y-118062954I-79986J-1173277D01*
G01*
X241925277Y-118642986D01*
G75*
G02*
X240672014Y-119736277I-1173277J79986D01*
G01*
G37*
X240792000Y-117983000D03*
G36*
G01*
X233656629Y-121398310D02*
X233656629Y-121398310D01*
G75*
G02*
X233566690Y-119737629I785371J875310D01*
G01*
X234876680Y-118277621D01*
G75*
G02*
X236537361Y-118187682I875310J-785371D01*
G01*
X236537361Y-118187682D01*
G75*
G02*
X236627300Y-119848363I-785371J-875310D01*
G01*
X235317310Y-121308371D01*
G75*
G02*
X233656629Y-121398310I-875310J785371D01*
G01*
G37*
D16*
X238252000Y-123063000D03*
D15*
X235752000Y-119063000D03*
D17*
X233172000Y-123063000D03*
X243332000Y-123063000D03*
D18*
X243252000Y-119263000D03*
X238252000Y-117163000D03*
D19*
X232752000Y-123063000D03*
X243752000Y-123063000D03*
D20*
X233032000Y-127263000D03*
D18*
X238252000Y-117163000D03*
D20*
X243472000Y-127263000D03*
D15*
X235712000Y-117983000D03*
G36*
G01*
X239966639Y-118187682D02*
X239966639Y-118187682D01*
G75*
G02*
X241627320Y-118277621I785371J-875310D01*
G01*
X242937310Y-119737629D01*
G75*
G02*
X242847371Y-121398310I-875310J-785371D01*
G01*
X242847371Y-121398310D01*
G75*
G02*
X241186690Y-121308371I-785371J875310D01*
G01*
X239876700Y-119848363D01*
G75*
G02*
X239966639Y-118187682I875310J785371D01*
G01*
G37*
D18*
X233252000Y-119263000D03*
G36*
G01*
X235632472Y-116809691D02*
X235632472Y-116809691D01*
G75*
G02*
X236885735Y-117902982I79986J-1173277D01*
G01*
X236925277Y-118483014D01*
G75*
G02*
X235831986Y-119736277I-1173277J-79986D01*
G01*
X235831986Y-119736277D01*
G75*
G02*
X234578723Y-118642986I-79986J1173277D01*
G01*
X234539181Y-118062954D01*
G75*
G02*
X235632472Y-116809691I1173277J79986D01*
G01*
G37*
D15*
X240752000Y-119063000D03*
G36*
G01*
X231498000Y-110860000D02*
X233598000Y-110860000D01*
G75*
G02*
X233649000Y-110911000I0J-51000D01*
G01*
X233649000Y-111711000D01*
G75*
G02*
X233598000Y-111762000I-51000J0D01*
G01*
X231498000Y-111762000D01*
G75*
G02*
X231447000Y-111711000I0J51000D01*
G01*
X231447000Y-110911000D01*
G75*
G02*
X231498000Y-110860000I51000J0D01*
G01*
G37*
G36*
G01*
X232998000Y-115060000D02*
X235098000Y-115060000D01*
G75*
G02*
X235149000Y-115111000I0J-51000D01*
G01*
X235149000Y-115911000D01*
G75*
G02*
X235098000Y-115962000I-51000J0D01*
G01*
X232998000Y-115962000D01*
G75*
G02*
X232947000Y-115911000I0J51000D01*
G01*
X232947000Y-115111000D01*
G75*
G02*
X232998000Y-115060000I51000J0D01*
G01*
G37*
G36*
G01*
X236998000Y-115060000D02*
X239098000Y-115060000D01*
G75*
G02*
X239149000Y-115111000I0J-51000D01*
G01*
X239149000Y-115911000D01*
G75*
G02*
X239098000Y-115962000I-51000J0D01*
G01*
X236998000Y-115962000D01*
G75*
G02*
X236947000Y-115911000I0J51000D01*
G01*
X236947000Y-115111000D01*
G75*
G02*
X236998000Y-115060000I51000J0D01*
G01*
G37*
G36*
G01*
X239998000Y-115060000D02*
X242098000Y-115060000D01*
G75*
G02*
X242149000Y-115111000I0J-51000D01*
G01*
X242149000Y-115911000D01*
G75*
G02*
X242098000Y-115962000I-51000J0D01*
G01*
X239998000Y-115962000D01*
G75*
G02*
X239947000Y-115911000I0J51000D01*
G01*
X239947000Y-115111000D01*
G75*
G02*
X239998000Y-115060000I51000J0D01*
G01*
G37*
D20*
X235848000Y-113411000D03*
X242848000Y-113411000D03*
G36*
G01*
X236998000Y-109110000D02*
X239098000Y-109110000D01*
G75*
G02*
X239149000Y-109161000I0J-51000D01*
G01*
X239149000Y-109961000D01*
G75*
G02*
X239098000Y-110012000I-51000J0D01*
G01*
X236998000Y-110012000D01*
G75*
G02*
X236947000Y-109961000I0J51000D01*
G01*
X236947000Y-109161000D01*
G75*
G02*
X236998000Y-109110000I51000J0D01*
G01*
G37*
G36*
G01*
X239998000Y-109110000D02*
X242098000Y-109110000D01*
G75*
G02*
X242149000Y-109161000I0J-51000D01*
G01*
X242149000Y-109961000D01*
G75*
G02*
X242098000Y-110012000I-51000J0D01*
G01*
X239998000Y-110012000D01*
G75*
G02*
X239947000Y-109961000I0J51000D01*
G01*
X239947000Y-109161000D01*
G75*
G02*
X239998000Y-109110000I51000J0D01*
G01*
G37*
G36*
G01*
X231498000Y-113310000D02*
X233598000Y-113310000D01*
G75*
G02*
X233649000Y-113361000I0J-51000D01*
G01*
X233649000Y-114161000D01*
G75*
G02*
X233598000Y-114212000I-51000J0D01*
G01*
X231498000Y-114212000D01*
G75*
G02*
X231447000Y-114161000I0J51000D01*
G01*
X231447000Y-113361000D01*
G75*
G02*
X231498000Y-113310000I51000J0D01*
G01*
G37*
G36*
G01*
X232998000Y-109110000D02*
X235098000Y-109110000D01*
G75*
G02*
X235149000Y-109161000I0J-51000D01*
G01*
X235149000Y-109961000D01*
G75*
G02*
X235098000Y-110012000I-51000J0D01*
G01*
X232998000Y-110012000D01*
G75*
G02*
X232947000Y-109961000I0J51000D01*
G01*
X232947000Y-109161000D01*
G75*
G02*
X232998000Y-109110000I51000J0D01*
G01*
G37*
X242848000Y-111661000D03*
X235848000Y-111661000D03*
M02*
