%FSLAX45Y45*%
G04 Gerber Fmt 4.5, Leading zero omitted, Abs format (unit mm)*
G04 Created by KiCad (PCBNEW (5.1.9)-1) date 2021-01-20 21:20:54*
%MOMM*%
%LPD*%
G01*
G04 APERTURE LIST*
%TA.AperFunction,Profile*%
%ADD10C,0.050000*%
%TD*%
%TA.AperFunction,Profile*%
%ADD11C,0.200000*%
%TD*%
%ADD12C,0.200000*%
%ADD13C,0.300000*%
G04 APERTURE END LIST*
D10*
X24602462Y-11309754D02*
X24431221Y-11309754D01*
D11*
X24426370Y-5887629D02*
X24431221Y-11309754D01*
X24602462Y-11309754D02*
G75*
G02*
X24902462Y-11609754I0J-300000D01*
G01*
X24126100Y-5587897D02*
X14945975Y-5596162D01*
X22742512Y-11875321D02*
X14951600Y-11882290D01*
X14646245Y-5896431D02*
G75*
G02*
X14945975Y-5596162I300000J268D01*
G01*
X24126100Y-5587897D02*
G75*
G02*
X24426370Y-5887629I270J-300000D01*
G01*
D10*
X14651331Y-11582559D02*
X14646245Y-5896431D01*
D11*
X14951600Y-11882290D02*
G75*
G02*
X14651331Y-11582559I-268J300000D01*
G01*
X24902462Y-13009700D02*
G75*
G02*
X24602462Y-13309700I-300000J0D01*
G01*
X23042512Y-13309700D02*
G75*
G02*
X22742512Y-13009700I0J300000D01*
G01*
X22742512Y-11875321D02*
X22742512Y-13009700D01*
X24902462Y-13009700D02*
X24902462Y-11609754D01*
X23042512Y-13309700D02*
X24602462Y-13309700D01*
D12*
X15140600Y-6951300D02*
X15260600Y-7071300D01*
X15260600Y-6951300D02*
X15140600Y-7071300D01*
X15140600Y-8856300D02*
X15260600Y-8976300D01*
X15260600Y-8856300D02*
X15140600Y-8976300D01*
X15140600Y-10761300D02*
X15260600Y-10881300D01*
X15260600Y-10761300D02*
X15140600Y-10881300D01*
X16184600Y-6951300D02*
X16304600Y-7071300D01*
X16304600Y-6951300D02*
X16184600Y-7071300D01*
X16184600Y-8856300D02*
X16304600Y-8976300D01*
X16304600Y-8856300D02*
X16184600Y-8976300D01*
X16184600Y-10761300D02*
X16304600Y-10881300D01*
X16304600Y-10761300D02*
X16184600Y-10881300D01*
X17045600Y-6951300D02*
X17165600Y-7071300D01*
X17165600Y-6951300D02*
X17045600Y-7071300D01*
X17045600Y-8856300D02*
X17165600Y-8976300D01*
X17165600Y-8856300D02*
X17045600Y-8976300D01*
X17045600Y-10761300D02*
X17165600Y-10881300D01*
X17165600Y-10761300D02*
X17045600Y-10881300D01*
X18089600Y-6951300D02*
X18209600Y-7071300D01*
X18209600Y-6951300D02*
X18089600Y-7071300D01*
X18089600Y-8856300D02*
X18209600Y-8976300D01*
X18209600Y-8856300D02*
X18089600Y-8976300D01*
X18089600Y-10761300D02*
X18209600Y-10881300D01*
X18209600Y-10761300D02*
X18089600Y-10881300D01*
X18950600Y-6951300D02*
X19070600Y-7071300D01*
X19070600Y-6951300D02*
X18950600Y-7071300D01*
X18950600Y-8856300D02*
X19070600Y-8976300D01*
X19070600Y-8856300D02*
X18950600Y-8976300D01*
X18950600Y-10761300D02*
X19070600Y-10881300D01*
X19070600Y-10761300D02*
X18950600Y-10881300D01*
X19994600Y-6951300D02*
X20114600Y-7071300D01*
X20114600Y-6951300D02*
X19994600Y-7071300D01*
X19994600Y-8856300D02*
X20114600Y-8976300D01*
X20114600Y-8856300D02*
X19994600Y-8976300D01*
X19994600Y-10761300D02*
X20114600Y-10881300D01*
X20114600Y-10761300D02*
X19994600Y-10881300D01*
X20855600Y-6951300D02*
X20975600Y-7071300D01*
X20975600Y-6951300D02*
X20855600Y-7071300D01*
X20855600Y-8856300D02*
X20975600Y-8976300D01*
X20975600Y-8856300D02*
X20855600Y-8976300D01*
X20855600Y-10761300D02*
X20975600Y-10881300D01*
X20975600Y-10761300D02*
X20855600Y-10881300D01*
X21899600Y-6951300D02*
X22019600Y-7071300D01*
X22019600Y-6951300D02*
X21899600Y-7071300D01*
X21899600Y-8856300D02*
X22019600Y-8976300D01*
X22019600Y-8856300D02*
X21899600Y-8976300D01*
X21899600Y-10761300D02*
X22019600Y-10881300D01*
X22019600Y-10761300D02*
X21899600Y-10881300D01*
X22760600Y-6951300D02*
X22880600Y-7071300D01*
X22880600Y-6951300D02*
X22760600Y-7071300D01*
X22760600Y-8856300D02*
X22880600Y-8976300D01*
X22880600Y-8856300D02*
X22760600Y-8976300D01*
X22760600Y-10761300D02*
X22880600Y-10881300D01*
X22880600Y-10761300D02*
X22760600Y-10881300D01*
X23243200Y-12666300D02*
X23363200Y-12786300D01*
X23363200Y-12666300D02*
X23243200Y-12786300D01*
X23524800Y-11106100D02*
X23644800Y-11226100D01*
X23644800Y-11106100D02*
X23524800Y-11226100D01*
X23524800Y-11281100D02*
X23644800Y-11401100D01*
X23644800Y-11281100D02*
X23524800Y-11401100D01*
X23804600Y-6951300D02*
X23924600Y-7071300D01*
X23924600Y-6951300D02*
X23804600Y-7071300D01*
X23804600Y-8856300D02*
X23924600Y-8976300D01*
X23924600Y-8856300D02*
X23804600Y-8976300D01*
X23804600Y-10761300D02*
X23924600Y-10881300D01*
X23924600Y-10761300D02*
X23804600Y-10881300D01*
X24224800Y-11106100D02*
X24344800Y-11226100D01*
X24344800Y-11106100D02*
X24224800Y-11226100D01*
X24224800Y-11281100D02*
X24344800Y-11401100D01*
X24344800Y-11281100D02*
X24224800Y-11401100D01*
X24287200Y-12666300D02*
X24407200Y-12786300D01*
X24407200Y-12666300D02*
X24287200Y-12786300D01*
X15257600Y-6591300D02*
G75*
G03*
X15257600Y-6591300I-85000J0D01*
G01*
X15257600Y-8496300D02*
G75*
G03*
X15257600Y-8496300I-85000J0D01*
G01*
X15257600Y-10401300D02*
G75*
G03*
X15257600Y-10401300I-85000J0D01*
G01*
X16357600Y-6591300D02*
G75*
G03*
X16357600Y-6591300I-85000J0D01*
G01*
X16357600Y-8496300D02*
G75*
G03*
X16357600Y-8496300I-85000J0D01*
G01*
X16357600Y-10401300D02*
G75*
G03*
X16357600Y-10401300I-85000J0D01*
G01*
X17162600Y-6591300D02*
G75*
G03*
X17162600Y-6591300I-85000J0D01*
G01*
X17162600Y-8496300D02*
G75*
G03*
X17162600Y-8496300I-85000J0D01*
G01*
X17162600Y-10401300D02*
G75*
G03*
X17162600Y-10401300I-85000J0D01*
G01*
X18262600Y-6591300D02*
G75*
G03*
X18262600Y-6591300I-85000J0D01*
G01*
X18262600Y-8496300D02*
G75*
G03*
X18262600Y-8496300I-85000J0D01*
G01*
X18262600Y-10401300D02*
G75*
G03*
X18262600Y-10401300I-85000J0D01*
G01*
X19067600Y-6591300D02*
G75*
G03*
X19067600Y-6591300I-85000J0D01*
G01*
X19067600Y-8496300D02*
G75*
G03*
X19067600Y-8496300I-85000J0D01*
G01*
X19067600Y-10401300D02*
G75*
G03*
X19067600Y-10401300I-85000J0D01*
G01*
X20167600Y-6591300D02*
G75*
G03*
X20167600Y-6591300I-85000J0D01*
G01*
X20167600Y-8496300D02*
G75*
G03*
X20167600Y-8496300I-85000J0D01*
G01*
X20167600Y-10401300D02*
G75*
G03*
X20167600Y-10401300I-85000J0D01*
G01*
X20972600Y-6591300D02*
G75*
G03*
X20972600Y-6591300I-85000J0D01*
G01*
X20972600Y-8496300D02*
G75*
G03*
X20972600Y-8496300I-85000J0D01*
G01*
X20972600Y-10401300D02*
G75*
G03*
X20972600Y-10401300I-85000J0D01*
G01*
X22072600Y-6591300D02*
G75*
G03*
X22072600Y-6591300I-85000J0D01*
G01*
X22072600Y-8496300D02*
G75*
G03*
X22072600Y-8496300I-85000J0D01*
G01*
X22072600Y-10401300D02*
G75*
G03*
X22072600Y-10401300I-85000J0D01*
G01*
X22877600Y-6591300D02*
G75*
G03*
X22877600Y-6591300I-85000J0D01*
G01*
X22877600Y-8496300D02*
G75*
G03*
X22877600Y-8496300I-85000J0D01*
G01*
X22877600Y-10401300D02*
G75*
G03*
X22877600Y-10401300I-85000J0D01*
G01*
X23360200Y-12306300D02*
G75*
G03*
X23360200Y-12306300I-85000J0D01*
G01*
X23977600Y-6591300D02*
G75*
G03*
X23977600Y-6591300I-85000J0D01*
G01*
X23977600Y-8496300D02*
G75*
G03*
X23977600Y-8496300I-85000J0D01*
G01*
X23977600Y-10401300D02*
G75*
G03*
X23977600Y-10401300I-85000J0D01*
G01*
X24460200Y-12306300D02*
G75*
G03*
X24460200Y-12306300I-85000J0D01*
G01*
X15214600Y-6503800D02*
X15214600Y-6678800D01*
X15127100Y-6591300D02*
X15302100Y-6591300D01*
X15214600Y-8408800D02*
X15214600Y-8583800D01*
X15127100Y-8496300D02*
X15302100Y-8496300D01*
X15214600Y-10313800D02*
X15214600Y-10488800D01*
X15127100Y-10401300D02*
X15302100Y-10401300D01*
X16230600Y-6503800D02*
X16230600Y-6678800D01*
X16143100Y-6591300D02*
X16318100Y-6591300D01*
X16230600Y-8408800D02*
X16230600Y-8583800D01*
X16143100Y-8496300D02*
X16318100Y-8496300D01*
X16230600Y-10313800D02*
X16230600Y-10488800D01*
X16143100Y-10401300D02*
X16318100Y-10401300D01*
X17119600Y-6503800D02*
X17119600Y-6678800D01*
X17032100Y-6591300D02*
X17207100Y-6591300D01*
X17119600Y-8408800D02*
X17119600Y-8583800D01*
X17032100Y-8496300D02*
X17207100Y-8496300D01*
X17119600Y-10313800D02*
X17119600Y-10488800D01*
X17032100Y-10401300D02*
X17207100Y-10401300D01*
X18135600Y-6503800D02*
X18135600Y-6678800D01*
X18048100Y-6591300D02*
X18223100Y-6591300D01*
X18135600Y-8408800D02*
X18135600Y-8583800D01*
X18048100Y-8496300D02*
X18223100Y-8496300D01*
X18135600Y-10313800D02*
X18135600Y-10488800D01*
X18048100Y-10401300D02*
X18223100Y-10401300D01*
X19024600Y-6503800D02*
X19024600Y-6678800D01*
X18937100Y-6591300D02*
X19112100Y-6591300D01*
X19024600Y-8408800D02*
X19024600Y-8583800D01*
X18937100Y-8496300D02*
X19112100Y-8496300D01*
X19024600Y-10313800D02*
X19024600Y-10488800D01*
X18937100Y-10401300D02*
X19112100Y-10401300D01*
X20040600Y-6503800D02*
X20040600Y-6678800D01*
X19953100Y-6591300D02*
X20128100Y-6591300D01*
X20040600Y-8408800D02*
X20040600Y-8583800D01*
X19953100Y-8496300D02*
X20128100Y-8496300D01*
X20040600Y-10313800D02*
X20040600Y-10488800D01*
X19953100Y-10401300D02*
X20128100Y-10401300D01*
X20929600Y-6503800D02*
X20929600Y-6678800D01*
X20842100Y-6591300D02*
X21017100Y-6591300D01*
X20929600Y-8408800D02*
X20929600Y-8583800D01*
X20842100Y-8496300D02*
X21017100Y-8496300D01*
X20929600Y-10313800D02*
X20929600Y-10488800D01*
X20842100Y-10401300D02*
X21017100Y-10401300D01*
X21945600Y-6503800D02*
X21945600Y-6678800D01*
X21858100Y-6591300D02*
X22033100Y-6591300D01*
X21945600Y-8408800D02*
X21945600Y-8583800D01*
X21858100Y-8496300D02*
X22033100Y-8496300D01*
X21945600Y-10313800D02*
X21945600Y-10488800D01*
X21858100Y-10401300D02*
X22033100Y-10401300D01*
X22834600Y-6503800D02*
X22834600Y-6678800D01*
X22747100Y-6591300D02*
X22922100Y-6591300D01*
X22834600Y-8408800D02*
X22834600Y-8583800D01*
X22747100Y-8496300D02*
X22922100Y-8496300D01*
X22834600Y-10313800D02*
X22834600Y-10488800D01*
X22747100Y-10401300D02*
X22922100Y-10401300D01*
X23317200Y-12218800D02*
X23317200Y-12393800D01*
X23229700Y-12306300D02*
X23404700Y-12306300D01*
X23850600Y-6503800D02*
X23850600Y-6678800D01*
X23763100Y-6591300D02*
X23938100Y-6591300D01*
X23850600Y-8408800D02*
X23850600Y-8583800D01*
X23763100Y-8496300D02*
X23938100Y-8496300D01*
X23850600Y-10313800D02*
X23850600Y-10488800D01*
X23763100Y-10401300D02*
X23938100Y-10401300D01*
X24333200Y-12218800D02*
X24333200Y-12393800D01*
X24245700Y-12306300D02*
X24420700Y-12306300D01*
X15863591Y-6732291D02*
X15863591Y-6450309D01*
X15581609Y-6450309D01*
X15581609Y-6732291D01*
X15863591Y-6732291D01*
X15863591Y-8637291D02*
X15863591Y-8355309D01*
X15581609Y-8355309D01*
X15581609Y-8637291D01*
X15863591Y-8637291D01*
X15863591Y-10542291D02*
X15863591Y-10260309D01*
X15581609Y-10260309D01*
X15581609Y-10542291D01*
X15863591Y-10542291D01*
X17768591Y-6732291D02*
X17768591Y-6450309D01*
X17486609Y-6450309D01*
X17486609Y-6732291D01*
X17768591Y-6732291D01*
X17768591Y-8637291D02*
X17768591Y-8355309D01*
X17486609Y-8355309D01*
X17486609Y-8637291D01*
X17768591Y-8637291D01*
X17768591Y-10542291D02*
X17768591Y-10260309D01*
X17486609Y-10260309D01*
X17486609Y-10542291D01*
X17768591Y-10542291D01*
X19673591Y-6732291D02*
X19673591Y-6450309D01*
X19391609Y-6450309D01*
X19391609Y-6732291D01*
X19673591Y-6732291D01*
X19673591Y-8637291D02*
X19673591Y-8355309D01*
X19391609Y-8355309D01*
X19391609Y-8637291D01*
X19673591Y-8637291D01*
X19673591Y-10542291D02*
X19673591Y-10260309D01*
X19391609Y-10260309D01*
X19391609Y-10542291D01*
X19673591Y-10542291D01*
X21578591Y-6732291D02*
X21578591Y-6450309D01*
X21296609Y-6450309D01*
X21296609Y-6732291D01*
X21578591Y-6732291D01*
X21578591Y-8637291D02*
X21578591Y-8355309D01*
X21296609Y-8355309D01*
X21296609Y-8637291D01*
X21578591Y-8637291D01*
X21578591Y-10542291D02*
X21578591Y-10260309D01*
X21296609Y-10260309D01*
X21296609Y-10542291D01*
X21578591Y-10542291D01*
X23483591Y-6732291D02*
X23483591Y-6450309D01*
X23201609Y-6450309D01*
X23201609Y-6732291D01*
X23483591Y-6732291D01*
X23483591Y-8637291D02*
X23483591Y-8355309D01*
X23201609Y-8355309D01*
X23201609Y-8637291D01*
X23483591Y-8637291D01*
X23483591Y-10542291D02*
X23483591Y-10260309D01*
X23201609Y-10260309D01*
X23201609Y-10542291D01*
X23483591Y-10542291D01*
X23966191Y-12447291D02*
X23966191Y-12165309D01*
X23684209Y-12165309D01*
X23684209Y-12447291D01*
X23966191Y-12447291D01*
D13*
X14922673Y-13785415D02*
X14922673Y-13485415D01*
X14994102Y-13485415D01*
X15036959Y-13499701D01*
X15065531Y-13528272D01*
X15079816Y-13556843D01*
X15094102Y-13613986D01*
X15094102Y-13656843D01*
X15079816Y-13713986D01*
X15065531Y-13742558D01*
X15036959Y-13771129D01*
X14994102Y-13785415D01*
X14922673Y-13785415D01*
X15222673Y-13785415D02*
X15222673Y-13585415D01*
X15222673Y-13642558D02*
X15236959Y-13613986D01*
X15251245Y-13599701D01*
X15279816Y-13585415D01*
X15308388Y-13585415D01*
X15408388Y-13785415D02*
X15408388Y-13585415D01*
X15408388Y-13485415D02*
X15394102Y-13499701D01*
X15408388Y-13513986D01*
X15422673Y-13499701D01*
X15408388Y-13485415D01*
X15408388Y-13513986D01*
X15594102Y-13785415D02*
X15565531Y-13771129D01*
X15551245Y-13742558D01*
X15551245Y-13485415D01*
X15751245Y-13785415D02*
X15722673Y-13771129D01*
X15708388Y-13742558D01*
X15708388Y-13485415D01*
X16094102Y-13785415D02*
X16094102Y-13485415D01*
X16194102Y-13699701D01*
X16294102Y-13485415D01*
X16294102Y-13785415D01*
X16565531Y-13785415D02*
X16565531Y-13628272D01*
X16551245Y-13599701D01*
X16522673Y-13585415D01*
X16465531Y-13585415D01*
X16436959Y-13599701D01*
X16565531Y-13771129D02*
X16536959Y-13785415D01*
X16465531Y-13785415D01*
X16436959Y-13771129D01*
X16422673Y-13742558D01*
X16422673Y-13713986D01*
X16436959Y-13685415D01*
X16465531Y-13671129D01*
X16536959Y-13671129D01*
X16565531Y-13656843D01*
X16708388Y-13585415D02*
X16708388Y-13885415D01*
X16708388Y-13599701D02*
X16736959Y-13585415D01*
X16794102Y-13585415D01*
X16822673Y-13599701D01*
X16836959Y-13613986D01*
X16851245Y-13642558D01*
X16851245Y-13728272D01*
X16836959Y-13756843D01*
X16822673Y-13771129D01*
X16794102Y-13785415D01*
X16736959Y-13785415D01*
X16708388Y-13771129D01*
X16979816Y-13756843D02*
X16994102Y-13771129D01*
X16979816Y-13785415D01*
X16965531Y-13771129D01*
X16979816Y-13756843D01*
X16979816Y-13785415D01*
X16979816Y-13599701D02*
X16994102Y-13613986D01*
X16979816Y-13628272D01*
X16965531Y-13613986D01*
X16979816Y-13599701D01*
X16979816Y-13628272D01*
X14516245Y-14219701D02*
X14636245Y-14339701D01*
X14636245Y-14219701D02*
X14516245Y-14339701D01*
X15079816Y-14415415D02*
X14908388Y-14415415D01*
X14994102Y-14415415D02*
X14994102Y-14115415D01*
X14965531Y-14158272D01*
X14936959Y-14186843D01*
X14908388Y-14201129D01*
X15208388Y-14386843D02*
X15222673Y-14401129D01*
X15208388Y-14415415D01*
X15194102Y-14401129D01*
X15208388Y-14386843D01*
X15208388Y-14415415D01*
X15336959Y-14143986D02*
X15351245Y-14129701D01*
X15379816Y-14115415D01*
X15451245Y-14115415D01*
X15479816Y-14129701D01*
X15494102Y-14143986D01*
X15508388Y-14172558D01*
X15508388Y-14201129D01*
X15494102Y-14243986D01*
X15322673Y-14415415D01*
X15508388Y-14415415D01*
X15694102Y-14115415D02*
X15722673Y-14115415D01*
X15751245Y-14129701D01*
X15765531Y-14143986D01*
X15779816Y-14172558D01*
X15794102Y-14229701D01*
X15794102Y-14301129D01*
X15779816Y-14358272D01*
X15765531Y-14386843D01*
X15751245Y-14401129D01*
X15722673Y-14415415D01*
X15694102Y-14415415D01*
X15665531Y-14401129D01*
X15651245Y-14386843D01*
X15636959Y-14358272D01*
X15622673Y-14301129D01*
X15622673Y-14229701D01*
X15636959Y-14172558D01*
X15651245Y-14143986D01*
X15665531Y-14129701D01*
X15694102Y-14115415D01*
X15922673Y-14415415D02*
X15922673Y-14215415D01*
X15922673Y-14243986D02*
X15936959Y-14229701D01*
X15965531Y-14215415D01*
X16008388Y-14215415D01*
X16036959Y-14229701D01*
X16051245Y-14258272D01*
X16051245Y-14415415D01*
X16051245Y-14258272D02*
X16065531Y-14229701D01*
X16094102Y-14215415D01*
X16136959Y-14215415D01*
X16165531Y-14229701D01*
X16179816Y-14258272D01*
X16179816Y-14415415D01*
X16322673Y-14415415D02*
X16322673Y-14215415D01*
X16322673Y-14243986D02*
X16336959Y-14229701D01*
X16365531Y-14215415D01*
X16408388Y-14215415D01*
X16436959Y-14229701D01*
X16451245Y-14258272D01*
X16451245Y-14415415D01*
X16451245Y-14258272D02*
X16465531Y-14229701D01*
X16494102Y-14215415D01*
X16536959Y-14215415D01*
X16565531Y-14229701D01*
X16579816Y-14258272D01*
X16579816Y-14415415D01*
X17165531Y-14101129D02*
X16908388Y-14486843D01*
X17551245Y-14115415D02*
X17579816Y-14115415D01*
X17608388Y-14129701D01*
X17622673Y-14143986D01*
X17636959Y-14172558D01*
X17651245Y-14229701D01*
X17651245Y-14301129D01*
X17636959Y-14358272D01*
X17622673Y-14386843D01*
X17608388Y-14401129D01*
X17579816Y-14415415D01*
X17551245Y-14415415D01*
X17522673Y-14401129D01*
X17508388Y-14386843D01*
X17494102Y-14358272D01*
X17479816Y-14301129D01*
X17479816Y-14229701D01*
X17494102Y-14172558D01*
X17508388Y-14143986D01*
X17522673Y-14129701D01*
X17551245Y-14115415D01*
X17779816Y-14386843D02*
X17794102Y-14401129D01*
X17779816Y-14415415D01*
X17765531Y-14401129D01*
X17779816Y-14386843D01*
X17779816Y-14415415D01*
X17979816Y-14115415D02*
X18008388Y-14115415D01*
X18036959Y-14129701D01*
X18051245Y-14143986D01*
X18065531Y-14172558D01*
X18079816Y-14229701D01*
X18079816Y-14301129D01*
X18065531Y-14358272D01*
X18051245Y-14386843D01*
X18036959Y-14401129D01*
X18008388Y-14415415D01*
X17979816Y-14415415D01*
X17951245Y-14401129D01*
X17936959Y-14386843D01*
X17922673Y-14358272D01*
X17908388Y-14301129D01*
X17908388Y-14229701D01*
X17922673Y-14172558D01*
X17936959Y-14143986D01*
X17951245Y-14129701D01*
X17979816Y-14115415D01*
X18336959Y-14215415D02*
X18336959Y-14415415D01*
X18265531Y-14101129D02*
X18194102Y-14315415D01*
X18379816Y-14315415D01*
X18465531Y-14115415D02*
X18665531Y-14115415D01*
X18536959Y-14415415D01*
X18765531Y-14115415D02*
X18765531Y-14172558D01*
X18879816Y-14115415D02*
X18879816Y-14172558D01*
X19322673Y-14529701D02*
X19308388Y-14515415D01*
X19279816Y-14472558D01*
X19265531Y-14443986D01*
X19251245Y-14401129D01*
X19236959Y-14329701D01*
X19236959Y-14272558D01*
X19251245Y-14201129D01*
X19265531Y-14158272D01*
X19279816Y-14129701D01*
X19308388Y-14086843D01*
X19322673Y-14072558D01*
X19408388Y-14115415D02*
X19594102Y-14115415D01*
X19494102Y-14229701D01*
X19536959Y-14229701D01*
X19565531Y-14243986D01*
X19579816Y-14258272D01*
X19594102Y-14286843D01*
X19594102Y-14358272D01*
X19579816Y-14386843D01*
X19565531Y-14401129D01*
X19536959Y-14415415D01*
X19451245Y-14415415D01*
X19422673Y-14401129D01*
X19408388Y-14386843D01*
X19851245Y-14115415D02*
X19794102Y-14115415D01*
X19765531Y-14129701D01*
X19751245Y-14143986D01*
X19722673Y-14186843D01*
X19708388Y-14243986D01*
X19708388Y-14358272D01*
X19722673Y-14386843D01*
X19736959Y-14401129D01*
X19765531Y-14415415D01*
X19822673Y-14415415D01*
X19851245Y-14401129D01*
X19865531Y-14386843D01*
X19879816Y-14358272D01*
X19879816Y-14286843D01*
X19865531Y-14258272D01*
X19851245Y-14243986D01*
X19822673Y-14229701D01*
X19765531Y-14229701D01*
X19736959Y-14243986D01*
X19722673Y-14258272D01*
X19708388Y-14286843D01*
X20236959Y-14415415D02*
X20236959Y-14115415D01*
X20365531Y-14415415D02*
X20365531Y-14258272D01*
X20351245Y-14229701D01*
X20322673Y-14215415D01*
X20279816Y-14215415D01*
X20251245Y-14229701D01*
X20236959Y-14243986D01*
X20551245Y-14415415D02*
X20522673Y-14401129D01*
X20508388Y-14386843D01*
X20494102Y-14358272D01*
X20494102Y-14272558D01*
X20508388Y-14243986D01*
X20522673Y-14229701D01*
X20551245Y-14215415D01*
X20594102Y-14215415D01*
X20622673Y-14229701D01*
X20636959Y-14243986D01*
X20651245Y-14272558D01*
X20651245Y-14358272D01*
X20636959Y-14386843D01*
X20622673Y-14401129D01*
X20594102Y-14415415D01*
X20551245Y-14415415D01*
X20822673Y-14415415D02*
X20794102Y-14401129D01*
X20779816Y-14372558D01*
X20779816Y-14115415D01*
X21051245Y-14401129D02*
X21022673Y-14415415D01*
X20965531Y-14415415D01*
X20936959Y-14401129D01*
X20922673Y-14372558D01*
X20922673Y-14258272D01*
X20936959Y-14229701D01*
X20965531Y-14215415D01*
X21022673Y-14215415D01*
X21051245Y-14229701D01*
X21065531Y-14258272D01*
X21065531Y-14286843D01*
X20922673Y-14315415D01*
X21179816Y-14401129D02*
X21208388Y-14415415D01*
X21265531Y-14415415D01*
X21294102Y-14401129D01*
X21308388Y-14372558D01*
X21308388Y-14358272D01*
X21294102Y-14329701D01*
X21265531Y-14315415D01*
X21222673Y-14315415D01*
X21194102Y-14301129D01*
X21179816Y-14272558D01*
X21179816Y-14258272D01*
X21194102Y-14229701D01*
X21222673Y-14215415D01*
X21265531Y-14215415D01*
X21294102Y-14229701D01*
X21408388Y-14529701D02*
X21422673Y-14515415D01*
X21451245Y-14472558D01*
X21465531Y-14443986D01*
X21479816Y-14401129D01*
X21494102Y-14329701D01*
X21494102Y-14272558D01*
X21479816Y-14201129D01*
X21465531Y-14158272D01*
X21451245Y-14129701D01*
X21422673Y-14086843D01*
X21408388Y-14072558D01*
X21951245Y-14529701D02*
X21936959Y-14515415D01*
X21908388Y-14472558D01*
X21894102Y-14443986D01*
X21879816Y-14401129D01*
X21865531Y-14329701D01*
X21865531Y-14272558D01*
X21879816Y-14201129D01*
X21894102Y-14158272D01*
X21908388Y-14129701D01*
X21936959Y-14086843D01*
X21951245Y-14072558D01*
X22065531Y-14215415D02*
X22065531Y-14415415D01*
X22065531Y-14243986D02*
X22079816Y-14229701D01*
X22108388Y-14215415D01*
X22151245Y-14215415D01*
X22179816Y-14229701D01*
X22194102Y-14258272D01*
X22194102Y-14415415D01*
X22379816Y-14415415D02*
X22351245Y-14401129D01*
X22336959Y-14386843D01*
X22322673Y-14358272D01*
X22322673Y-14272558D01*
X22336959Y-14243986D01*
X22351245Y-14229701D01*
X22379816Y-14215415D01*
X22422673Y-14215415D01*
X22451245Y-14229701D01*
X22465531Y-14243986D01*
X22479816Y-14272558D01*
X22479816Y-14358272D01*
X22465531Y-14386843D01*
X22451245Y-14401129D01*
X22422673Y-14415415D01*
X22379816Y-14415415D01*
X22565531Y-14215415D02*
X22679816Y-14215415D01*
X22608388Y-14115415D02*
X22608388Y-14372558D01*
X22622673Y-14401129D01*
X22651245Y-14415415D01*
X22679816Y-14415415D01*
X23008388Y-14215415D02*
X23008388Y-14515415D01*
X23008388Y-14229701D02*
X23036959Y-14215415D01*
X23094102Y-14215415D01*
X23122673Y-14229701D01*
X23136959Y-14243986D01*
X23151245Y-14272558D01*
X23151245Y-14358272D01*
X23136959Y-14386843D01*
X23122673Y-14401129D01*
X23094102Y-14415415D01*
X23036959Y-14415415D01*
X23008388Y-14401129D01*
X23322673Y-14415415D02*
X23294102Y-14401129D01*
X23279816Y-14372558D01*
X23279816Y-14115415D01*
X23565531Y-14415415D02*
X23565531Y-14258272D01*
X23551245Y-14229701D01*
X23522673Y-14215415D01*
X23465531Y-14215415D01*
X23436959Y-14229701D01*
X23565531Y-14401129D02*
X23536959Y-14415415D01*
X23465531Y-14415415D01*
X23436959Y-14401129D01*
X23422673Y-14372558D01*
X23422673Y-14343986D01*
X23436959Y-14315415D01*
X23465531Y-14301129D01*
X23536959Y-14301129D01*
X23565531Y-14286843D01*
X23665531Y-14215415D02*
X23779816Y-14215415D01*
X23708388Y-14115415D02*
X23708388Y-14372558D01*
X23722673Y-14401129D01*
X23751245Y-14415415D01*
X23779816Y-14415415D01*
X23994102Y-14401129D02*
X23965531Y-14415415D01*
X23908388Y-14415415D01*
X23879816Y-14401129D01*
X23865531Y-14372558D01*
X23865531Y-14258272D01*
X23879816Y-14229701D01*
X23908388Y-14215415D01*
X23965531Y-14215415D01*
X23994102Y-14229701D01*
X24008388Y-14258272D01*
X24008388Y-14286843D01*
X23865531Y-14315415D01*
X24265531Y-14415415D02*
X24265531Y-14115415D01*
X24265531Y-14401129D02*
X24236959Y-14415415D01*
X24179816Y-14415415D01*
X24151245Y-14401129D01*
X24136959Y-14386843D01*
X24122673Y-14358272D01*
X24122673Y-14272558D01*
X24136959Y-14243986D01*
X24151245Y-14229701D01*
X24179816Y-14215415D01*
X24236959Y-14215415D01*
X24265531Y-14229701D01*
X24379816Y-14529701D02*
X24394102Y-14515415D01*
X24422673Y-14472558D01*
X24436959Y-14443986D01*
X24451245Y-14401129D01*
X24465531Y-14329701D01*
X24465531Y-14272558D01*
X24451245Y-14201129D01*
X24436959Y-14158272D01*
X24422673Y-14129701D01*
X24394102Y-14086843D01*
X24379816Y-14072558D01*
X14636245Y-14675701D02*
G75*
G03*
X14636245Y-14675701I-85000J0D01*
G01*
X15079816Y-14811415D02*
X14908388Y-14811415D01*
X14994102Y-14811415D02*
X14994102Y-14511415D01*
X14965531Y-14554272D01*
X14936959Y-14582843D01*
X14908388Y-14597129D01*
X15208388Y-14782843D02*
X15222673Y-14797129D01*
X15208388Y-14811415D01*
X15194102Y-14797129D01*
X15208388Y-14782843D01*
X15208388Y-14811415D01*
X15322673Y-14511415D02*
X15522673Y-14511415D01*
X15394102Y-14811415D01*
X15694102Y-14511415D02*
X15722673Y-14511415D01*
X15751245Y-14525701D01*
X15765531Y-14539986D01*
X15779816Y-14568558D01*
X15794102Y-14625701D01*
X15794102Y-14697129D01*
X15779816Y-14754272D01*
X15765531Y-14782843D01*
X15751245Y-14797129D01*
X15722673Y-14811415D01*
X15694102Y-14811415D01*
X15665531Y-14797129D01*
X15651245Y-14782843D01*
X15636959Y-14754272D01*
X15622673Y-14697129D01*
X15622673Y-14625701D01*
X15636959Y-14568558D01*
X15651245Y-14539986D01*
X15665531Y-14525701D01*
X15694102Y-14511415D01*
X15922673Y-14811415D02*
X15922673Y-14611415D01*
X15922673Y-14639986D02*
X15936959Y-14625701D01*
X15965531Y-14611415D01*
X16008388Y-14611415D01*
X16036959Y-14625701D01*
X16051245Y-14654272D01*
X16051245Y-14811415D01*
X16051245Y-14654272D02*
X16065531Y-14625701D01*
X16094102Y-14611415D01*
X16136959Y-14611415D01*
X16165531Y-14625701D01*
X16179816Y-14654272D01*
X16179816Y-14811415D01*
X16322673Y-14811415D02*
X16322673Y-14611415D01*
X16322673Y-14639986D02*
X16336959Y-14625701D01*
X16365531Y-14611415D01*
X16408388Y-14611415D01*
X16436959Y-14625701D01*
X16451245Y-14654272D01*
X16451245Y-14811415D01*
X16451245Y-14654272D02*
X16465531Y-14625701D01*
X16494102Y-14611415D01*
X16536959Y-14611415D01*
X16565531Y-14625701D01*
X16579816Y-14654272D01*
X16579816Y-14811415D01*
X17165531Y-14497129D02*
X16908388Y-14882843D01*
X17551245Y-14511415D02*
X17579816Y-14511415D01*
X17608388Y-14525701D01*
X17622673Y-14539986D01*
X17636959Y-14568558D01*
X17651245Y-14625701D01*
X17651245Y-14697129D01*
X17636959Y-14754272D01*
X17622673Y-14782843D01*
X17608388Y-14797129D01*
X17579816Y-14811415D01*
X17551245Y-14811415D01*
X17522673Y-14797129D01*
X17508388Y-14782843D01*
X17494102Y-14754272D01*
X17479816Y-14697129D01*
X17479816Y-14625701D01*
X17494102Y-14568558D01*
X17508388Y-14539986D01*
X17522673Y-14525701D01*
X17551245Y-14511415D01*
X17779816Y-14782843D02*
X17794102Y-14797129D01*
X17779816Y-14811415D01*
X17765531Y-14797129D01*
X17779816Y-14782843D01*
X17779816Y-14811415D01*
X17979816Y-14511415D02*
X18008388Y-14511415D01*
X18036959Y-14525701D01*
X18051245Y-14539986D01*
X18065531Y-14568558D01*
X18079816Y-14625701D01*
X18079816Y-14697129D01*
X18065531Y-14754272D01*
X18051245Y-14782843D01*
X18036959Y-14797129D01*
X18008388Y-14811415D01*
X17979816Y-14811415D01*
X17951245Y-14797129D01*
X17936959Y-14782843D01*
X17922673Y-14754272D01*
X17908388Y-14697129D01*
X17908388Y-14625701D01*
X17922673Y-14568558D01*
X17936959Y-14539986D01*
X17951245Y-14525701D01*
X17979816Y-14511415D01*
X18336959Y-14511415D02*
X18279816Y-14511415D01*
X18251245Y-14525701D01*
X18236959Y-14539986D01*
X18208388Y-14582843D01*
X18194102Y-14639986D01*
X18194102Y-14754272D01*
X18208388Y-14782843D01*
X18222673Y-14797129D01*
X18251245Y-14811415D01*
X18308388Y-14811415D01*
X18336959Y-14797129D01*
X18351245Y-14782843D01*
X18365531Y-14754272D01*
X18365531Y-14682843D01*
X18351245Y-14654272D01*
X18336959Y-14639986D01*
X18308388Y-14625701D01*
X18251245Y-14625701D01*
X18222673Y-14639986D01*
X18208388Y-14654272D01*
X18194102Y-14682843D01*
X18465531Y-14511415D02*
X18665531Y-14511415D01*
X18536959Y-14811415D01*
X18765531Y-14511415D02*
X18765531Y-14568558D01*
X18879816Y-14511415D02*
X18879816Y-14568558D01*
X19322673Y-14925701D02*
X19308388Y-14911415D01*
X19279816Y-14868558D01*
X19265531Y-14839986D01*
X19251245Y-14797129D01*
X19236959Y-14725701D01*
X19236959Y-14668558D01*
X19251245Y-14597129D01*
X19265531Y-14554272D01*
X19279816Y-14525701D01*
X19308388Y-14482843D01*
X19322673Y-14468558D01*
X19408388Y-14511415D02*
X19594102Y-14511415D01*
X19494102Y-14625701D01*
X19536959Y-14625701D01*
X19565531Y-14639986D01*
X19579816Y-14654272D01*
X19594102Y-14682843D01*
X19594102Y-14754272D01*
X19579816Y-14782843D01*
X19565531Y-14797129D01*
X19536959Y-14811415D01*
X19451245Y-14811415D01*
X19422673Y-14797129D01*
X19408388Y-14782843D01*
X19708388Y-14539986D02*
X19722673Y-14525701D01*
X19751245Y-14511415D01*
X19822673Y-14511415D01*
X19851245Y-14525701D01*
X19865531Y-14539986D01*
X19879816Y-14568558D01*
X19879816Y-14597129D01*
X19865531Y-14639986D01*
X19694102Y-14811415D01*
X19879816Y-14811415D01*
X20236959Y-14811415D02*
X20236959Y-14511415D01*
X20365531Y-14811415D02*
X20365531Y-14654272D01*
X20351245Y-14625701D01*
X20322673Y-14611415D01*
X20279816Y-14611415D01*
X20251245Y-14625701D01*
X20236959Y-14639986D01*
X20551245Y-14811415D02*
X20522673Y-14797129D01*
X20508388Y-14782843D01*
X20494102Y-14754272D01*
X20494102Y-14668558D01*
X20508388Y-14639986D01*
X20522673Y-14625701D01*
X20551245Y-14611415D01*
X20594102Y-14611415D01*
X20622673Y-14625701D01*
X20636959Y-14639986D01*
X20651245Y-14668558D01*
X20651245Y-14754272D01*
X20636959Y-14782843D01*
X20622673Y-14797129D01*
X20594102Y-14811415D01*
X20551245Y-14811415D01*
X20822673Y-14811415D02*
X20794102Y-14797129D01*
X20779816Y-14768558D01*
X20779816Y-14511415D01*
X21051245Y-14797129D02*
X21022673Y-14811415D01*
X20965531Y-14811415D01*
X20936959Y-14797129D01*
X20922673Y-14768558D01*
X20922673Y-14654272D01*
X20936959Y-14625701D01*
X20965531Y-14611415D01*
X21022673Y-14611415D01*
X21051245Y-14625701D01*
X21065531Y-14654272D01*
X21065531Y-14682843D01*
X20922673Y-14711415D01*
X21179816Y-14797129D02*
X21208388Y-14811415D01*
X21265531Y-14811415D01*
X21294102Y-14797129D01*
X21308388Y-14768558D01*
X21308388Y-14754272D01*
X21294102Y-14725701D01*
X21265531Y-14711415D01*
X21222673Y-14711415D01*
X21194102Y-14697129D01*
X21179816Y-14668558D01*
X21179816Y-14654272D01*
X21194102Y-14625701D01*
X21222673Y-14611415D01*
X21265531Y-14611415D01*
X21294102Y-14625701D01*
X21408388Y-14925701D02*
X21422673Y-14911415D01*
X21451245Y-14868558D01*
X21465531Y-14839986D01*
X21479816Y-14797129D01*
X21494102Y-14725701D01*
X21494102Y-14668558D01*
X21479816Y-14597129D01*
X21465531Y-14554272D01*
X21451245Y-14525701D01*
X21422673Y-14482843D01*
X21408388Y-14468558D01*
X21951245Y-14925701D02*
X21936959Y-14911415D01*
X21908388Y-14868558D01*
X21894102Y-14839986D01*
X21879816Y-14797129D01*
X21865531Y-14725701D01*
X21865531Y-14668558D01*
X21879816Y-14597129D01*
X21894102Y-14554272D01*
X21908388Y-14525701D01*
X21936959Y-14482843D01*
X21951245Y-14468558D01*
X22065531Y-14611415D02*
X22065531Y-14811415D01*
X22065531Y-14639986D02*
X22079816Y-14625701D01*
X22108388Y-14611415D01*
X22151245Y-14611415D01*
X22179816Y-14625701D01*
X22194102Y-14654272D01*
X22194102Y-14811415D01*
X22379816Y-14811415D02*
X22351245Y-14797129D01*
X22336959Y-14782843D01*
X22322673Y-14754272D01*
X22322673Y-14668558D01*
X22336959Y-14639986D01*
X22351245Y-14625701D01*
X22379816Y-14611415D01*
X22422673Y-14611415D01*
X22451245Y-14625701D01*
X22465531Y-14639986D01*
X22479816Y-14668558D01*
X22479816Y-14754272D01*
X22465531Y-14782843D01*
X22451245Y-14797129D01*
X22422673Y-14811415D01*
X22379816Y-14811415D01*
X22565531Y-14611415D02*
X22679816Y-14611415D01*
X22608388Y-14511415D02*
X22608388Y-14768558D01*
X22622673Y-14797129D01*
X22651245Y-14811415D01*
X22679816Y-14811415D01*
X23008388Y-14611415D02*
X23008388Y-14911415D01*
X23008388Y-14625701D02*
X23036959Y-14611415D01*
X23094102Y-14611415D01*
X23122673Y-14625701D01*
X23136959Y-14639986D01*
X23151245Y-14668558D01*
X23151245Y-14754272D01*
X23136959Y-14782843D01*
X23122673Y-14797129D01*
X23094102Y-14811415D01*
X23036959Y-14811415D01*
X23008388Y-14797129D01*
X23322673Y-14811415D02*
X23294102Y-14797129D01*
X23279816Y-14768558D01*
X23279816Y-14511415D01*
X23565531Y-14811415D02*
X23565531Y-14654272D01*
X23551245Y-14625701D01*
X23522673Y-14611415D01*
X23465531Y-14611415D01*
X23436959Y-14625701D01*
X23565531Y-14797129D02*
X23536959Y-14811415D01*
X23465531Y-14811415D01*
X23436959Y-14797129D01*
X23422673Y-14768558D01*
X23422673Y-14739986D01*
X23436959Y-14711415D01*
X23465531Y-14697129D01*
X23536959Y-14697129D01*
X23565531Y-14682843D01*
X23665531Y-14611415D02*
X23779816Y-14611415D01*
X23708388Y-14511415D02*
X23708388Y-14768558D01*
X23722673Y-14797129D01*
X23751245Y-14811415D01*
X23779816Y-14811415D01*
X23994102Y-14797129D02*
X23965531Y-14811415D01*
X23908388Y-14811415D01*
X23879816Y-14797129D01*
X23865531Y-14768558D01*
X23865531Y-14654272D01*
X23879816Y-14625701D01*
X23908388Y-14611415D01*
X23965531Y-14611415D01*
X23994102Y-14625701D01*
X24008388Y-14654272D01*
X24008388Y-14682843D01*
X23865531Y-14711415D01*
X24265531Y-14811415D02*
X24265531Y-14511415D01*
X24265531Y-14797129D02*
X24236959Y-14811415D01*
X24179816Y-14811415D01*
X24151245Y-14797129D01*
X24136959Y-14782843D01*
X24122673Y-14754272D01*
X24122673Y-14668558D01*
X24136959Y-14639986D01*
X24151245Y-14625701D01*
X24179816Y-14611415D01*
X24236959Y-14611415D01*
X24265531Y-14625701D01*
X24379816Y-14925701D02*
X24394102Y-14911415D01*
X24422673Y-14868558D01*
X24436959Y-14839986D01*
X24451245Y-14797129D01*
X24465531Y-14725701D01*
X24465531Y-14668558D01*
X24451245Y-14597129D01*
X24436959Y-14554272D01*
X24422673Y-14525701D01*
X24394102Y-14482843D01*
X24379816Y-14468558D01*
X14548745Y-14984201D02*
X14548745Y-15159201D01*
X14461245Y-15071701D02*
X14636245Y-15071701D01*
X15079816Y-15207415D02*
X14908388Y-15207415D01*
X14994102Y-15207415D02*
X14994102Y-14907415D01*
X14965531Y-14950272D01*
X14936959Y-14978843D01*
X14908388Y-14993129D01*
X15208388Y-15178843D02*
X15222673Y-15193129D01*
X15208388Y-15207415D01*
X15194102Y-15193129D01*
X15208388Y-15178843D01*
X15208388Y-15207415D01*
X15322673Y-14907415D02*
X15522673Y-14907415D01*
X15394102Y-15207415D01*
X15779816Y-14907415D02*
X15636959Y-14907415D01*
X15622673Y-15050272D01*
X15636959Y-15035986D01*
X15665531Y-15021701D01*
X15736959Y-15021701D01*
X15765531Y-15035986D01*
X15779816Y-15050272D01*
X15794102Y-15078843D01*
X15794102Y-15150272D01*
X15779816Y-15178843D01*
X15765531Y-15193129D01*
X15736959Y-15207415D01*
X15665531Y-15207415D01*
X15636959Y-15193129D01*
X15622673Y-15178843D01*
X15922673Y-15207415D02*
X15922673Y-15007415D01*
X15922673Y-15035986D02*
X15936959Y-15021701D01*
X15965531Y-15007415D01*
X16008388Y-15007415D01*
X16036959Y-15021701D01*
X16051245Y-15050272D01*
X16051245Y-15207415D01*
X16051245Y-15050272D02*
X16065531Y-15021701D01*
X16094102Y-15007415D01*
X16136959Y-15007415D01*
X16165531Y-15021701D01*
X16179816Y-15050272D01*
X16179816Y-15207415D01*
X16322673Y-15207415D02*
X16322673Y-15007415D01*
X16322673Y-15035986D02*
X16336959Y-15021701D01*
X16365531Y-15007415D01*
X16408388Y-15007415D01*
X16436959Y-15021701D01*
X16451245Y-15050272D01*
X16451245Y-15207415D01*
X16451245Y-15050272D02*
X16465531Y-15021701D01*
X16494102Y-15007415D01*
X16536959Y-15007415D01*
X16565531Y-15021701D01*
X16579816Y-15050272D01*
X16579816Y-15207415D01*
X17165531Y-14893129D02*
X16908388Y-15278843D01*
X17551245Y-14907415D02*
X17579816Y-14907415D01*
X17608388Y-14921701D01*
X17622673Y-14935986D01*
X17636959Y-14964558D01*
X17651245Y-15021701D01*
X17651245Y-15093129D01*
X17636959Y-15150272D01*
X17622673Y-15178843D01*
X17608388Y-15193129D01*
X17579816Y-15207415D01*
X17551245Y-15207415D01*
X17522673Y-15193129D01*
X17508388Y-15178843D01*
X17494102Y-15150272D01*
X17479816Y-15093129D01*
X17479816Y-15021701D01*
X17494102Y-14964558D01*
X17508388Y-14935986D01*
X17522673Y-14921701D01*
X17551245Y-14907415D01*
X17779816Y-15178843D02*
X17794102Y-15193129D01*
X17779816Y-15207415D01*
X17765531Y-15193129D01*
X17779816Y-15178843D01*
X17779816Y-15207415D01*
X17979816Y-14907415D02*
X18008388Y-14907415D01*
X18036959Y-14921701D01*
X18051245Y-14935986D01*
X18065531Y-14964558D01*
X18079816Y-15021701D01*
X18079816Y-15093129D01*
X18065531Y-15150272D01*
X18051245Y-15178843D01*
X18036959Y-15193129D01*
X18008388Y-15207415D01*
X17979816Y-15207415D01*
X17951245Y-15193129D01*
X17936959Y-15178843D01*
X17922673Y-15150272D01*
X17908388Y-15093129D01*
X17908388Y-15021701D01*
X17922673Y-14964558D01*
X17936959Y-14935986D01*
X17951245Y-14921701D01*
X17979816Y-14907415D01*
X18336959Y-14907415D02*
X18279816Y-14907415D01*
X18251245Y-14921701D01*
X18236959Y-14935986D01*
X18208388Y-14978843D01*
X18194102Y-15035986D01*
X18194102Y-15150272D01*
X18208388Y-15178843D01*
X18222673Y-15193129D01*
X18251245Y-15207415D01*
X18308388Y-15207415D01*
X18336959Y-15193129D01*
X18351245Y-15178843D01*
X18365531Y-15150272D01*
X18365531Y-15078843D01*
X18351245Y-15050272D01*
X18336959Y-15035986D01*
X18308388Y-15021701D01*
X18251245Y-15021701D01*
X18222673Y-15035986D01*
X18208388Y-15050272D01*
X18194102Y-15078843D01*
X18508388Y-15207415D02*
X18565531Y-15207415D01*
X18594102Y-15193129D01*
X18608388Y-15178843D01*
X18636959Y-15135986D01*
X18651245Y-15078843D01*
X18651245Y-14964558D01*
X18636959Y-14935986D01*
X18622673Y-14921701D01*
X18594102Y-14907415D01*
X18536959Y-14907415D01*
X18508388Y-14921701D01*
X18494102Y-14935986D01*
X18479816Y-14964558D01*
X18479816Y-15035986D01*
X18494102Y-15064558D01*
X18508388Y-15078843D01*
X18536959Y-15093129D01*
X18594102Y-15093129D01*
X18622673Y-15078843D01*
X18636959Y-15064558D01*
X18651245Y-15035986D01*
X18765531Y-14907415D02*
X18765531Y-14964558D01*
X18879816Y-14907415D02*
X18879816Y-14964558D01*
X19322673Y-15321701D02*
X19308388Y-15307415D01*
X19279816Y-15264558D01*
X19265531Y-15235986D01*
X19251245Y-15193129D01*
X19236959Y-15121701D01*
X19236959Y-15064558D01*
X19251245Y-14993129D01*
X19265531Y-14950272D01*
X19279816Y-14921701D01*
X19308388Y-14878843D01*
X19322673Y-14864558D01*
X19408388Y-14907415D02*
X19594102Y-14907415D01*
X19494102Y-15021701D01*
X19536959Y-15021701D01*
X19565531Y-15035986D01*
X19579816Y-15050272D01*
X19594102Y-15078843D01*
X19594102Y-15150272D01*
X19579816Y-15178843D01*
X19565531Y-15193129D01*
X19536959Y-15207415D01*
X19451245Y-15207415D01*
X19422673Y-15193129D01*
X19408388Y-15178843D01*
X19708388Y-14935986D02*
X19722673Y-14921701D01*
X19751245Y-14907415D01*
X19822673Y-14907415D01*
X19851245Y-14921701D01*
X19865531Y-14935986D01*
X19879816Y-14964558D01*
X19879816Y-14993129D01*
X19865531Y-15035986D01*
X19694102Y-15207415D01*
X19879816Y-15207415D01*
X20236959Y-15207415D02*
X20236959Y-14907415D01*
X20365531Y-15207415D02*
X20365531Y-15050272D01*
X20351245Y-15021701D01*
X20322673Y-15007415D01*
X20279816Y-15007415D01*
X20251245Y-15021701D01*
X20236959Y-15035986D01*
X20551245Y-15207415D02*
X20522673Y-15193129D01*
X20508388Y-15178843D01*
X20494102Y-15150272D01*
X20494102Y-15064558D01*
X20508388Y-15035986D01*
X20522673Y-15021701D01*
X20551245Y-15007415D01*
X20594102Y-15007415D01*
X20622673Y-15021701D01*
X20636959Y-15035986D01*
X20651245Y-15064558D01*
X20651245Y-15150272D01*
X20636959Y-15178843D01*
X20622673Y-15193129D01*
X20594102Y-15207415D01*
X20551245Y-15207415D01*
X20822673Y-15207415D02*
X20794102Y-15193129D01*
X20779816Y-15164558D01*
X20779816Y-14907415D01*
X21051245Y-15193129D02*
X21022673Y-15207415D01*
X20965531Y-15207415D01*
X20936959Y-15193129D01*
X20922673Y-15164558D01*
X20922673Y-15050272D01*
X20936959Y-15021701D01*
X20965531Y-15007415D01*
X21022673Y-15007415D01*
X21051245Y-15021701D01*
X21065531Y-15050272D01*
X21065531Y-15078843D01*
X20922673Y-15107415D01*
X21179816Y-15193129D02*
X21208388Y-15207415D01*
X21265531Y-15207415D01*
X21294102Y-15193129D01*
X21308388Y-15164558D01*
X21308388Y-15150272D01*
X21294102Y-15121701D01*
X21265531Y-15107415D01*
X21222673Y-15107415D01*
X21194102Y-15093129D01*
X21179816Y-15064558D01*
X21179816Y-15050272D01*
X21194102Y-15021701D01*
X21222673Y-15007415D01*
X21265531Y-15007415D01*
X21294102Y-15021701D01*
X21408388Y-15321701D02*
X21422673Y-15307415D01*
X21451245Y-15264558D01*
X21465531Y-15235986D01*
X21479816Y-15193129D01*
X21494102Y-15121701D01*
X21494102Y-15064558D01*
X21479816Y-14993129D01*
X21465531Y-14950272D01*
X21451245Y-14921701D01*
X21422673Y-14878843D01*
X21408388Y-14864558D01*
X21951245Y-15321701D02*
X21936959Y-15307415D01*
X21908388Y-15264558D01*
X21894102Y-15235986D01*
X21879816Y-15193129D01*
X21865531Y-15121701D01*
X21865531Y-15064558D01*
X21879816Y-14993129D01*
X21894102Y-14950272D01*
X21908388Y-14921701D01*
X21936959Y-14878843D01*
X21951245Y-14864558D01*
X22065531Y-15007415D02*
X22065531Y-15207415D01*
X22065531Y-15035986D02*
X22079816Y-15021701D01*
X22108388Y-15007415D01*
X22151245Y-15007415D01*
X22179816Y-15021701D01*
X22194102Y-15050272D01*
X22194102Y-15207415D01*
X22379816Y-15207415D02*
X22351245Y-15193129D01*
X22336959Y-15178843D01*
X22322673Y-15150272D01*
X22322673Y-15064558D01*
X22336959Y-15035986D01*
X22351245Y-15021701D01*
X22379816Y-15007415D01*
X22422673Y-15007415D01*
X22451245Y-15021701D01*
X22465531Y-15035986D01*
X22479816Y-15064558D01*
X22479816Y-15150272D01*
X22465531Y-15178843D01*
X22451245Y-15193129D01*
X22422673Y-15207415D01*
X22379816Y-15207415D01*
X22565531Y-15007415D02*
X22679816Y-15007415D01*
X22608388Y-14907415D02*
X22608388Y-15164558D01*
X22622673Y-15193129D01*
X22651245Y-15207415D01*
X22679816Y-15207415D01*
X23008388Y-15007415D02*
X23008388Y-15307415D01*
X23008388Y-15021701D02*
X23036959Y-15007415D01*
X23094102Y-15007415D01*
X23122673Y-15021701D01*
X23136959Y-15035986D01*
X23151245Y-15064558D01*
X23151245Y-15150272D01*
X23136959Y-15178843D01*
X23122673Y-15193129D01*
X23094102Y-15207415D01*
X23036959Y-15207415D01*
X23008388Y-15193129D01*
X23322673Y-15207415D02*
X23294102Y-15193129D01*
X23279816Y-15164558D01*
X23279816Y-14907415D01*
X23565531Y-15207415D02*
X23565531Y-15050272D01*
X23551245Y-15021701D01*
X23522673Y-15007415D01*
X23465531Y-15007415D01*
X23436959Y-15021701D01*
X23565531Y-15193129D02*
X23536959Y-15207415D01*
X23465531Y-15207415D01*
X23436959Y-15193129D01*
X23422673Y-15164558D01*
X23422673Y-15135986D01*
X23436959Y-15107415D01*
X23465531Y-15093129D01*
X23536959Y-15093129D01*
X23565531Y-15078843D01*
X23665531Y-15007415D02*
X23779816Y-15007415D01*
X23708388Y-14907415D02*
X23708388Y-15164558D01*
X23722673Y-15193129D01*
X23751245Y-15207415D01*
X23779816Y-15207415D01*
X23994102Y-15193129D02*
X23965531Y-15207415D01*
X23908388Y-15207415D01*
X23879816Y-15193129D01*
X23865531Y-15164558D01*
X23865531Y-15050272D01*
X23879816Y-15021701D01*
X23908388Y-15007415D01*
X23965531Y-15007415D01*
X23994102Y-15021701D01*
X24008388Y-15050272D01*
X24008388Y-15078843D01*
X23865531Y-15107415D01*
X24265531Y-15207415D02*
X24265531Y-14907415D01*
X24265531Y-15193129D02*
X24236959Y-15207415D01*
X24179816Y-15207415D01*
X24151245Y-15193129D01*
X24136959Y-15178843D01*
X24122673Y-15150272D01*
X24122673Y-15064558D01*
X24136959Y-15035986D01*
X24151245Y-15021701D01*
X24179816Y-15007415D01*
X24236959Y-15007415D01*
X24265531Y-15021701D01*
X24379816Y-15321701D02*
X24394102Y-15307415D01*
X24422673Y-15264558D01*
X24436959Y-15235986D01*
X24451245Y-15193129D01*
X24465531Y-15121701D01*
X24465531Y-15064558D01*
X24451245Y-14993129D01*
X24436959Y-14950272D01*
X24422673Y-14921701D01*
X24394102Y-14878843D01*
X24379816Y-14864558D01*
X14577846Y-15608692D02*
X14577846Y-15326709D01*
X14295863Y-15326709D01*
X14295863Y-15608692D01*
X14577846Y-15608692D01*
X14894102Y-15303415D02*
X15079816Y-15303415D01*
X14979816Y-15417701D01*
X15022673Y-15417701D01*
X15051245Y-15431986D01*
X15065531Y-15446272D01*
X15079816Y-15474843D01*
X15079816Y-15546272D01*
X15065531Y-15574843D01*
X15051245Y-15589129D01*
X15022673Y-15603415D01*
X14936959Y-15603415D01*
X14908388Y-15589129D01*
X14894102Y-15574843D01*
X15208388Y-15574843D02*
X15222673Y-15589129D01*
X15208388Y-15603415D01*
X15194102Y-15589129D01*
X15208388Y-15574843D01*
X15208388Y-15603415D01*
X15365531Y-15603415D02*
X15422673Y-15603415D01*
X15451245Y-15589129D01*
X15465531Y-15574843D01*
X15494102Y-15531986D01*
X15508388Y-15474843D01*
X15508388Y-15360558D01*
X15494102Y-15331986D01*
X15479816Y-15317701D01*
X15451245Y-15303415D01*
X15394102Y-15303415D01*
X15365531Y-15317701D01*
X15351245Y-15331986D01*
X15336959Y-15360558D01*
X15336959Y-15431986D01*
X15351245Y-15460558D01*
X15365531Y-15474843D01*
X15394102Y-15489129D01*
X15451245Y-15489129D01*
X15479816Y-15474843D01*
X15494102Y-15460558D01*
X15508388Y-15431986D01*
X15651245Y-15603415D02*
X15708388Y-15603415D01*
X15736959Y-15589129D01*
X15751245Y-15574843D01*
X15779816Y-15531986D01*
X15794102Y-15474843D01*
X15794102Y-15360558D01*
X15779816Y-15331986D01*
X15765531Y-15317701D01*
X15736959Y-15303415D01*
X15679816Y-15303415D01*
X15651245Y-15317701D01*
X15636959Y-15331986D01*
X15622673Y-15360558D01*
X15622673Y-15431986D01*
X15636959Y-15460558D01*
X15651245Y-15474843D01*
X15679816Y-15489129D01*
X15736959Y-15489129D01*
X15765531Y-15474843D01*
X15779816Y-15460558D01*
X15794102Y-15431986D01*
X15922673Y-15603415D02*
X15922673Y-15403415D01*
X15922673Y-15431986D02*
X15936959Y-15417701D01*
X15965531Y-15403415D01*
X16008388Y-15403415D01*
X16036959Y-15417701D01*
X16051245Y-15446272D01*
X16051245Y-15603415D01*
X16051245Y-15446272D02*
X16065531Y-15417701D01*
X16094102Y-15403415D01*
X16136959Y-15403415D01*
X16165531Y-15417701D01*
X16179816Y-15446272D01*
X16179816Y-15603415D01*
X16322673Y-15603415D02*
X16322673Y-15403415D01*
X16322673Y-15431986D02*
X16336959Y-15417701D01*
X16365531Y-15403415D01*
X16408388Y-15403415D01*
X16436959Y-15417701D01*
X16451245Y-15446272D01*
X16451245Y-15603415D01*
X16451245Y-15446272D02*
X16465531Y-15417701D01*
X16494102Y-15403415D01*
X16536959Y-15403415D01*
X16565531Y-15417701D01*
X16579816Y-15446272D01*
X16579816Y-15603415D01*
X17165531Y-15289129D02*
X16908388Y-15674843D01*
X17551245Y-15303415D02*
X17579816Y-15303415D01*
X17608388Y-15317701D01*
X17622673Y-15331986D01*
X17636959Y-15360558D01*
X17651245Y-15417701D01*
X17651245Y-15489129D01*
X17636959Y-15546272D01*
X17622673Y-15574843D01*
X17608388Y-15589129D01*
X17579816Y-15603415D01*
X17551245Y-15603415D01*
X17522673Y-15589129D01*
X17508388Y-15574843D01*
X17494102Y-15546272D01*
X17479816Y-15489129D01*
X17479816Y-15417701D01*
X17494102Y-15360558D01*
X17508388Y-15331986D01*
X17522673Y-15317701D01*
X17551245Y-15303415D01*
X17779816Y-15574843D02*
X17794102Y-15589129D01*
X17779816Y-15603415D01*
X17765531Y-15589129D01*
X17779816Y-15574843D01*
X17779816Y-15603415D01*
X18079816Y-15603415D02*
X17908388Y-15603415D01*
X17994102Y-15603415D02*
X17994102Y-15303415D01*
X17965531Y-15346272D01*
X17936959Y-15374843D01*
X17908388Y-15389129D01*
X18351245Y-15303415D02*
X18208388Y-15303415D01*
X18194102Y-15446272D01*
X18208388Y-15431986D01*
X18236959Y-15417701D01*
X18308388Y-15417701D01*
X18336959Y-15431986D01*
X18351245Y-15446272D01*
X18365531Y-15474843D01*
X18365531Y-15546272D01*
X18351245Y-15574843D01*
X18336959Y-15589129D01*
X18308388Y-15603415D01*
X18236959Y-15603415D01*
X18208388Y-15589129D01*
X18194102Y-15574843D01*
X18465531Y-15303415D02*
X18665531Y-15303415D01*
X18536959Y-15603415D01*
X18765531Y-15303415D02*
X18765531Y-15360558D01*
X18879816Y-15303415D02*
X18879816Y-15360558D01*
X19322673Y-15717701D02*
X19308388Y-15703415D01*
X19279816Y-15660558D01*
X19265531Y-15631986D01*
X19251245Y-15589129D01*
X19236959Y-15517701D01*
X19236959Y-15460558D01*
X19251245Y-15389129D01*
X19265531Y-15346272D01*
X19279816Y-15317701D01*
X19308388Y-15274843D01*
X19322673Y-15260558D01*
X19594102Y-15603415D02*
X19422673Y-15603415D01*
X19508388Y-15603415D02*
X19508388Y-15303415D01*
X19479816Y-15346272D01*
X19451245Y-15374843D01*
X19422673Y-15389129D01*
X19851245Y-15303415D02*
X19794102Y-15303415D01*
X19765531Y-15317701D01*
X19751245Y-15331986D01*
X19722673Y-15374843D01*
X19708388Y-15431986D01*
X19708388Y-15546272D01*
X19722673Y-15574843D01*
X19736959Y-15589129D01*
X19765531Y-15603415D01*
X19822673Y-15603415D01*
X19851245Y-15589129D01*
X19865531Y-15574843D01*
X19879816Y-15546272D01*
X19879816Y-15474843D01*
X19865531Y-15446272D01*
X19851245Y-15431986D01*
X19822673Y-15417701D01*
X19765531Y-15417701D01*
X19736959Y-15431986D01*
X19722673Y-15446272D01*
X19708388Y-15474843D01*
X20236959Y-15603415D02*
X20236959Y-15303415D01*
X20365531Y-15603415D02*
X20365531Y-15446272D01*
X20351245Y-15417701D01*
X20322673Y-15403415D01*
X20279816Y-15403415D01*
X20251245Y-15417701D01*
X20236959Y-15431986D01*
X20551245Y-15603415D02*
X20522673Y-15589129D01*
X20508388Y-15574843D01*
X20494102Y-15546272D01*
X20494102Y-15460558D01*
X20508388Y-15431986D01*
X20522673Y-15417701D01*
X20551245Y-15403415D01*
X20594102Y-15403415D01*
X20622673Y-15417701D01*
X20636959Y-15431986D01*
X20651245Y-15460558D01*
X20651245Y-15546272D01*
X20636959Y-15574843D01*
X20622673Y-15589129D01*
X20594102Y-15603415D01*
X20551245Y-15603415D01*
X20822673Y-15603415D02*
X20794102Y-15589129D01*
X20779816Y-15560558D01*
X20779816Y-15303415D01*
X21051245Y-15589129D02*
X21022673Y-15603415D01*
X20965531Y-15603415D01*
X20936959Y-15589129D01*
X20922673Y-15560558D01*
X20922673Y-15446272D01*
X20936959Y-15417701D01*
X20965531Y-15403415D01*
X21022673Y-15403415D01*
X21051245Y-15417701D01*
X21065531Y-15446272D01*
X21065531Y-15474843D01*
X20922673Y-15503415D01*
X21179816Y-15589129D02*
X21208388Y-15603415D01*
X21265531Y-15603415D01*
X21294102Y-15589129D01*
X21308388Y-15560558D01*
X21308388Y-15546272D01*
X21294102Y-15517701D01*
X21265531Y-15503415D01*
X21222673Y-15503415D01*
X21194102Y-15489129D01*
X21179816Y-15460558D01*
X21179816Y-15446272D01*
X21194102Y-15417701D01*
X21222673Y-15403415D01*
X21265531Y-15403415D01*
X21294102Y-15417701D01*
X21408388Y-15717701D02*
X21422673Y-15703415D01*
X21451245Y-15660558D01*
X21465531Y-15631986D01*
X21479816Y-15589129D01*
X21494102Y-15517701D01*
X21494102Y-15460558D01*
X21479816Y-15389129D01*
X21465531Y-15346272D01*
X21451245Y-15317701D01*
X21422673Y-15274843D01*
X21408388Y-15260558D01*
X21951245Y-15717701D02*
X21936959Y-15703415D01*
X21908388Y-15660558D01*
X21894102Y-15631986D01*
X21879816Y-15589129D01*
X21865531Y-15517701D01*
X21865531Y-15460558D01*
X21879816Y-15389129D01*
X21894102Y-15346272D01*
X21908388Y-15317701D01*
X21936959Y-15274843D01*
X21951245Y-15260558D01*
X22065531Y-15403415D02*
X22065531Y-15603415D01*
X22065531Y-15431986D02*
X22079816Y-15417701D01*
X22108388Y-15403415D01*
X22151245Y-15403415D01*
X22179816Y-15417701D01*
X22194102Y-15446272D01*
X22194102Y-15603415D01*
X22379816Y-15603415D02*
X22351245Y-15589129D01*
X22336959Y-15574843D01*
X22322673Y-15546272D01*
X22322673Y-15460558D01*
X22336959Y-15431986D01*
X22351245Y-15417701D01*
X22379816Y-15403415D01*
X22422673Y-15403415D01*
X22451245Y-15417701D01*
X22465531Y-15431986D01*
X22479816Y-15460558D01*
X22479816Y-15546272D01*
X22465531Y-15574843D01*
X22451245Y-15589129D01*
X22422673Y-15603415D01*
X22379816Y-15603415D01*
X22565531Y-15403415D02*
X22679816Y-15403415D01*
X22608388Y-15303415D02*
X22608388Y-15560558D01*
X22622673Y-15589129D01*
X22651245Y-15603415D01*
X22679816Y-15603415D01*
X23008388Y-15403415D02*
X23008388Y-15703415D01*
X23008388Y-15417701D02*
X23036959Y-15403415D01*
X23094102Y-15403415D01*
X23122673Y-15417701D01*
X23136959Y-15431986D01*
X23151245Y-15460558D01*
X23151245Y-15546272D01*
X23136959Y-15574843D01*
X23122673Y-15589129D01*
X23094102Y-15603415D01*
X23036959Y-15603415D01*
X23008388Y-15589129D01*
X23322673Y-15603415D02*
X23294102Y-15589129D01*
X23279816Y-15560558D01*
X23279816Y-15303415D01*
X23565531Y-15603415D02*
X23565531Y-15446272D01*
X23551245Y-15417701D01*
X23522673Y-15403415D01*
X23465531Y-15403415D01*
X23436959Y-15417701D01*
X23565531Y-15589129D02*
X23536959Y-15603415D01*
X23465531Y-15603415D01*
X23436959Y-15589129D01*
X23422673Y-15560558D01*
X23422673Y-15531986D01*
X23436959Y-15503415D01*
X23465531Y-15489129D01*
X23536959Y-15489129D01*
X23565531Y-15474843D01*
X23665531Y-15403415D02*
X23779816Y-15403415D01*
X23708388Y-15303415D02*
X23708388Y-15560558D01*
X23722673Y-15589129D01*
X23751245Y-15603415D01*
X23779816Y-15603415D01*
X23994102Y-15589129D02*
X23965531Y-15603415D01*
X23908388Y-15603415D01*
X23879816Y-15589129D01*
X23865531Y-15560558D01*
X23865531Y-15446272D01*
X23879816Y-15417701D01*
X23908388Y-15403415D01*
X23965531Y-15403415D01*
X23994102Y-15417701D01*
X24008388Y-15446272D01*
X24008388Y-15474843D01*
X23865531Y-15503415D01*
X24265531Y-15603415D02*
X24265531Y-15303415D01*
X24265531Y-15589129D02*
X24236959Y-15603415D01*
X24179816Y-15603415D01*
X24151245Y-15589129D01*
X24136959Y-15574843D01*
X24122673Y-15546272D01*
X24122673Y-15460558D01*
X24136959Y-15431986D01*
X24151245Y-15417701D01*
X24179816Y-15403415D01*
X24236959Y-15403415D01*
X24265531Y-15417701D01*
X24379816Y-15717701D02*
X24394102Y-15703415D01*
X24422673Y-15660558D01*
X24436959Y-15631986D01*
X24451245Y-15589129D01*
X24465531Y-15517701D01*
X24465531Y-15460558D01*
X24451245Y-15389129D01*
X24436959Y-15346272D01*
X24422673Y-15317701D01*
X24394102Y-15274843D01*
X24379816Y-15260558D01*
M02*
