M48
; DRILL file {KiCad (5.1.4)-1} date 11/18/20 14:17:56
; FORMAT={-:-/ absolute / inch / decimal}
; #@! TF.CreationDate,2020-11-18T14:17:56-05:00
; #@! TF.GenerationSoftware,Kicad,Pcbnew,(5.1.4)-1
; #@! TF.FileFunction,NonPlated,1,2,NPTH
FMAT,2
INCH
T1C0.0315
T2C0.0689
T3C0.1570
%
G90
G05
T1
X9.2764Y-4.325
X9.552Y-4.325
X1.983Y-4.34
X2.2586Y-4.34
T2
X8.24Y-3.345
X8.64Y-3.345
X7.49Y-4.095
X7.89Y-4.095
X1.9575Y-4.8539
X2.3575Y-4.8539
X3.645Y-4.1
X4.045Y-4.1
X9.18Y-4.845
X9.58Y-4.845
X5.995Y-3.345
X6.395Y-3.345
X5.14Y-3.35
X5.54Y-3.35
X6.745Y-3.345
X7.145Y-3.345
X5.995Y-4.095
X6.395Y-4.095
X2.14Y-2.6
X2.54Y-2.6
X8.995Y-4.095
X9.395Y-4.095
X2.14Y-4.1
X2.54Y-4.1
X4.39Y-2.6
X4.79Y-2.6
X3.64Y-2.6
X4.04Y-2.6
X4.39Y-3.35
X4.79Y-3.35
X8.99Y-2.595
X9.39Y-2.595
X2.89Y-2.6
X3.29Y-2.6
X7.49Y-2.595
X7.89Y-2.595
X8.99Y-3.345
X9.39Y-3.345
X3.645Y-3.35
X4.045Y-3.35
X6.74Y-2.595
X7.14Y-2.595
X4.395Y-4.1
X4.795Y-4.1
X2.89Y-4.1
X3.29Y-4.1
X8.24Y-4.095
X8.64Y-4.095
X2.895Y-3.35
X3.295Y-3.35
X8.24Y-2.595
X8.64Y-2.595
X6.745Y-4.095
X7.145Y-4.095
X2.14Y-3.35
X2.54Y-3.35
X7.49Y-3.345
X7.89Y-3.345
X5.14Y-2.6
X5.54Y-2.6
X5.995Y-2.595
X6.395Y-2.595
X5.145Y-4.1
X5.545Y-4.1
T3
X7.69Y-4.095
X2.1575Y-4.8539
X3.845Y-4.1
X9.38Y-4.845
X6.195Y-3.345
X5.34Y-3.35
X6.945Y-3.345
X6.195Y-4.095
X2.34Y-2.6
X9.195Y-4.095
X2.34Y-4.1
X4.59Y-2.6
X3.84Y-2.6
X4.59Y-3.35
X9.19Y-2.595
X3.09Y-2.6
X7.69Y-2.595
X9.19Y-3.345
X3.845Y-3.35
X6.94Y-2.595
X4.595Y-4.1
X3.09Y-4.1
X8.44Y-4.095
X3.095Y-3.35
X8.44Y-2.595
X6.945Y-4.095
X2.34Y-3.35
X7.69Y-3.345
X5.34Y-2.6
X6.195Y-2.595
X5.345Y-4.1
X8.44Y-3.345
T0
M30
