M48
; DRILL file {KiCad (5.1.4)-1} date 11/18/20 14:17:56
; FORMAT={-:-/ absolute / inch / decimal}
; #@! TF.CreationDate,2020-11-18T14:17:56-05:00
; #@! TF.GenerationSoftware,Kicad,Pcbnew,(5.1.4)-1
; #@! TF.FileFunction,Plated,1,2,PTH
FMAT,2
INCH
T1C0.0354
T2C0.0394
T3C0.0433
T4C0.0579
%
G90
G05
T2
X3.6865Y-2.84
X3.9935Y-2.84
X9.0365Y-2.835
X9.3435Y-2.835
X4.4365Y-3.59
X4.7435Y-3.59
X6.7915Y-3.585
X7.0985Y-3.585
X2.9415Y-3.59
X3.2485Y-3.59
X2.1915Y-3.59
X2.4985Y-3.59
X6.0365Y-2.835
X6.3435Y-2.835
X5.1865Y-2.84
X5.4935Y-2.84
X2.9365Y-2.84
X3.2435Y-2.84
X2.4765Y-4.34
X2.7835Y-4.34
X9.0365Y-3.585
X9.3435Y-3.585
X3.6915Y-3.59
X3.9985Y-3.59
X7.5365Y-4.335
X7.8435Y-4.335
X4.4365Y-2.84
X4.7435Y-2.84
X7.5365Y-2.835
X7.8435Y-2.835
X2.1865Y-2.84
X2.4935Y-2.84
X9.2265Y-5.085
X9.5335Y-5.085
X7.5415Y-3.585
X7.8485Y-3.585
X2.9365Y-4.34
X3.2435Y-4.34
X8.7515Y-4.335
X9.0585Y-4.335
X4.4415Y-4.34
X4.7485Y-4.34
X6.7915Y-4.335
X7.0985Y-4.335
X8.2865Y-4.335
X8.5935Y-4.335
X6.0415Y-4.335
X6.3485Y-4.335
X8.2865Y-2.835
X8.5935Y-2.835
X5.1865Y-3.59
X5.4935Y-3.59
X3.6915Y-4.34
X3.9985Y-4.34
X6.0415Y-3.59
X6.3485Y-3.59
X2.0015Y-5.09
X2.3085Y-5.09
X8.2865Y-3.585
X8.5935Y-3.585
X5.1915Y-4.34
X5.4985Y-4.34
X6.7865Y-2.835
X7.0935Y-2.835
T3
X5.895Y-2.36
X5.895Y-2.46
X5.895Y-2.56
X5.895Y-2.66
X5.895Y-2.76
X5.895Y-2.86
X5.895Y-2.96
X5.895Y-3.06
X5.895Y-3.16
X5.895Y-3.26
X5.895Y-3.36
X5.895Y-3.46
X6.495Y-2.36
X6.495Y-2.46
X6.495Y-2.56
X6.495Y-2.66
X6.495Y-2.76
X6.495Y-2.86
X6.495Y-2.96
X6.495Y-3.06
X6.495Y-3.16
X6.495Y-3.26
X6.495Y-3.36
X6.495Y-3.46
X5.04Y-2.36
X5.04Y-2.46
X5.04Y-2.56
X5.04Y-2.66
X5.04Y-2.76
X5.04Y-2.86
X5.04Y-2.96
X5.04Y-3.06
X5.04Y-3.16
X5.04Y-3.26
X5.04Y-3.36
X5.04Y-3.46
X5.64Y-2.36
X5.64Y-2.46
X5.64Y-2.56
X5.64Y-2.66
X5.64Y-2.76
X5.64Y-2.86
X5.64Y-2.96
X5.64Y-3.06
X5.64Y-3.16
X5.64Y-3.26
X5.64Y-3.36
X5.64Y-3.46
T4
X8.29Y-3.245
X8.3416Y-3.1875
X8.5384Y-3.1678
X8.54Y-3.145
X7.54Y-3.995
X7.5916Y-3.9375
X7.7884Y-3.9178
X7.79Y-3.895
X2.0075Y-4.7539
X2.0591Y-4.6965
X2.2559Y-4.6768
X2.2575Y-4.6539
X3.695Y-4.0
X3.7466Y-3.9425
X3.9434Y-3.9228
X3.945Y-3.9
X9.23Y-4.745
X9.2816Y-4.6875
X9.4784Y-4.6678
X9.48Y-4.645
X6.045Y-3.245
X6.0966Y-3.1875
X6.2934Y-3.1678
X6.295Y-3.145
X5.19Y-3.25
X5.2416Y-3.1925
X5.4384Y-3.1728
X5.44Y-3.15
X6.795Y-3.245
X6.8466Y-3.1875
X7.0434Y-3.1678
X7.045Y-3.145
X6.045Y-3.995
X6.0966Y-3.9375
X6.2934Y-3.9178
X6.295Y-3.895
X2.19Y-2.5
X2.2416Y-2.4425
X2.4384Y-2.4228
X2.44Y-2.4
X9.045Y-3.995
X9.0966Y-3.9375
X9.2934Y-3.9178
X9.295Y-3.895
X2.19Y-4.0
X2.2416Y-3.9425
X2.4384Y-3.9228
X2.44Y-3.9
X4.44Y-2.5
X4.4916Y-2.4425
X4.6884Y-2.4228
X4.69Y-2.4
X3.69Y-2.5
X3.7416Y-2.4425
X3.9384Y-2.4228
X3.94Y-2.4
X4.44Y-3.25
X4.4916Y-3.1925
X4.6884Y-3.1728
X4.69Y-3.15
X9.04Y-2.495
X9.0916Y-2.4375
X9.2884Y-2.4178
X9.29Y-2.395
X2.94Y-2.5
X2.9916Y-2.4425
X3.1884Y-2.4228
X3.19Y-2.4
X7.54Y-2.495
X7.5916Y-2.4375
X7.7884Y-2.4178
X7.79Y-2.395
X9.04Y-3.245
X9.0916Y-3.1875
X9.2884Y-3.1678
X9.29Y-3.145
X3.695Y-3.25
X3.7466Y-3.1925
X3.9434Y-3.1728
X3.945Y-3.15
X6.79Y-2.495
X6.8416Y-2.4375
X7.0384Y-2.4178
X7.04Y-2.395
X4.445Y-4.0
X4.4966Y-3.9425
X4.6934Y-3.9228
X4.695Y-3.9
X2.94Y-4.0
X2.9916Y-3.9425
X3.1884Y-3.9228
X3.19Y-3.9
X8.29Y-3.995
X8.3416Y-3.9375
X8.5384Y-3.9178
X8.54Y-3.895
X2.945Y-3.25
X2.9966Y-3.1925
X3.1934Y-3.1728
X3.195Y-3.15
X8.29Y-2.495
X8.3416Y-2.4375
X8.5384Y-2.4178
X8.54Y-2.395
X6.795Y-3.995
X6.8466Y-3.9375
X7.0434Y-3.9178
X7.045Y-3.895
X2.19Y-3.25
X2.2416Y-3.1925
X2.4384Y-3.1728
X2.44Y-3.15
X7.54Y-3.245
X7.5916Y-3.1875
X7.7884Y-3.1678
X7.79Y-3.145
X5.19Y-2.5
X5.2416Y-2.4425
X5.4384Y-2.4228
X5.44Y-2.4
X6.045Y-2.495
X6.0966Y-2.4375
X6.2934Y-2.4178
X6.295Y-2.395
X5.195Y-4.0
X5.2466Y-3.9425
X5.4434Y-3.9228
X5.445Y-3.9
T1
G00X9.1622Y-4.4156
M15
G01X9.178Y-4.4156
M16
G05
G00X9.2056Y-4.2344
M15
G01X9.2213Y-4.2344
M16
G05
G00X9.363Y-4.2344
M15
G01X9.3788Y-4.2344
M16
G05
G00X9.4811Y-4.2344
M15
G01X9.4969Y-4.2344
M16
G05
G00X2.0539Y-4.4306
M15
G01X2.0381Y-4.4306
M16
G05
G00X2.172Y-4.4306
M15
G01X2.1562Y-4.4306
M16
G05
G00X2.3294Y-4.4306
M15
G01X2.3137Y-4.4306
M16
G05
G00X2.3728Y-4.2494
M15
G01X2.357Y-4.2494
M16
G05
T0
M30
