M48
; DRILL file {KiCad (5.1.9)-1} date 01/20/21 21:20:53
; FORMAT={-:-/ absolute / inch / decimal}
; #@! TF.CreationDate,2021-01-20T21:20:53-05:00
; #@! TF.GenerationSoftware,Kicad,Pcbnew,(5.1.9)-1
; #@! TF.FileFunction,NonPlated,1,2,NPTH
FMAT,2
INCH
T1C0.0472
T2C0.0669
T3C0.0689
T4C0.1570
%
G90
G05
T1
X5.9845Y-2.7604
X5.9845Y-3.5104
X5.9845Y-4.2604
X6.3955Y-2.7604
X6.3955Y-3.5104
X6.3955Y-4.2604
X6.7345Y-2.7604
X6.7345Y-3.5104
X6.7345Y-4.2604
X7.1455Y-2.7604
X7.1455Y-3.5104
X7.1455Y-4.2604
X7.4845Y-2.7604
X7.4845Y-3.5104
X7.4845Y-4.2604
X7.8955Y-2.7604
X7.8955Y-3.5104
X7.8955Y-4.2604
X8.2345Y-2.7604
X8.2345Y-3.5104
X8.2345Y-4.2604
X8.6455Y-2.7604
X8.6455Y-3.5104
X8.6455Y-4.2604
X8.9845Y-2.7604
X8.9845Y-3.5104
X8.9845Y-4.2604
X9.1745Y-5.0104
X9.2854Y-4.3961
X9.2854Y-4.465
X9.3955Y-2.7604
X9.3955Y-3.5104
X9.3955Y-4.2604
X9.5609Y-4.3961
X9.5609Y-4.465
X9.5855Y-5.0104
T2
X5.9735Y-2.595
X5.9735Y-3.345
X5.9735Y-4.095
X6.4065Y-2.595
X6.4065Y-3.345
X6.4065Y-4.095
X6.7235Y-2.595
X6.7235Y-3.345
X6.7235Y-4.095
X7.1565Y-2.595
X7.1565Y-3.345
X7.1565Y-4.095
X7.4735Y-2.595
X7.4735Y-3.345
X7.4735Y-4.095
X7.9065Y-2.595
X7.9065Y-3.345
X7.9065Y-4.095
X8.2235Y-2.595
X8.2235Y-3.345
X8.2235Y-4.095
X8.6565Y-2.595
X8.6565Y-3.345
X8.6565Y-4.095
X8.9735Y-2.595
X8.9735Y-3.345
X8.9735Y-4.095
X9.1635Y-4.845
X9.4065Y-2.595
X9.4065Y-3.345
X9.4065Y-4.095
X9.5965Y-4.845
T3
X5.99Y-2.595
X5.99Y-3.345
X5.99Y-4.095
X6.39Y-2.595
X6.39Y-3.345
X6.39Y-4.095
X6.74Y-2.595
X6.74Y-3.345
X6.74Y-4.095
X7.14Y-2.595
X7.14Y-3.345
X7.14Y-4.095
X7.49Y-2.595
X7.49Y-3.345
X7.49Y-4.095
X7.89Y-2.595
X7.89Y-3.345
X7.89Y-4.095
X8.24Y-2.595
X8.24Y-3.345
X8.24Y-4.095
X8.64Y-2.595
X8.64Y-3.345
X8.64Y-4.095
X8.99Y-2.595
X8.99Y-3.345
X8.99Y-4.095
X9.18Y-4.845
X9.39Y-2.595
X9.39Y-3.345
X9.39Y-4.095
X9.58Y-4.845
T4
X6.19Y-2.595
X6.19Y-3.345
X6.19Y-4.095
X6.94Y-2.595
X6.94Y-3.345
X6.94Y-4.095
X7.69Y-2.595
X7.69Y-3.345
X7.69Y-4.095
X8.44Y-2.595
X8.44Y-3.345
X8.44Y-4.095
X9.19Y-2.595
X9.19Y-3.345
X9.19Y-4.095
X9.38Y-4.845
T0
M30
