G04 #@! TF.GenerationSoftware,KiCad,Pcbnew,(5.1.9)-1*
G04 #@! TF.CreationDate,2021-01-20T21:20:51-05:00*
G04 #@! TF.ProjectId,splitty,73706c69-7474-4792-9e6b-696361645f70,rev?*
G04 #@! TF.SameCoordinates,Original*
G04 #@! TF.FileFunction,Legend,Top*
G04 #@! TF.FilePolarity,Positive*
%FSLAX46Y46*%
G04 Gerber Fmt 4.6, Leading zero omitted, Abs format (unit mm)*
G04 Created by KiCad (PCBNEW (5.1.9)-1) date 2021-01-20 21:20:51*
%MOMM*%
%LPD*%
G01*
G04 APERTURE LIST*
%ADD10C,0.010000*%
%ADD11C,0.150000*%
%ADD12C,1.626000*%
%ADD13C,2.302000*%
%ADD14C,1.702000*%
%ADD15C,2.352000*%
%ADD16C,4.089800*%
%ADD17C,1.852000*%
%ADD18C,2.102000*%
%ADD19C,1.802000*%
%ADD20C,1.302000*%
G04 APERTURE END LIST*
D10*
G36*
X151000400Y-97775800D02*
G01*
X151000400Y-98182200D01*
X152219600Y-98182200D01*
X152219600Y-98461600D01*
X151000400Y-98461600D01*
X151000400Y-98868000D01*
X150746400Y-98868000D01*
X150746400Y-97775800D01*
X151000400Y-97775800D01*
G37*
X151000400Y-97775800D02*
X151000400Y-98182200D01*
X152219600Y-98182200D01*
X152219600Y-98461600D01*
X151000400Y-98461600D01*
X151000400Y-98868000D01*
X150746400Y-98868000D01*
X150746400Y-97775800D01*
X151000400Y-97775800D01*
G36*
X150975000Y-97315812D02*
G01*
X151069251Y-97258802D01*
X151144596Y-97210922D01*
X151191912Y-97178113D01*
X151203517Y-97166989D01*
X151182883Y-97149494D01*
X151127370Y-97113223D01*
X151046443Y-97064176D01*
X150985173Y-97028560D01*
X150891050Y-96972384D01*
X150814741Y-96922523D01*
X150766471Y-96885894D01*
X150755137Y-96872933D01*
X150749642Y-96830463D01*
X150749482Y-96759006D01*
X150751230Y-96724205D01*
X150759100Y-96606164D01*
X151089300Y-96800367D01*
X151206894Y-96869139D01*
X151310226Y-96928841D01*
X151390808Y-96974624D01*
X151440154Y-97001641D01*
X151450138Y-97006476D01*
X151482286Y-96998542D01*
X151548509Y-96968391D01*
X151639712Y-96920583D01*
X151746797Y-96859677D01*
X151767638Y-96847329D01*
X151883372Y-96778319D01*
X151990708Y-96714318D01*
X152078193Y-96662156D01*
X152134373Y-96628662D01*
X152137050Y-96627067D01*
X152219600Y-96577857D01*
X152219407Y-96725979D01*
X152219214Y-96874100D01*
X151978107Y-97013021D01*
X151880782Y-97070318D01*
X151802273Y-97118861D01*
X151751556Y-97152946D01*
X151737000Y-97166200D01*
X151757636Y-97183846D01*
X151813561Y-97220712D01*
X151895796Y-97271093D01*
X151978107Y-97319380D01*
X152219214Y-97458300D01*
X152219600Y-97754544D01*
X152137050Y-97705334D01*
X152083509Y-97673416D01*
X151997916Y-97622387D01*
X151891852Y-97559153D01*
X151776898Y-97490617D01*
X151771440Y-97487363D01*
X151664479Y-97424263D01*
X151573570Y-97371895D01*
X151507379Y-97335161D01*
X151474571Y-97318960D01*
X151472959Y-97318600D01*
X151446935Y-97330950D01*
X151385188Y-97365033D01*
X151295526Y-97416401D01*
X151185758Y-97480605D01*
X151116246Y-97521800D01*
X150998523Y-97591375D01*
X150896506Y-97650689D01*
X150817972Y-97695299D01*
X150770700Y-97720759D01*
X150760677Y-97725000D01*
X150752789Y-97702047D01*
X150747603Y-97642948D01*
X150746400Y-97588073D01*
X150746400Y-97451146D01*
X150975000Y-97315812D01*
G37*
X150975000Y-97315812D02*
X151069251Y-97258802D01*
X151144596Y-97210922D01*
X151191912Y-97178113D01*
X151203517Y-97166989D01*
X151182883Y-97149494D01*
X151127370Y-97113223D01*
X151046443Y-97064176D01*
X150985173Y-97028560D01*
X150891050Y-96972384D01*
X150814741Y-96922523D01*
X150766471Y-96885894D01*
X150755137Y-96872933D01*
X150749642Y-96830463D01*
X150749482Y-96759006D01*
X150751230Y-96724205D01*
X150759100Y-96606164D01*
X151089300Y-96800367D01*
X151206894Y-96869139D01*
X151310226Y-96928841D01*
X151390808Y-96974624D01*
X151440154Y-97001641D01*
X151450138Y-97006476D01*
X151482286Y-96998542D01*
X151548509Y-96968391D01*
X151639712Y-96920583D01*
X151746797Y-96859677D01*
X151767638Y-96847329D01*
X151883372Y-96778319D01*
X151990708Y-96714318D01*
X152078193Y-96662156D01*
X152134373Y-96628662D01*
X152137050Y-96627067D01*
X152219600Y-96577857D01*
X152219407Y-96725979D01*
X152219214Y-96874100D01*
X151978107Y-97013021D01*
X151880782Y-97070318D01*
X151802273Y-97118861D01*
X151751556Y-97152946D01*
X151737000Y-97166200D01*
X151757636Y-97183846D01*
X151813561Y-97220712D01*
X151895796Y-97271093D01*
X151978107Y-97319380D01*
X152219214Y-97458300D01*
X152219600Y-97754544D01*
X152137050Y-97705334D01*
X152083509Y-97673416D01*
X151997916Y-97622387D01*
X151891852Y-97559153D01*
X151776898Y-97490617D01*
X151771440Y-97487363D01*
X151664479Y-97424263D01*
X151573570Y-97371895D01*
X151507379Y-97335161D01*
X151474571Y-97318960D01*
X151472959Y-97318600D01*
X151446935Y-97330950D01*
X151385188Y-97365033D01*
X151295526Y-97416401D01*
X151185758Y-97480605D01*
X151116246Y-97521800D01*
X150998523Y-97591375D01*
X150896506Y-97650689D01*
X150817972Y-97695299D01*
X150770700Y-97720759D01*
X150760677Y-97725000D01*
X150752789Y-97702047D01*
X150747603Y-97642948D01*
X150746400Y-97588073D01*
X150746400Y-97451146D01*
X150975000Y-97315812D01*
D11*
X180608745Y-95786185D02*
X180608745Y-93246185D01*
X150128745Y-108486185D02*
X150128745Y-111026185D01*
X150128745Y-111026185D02*
X180608745Y-111026185D01*
X147588745Y-111026185D02*
X180608745Y-111026185D01*
X147588745Y-93246185D02*
X147588745Y-111026185D01*
X180608745Y-111026185D02*
X180608745Y-108486185D01*
X150128745Y-93246185D02*
X150128745Y-95786185D01*
X180608745Y-93246185D02*
X147588745Y-93246185D01*
X150128745Y-95786185D02*
X180608745Y-95786185D01*
X180608745Y-108486185D02*
X150128745Y-108486185D01*
X180608745Y-93246185D02*
X150128745Y-93246185D01*
D10*
G36*
X155052542Y-117371127D02*
G01*
X155057164Y-117438902D01*
X155065282Y-117476924D01*
X155080487Y-117494518D01*
X155102346Y-117500474D01*
X155129998Y-117509767D01*
X155142890Y-117534605D01*
X155146287Y-117586101D01*
X155146308Y-117593281D01*
X155144235Y-117646983D01*
X155133992Y-117672222D01*
X155109541Y-117679555D01*
X155096800Y-117679846D01*
X155047293Y-117679846D01*
X155052839Y-117889884D01*
X155055719Y-117982667D01*
X155059572Y-118043455D01*
X155066017Y-118079324D01*
X155076673Y-118097349D01*
X155093161Y-118104607D01*
X155102346Y-118106166D01*
X155128848Y-118114607D01*
X155141921Y-118137124D01*
X155146104Y-118184307D01*
X155146308Y-118208743D01*
X155146308Y-118305076D01*
X155042252Y-118305076D01*
X154974644Y-118301535D01*
X154930295Y-118287488D01*
X154893758Y-118257795D01*
X154890829Y-118254717D01*
X154871567Y-118231883D01*
X154858111Y-118206462D01*
X154849184Y-118171015D01*
X154843504Y-118118107D01*
X154839794Y-118040299D01*
X154837063Y-117942101D01*
X154834102Y-117836272D01*
X154830605Y-117763421D01*
X154825549Y-117717451D01*
X154817915Y-117692267D01*
X154806678Y-117681772D01*
X154793101Y-117679846D01*
X154769535Y-117673578D01*
X154758405Y-117648264D01*
X154755540Y-117594139D01*
X154755538Y-117591923D01*
X154758168Y-117536850D01*
X154768902Y-117510827D01*
X154792009Y-117504013D01*
X154793683Y-117503999D01*
X154814997Y-117499089D01*
X154827545Y-117478597D01*
X154834439Y-117433884D01*
X154837644Y-117381884D01*
X154843461Y-117259769D01*
X154945080Y-117253896D01*
X155046699Y-117248024D01*
X155052542Y-117371127D01*
G37*
X155052542Y-117371127D02*
X155057164Y-117438902D01*
X155065282Y-117476924D01*
X155080487Y-117494518D01*
X155102346Y-117500474D01*
X155129998Y-117509767D01*
X155142890Y-117534605D01*
X155146287Y-117586101D01*
X155146308Y-117593281D01*
X155144235Y-117646983D01*
X155133992Y-117672222D01*
X155109541Y-117679555D01*
X155096800Y-117679846D01*
X155047293Y-117679846D01*
X155052839Y-117889884D01*
X155055719Y-117982667D01*
X155059572Y-118043455D01*
X155066017Y-118079324D01*
X155076673Y-118097349D01*
X155093161Y-118104607D01*
X155102346Y-118106166D01*
X155128848Y-118114607D01*
X155141921Y-118137124D01*
X155146104Y-118184307D01*
X155146308Y-118208743D01*
X155146308Y-118305076D01*
X155042252Y-118305076D01*
X154974644Y-118301535D01*
X154930295Y-118287488D01*
X154893758Y-118257795D01*
X154890829Y-118254717D01*
X154871567Y-118231883D01*
X154858111Y-118206462D01*
X154849184Y-118171015D01*
X154843504Y-118118107D01*
X154839794Y-118040299D01*
X154837063Y-117942101D01*
X154834102Y-117836272D01*
X154830605Y-117763421D01*
X154825549Y-117717451D01*
X154817915Y-117692267D01*
X154806678Y-117681772D01*
X154793101Y-117679846D01*
X154769535Y-117673578D01*
X154758405Y-117648264D01*
X154755540Y-117594139D01*
X154755538Y-117591923D01*
X154758168Y-117536850D01*
X154768902Y-117510827D01*
X154792009Y-117504013D01*
X154793683Y-117503999D01*
X154814997Y-117499089D01*
X154827545Y-117478597D01*
X154834439Y-117433884D01*
X154837644Y-117381884D01*
X154843461Y-117259769D01*
X154945080Y-117253896D01*
X155046699Y-117248024D01*
X155052542Y-117371127D01*
G36*
X153530815Y-117498900D02*
G01*
X153600138Y-117509903D01*
X153658627Y-117530985D01*
X153676411Y-117539799D01*
X153724518Y-117568055D01*
X153744162Y-117593797D01*
X153735748Y-117626293D01*
X153699681Y-117674812D01*
X153683162Y-117694306D01*
X153657482Y-117720486D01*
X153632312Y-117728167D01*
X153592850Y-117719156D01*
X153563145Y-117708960D01*
X153473879Y-117685421D01*
X153395085Y-117679272D01*
X153333865Y-117689691D01*
X153297317Y-117715856D01*
X153290154Y-117740551D01*
X153292326Y-117771695D01*
X153295038Y-117778495D01*
X153315186Y-117781678D01*
X153364942Y-117789382D01*
X153435289Y-117800214D01*
X153471130Y-117805716D01*
X153554766Y-117821222D01*
X153628453Y-117839651D01*
X153679877Y-117857766D01*
X153690171Y-117863323D01*
X153735835Y-117914605D01*
X153761724Y-117987836D01*
X153767463Y-118071045D01*
X153752676Y-118152258D01*
X153716988Y-118219503D01*
X153701837Y-118235447D01*
X153623200Y-118283415D01*
X153520354Y-118312449D01*
X153403985Y-118321201D01*
X153284778Y-118308327D01*
X153231538Y-118294651D01*
X153153330Y-118267175D01*
X153093623Y-118240081D01*
X153060162Y-118217162D01*
X153055692Y-118208534D01*
X153067076Y-118187761D01*
X153095943Y-118148509D01*
X153114213Y-118125754D01*
X153172733Y-118054758D01*
X153275405Y-118093884D01*
X153356212Y-118116735D01*
X153433710Y-118125076D01*
X153501042Y-118120254D01*
X153551350Y-118103612D01*
X153577775Y-118076494D01*
X153573459Y-118040246D01*
X153570932Y-118035947D01*
X153541290Y-118013919D01*
X153480167Y-117995275D01*
X153393655Y-117980170D01*
X153291987Y-117963180D01*
X153220790Y-117943921D01*
X153171476Y-117918895D01*
X153135458Y-117884603D01*
X153125079Y-117870732D01*
X153101046Y-117808326D01*
X153096681Y-117729055D01*
X153112030Y-117649847D01*
X153124408Y-117620591D01*
X153168985Y-117561196D01*
X153233778Y-117522041D01*
X153324383Y-117500883D01*
X153436692Y-117495391D01*
X153530815Y-117498900D01*
G37*
X153530815Y-117498900D02*
X153600138Y-117509903D01*
X153658627Y-117530985D01*
X153676411Y-117539799D01*
X153724518Y-117568055D01*
X153744162Y-117593797D01*
X153735748Y-117626293D01*
X153699681Y-117674812D01*
X153683162Y-117694306D01*
X153657482Y-117720486D01*
X153632312Y-117728167D01*
X153592850Y-117719156D01*
X153563145Y-117708960D01*
X153473879Y-117685421D01*
X153395085Y-117679272D01*
X153333865Y-117689691D01*
X153297317Y-117715856D01*
X153290154Y-117740551D01*
X153292326Y-117771695D01*
X153295038Y-117778495D01*
X153315186Y-117781678D01*
X153364942Y-117789382D01*
X153435289Y-117800214D01*
X153471130Y-117805716D01*
X153554766Y-117821222D01*
X153628453Y-117839651D01*
X153679877Y-117857766D01*
X153690171Y-117863323D01*
X153735835Y-117914605D01*
X153761724Y-117987836D01*
X153767463Y-118071045D01*
X153752676Y-118152258D01*
X153716988Y-118219503D01*
X153701837Y-118235447D01*
X153623200Y-118283415D01*
X153520354Y-118312449D01*
X153403985Y-118321201D01*
X153284778Y-118308327D01*
X153231538Y-118294651D01*
X153153330Y-118267175D01*
X153093623Y-118240081D01*
X153060162Y-118217162D01*
X153055692Y-118208534D01*
X153067076Y-118187761D01*
X153095943Y-118148509D01*
X153114213Y-118125754D01*
X153172733Y-118054758D01*
X153275405Y-118093884D01*
X153356212Y-118116735D01*
X153433710Y-118125076D01*
X153501042Y-118120254D01*
X153551350Y-118103612D01*
X153577775Y-118076494D01*
X153573459Y-118040246D01*
X153570932Y-118035947D01*
X153541290Y-118013919D01*
X153480167Y-117995275D01*
X153393655Y-117980170D01*
X153291987Y-117963180D01*
X153220790Y-117943921D01*
X153171476Y-117918895D01*
X153135458Y-117884603D01*
X153125079Y-117870732D01*
X153101046Y-117808326D01*
X153096681Y-117729055D01*
X153112030Y-117649847D01*
X153124408Y-117620591D01*
X153168985Y-117561196D01*
X153233778Y-117522041D01*
X153324383Y-117500883D01*
X153436692Y-117495391D01*
X153530815Y-117498900D01*
G36*
X151677350Y-117173420D02*
G01*
X151780021Y-117179255D01*
X151856504Y-117191016D01*
X151913199Y-117210371D01*
X151956507Y-117238986D01*
X151992830Y-117278528D01*
X152002595Y-117291750D01*
X152027615Y-117333067D01*
X152041916Y-117377720D01*
X152048260Y-117438415D01*
X152049461Y-117507451D01*
X152043834Y-117610487D01*
X152023538Y-117686527D01*
X151983451Y-117746468D01*
X151918448Y-117801207D01*
X151907954Y-117808474D01*
X151848192Y-117849179D01*
X151965647Y-118052705D01*
X152012240Y-118134050D01*
X152051800Y-118204254D01*
X152080090Y-118255720D01*
X152092794Y-118280653D01*
X152087125Y-118294699D01*
X152052897Y-118302484D01*
X151985157Y-118305063D01*
X151978143Y-118305076D01*
X151853797Y-118305076D01*
X151727924Y-118080384D01*
X151676282Y-117989044D01*
X151638797Y-117926527D01*
X151610852Y-117887382D01*
X151587832Y-117866161D01*
X151565118Y-117857414D01*
X151538095Y-117855692D01*
X151473077Y-117855692D01*
X151473077Y-118305076D01*
X151258154Y-118305076D01*
X151258154Y-117367230D01*
X151473077Y-117367230D01*
X151473077Y-117640769D01*
X151622961Y-117640769D01*
X151710812Y-117638097D01*
X151768325Y-117629101D01*
X151803936Y-117612311D01*
X151808577Y-117608433D01*
X151837560Y-117558737D01*
X151842891Y-117494745D01*
X151824842Y-117433059D01*
X151805231Y-117406307D01*
X151777029Y-117385287D01*
X151737934Y-117373268D01*
X151677439Y-117368038D01*
X151619615Y-117367230D01*
X151473077Y-117367230D01*
X151258154Y-117367230D01*
X151258154Y-117171846D01*
X151542089Y-117171846D01*
X151677350Y-117173420D01*
G37*
X151677350Y-117173420D02*
X151780021Y-117179255D01*
X151856504Y-117191016D01*
X151913199Y-117210371D01*
X151956507Y-117238986D01*
X151992830Y-117278528D01*
X152002595Y-117291750D01*
X152027615Y-117333067D01*
X152041916Y-117377720D01*
X152048260Y-117438415D01*
X152049461Y-117507451D01*
X152043834Y-117610487D01*
X152023538Y-117686527D01*
X151983451Y-117746468D01*
X151918448Y-117801207D01*
X151907954Y-117808474D01*
X151848192Y-117849179D01*
X151965647Y-118052705D01*
X152012240Y-118134050D01*
X152051800Y-118204254D01*
X152080090Y-118255720D01*
X152092794Y-118280653D01*
X152087125Y-118294699D01*
X152052897Y-118302484D01*
X151985157Y-118305063D01*
X151978143Y-118305076D01*
X151853797Y-118305076D01*
X151727924Y-118080384D01*
X151676282Y-117989044D01*
X151638797Y-117926527D01*
X151610852Y-117887382D01*
X151587832Y-117866161D01*
X151565118Y-117857414D01*
X151538095Y-117855692D01*
X151473077Y-117855692D01*
X151473077Y-118305076D01*
X151258154Y-118305076D01*
X151258154Y-117367230D01*
X151473077Y-117367230D01*
X151473077Y-117640769D01*
X151622961Y-117640769D01*
X151710812Y-117638097D01*
X151768325Y-117629101D01*
X151803936Y-117612311D01*
X151808577Y-117608433D01*
X151837560Y-117558737D01*
X151842891Y-117494745D01*
X151824842Y-117433059D01*
X151805231Y-117406307D01*
X151777029Y-117385287D01*
X151737934Y-117373268D01*
X151677439Y-117368038D01*
X151619615Y-117367230D01*
X151473077Y-117367230D01*
X151258154Y-117367230D01*
X151258154Y-117171846D01*
X151542089Y-117171846D01*
X151677350Y-117173420D01*
G36*
X154319631Y-117493802D02*
G01*
X154402993Y-117509745D01*
X154456075Y-117535038D01*
X154528692Y-117611869D01*
X154581159Y-117717361D01*
X154610389Y-117845023D01*
X154612412Y-117863871D01*
X154624420Y-117992461D01*
X154369424Y-117992461D01*
X154265729Y-117992729D01*
X154195142Y-117994176D01*
X154151698Y-117997772D01*
X154129428Y-118004484D01*
X154122365Y-118015280D01*
X154124541Y-118031127D01*
X154124803Y-118032136D01*
X154156370Y-118082156D01*
X154214223Y-118115555D01*
X154288160Y-118129705D01*
X154367983Y-118121978D01*
X154413063Y-118106388D01*
X154448969Y-118094953D01*
X154479234Y-118103644D01*
X154519076Y-118137088D01*
X154521444Y-118139351D01*
X154557910Y-118177720D01*
X154578201Y-118205736D01*
X154579692Y-118210642D01*
X154562131Y-118233608D01*
X154516145Y-118259603D01*
X154451779Y-118284798D01*
X154379077Y-118305364D01*
X154308086Y-118317473D01*
X154296959Y-118318412D01*
X154220381Y-118320253D01*
X154164132Y-118310689D01*
X154110296Y-118286319D01*
X154101578Y-118281326D01*
X154012092Y-118208735D01*
X153952498Y-118112349D01*
X153922521Y-117991427D01*
X153921886Y-117845228D01*
X153922971Y-117835048D01*
X154120063Y-117835048D01*
X154120893Y-117836727D01*
X154144940Y-117846171D01*
X154196979Y-117852963D01*
X154265941Y-117855688D01*
X154268843Y-117855692D01*
X154345353Y-117853607D01*
X154390805Y-117846262D01*
X154413051Y-117832022D01*
X154416904Y-117824858D01*
X154414277Y-117789069D01*
X154391764Y-117744370D01*
X154389908Y-117741820D01*
X154334523Y-117695001D01*
X154269004Y-117679444D01*
X154204403Y-117694397D01*
X154151772Y-117739107D01*
X154139634Y-117758856D01*
X154122075Y-117803968D01*
X154120063Y-117835048D01*
X153922971Y-117835048D01*
X153925865Y-117807921D01*
X153957937Y-117685556D01*
X154020975Y-117586688D01*
X154077903Y-117535183D01*
X154142193Y-117506527D01*
X154227734Y-117492732D01*
X154319631Y-117493802D01*
G37*
X154319631Y-117493802D02*
X154402993Y-117509745D01*
X154456075Y-117535038D01*
X154528692Y-117611869D01*
X154581159Y-117717361D01*
X154610389Y-117845023D01*
X154612412Y-117863871D01*
X154624420Y-117992461D01*
X154369424Y-117992461D01*
X154265729Y-117992729D01*
X154195142Y-117994176D01*
X154151698Y-117997772D01*
X154129428Y-118004484D01*
X154122365Y-118015280D01*
X154124541Y-118031127D01*
X154124803Y-118032136D01*
X154156370Y-118082156D01*
X154214223Y-118115555D01*
X154288160Y-118129705D01*
X154367983Y-118121978D01*
X154413063Y-118106388D01*
X154448969Y-118094953D01*
X154479234Y-118103644D01*
X154519076Y-118137088D01*
X154521444Y-118139351D01*
X154557910Y-118177720D01*
X154578201Y-118205736D01*
X154579692Y-118210642D01*
X154562131Y-118233608D01*
X154516145Y-118259603D01*
X154451779Y-118284798D01*
X154379077Y-118305364D01*
X154308086Y-118317473D01*
X154296959Y-118318412D01*
X154220381Y-118320253D01*
X154164132Y-118310689D01*
X154110296Y-118286319D01*
X154101578Y-118281326D01*
X154012092Y-118208735D01*
X153952498Y-118112349D01*
X153922521Y-117991427D01*
X153921886Y-117845228D01*
X153922971Y-117835048D01*
X154120063Y-117835048D01*
X154120893Y-117836727D01*
X154144940Y-117846171D01*
X154196979Y-117852963D01*
X154265941Y-117855688D01*
X154268843Y-117855692D01*
X154345353Y-117853607D01*
X154390805Y-117846262D01*
X154413051Y-117832022D01*
X154416904Y-117824858D01*
X154414277Y-117789069D01*
X154391764Y-117744370D01*
X154389908Y-117741820D01*
X154334523Y-117695001D01*
X154269004Y-117679444D01*
X154204403Y-117694397D01*
X154151772Y-117739107D01*
X154139634Y-117758856D01*
X154122075Y-117803968D01*
X154120063Y-117835048D01*
X153922971Y-117835048D01*
X153925865Y-117807921D01*
X153957937Y-117685556D01*
X154020975Y-117586688D01*
X154077903Y-117535183D01*
X154142193Y-117506527D01*
X154227734Y-117492732D01*
X154319631Y-117493802D01*
G36*
X152737758Y-117525803D02*
G01*
X152817989Y-117590392D01*
X152876707Y-117682794D01*
X152910958Y-117799958D01*
X152918814Y-117899653D01*
X152918923Y-117992461D01*
X152674692Y-117992461D01*
X152563365Y-117993632D01*
X152487642Y-117998230D01*
X152444090Y-118007879D01*
X152429277Y-118024207D01*
X152439772Y-118048840D01*
X152472142Y-118083402D01*
X152475682Y-118086748D01*
X152537168Y-118119964D01*
X152617700Y-118129091D01*
X152704664Y-118112942D01*
X152714949Y-118109243D01*
X152753924Y-118100234D01*
X152790345Y-118110558D01*
X152836498Y-118141869D01*
X152905477Y-118194481D01*
X152851459Y-118237554D01*
X152751299Y-118294615D01*
X152638014Y-118321771D01*
X152522353Y-118318304D01*
X152415063Y-118283501D01*
X152388514Y-118268379D01*
X152319474Y-118212427D01*
X152272995Y-118142920D01*
X152246103Y-118052688D01*
X152235826Y-117934558D01*
X152235506Y-117899258D01*
X152242720Y-117810251D01*
X152430461Y-117810251D01*
X152432731Y-117833383D01*
X152445013Y-117846945D01*
X152475519Y-117853483D01*
X152532460Y-117855544D01*
X152577000Y-117855692D01*
X152651535Y-117855083D01*
X152695227Y-117851428D01*
X152716304Y-117841982D01*
X152723000Y-117824002D01*
X152723538Y-117806846D01*
X152705902Y-117746941D01*
X152659883Y-117701678D01*
X152595815Y-117680406D01*
X152583144Y-117679846D01*
X152519226Y-117694864D01*
X152465712Y-117733265D01*
X152434285Y-117785070D01*
X152430461Y-117810251D01*
X152242720Y-117810251D01*
X152246773Y-117760253D01*
X152280678Y-117652017D01*
X152338704Y-117572465D01*
X152422330Y-117519512D01*
X152524577Y-117492280D01*
X152638969Y-117492082D01*
X152737758Y-117525803D01*
G37*
X152737758Y-117525803D02*
X152817989Y-117590392D01*
X152876707Y-117682794D01*
X152910958Y-117799958D01*
X152918814Y-117899653D01*
X152918923Y-117992461D01*
X152674692Y-117992461D01*
X152563365Y-117993632D01*
X152487642Y-117998230D01*
X152444090Y-118007879D01*
X152429277Y-118024207D01*
X152439772Y-118048840D01*
X152472142Y-118083402D01*
X152475682Y-118086748D01*
X152537168Y-118119964D01*
X152617700Y-118129091D01*
X152704664Y-118112942D01*
X152714949Y-118109243D01*
X152753924Y-118100234D01*
X152790345Y-118110558D01*
X152836498Y-118141869D01*
X152905477Y-118194481D01*
X152851459Y-118237554D01*
X152751299Y-118294615D01*
X152638014Y-118321771D01*
X152522353Y-118318304D01*
X152415063Y-118283501D01*
X152388514Y-118268379D01*
X152319474Y-118212427D01*
X152272995Y-118142920D01*
X152246103Y-118052688D01*
X152235826Y-117934558D01*
X152235506Y-117899258D01*
X152242720Y-117810251D01*
X152430461Y-117810251D01*
X152432731Y-117833383D01*
X152445013Y-117846945D01*
X152475519Y-117853483D01*
X152532460Y-117855544D01*
X152577000Y-117855692D01*
X152651535Y-117855083D01*
X152695227Y-117851428D01*
X152716304Y-117841982D01*
X152723000Y-117824002D01*
X152723538Y-117806846D01*
X152705902Y-117746941D01*
X152659883Y-117701678D01*
X152595815Y-117680406D01*
X152583144Y-117679846D01*
X152519226Y-117694864D01*
X152465712Y-117733265D01*
X152434285Y-117785070D01*
X152430461Y-117810251D01*
X152242720Y-117810251D01*
X152246773Y-117760253D01*
X152280678Y-117652017D01*
X152338704Y-117572465D01*
X152422330Y-117519512D01*
X152524577Y-117492280D01*
X152638969Y-117492082D01*
X152737758Y-117525803D01*
D11*
X163957000Y-63500000D02*
X163957000Y-68580000D01*
X163957000Y-68580000D02*
X165481000Y-68580000D01*
X165481000Y-68580000D02*
X165481000Y-63500000D01*
X165481000Y-63500000D02*
X163957000Y-63500000D01*
X163957000Y-63500000D02*
X163957000Y-64008000D01*
X163957000Y-68199000D02*
X165481000Y-68199000D01*
X165481000Y-68326000D02*
X163957000Y-68326000D01*
X163957000Y-68453000D02*
X165481000Y-68453000D01*
X165481000Y-68072000D02*
X163957000Y-68072000D01*
X163957000Y-67945000D02*
X165481000Y-67945000D01*
X163957000Y-67818000D02*
X165481000Y-67818000D01*
X183007000Y-63500000D02*
X183007000Y-68580000D01*
X183007000Y-68580000D02*
X184531000Y-68580000D01*
X184531000Y-68580000D02*
X184531000Y-63500000D01*
X184531000Y-63500000D02*
X183007000Y-63500000D01*
X183007000Y-63500000D02*
X183007000Y-64008000D01*
X183007000Y-68199000D02*
X184531000Y-68199000D01*
X184531000Y-68326000D02*
X183007000Y-68326000D01*
X183007000Y-68453000D02*
X184531000Y-68453000D01*
X184531000Y-68072000D02*
X183007000Y-68072000D01*
X183007000Y-67945000D02*
X184531000Y-67945000D01*
X183007000Y-67818000D02*
X184531000Y-67818000D01*
X202057000Y-63500000D02*
X202057000Y-68580000D01*
X202057000Y-68580000D02*
X203581000Y-68580000D01*
X203581000Y-68580000D02*
X203581000Y-63500000D01*
X203581000Y-63500000D02*
X202057000Y-63500000D01*
X202057000Y-63500000D02*
X202057000Y-64008000D01*
X202057000Y-68199000D02*
X203581000Y-68199000D01*
X203581000Y-68326000D02*
X202057000Y-68326000D01*
X202057000Y-68453000D02*
X203581000Y-68453000D01*
X203581000Y-68072000D02*
X202057000Y-68072000D01*
X202057000Y-67945000D02*
X203581000Y-67945000D01*
X202057000Y-67818000D02*
X203581000Y-67818000D01*
X221107000Y-63500000D02*
X221107000Y-68580000D01*
X221107000Y-68580000D02*
X222631000Y-68580000D01*
X222631000Y-68580000D02*
X222631000Y-63500000D01*
X222631000Y-63500000D02*
X221107000Y-63500000D01*
X221107000Y-63500000D02*
X221107000Y-64008000D01*
X221107000Y-68199000D02*
X222631000Y-68199000D01*
X222631000Y-68326000D02*
X221107000Y-68326000D01*
X221107000Y-68453000D02*
X222631000Y-68453000D01*
X222631000Y-68072000D02*
X221107000Y-68072000D01*
X221107000Y-67945000D02*
X222631000Y-67945000D01*
X221107000Y-67818000D02*
X222631000Y-67818000D01*
X240157000Y-63500000D02*
X240157000Y-68580000D01*
X240157000Y-68580000D02*
X241681000Y-68580000D01*
X241681000Y-68580000D02*
X241681000Y-63500000D01*
X241681000Y-63500000D02*
X240157000Y-63500000D01*
X240157000Y-63500000D02*
X240157000Y-64008000D01*
X240157000Y-68199000D02*
X241681000Y-68199000D01*
X241681000Y-68326000D02*
X240157000Y-68326000D01*
X240157000Y-68453000D02*
X241681000Y-68453000D01*
X241681000Y-68072000D02*
X240157000Y-68072000D01*
X240157000Y-67945000D02*
X241681000Y-67945000D01*
X240157000Y-67818000D02*
X241681000Y-67818000D01*
X163957000Y-82513000D02*
X163957000Y-87593000D01*
X163957000Y-87593000D02*
X165481000Y-87593000D01*
X165481000Y-87593000D02*
X165481000Y-82513000D01*
X165481000Y-82513000D02*
X163957000Y-82513000D01*
X163957000Y-82513000D02*
X163957000Y-83021000D01*
X163957000Y-87212000D02*
X165481000Y-87212000D01*
X165481000Y-87339000D02*
X163957000Y-87339000D01*
X163957000Y-87466000D02*
X165481000Y-87466000D01*
X165481000Y-87085000D02*
X163957000Y-87085000D01*
X163957000Y-86958000D02*
X165481000Y-86958000D01*
X163957000Y-86831000D02*
X165481000Y-86831000D01*
X183007000Y-82510000D02*
X183007000Y-87590000D01*
X183007000Y-87590000D02*
X184531000Y-87590000D01*
X184531000Y-87590000D02*
X184531000Y-82510000D01*
X184531000Y-82510000D02*
X183007000Y-82510000D01*
X183007000Y-82510000D02*
X183007000Y-83018000D01*
X183007000Y-87209000D02*
X184531000Y-87209000D01*
X184531000Y-87336000D02*
X183007000Y-87336000D01*
X183007000Y-87463000D02*
X184531000Y-87463000D01*
X184531000Y-87082000D02*
X183007000Y-87082000D01*
X183007000Y-86955000D02*
X184531000Y-86955000D01*
X183007000Y-86828000D02*
X184531000Y-86828000D01*
X202057000Y-82513000D02*
X202057000Y-87593000D01*
X202057000Y-87593000D02*
X203581000Y-87593000D01*
X203581000Y-87593000D02*
X203581000Y-82513000D01*
X203581000Y-82513000D02*
X202057000Y-82513000D01*
X202057000Y-82513000D02*
X202057000Y-83021000D01*
X202057000Y-87212000D02*
X203581000Y-87212000D01*
X203581000Y-87339000D02*
X202057000Y-87339000D01*
X202057000Y-87466000D02*
X203581000Y-87466000D01*
X203581000Y-87085000D02*
X202057000Y-87085000D01*
X202057000Y-86958000D02*
X203581000Y-86958000D01*
X202057000Y-86831000D02*
X203581000Y-86831000D01*
X221107000Y-82510000D02*
X221107000Y-87590000D01*
X221107000Y-87590000D02*
X222631000Y-87590000D01*
X222631000Y-87590000D02*
X222631000Y-82510000D01*
X222631000Y-82510000D02*
X221107000Y-82510000D01*
X221107000Y-82510000D02*
X221107000Y-83018000D01*
X221107000Y-87209000D02*
X222631000Y-87209000D01*
X222631000Y-87336000D02*
X221107000Y-87336000D01*
X221107000Y-87463000D02*
X222631000Y-87463000D01*
X222631000Y-87082000D02*
X221107000Y-87082000D01*
X221107000Y-86955000D02*
X222631000Y-86955000D01*
X221107000Y-86828000D02*
X222631000Y-86828000D01*
X240157000Y-82510000D02*
X240157000Y-87590000D01*
X240157000Y-87590000D02*
X241681000Y-87590000D01*
X241681000Y-87590000D02*
X241681000Y-82510000D01*
X241681000Y-82510000D02*
X240157000Y-82510000D01*
X240157000Y-82510000D02*
X240157000Y-83018000D01*
X240157000Y-87209000D02*
X241681000Y-87209000D01*
X241681000Y-87336000D02*
X240157000Y-87336000D01*
X240157000Y-87463000D02*
X241681000Y-87463000D01*
X241681000Y-87082000D02*
X240157000Y-87082000D01*
X240157000Y-86955000D02*
X241681000Y-86955000D01*
X240157000Y-86828000D02*
X241681000Y-86828000D01*
X163830000Y-101309000D02*
X163830000Y-106389000D01*
X163830000Y-106389000D02*
X165354000Y-106389000D01*
X165354000Y-106389000D02*
X165354000Y-101309000D01*
X165354000Y-101309000D02*
X163830000Y-101309000D01*
X163830000Y-101309000D02*
X163830000Y-101817000D01*
X163830000Y-106008000D02*
X165354000Y-106008000D01*
X165354000Y-106135000D02*
X163830000Y-106135000D01*
X163830000Y-106262000D02*
X165354000Y-106262000D01*
X165354000Y-105881000D02*
X163830000Y-105881000D01*
X163830000Y-105754000D02*
X165354000Y-105754000D01*
X163830000Y-105627000D02*
X165354000Y-105627000D01*
X183007000Y-101687000D02*
X183007000Y-106767000D01*
X183007000Y-106767000D02*
X184531000Y-106767000D01*
X184531000Y-106767000D02*
X184531000Y-101687000D01*
X184531000Y-101687000D02*
X183007000Y-101687000D01*
X183007000Y-101687000D02*
X183007000Y-102195000D01*
X183007000Y-106386000D02*
X184531000Y-106386000D01*
X184531000Y-106513000D02*
X183007000Y-106513000D01*
X183007000Y-106640000D02*
X184531000Y-106640000D01*
X184531000Y-106259000D02*
X183007000Y-106259000D01*
X183007000Y-106132000D02*
X184531000Y-106132000D01*
X183007000Y-106005000D02*
X184531000Y-106005000D01*
X202057000Y-101563000D02*
X202057000Y-106643000D01*
X202057000Y-106643000D02*
X203581000Y-106643000D01*
X203581000Y-106643000D02*
X203581000Y-101563000D01*
X203581000Y-101563000D02*
X202057000Y-101563000D01*
X202057000Y-101563000D02*
X202057000Y-102071000D01*
X202057000Y-106262000D02*
X203581000Y-106262000D01*
X203581000Y-106389000D02*
X202057000Y-106389000D01*
X202057000Y-106516000D02*
X203581000Y-106516000D01*
X203581000Y-106135000D02*
X202057000Y-106135000D01*
X202057000Y-106008000D02*
X203581000Y-106008000D01*
X202057000Y-105881000D02*
X203581000Y-105881000D01*
X221107000Y-101560000D02*
X221107000Y-106640000D01*
X221107000Y-106640000D02*
X222631000Y-106640000D01*
X222631000Y-106640000D02*
X222631000Y-101560000D01*
X222631000Y-101560000D02*
X221107000Y-101560000D01*
X221107000Y-101560000D02*
X221107000Y-102068000D01*
X221107000Y-106259000D02*
X222631000Y-106259000D01*
X222631000Y-106386000D02*
X221107000Y-106386000D01*
X221107000Y-106513000D02*
X222631000Y-106513000D01*
X222631000Y-106132000D02*
X221107000Y-106132000D01*
X221107000Y-106005000D02*
X222631000Y-106005000D01*
X221107000Y-105878000D02*
X222631000Y-105878000D01*
X240157000Y-101563000D02*
X240157000Y-106643000D01*
X240157000Y-106643000D02*
X241681000Y-106643000D01*
X241681000Y-106643000D02*
X241681000Y-101563000D01*
X241681000Y-101563000D02*
X240157000Y-101563000D01*
X240157000Y-101563000D02*
X240157000Y-102071000D01*
X240157000Y-106262000D02*
X241681000Y-106262000D01*
X241681000Y-106389000D02*
X240157000Y-106389000D01*
X240157000Y-106516000D02*
X241681000Y-106516000D01*
X241681000Y-106135000D02*
X240157000Y-106135000D01*
X240157000Y-106008000D02*
X241681000Y-106008000D01*
X240157000Y-105881000D02*
X241681000Y-105881000D01*
X244983000Y-120650000D02*
X244983000Y-125730000D01*
X244983000Y-125730000D02*
X246507000Y-125730000D01*
X246507000Y-125730000D02*
X246507000Y-120650000D01*
X246507000Y-120650000D02*
X244983000Y-120650000D01*
X244983000Y-120650000D02*
X244983000Y-121158000D01*
X244983000Y-125349000D02*
X246507000Y-125349000D01*
X246507000Y-125476000D02*
X244983000Y-125476000D01*
X244983000Y-125603000D02*
X246507000Y-125603000D01*
X246507000Y-125222000D02*
X244983000Y-125222000D01*
X244983000Y-125095000D02*
X246507000Y-125095000D01*
X244983000Y-124968000D02*
X246507000Y-124968000D01*
X232348000Y-110411000D02*
X244348000Y-110411000D01*
X232348000Y-116411000D02*
X232348000Y-110411000D01*
X244348000Y-116411000D02*
X232348000Y-116411000D01*
X244348000Y-110411000D02*
X244348000Y-110911000D01*
X244348000Y-115911000D02*
X246248000Y-115911000D01*
X244348000Y-110911000D02*
X246248000Y-110911000D01*
X244348000Y-116411000D02*
X244348000Y-115911000D01*
X246248000Y-110911000D02*
X246248000Y-115911000D01*
D10*
G36*
X189894374Y-112318109D02*
G01*
X188944034Y-112318109D01*
X188944034Y-111454164D01*
X189894374Y-111454164D01*
X189894374Y-112318109D01*
G37*
X189894374Y-112318109D02*
X188944034Y-112318109D01*
X188944034Y-111454164D01*
X189894374Y-111454164D01*
X189894374Y-112318109D01*
G36*
X225920905Y-116465048D02*
G01*
X224970565Y-116465048D01*
X224970565Y-115514708D01*
X225920905Y-115514708D01*
X225920905Y-116465048D01*
G37*
X225920905Y-116465048D02*
X224970565Y-116465048D01*
X224970565Y-115514708D01*
X225920905Y-115514708D01*
X225920905Y-116465048D01*
G36*
X223313500Y-112885756D02*
G01*
X223650028Y-112974080D01*
X223982078Y-113097160D01*
X224160593Y-113208797D01*
X224200541Y-113335809D01*
X224116888Y-113505014D01*
X224017720Y-113632948D01*
X223854341Y-113821238D01*
X223737454Y-113897014D01*
X223604483Y-113881781D01*
X223459459Y-113824780D01*
X223174480Y-113743703D01*
X222848916Y-113706024D01*
X222539578Y-113712027D01*
X222303275Y-113761997D01*
X222215452Y-113818551D01*
X222172604Y-113949660D01*
X222284514Y-114060028D01*
X222557052Y-114152743D01*
X222996087Y-114230895D01*
X223000028Y-114231434D01*
X223490484Y-114321361D01*
X223838771Y-114446793D01*
X224074593Y-114625467D01*
X224227654Y-114875119D01*
X224269360Y-114989347D01*
X224335757Y-115239794D01*
X224334602Y-115435859D01*
X224260743Y-115668675D01*
X224226163Y-115753265D01*
X224051964Y-116065920D01*
X223816714Y-116277423D01*
X223490630Y-116402183D01*
X223043926Y-116454609D01*
X222768851Y-116458227D01*
X222425821Y-116449946D01*
X222140806Y-116434147D01*
X221965496Y-116413916D01*
X221946755Y-116409167D01*
X221670812Y-116307011D01*
X221417427Y-116193072D01*
X221234396Y-116090869D01*
X221169204Y-116026583D01*
X221219222Y-115923831D01*
X221344674Y-115745804D01*
X221402452Y-115672527D01*
X221551411Y-115488071D01*
X221646981Y-115368036D01*
X221660755Y-115349999D01*
X221747561Y-115358115D01*
X221934436Y-115420869D01*
X222010670Y-115451727D01*
X222427571Y-115600938D01*
X222768207Y-115653307D01*
X223093732Y-115616740D01*
X223159516Y-115600231D01*
X223410195Y-115494686D01*
X223497241Y-115361433D01*
X223416619Y-115208029D01*
X223384294Y-115179112D01*
X223245578Y-115121766D01*
X222986777Y-115059660D01*
X222659775Y-115004873D01*
X222604493Y-114997580D01*
X222262662Y-114945688D01*
X221972129Y-114886281D01*
X221789398Y-114831149D01*
X221776146Y-114824718D01*
X221525415Y-114600492D01*
X221375479Y-114280549D01*
X221333108Y-113914141D01*
X221405069Y-113550515D01*
X221563533Y-113277605D01*
X221872009Y-113036438D01*
X222291993Y-112887032D01*
X222785239Y-112834950D01*
X223313500Y-112885756D01*
G37*
X223313500Y-112885756D02*
X223650028Y-112974080D01*
X223982078Y-113097160D01*
X224160593Y-113208797D01*
X224200541Y-113335809D01*
X224116888Y-113505014D01*
X224017720Y-113632948D01*
X223854341Y-113821238D01*
X223737454Y-113897014D01*
X223604483Y-113881781D01*
X223459459Y-113824780D01*
X223174480Y-113743703D01*
X222848916Y-113706024D01*
X222539578Y-113712027D01*
X222303275Y-113761997D01*
X222215452Y-113818551D01*
X222172604Y-113949660D01*
X222284514Y-114060028D01*
X222557052Y-114152743D01*
X222996087Y-114230895D01*
X223000028Y-114231434D01*
X223490484Y-114321361D01*
X223838771Y-114446793D01*
X224074593Y-114625467D01*
X224227654Y-114875119D01*
X224269360Y-114989347D01*
X224335757Y-115239794D01*
X224334602Y-115435859D01*
X224260743Y-115668675D01*
X224226163Y-115753265D01*
X224051964Y-116065920D01*
X223816714Y-116277423D01*
X223490630Y-116402183D01*
X223043926Y-116454609D01*
X222768851Y-116458227D01*
X222425821Y-116449946D01*
X222140806Y-116434147D01*
X221965496Y-116413916D01*
X221946755Y-116409167D01*
X221670812Y-116307011D01*
X221417427Y-116193072D01*
X221234396Y-116090869D01*
X221169204Y-116026583D01*
X221219222Y-115923831D01*
X221344674Y-115745804D01*
X221402452Y-115672527D01*
X221551411Y-115488071D01*
X221646981Y-115368036D01*
X221660755Y-115349999D01*
X221747561Y-115358115D01*
X221934436Y-115420869D01*
X222010670Y-115451727D01*
X222427571Y-115600938D01*
X222768207Y-115653307D01*
X223093732Y-115616740D01*
X223159516Y-115600231D01*
X223410195Y-115494686D01*
X223497241Y-115361433D01*
X223416619Y-115208029D01*
X223384294Y-115179112D01*
X223245578Y-115121766D01*
X222986777Y-115059660D01*
X222659775Y-115004873D01*
X222604493Y-114997580D01*
X222262662Y-114945688D01*
X221972129Y-114886281D01*
X221789398Y-114831149D01*
X221776146Y-114824718D01*
X221525415Y-114600492D01*
X221375479Y-114280549D01*
X221333108Y-113914141D01*
X221405069Y-113550515D01*
X221563533Y-113277605D01*
X221872009Y-113036438D01*
X222291993Y-112887032D01*
X222785239Y-112834950D01*
X223313500Y-112885756D01*
G36*
X220416175Y-112863366D02*
G01*
X220714592Y-112924830D01*
X220852880Y-113023621D01*
X220843297Y-113185283D01*
X220698101Y-113435356D01*
X220693721Y-113441690D01*
X220532395Y-113653258D01*
X220404422Y-113745833D01*
X220258385Y-113750990D01*
X220206479Y-113740899D01*
X219920829Y-113713179D01*
X219702417Y-113780939D01*
X219543959Y-113958593D01*
X219438168Y-114260551D01*
X219377761Y-114701227D01*
X219355451Y-115295032D01*
X219354918Y-115425538D01*
X219354918Y-116465048D01*
X218404578Y-116465048D01*
X218404578Y-112922871D01*
X218879748Y-112922871D01*
X219154348Y-112930371D01*
X219297399Y-112962797D01*
X219349851Y-113035041D01*
X219354918Y-113095660D01*
X219391098Y-113236048D01*
X219441313Y-113268449D01*
X219525214Y-113204328D01*
X219527708Y-113184273D01*
X219605031Y-113064379D01*
X219801016Y-112956831D01*
X220061682Y-112881126D01*
X220333049Y-112856760D01*
X220416175Y-112863366D01*
G37*
X220416175Y-112863366D02*
X220714592Y-112924830D01*
X220852880Y-113023621D01*
X220843297Y-113185283D01*
X220698101Y-113435356D01*
X220693721Y-113441690D01*
X220532395Y-113653258D01*
X220404422Y-113745833D01*
X220258385Y-113750990D01*
X220206479Y-113740899D01*
X219920829Y-113713179D01*
X219702417Y-113780939D01*
X219543959Y-113958593D01*
X219438168Y-114260551D01*
X219377761Y-114701227D01*
X219355451Y-115295032D01*
X219354918Y-115425538D01*
X219354918Y-116465048D01*
X218404578Y-116465048D01*
X218404578Y-112922871D01*
X218879748Y-112922871D01*
X219154348Y-112930371D01*
X219297399Y-112962797D01*
X219349851Y-113035041D01*
X219354918Y-113095660D01*
X219391098Y-113236048D01*
X219441313Y-113268449D01*
X219525214Y-113204328D01*
X219527708Y-113184273D01*
X219605031Y-113064379D01*
X219801016Y-112956831D01*
X220061682Y-112881126D01*
X220333049Y-112856760D01*
X220416175Y-112863366D01*
G36*
X216540203Y-112906144D02*
G01*
X216822092Y-113062107D01*
X216932373Y-113149172D01*
X217233010Y-113504008D01*
X217414910Y-113968287D01*
X217482346Y-114521170D01*
X217497435Y-115039538D01*
X215291071Y-115087922D01*
X215393229Y-115279716D01*
X215529576Y-115474907D01*
X215632466Y-115576756D01*
X215855200Y-115662031D01*
X216158465Y-115677573D01*
X216464908Y-115623862D01*
X216595854Y-115570816D01*
X216742976Y-115511045D01*
X216869196Y-115528429D01*
X217034705Y-115639914D01*
X217134765Y-115722539D01*
X217452127Y-115989878D01*
X217135652Y-116205864D01*
X216933594Y-116322453D01*
X216711355Y-116393611D01*
X216412805Y-116432775D01*
X216121572Y-116448610D01*
X215758883Y-116456724D01*
X215514487Y-116440591D01*
X215334469Y-116390107D01*
X215164913Y-116295170D01*
X215112334Y-116259498D01*
X214855261Y-116040766D01*
X214680137Y-115780108D01*
X214574213Y-115442621D01*
X214524744Y-114993400D01*
X214516823Y-114628883D01*
X214521411Y-114293223D01*
X215320373Y-114293223D01*
X215349136Y-114350915D01*
X215460286Y-114380029D01*
X215685851Y-114390327D01*
X215979709Y-114391578D01*
X216344629Y-114384231D01*
X216563675Y-114359210D01*
X216663257Y-114312047D01*
X216676687Y-114273638D01*
X216626539Y-114128235D01*
X216505101Y-113937663D01*
X216497627Y-113928059D01*
X216309293Y-113759685D01*
X216060825Y-113701957D01*
X215992650Y-113700422D01*
X215667959Y-113764627D01*
X215445892Y-113964363D01*
X215341968Y-114197191D01*
X215320373Y-114293223D01*
X214521411Y-114293223D01*
X214522336Y-114225607D01*
X214544299Y-113948796D01*
X214590848Y-113752324D01*
X214670116Y-113590067D01*
X214711211Y-113526754D01*
X215032567Y-113159142D01*
X215408194Y-112941326D01*
X215801621Y-112857068D01*
X216220733Y-112843142D01*
X216540203Y-112906144D01*
G37*
X216540203Y-112906144D02*
X216822092Y-113062107D01*
X216932373Y-113149172D01*
X217233010Y-113504008D01*
X217414910Y-113968287D01*
X217482346Y-114521170D01*
X217497435Y-115039538D01*
X215291071Y-115087922D01*
X215393229Y-115279716D01*
X215529576Y-115474907D01*
X215632466Y-115576756D01*
X215855200Y-115662031D01*
X216158465Y-115677573D01*
X216464908Y-115623862D01*
X216595854Y-115570816D01*
X216742976Y-115511045D01*
X216869196Y-115528429D01*
X217034705Y-115639914D01*
X217134765Y-115722539D01*
X217452127Y-115989878D01*
X217135652Y-116205864D01*
X216933594Y-116322453D01*
X216711355Y-116393611D01*
X216412805Y-116432775D01*
X216121572Y-116448610D01*
X215758883Y-116456724D01*
X215514487Y-116440591D01*
X215334469Y-116390107D01*
X215164913Y-116295170D01*
X215112334Y-116259498D01*
X214855261Y-116040766D01*
X214680137Y-115780108D01*
X214574213Y-115442621D01*
X214524744Y-114993400D01*
X214516823Y-114628883D01*
X214521411Y-114293223D01*
X215320373Y-114293223D01*
X215349136Y-114350915D01*
X215460286Y-114380029D01*
X215685851Y-114390327D01*
X215979709Y-114391578D01*
X216344629Y-114384231D01*
X216563675Y-114359210D01*
X216663257Y-114312047D01*
X216676687Y-114273638D01*
X216626539Y-114128235D01*
X216505101Y-113937663D01*
X216497627Y-113928059D01*
X216309293Y-113759685D01*
X216060825Y-113701957D01*
X215992650Y-113700422D01*
X215667959Y-113764627D01*
X215445892Y-113964363D01*
X215341968Y-114197191D01*
X215320373Y-114293223D01*
X214521411Y-114293223D01*
X214522336Y-114225607D01*
X214544299Y-113948796D01*
X214590848Y-113752324D01*
X214670116Y-113590067D01*
X214711211Y-113526754D01*
X215032567Y-113159142D01*
X215408194Y-112941326D01*
X215801621Y-112857068D01*
X216220733Y-112843142D01*
X216540203Y-112906144D01*
G36*
X212810531Y-111816825D02*
G01*
X213264102Y-111842939D01*
X213289823Y-112382905D01*
X213308698Y-112677907D01*
X213341244Y-112839803D01*
X213404906Y-112908234D01*
X213517124Y-112922840D01*
X213527408Y-112922871D01*
X213658228Y-112939612D01*
X213720209Y-113020627D01*
X213738521Y-113212103D01*
X213739272Y-113311647D01*
X213730437Y-113551455D01*
X213686525Y-113665073D01*
X213581430Y-113698866D01*
X213520363Y-113700422D01*
X213301454Y-113700422D01*
X213325975Y-114629164D01*
X213338712Y-115039429D01*
X213355748Y-115308219D01*
X213384245Y-115466821D01*
X213431365Y-115546525D01*
X213504269Y-115578620D01*
X213544884Y-115585512D01*
X213662070Y-115622836D01*
X213719877Y-115722403D01*
X213738373Y-115931035D01*
X213739272Y-116039084D01*
X213739272Y-116465048D01*
X213328898Y-116459201D01*
X213040338Y-116437006D01*
X212798146Y-116388052D01*
X212733992Y-116364002D01*
X212587180Y-116261153D01*
X212482344Y-116099804D01*
X212413326Y-115854018D01*
X212373966Y-115497859D01*
X212358106Y-115005389D01*
X212356959Y-114776289D01*
X212355375Y-114329098D01*
X212347610Y-114026568D01*
X212329149Y-113840577D01*
X212295475Y-113743004D01*
X212242072Y-113705729D01*
X212184170Y-113700422D01*
X212075082Y-113674247D01*
X212024227Y-113566184D01*
X212011390Y-113331928D01*
X212011381Y-113321723D01*
X212027301Y-113072159D01*
X212088302Y-112944806D01*
X212184170Y-112897838D01*
X212280917Y-112849504D01*
X212333368Y-112740585D01*
X212354263Y-112528601D01*
X212356959Y-112321682D01*
X212356959Y-111790712D01*
X212810531Y-111816825D01*
G37*
X212810531Y-111816825D02*
X213264102Y-111842939D01*
X213289823Y-112382905D01*
X213308698Y-112677907D01*
X213341244Y-112839803D01*
X213404906Y-112908234D01*
X213517124Y-112922840D01*
X213527408Y-112922871D01*
X213658228Y-112939612D01*
X213720209Y-113020627D01*
X213738521Y-113212103D01*
X213739272Y-113311647D01*
X213730437Y-113551455D01*
X213686525Y-113665073D01*
X213581430Y-113698866D01*
X213520363Y-113700422D01*
X213301454Y-113700422D01*
X213325975Y-114629164D01*
X213338712Y-115039429D01*
X213355748Y-115308219D01*
X213384245Y-115466821D01*
X213431365Y-115546525D01*
X213504269Y-115578620D01*
X213544884Y-115585512D01*
X213662070Y-115622836D01*
X213719877Y-115722403D01*
X213738373Y-115931035D01*
X213739272Y-116039084D01*
X213739272Y-116465048D01*
X213328898Y-116459201D01*
X213040338Y-116437006D01*
X212798146Y-116388052D01*
X212733992Y-116364002D01*
X212587180Y-116261153D01*
X212482344Y-116099804D01*
X212413326Y-115854018D01*
X212373966Y-115497859D01*
X212358106Y-115005389D01*
X212356959Y-114776289D01*
X212355375Y-114329098D01*
X212347610Y-114026568D01*
X212329149Y-113840577D01*
X212295475Y-113743004D01*
X212242072Y-113705729D01*
X212184170Y-113700422D01*
X212075082Y-113674247D01*
X212024227Y-113566184D01*
X212011390Y-113331928D01*
X212011381Y-113321723D01*
X212027301Y-113072159D01*
X212088302Y-112944806D01*
X212184170Y-112897838D01*
X212280917Y-112849504D01*
X212333368Y-112740585D01*
X212354263Y-112528601D01*
X212356959Y-112321682D01*
X212356959Y-111790712D01*
X212810531Y-111816825D01*
G36*
X210974646Y-112361306D02*
G01*
X210978434Y-112663179D01*
X210999805Y-112831319D01*
X211053775Y-112904763D01*
X211155357Y-112922547D01*
X211190633Y-112922871D01*
X211323913Y-112938985D01*
X211387060Y-113018191D01*
X211405794Y-113206785D01*
X211406619Y-113311647D01*
X211397784Y-113551455D01*
X211353872Y-113665073D01*
X211248777Y-113698866D01*
X211187710Y-113700422D01*
X210968801Y-113700422D01*
X210993322Y-114629164D01*
X211006059Y-115039429D01*
X211023095Y-115308219D01*
X211051592Y-115466821D01*
X211098711Y-115546525D01*
X211171616Y-115578620D01*
X211212231Y-115585512D01*
X211329417Y-115622836D01*
X211387224Y-115722403D01*
X211405720Y-115931035D01*
X211406619Y-116039084D01*
X211406619Y-116465048D01*
X210979464Y-116465048D01*
X210653331Y-116437030D01*
X210414995Y-116336754D01*
X210309906Y-116256751D01*
X210212737Y-116168115D01*
X210145003Y-116076795D01*
X210100453Y-115950873D01*
X210072837Y-115758428D01*
X210055903Y-115467541D01*
X210043400Y-115046292D01*
X210039211Y-114874438D01*
X210026213Y-114403149D01*
X210010924Y-114077840D01*
X209988907Y-113871714D01*
X209955726Y-113757975D01*
X209906943Y-113709826D01*
X209844823Y-113700422D01*
X209739533Y-113671926D01*
X209690523Y-113557466D01*
X209678728Y-113321723D01*
X209694648Y-113072159D01*
X209755649Y-112944806D01*
X209851517Y-112897838D01*
X209948612Y-112849190D01*
X210001062Y-112739511D01*
X210021762Y-112526143D01*
X210024306Y-112326197D01*
X210024306Y-111799742D01*
X210974646Y-111799742D01*
X210974646Y-112361306D01*
G37*
X210974646Y-112361306D02*
X210978434Y-112663179D01*
X210999805Y-112831319D01*
X211053775Y-112904763D01*
X211155357Y-112922547D01*
X211190633Y-112922871D01*
X211323913Y-112938985D01*
X211387060Y-113018191D01*
X211405794Y-113206785D01*
X211406619Y-113311647D01*
X211397784Y-113551455D01*
X211353872Y-113665073D01*
X211248777Y-113698866D01*
X211187710Y-113700422D01*
X210968801Y-113700422D01*
X210993322Y-114629164D01*
X211006059Y-115039429D01*
X211023095Y-115308219D01*
X211051592Y-115466821D01*
X211098711Y-115546525D01*
X211171616Y-115578620D01*
X211212231Y-115585512D01*
X211329417Y-115622836D01*
X211387224Y-115722403D01*
X211405720Y-115931035D01*
X211406619Y-116039084D01*
X211406619Y-116465048D01*
X210979464Y-116465048D01*
X210653331Y-116437030D01*
X210414995Y-116336754D01*
X210309906Y-116256751D01*
X210212737Y-116168115D01*
X210145003Y-116076795D01*
X210100453Y-115950873D01*
X210072837Y-115758428D01*
X210055903Y-115467541D01*
X210043400Y-115046292D01*
X210039211Y-114874438D01*
X210026213Y-114403149D01*
X210010924Y-114077840D01*
X209988907Y-113871714D01*
X209955726Y-113757975D01*
X209906943Y-113709826D01*
X209844823Y-113700422D01*
X209739533Y-113671926D01*
X209690523Y-113557466D01*
X209678728Y-113321723D01*
X209694648Y-113072159D01*
X209755649Y-112944806D01*
X209851517Y-112897838D01*
X209948612Y-112849190D01*
X210001062Y-112739511D01*
X210021762Y-112526143D01*
X210024306Y-112326197D01*
X210024306Y-111799742D01*
X210974646Y-111799742D01*
X210974646Y-112361306D01*
G36*
X207847033Y-112887363D02*
G01*
X208099941Y-112917886D01*
X208288338Y-112982705D01*
X208457380Y-113086905D01*
X208644418Y-113241014D01*
X208782460Y-113416774D01*
X208878600Y-113642010D01*
X208939932Y-113944548D01*
X208973552Y-114352211D01*
X208986553Y-114892824D01*
X208987571Y-115166355D01*
X208987571Y-116465048D01*
X208555599Y-116465048D01*
X208285267Y-116451589D01*
X208152782Y-116404431D01*
X208123626Y-116333237D01*
X208106296Y-116252519D01*
X208023988Y-116259018D01*
X207868733Y-116333237D01*
X207624415Y-116410955D01*
X207287852Y-116457569D01*
X207092545Y-116465048D01*
X206777296Y-116453420D01*
X206564903Y-116404064D01*
X206386176Y-116295269D01*
X206289105Y-116212951D01*
X206130171Y-116055313D01*
X206045571Y-115904292D01*
X206012231Y-115696461D01*
X206006959Y-115437364D01*
X206010385Y-115337078D01*
X206841101Y-115337078D01*
X206880504Y-115563750D01*
X206965607Y-115661058D01*
X207208281Y-115752708D01*
X207519609Y-115765123D01*
X207815676Y-115700184D01*
X207931613Y-115639401D01*
X208085209Y-115450388D01*
X208123626Y-115290038D01*
X208116054Y-115179672D01*
X208068689Y-115117446D01*
X207944554Y-115092174D01*
X207706673Y-115092670D01*
X207497265Y-115100549D01*
X207172921Y-115117652D01*
X206982590Y-115145508D01*
X206887527Y-115198082D01*
X206848987Y-115289342D01*
X206841101Y-115337078D01*
X206010385Y-115337078D01*
X206017611Y-115125621D01*
X206062893Y-114922277D01*
X206162790Y-114763562D01*
X206246120Y-114674324D01*
X206375299Y-114559211D01*
X206513892Y-114484638D01*
X206705966Y-114438586D01*
X206995590Y-114409037D01*
X207282854Y-114391578D01*
X207659275Y-114367982D01*
X207896568Y-114340551D01*
X208028311Y-114300042D01*
X208088081Y-114237207D01*
X208106625Y-114164762D01*
X208066319Y-113933681D01*
X207880784Y-113776173D01*
X207566085Y-113703844D01*
X207463816Y-113700422D01*
X207183112Y-113721093D01*
X206950850Y-113772794D01*
X206899633Y-113794560D01*
X206760823Y-113835843D01*
X206621001Y-113777015D01*
X206473340Y-113648804D01*
X206285499Y-113441913D01*
X206242517Y-113291156D01*
X206346485Y-113155340D01*
X206503728Y-113049569D01*
X206709993Y-112954546D01*
X206969592Y-112901278D01*
X207333682Y-112880826D01*
X207475667Y-112879751D01*
X207847033Y-112887363D01*
G37*
X207847033Y-112887363D02*
X208099941Y-112917886D01*
X208288338Y-112982705D01*
X208457380Y-113086905D01*
X208644418Y-113241014D01*
X208782460Y-113416774D01*
X208878600Y-113642010D01*
X208939932Y-113944548D01*
X208973552Y-114352211D01*
X208986553Y-114892824D01*
X208987571Y-115166355D01*
X208987571Y-116465048D01*
X208555599Y-116465048D01*
X208285267Y-116451589D01*
X208152782Y-116404431D01*
X208123626Y-116333237D01*
X208106296Y-116252519D01*
X208023988Y-116259018D01*
X207868733Y-116333237D01*
X207624415Y-116410955D01*
X207287852Y-116457569D01*
X207092545Y-116465048D01*
X206777296Y-116453420D01*
X206564903Y-116404064D01*
X206386176Y-116295269D01*
X206289105Y-116212951D01*
X206130171Y-116055313D01*
X206045571Y-115904292D01*
X206012231Y-115696461D01*
X206006959Y-115437364D01*
X206010385Y-115337078D01*
X206841101Y-115337078D01*
X206880504Y-115563750D01*
X206965607Y-115661058D01*
X207208281Y-115752708D01*
X207519609Y-115765123D01*
X207815676Y-115700184D01*
X207931613Y-115639401D01*
X208085209Y-115450388D01*
X208123626Y-115290038D01*
X208116054Y-115179672D01*
X208068689Y-115117446D01*
X207944554Y-115092174D01*
X207706673Y-115092670D01*
X207497265Y-115100549D01*
X207172921Y-115117652D01*
X206982590Y-115145508D01*
X206887527Y-115198082D01*
X206848987Y-115289342D01*
X206841101Y-115337078D01*
X206010385Y-115337078D01*
X206017611Y-115125621D01*
X206062893Y-114922277D01*
X206162790Y-114763562D01*
X206246120Y-114674324D01*
X206375299Y-114559211D01*
X206513892Y-114484638D01*
X206705966Y-114438586D01*
X206995590Y-114409037D01*
X207282854Y-114391578D01*
X207659275Y-114367982D01*
X207896568Y-114340551D01*
X208028311Y-114300042D01*
X208088081Y-114237207D01*
X208106625Y-114164762D01*
X208066319Y-113933681D01*
X207880784Y-113776173D01*
X207566085Y-113703844D01*
X207463816Y-113700422D01*
X207183112Y-113721093D01*
X206950850Y-113772794D01*
X206899633Y-113794560D01*
X206760823Y-113835843D01*
X206621001Y-113777015D01*
X206473340Y-113648804D01*
X206285499Y-113441913D01*
X206242517Y-113291156D01*
X206346485Y-113155340D01*
X206503728Y-113049569D01*
X206709993Y-112954546D01*
X206969592Y-112901278D01*
X207333682Y-112880826D01*
X207475667Y-112879751D01*
X207847033Y-112887363D01*
G36*
X202183743Y-112876693D02*
G01*
X202543246Y-113037928D01*
X202703868Y-113179741D01*
X202948560Y-113453598D01*
X203114117Y-113243126D01*
X203411987Y-112993493D01*
X203784942Y-112866179D01*
X204182825Y-112864457D01*
X204555484Y-112991602D01*
X204751490Y-113136224D01*
X204911013Y-113323066D01*
X205028125Y-113551975D01*
X205108487Y-113850402D01*
X205157760Y-114245798D01*
X205181606Y-114765612D01*
X205186211Y-115243949D01*
X205186211Y-116465048D01*
X204235871Y-116465048D01*
X204235871Y-115255524D01*
X204233756Y-114769019D01*
X204224857Y-114424634D01*
X204205344Y-114191723D01*
X204171385Y-114039640D01*
X204119151Y-113937743D01*
X204063082Y-113873211D01*
X203803858Y-113723192D01*
X203513203Y-113728637D01*
X203323642Y-113822795D01*
X203256390Y-113888716D01*
X203207530Y-113991889D01*
X203172612Y-114161023D01*
X203147185Y-114424826D01*
X203126801Y-114812008D01*
X203112742Y-115183509D01*
X203069544Y-116421851D01*
X202615973Y-116447964D01*
X202162401Y-116474078D01*
X202162401Y-115299309D01*
X202160965Y-114826188D01*
X202153374Y-114493647D01*
X202134704Y-114269480D01*
X202100030Y-114121483D01*
X202044427Y-114017450D01*
X201962972Y-113925177D01*
X201950342Y-113912481D01*
X201754276Y-113766408D01*
X201567302Y-113700706D01*
X201557640Y-113700422D01*
X201374519Y-113759109D01*
X201176188Y-113901473D01*
X201164937Y-113912481D01*
X201079650Y-114005771D01*
X201020946Y-114106709D01*
X200983871Y-114247584D01*
X200963472Y-114460685D01*
X200954795Y-114778303D01*
X200952887Y-115232727D01*
X200952878Y-115294794D01*
X200952878Y-116465048D01*
X200088932Y-116465048D01*
X200088932Y-112922871D01*
X200520905Y-112922871D01*
X200780004Y-112931968D01*
X200909226Y-112970582D01*
X200951029Y-113055694D01*
X200952878Y-113095660D01*
X200989057Y-113236048D01*
X201039272Y-113268449D01*
X201123173Y-113204328D01*
X201125667Y-113184273D01*
X201195047Y-113092519D01*
X201365421Y-112976758D01*
X201399167Y-112958665D01*
X201783758Y-112847116D01*
X202183743Y-112876693D01*
G37*
X202183743Y-112876693D02*
X202543246Y-113037928D01*
X202703868Y-113179741D01*
X202948560Y-113453598D01*
X203114117Y-113243126D01*
X203411987Y-112993493D01*
X203784942Y-112866179D01*
X204182825Y-112864457D01*
X204555484Y-112991602D01*
X204751490Y-113136224D01*
X204911013Y-113323066D01*
X205028125Y-113551975D01*
X205108487Y-113850402D01*
X205157760Y-114245798D01*
X205181606Y-114765612D01*
X205186211Y-115243949D01*
X205186211Y-116465048D01*
X204235871Y-116465048D01*
X204235871Y-115255524D01*
X204233756Y-114769019D01*
X204224857Y-114424634D01*
X204205344Y-114191723D01*
X204171385Y-114039640D01*
X204119151Y-113937743D01*
X204063082Y-113873211D01*
X203803858Y-113723192D01*
X203513203Y-113728637D01*
X203323642Y-113822795D01*
X203256390Y-113888716D01*
X203207530Y-113991889D01*
X203172612Y-114161023D01*
X203147185Y-114424826D01*
X203126801Y-114812008D01*
X203112742Y-115183509D01*
X203069544Y-116421851D01*
X202615973Y-116447964D01*
X202162401Y-116474078D01*
X202162401Y-115299309D01*
X202160965Y-114826188D01*
X202153374Y-114493647D01*
X202134704Y-114269480D01*
X202100030Y-114121483D01*
X202044427Y-114017450D01*
X201962972Y-113925177D01*
X201950342Y-113912481D01*
X201754276Y-113766408D01*
X201567302Y-113700706D01*
X201557640Y-113700422D01*
X201374519Y-113759109D01*
X201176188Y-113901473D01*
X201164937Y-113912481D01*
X201079650Y-114005771D01*
X201020946Y-114106709D01*
X200983871Y-114247584D01*
X200963472Y-114460685D01*
X200954795Y-114778303D01*
X200952887Y-115232727D01*
X200952878Y-115294794D01*
X200952878Y-116465048D01*
X200088932Y-116465048D01*
X200088932Y-112922871D01*
X200520905Y-112922871D01*
X200780004Y-112931968D01*
X200909226Y-112970582D01*
X200951029Y-113055694D01*
X200952878Y-113095660D01*
X200989057Y-113236048D01*
X201039272Y-113268449D01*
X201123173Y-113204328D01*
X201125667Y-113184273D01*
X201195047Y-113092519D01*
X201365421Y-112976758D01*
X201399167Y-112958665D01*
X201783758Y-112847116D01*
X202183743Y-112876693D01*
G36*
X196017260Y-112858274D02*
G01*
X196431245Y-112987168D01*
X196779073Y-113233339D01*
X196924137Y-113412839D01*
X197044769Y-113657492D01*
X197155955Y-113984099D01*
X197244702Y-114337524D01*
X197298018Y-114662632D01*
X197302910Y-114904288D01*
X197289368Y-114962773D01*
X197230770Y-115015159D01*
X197086063Y-115050683D01*
X196830868Y-115071936D01*
X196440808Y-115081510D01*
X196160691Y-115082735D01*
X195662457Y-115089794D01*
X195311147Y-115110440D01*
X195116304Y-115143878D01*
X195078048Y-115173057D01*
X195134240Y-115290331D01*
X195271402Y-115456381D01*
X195290107Y-115475437D01*
X195573858Y-115644802D01*
X195926884Y-115685770D01*
X196298436Y-115594245D01*
X196365535Y-115562265D01*
X196522406Y-115494113D01*
X196640027Y-115506026D01*
X196779947Y-115616920D01*
X196883322Y-115721396D01*
X197047403Y-115910466D01*
X197091071Y-116027624D01*
X197047234Y-116095014D01*
X196670554Y-116308802D01*
X196213729Y-116438286D01*
X195731185Y-116479037D01*
X195277347Y-116426630D01*
X194906639Y-116276637D01*
X194896436Y-116269963D01*
X194675954Y-116070374D01*
X194466933Y-115797913D01*
X194402487Y-115686800D01*
X194301710Y-115466467D01*
X194245266Y-115254538D01*
X194224592Y-114993753D01*
X194231125Y-114626855D01*
X194233907Y-114559505D01*
X194253857Y-114267905D01*
X195080716Y-114267905D01*
X195172946Y-114346471D01*
X195406518Y-114382979D01*
X195775026Y-114391578D01*
X196118700Y-114389439D01*
X196321615Y-114376514D01*
X196415802Y-114343040D01*
X196433287Y-114279254D01*
X196412766Y-114197191D01*
X196255721Y-113893609D01*
X196006094Y-113733227D01*
X195762085Y-113700422D01*
X195490309Y-113739459D01*
X195296097Y-113881286D01*
X195257107Y-113928059D01*
X195114034Y-114133146D01*
X195080716Y-114267905D01*
X194253857Y-114267905D01*
X194262231Y-114145516D01*
X194312820Y-113850211D01*
X194397524Y-113619798D01*
X194469247Y-113490971D01*
X194763112Y-113163005D01*
X195144718Y-112947417D01*
X195575593Y-112845432D01*
X196017260Y-112858274D01*
G37*
X196017260Y-112858274D02*
X196431245Y-112987168D01*
X196779073Y-113233339D01*
X196924137Y-113412839D01*
X197044769Y-113657492D01*
X197155955Y-113984099D01*
X197244702Y-114337524D01*
X197298018Y-114662632D01*
X197302910Y-114904288D01*
X197289368Y-114962773D01*
X197230770Y-115015159D01*
X197086063Y-115050683D01*
X196830868Y-115071936D01*
X196440808Y-115081510D01*
X196160691Y-115082735D01*
X195662457Y-115089794D01*
X195311147Y-115110440D01*
X195116304Y-115143878D01*
X195078048Y-115173057D01*
X195134240Y-115290331D01*
X195271402Y-115456381D01*
X195290107Y-115475437D01*
X195573858Y-115644802D01*
X195926884Y-115685770D01*
X196298436Y-115594245D01*
X196365535Y-115562265D01*
X196522406Y-115494113D01*
X196640027Y-115506026D01*
X196779947Y-115616920D01*
X196883322Y-115721396D01*
X197047403Y-115910466D01*
X197091071Y-116027624D01*
X197047234Y-116095014D01*
X196670554Y-116308802D01*
X196213729Y-116438286D01*
X195731185Y-116479037D01*
X195277347Y-116426630D01*
X194906639Y-116276637D01*
X194896436Y-116269963D01*
X194675954Y-116070374D01*
X194466933Y-115797913D01*
X194402487Y-115686800D01*
X194301710Y-115466467D01*
X194245266Y-115254538D01*
X194224592Y-114993753D01*
X194231125Y-114626855D01*
X194233907Y-114559505D01*
X194253857Y-114267905D01*
X195080716Y-114267905D01*
X195172946Y-114346471D01*
X195406518Y-114382979D01*
X195775026Y-114391578D01*
X196118700Y-114389439D01*
X196321615Y-114376514D01*
X196415802Y-114343040D01*
X196433287Y-114279254D01*
X196412766Y-114197191D01*
X196255721Y-113893609D01*
X196006094Y-113733227D01*
X195762085Y-113700422D01*
X195490309Y-113739459D01*
X195296097Y-113881286D01*
X195257107Y-113928059D01*
X195114034Y-114133146D01*
X195080716Y-114267905D01*
X194253857Y-114267905D01*
X194262231Y-114145516D01*
X194312820Y-113850211D01*
X194397524Y-113619798D01*
X194469247Y-113490971D01*
X194763112Y-113163005D01*
X195144718Y-112947417D01*
X195575593Y-112845432D01*
X196017260Y-112858274D01*
G36*
X193434145Y-113290048D02*
G01*
X193424067Y-113447437D01*
X193384590Y-113596002D01*
X193298486Y-113764584D01*
X193148523Y-113982021D01*
X192917470Y-114277156D01*
X192646997Y-114607565D01*
X191862255Y-115557905D01*
X192692600Y-115582632D01*
X193522946Y-115607359D01*
X193522946Y-116465048D01*
X192155032Y-116465048D01*
X191685379Y-116461583D01*
X191277862Y-116452015D01*
X190963200Y-116437587D01*
X190772113Y-116419538D01*
X190729522Y-116407452D01*
X190692055Y-116290647D01*
X190672666Y-116075218D01*
X190671925Y-116022068D01*
X190683623Y-115879090D01*
X190730061Y-115734229D01*
X190828259Y-115560855D01*
X190995236Y-115332338D01*
X191248011Y-115022048D01*
X191504730Y-114718950D01*
X192337534Y-113743619D01*
X191547927Y-113718779D01*
X190758320Y-113693938D01*
X190758320Y-112922871D01*
X193436551Y-112922871D01*
X193434145Y-113290048D01*
G37*
X193434145Y-113290048D02*
X193424067Y-113447437D01*
X193384590Y-113596002D01*
X193298486Y-113764584D01*
X193148523Y-113982021D01*
X192917470Y-114277156D01*
X192646997Y-114607565D01*
X191862255Y-115557905D01*
X192692600Y-115582632D01*
X193522946Y-115607359D01*
X193522946Y-116465048D01*
X192155032Y-116465048D01*
X191685379Y-116461583D01*
X191277862Y-116452015D01*
X190963200Y-116437587D01*
X190772113Y-116419538D01*
X190729522Y-116407452D01*
X190692055Y-116290647D01*
X190672666Y-116075218D01*
X190671925Y-116022068D01*
X190683623Y-115879090D01*
X190730061Y-115734229D01*
X190828259Y-115560855D01*
X190995236Y-115332338D01*
X191248011Y-115022048D01*
X191504730Y-114718950D01*
X192337534Y-113743619D01*
X191547927Y-113718779D01*
X190758320Y-113693938D01*
X190758320Y-112922871D01*
X193436551Y-112922871D01*
X193434145Y-113290048D01*
G36*
X189894374Y-116465048D02*
G01*
X188944034Y-116465048D01*
X188944034Y-112922871D01*
X189894374Y-112922871D01*
X189894374Y-116465048D01*
G37*
X189894374Y-116465048D02*
X188944034Y-116465048D01*
X188944034Y-112922871D01*
X189894374Y-112922871D01*
X189894374Y-116465048D01*
G36*
X186699846Y-111397551D02*
G01*
X187041006Y-111456354D01*
X187395445Y-111554397D01*
X187713520Y-111673829D01*
X187945586Y-111796803D01*
X188030641Y-111876023D01*
X188028116Y-111991606D01*
X187965114Y-112182405D01*
X187868382Y-112392293D01*
X187764665Y-112565144D01*
X187680708Y-112644830D01*
X187665075Y-112643186D01*
X187183673Y-112433384D01*
X186723958Y-112314552D01*
X186310230Y-112284574D01*
X185966786Y-112341336D01*
X185717924Y-112482725D01*
X185587943Y-112706626D01*
X185574646Y-112825078D01*
X185607347Y-113024204D01*
X185721236Y-113181918D01*
X185939997Y-113313270D01*
X186287312Y-113433307D01*
X186693131Y-113535806D01*
X187119747Y-113644168D01*
X187421875Y-113750052D01*
X187646391Y-113873120D01*
X187808906Y-114003800D01*
X187974575Y-114168977D01*
X188070724Y-114322502D01*
X188120315Y-114523442D01*
X188146311Y-114830868D01*
X188148985Y-114878617D01*
X188158337Y-115219920D01*
X188132837Y-115452924D01*
X188060519Y-115640597D01*
X187978872Y-115773891D01*
X187681620Y-116099728D01*
X187289454Y-116317303D01*
X186782930Y-116434431D01*
X186269095Y-116461007D01*
X185711017Y-116431969D01*
X185272445Y-116347276D01*
X185104693Y-116290349D01*
X184757487Y-116140696D01*
X184558221Y-116007369D01*
X184487666Y-115862993D01*
X184526591Y-115680192D01*
X184587385Y-115553942D01*
X184703372Y-115350098D01*
X184789387Y-115223465D01*
X184804372Y-115208926D01*
X184904307Y-115225190D01*
X185102619Y-115302637D01*
X185234407Y-115364428D01*
X185650382Y-115517907D01*
X186082296Y-115589015D01*
X186494936Y-115581927D01*
X186853088Y-115500821D01*
X187121540Y-115349874D01*
X187265078Y-115133262D01*
X187267736Y-115123239D01*
X187278149Y-114899313D01*
X187174128Y-114718582D01*
X186940299Y-114570485D01*
X186561288Y-114444458D01*
X186146789Y-114353114D01*
X185648873Y-114240143D01*
X185290999Y-114110387D01*
X185040432Y-113945324D01*
X184864434Y-113726431D01*
X184792204Y-113586699D01*
X184643602Y-113086194D01*
X184651962Y-112618756D01*
X184802170Y-112201725D01*
X185079117Y-111852444D01*
X185467689Y-111588254D01*
X185952776Y-111426496D01*
X186519267Y-111384511D01*
X186699846Y-111397551D01*
G37*
X186699846Y-111397551D02*
X187041006Y-111456354D01*
X187395445Y-111554397D01*
X187713520Y-111673829D01*
X187945586Y-111796803D01*
X188030641Y-111876023D01*
X188028116Y-111991606D01*
X187965114Y-112182405D01*
X187868382Y-112392293D01*
X187764665Y-112565144D01*
X187680708Y-112644830D01*
X187665075Y-112643186D01*
X187183673Y-112433384D01*
X186723958Y-112314552D01*
X186310230Y-112284574D01*
X185966786Y-112341336D01*
X185717924Y-112482725D01*
X185587943Y-112706626D01*
X185574646Y-112825078D01*
X185607347Y-113024204D01*
X185721236Y-113181918D01*
X185939997Y-113313270D01*
X186287312Y-113433307D01*
X186693131Y-113535806D01*
X187119747Y-113644168D01*
X187421875Y-113750052D01*
X187646391Y-113873120D01*
X187808906Y-114003800D01*
X187974575Y-114168977D01*
X188070724Y-114322502D01*
X188120315Y-114523442D01*
X188146311Y-114830868D01*
X188148985Y-114878617D01*
X188158337Y-115219920D01*
X188132837Y-115452924D01*
X188060519Y-115640597D01*
X187978872Y-115773891D01*
X187681620Y-116099728D01*
X187289454Y-116317303D01*
X186782930Y-116434431D01*
X186269095Y-116461007D01*
X185711017Y-116431969D01*
X185272445Y-116347276D01*
X185104693Y-116290349D01*
X184757487Y-116140696D01*
X184558221Y-116007369D01*
X184487666Y-115862993D01*
X184526591Y-115680192D01*
X184587385Y-115553942D01*
X184703372Y-115350098D01*
X184789387Y-115223465D01*
X184804372Y-115208926D01*
X184904307Y-115225190D01*
X185102619Y-115302637D01*
X185234407Y-115364428D01*
X185650382Y-115517907D01*
X186082296Y-115589015D01*
X186494936Y-115581927D01*
X186853088Y-115500821D01*
X187121540Y-115349874D01*
X187265078Y-115133262D01*
X187267736Y-115123239D01*
X187278149Y-114899313D01*
X187174128Y-114718582D01*
X186940299Y-114570485D01*
X186561288Y-114444458D01*
X186146789Y-114353114D01*
X185648873Y-114240143D01*
X185290999Y-114110387D01*
X185040432Y-113945324D01*
X184864434Y-113726431D01*
X184792204Y-113586699D01*
X184643602Y-113086194D01*
X184651962Y-112618756D01*
X184802170Y-112201725D01*
X185079117Y-111852444D01*
X185467689Y-111588254D01*
X185952776Y-111426496D01*
X186519267Y-111384511D01*
X186699846Y-111397551D01*
G36*
X160189097Y-115150042D02*
G01*
X160257123Y-115154729D01*
X160317540Y-115162827D01*
X160335371Y-115166313D01*
X160452122Y-115197966D01*
X160560645Y-115241198D01*
X160662058Y-115296619D01*
X160757480Y-115364839D01*
X160847751Y-115446192D01*
X160929226Y-115536820D01*
X160997417Y-115632761D01*
X161052823Y-115734955D01*
X161095941Y-115844342D01*
X161127270Y-115961862D01*
X161130941Y-115980029D01*
X161139078Y-116037434D01*
X161143627Y-116104044D01*
X161144626Y-116175103D01*
X161142115Y-116245850D01*
X161136131Y-116311529D01*
X161127805Y-116362396D01*
X161095289Y-116481816D01*
X161050098Y-116594732D01*
X160992796Y-116700396D01*
X160923948Y-116798059D01*
X160844116Y-116886974D01*
X160753864Y-116966392D01*
X160653756Y-117035565D01*
X160596014Y-117068282D01*
X160525804Y-117101060D01*
X160448215Y-117130153D01*
X160369679Y-117153356D01*
X160310286Y-117166232D01*
X160259545Y-117173241D01*
X160201723Y-117178199D01*
X160141645Y-117180926D01*
X160084133Y-117181241D01*
X160034010Y-117178964D01*
X160016372Y-117177198D01*
X159894844Y-117155336D01*
X159779309Y-117120611D01*
X159670464Y-117073677D01*
X159569010Y-117015188D01*
X159475646Y-116945796D01*
X159391072Y-116866156D01*
X159315988Y-116776919D01*
X159251093Y-116678739D01*
X159197087Y-116572269D01*
X159154670Y-116458163D01*
X159126332Y-116346251D01*
X159118490Y-116292110D01*
X159114026Y-116228467D01*
X159112897Y-116159929D01*
X159112963Y-116157829D01*
X159549438Y-116157829D01*
X159555380Y-116252367D01*
X159574533Y-116341056D01*
X159606791Y-116423647D01*
X159652051Y-116499893D01*
X159710205Y-116569544D01*
X159733384Y-116592130D01*
X159803591Y-116647459D01*
X159881031Y-116690850D01*
X159964105Y-116721882D01*
X160051214Y-116740137D01*
X160140760Y-116745193D01*
X160231144Y-116736632D01*
X160261037Y-116730712D01*
X160345950Y-116704403D01*
X160424847Y-116665495D01*
X160496606Y-116615054D01*
X160560106Y-116554146D01*
X160614226Y-116483836D01*
X160657845Y-116405190D01*
X160688230Y-116324743D01*
X160696854Y-116293813D01*
X160702579Y-116266502D01*
X160705984Y-116238156D01*
X160707651Y-116204123D01*
X160708142Y-116165086D01*
X160704378Y-116082913D01*
X160691780Y-116009558D01*
X160669378Y-115941642D01*
X160636206Y-115875785D01*
X160616076Y-115843768D01*
X160560531Y-115772467D01*
X160497521Y-115712659D01*
X160428342Y-115664264D01*
X160354292Y-115627203D01*
X160276666Y-115601398D01*
X160196761Y-115586769D01*
X160115874Y-115583238D01*
X160035302Y-115590724D01*
X159956340Y-115609150D01*
X159880286Y-115638437D01*
X159808437Y-115678505D01*
X159742088Y-115729275D01*
X159682537Y-115790668D01*
X159631079Y-115862606D01*
X159607408Y-115905226D01*
X159575944Y-115981692D01*
X159556811Y-116062835D01*
X159549522Y-116150779D01*
X159549438Y-116157829D01*
X159112963Y-116157829D01*
X159115063Y-116091101D01*
X159120479Y-116026587D01*
X159129106Y-115970992D01*
X159129781Y-115967776D01*
X159162684Y-115847128D01*
X159207862Y-115733766D01*
X159264701Y-115628310D01*
X159332585Y-115531378D01*
X159410896Y-115443591D01*
X159499019Y-115365568D01*
X159596337Y-115297928D01*
X159702234Y-115241290D01*
X159816095Y-115196276D01*
X159927735Y-115165574D01*
X159982782Y-115156534D01*
X160047585Y-115150937D01*
X160117804Y-115148775D01*
X160189097Y-115150042D01*
G37*
X160189097Y-115150042D02*
X160257123Y-115154729D01*
X160317540Y-115162827D01*
X160335371Y-115166313D01*
X160452122Y-115197966D01*
X160560645Y-115241198D01*
X160662058Y-115296619D01*
X160757480Y-115364839D01*
X160847751Y-115446192D01*
X160929226Y-115536820D01*
X160997417Y-115632761D01*
X161052823Y-115734955D01*
X161095941Y-115844342D01*
X161127270Y-115961862D01*
X161130941Y-115980029D01*
X161139078Y-116037434D01*
X161143627Y-116104044D01*
X161144626Y-116175103D01*
X161142115Y-116245850D01*
X161136131Y-116311529D01*
X161127805Y-116362396D01*
X161095289Y-116481816D01*
X161050098Y-116594732D01*
X160992796Y-116700396D01*
X160923948Y-116798059D01*
X160844116Y-116886974D01*
X160753864Y-116966392D01*
X160653756Y-117035565D01*
X160596014Y-117068282D01*
X160525804Y-117101060D01*
X160448215Y-117130153D01*
X160369679Y-117153356D01*
X160310286Y-117166232D01*
X160259545Y-117173241D01*
X160201723Y-117178199D01*
X160141645Y-117180926D01*
X160084133Y-117181241D01*
X160034010Y-117178964D01*
X160016372Y-117177198D01*
X159894844Y-117155336D01*
X159779309Y-117120611D01*
X159670464Y-117073677D01*
X159569010Y-117015188D01*
X159475646Y-116945796D01*
X159391072Y-116866156D01*
X159315988Y-116776919D01*
X159251093Y-116678739D01*
X159197087Y-116572269D01*
X159154670Y-116458163D01*
X159126332Y-116346251D01*
X159118490Y-116292110D01*
X159114026Y-116228467D01*
X159112897Y-116159929D01*
X159112963Y-116157829D01*
X159549438Y-116157829D01*
X159555380Y-116252367D01*
X159574533Y-116341056D01*
X159606791Y-116423647D01*
X159652051Y-116499893D01*
X159710205Y-116569544D01*
X159733384Y-116592130D01*
X159803591Y-116647459D01*
X159881031Y-116690850D01*
X159964105Y-116721882D01*
X160051214Y-116740137D01*
X160140760Y-116745193D01*
X160231144Y-116736632D01*
X160261037Y-116730712D01*
X160345950Y-116704403D01*
X160424847Y-116665495D01*
X160496606Y-116615054D01*
X160560106Y-116554146D01*
X160614226Y-116483836D01*
X160657845Y-116405190D01*
X160688230Y-116324743D01*
X160696854Y-116293813D01*
X160702579Y-116266502D01*
X160705984Y-116238156D01*
X160707651Y-116204123D01*
X160708142Y-116165086D01*
X160704378Y-116082913D01*
X160691780Y-116009558D01*
X160669378Y-115941642D01*
X160636206Y-115875785D01*
X160616076Y-115843768D01*
X160560531Y-115772467D01*
X160497521Y-115712659D01*
X160428342Y-115664264D01*
X160354292Y-115627203D01*
X160276666Y-115601398D01*
X160196761Y-115586769D01*
X160115874Y-115583238D01*
X160035302Y-115590724D01*
X159956340Y-115609150D01*
X159880286Y-115638437D01*
X159808437Y-115678505D01*
X159742088Y-115729275D01*
X159682537Y-115790668D01*
X159631079Y-115862606D01*
X159607408Y-115905226D01*
X159575944Y-115981692D01*
X159556811Y-116062835D01*
X159549522Y-116150779D01*
X159549438Y-116157829D01*
X159112963Y-116157829D01*
X159115063Y-116091101D01*
X159120479Y-116026587D01*
X159129106Y-115970992D01*
X159129781Y-115967776D01*
X159162684Y-115847128D01*
X159207862Y-115733766D01*
X159264701Y-115628310D01*
X159332585Y-115531378D01*
X159410896Y-115443591D01*
X159499019Y-115365568D01*
X159596337Y-115297928D01*
X159702234Y-115241290D01*
X159816095Y-115196276D01*
X159927735Y-115165574D01*
X159982782Y-115156534D01*
X160047585Y-115150937D01*
X160117804Y-115148775D01*
X160189097Y-115150042D01*
G36*
X158746372Y-116749286D02*
G01*
X158927800Y-116749286D01*
X158927800Y-117184714D01*
X158310986Y-117184714D01*
X158309150Y-115985472D01*
X158307314Y-114786229D01*
X158129514Y-114782153D01*
X158129514Y-114347172D01*
X158746372Y-114347172D01*
X158746372Y-116749286D01*
G37*
X158746372Y-116749286D02*
X158927800Y-116749286D01*
X158927800Y-117184714D01*
X158310986Y-117184714D01*
X158309150Y-115985472D01*
X158307314Y-114786229D01*
X158129514Y-114782153D01*
X158129514Y-114347172D01*
X158746372Y-114347172D01*
X158746372Y-116749286D01*
G36*
X161145052Y-117665500D02*
G01*
X161127996Y-117746379D01*
X161098448Y-117820359D01*
X161057105Y-117886601D01*
X161004664Y-117944268D01*
X160941821Y-117992520D01*
X160869275Y-118030521D01*
X160829172Y-118045549D01*
X160819863Y-118048302D01*
X160809141Y-118050661D01*
X160795829Y-118052665D01*
X160778749Y-118054352D01*
X160756727Y-118055760D01*
X160728586Y-118056929D01*
X160693149Y-118057896D01*
X160649240Y-118058701D01*
X160595682Y-118059380D01*
X160531301Y-118059973D01*
X160454919Y-118060518D01*
X160365359Y-118061054D01*
X160352014Y-118061129D01*
X159914772Y-118063561D01*
X159914772Y-118029771D01*
X159921531Y-117968926D01*
X159940721Y-117906970D01*
X159970710Y-117846387D01*
X160009867Y-117789659D01*
X160056561Y-117739270D01*
X160109159Y-117697704D01*
X160147336Y-117675808D01*
X160167192Y-117666152D01*
X160185089Y-117657874D01*
X160202279Y-117650868D01*
X160220013Y-117645027D01*
X160239543Y-117640246D01*
X160262120Y-117636418D01*
X160288996Y-117633437D01*
X160321422Y-117631198D01*
X160360650Y-117629595D01*
X160407931Y-117628521D01*
X160464517Y-117627870D01*
X160531660Y-117627537D01*
X160610610Y-117627416D01*
X160702620Y-117627400D01*
X161149848Y-117627400D01*
X161145052Y-117665500D01*
G37*
X161145052Y-117665500D02*
X161127996Y-117746379D01*
X161098448Y-117820359D01*
X161057105Y-117886601D01*
X161004664Y-117944268D01*
X160941821Y-117992520D01*
X160869275Y-118030521D01*
X160829172Y-118045549D01*
X160819863Y-118048302D01*
X160809141Y-118050661D01*
X160795829Y-118052665D01*
X160778749Y-118054352D01*
X160756727Y-118055760D01*
X160728586Y-118056929D01*
X160693149Y-118057896D01*
X160649240Y-118058701D01*
X160595682Y-118059380D01*
X160531301Y-118059973D01*
X160454919Y-118060518D01*
X160365359Y-118061054D01*
X160352014Y-118061129D01*
X159914772Y-118063561D01*
X159914772Y-118029771D01*
X159921531Y-117968926D01*
X159940721Y-117906970D01*
X159970710Y-117846387D01*
X160009867Y-117789659D01*
X160056561Y-117739270D01*
X160109159Y-117697704D01*
X160147336Y-117675808D01*
X160167192Y-117666152D01*
X160185089Y-117657874D01*
X160202279Y-117650868D01*
X160220013Y-117645027D01*
X160239543Y-117640246D01*
X160262120Y-117636418D01*
X160288996Y-117633437D01*
X160321422Y-117631198D01*
X160360650Y-117629595D01*
X160407931Y-117628521D01*
X160464517Y-117627870D01*
X160531660Y-117627537D01*
X160610610Y-117627416D01*
X160702620Y-117627400D01*
X161149848Y-117627400D01*
X161145052Y-117665500D01*
%LPC*%
D12*
X156478745Y-109756185D03*
X174258745Y-94516185D03*
X166638745Y-109756185D03*
X164098745Y-94516185D03*
X159018745Y-94516185D03*
X176798745Y-109756185D03*
X156478745Y-94516185D03*
X151398745Y-94516185D03*
X171718745Y-109756185D03*
X179338745Y-94516185D03*
X164098745Y-109756185D03*
X153938745Y-109756185D03*
X159018745Y-109756185D03*
X161558745Y-109756185D03*
X174258745Y-109756185D03*
X169178745Y-109756185D03*
X171718745Y-94516185D03*
X169178745Y-94516185D03*
X179338745Y-109756185D03*
X176798745Y-94516185D03*
X153938745Y-94516185D03*
X151398745Y-109756185D03*
X166638745Y-94516185D03*
X161558745Y-94516185D03*
X150203000Y-111055000D03*
X152743000Y-111055000D03*
X155283000Y-111055000D03*
X157823000Y-111055000D03*
X160363000Y-111055000D03*
X162903000Y-111055000D03*
X165443000Y-111055000D03*
X167983000Y-111055000D03*
X170523000Y-111055000D03*
X173063000Y-111055000D03*
X175603000Y-111055000D03*
X178143000Y-111055000D03*
X178143000Y-95815000D03*
X175603000Y-95815000D03*
X173063000Y-95815000D03*
X170523000Y-95815000D03*
X167983000Y-95815000D03*
X165443000Y-95815000D03*
X162903000Y-95815000D03*
X160363000Y-95815000D03*
X157823000Y-95815000D03*
X155283000Y-95815000D03*
X152743000Y-95815000D03*
X150203000Y-95815000D03*
D13*
X150622000Y-116078000D03*
X155702000Y-116078000D03*
G36*
G01*
X163919000Y-69089000D02*
X165519000Y-69089000D01*
G75*
G02*
X165570000Y-69140000I0J-51000D01*
G01*
X165570000Y-70740000D01*
G75*
G02*
X165519000Y-70791000I-51000J0D01*
G01*
X163919000Y-70791000D01*
G75*
G02*
X163868000Y-70740000I0J51000D01*
G01*
X163868000Y-69140000D01*
G75*
G02*
X163919000Y-69089000I51000J0D01*
G01*
G37*
D14*
X164719000Y-62140000D03*
G36*
G01*
X164118999Y-63789000D02*
X165319001Y-63789000D01*
G75*
G02*
X165370000Y-63839999I0J-50999D01*
G01*
X165370000Y-65440001D01*
G75*
G02*
X165319001Y-65491000I-50999J0D01*
G01*
X164118999Y-65491000D01*
G75*
G02*
X164068000Y-65440001I0J50999D01*
G01*
X164068000Y-63839999D01*
G75*
G02*
X164118999Y-63789000I50999J0D01*
G01*
G37*
G36*
G01*
X164118999Y-66589000D02*
X165319001Y-66589000D01*
G75*
G02*
X165370000Y-66639999I0J-50999D01*
G01*
X165370000Y-68240001D01*
G75*
G02*
X165319001Y-68291000I-50999J0D01*
G01*
X164118999Y-68291000D01*
G75*
G02*
X164068000Y-68240001I0J50999D01*
G01*
X164068000Y-66639999D01*
G75*
G02*
X164118999Y-66589000I50999J0D01*
G01*
G37*
G36*
G01*
X182969000Y-69089000D02*
X184569000Y-69089000D01*
G75*
G02*
X184620000Y-69140000I0J-51000D01*
G01*
X184620000Y-70740000D01*
G75*
G02*
X184569000Y-70791000I-51000J0D01*
G01*
X182969000Y-70791000D01*
G75*
G02*
X182918000Y-70740000I0J51000D01*
G01*
X182918000Y-69140000D01*
G75*
G02*
X182969000Y-69089000I51000J0D01*
G01*
G37*
X183769000Y-62140000D03*
G36*
G01*
X183168999Y-63789000D02*
X184369001Y-63789000D01*
G75*
G02*
X184420000Y-63839999I0J-50999D01*
G01*
X184420000Y-65440001D01*
G75*
G02*
X184369001Y-65491000I-50999J0D01*
G01*
X183168999Y-65491000D01*
G75*
G02*
X183118000Y-65440001I0J50999D01*
G01*
X183118000Y-63839999D01*
G75*
G02*
X183168999Y-63789000I50999J0D01*
G01*
G37*
G36*
G01*
X183168999Y-66589000D02*
X184369001Y-66589000D01*
G75*
G02*
X184420000Y-66639999I0J-50999D01*
G01*
X184420000Y-68240001D01*
G75*
G02*
X184369001Y-68291000I-50999J0D01*
G01*
X183168999Y-68291000D01*
G75*
G02*
X183118000Y-68240001I0J50999D01*
G01*
X183118000Y-66639999D01*
G75*
G02*
X183168999Y-66589000I50999J0D01*
G01*
G37*
G36*
G01*
X202019000Y-69089000D02*
X203619000Y-69089000D01*
G75*
G02*
X203670000Y-69140000I0J-51000D01*
G01*
X203670000Y-70740000D01*
G75*
G02*
X203619000Y-70791000I-51000J0D01*
G01*
X202019000Y-70791000D01*
G75*
G02*
X201968000Y-70740000I0J51000D01*
G01*
X201968000Y-69140000D01*
G75*
G02*
X202019000Y-69089000I51000J0D01*
G01*
G37*
X202819000Y-62140000D03*
G36*
G01*
X202218999Y-63789000D02*
X203419001Y-63789000D01*
G75*
G02*
X203470000Y-63839999I0J-50999D01*
G01*
X203470000Y-65440001D01*
G75*
G02*
X203419001Y-65491000I-50999J0D01*
G01*
X202218999Y-65491000D01*
G75*
G02*
X202168000Y-65440001I0J50999D01*
G01*
X202168000Y-63839999D01*
G75*
G02*
X202218999Y-63789000I50999J0D01*
G01*
G37*
G36*
G01*
X202218999Y-66589000D02*
X203419001Y-66589000D01*
G75*
G02*
X203470000Y-66639999I0J-50999D01*
G01*
X203470000Y-68240001D01*
G75*
G02*
X203419001Y-68291000I-50999J0D01*
G01*
X202218999Y-68291000D01*
G75*
G02*
X202168000Y-68240001I0J50999D01*
G01*
X202168000Y-66639999D01*
G75*
G02*
X202218999Y-66589000I50999J0D01*
G01*
G37*
G36*
G01*
X221069000Y-69089000D02*
X222669000Y-69089000D01*
G75*
G02*
X222720000Y-69140000I0J-51000D01*
G01*
X222720000Y-70740000D01*
G75*
G02*
X222669000Y-70791000I-51000J0D01*
G01*
X221069000Y-70791000D01*
G75*
G02*
X221018000Y-70740000I0J51000D01*
G01*
X221018000Y-69140000D01*
G75*
G02*
X221069000Y-69089000I51000J0D01*
G01*
G37*
X221869000Y-62140000D03*
G36*
G01*
X221268999Y-63789000D02*
X222469001Y-63789000D01*
G75*
G02*
X222520000Y-63839999I0J-50999D01*
G01*
X222520000Y-65440001D01*
G75*
G02*
X222469001Y-65491000I-50999J0D01*
G01*
X221268999Y-65491000D01*
G75*
G02*
X221218000Y-65440001I0J50999D01*
G01*
X221218000Y-63839999D01*
G75*
G02*
X221268999Y-63789000I50999J0D01*
G01*
G37*
G36*
G01*
X221268999Y-66589000D02*
X222469001Y-66589000D01*
G75*
G02*
X222520000Y-66639999I0J-50999D01*
G01*
X222520000Y-68240001D01*
G75*
G02*
X222469001Y-68291000I-50999J0D01*
G01*
X221268999Y-68291000D01*
G75*
G02*
X221218000Y-68240001I0J50999D01*
G01*
X221218000Y-66639999D01*
G75*
G02*
X221268999Y-66589000I50999J0D01*
G01*
G37*
G36*
G01*
X240119000Y-69089000D02*
X241719000Y-69089000D01*
G75*
G02*
X241770000Y-69140000I0J-51000D01*
G01*
X241770000Y-70740000D01*
G75*
G02*
X241719000Y-70791000I-51000J0D01*
G01*
X240119000Y-70791000D01*
G75*
G02*
X240068000Y-70740000I0J51000D01*
G01*
X240068000Y-69140000D01*
G75*
G02*
X240119000Y-69089000I51000J0D01*
G01*
G37*
X240919000Y-62140000D03*
G36*
G01*
X240318999Y-63789000D02*
X241519001Y-63789000D01*
G75*
G02*
X241570000Y-63839999I0J-50999D01*
G01*
X241570000Y-65440001D01*
G75*
G02*
X241519001Y-65491000I-50999J0D01*
G01*
X240318999Y-65491000D01*
G75*
G02*
X240268000Y-65440001I0J50999D01*
G01*
X240268000Y-63839999D01*
G75*
G02*
X240318999Y-63789000I50999J0D01*
G01*
G37*
G36*
G01*
X240318999Y-66589000D02*
X241519001Y-66589000D01*
G75*
G02*
X241570000Y-66639999I0J-50999D01*
G01*
X241570000Y-68240001D01*
G75*
G02*
X241519001Y-68291000I-50999J0D01*
G01*
X240318999Y-68291000D01*
G75*
G02*
X240268000Y-68240001I0J50999D01*
G01*
X240268000Y-66639999D01*
G75*
G02*
X240318999Y-66589000I50999J0D01*
G01*
G37*
G36*
G01*
X163919000Y-88102000D02*
X165519000Y-88102000D01*
G75*
G02*
X165570000Y-88153000I0J-51000D01*
G01*
X165570000Y-89753000D01*
G75*
G02*
X165519000Y-89804000I-51000J0D01*
G01*
X163919000Y-89804000D01*
G75*
G02*
X163868000Y-89753000I0J51000D01*
G01*
X163868000Y-88153000D01*
G75*
G02*
X163919000Y-88102000I51000J0D01*
G01*
G37*
X164719000Y-81153000D03*
G36*
G01*
X164118999Y-82802000D02*
X165319001Y-82802000D01*
G75*
G02*
X165370000Y-82852999I0J-50999D01*
G01*
X165370000Y-84453001D01*
G75*
G02*
X165319001Y-84504000I-50999J0D01*
G01*
X164118999Y-84504000D01*
G75*
G02*
X164068000Y-84453001I0J50999D01*
G01*
X164068000Y-82852999D01*
G75*
G02*
X164118999Y-82802000I50999J0D01*
G01*
G37*
G36*
G01*
X164118999Y-85602000D02*
X165319001Y-85602000D01*
G75*
G02*
X165370000Y-85652999I0J-50999D01*
G01*
X165370000Y-87253001D01*
G75*
G02*
X165319001Y-87304000I-50999J0D01*
G01*
X164118999Y-87304000D01*
G75*
G02*
X164068000Y-87253001I0J50999D01*
G01*
X164068000Y-85652999D01*
G75*
G02*
X164118999Y-85602000I50999J0D01*
G01*
G37*
G36*
G01*
X182969000Y-88099000D02*
X184569000Y-88099000D01*
G75*
G02*
X184620000Y-88150000I0J-51000D01*
G01*
X184620000Y-89750000D01*
G75*
G02*
X184569000Y-89801000I-51000J0D01*
G01*
X182969000Y-89801000D01*
G75*
G02*
X182918000Y-89750000I0J51000D01*
G01*
X182918000Y-88150000D01*
G75*
G02*
X182969000Y-88099000I51000J0D01*
G01*
G37*
X183769000Y-81150000D03*
G36*
G01*
X183168999Y-82799000D02*
X184369001Y-82799000D01*
G75*
G02*
X184420000Y-82849999I0J-50999D01*
G01*
X184420000Y-84450001D01*
G75*
G02*
X184369001Y-84501000I-50999J0D01*
G01*
X183168999Y-84501000D01*
G75*
G02*
X183118000Y-84450001I0J50999D01*
G01*
X183118000Y-82849999D01*
G75*
G02*
X183168999Y-82799000I50999J0D01*
G01*
G37*
G36*
G01*
X183168999Y-85599000D02*
X184369001Y-85599000D01*
G75*
G02*
X184420000Y-85649999I0J-50999D01*
G01*
X184420000Y-87250001D01*
G75*
G02*
X184369001Y-87301000I-50999J0D01*
G01*
X183168999Y-87301000D01*
G75*
G02*
X183118000Y-87250001I0J50999D01*
G01*
X183118000Y-85649999D01*
G75*
G02*
X183168999Y-85599000I50999J0D01*
G01*
G37*
G36*
G01*
X202019000Y-88102000D02*
X203619000Y-88102000D01*
G75*
G02*
X203670000Y-88153000I0J-51000D01*
G01*
X203670000Y-89753000D01*
G75*
G02*
X203619000Y-89804000I-51000J0D01*
G01*
X202019000Y-89804000D01*
G75*
G02*
X201968000Y-89753000I0J51000D01*
G01*
X201968000Y-88153000D01*
G75*
G02*
X202019000Y-88102000I51000J0D01*
G01*
G37*
X202819000Y-81153000D03*
G36*
G01*
X202218999Y-82802000D02*
X203419001Y-82802000D01*
G75*
G02*
X203470000Y-82852999I0J-50999D01*
G01*
X203470000Y-84453001D01*
G75*
G02*
X203419001Y-84504000I-50999J0D01*
G01*
X202218999Y-84504000D01*
G75*
G02*
X202168000Y-84453001I0J50999D01*
G01*
X202168000Y-82852999D01*
G75*
G02*
X202218999Y-82802000I50999J0D01*
G01*
G37*
G36*
G01*
X202218999Y-85602000D02*
X203419001Y-85602000D01*
G75*
G02*
X203470000Y-85652999I0J-50999D01*
G01*
X203470000Y-87253001D01*
G75*
G02*
X203419001Y-87304000I-50999J0D01*
G01*
X202218999Y-87304000D01*
G75*
G02*
X202168000Y-87253001I0J50999D01*
G01*
X202168000Y-85652999D01*
G75*
G02*
X202218999Y-85602000I50999J0D01*
G01*
G37*
G36*
G01*
X221069000Y-88099000D02*
X222669000Y-88099000D01*
G75*
G02*
X222720000Y-88150000I0J-51000D01*
G01*
X222720000Y-89750000D01*
G75*
G02*
X222669000Y-89801000I-51000J0D01*
G01*
X221069000Y-89801000D01*
G75*
G02*
X221018000Y-89750000I0J51000D01*
G01*
X221018000Y-88150000D01*
G75*
G02*
X221069000Y-88099000I51000J0D01*
G01*
G37*
X221869000Y-81150000D03*
G36*
G01*
X221268999Y-82799000D02*
X222469001Y-82799000D01*
G75*
G02*
X222520000Y-82849999I0J-50999D01*
G01*
X222520000Y-84450001D01*
G75*
G02*
X222469001Y-84501000I-50999J0D01*
G01*
X221268999Y-84501000D01*
G75*
G02*
X221218000Y-84450001I0J50999D01*
G01*
X221218000Y-82849999D01*
G75*
G02*
X221268999Y-82799000I50999J0D01*
G01*
G37*
G36*
G01*
X221268999Y-85599000D02*
X222469001Y-85599000D01*
G75*
G02*
X222520000Y-85649999I0J-50999D01*
G01*
X222520000Y-87250001D01*
G75*
G02*
X222469001Y-87301000I-50999J0D01*
G01*
X221268999Y-87301000D01*
G75*
G02*
X221218000Y-87250001I0J50999D01*
G01*
X221218000Y-85649999D01*
G75*
G02*
X221268999Y-85599000I50999J0D01*
G01*
G37*
G36*
G01*
X240119000Y-88099000D02*
X241719000Y-88099000D01*
G75*
G02*
X241770000Y-88150000I0J-51000D01*
G01*
X241770000Y-89750000D01*
G75*
G02*
X241719000Y-89801000I-51000J0D01*
G01*
X240119000Y-89801000D01*
G75*
G02*
X240068000Y-89750000I0J51000D01*
G01*
X240068000Y-88150000D01*
G75*
G02*
X240119000Y-88099000I51000J0D01*
G01*
G37*
X240919000Y-81150000D03*
G36*
G01*
X240318999Y-82799000D02*
X241519001Y-82799000D01*
G75*
G02*
X241570000Y-82849999I0J-50999D01*
G01*
X241570000Y-84450001D01*
G75*
G02*
X241519001Y-84501000I-50999J0D01*
G01*
X240318999Y-84501000D01*
G75*
G02*
X240268000Y-84450001I0J50999D01*
G01*
X240268000Y-82849999D01*
G75*
G02*
X240318999Y-82799000I50999J0D01*
G01*
G37*
G36*
G01*
X240318999Y-85599000D02*
X241519001Y-85599000D01*
G75*
G02*
X241570000Y-85649999I0J-50999D01*
G01*
X241570000Y-87250001D01*
G75*
G02*
X241519001Y-87301000I-50999J0D01*
G01*
X240318999Y-87301000D01*
G75*
G02*
X240268000Y-87250001I0J50999D01*
G01*
X240268000Y-85649999D01*
G75*
G02*
X240318999Y-85599000I50999J0D01*
G01*
G37*
G36*
G01*
X163792000Y-106898000D02*
X165392000Y-106898000D01*
G75*
G02*
X165443000Y-106949000I0J-51000D01*
G01*
X165443000Y-108549000D01*
G75*
G02*
X165392000Y-108600000I-51000J0D01*
G01*
X163792000Y-108600000D01*
G75*
G02*
X163741000Y-108549000I0J51000D01*
G01*
X163741000Y-106949000D01*
G75*
G02*
X163792000Y-106898000I51000J0D01*
G01*
G37*
X164592000Y-99949000D03*
G36*
G01*
X163991999Y-101598000D02*
X165192001Y-101598000D01*
G75*
G02*
X165243000Y-101648999I0J-50999D01*
G01*
X165243000Y-103249001D01*
G75*
G02*
X165192001Y-103300000I-50999J0D01*
G01*
X163991999Y-103300000D01*
G75*
G02*
X163941000Y-103249001I0J50999D01*
G01*
X163941000Y-101648999D01*
G75*
G02*
X163991999Y-101598000I50999J0D01*
G01*
G37*
G36*
G01*
X163991999Y-104398000D02*
X165192001Y-104398000D01*
G75*
G02*
X165243000Y-104448999I0J-50999D01*
G01*
X165243000Y-106049001D01*
G75*
G02*
X165192001Y-106100000I-50999J0D01*
G01*
X163991999Y-106100000D01*
G75*
G02*
X163941000Y-106049001I0J50999D01*
G01*
X163941000Y-104448999D01*
G75*
G02*
X163991999Y-104398000I50999J0D01*
G01*
G37*
G36*
G01*
X182969000Y-107276000D02*
X184569000Y-107276000D01*
G75*
G02*
X184620000Y-107327000I0J-51000D01*
G01*
X184620000Y-108927000D01*
G75*
G02*
X184569000Y-108978000I-51000J0D01*
G01*
X182969000Y-108978000D01*
G75*
G02*
X182918000Y-108927000I0J51000D01*
G01*
X182918000Y-107327000D01*
G75*
G02*
X182969000Y-107276000I51000J0D01*
G01*
G37*
X183769000Y-100327000D03*
G36*
G01*
X183168999Y-101976000D02*
X184369001Y-101976000D01*
G75*
G02*
X184420000Y-102026999I0J-50999D01*
G01*
X184420000Y-103627001D01*
G75*
G02*
X184369001Y-103678000I-50999J0D01*
G01*
X183168999Y-103678000D01*
G75*
G02*
X183118000Y-103627001I0J50999D01*
G01*
X183118000Y-102026999D01*
G75*
G02*
X183168999Y-101976000I50999J0D01*
G01*
G37*
G36*
G01*
X183168999Y-104776000D02*
X184369001Y-104776000D01*
G75*
G02*
X184420000Y-104826999I0J-50999D01*
G01*
X184420000Y-106427001D01*
G75*
G02*
X184369001Y-106478000I-50999J0D01*
G01*
X183168999Y-106478000D01*
G75*
G02*
X183118000Y-106427001I0J50999D01*
G01*
X183118000Y-104826999D01*
G75*
G02*
X183168999Y-104776000I50999J0D01*
G01*
G37*
G36*
G01*
X202019000Y-107152000D02*
X203619000Y-107152000D01*
G75*
G02*
X203670000Y-107203000I0J-51000D01*
G01*
X203670000Y-108803000D01*
G75*
G02*
X203619000Y-108854000I-51000J0D01*
G01*
X202019000Y-108854000D01*
G75*
G02*
X201968000Y-108803000I0J51000D01*
G01*
X201968000Y-107203000D01*
G75*
G02*
X202019000Y-107152000I51000J0D01*
G01*
G37*
X202819000Y-100203000D03*
G36*
G01*
X202218999Y-101852000D02*
X203419001Y-101852000D01*
G75*
G02*
X203470000Y-101902999I0J-50999D01*
G01*
X203470000Y-103503001D01*
G75*
G02*
X203419001Y-103554000I-50999J0D01*
G01*
X202218999Y-103554000D01*
G75*
G02*
X202168000Y-103503001I0J50999D01*
G01*
X202168000Y-101902999D01*
G75*
G02*
X202218999Y-101852000I50999J0D01*
G01*
G37*
G36*
G01*
X202218999Y-104652000D02*
X203419001Y-104652000D01*
G75*
G02*
X203470000Y-104702999I0J-50999D01*
G01*
X203470000Y-106303001D01*
G75*
G02*
X203419001Y-106354000I-50999J0D01*
G01*
X202218999Y-106354000D01*
G75*
G02*
X202168000Y-106303001I0J50999D01*
G01*
X202168000Y-104702999D01*
G75*
G02*
X202218999Y-104652000I50999J0D01*
G01*
G37*
G36*
G01*
X221069000Y-107149000D02*
X222669000Y-107149000D01*
G75*
G02*
X222720000Y-107200000I0J-51000D01*
G01*
X222720000Y-108800000D01*
G75*
G02*
X222669000Y-108851000I-51000J0D01*
G01*
X221069000Y-108851000D01*
G75*
G02*
X221018000Y-108800000I0J51000D01*
G01*
X221018000Y-107200000D01*
G75*
G02*
X221069000Y-107149000I51000J0D01*
G01*
G37*
X221869000Y-100200000D03*
G36*
G01*
X221268999Y-101849000D02*
X222469001Y-101849000D01*
G75*
G02*
X222520000Y-101899999I0J-50999D01*
G01*
X222520000Y-103500001D01*
G75*
G02*
X222469001Y-103551000I-50999J0D01*
G01*
X221268999Y-103551000D01*
G75*
G02*
X221218000Y-103500001I0J50999D01*
G01*
X221218000Y-101899999D01*
G75*
G02*
X221268999Y-101849000I50999J0D01*
G01*
G37*
G36*
G01*
X221268999Y-104649000D02*
X222469001Y-104649000D01*
G75*
G02*
X222520000Y-104699999I0J-50999D01*
G01*
X222520000Y-106300001D01*
G75*
G02*
X222469001Y-106351000I-50999J0D01*
G01*
X221268999Y-106351000D01*
G75*
G02*
X221218000Y-106300001I0J50999D01*
G01*
X221218000Y-104699999D01*
G75*
G02*
X221268999Y-104649000I50999J0D01*
G01*
G37*
G36*
G01*
X240119000Y-107152000D02*
X241719000Y-107152000D01*
G75*
G02*
X241770000Y-107203000I0J-51000D01*
G01*
X241770000Y-108803000D01*
G75*
G02*
X241719000Y-108854000I-51000J0D01*
G01*
X240119000Y-108854000D01*
G75*
G02*
X240068000Y-108803000I0J51000D01*
G01*
X240068000Y-107203000D01*
G75*
G02*
X240119000Y-107152000I51000J0D01*
G01*
G37*
X240919000Y-100203000D03*
G36*
G01*
X240318999Y-101852000D02*
X241519001Y-101852000D01*
G75*
G02*
X241570000Y-101902999I0J-50999D01*
G01*
X241570000Y-103503001D01*
G75*
G02*
X241519001Y-103554000I-50999J0D01*
G01*
X240318999Y-103554000D01*
G75*
G02*
X240268000Y-103503001I0J50999D01*
G01*
X240268000Y-101902999D01*
G75*
G02*
X240318999Y-101852000I50999J0D01*
G01*
G37*
G36*
G01*
X240318999Y-104652000D02*
X241519001Y-104652000D01*
G75*
G02*
X241570000Y-104702999I0J-50999D01*
G01*
X241570000Y-106303001D01*
G75*
G02*
X241519001Y-106354000I-50999J0D01*
G01*
X240318999Y-106354000D01*
G75*
G02*
X240268000Y-106303001I0J50999D01*
G01*
X240268000Y-104702999D01*
G75*
G02*
X240318999Y-104652000I50999J0D01*
G01*
G37*
G36*
G01*
X244945000Y-126239000D02*
X246545000Y-126239000D01*
G75*
G02*
X246596000Y-126290000I0J-51000D01*
G01*
X246596000Y-127890000D01*
G75*
G02*
X246545000Y-127941000I-51000J0D01*
G01*
X244945000Y-127941000D01*
G75*
G02*
X244894000Y-127890000I0J51000D01*
G01*
X244894000Y-126290000D01*
G75*
G02*
X244945000Y-126239000I51000J0D01*
G01*
G37*
X245745000Y-119290000D03*
G36*
G01*
X245144999Y-120939000D02*
X246345001Y-120939000D01*
G75*
G02*
X246396000Y-120989999I0J-50999D01*
G01*
X246396000Y-122590001D01*
G75*
G02*
X246345001Y-122641000I-50999J0D01*
G01*
X245144999Y-122641000D01*
G75*
G02*
X245094000Y-122590001I0J50999D01*
G01*
X245094000Y-120989999D01*
G75*
G02*
X245144999Y-120939000I50999J0D01*
G01*
G37*
G36*
G01*
X245144999Y-123739000D02*
X246345001Y-123739000D01*
G75*
G02*
X246396000Y-123789999I0J-50999D01*
G01*
X246396000Y-125390001D01*
G75*
G02*
X246345001Y-125441000I-50999J0D01*
G01*
X245144999Y-125441000D01*
G75*
G02*
X245094000Y-125390001I0J50999D01*
G01*
X245094000Y-123789999D01*
G75*
G02*
X245144999Y-123739000I50999J0D01*
G01*
G37*
G36*
G01*
X159646014Y-62586277D02*
X159646014Y-62586277D01*
G75*
G02*
X158552723Y-61333014I79986J1173277D01*
G01*
X158592265Y-60752982D01*
G75*
G02*
X159845528Y-59659691I1173277J-79986D01*
G01*
X159845528Y-59659691D01*
G75*
G02*
X160938819Y-60912954I-79986J-1173277D01*
G01*
X160899277Y-61492986D01*
G75*
G02*
X159646014Y-62586277I-1173277J79986D01*
G01*
G37*
D15*
X159766000Y-60833000D03*
G36*
G01*
X152630629Y-64248310D02*
X152630629Y-64248310D01*
G75*
G02*
X152540690Y-62587629I785371J875310D01*
G01*
X153850680Y-61127621D01*
G75*
G02*
X155511361Y-61037682I875310J-785371D01*
G01*
X155511361Y-61037682D01*
G75*
G02*
X155601300Y-62698363I-785371J-875310D01*
G01*
X154291310Y-64158371D01*
G75*
G02*
X152630629Y-64248310I-875310J785371D01*
G01*
G37*
D16*
X157226000Y-65913000D03*
D15*
X154726000Y-61913000D03*
D17*
X152146000Y-65913000D03*
X162306000Y-65913000D03*
D18*
X162226000Y-62113000D03*
X157226000Y-60013000D03*
D19*
X151726000Y-65913000D03*
X162726000Y-65913000D03*
D20*
X152006000Y-70113000D03*
D18*
X157226000Y-60013000D03*
D20*
X162446000Y-70113000D03*
D15*
X154686000Y-60833000D03*
G36*
G01*
X158940639Y-61037682D02*
X158940639Y-61037682D01*
G75*
G02*
X160601320Y-61127621I785371J-875310D01*
G01*
X161911310Y-62587629D01*
G75*
G02*
X161821371Y-64248310I-875310J-785371D01*
G01*
X161821371Y-64248310D01*
G75*
G02*
X160160690Y-64158371I-785371J875310D01*
G01*
X158850700Y-62698363D01*
G75*
G02*
X158940639Y-61037682I875310J785371D01*
G01*
G37*
D18*
X152226000Y-62113000D03*
G36*
G01*
X154606472Y-59659691D02*
X154606472Y-59659691D01*
G75*
G02*
X155859735Y-60752982I79986J-1173277D01*
G01*
X155899277Y-61333014D01*
G75*
G02*
X154805986Y-62586277I-1173277J-79986D01*
G01*
X154805986Y-62586277D01*
G75*
G02*
X153552723Y-61492986I-79986J1173277D01*
G01*
X153513181Y-60912954D01*
G75*
G02*
X154606472Y-59659691I1173277J79986D01*
G01*
G37*
D15*
X159726000Y-61913000D03*
G36*
G01*
X178696014Y-62586277D02*
X178696014Y-62586277D01*
G75*
G02*
X177602723Y-61333014I79986J1173277D01*
G01*
X177642265Y-60752982D01*
G75*
G02*
X178895528Y-59659691I1173277J-79986D01*
G01*
X178895528Y-59659691D01*
G75*
G02*
X179988819Y-60912954I-79986J-1173277D01*
G01*
X179949277Y-61492986D01*
G75*
G02*
X178696014Y-62586277I-1173277J79986D01*
G01*
G37*
X178816000Y-60833000D03*
G36*
G01*
X171680629Y-64248310D02*
X171680629Y-64248310D01*
G75*
G02*
X171590690Y-62587629I785371J875310D01*
G01*
X172900680Y-61127621D01*
G75*
G02*
X174561361Y-61037682I875310J-785371D01*
G01*
X174561361Y-61037682D01*
G75*
G02*
X174651300Y-62698363I-785371J-875310D01*
G01*
X173341310Y-64158371D01*
G75*
G02*
X171680629Y-64248310I-875310J785371D01*
G01*
G37*
D16*
X176276000Y-65913000D03*
D15*
X173776000Y-61913000D03*
D17*
X171196000Y-65913000D03*
X181356000Y-65913000D03*
D18*
X181276000Y-62113000D03*
X176276000Y-60013000D03*
D19*
X170776000Y-65913000D03*
X181776000Y-65913000D03*
D20*
X171056000Y-70113000D03*
D18*
X176276000Y-60013000D03*
D20*
X181496000Y-70113000D03*
D15*
X173736000Y-60833000D03*
G36*
G01*
X177990639Y-61037682D02*
X177990639Y-61037682D01*
G75*
G02*
X179651320Y-61127621I785371J-875310D01*
G01*
X180961310Y-62587629D01*
G75*
G02*
X180871371Y-64248310I-875310J-785371D01*
G01*
X180871371Y-64248310D01*
G75*
G02*
X179210690Y-64158371I-785371J875310D01*
G01*
X177900700Y-62698363D01*
G75*
G02*
X177990639Y-61037682I875310J785371D01*
G01*
G37*
D18*
X171276000Y-62113000D03*
G36*
G01*
X173656472Y-59659691D02*
X173656472Y-59659691D01*
G75*
G02*
X174909735Y-60752982I79986J-1173277D01*
G01*
X174949277Y-61333014D01*
G75*
G02*
X173855986Y-62586277I-1173277J-79986D01*
G01*
X173855986Y-62586277D01*
G75*
G02*
X172602723Y-61492986I-79986J1173277D01*
G01*
X172563181Y-60912954D01*
G75*
G02*
X173656472Y-59659691I1173277J79986D01*
G01*
G37*
D15*
X178776000Y-61913000D03*
G36*
G01*
X197746014Y-62586277D02*
X197746014Y-62586277D01*
G75*
G02*
X196652723Y-61333014I79986J1173277D01*
G01*
X196692265Y-60752982D01*
G75*
G02*
X197945528Y-59659691I1173277J-79986D01*
G01*
X197945528Y-59659691D01*
G75*
G02*
X199038819Y-60912954I-79986J-1173277D01*
G01*
X198999277Y-61492986D01*
G75*
G02*
X197746014Y-62586277I-1173277J79986D01*
G01*
G37*
X197866000Y-60833000D03*
G36*
G01*
X190730629Y-64248310D02*
X190730629Y-64248310D01*
G75*
G02*
X190640690Y-62587629I785371J875310D01*
G01*
X191950680Y-61127621D01*
G75*
G02*
X193611361Y-61037682I875310J-785371D01*
G01*
X193611361Y-61037682D01*
G75*
G02*
X193701300Y-62698363I-785371J-875310D01*
G01*
X192391310Y-64158371D01*
G75*
G02*
X190730629Y-64248310I-875310J785371D01*
G01*
G37*
D16*
X195326000Y-65913000D03*
D15*
X192826000Y-61913000D03*
D17*
X190246000Y-65913000D03*
X200406000Y-65913000D03*
D18*
X200326000Y-62113000D03*
X195326000Y-60013000D03*
D19*
X189826000Y-65913000D03*
X200826000Y-65913000D03*
D20*
X190106000Y-70113000D03*
D18*
X195326000Y-60013000D03*
D20*
X200546000Y-70113000D03*
D15*
X192786000Y-60833000D03*
G36*
G01*
X197040639Y-61037682D02*
X197040639Y-61037682D01*
G75*
G02*
X198701320Y-61127621I785371J-875310D01*
G01*
X200011310Y-62587629D01*
G75*
G02*
X199921371Y-64248310I-875310J-785371D01*
G01*
X199921371Y-64248310D01*
G75*
G02*
X198260690Y-64158371I-785371J875310D01*
G01*
X196950700Y-62698363D01*
G75*
G02*
X197040639Y-61037682I875310J785371D01*
G01*
G37*
D18*
X190326000Y-62113000D03*
G36*
G01*
X192706472Y-59659691D02*
X192706472Y-59659691D01*
G75*
G02*
X193959735Y-60752982I79986J-1173277D01*
G01*
X193999277Y-61333014D01*
G75*
G02*
X192905986Y-62586277I-1173277J-79986D01*
G01*
X192905986Y-62586277D01*
G75*
G02*
X191652723Y-61492986I-79986J1173277D01*
G01*
X191613181Y-60912954D01*
G75*
G02*
X192706472Y-59659691I1173277J79986D01*
G01*
G37*
D15*
X197826000Y-61913000D03*
G36*
G01*
X216796014Y-62586277D02*
X216796014Y-62586277D01*
G75*
G02*
X215702723Y-61333014I79986J1173277D01*
G01*
X215742265Y-60752982D01*
G75*
G02*
X216995528Y-59659691I1173277J-79986D01*
G01*
X216995528Y-59659691D01*
G75*
G02*
X218088819Y-60912954I-79986J-1173277D01*
G01*
X218049277Y-61492986D01*
G75*
G02*
X216796014Y-62586277I-1173277J79986D01*
G01*
G37*
X216916000Y-60833000D03*
G36*
G01*
X209780629Y-64248310D02*
X209780629Y-64248310D01*
G75*
G02*
X209690690Y-62587629I785371J875310D01*
G01*
X211000680Y-61127621D01*
G75*
G02*
X212661361Y-61037682I875310J-785371D01*
G01*
X212661361Y-61037682D01*
G75*
G02*
X212751300Y-62698363I-785371J-875310D01*
G01*
X211441310Y-64158371D01*
G75*
G02*
X209780629Y-64248310I-875310J785371D01*
G01*
G37*
D16*
X214376000Y-65913000D03*
D15*
X211876000Y-61913000D03*
D17*
X209296000Y-65913000D03*
X219456000Y-65913000D03*
D18*
X219376000Y-62113000D03*
X214376000Y-60013000D03*
D19*
X208876000Y-65913000D03*
X219876000Y-65913000D03*
D20*
X209156000Y-70113000D03*
D18*
X214376000Y-60013000D03*
D20*
X219596000Y-70113000D03*
D15*
X211836000Y-60833000D03*
G36*
G01*
X216090639Y-61037682D02*
X216090639Y-61037682D01*
G75*
G02*
X217751320Y-61127621I785371J-875310D01*
G01*
X219061310Y-62587629D01*
G75*
G02*
X218971371Y-64248310I-875310J-785371D01*
G01*
X218971371Y-64248310D01*
G75*
G02*
X217310690Y-64158371I-785371J875310D01*
G01*
X216000700Y-62698363D01*
G75*
G02*
X216090639Y-61037682I875310J785371D01*
G01*
G37*
D18*
X209376000Y-62113000D03*
G36*
G01*
X211756472Y-59659691D02*
X211756472Y-59659691D01*
G75*
G02*
X213009735Y-60752982I79986J-1173277D01*
G01*
X213049277Y-61333014D01*
G75*
G02*
X211955986Y-62586277I-1173277J-79986D01*
G01*
X211955986Y-62586277D01*
G75*
G02*
X210702723Y-61492986I-79986J1173277D01*
G01*
X210663181Y-60912954D01*
G75*
G02*
X211756472Y-59659691I1173277J79986D01*
G01*
G37*
D15*
X216876000Y-61913000D03*
G36*
G01*
X235846014Y-62586277D02*
X235846014Y-62586277D01*
G75*
G02*
X234752723Y-61333014I79986J1173277D01*
G01*
X234792265Y-60752982D01*
G75*
G02*
X236045528Y-59659691I1173277J-79986D01*
G01*
X236045528Y-59659691D01*
G75*
G02*
X237138819Y-60912954I-79986J-1173277D01*
G01*
X237099277Y-61492986D01*
G75*
G02*
X235846014Y-62586277I-1173277J79986D01*
G01*
G37*
X235966000Y-60833000D03*
G36*
G01*
X228830629Y-64248310D02*
X228830629Y-64248310D01*
G75*
G02*
X228740690Y-62587629I785371J875310D01*
G01*
X230050680Y-61127621D01*
G75*
G02*
X231711361Y-61037682I875310J-785371D01*
G01*
X231711361Y-61037682D01*
G75*
G02*
X231801300Y-62698363I-785371J-875310D01*
G01*
X230491310Y-64158371D01*
G75*
G02*
X228830629Y-64248310I-875310J785371D01*
G01*
G37*
D16*
X233426000Y-65913000D03*
D15*
X230926000Y-61913000D03*
D17*
X228346000Y-65913000D03*
X238506000Y-65913000D03*
D18*
X238426000Y-62113000D03*
X233426000Y-60013000D03*
D19*
X227926000Y-65913000D03*
X238926000Y-65913000D03*
D20*
X228206000Y-70113000D03*
D18*
X233426000Y-60013000D03*
D20*
X238646000Y-70113000D03*
D15*
X230886000Y-60833000D03*
G36*
G01*
X235140639Y-61037682D02*
X235140639Y-61037682D01*
G75*
G02*
X236801320Y-61127621I785371J-875310D01*
G01*
X238111310Y-62587629D01*
G75*
G02*
X238021371Y-64248310I-875310J-785371D01*
G01*
X238021371Y-64248310D01*
G75*
G02*
X236360690Y-64158371I-785371J875310D01*
G01*
X235050700Y-62698363D01*
G75*
G02*
X235140639Y-61037682I875310J785371D01*
G01*
G37*
D18*
X228426000Y-62113000D03*
G36*
G01*
X230806472Y-59659691D02*
X230806472Y-59659691D01*
G75*
G02*
X232059735Y-60752982I79986J-1173277D01*
G01*
X232099277Y-61333014D01*
G75*
G02*
X231005986Y-62586277I-1173277J-79986D01*
G01*
X231005986Y-62586277D01*
G75*
G02*
X229752723Y-61492986I-79986J1173277D01*
G01*
X229713181Y-60912954D01*
G75*
G02*
X230806472Y-59659691I1173277J79986D01*
G01*
G37*
D15*
X235926000Y-61913000D03*
G36*
G01*
X159646014Y-81636277D02*
X159646014Y-81636277D01*
G75*
G02*
X158552723Y-80383014I79986J1173277D01*
G01*
X158592265Y-79802982D01*
G75*
G02*
X159845528Y-78709691I1173277J-79986D01*
G01*
X159845528Y-78709691D01*
G75*
G02*
X160938819Y-79962954I-79986J-1173277D01*
G01*
X160899277Y-80542986D01*
G75*
G02*
X159646014Y-81636277I-1173277J79986D01*
G01*
G37*
X159766000Y-79883000D03*
G36*
G01*
X152630629Y-83298310D02*
X152630629Y-83298310D01*
G75*
G02*
X152540690Y-81637629I785371J875310D01*
G01*
X153850680Y-80177621D01*
G75*
G02*
X155511361Y-80087682I875310J-785371D01*
G01*
X155511361Y-80087682D01*
G75*
G02*
X155601300Y-81748363I-785371J-875310D01*
G01*
X154291310Y-83208371D01*
G75*
G02*
X152630629Y-83298310I-875310J785371D01*
G01*
G37*
D16*
X157226000Y-84963000D03*
D15*
X154726000Y-80963000D03*
D17*
X152146000Y-84963000D03*
X162306000Y-84963000D03*
D18*
X162226000Y-81163000D03*
X157226000Y-79063000D03*
D19*
X151726000Y-84963000D03*
X162726000Y-84963000D03*
D20*
X152006000Y-89163000D03*
D18*
X157226000Y-79063000D03*
D20*
X162446000Y-89163000D03*
D15*
X154686000Y-79883000D03*
G36*
G01*
X158940639Y-80087682D02*
X158940639Y-80087682D01*
G75*
G02*
X160601320Y-80177621I785371J-875310D01*
G01*
X161911310Y-81637629D01*
G75*
G02*
X161821371Y-83298310I-875310J-785371D01*
G01*
X161821371Y-83298310D01*
G75*
G02*
X160160690Y-83208371I-785371J875310D01*
G01*
X158850700Y-81748363D01*
G75*
G02*
X158940639Y-80087682I875310J785371D01*
G01*
G37*
D18*
X152226000Y-81163000D03*
G36*
G01*
X154606472Y-78709691D02*
X154606472Y-78709691D01*
G75*
G02*
X155859735Y-79802982I79986J-1173277D01*
G01*
X155899277Y-80383014D01*
G75*
G02*
X154805986Y-81636277I-1173277J-79986D01*
G01*
X154805986Y-81636277D01*
G75*
G02*
X153552723Y-80542986I-79986J1173277D01*
G01*
X153513181Y-79962954D01*
G75*
G02*
X154606472Y-78709691I1173277J79986D01*
G01*
G37*
D15*
X159726000Y-80963000D03*
G36*
G01*
X178696014Y-81636277D02*
X178696014Y-81636277D01*
G75*
G02*
X177602723Y-80383014I79986J1173277D01*
G01*
X177642265Y-79802982D01*
G75*
G02*
X178895528Y-78709691I1173277J-79986D01*
G01*
X178895528Y-78709691D01*
G75*
G02*
X179988819Y-79962954I-79986J-1173277D01*
G01*
X179949277Y-80542986D01*
G75*
G02*
X178696014Y-81636277I-1173277J79986D01*
G01*
G37*
X178816000Y-79883000D03*
G36*
G01*
X171680629Y-83298310D02*
X171680629Y-83298310D01*
G75*
G02*
X171590690Y-81637629I785371J875310D01*
G01*
X172900680Y-80177621D01*
G75*
G02*
X174561361Y-80087682I875310J-785371D01*
G01*
X174561361Y-80087682D01*
G75*
G02*
X174651300Y-81748363I-785371J-875310D01*
G01*
X173341310Y-83208371D01*
G75*
G02*
X171680629Y-83298310I-875310J785371D01*
G01*
G37*
D16*
X176276000Y-84963000D03*
D15*
X173776000Y-80963000D03*
D17*
X171196000Y-84963000D03*
X181356000Y-84963000D03*
D18*
X181276000Y-81163000D03*
X176276000Y-79063000D03*
D19*
X170776000Y-84963000D03*
X181776000Y-84963000D03*
D20*
X171056000Y-89163000D03*
D18*
X176276000Y-79063000D03*
D20*
X181496000Y-89163000D03*
D15*
X173736000Y-79883000D03*
G36*
G01*
X177990639Y-80087682D02*
X177990639Y-80087682D01*
G75*
G02*
X179651320Y-80177621I785371J-875310D01*
G01*
X180961310Y-81637629D01*
G75*
G02*
X180871371Y-83298310I-875310J-785371D01*
G01*
X180871371Y-83298310D01*
G75*
G02*
X179210690Y-83208371I-785371J875310D01*
G01*
X177900700Y-81748363D01*
G75*
G02*
X177990639Y-80087682I875310J785371D01*
G01*
G37*
D18*
X171276000Y-81163000D03*
G36*
G01*
X173656472Y-78709691D02*
X173656472Y-78709691D01*
G75*
G02*
X174909735Y-79802982I79986J-1173277D01*
G01*
X174949277Y-80383014D01*
G75*
G02*
X173855986Y-81636277I-1173277J-79986D01*
G01*
X173855986Y-81636277D01*
G75*
G02*
X172602723Y-80542986I-79986J1173277D01*
G01*
X172563181Y-79962954D01*
G75*
G02*
X173656472Y-78709691I1173277J79986D01*
G01*
G37*
D15*
X178776000Y-80963000D03*
G36*
G01*
X197746014Y-81636277D02*
X197746014Y-81636277D01*
G75*
G02*
X196652723Y-80383014I79986J1173277D01*
G01*
X196692265Y-79802982D01*
G75*
G02*
X197945528Y-78709691I1173277J-79986D01*
G01*
X197945528Y-78709691D01*
G75*
G02*
X199038819Y-79962954I-79986J-1173277D01*
G01*
X198999277Y-80542986D01*
G75*
G02*
X197746014Y-81636277I-1173277J79986D01*
G01*
G37*
X197866000Y-79883000D03*
G36*
G01*
X190730629Y-83298310D02*
X190730629Y-83298310D01*
G75*
G02*
X190640690Y-81637629I785371J875310D01*
G01*
X191950680Y-80177621D01*
G75*
G02*
X193611361Y-80087682I875310J-785371D01*
G01*
X193611361Y-80087682D01*
G75*
G02*
X193701300Y-81748363I-785371J-875310D01*
G01*
X192391310Y-83208371D01*
G75*
G02*
X190730629Y-83298310I-875310J785371D01*
G01*
G37*
D16*
X195326000Y-84963000D03*
D15*
X192826000Y-80963000D03*
D17*
X190246000Y-84963000D03*
X200406000Y-84963000D03*
D18*
X200326000Y-81163000D03*
X195326000Y-79063000D03*
D19*
X189826000Y-84963000D03*
X200826000Y-84963000D03*
D20*
X190106000Y-89163000D03*
D18*
X195326000Y-79063000D03*
D20*
X200546000Y-89163000D03*
D15*
X192786000Y-79883000D03*
G36*
G01*
X197040639Y-80087682D02*
X197040639Y-80087682D01*
G75*
G02*
X198701320Y-80177621I785371J-875310D01*
G01*
X200011310Y-81637629D01*
G75*
G02*
X199921371Y-83298310I-875310J-785371D01*
G01*
X199921371Y-83298310D01*
G75*
G02*
X198260690Y-83208371I-785371J875310D01*
G01*
X196950700Y-81748363D01*
G75*
G02*
X197040639Y-80087682I875310J785371D01*
G01*
G37*
D18*
X190326000Y-81163000D03*
G36*
G01*
X192706472Y-78709691D02*
X192706472Y-78709691D01*
G75*
G02*
X193959735Y-79802982I79986J-1173277D01*
G01*
X193999277Y-80383014D01*
G75*
G02*
X192905986Y-81636277I-1173277J-79986D01*
G01*
X192905986Y-81636277D01*
G75*
G02*
X191652723Y-80542986I-79986J1173277D01*
G01*
X191613181Y-79962954D01*
G75*
G02*
X192706472Y-78709691I1173277J79986D01*
G01*
G37*
D15*
X197826000Y-80963000D03*
G36*
G01*
X216796014Y-81636277D02*
X216796014Y-81636277D01*
G75*
G02*
X215702723Y-80383014I79986J1173277D01*
G01*
X215742265Y-79802982D01*
G75*
G02*
X216995528Y-78709691I1173277J-79986D01*
G01*
X216995528Y-78709691D01*
G75*
G02*
X218088819Y-79962954I-79986J-1173277D01*
G01*
X218049277Y-80542986D01*
G75*
G02*
X216796014Y-81636277I-1173277J79986D01*
G01*
G37*
X216916000Y-79883000D03*
G36*
G01*
X209780629Y-83298310D02*
X209780629Y-83298310D01*
G75*
G02*
X209690690Y-81637629I785371J875310D01*
G01*
X211000680Y-80177621D01*
G75*
G02*
X212661361Y-80087682I875310J-785371D01*
G01*
X212661361Y-80087682D01*
G75*
G02*
X212751300Y-81748363I-785371J-875310D01*
G01*
X211441310Y-83208371D01*
G75*
G02*
X209780629Y-83298310I-875310J785371D01*
G01*
G37*
D16*
X214376000Y-84963000D03*
D15*
X211876000Y-80963000D03*
D17*
X209296000Y-84963000D03*
X219456000Y-84963000D03*
D18*
X219376000Y-81163000D03*
X214376000Y-79063000D03*
D19*
X208876000Y-84963000D03*
X219876000Y-84963000D03*
D20*
X209156000Y-89163000D03*
D18*
X214376000Y-79063000D03*
D20*
X219596000Y-89163000D03*
D15*
X211836000Y-79883000D03*
G36*
G01*
X216090639Y-80087682D02*
X216090639Y-80087682D01*
G75*
G02*
X217751320Y-80177621I785371J-875310D01*
G01*
X219061310Y-81637629D01*
G75*
G02*
X218971371Y-83298310I-875310J-785371D01*
G01*
X218971371Y-83298310D01*
G75*
G02*
X217310690Y-83208371I-785371J875310D01*
G01*
X216000700Y-81748363D01*
G75*
G02*
X216090639Y-80087682I875310J785371D01*
G01*
G37*
D18*
X209376000Y-81163000D03*
G36*
G01*
X211756472Y-78709691D02*
X211756472Y-78709691D01*
G75*
G02*
X213009735Y-79802982I79986J-1173277D01*
G01*
X213049277Y-80383014D01*
G75*
G02*
X211955986Y-81636277I-1173277J-79986D01*
G01*
X211955986Y-81636277D01*
G75*
G02*
X210702723Y-80542986I-79986J1173277D01*
G01*
X210663181Y-79962954D01*
G75*
G02*
X211756472Y-78709691I1173277J79986D01*
G01*
G37*
D15*
X216876000Y-80963000D03*
G36*
G01*
X235846014Y-81636277D02*
X235846014Y-81636277D01*
G75*
G02*
X234752723Y-80383014I79986J1173277D01*
G01*
X234792265Y-79802982D01*
G75*
G02*
X236045528Y-78709691I1173277J-79986D01*
G01*
X236045528Y-78709691D01*
G75*
G02*
X237138819Y-79962954I-79986J-1173277D01*
G01*
X237099277Y-80542986D01*
G75*
G02*
X235846014Y-81636277I-1173277J79986D01*
G01*
G37*
X235966000Y-79883000D03*
G36*
G01*
X228830629Y-83298310D02*
X228830629Y-83298310D01*
G75*
G02*
X228740690Y-81637629I785371J875310D01*
G01*
X230050680Y-80177621D01*
G75*
G02*
X231711361Y-80087682I875310J-785371D01*
G01*
X231711361Y-80087682D01*
G75*
G02*
X231801300Y-81748363I-785371J-875310D01*
G01*
X230491310Y-83208371D01*
G75*
G02*
X228830629Y-83298310I-875310J785371D01*
G01*
G37*
D16*
X233426000Y-84963000D03*
D15*
X230926000Y-80963000D03*
D17*
X228346000Y-84963000D03*
X238506000Y-84963000D03*
D18*
X238426000Y-81163000D03*
X233426000Y-79063000D03*
D19*
X227926000Y-84963000D03*
X238926000Y-84963000D03*
D20*
X228206000Y-89163000D03*
D18*
X233426000Y-79063000D03*
D20*
X238646000Y-89163000D03*
D15*
X230886000Y-79883000D03*
G36*
G01*
X235140639Y-80087682D02*
X235140639Y-80087682D01*
G75*
G02*
X236801320Y-80177621I785371J-875310D01*
G01*
X238111310Y-81637629D01*
G75*
G02*
X238021371Y-83298310I-875310J-785371D01*
G01*
X238021371Y-83298310D01*
G75*
G02*
X236360690Y-83208371I-785371J875310D01*
G01*
X235050700Y-81748363D01*
G75*
G02*
X235140639Y-80087682I875310J785371D01*
G01*
G37*
D18*
X228426000Y-81163000D03*
G36*
G01*
X230806472Y-78709691D02*
X230806472Y-78709691D01*
G75*
G02*
X232059735Y-79802982I79986J-1173277D01*
G01*
X232099277Y-80383014D01*
G75*
G02*
X231005986Y-81636277I-1173277J-79986D01*
G01*
X231005986Y-81636277D01*
G75*
G02*
X229752723Y-80542986I-79986J1173277D01*
G01*
X229713181Y-79962954D01*
G75*
G02*
X230806472Y-78709691I1173277J79986D01*
G01*
G37*
D15*
X235926000Y-80963000D03*
G36*
G01*
X159646014Y-100686277D02*
X159646014Y-100686277D01*
G75*
G02*
X158552723Y-99433014I79986J1173277D01*
G01*
X158592265Y-98852982D01*
G75*
G02*
X159845528Y-97759691I1173277J-79986D01*
G01*
X159845528Y-97759691D01*
G75*
G02*
X160938819Y-99012954I-79986J-1173277D01*
G01*
X160899277Y-99592986D01*
G75*
G02*
X159646014Y-100686277I-1173277J79986D01*
G01*
G37*
X159766000Y-98933000D03*
G36*
G01*
X152630629Y-102348310D02*
X152630629Y-102348310D01*
G75*
G02*
X152540690Y-100687629I785371J875310D01*
G01*
X153850680Y-99227621D01*
G75*
G02*
X155511361Y-99137682I875310J-785371D01*
G01*
X155511361Y-99137682D01*
G75*
G02*
X155601300Y-100798363I-785371J-875310D01*
G01*
X154291310Y-102258371D01*
G75*
G02*
X152630629Y-102348310I-875310J785371D01*
G01*
G37*
D16*
X157226000Y-104013000D03*
D15*
X154726000Y-100013000D03*
D17*
X152146000Y-104013000D03*
X162306000Y-104013000D03*
D18*
X162226000Y-100213000D03*
X157226000Y-98113000D03*
D19*
X151726000Y-104013000D03*
X162726000Y-104013000D03*
D20*
X152006000Y-108213000D03*
D18*
X157226000Y-98113000D03*
D20*
X162446000Y-108213000D03*
D15*
X154686000Y-98933000D03*
G36*
G01*
X158940639Y-99137682D02*
X158940639Y-99137682D01*
G75*
G02*
X160601320Y-99227621I785371J-875310D01*
G01*
X161911310Y-100687629D01*
G75*
G02*
X161821371Y-102348310I-875310J-785371D01*
G01*
X161821371Y-102348310D01*
G75*
G02*
X160160690Y-102258371I-785371J875310D01*
G01*
X158850700Y-100798363D01*
G75*
G02*
X158940639Y-99137682I875310J785371D01*
G01*
G37*
D18*
X152226000Y-100213000D03*
G36*
G01*
X154606472Y-97759691D02*
X154606472Y-97759691D01*
G75*
G02*
X155859735Y-98852982I79986J-1173277D01*
G01*
X155899277Y-99433014D01*
G75*
G02*
X154805986Y-100686277I-1173277J-79986D01*
G01*
X154805986Y-100686277D01*
G75*
G02*
X153552723Y-99592986I-79986J1173277D01*
G01*
X153513181Y-99012954D01*
G75*
G02*
X154606472Y-97759691I1173277J79986D01*
G01*
G37*
D15*
X159726000Y-100013000D03*
G36*
G01*
X178696014Y-100686277D02*
X178696014Y-100686277D01*
G75*
G02*
X177602723Y-99433014I79986J1173277D01*
G01*
X177642265Y-98852982D01*
G75*
G02*
X178895528Y-97759691I1173277J-79986D01*
G01*
X178895528Y-97759691D01*
G75*
G02*
X179988819Y-99012954I-79986J-1173277D01*
G01*
X179949277Y-99592986D01*
G75*
G02*
X178696014Y-100686277I-1173277J79986D01*
G01*
G37*
X178816000Y-98933000D03*
G36*
G01*
X171680629Y-102348310D02*
X171680629Y-102348310D01*
G75*
G02*
X171590690Y-100687629I785371J875310D01*
G01*
X172900680Y-99227621D01*
G75*
G02*
X174561361Y-99137682I875310J-785371D01*
G01*
X174561361Y-99137682D01*
G75*
G02*
X174651300Y-100798363I-785371J-875310D01*
G01*
X173341310Y-102258371D01*
G75*
G02*
X171680629Y-102348310I-875310J785371D01*
G01*
G37*
D16*
X176276000Y-104013000D03*
D15*
X173776000Y-100013000D03*
D17*
X171196000Y-104013000D03*
X181356000Y-104013000D03*
D18*
X181276000Y-100213000D03*
X176276000Y-98113000D03*
D19*
X170776000Y-104013000D03*
X181776000Y-104013000D03*
D20*
X171056000Y-108213000D03*
D18*
X176276000Y-98113000D03*
D20*
X181496000Y-108213000D03*
D15*
X173736000Y-98933000D03*
G36*
G01*
X177990639Y-99137682D02*
X177990639Y-99137682D01*
G75*
G02*
X179651320Y-99227621I785371J-875310D01*
G01*
X180961310Y-100687629D01*
G75*
G02*
X180871371Y-102348310I-875310J-785371D01*
G01*
X180871371Y-102348310D01*
G75*
G02*
X179210690Y-102258371I-785371J875310D01*
G01*
X177900700Y-100798363D01*
G75*
G02*
X177990639Y-99137682I875310J785371D01*
G01*
G37*
D18*
X171276000Y-100213000D03*
G36*
G01*
X173656472Y-97759691D02*
X173656472Y-97759691D01*
G75*
G02*
X174909735Y-98852982I79986J-1173277D01*
G01*
X174949277Y-99433014D01*
G75*
G02*
X173855986Y-100686277I-1173277J-79986D01*
G01*
X173855986Y-100686277D01*
G75*
G02*
X172602723Y-99592986I-79986J1173277D01*
G01*
X172563181Y-99012954D01*
G75*
G02*
X173656472Y-97759691I1173277J79986D01*
G01*
G37*
D15*
X178776000Y-100013000D03*
G36*
G01*
X197746014Y-100686277D02*
X197746014Y-100686277D01*
G75*
G02*
X196652723Y-99433014I79986J1173277D01*
G01*
X196692265Y-98852982D01*
G75*
G02*
X197945528Y-97759691I1173277J-79986D01*
G01*
X197945528Y-97759691D01*
G75*
G02*
X199038819Y-99012954I-79986J-1173277D01*
G01*
X198999277Y-99592986D01*
G75*
G02*
X197746014Y-100686277I-1173277J79986D01*
G01*
G37*
X197866000Y-98933000D03*
G36*
G01*
X190730629Y-102348310D02*
X190730629Y-102348310D01*
G75*
G02*
X190640690Y-100687629I785371J875310D01*
G01*
X191950680Y-99227621D01*
G75*
G02*
X193611361Y-99137682I875310J-785371D01*
G01*
X193611361Y-99137682D01*
G75*
G02*
X193701300Y-100798363I-785371J-875310D01*
G01*
X192391310Y-102258371D01*
G75*
G02*
X190730629Y-102348310I-875310J785371D01*
G01*
G37*
D16*
X195326000Y-104013000D03*
D15*
X192826000Y-100013000D03*
D17*
X190246000Y-104013000D03*
X200406000Y-104013000D03*
D18*
X200326000Y-100213000D03*
X195326000Y-98113000D03*
D19*
X189826000Y-104013000D03*
X200826000Y-104013000D03*
D20*
X190106000Y-108213000D03*
D18*
X195326000Y-98113000D03*
D20*
X200546000Y-108213000D03*
D15*
X192786000Y-98933000D03*
G36*
G01*
X197040639Y-99137682D02*
X197040639Y-99137682D01*
G75*
G02*
X198701320Y-99227621I785371J-875310D01*
G01*
X200011310Y-100687629D01*
G75*
G02*
X199921371Y-102348310I-875310J-785371D01*
G01*
X199921371Y-102348310D01*
G75*
G02*
X198260690Y-102258371I-785371J875310D01*
G01*
X196950700Y-100798363D01*
G75*
G02*
X197040639Y-99137682I875310J785371D01*
G01*
G37*
D18*
X190326000Y-100213000D03*
G36*
G01*
X192706472Y-97759691D02*
X192706472Y-97759691D01*
G75*
G02*
X193959735Y-98852982I79986J-1173277D01*
G01*
X193999277Y-99433014D01*
G75*
G02*
X192905986Y-100686277I-1173277J-79986D01*
G01*
X192905986Y-100686277D01*
G75*
G02*
X191652723Y-99592986I-79986J1173277D01*
G01*
X191613181Y-99012954D01*
G75*
G02*
X192706472Y-97759691I1173277J79986D01*
G01*
G37*
D15*
X197826000Y-100013000D03*
G36*
G01*
X216796014Y-100686277D02*
X216796014Y-100686277D01*
G75*
G02*
X215702723Y-99433014I79986J1173277D01*
G01*
X215742265Y-98852982D01*
G75*
G02*
X216995528Y-97759691I1173277J-79986D01*
G01*
X216995528Y-97759691D01*
G75*
G02*
X218088819Y-99012954I-79986J-1173277D01*
G01*
X218049277Y-99592986D01*
G75*
G02*
X216796014Y-100686277I-1173277J79986D01*
G01*
G37*
X216916000Y-98933000D03*
G36*
G01*
X209780629Y-102348310D02*
X209780629Y-102348310D01*
G75*
G02*
X209690690Y-100687629I785371J875310D01*
G01*
X211000680Y-99227621D01*
G75*
G02*
X212661361Y-99137682I875310J-785371D01*
G01*
X212661361Y-99137682D01*
G75*
G02*
X212751300Y-100798363I-785371J-875310D01*
G01*
X211441310Y-102258371D01*
G75*
G02*
X209780629Y-102348310I-875310J785371D01*
G01*
G37*
D16*
X214376000Y-104013000D03*
D15*
X211876000Y-100013000D03*
D17*
X209296000Y-104013000D03*
X219456000Y-104013000D03*
D18*
X219376000Y-100213000D03*
X214376000Y-98113000D03*
D19*
X208876000Y-104013000D03*
X219876000Y-104013000D03*
D20*
X209156000Y-108213000D03*
D18*
X214376000Y-98113000D03*
D20*
X219596000Y-108213000D03*
D15*
X211836000Y-98933000D03*
G36*
G01*
X216090639Y-99137682D02*
X216090639Y-99137682D01*
G75*
G02*
X217751320Y-99227621I785371J-875310D01*
G01*
X219061310Y-100687629D01*
G75*
G02*
X218971371Y-102348310I-875310J-785371D01*
G01*
X218971371Y-102348310D01*
G75*
G02*
X217310690Y-102258371I-785371J875310D01*
G01*
X216000700Y-100798363D01*
G75*
G02*
X216090639Y-99137682I875310J785371D01*
G01*
G37*
D18*
X209376000Y-100213000D03*
G36*
G01*
X211756472Y-97759691D02*
X211756472Y-97759691D01*
G75*
G02*
X213009735Y-98852982I79986J-1173277D01*
G01*
X213049277Y-99433014D01*
G75*
G02*
X211955986Y-100686277I-1173277J-79986D01*
G01*
X211955986Y-100686277D01*
G75*
G02*
X210702723Y-99592986I-79986J1173277D01*
G01*
X210663181Y-99012954D01*
G75*
G02*
X211756472Y-97759691I1173277J79986D01*
G01*
G37*
D15*
X216876000Y-100013000D03*
G36*
G01*
X235846014Y-100686277D02*
X235846014Y-100686277D01*
G75*
G02*
X234752723Y-99433014I79986J1173277D01*
G01*
X234792265Y-98852982D01*
G75*
G02*
X236045528Y-97759691I1173277J-79986D01*
G01*
X236045528Y-97759691D01*
G75*
G02*
X237138819Y-99012954I-79986J-1173277D01*
G01*
X237099277Y-99592986D01*
G75*
G02*
X235846014Y-100686277I-1173277J79986D01*
G01*
G37*
X235966000Y-98933000D03*
G36*
G01*
X228830629Y-102348310D02*
X228830629Y-102348310D01*
G75*
G02*
X228740690Y-100687629I785371J875310D01*
G01*
X230050680Y-99227621D01*
G75*
G02*
X231711361Y-99137682I875310J-785371D01*
G01*
X231711361Y-99137682D01*
G75*
G02*
X231801300Y-100798363I-785371J-875310D01*
G01*
X230491310Y-102258371D01*
G75*
G02*
X228830629Y-102348310I-875310J785371D01*
G01*
G37*
D16*
X233426000Y-104013000D03*
D15*
X230926000Y-100013000D03*
D17*
X228346000Y-104013000D03*
X238506000Y-104013000D03*
D18*
X238426000Y-100213000D03*
X233426000Y-98113000D03*
D19*
X227926000Y-104013000D03*
X238926000Y-104013000D03*
D20*
X228206000Y-108213000D03*
D18*
X233426000Y-98113000D03*
D20*
X238646000Y-108213000D03*
D15*
X230886000Y-98933000D03*
G36*
G01*
X235140639Y-99137682D02*
X235140639Y-99137682D01*
G75*
G02*
X236801320Y-99227621I785371J-875310D01*
G01*
X238111310Y-100687629D01*
G75*
G02*
X238021371Y-102348310I-875310J-785371D01*
G01*
X238021371Y-102348310D01*
G75*
G02*
X236360690Y-102258371I-785371J875310D01*
G01*
X235050700Y-100798363D01*
G75*
G02*
X235140639Y-99137682I875310J785371D01*
G01*
G37*
D18*
X228426000Y-100213000D03*
G36*
G01*
X230806472Y-97759691D02*
X230806472Y-97759691D01*
G75*
G02*
X232059735Y-98852982I79986J-1173277D01*
G01*
X232099277Y-99433014D01*
G75*
G02*
X231005986Y-100686277I-1173277J-79986D01*
G01*
X231005986Y-100686277D01*
G75*
G02*
X229752723Y-99592986I-79986J1173277D01*
G01*
X229713181Y-99012954D01*
G75*
G02*
X230806472Y-97759691I1173277J79986D01*
G01*
G37*
D15*
X235926000Y-100013000D03*
G36*
G01*
X240672014Y-119736277D02*
X240672014Y-119736277D01*
G75*
G02*
X239578723Y-118483014I79986J1173277D01*
G01*
X239618265Y-117902982D01*
G75*
G02*
X240871528Y-116809691I1173277J-79986D01*
G01*
X240871528Y-116809691D01*
G75*
G02*
X241964819Y-118062954I-79986J-1173277D01*
G01*
X241925277Y-118642986D01*
G75*
G02*
X240672014Y-119736277I-1173277J79986D01*
G01*
G37*
X240792000Y-117983000D03*
G36*
G01*
X233656629Y-121398310D02*
X233656629Y-121398310D01*
G75*
G02*
X233566690Y-119737629I785371J875310D01*
G01*
X234876680Y-118277621D01*
G75*
G02*
X236537361Y-118187682I875310J-785371D01*
G01*
X236537361Y-118187682D01*
G75*
G02*
X236627300Y-119848363I-785371J-875310D01*
G01*
X235317310Y-121308371D01*
G75*
G02*
X233656629Y-121398310I-875310J785371D01*
G01*
G37*
D16*
X238252000Y-123063000D03*
D15*
X235752000Y-119063000D03*
D17*
X233172000Y-123063000D03*
X243332000Y-123063000D03*
D18*
X243252000Y-119263000D03*
X238252000Y-117163000D03*
D19*
X232752000Y-123063000D03*
X243752000Y-123063000D03*
D20*
X233032000Y-127263000D03*
D18*
X238252000Y-117163000D03*
D20*
X243472000Y-127263000D03*
D15*
X235712000Y-117983000D03*
G36*
G01*
X239966639Y-118187682D02*
X239966639Y-118187682D01*
G75*
G02*
X241627320Y-118277621I785371J-875310D01*
G01*
X242937310Y-119737629D01*
G75*
G02*
X242847371Y-121398310I-875310J-785371D01*
G01*
X242847371Y-121398310D01*
G75*
G02*
X241186690Y-121308371I-785371J875310D01*
G01*
X239876700Y-119848363D01*
G75*
G02*
X239966639Y-118187682I875310J785371D01*
G01*
G37*
D18*
X233252000Y-119263000D03*
G36*
G01*
X235632472Y-116809691D02*
X235632472Y-116809691D01*
G75*
G02*
X236885735Y-117902982I79986J-1173277D01*
G01*
X236925277Y-118483014D01*
G75*
G02*
X235831986Y-119736277I-1173277J-79986D01*
G01*
X235831986Y-119736277D01*
G75*
G02*
X234578723Y-118642986I-79986J1173277D01*
G01*
X234539181Y-118062954D01*
G75*
G02*
X235632472Y-116809691I1173277J79986D01*
G01*
G37*
D15*
X240752000Y-119063000D03*
G36*
G01*
X231498000Y-110860000D02*
X233598000Y-110860000D01*
G75*
G02*
X233649000Y-110911000I0J-51000D01*
G01*
X233649000Y-111711000D01*
G75*
G02*
X233598000Y-111762000I-51000J0D01*
G01*
X231498000Y-111762000D01*
G75*
G02*
X231447000Y-111711000I0J51000D01*
G01*
X231447000Y-110911000D01*
G75*
G02*
X231498000Y-110860000I51000J0D01*
G01*
G37*
G36*
G01*
X232998000Y-115060000D02*
X235098000Y-115060000D01*
G75*
G02*
X235149000Y-115111000I0J-51000D01*
G01*
X235149000Y-115911000D01*
G75*
G02*
X235098000Y-115962000I-51000J0D01*
G01*
X232998000Y-115962000D01*
G75*
G02*
X232947000Y-115911000I0J51000D01*
G01*
X232947000Y-115111000D01*
G75*
G02*
X232998000Y-115060000I51000J0D01*
G01*
G37*
G36*
G01*
X236998000Y-115060000D02*
X239098000Y-115060000D01*
G75*
G02*
X239149000Y-115111000I0J-51000D01*
G01*
X239149000Y-115911000D01*
G75*
G02*
X239098000Y-115962000I-51000J0D01*
G01*
X236998000Y-115962000D01*
G75*
G02*
X236947000Y-115911000I0J51000D01*
G01*
X236947000Y-115111000D01*
G75*
G02*
X236998000Y-115060000I51000J0D01*
G01*
G37*
G36*
G01*
X239998000Y-115060000D02*
X242098000Y-115060000D01*
G75*
G02*
X242149000Y-115111000I0J-51000D01*
G01*
X242149000Y-115911000D01*
G75*
G02*
X242098000Y-115962000I-51000J0D01*
G01*
X239998000Y-115962000D01*
G75*
G02*
X239947000Y-115911000I0J51000D01*
G01*
X239947000Y-115111000D01*
G75*
G02*
X239998000Y-115060000I51000J0D01*
G01*
G37*
D20*
X235848000Y-113411000D03*
X242848000Y-113411000D03*
G36*
G01*
X236998000Y-109110000D02*
X239098000Y-109110000D01*
G75*
G02*
X239149000Y-109161000I0J-51000D01*
G01*
X239149000Y-109961000D01*
G75*
G02*
X239098000Y-110012000I-51000J0D01*
G01*
X236998000Y-110012000D01*
G75*
G02*
X236947000Y-109961000I0J51000D01*
G01*
X236947000Y-109161000D01*
G75*
G02*
X236998000Y-109110000I51000J0D01*
G01*
G37*
G36*
G01*
X239998000Y-109110000D02*
X242098000Y-109110000D01*
G75*
G02*
X242149000Y-109161000I0J-51000D01*
G01*
X242149000Y-109961000D01*
G75*
G02*
X242098000Y-110012000I-51000J0D01*
G01*
X239998000Y-110012000D01*
G75*
G02*
X239947000Y-109961000I0J51000D01*
G01*
X239947000Y-109161000D01*
G75*
G02*
X239998000Y-109110000I51000J0D01*
G01*
G37*
G36*
G01*
X231498000Y-113310000D02*
X233598000Y-113310000D01*
G75*
G02*
X233649000Y-113361000I0J-51000D01*
G01*
X233649000Y-114161000D01*
G75*
G02*
X233598000Y-114212000I-51000J0D01*
G01*
X231498000Y-114212000D01*
G75*
G02*
X231447000Y-114161000I0J51000D01*
G01*
X231447000Y-113361000D01*
G75*
G02*
X231498000Y-113310000I51000J0D01*
G01*
G37*
G36*
G01*
X232998000Y-109110000D02*
X235098000Y-109110000D01*
G75*
G02*
X235149000Y-109161000I0J-51000D01*
G01*
X235149000Y-109961000D01*
G75*
G02*
X235098000Y-110012000I-51000J0D01*
G01*
X232998000Y-110012000D01*
G75*
G02*
X232947000Y-109961000I0J51000D01*
G01*
X232947000Y-109161000D01*
G75*
G02*
X232998000Y-109110000I51000J0D01*
G01*
G37*
X242848000Y-111661000D03*
X235848000Y-111661000D03*
M02*
