%FSLAX45Y45*%
G04 Gerber Fmt 4.5, Leading zero omitted, Abs format (unit mm)*
G04 Created by KiCad (PCBNEW (5.1.4)-1) date 2020-11-17 13:54:00*
%MOMM*%
%LPD*%
G04 APERTURE LIST*
%ADD10C,0.200000*%
%ADD11C,0.300000*%
G04 APERTURE END LIST*
D10*
X2488767Y-10193455D02*
G75*
G02X2788498Y-9893165I300000J290D01*
G01*
X4869685Y-9891303D02*
X2788498Y-9893165D01*
X14651331Y-11582559D02*
G75*
G02X14351600Y-11882827I-300000J-268D01*
G01*
X2790389Y-11893169D02*
X14351600Y-11882827D01*
X2790389Y-11893169D02*
G75*
G02X2490121Y-11593459I-268J300000D01*
G01*
X2488767Y-10193455D02*
X2490121Y-11593459D01*
X4866120Y-5905126D02*
X4869685Y-9891303D01*
X4866120Y-5905126D02*
G75*
G02X5165853Y-5604858I300000J268D01*
G01*
X14345979Y-5596699D02*
G75*
G02X14646245Y-5896431I267J-300000D01*
G01*
X5165853Y-5604858D02*
X14345978Y-5596699D01*
X14646245Y-5896431D02*
G75*
G02X14945975Y-5596162I300000J268D01*
G01*
X24126100Y-5587897D02*
G75*
G02X24426370Y-5887629I270J-300000D01*
G01*
X26511123Y-9871944D02*
G75*
G02X26811392Y-10171697I268J-300000D01*
G01*
X24429936Y-9873806D02*
X26511123Y-9871944D01*
X26812543Y-11571702D02*
G75*
G02X26512811Y-11871948I-300000J-247D01*
G01*
X14951600Y-11882290D02*
G75*
G02X14651331Y-11582559I-268J300000D01*
G01*
X26512811Y-11871948D02*
X14951600Y-11882290D01*
X26811392Y-10171697D02*
X26812543Y-11571702D01*
X24426370Y-5887629D02*
X24429936Y-9873806D01*
X24126100Y-5587897D02*
X14945975Y-5596162D01*
D10*
X4481200Y-10013300D02*
X4561200Y-10093300D01*
X4561200Y-10013300D02*
X4481200Y-10093300D01*
X4481200Y-10713300D02*
X4561200Y-10793300D01*
X4561200Y-10713300D02*
X4481200Y-10793300D01*
X24763100Y-10013300D02*
X24843100Y-10093300D01*
X24843100Y-10013300D02*
X24763100Y-10093300D01*
X24763100Y-10713300D02*
X24843100Y-10793300D01*
X24843100Y-10713300D02*
X24763100Y-10793300D01*
X7440800Y-8509000D02*
G75*
G03X7440800Y-8509000I-87500J0D01*
G01*
X8456800Y-8509000D02*
G75*
G03X8456800Y-8509000I-87500J0D01*
G01*
X11238100Y-8509000D02*
G75*
G03X11238100Y-8509000I-87500J0D01*
G01*
X12254100Y-8509000D02*
G75*
G03X12254100Y-8509000I-87500J0D01*
G01*
X11250800Y-10414000D02*
G75*
G03X11250800Y-10414000I-87500J0D01*
G01*
X12266800Y-10414000D02*
G75*
G03X12266800Y-10414000I-87500J0D01*
G01*
X19112100Y-10401300D02*
G75*
G03X19112100Y-10401300I-87500J0D01*
G01*
X20128100Y-10401300D02*
G75*
G03X20128100Y-10401300I-87500J0D01*
G01*
X13143100Y-6604000D02*
G75*
G03X13143100Y-6604000I-87500J0D01*
G01*
X14159100Y-6604000D02*
G75*
G03X14159100Y-6604000I-87500J0D01*
G01*
X25309700Y-10871200D02*
G75*
G03X25309700Y-10871200I-87500J0D01*
G01*
X26325700Y-10871200D02*
G75*
G03X26325700Y-10871200I-87500J0D01*
G01*
X17219800Y-8496300D02*
G75*
G03X17219800Y-8496300I-87500J0D01*
G01*
X18235800Y-8496300D02*
G75*
G03X18235800Y-8496300I-87500J0D01*
G01*
X17219800Y-10401300D02*
G75*
G03X17219800Y-10401300I-87500J0D01*
G01*
X18235800Y-10401300D02*
G75*
G03X18235800Y-10401300I-87500J0D01*
G01*
X7428100Y-10414000D02*
G75*
G03X7428100Y-10414000I-87500J0D01*
G01*
X8444100Y-10414000D02*
G75*
G03X8444100Y-10414000I-87500J0D01*
G01*
X5523100Y-8509000D02*
G75*
G03X5523100Y-8509000I-87500J0D01*
G01*
X6539100Y-8509000D02*
G75*
G03X6539100Y-8509000I-87500J0D01*
G01*
X9345800Y-10414000D02*
G75*
G03X9345800Y-10414000I-87500J0D01*
G01*
X10361800Y-10414000D02*
G75*
G03X10361800Y-10414000I-87500J0D01*
G01*
X5523100Y-10414000D02*
G75*
G03X5523100Y-10414000I-87500J0D01*
G01*
X6539100Y-10414000D02*
G75*
G03X6539100Y-10414000I-87500J0D01*
G01*
X15314800Y-6591300D02*
G75*
G03X15314800Y-6591300I-87500J0D01*
G01*
X16330800Y-6591300D02*
G75*
G03X16330800Y-6591300I-87500J0D01*
G01*
X15314800Y-8496300D02*
G75*
G03X15314800Y-8496300I-87500J0D01*
G01*
X16330800Y-8496300D02*
G75*
G03X16330800Y-8496300I-87500J0D01*
G01*
X22922100Y-8496300D02*
G75*
G03X22922100Y-8496300I-87500J0D01*
G01*
X23938100Y-8496300D02*
G75*
G03X23938100Y-8496300I-87500J0D01*
G01*
X22922100Y-6591300D02*
G75*
G03X22922100Y-6591300I-87500J0D01*
G01*
X23938100Y-6591300D02*
G75*
G03X23938100Y-6591300I-87500J0D01*
G01*
X15314800Y-10401300D02*
G75*
G03X15314800Y-10401300I-87500J0D01*
G01*
X16330800Y-10401300D02*
G75*
G03X16330800Y-10401300I-87500J0D01*
G01*
X22934800Y-10401300D02*
G75*
G03X22934800Y-10401300I-87500J0D01*
G01*
X23950800Y-10401300D02*
G75*
G03X23950800Y-10401300I-87500J0D01*
G01*
X19112100Y-6591300D02*
G75*
G03X19112100Y-6591300I-87500J0D01*
G01*
X20128100Y-6591300D02*
G75*
G03X20128100Y-6591300I-87500J0D01*
G01*
X11238100Y-6604000D02*
G75*
G03X11238100Y-6604000I-87500J0D01*
G01*
X12254100Y-6604000D02*
G75*
G03X12254100Y-6604000I-87500J0D01*
G01*
X13155800Y-10414000D02*
G75*
G03X13155800Y-10414000I-87500J0D01*
G01*
X14171800Y-10414000D02*
G75*
G03X14171800Y-10414000I-87500J0D01*
G01*
X9345800Y-8509000D02*
G75*
G03X9345800Y-8509000I-87500J0D01*
G01*
X10361800Y-8509000D02*
G75*
G03X10361800Y-8509000I-87500J0D01*
G01*
X3148200Y-10896600D02*
G75*
G03X3148200Y-10896600I-87500J0D01*
G01*
X4164200Y-10896600D02*
G75*
G03X4164200Y-10896600I-87500J0D01*
G01*
X5523100Y-6604000D02*
G75*
G03X5523100Y-6604000I-87500J0D01*
G01*
X6539100Y-6604000D02*
G75*
G03X6539100Y-6604000I-87500J0D01*
G01*
X21017100Y-8496300D02*
G75*
G03X21017100Y-8496300I-87500J0D01*
G01*
X22033100Y-8496300D02*
G75*
G03X22033100Y-8496300I-87500J0D01*
G01*
X17207100Y-6591300D02*
G75*
G03X17207100Y-6591300I-87500J0D01*
G01*
X18223100Y-6591300D02*
G75*
G03X18223100Y-6591300I-87500J0D01*
G01*
X19112100Y-8496300D02*
G75*
G03X19112100Y-8496300I-87500J0D01*
G01*
X20128100Y-8496300D02*
G75*
G03X20128100Y-8496300I-87500J0D01*
G01*
X21017100Y-10401300D02*
G75*
G03X21017100Y-10401300I-87500J0D01*
G01*
X22033100Y-10401300D02*
G75*
G03X22033100Y-10401300I-87500J0D01*
G01*
X21017100Y-6591300D02*
G75*
G03X21017100Y-6591300I-87500J0D01*
G01*
X22033100Y-6591300D02*
G75*
G03X22033100Y-6591300I-87500J0D01*
G01*
X9333100Y-6604000D02*
G75*
G03X9333100Y-6604000I-87500J0D01*
G01*
X10349100Y-6604000D02*
G75*
G03X10349100Y-6604000I-87500J0D01*
G01*
X13143100Y-8509000D02*
G75*
G03X13143100Y-8509000I-87500J0D01*
G01*
X14159100Y-8509000D02*
G75*
G03X14159100Y-8509000I-87500J0D01*
G01*
X7428100Y-6604000D02*
G75*
G03X7428100Y-6604000I-87500J0D01*
G01*
X8444100Y-6604000D02*
G75*
G03X8444100Y-6604000I-87500J0D01*
G01*
X3568700Y-10697210D02*
X3568700Y-11095990D01*
X3369310Y-10896600D02*
X3768090Y-10896600D01*
X5943600Y-6404610D02*
X5943600Y-6803390D01*
X5744210Y-6604000D02*
X6142990Y-6604000D01*
X21437600Y-8296910D02*
X21437600Y-8695690D01*
X21238210Y-8496300D02*
X21636990Y-8496300D01*
X17627600Y-6391910D02*
X17627600Y-6790690D01*
X17428210Y-6591300D02*
X17826990Y-6591300D01*
X19532600Y-8296910D02*
X19532600Y-8695690D01*
X19333210Y-8496300D02*
X19731990Y-8496300D01*
X21437600Y-10201910D02*
X21437600Y-10600690D01*
X21238210Y-10401300D02*
X21636990Y-10401300D01*
X21437600Y-6391910D02*
X21437600Y-6790690D01*
X21238210Y-6591300D02*
X21636990Y-6591300D01*
X9753600Y-6404610D02*
X9753600Y-6803390D01*
X9554210Y-6604000D02*
X9952990Y-6604000D01*
X13563600Y-8309610D02*
X13563600Y-8708390D01*
X13364210Y-8509000D02*
X13762990Y-8509000D01*
X7848600Y-6404610D02*
X7848600Y-6803390D01*
X7649210Y-6604000D02*
X8047990Y-6604000D01*
X7861300Y-8309610D02*
X7861300Y-8708390D01*
X7661910Y-8509000D02*
X8060690Y-8509000D01*
X11658600Y-8309610D02*
X11658600Y-8708390D01*
X11459210Y-8509000D02*
X11857990Y-8509000D01*
X11671300Y-10214610D02*
X11671300Y-10613390D01*
X11471910Y-10414000D02*
X11870690Y-10414000D01*
X19532600Y-10201910D02*
X19532600Y-10600690D01*
X19333210Y-10401300D02*
X19731990Y-10401300D01*
X13563600Y-6404610D02*
X13563600Y-6803390D01*
X13364210Y-6604000D02*
X13762990Y-6604000D01*
X25730200Y-10671810D02*
X25730200Y-11070590D01*
X25530810Y-10871200D02*
X25929590Y-10871200D01*
X17640300Y-8296910D02*
X17640300Y-8695690D01*
X17440910Y-8496300D02*
X17839690Y-8496300D01*
X17640300Y-10201910D02*
X17640300Y-10600690D01*
X17440910Y-10401300D02*
X17839690Y-10401300D01*
X7848600Y-10214610D02*
X7848600Y-10613390D01*
X7649210Y-10414000D02*
X8047990Y-10414000D01*
X5943600Y-8309610D02*
X5943600Y-8708390D01*
X5744210Y-8509000D02*
X6142990Y-8509000D01*
X9766300Y-10214610D02*
X9766300Y-10613390D01*
X9566910Y-10414000D02*
X9965690Y-10414000D01*
X5943600Y-10214610D02*
X5943600Y-10613390D01*
X5744210Y-10414000D02*
X6142990Y-10414000D01*
X15735300Y-6391910D02*
X15735300Y-6790690D01*
X15535910Y-6591300D02*
X15934690Y-6591300D01*
X15735300Y-8296910D02*
X15735300Y-8695690D01*
X15535910Y-8496300D02*
X15934690Y-8496300D01*
X23342600Y-8296910D02*
X23342600Y-8695690D01*
X23143210Y-8496300D02*
X23541990Y-8496300D01*
X23342600Y-6391910D02*
X23342600Y-6790690D01*
X23143210Y-6591300D02*
X23541990Y-6591300D01*
X15735300Y-10201910D02*
X15735300Y-10600690D01*
X15535910Y-10401300D02*
X15934690Y-10401300D01*
X23355300Y-10201910D02*
X23355300Y-10600690D01*
X23155910Y-10401300D02*
X23554690Y-10401300D01*
X19532600Y-6391910D02*
X19532600Y-6790690D01*
X19333210Y-6591300D02*
X19731990Y-6591300D01*
X11658600Y-6404610D02*
X11658600Y-6803390D01*
X11459210Y-6604000D02*
X11857990Y-6604000D01*
X13576300Y-10214610D02*
X13576300Y-10613390D01*
X13376910Y-10414000D02*
X13775690Y-10414000D01*
X9766300Y-8309610D02*
X9766300Y-8708390D01*
X9566910Y-8509000D02*
X9965690Y-8509000D01*
D11*
X2765195Y-12368883D02*
X2765195Y-12068883D01*
X2836624Y-12068883D01*
X2879481Y-12083169D01*
X2908052Y-12111740D01*
X2922338Y-12140312D01*
X2936624Y-12197455D01*
X2936624Y-12240312D01*
X2922338Y-12297455D01*
X2908052Y-12326026D01*
X2879481Y-12354597D01*
X2836624Y-12368883D01*
X2765195Y-12368883D01*
X3065195Y-12368883D02*
X3065195Y-12168883D01*
X3065195Y-12226026D02*
X3079481Y-12197455D01*
X3093766Y-12183169D01*
X3122338Y-12168883D01*
X3150909Y-12168883D01*
X3250909Y-12368883D02*
X3250909Y-12168883D01*
X3250909Y-12068883D02*
X3236624Y-12083169D01*
X3250909Y-12097455D01*
X3265195Y-12083169D01*
X3250909Y-12068883D01*
X3250909Y-12097455D01*
X3436624Y-12368883D02*
X3408052Y-12354597D01*
X3393766Y-12326026D01*
X3393766Y-12068883D01*
X3593766Y-12368883D02*
X3565195Y-12354597D01*
X3550909Y-12326026D01*
X3550909Y-12068883D01*
X3936624Y-12368883D02*
X3936624Y-12068883D01*
X4036624Y-12283169D01*
X4136624Y-12068883D01*
X4136624Y-12368883D01*
X4408052Y-12368883D02*
X4408052Y-12211740D01*
X4393767Y-12183169D01*
X4365195Y-12168883D01*
X4308052Y-12168883D01*
X4279481Y-12183169D01*
X4408052Y-12354597D02*
X4379481Y-12368883D01*
X4308052Y-12368883D01*
X4279481Y-12354597D01*
X4265195Y-12326026D01*
X4265195Y-12297455D01*
X4279481Y-12268883D01*
X4308052Y-12254597D01*
X4379481Y-12254597D01*
X4408052Y-12240312D01*
X4550909Y-12168883D02*
X4550909Y-12468883D01*
X4550909Y-12183169D02*
X4579481Y-12168883D01*
X4636624Y-12168883D01*
X4665195Y-12183169D01*
X4679481Y-12197455D01*
X4693767Y-12226026D01*
X4693767Y-12311740D01*
X4679481Y-12340312D01*
X4665195Y-12354597D01*
X4636624Y-12368883D01*
X4579481Y-12368883D01*
X4550909Y-12354597D01*
X4822338Y-12340312D02*
X4836624Y-12354597D01*
X4822338Y-12368883D01*
X4808052Y-12354597D01*
X4822338Y-12340312D01*
X4822338Y-12368883D01*
X4822338Y-12183169D02*
X4836624Y-12197455D01*
X4822338Y-12211740D01*
X4808052Y-12197455D01*
X4822338Y-12183169D01*
X4822338Y-12211740D01*
X2398767Y-12823169D02*
X2478767Y-12903169D01*
X2478767Y-12823169D02*
X2398767Y-12903169D01*
X2822338Y-12698883D02*
X2850909Y-12698883D01*
X2879481Y-12713169D01*
X2893766Y-12727455D01*
X2908052Y-12756026D01*
X2922338Y-12813169D01*
X2922338Y-12884597D01*
X2908052Y-12941740D01*
X2893766Y-12970312D01*
X2879481Y-12984597D01*
X2850909Y-12998883D01*
X2822338Y-12998883D01*
X2793767Y-12984597D01*
X2779481Y-12970312D01*
X2765195Y-12941740D01*
X2750909Y-12884597D01*
X2750909Y-12813169D01*
X2765195Y-12756026D01*
X2779481Y-12727455D01*
X2793767Y-12713169D01*
X2822338Y-12698883D01*
X3050909Y-12970312D02*
X3065195Y-12984597D01*
X3050909Y-12998883D01*
X3036624Y-12984597D01*
X3050909Y-12970312D01*
X3050909Y-12998883D01*
X3236624Y-12827455D02*
X3208052Y-12813169D01*
X3193766Y-12798883D01*
X3179481Y-12770312D01*
X3179481Y-12756026D01*
X3193766Y-12727455D01*
X3208052Y-12713169D01*
X3236624Y-12698883D01*
X3293766Y-12698883D01*
X3322338Y-12713169D01*
X3336624Y-12727455D01*
X3350909Y-12756026D01*
X3350909Y-12770312D01*
X3336624Y-12798883D01*
X3322338Y-12813169D01*
X3293766Y-12827455D01*
X3236624Y-12827455D01*
X3208052Y-12841740D01*
X3193766Y-12856026D01*
X3179481Y-12884597D01*
X3179481Y-12941740D01*
X3193766Y-12970312D01*
X3208052Y-12984597D01*
X3236624Y-12998883D01*
X3293766Y-12998883D01*
X3322338Y-12984597D01*
X3336624Y-12970312D01*
X3350909Y-12941740D01*
X3350909Y-12884597D01*
X3336624Y-12856026D01*
X3322338Y-12841740D01*
X3293766Y-12827455D01*
X3536624Y-12698883D02*
X3565195Y-12698883D01*
X3593766Y-12713169D01*
X3608052Y-12727455D01*
X3622338Y-12756026D01*
X3636624Y-12813169D01*
X3636624Y-12884597D01*
X3622338Y-12941740D01*
X3608052Y-12970312D01*
X3593766Y-12984597D01*
X3565195Y-12998883D01*
X3536624Y-12998883D01*
X3508052Y-12984597D01*
X3493766Y-12970312D01*
X3479481Y-12941740D01*
X3465195Y-12884597D01*
X3465195Y-12813169D01*
X3479481Y-12756026D01*
X3493766Y-12727455D01*
X3508052Y-12713169D01*
X3536624Y-12698883D01*
X3765195Y-12998883D02*
X3765195Y-12798883D01*
X3765195Y-12827455D02*
X3779481Y-12813169D01*
X3808052Y-12798883D01*
X3850909Y-12798883D01*
X3879481Y-12813169D01*
X3893766Y-12841740D01*
X3893766Y-12998883D01*
X3893766Y-12841740D02*
X3908052Y-12813169D01*
X3936624Y-12798883D01*
X3979481Y-12798883D01*
X4008052Y-12813169D01*
X4022338Y-12841740D01*
X4022338Y-12998883D01*
X4165195Y-12998883D02*
X4165195Y-12798883D01*
X4165195Y-12827455D02*
X4179481Y-12813169D01*
X4208052Y-12798883D01*
X4250909Y-12798883D01*
X4279481Y-12813169D01*
X4293767Y-12841740D01*
X4293767Y-12998883D01*
X4293767Y-12841740D02*
X4308052Y-12813169D01*
X4336624Y-12798883D01*
X4379481Y-12798883D01*
X4408052Y-12813169D01*
X4422338Y-12841740D01*
X4422338Y-12998883D01*
X5008052Y-12684597D02*
X4750909Y-13070312D01*
X5393767Y-12698883D02*
X5422338Y-12698883D01*
X5450909Y-12713169D01*
X5465195Y-12727455D01*
X5479481Y-12756026D01*
X5493766Y-12813169D01*
X5493766Y-12884597D01*
X5479481Y-12941740D01*
X5465195Y-12970312D01*
X5450909Y-12984597D01*
X5422338Y-12998883D01*
X5393767Y-12998883D01*
X5365195Y-12984597D01*
X5350909Y-12970312D01*
X5336624Y-12941740D01*
X5322338Y-12884597D01*
X5322338Y-12813169D01*
X5336624Y-12756026D01*
X5350909Y-12727455D01*
X5365195Y-12713169D01*
X5393767Y-12698883D01*
X5622338Y-12970312D02*
X5636624Y-12984597D01*
X5622338Y-12998883D01*
X5608052Y-12984597D01*
X5622338Y-12970312D01*
X5622338Y-12998883D01*
X5822338Y-12698883D02*
X5850909Y-12698883D01*
X5879481Y-12713169D01*
X5893766Y-12727455D01*
X5908052Y-12756026D01*
X5922338Y-12813169D01*
X5922338Y-12884597D01*
X5908052Y-12941740D01*
X5893766Y-12970312D01*
X5879481Y-12984597D01*
X5850909Y-12998883D01*
X5822338Y-12998883D01*
X5793766Y-12984597D01*
X5779481Y-12970312D01*
X5765195Y-12941740D01*
X5750909Y-12884597D01*
X5750909Y-12813169D01*
X5765195Y-12756026D01*
X5779481Y-12727455D01*
X5793766Y-12713169D01*
X5822338Y-12698883D01*
X6022338Y-12698883D02*
X6208052Y-12698883D01*
X6108052Y-12813169D01*
X6150909Y-12813169D01*
X6179481Y-12827455D01*
X6193766Y-12841740D01*
X6208052Y-12870312D01*
X6208052Y-12941740D01*
X6193766Y-12970312D01*
X6179481Y-12984597D01*
X6150909Y-12998883D01*
X6065195Y-12998883D01*
X6036624Y-12984597D01*
X6022338Y-12970312D01*
X6493766Y-12998883D02*
X6322338Y-12998883D01*
X6408052Y-12998883D02*
X6408052Y-12698883D01*
X6379481Y-12741740D01*
X6350909Y-12770312D01*
X6322338Y-12784597D01*
X6608052Y-12698883D02*
X6608052Y-12756026D01*
X6722338Y-12698883D02*
X6722338Y-12756026D01*
X7165195Y-13113169D02*
X7150909Y-13098883D01*
X7122338Y-13056026D01*
X7108052Y-13027455D01*
X7093766Y-12984597D01*
X7079481Y-12913169D01*
X7079481Y-12856026D01*
X7093766Y-12784597D01*
X7108052Y-12741740D01*
X7122338Y-12713169D01*
X7150909Y-12670312D01*
X7165195Y-12656026D01*
X7408052Y-12798883D02*
X7408052Y-12998883D01*
X7336624Y-12684597D02*
X7265195Y-12898883D01*
X7450909Y-12898883D01*
X7793766Y-12998883D02*
X7793766Y-12698883D01*
X7922338Y-12998883D02*
X7922338Y-12841740D01*
X7908052Y-12813169D01*
X7879481Y-12798883D01*
X7836624Y-12798883D01*
X7808052Y-12813169D01*
X7793766Y-12827455D01*
X8108052Y-12998883D02*
X8079481Y-12984597D01*
X8065195Y-12970312D01*
X8050909Y-12941740D01*
X8050909Y-12856026D01*
X8065195Y-12827455D01*
X8079481Y-12813169D01*
X8108052Y-12798883D01*
X8150909Y-12798883D01*
X8179481Y-12813169D01*
X8193766Y-12827455D01*
X8208052Y-12856026D01*
X8208052Y-12941740D01*
X8193766Y-12970312D01*
X8179481Y-12984597D01*
X8150909Y-12998883D01*
X8108052Y-12998883D01*
X8379481Y-12998883D02*
X8350909Y-12984597D01*
X8336624Y-12956026D01*
X8336624Y-12698883D01*
X8608052Y-12984597D02*
X8579481Y-12998883D01*
X8522338Y-12998883D01*
X8493767Y-12984597D01*
X8479481Y-12956026D01*
X8479481Y-12841740D01*
X8493767Y-12813169D01*
X8522338Y-12798883D01*
X8579481Y-12798883D01*
X8608052Y-12813169D01*
X8622338Y-12841740D01*
X8622338Y-12870312D01*
X8479481Y-12898883D01*
X8736624Y-12984597D02*
X8765195Y-12998883D01*
X8822338Y-12998883D01*
X8850909Y-12984597D01*
X8865195Y-12956026D01*
X8865195Y-12941740D01*
X8850909Y-12913169D01*
X8822338Y-12898883D01*
X8779481Y-12898883D01*
X8750909Y-12884597D01*
X8736624Y-12856026D01*
X8736624Y-12841740D01*
X8750909Y-12813169D01*
X8779481Y-12798883D01*
X8822338Y-12798883D01*
X8850909Y-12813169D01*
X8965195Y-13113169D02*
X8979481Y-13098883D01*
X9008052Y-13056026D01*
X9022338Y-13027455D01*
X9036624Y-12984597D01*
X9050909Y-12913169D01*
X9050909Y-12856026D01*
X9036624Y-12784597D01*
X9022338Y-12741740D01*
X9008052Y-12713169D01*
X8979481Y-12670312D01*
X8965195Y-12656026D01*
X9508052Y-13113169D02*
X9493767Y-13098883D01*
X9465195Y-13056026D01*
X9450909Y-13027455D01*
X9436624Y-12984597D01*
X9422338Y-12913169D01*
X9422338Y-12856026D01*
X9436624Y-12784597D01*
X9450909Y-12741740D01*
X9465195Y-12713169D01*
X9493767Y-12670312D01*
X9508052Y-12656026D01*
X9622338Y-12798883D02*
X9622338Y-12998883D01*
X9622338Y-12827455D02*
X9636624Y-12813169D01*
X9665195Y-12798883D01*
X9708052Y-12798883D01*
X9736624Y-12813169D01*
X9750909Y-12841740D01*
X9750909Y-12998883D01*
X9936624Y-12998883D02*
X9908052Y-12984597D01*
X9893767Y-12970312D01*
X9879481Y-12941740D01*
X9879481Y-12856026D01*
X9893767Y-12827455D01*
X9908052Y-12813169D01*
X9936624Y-12798883D01*
X9979481Y-12798883D01*
X10008052Y-12813169D01*
X10022338Y-12827455D01*
X10036624Y-12856026D01*
X10036624Y-12941740D01*
X10022338Y-12970312D01*
X10008052Y-12984597D01*
X9979481Y-12998883D01*
X9936624Y-12998883D01*
X10122338Y-12798883D02*
X10236624Y-12798883D01*
X10165195Y-12698883D02*
X10165195Y-12956026D01*
X10179481Y-12984597D01*
X10208052Y-12998883D01*
X10236624Y-12998883D01*
X10565195Y-12798883D02*
X10565195Y-13098883D01*
X10565195Y-12813169D02*
X10593767Y-12798883D01*
X10650909Y-12798883D01*
X10679481Y-12813169D01*
X10693767Y-12827455D01*
X10708052Y-12856026D01*
X10708052Y-12941740D01*
X10693767Y-12970312D01*
X10679481Y-12984597D01*
X10650909Y-12998883D01*
X10593767Y-12998883D01*
X10565195Y-12984597D01*
X10879481Y-12998883D02*
X10850909Y-12984597D01*
X10836624Y-12956026D01*
X10836624Y-12698883D01*
X11122338Y-12998883D02*
X11122338Y-12841740D01*
X11108052Y-12813169D01*
X11079481Y-12798883D01*
X11022338Y-12798883D01*
X10993767Y-12813169D01*
X11122338Y-12984597D02*
X11093767Y-12998883D01*
X11022338Y-12998883D01*
X10993767Y-12984597D01*
X10979481Y-12956026D01*
X10979481Y-12927455D01*
X10993767Y-12898883D01*
X11022338Y-12884597D01*
X11093767Y-12884597D01*
X11122338Y-12870312D01*
X11222338Y-12798883D02*
X11336624Y-12798883D01*
X11265195Y-12698883D02*
X11265195Y-12956026D01*
X11279481Y-12984597D01*
X11308052Y-12998883D01*
X11336624Y-12998883D01*
X11550909Y-12984597D02*
X11522338Y-12998883D01*
X11465195Y-12998883D01*
X11436624Y-12984597D01*
X11422338Y-12956026D01*
X11422338Y-12841740D01*
X11436624Y-12813169D01*
X11465195Y-12798883D01*
X11522338Y-12798883D01*
X11550909Y-12813169D01*
X11565195Y-12841740D01*
X11565195Y-12870312D01*
X11422338Y-12898883D01*
X11822338Y-12998883D02*
X11822338Y-12698883D01*
X11822338Y-12984597D02*
X11793766Y-12998883D01*
X11736624Y-12998883D01*
X11708052Y-12984597D01*
X11693766Y-12970312D01*
X11679481Y-12941740D01*
X11679481Y-12856026D01*
X11693766Y-12827455D01*
X11708052Y-12813169D01*
X11736624Y-12798883D01*
X11793766Y-12798883D01*
X11822338Y-12813169D01*
X11936624Y-13113169D02*
X11950909Y-13098883D01*
X11979481Y-13056026D01*
X11993766Y-13027455D01*
X12008052Y-12984597D01*
X12022338Y-12913169D01*
X12022338Y-12856026D01*
X12008052Y-12784597D01*
X11993766Y-12741740D01*
X11979481Y-12713169D01*
X11950909Y-12670312D01*
X11936624Y-12656026D01*
X2478767Y-13259169D02*
G75*
G03X2478767Y-13259169I-87500J0D01*
G01*
X2922338Y-13394883D02*
X2750909Y-13394883D01*
X2836624Y-13394883D02*
X2836624Y-13094883D01*
X2808052Y-13137740D01*
X2779481Y-13166312D01*
X2750909Y-13180597D01*
X3050909Y-13366312D02*
X3065195Y-13380597D01*
X3050909Y-13394883D01*
X3036624Y-13380597D01*
X3050909Y-13366312D01*
X3050909Y-13394883D01*
X3165195Y-13094883D02*
X3365195Y-13094883D01*
X3236624Y-13394883D01*
X3622338Y-13094883D02*
X3479481Y-13094883D01*
X3465195Y-13237740D01*
X3479481Y-13223455D01*
X3508052Y-13209169D01*
X3579481Y-13209169D01*
X3608052Y-13223455D01*
X3622338Y-13237740D01*
X3636624Y-13266312D01*
X3636624Y-13337740D01*
X3622338Y-13366312D01*
X3608052Y-13380597D01*
X3579481Y-13394883D01*
X3508052Y-13394883D01*
X3479481Y-13380597D01*
X3465195Y-13366312D01*
X3765195Y-13394883D02*
X3765195Y-13194883D01*
X3765195Y-13223455D02*
X3779481Y-13209169D01*
X3808052Y-13194883D01*
X3850909Y-13194883D01*
X3879481Y-13209169D01*
X3893766Y-13237740D01*
X3893766Y-13394883D01*
X3893766Y-13237740D02*
X3908052Y-13209169D01*
X3936624Y-13194883D01*
X3979481Y-13194883D01*
X4008052Y-13209169D01*
X4022338Y-13237740D01*
X4022338Y-13394883D01*
X4165195Y-13394883D02*
X4165195Y-13194883D01*
X4165195Y-13223455D02*
X4179481Y-13209169D01*
X4208052Y-13194883D01*
X4250909Y-13194883D01*
X4279481Y-13209169D01*
X4293767Y-13237740D01*
X4293767Y-13394883D01*
X4293767Y-13237740D02*
X4308052Y-13209169D01*
X4336624Y-13194883D01*
X4379481Y-13194883D01*
X4408052Y-13209169D01*
X4422338Y-13237740D01*
X4422338Y-13394883D01*
X5008052Y-13080597D02*
X4750909Y-13466312D01*
X5393767Y-13094883D02*
X5422338Y-13094883D01*
X5450909Y-13109169D01*
X5465195Y-13123455D01*
X5479481Y-13152026D01*
X5493766Y-13209169D01*
X5493766Y-13280597D01*
X5479481Y-13337740D01*
X5465195Y-13366312D01*
X5450909Y-13380597D01*
X5422338Y-13394883D01*
X5393767Y-13394883D01*
X5365195Y-13380597D01*
X5350909Y-13366312D01*
X5336624Y-13337740D01*
X5322338Y-13280597D01*
X5322338Y-13209169D01*
X5336624Y-13152026D01*
X5350909Y-13123455D01*
X5365195Y-13109169D01*
X5393767Y-13094883D01*
X5622338Y-13366312D02*
X5636624Y-13380597D01*
X5622338Y-13394883D01*
X5608052Y-13380597D01*
X5622338Y-13366312D01*
X5622338Y-13394883D01*
X5822338Y-13094883D02*
X5850909Y-13094883D01*
X5879481Y-13109169D01*
X5893766Y-13123455D01*
X5908052Y-13152026D01*
X5922338Y-13209169D01*
X5922338Y-13280597D01*
X5908052Y-13337740D01*
X5893766Y-13366312D01*
X5879481Y-13380597D01*
X5850909Y-13394883D01*
X5822338Y-13394883D01*
X5793766Y-13380597D01*
X5779481Y-13366312D01*
X5765195Y-13337740D01*
X5750909Y-13280597D01*
X5750909Y-13209169D01*
X5765195Y-13152026D01*
X5779481Y-13123455D01*
X5793766Y-13109169D01*
X5822338Y-13094883D01*
X6179481Y-13094883D02*
X6122338Y-13094883D01*
X6093766Y-13109169D01*
X6079481Y-13123455D01*
X6050909Y-13166312D01*
X6036624Y-13223455D01*
X6036624Y-13337740D01*
X6050909Y-13366312D01*
X6065195Y-13380597D01*
X6093766Y-13394883D01*
X6150909Y-13394883D01*
X6179481Y-13380597D01*
X6193766Y-13366312D01*
X6208052Y-13337740D01*
X6208052Y-13266312D01*
X6193766Y-13237740D01*
X6179481Y-13223455D01*
X6150909Y-13209169D01*
X6093766Y-13209169D01*
X6065195Y-13223455D01*
X6050909Y-13237740D01*
X6036624Y-13266312D01*
X6350909Y-13394883D02*
X6408052Y-13394883D01*
X6436624Y-13380597D01*
X6450909Y-13366312D01*
X6479481Y-13323455D01*
X6493766Y-13266312D01*
X6493766Y-13152026D01*
X6479481Y-13123455D01*
X6465195Y-13109169D01*
X6436624Y-13094883D01*
X6379481Y-13094883D01*
X6350909Y-13109169D01*
X6336624Y-13123455D01*
X6322338Y-13152026D01*
X6322338Y-13223455D01*
X6336624Y-13252026D01*
X6350909Y-13266312D01*
X6379481Y-13280597D01*
X6436624Y-13280597D01*
X6465195Y-13266312D01*
X6479481Y-13252026D01*
X6493766Y-13223455D01*
X6608052Y-13094883D02*
X6608052Y-13152026D01*
X6722338Y-13094883D02*
X6722338Y-13152026D01*
X7165195Y-13509169D02*
X7150909Y-13494883D01*
X7122338Y-13452026D01*
X7108052Y-13423455D01*
X7093766Y-13380597D01*
X7079481Y-13309169D01*
X7079481Y-13252026D01*
X7093766Y-13180597D01*
X7108052Y-13137740D01*
X7122338Y-13109169D01*
X7150909Y-13066312D01*
X7165195Y-13052026D01*
X7408052Y-13094883D02*
X7350909Y-13094883D01*
X7322338Y-13109169D01*
X7308052Y-13123455D01*
X7279481Y-13166312D01*
X7265195Y-13223455D01*
X7265195Y-13337740D01*
X7279481Y-13366312D01*
X7293766Y-13380597D01*
X7322338Y-13394883D01*
X7379481Y-13394883D01*
X7408052Y-13380597D01*
X7422338Y-13366312D01*
X7436624Y-13337740D01*
X7436624Y-13266312D01*
X7422338Y-13237740D01*
X7408052Y-13223455D01*
X7379481Y-13209169D01*
X7322338Y-13209169D01*
X7293766Y-13223455D01*
X7279481Y-13237740D01*
X7265195Y-13266312D01*
X7693766Y-13194883D02*
X7693766Y-13394883D01*
X7622338Y-13080597D02*
X7550909Y-13294883D01*
X7736624Y-13294883D01*
X8079481Y-13394883D02*
X8079481Y-13094883D01*
X8208052Y-13394883D02*
X8208052Y-13237740D01*
X8193766Y-13209169D01*
X8165195Y-13194883D01*
X8122338Y-13194883D01*
X8093766Y-13209169D01*
X8079481Y-13223455D01*
X8393767Y-13394883D02*
X8365195Y-13380597D01*
X8350909Y-13366312D01*
X8336624Y-13337740D01*
X8336624Y-13252026D01*
X8350909Y-13223455D01*
X8365195Y-13209169D01*
X8393767Y-13194883D01*
X8436624Y-13194883D01*
X8465195Y-13209169D01*
X8479481Y-13223455D01*
X8493767Y-13252026D01*
X8493767Y-13337740D01*
X8479481Y-13366312D01*
X8465195Y-13380597D01*
X8436624Y-13394883D01*
X8393767Y-13394883D01*
X8665195Y-13394883D02*
X8636624Y-13380597D01*
X8622338Y-13352026D01*
X8622338Y-13094883D01*
X8893767Y-13380597D02*
X8865195Y-13394883D01*
X8808052Y-13394883D01*
X8779481Y-13380597D01*
X8765195Y-13352026D01*
X8765195Y-13237740D01*
X8779481Y-13209169D01*
X8808052Y-13194883D01*
X8865195Y-13194883D01*
X8893767Y-13209169D01*
X8908052Y-13237740D01*
X8908052Y-13266312D01*
X8765195Y-13294883D01*
X9022338Y-13380597D02*
X9050909Y-13394883D01*
X9108052Y-13394883D01*
X9136624Y-13380597D01*
X9150909Y-13352026D01*
X9150909Y-13337740D01*
X9136624Y-13309169D01*
X9108052Y-13294883D01*
X9065195Y-13294883D01*
X9036624Y-13280597D01*
X9022338Y-13252026D01*
X9022338Y-13237740D01*
X9036624Y-13209169D01*
X9065195Y-13194883D01*
X9108052Y-13194883D01*
X9136624Y-13209169D01*
X9250909Y-13509169D02*
X9265195Y-13494883D01*
X9293767Y-13452026D01*
X9308052Y-13423455D01*
X9322338Y-13380597D01*
X9336624Y-13309169D01*
X9336624Y-13252026D01*
X9322338Y-13180597D01*
X9308052Y-13137740D01*
X9293767Y-13109169D01*
X9265195Y-13066312D01*
X9250909Y-13052026D01*
X9793766Y-13509169D02*
X9779481Y-13494883D01*
X9750909Y-13452026D01*
X9736624Y-13423455D01*
X9722338Y-13380597D01*
X9708052Y-13309169D01*
X9708052Y-13252026D01*
X9722338Y-13180597D01*
X9736624Y-13137740D01*
X9750909Y-13109169D01*
X9779481Y-13066312D01*
X9793766Y-13052026D01*
X9908052Y-13194883D02*
X9908052Y-13394883D01*
X9908052Y-13223455D02*
X9922338Y-13209169D01*
X9950909Y-13194883D01*
X9993766Y-13194883D01*
X10022338Y-13209169D01*
X10036624Y-13237740D01*
X10036624Y-13394883D01*
X10222338Y-13394883D02*
X10193766Y-13380597D01*
X10179481Y-13366312D01*
X10165195Y-13337740D01*
X10165195Y-13252026D01*
X10179481Y-13223455D01*
X10193766Y-13209169D01*
X10222338Y-13194883D01*
X10265195Y-13194883D01*
X10293766Y-13209169D01*
X10308052Y-13223455D01*
X10322338Y-13252026D01*
X10322338Y-13337740D01*
X10308052Y-13366312D01*
X10293766Y-13380597D01*
X10265195Y-13394883D01*
X10222338Y-13394883D01*
X10408052Y-13194883D02*
X10522338Y-13194883D01*
X10450909Y-13094883D02*
X10450909Y-13352026D01*
X10465195Y-13380597D01*
X10493767Y-13394883D01*
X10522338Y-13394883D01*
X10850909Y-13194883D02*
X10850909Y-13494883D01*
X10850909Y-13209169D02*
X10879481Y-13194883D01*
X10936624Y-13194883D01*
X10965195Y-13209169D01*
X10979481Y-13223455D01*
X10993767Y-13252026D01*
X10993767Y-13337740D01*
X10979481Y-13366312D01*
X10965195Y-13380597D01*
X10936624Y-13394883D01*
X10879481Y-13394883D01*
X10850909Y-13380597D01*
X11165195Y-13394883D02*
X11136624Y-13380597D01*
X11122338Y-13352026D01*
X11122338Y-13094883D01*
X11408052Y-13394883D02*
X11408052Y-13237740D01*
X11393766Y-13209169D01*
X11365195Y-13194883D01*
X11308052Y-13194883D01*
X11279481Y-13209169D01*
X11408052Y-13380597D02*
X11379481Y-13394883D01*
X11308052Y-13394883D01*
X11279481Y-13380597D01*
X11265195Y-13352026D01*
X11265195Y-13323455D01*
X11279481Y-13294883D01*
X11308052Y-13280597D01*
X11379481Y-13280597D01*
X11408052Y-13266312D01*
X11508052Y-13194883D02*
X11622338Y-13194883D01*
X11550909Y-13094883D02*
X11550909Y-13352026D01*
X11565195Y-13380597D01*
X11593766Y-13394883D01*
X11622338Y-13394883D01*
X11836624Y-13380597D02*
X11808052Y-13394883D01*
X11750909Y-13394883D01*
X11722338Y-13380597D01*
X11708052Y-13352026D01*
X11708052Y-13237740D01*
X11722338Y-13209169D01*
X11750909Y-13194883D01*
X11808052Y-13194883D01*
X11836624Y-13209169D01*
X11850909Y-13237740D01*
X11850909Y-13266312D01*
X11708052Y-13294883D01*
X12108052Y-13394883D02*
X12108052Y-13094883D01*
X12108052Y-13380597D02*
X12079481Y-13394883D01*
X12022338Y-13394883D01*
X11993766Y-13380597D01*
X11979481Y-13366312D01*
X11965195Y-13337740D01*
X11965195Y-13252026D01*
X11979481Y-13223455D01*
X11993766Y-13209169D01*
X12022338Y-13194883D01*
X12079481Y-13194883D01*
X12108052Y-13209169D01*
X12222338Y-13509169D02*
X12236624Y-13494883D01*
X12265195Y-13452026D01*
X12279481Y-13423455D01*
X12293766Y-13380597D01*
X12308052Y-13309169D01*
X12308052Y-13252026D01*
X12293766Y-13180597D01*
X12279481Y-13137740D01*
X12265195Y-13109169D01*
X12236624Y-13066312D01*
X12222338Y-13052026D01*
X2279377Y-13455779D02*
X2279377Y-13854559D01*
X2079986Y-13655169D02*
X2478767Y-13655169D01*
X2736624Y-13490883D02*
X2922338Y-13490883D01*
X2822338Y-13605169D01*
X2865195Y-13605169D01*
X2893766Y-13619455D01*
X2908052Y-13633740D01*
X2922338Y-13662312D01*
X2922338Y-13733740D01*
X2908052Y-13762312D01*
X2893766Y-13776597D01*
X2865195Y-13790883D01*
X2779481Y-13790883D01*
X2750909Y-13776597D01*
X2736624Y-13762312D01*
X3050909Y-13762312D02*
X3065195Y-13776597D01*
X3050909Y-13790883D01*
X3036624Y-13776597D01*
X3050909Y-13762312D01*
X3050909Y-13790883D01*
X3208052Y-13790883D02*
X3265195Y-13790883D01*
X3293766Y-13776597D01*
X3308052Y-13762312D01*
X3336624Y-13719455D01*
X3350909Y-13662312D01*
X3350909Y-13548026D01*
X3336624Y-13519455D01*
X3322338Y-13505169D01*
X3293766Y-13490883D01*
X3236624Y-13490883D01*
X3208052Y-13505169D01*
X3193766Y-13519455D01*
X3179481Y-13548026D01*
X3179481Y-13619455D01*
X3193766Y-13648026D01*
X3208052Y-13662312D01*
X3236624Y-13676597D01*
X3293766Y-13676597D01*
X3322338Y-13662312D01*
X3336624Y-13648026D01*
X3350909Y-13619455D01*
X3493766Y-13790883D02*
X3550909Y-13790883D01*
X3579481Y-13776597D01*
X3593766Y-13762312D01*
X3622338Y-13719455D01*
X3636624Y-13662312D01*
X3636624Y-13548026D01*
X3622338Y-13519455D01*
X3608052Y-13505169D01*
X3579481Y-13490883D01*
X3522338Y-13490883D01*
X3493766Y-13505169D01*
X3479481Y-13519455D01*
X3465195Y-13548026D01*
X3465195Y-13619455D01*
X3479481Y-13648026D01*
X3493766Y-13662312D01*
X3522338Y-13676597D01*
X3579481Y-13676597D01*
X3608052Y-13662312D01*
X3622338Y-13648026D01*
X3636624Y-13619455D01*
X3765195Y-13790883D02*
X3765195Y-13590883D01*
X3765195Y-13619455D02*
X3779481Y-13605169D01*
X3808052Y-13590883D01*
X3850909Y-13590883D01*
X3879481Y-13605169D01*
X3893766Y-13633740D01*
X3893766Y-13790883D01*
X3893766Y-13633740D02*
X3908052Y-13605169D01*
X3936624Y-13590883D01*
X3979481Y-13590883D01*
X4008052Y-13605169D01*
X4022338Y-13633740D01*
X4022338Y-13790883D01*
X4165195Y-13790883D02*
X4165195Y-13590883D01*
X4165195Y-13619455D02*
X4179481Y-13605169D01*
X4208052Y-13590883D01*
X4250909Y-13590883D01*
X4279481Y-13605169D01*
X4293767Y-13633740D01*
X4293767Y-13790883D01*
X4293767Y-13633740D02*
X4308052Y-13605169D01*
X4336624Y-13590883D01*
X4379481Y-13590883D01*
X4408052Y-13605169D01*
X4422338Y-13633740D01*
X4422338Y-13790883D01*
X5008052Y-13476597D02*
X4750909Y-13862312D01*
X5393767Y-13490883D02*
X5422338Y-13490883D01*
X5450909Y-13505169D01*
X5465195Y-13519455D01*
X5479481Y-13548026D01*
X5493766Y-13605169D01*
X5493766Y-13676597D01*
X5479481Y-13733740D01*
X5465195Y-13762312D01*
X5450909Y-13776597D01*
X5422338Y-13790883D01*
X5393767Y-13790883D01*
X5365195Y-13776597D01*
X5350909Y-13762312D01*
X5336624Y-13733740D01*
X5322338Y-13676597D01*
X5322338Y-13605169D01*
X5336624Y-13548026D01*
X5350909Y-13519455D01*
X5365195Y-13505169D01*
X5393767Y-13490883D01*
X5622338Y-13762312D02*
X5636624Y-13776597D01*
X5622338Y-13790883D01*
X5608052Y-13776597D01*
X5622338Y-13762312D01*
X5622338Y-13790883D01*
X5922338Y-13790883D02*
X5750909Y-13790883D01*
X5836624Y-13790883D02*
X5836624Y-13490883D01*
X5808052Y-13533740D01*
X5779481Y-13562312D01*
X5750909Y-13576597D01*
X6193766Y-13490883D02*
X6050909Y-13490883D01*
X6036624Y-13633740D01*
X6050909Y-13619455D01*
X6079481Y-13605169D01*
X6150909Y-13605169D01*
X6179481Y-13619455D01*
X6193766Y-13633740D01*
X6208052Y-13662312D01*
X6208052Y-13733740D01*
X6193766Y-13762312D01*
X6179481Y-13776597D01*
X6150909Y-13790883D01*
X6079481Y-13790883D01*
X6050909Y-13776597D01*
X6036624Y-13762312D01*
X6308052Y-13490883D02*
X6508052Y-13490883D01*
X6379481Y-13790883D01*
X6608052Y-13490883D02*
X6608052Y-13548026D01*
X6722338Y-13490883D02*
X6722338Y-13548026D01*
X7165195Y-13905169D02*
X7150909Y-13890883D01*
X7122338Y-13848026D01*
X7108052Y-13819455D01*
X7093766Y-13776597D01*
X7079481Y-13705169D01*
X7079481Y-13648026D01*
X7093766Y-13576597D01*
X7108052Y-13533740D01*
X7122338Y-13505169D01*
X7150909Y-13462312D01*
X7165195Y-13448026D01*
X7250909Y-13490883D02*
X7436624Y-13490883D01*
X7336624Y-13605169D01*
X7379481Y-13605169D01*
X7408052Y-13619455D01*
X7422338Y-13633740D01*
X7436624Y-13662312D01*
X7436624Y-13733740D01*
X7422338Y-13762312D01*
X7408052Y-13776597D01*
X7379481Y-13790883D01*
X7293766Y-13790883D01*
X7265195Y-13776597D01*
X7250909Y-13762312D01*
X7550909Y-13519455D02*
X7565195Y-13505169D01*
X7593766Y-13490883D01*
X7665195Y-13490883D01*
X7693766Y-13505169D01*
X7708052Y-13519455D01*
X7722338Y-13548026D01*
X7722338Y-13576597D01*
X7708052Y-13619455D01*
X7536624Y-13790883D01*
X7722338Y-13790883D01*
X8079481Y-13790883D02*
X8079481Y-13490883D01*
X8208052Y-13790883D02*
X8208052Y-13633740D01*
X8193766Y-13605169D01*
X8165195Y-13590883D01*
X8122338Y-13590883D01*
X8093766Y-13605169D01*
X8079481Y-13619455D01*
X8393767Y-13790883D02*
X8365195Y-13776597D01*
X8350909Y-13762312D01*
X8336624Y-13733740D01*
X8336624Y-13648026D01*
X8350909Y-13619455D01*
X8365195Y-13605169D01*
X8393767Y-13590883D01*
X8436624Y-13590883D01*
X8465195Y-13605169D01*
X8479481Y-13619455D01*
X8493767Y-13648026D01*
X8493767Y-13733740D01*
X8479481Y-13762312D01*
X8465195Y-13776597D01*
X8436624Y-13790883D01*
X8393767Y-13790883D01*
X8665195Y-13790883D02*
X8636624Y-13776597D01*
X8622338Y-13748026D01*
X8622338Y-13490883D01*
X8893767Y-13776597D02*
X8865195Y-13790883D01*
X8808052Y-13790883D01*
X8779481Y-13776597D01*
X8765195Y-13748026D01*
X8765195Y-13633740D01*
X8779481Y-13605169D01*
X8808052Y-13590883D01*
X8865195Y-13590883D01*
X8893767Y-13605169D01*
X8908052Y-13633740D01*
X8908052Y-13662312D01*
X8765195Y-13690883D01*
X9022338Y-13776597D02*
X9050909Y-13790883D01*
X9108052Y-13790883D01*
X9136624Y-13776597D01*
X9150909Y-13748026D01*
X9150909Y-13733740D01*
X9136624Y-13705169D01*
X9108052Y-13690883D01*
X9065195Y-13690883D01*
X9036624Y-13676597D01*
X9022338Y-13648026D01*
X9022338Y-13633740D01*
X9036624Y-13605169D01*
X9065195Y-13590883D01*
X9108052Y-13590883D01*
X9136624Y-13605169D01*
X9250909Y-13905169D02*
X9265195Y-13890883D01*
X9293767Y-13848026D01*
X9308052Y-13819455D01*
X9322338Y-13776597D01*
X9336624Y-13705169D01*
X9336624Y-13648026D01*
X9322338Y-13576597D01*
X9308052Y-13533740D01*
X9293767Y-13505169D01*
X9265195Y-13462312D01*
X9250909Y-13448026D01*
X9793766Y-13905169D02*
X9779481Y-13890883D01*
X9750909Y-13848026D01*
X9736624Y-13819455D01*
X9722338Y-13776597D01*
X9708052Y-13705169D01*
X9708052Y-13648026D01*
X9722338Y-13576597D01*
X9736624Y-13533740D01*
X9750909Y-13505169D01*
X9779481Y-13462312D01*
X9793766Y-13448026D01*
X9908052Y-13590883D02*
X9908052Y-13790883D01*
X9908052Y-13619455D02*
X9922338Y-13605169D01*
X9950909Y-13590883D01*
X9993766Y-13590883D01*
X10022338Y-13605169D01*
X10036624Y-13633740D01*
X10036624Y-13790883D01*
X10222338Y-13790883D02*
X10193766Y-13776597D01*
X10179481Y-13762312D01*
X10165195Y-13733740D01*
X10165195Y-13648026D01*
X10179481Y-13619455D01*
X10193766Y-13605169D01*
X10222338Y-13590883D01*
X10265195Y-13590883D01*
X10293766Y-13605169D01*
X10308052Y-13619455D01*
X10322338Y-13648026D01*
X10322338Y-13733740D01*
X10308052Y-13762312D01*
X10293766Y-13776597D01*
X10265195Y-13790883D01*
X10222338Y-13790883D01*
X10408052Y-13590883D02*
X10522338Y-13590883D01*
X10450909Y-13490883D02*
X10450909Y-13748026D01*
X10465195Y-13776597D01*
X10493767Y-13790883D01*
X10522338Y-13790883D01*
X10850909Y-13590883D02*
X10850909Y-13890883D01*
X10850909Y-13605169D02*
X10879481Y-13590883D01*
X10936624Y-13590883D01*
X10965195Y-13605169D01*
X10979481Y-13619455D01*
X10993767Y-13648026D01*
X10993767Y-13733740D01*
X10979481Y-13762312D01*
X10965195Y-13776597D01*
X10936624Y-13790883D01*
X10879481Y-13790883D01*
X10850909Y-13776597D01*
X11165195Y-13790883D02*
X11136624Y-13776597D01*
X11122338Y-13748026D01*
X11122338Y-13490883D01*
X11408052Y-13790883D02*
X11408052Y-13633740D01*
X11393766Y-13605169D01*
X11365195Y-13590883D01*
X11308052Y-13590883D01*
X11279481Y-13605169D01*
X11408052Y-13776597D02*
X11379481Y-13790883D01*
X11308052Y-13790883D01*
X11279481Y-13776597D01*
X11265195Y-13748026D01*
X11265195Y-13719455D01*
X11279481Y-13690883D01*
X11308052Y-13676597D01*
X11379481Y-13676597D01*
X11408052Y-13662312D01*
X11508052Y-13590883D02*
X11622338Y-13590883D01*
X11550909Y-13490883D02*
X11550909Y-13748026D01*
X11565195Y-13776597D01*
X11593766Y-13790883D01*
X11622338Y-13790883D01*
X11836624Y-13776597D02*
X11808052Y-13790883D01*
X11750909Y-13790883D01*
X11722338Y-13776597D01*
X11708052Y-13748026D01*
X11708052Y-13633740D01*
X11722338Y-13605169D01*
X11750909Y-13590883D01*
X11808052Y-13590883D01*
X11836624Y-13605169D01*
X11850909Y-13633740D01*
X11850909Y-13662312D01*
X11708052Y-13690883D01*
X12108052Y-13790883D02*
X12108052Y-13490883D01*
X12108052Y-13776597D02*
X12079481Y-13790883D01*
X12022338Y-13790883D01*
X11993766Y-13776597D01*
X11979481Y-13762312D01*
X11965195Y-13733740D01*
X11965195Y-13648026D01*
X11979481Y-13619455D01*
X11993766Y-13605169D01*
X12022338Y-13590883D01*
X12079481Y-13590883D01*
X12108052Y-13605169D01*
X12222338Y-13905169D02*
X12236624Y-13890883D01*
X12265195Y-13848026D01*
X12279481Y-13819455D01*
X12293766Y-13776597D01*
X12308052Y-13705169D01*
X12308052Y-13648026D01*
X12293766Y-13576597D01*
X12279481Y-13533740D01*
X12265195Y-13505169D01*
X12236624Y-13462312D01*
X12222338Y-13448026D01*
M02*
