G04 #@! TF.GenerationSoftware,KiCad,Pcbnew,(5.1.4)-1*
G04 #@! TF.CreationDate,2020-11-18T14:17:53-05:00*
G04 #@! TF.ProjectId,splitty,73706c69-7474-4792-9e6b-696361645f70,rev?*
G04 #@! TF.SameCoordinates,Original*
G04 #@! TF.FileFunction,Legend,Top*
G04 #@! TF.FilePolarity,Positive*
%FSLAX46Y46*%
G04 Gerber Fmt 4.6, Leading zero omitted, Abs format (unit mm)*
G04 Created by KiCad (PCBNEW (5.1.4)-1) date 2020-11-18 14:17:53*
%MOMM*%
%LPD*%
G04 APERTURE LIST*
%ADD10C,0.010000*%
%ADD11C,0.150000*%
G04 APERTURE END LIST*
D10*
G36*
X186853903Y-75161675D02*
G01*
X187280224Y-75288350D01*
X187673729Y-75528099D01*
X187929045Y-75744739D01*
X188327938Y-76217056D01*
X188581761Y-76746014D01*
X188693433Y-77305958D01*
X188665874Y-77871233D01*
X188502002Y-78416183D01*
X188204739Y-78915153D01*
X187777003Y-79342487D01*
X187498131Y-79531315D01*
X187236342Y-79661413D01*
X186961266Y-79737302D01*
X186605604Y-79775391D01*
X186469888Y-79782031D01*
X186118085Y-79782345D01*
X185799896Y-79758634D01*
X185580683Y-79715954D01*
X185571000Y-79712487D01*
X185140668Y-79492055D01*
X184730666Y-79180995D01*
X184412902Y-78834343D01*
X184400334Y-78816499D01*
X184131671Y-78288430D01*
X184005779Y-77711605D01*
X184016477Y-77268017D01*
X185034765Y-77268017D01*
X185038939Y-77676496D01*
X185167687Y-78050667D01*
X185398737Y-78369082D01*
X185709819Y-78610292D01*
X186078661Y-78752847D01*
X186482994Y-78775298D01*
X186900545Y-78656198D01*
X187001519Y-78603441D01*
X187347733Y-78312388D01*
X187566863Y-77920494D01*
X187644988Y-77452883D01*
X187645016Y-77441988D01*
X187573480Y-77008184D01*
X187379417Y-76655811D01*
X187092471Y-76392022D01*
X186742288Y-76223967D01*
X186358513Y-76158799D01*
X185970789Y-76203670D01*
X185608764Y-76365731D01*
X185302081Y-76652135D01*
X185177436Y-76846679D01*
X185034765Y-77268017D01*
X184016477Y-77268017D01*
X184020018Y-77121214D01*
X184171747Y-76552447D01*
X184458324Y-76040495D01*
X184623290Y-75845607D01*
X185108147Y-75450659D01*
X185660455Y-75210739D01*
X186283690Y-75124380D01*
X186333000Y-75124052D01*
X186853903Y-75161675D01*
X186853903Y-75161675D01*
G37*
X186853903Y-75161675D02*
X187280224Y-75288350D01*
X187673729Y-75528099D01*
X187929045Y-75744739D01*
X188327938Y-76217056D01*
X188581761Y-76746014D01*
X188693433Y-77305958D01*
X188665874Y-77871233D01*
X188502002Y-78416183D01*
X188204739Y-78915153D01*
X187777003Y-79342487D01*
X187498131Y-79531315D01*
X187236342Y-79661413D01*
X186961266Y-79737302D01*
X186605604Y-79775391D01*
X186469888Y-79782031D01*
X186118085Y-79782345D01*
X185799896Y-79758634D01*
X185580683Y-79715954D01*
X185571000Y-79712487D01*
X185140668Y-79492055D01*
X184730666Y-79180995D01*
X184412902Y-78834343D01*
X184400334Y-78816499D01*
X184131671Y-78288430D01*
X184005779Y-77711605D01*
X184016477Y-77268017D01*
X185034765Y-77268017D01*
X185038939Y-77676496D01*
X185167687Y-78050667D01*
X185398737Y-78369082D01*
X185709819Y-78610292D01*
X186078661Y-78752847D01*
X186482994Y-78775298D01*
X186900545Y-78656198D01*
X187001519Y-78603441D01*
X187347733Y-78312388D01*
X187566863Y-77920494D01*
X187644988Y-77452883D01*
X187645016Y-77441988D01*
X187573480Y-77008184D01*
X187379417Y-76655811D01*
X187092471Y-76392022D01*
X186742288Y-76223967D01*
X186358513Y-76158799D01*
X185970789Y-76203670D01*
X185608764Y-76365731D01*
X185302081Y-76652135D01*
X185177436Y-76846679D01*
X185034765Y-77268017D01*
X184016477Y-77268017D01*
X184020018Y-77121214D01*
X184171747Y-76552447D01*
X184458324Y-76040495D01*
X184623290Y-75845607D01*
X185108147Y-75450659D01*
X185660455Y-75210739D01*
X186283690Y-75124380D01*
X186333000Y-75124052D01*
X186853903Y-75161675D01*
G36*
X183115666Y-73249667D02*
G01*
X183137990Y-76022500D01*
X183160313Y-78795334D01*
X183370823Y-78795334D01*
X183487500Y-78806238D01*
X183550496Y-78865451D01*
X183576281Y-79012725D01*
X183581329Y-79287810D01*
X183581333Y-79303334D01*
X183581333Y-79811334D01*
X182142000Y-79811334D01*
X182142000Y-74308000D01*
X181930333Y-74308000D01*
X181816820Y-74298431D01*
X181753447Y-74244298D01*
X181725635Y-74107459D01*
X181718804Y-73849772D01*
X181718666Y-73754243D01*
X181718666Y-73200485D01*
X183115666Y-73249667D01*
X183115666Y-73249667D01*
G37*
X183115666Y-73249667D02*
X183137990Y-76022500D01*
X183160313Y-78795334D01*
X183370823Y-78795334D01*
X183487500Y-78806238D01*
X183550496Y-78865451D01*
X183576281Y-79012725D01*
X183581329Y-79287810D01*
X183581333Y-79303334D01*
X183581333Y-79811334D01*
X182142000Y-79811334D01*
X182142000Y-74308000D01*
X181930333Y-74308000D01*
X181816820Y-74298431D01*
X181753447Y-74244298D01*
X181725635Y-74107459D01*
X181718804Y-73849772D01*
X181718666Y-73754243D01*
X181718666Y-73200485D01*
X183115666Y-73249667D01*
G36*
X187687655Y-80097814D02*
G01*
X187881366Y-80159332D01*
X188099052Y-80237468D01*
X188575038Y-80415557D01*
X188447269Y-80662636D01*
X188093738Y-81174044D01*
X187635584Y-81563391D01*
X187095581Y-81816804D01*
X186496505Y-81920408D01*
X186379876Y-81922034D01*
X186029975Y-81900124D01*
X185696676Y-81849567D01*
X185503855Y-81798205D01*
X184965639Y-81519576D01*
X184525398Y-81108579D01*
X184420471Y-80972837D01*
X184245539Y-80704766D01*
X184190243Y-80524553D01*
X184256358Y-80398474D01*
X184445663Y-80292799D01*
X184456541Y-80288219D01*
X184767560Y-80163356D01*
X184964486Y-80108336D01*
X185087942Y-80124176D01*
X185178549Y-80211896D01*
X185239004Y-80307828D01*
X185483661Y-80580695D01*
X185828367Y-80791614D01*
X186205644Y-80903273D01*
X186331732Y-80912000D01*
X186706265Y-80868589D01*
X187025800Y-80723997D01*
X187323486Y-80456686D01*
X187606781Y-80083523D01*
X187687655Y-80097814D01*
X187687655Y-80097814D01*
G37*
X187687655Y-80097814D02*
X187881366Y-80159332D01*
X188099052Y-80237468D01*
X188575038Y-80415557D01*
X188447269Y-80662636D01*
X188093738Y-81174044D01*
X187635584Y-81563391D01*
X187095581Y-81816804D01*
X186496505Y-81920408D01*
X186379876Y-81922034D01*
X186029975Y-81900124D01*
X185696676Y-81849567D01*
X185503855Y-81798205D01*
X184965639Y-81519576D01*
X184525398Y-81108579D01*
X184420471Y-80972837D01*
X184245539Y-80704766D01*
X184190243Y-80524553D01*
X184256358Y-80398474D01*
X184445663Y-80292799D01*
X184456541Y-80288219D01*
X184767560Y-80163356D01*
X184964486Y-80108336D01*
X185087942Y-80124176D01*
X185178549Y-80211896D01*
X185239004Y-80307828D01*
X185483661Y-80580695D01*
X185828367Y-80791614D01*
X186205644Y-80903273D01*
X186331732Y-80912000D01*
X186706265Y-80868589D01*
X187025800Y-80723997D01*
X187323486Y-80456686D01*
X187606781Y-80083523D01*
X187687655Y-80097814D01*
G36*
X108173903Y-74991675D02*
G01*
X108600224Y-75118350D01*
X108993729Y-75358099D01*
X109249045Y-75574739D01*
X109647938Y-76047056D01*
X109901761Y-76576014D01*
X110013433Y-77135958D01*
X109985874Y-77701233D01*
X109822002Y-78246183D01*
X109524739Y-78745153D01*
X109097003Y-79172487D01*
X108818131Y-79361315D01*
X108556342Y-79491413D01*
X108281266Y-79567302D01*
X107925604Y-79605391D01*
X107789888Y-79612031D01*
X107438085Y-79612345D01*
X107119896Y-79588634D01*
X106900683Y-79545954D01*
X106891000Y-79542487D01*
X106460668Y-79322055D01*
X106050666Y-79010995D01*
X105732902Y-78664343D01*
X105720334Y-78646499D01*
X105451671Y-78118430D01*
X105325779Y-77541605D01*
X105336477Y-77098017D01*
X106354765Y-77098017D01*
X106358939Y-77506496D01*
X106487687Y-77880667D01*
X106718737Y-78199082D01*
X107029819Y-78440292D01*
X107398661Y-78582847D01*
X107802994Y-78605298D01*
X108220545Y-78486198D01*
X108321519Y-78433441D01*
X108667733Y-78142388D01*
X108886863Y-77750494D01*
X108964988Y-77282883D01*
X108965016Y-77271988D01*
X108893480Y-76838184D01*
X108699417Y-76485811D01*
X108412471Y-76222022D01*
X108062288Y-76053967D01*
X107678513Y-75988799D01*
X107290789Y-76033670D01*
X106928764Y-76195731D01*
X106622081Y-76482135D01*
X106497436Y-76676679D01*
X106354765Y-77098017D01*
X105336477Y-77098017D01*
X105340018Y-76951214D01*
X105491747Y-76382447D01*
X105778324Y-75870495D01*
X105943290Y-75675607D01*
X106428147Y-75280659D01*
X106980455Y-75040739D01*
X107603690Y-74954380D01*
X107653000Y-74954052D01*
X108173903Y-74991675D01*
X108173903Y-74991675D01*
G37*
X108173903Y-74991675D02*
X108600224Y-75118350D01*
X108993729Y-75358099D01*
X109249045Y-75574739D01*
X109647938Y-76047056D01*
X109901761Y-76576014D01*
X110013433Y-77135958D01*
X109985874Y-77701233D01*
X109822002Y-78246183D01*
X109524739Y-78745153D01*
X109097003Y-79172487D01*
X108818131Y-79361315D01*
X108556342Y-79491413D01*
X108281266Y-79567302D01*
X107925604Y-79605391D01*
X107789888Y-79612031D01*
X107438085Y-79612345D01*
X107119896Y-79588634D01*
X106900683Y-79545954D01*
X106891000Y-79542487D01*
X106460668Y-79322055D01*
X106050666Y-79010995D01*
X105732902Y-78664343D01*
X105720334Y-78646499D01*
X105451671Y-78118430D01*
X105325779Y-77541605D01*
X105336477Y-77098017D01*
X106354765Y-77098017D01*
X106358939Y-77506496D01*
X106487687Y-77880667D01*
X106718737Y-78199082D01*
X107029819Y-78440292D01*
X107398661Y-78582847D01*
X107802994Y-78605298D01*
X108220545Y-78486198D01*
X108321519Y-78433441D01*
X108667733Y-78142388D01*
X108886863Y-77750494D01*
X108964988Y-77282883D01*
X108965016Y-77271988D01*
X108893480Y-76838184D01*
X108699417Y-76485811D01*
X108412471Y-76222022D01*
X108062288Y-76053967D01*
X107678513Y-75988799D01*
X107290789Y-76033670D01*
X106928764Y-76195731D01*
X106622081Y-76482135D01*
X106497436Y-76676679D01*
X106354765Y-77098017D01*
X105336477Y-77098017D01*
X105340018Y-76951214D01*
X105491747Y-76382447D01*
X105778324Y-75870495D01*
X105943290Y-75675607D01*
X106428147Y-75280659D01*
X106980455Y-75040739D01*
X107603690Y-74954380D01*
X107653000Y-74954052D01*
X108173903Y-74991675D01*
G36*
X104435666Y-73079667D02*
G01*
X104457990Y-75852500D01*
X104480313Y-78625334D01*
X104690823Y-78625334D01*
X104807500Y-78636238D01*
X104870496Y-78695451D01*
X104896281Y-78842725D01*
X104901329Y-79117810D01*
X104901333Y-79133334D01*
X104901333Y-79641334D01*
X103462000Y-79641334D01*
X103462000Y-74138000D01*
X103250333Y-74138000D01*
X103136820Y-74128431D01*
X103073447Y-74074298D01*
X103045635Y-73937459D01*
X103038804Y-73679772D01*
X103038666Y-73584243D01*
X103038666Y-73030485D01*
X104435666Y-73079667D01*
X104435666Y-73079667D01*
G37*
X104435666Y-73079667D02*
X104457990Y-75852500D01*
X104480313Y-78625334D01*
X104690823Y-78625334D01*
X104807500Y-78636238D01*
X104870496Y-78695451D01*
X104896281Y-78842725D01*
X104901329Y-79117810D01*
X104901333Y-79133334D01*
X104901333Y-79641334D01*
X103462000Y-79641334D01*
X103462000Y-74138000D01*
X103250333Y-74138000D01*
X103136820Y-74128431D01*
X103073447Y-74074298D01*
X103045635Y-73937459D01*
X103038804Y-73679772D01*
X103038666Y-73584243D01*
X103038666Y-73030485D01*
X104435666Y-73079667D01*
G36*
X109007655Y-79927814D02*
G01*
X109201366Y-79989332D01*
X109419052Y-80067468D01*
X109895038Y-80245557D01*
X109767269Y-80492636D01*
X109413738Y-81004044D01*
X108955584Y-81393391D01*
X108415581Y-81646804D01*
X107816505Y-81750408D01*
X107699876Y-81752034D01*
X107349975Y-81730124D01*
X107016676Y-81679567D01*
X106823855Y-81628205D01*
X106285639Y-81349576D01*
X105845398Y-80938579D01*
X105740471Y-80802837D01*
X105565539Y-80534766D01*
X105510243Y-80354553D01*
X105576358Y-80228474D01*
X105765663Y-80122799D01*
X105776541Y-80118219D01*
X106087560Y-79993356D01*
X106284486Y-79938336D01*
X106407942Y-79954176D01*
X106498549Y-80041896D01*
X106559004Y-80137828D01*
X106803661Y-80410695D01*
X107148367Y-80621614D01*
X107525644Y-80733273D01*
X107651732Y-80742000D01*
X108026265Y-80698589D01*
X108345800Y-80553997D01*
X108643486Y-80286686D01*
X108926781Y-79913523D01*
X109007655Y-79927814D01*
X109007655Y-79927814D01*
G37*
X109007655Y-79927814D02*
X109201366Y-79989332D01*
X109419052Y-80067468D01*
X109895038Y-80245557D01*
X109767269Y-80492636D01*
X109413738Y-81004044D01*
X108955584Y-81393391D01*
X108415581Y-81646804D01*
X107816505Y-81750408D01*
X107699876Y-81752034D01*
X107349975Y-81730124D01*
X107016676Y-81679567D01*
X106823855Y-81628205D01*
X106285639Y-81349576D01*
X105845398Y-80938579D01*
X105740471Y-80802837D01*
X105565539Y-80534766D01*
X105510243Y-80354553D01*
X105576358Y-80228474D01*
X105765663Y-80122799D01*
X105776541Y-80118219D01*
X106087560Y-79993356D01*
X106284486Y-79938336D01*
X106407942Y-79954176D01*
X106498549Y-80041896D01*
X106559004Y-80137828D01*
X106803661Y-80410695D01*
X107148367Y-80621614D01*
X107525644Y-80733273D01*
X107651732Y-80742000D01*
X108026265Y-80698589D01*
X108345800Y-80553997D01*
X108643486Y-80286686D01*
X108926781Y-79913523D01*
X109007655Y-79927814D01*
D11*
X126746000Y-58674000D02*
X126746000Y-89154000D01*
X131826000Y-58674000D02*
X126746000Y-58674000D01*
X131826000Y-56134000D02*
X131826000Y-58674000D01*
X139446000Y-56134000D02*
X131826000Y-56134000D01*
X139446000Y-58674000D02*
X139446000Y-56134000D01*
X144526000Y-58674000D02*
X139446000Y-58674000D01*
X144526000Y-89154000D02*
X144526000Y-58674000D01*
X126746000Y-89154000D02*
X144526000Y-89154000D01*
X148463000Y-58674000D02*
X148463000Y-89154000D01*
X153543000Y-58674000D02*
X148463000Y-58674000D01*
X153543000Y-56134000D02*
X153543000Y-58674000D01*
X161163000Y-56134000D02*
X153543000Y-56134000D01*
X161163000Y-58674000D02*
X161163000Y-56134000D01*
X166243000Y-58674000D02*
X161163000Y-58674000D01*
X166243000Y-89154000D02*
X166243000Y-58674000D01*
X148463000Y-89154000D02*
X166243000Y-89154000D01*
M02*
