G04 #@! TF.GenerationSoftware,KiCad,Pcbnew,(5.1.4)-1*
G04 #@! TF.CreationDate,2020-11-18T14:17:53-05:00*
G04 #@! TF.ProjectId,splitty,73706c69-7474-4792-9e6b-696361645f70,rev?*
G04 #@! TF.SameCoordinates,Original*
G04 #@! TF.FileFunction,Soldermask,Top*
G04 #@! TF.FilePolarity,Negative*
%FSLAX46Y46*%
G04 Gerber Fmt 4.6, Leading zero omitted, Abs format (unit mm)*
G04 Created by KiCad (PCBNEW (5.1.4)-1) date 2020-11-18 14:17:53*
%MOMM*%
%LPD*%
G04 APERTURE LIST*
%ADD10C,0.100000*%
G04 APERTURE END LIST*
D10*
G36*
X59488000Y-130137000D02*
G01*
X57786000Y-130137000D01*
X57786000Y-128435000D01*
X59488000Y-128435000D01*
X59488000Y-130137000D01*
X59488000Y-130137000D01*
G37*
G36*
X51085228Y-128467703D02*
G01*
X51240100Y-128531853D01*
X51379481Y-128624985D01*
X51498015Y-128743519D01*
X51591147Y-128882900D01*
X51655297Y-129037772D01*
X51688000Y-129202184D01*
X51688000Y-129369816D01*
X51655297Y-129534228D01*
X51591147Y-129689100D01*
X51498015Y-129828481D01*
X51379481Y-129947015D01*
X51240100Y-130040147D01*
X51085228Y-130104297D01*
X50920816Y-130137000D01*
X50753184Y-130137000D01*
X50588772Y-130104297D01*
X50433900Y-130040147D01*
X50294519Y-129947015D01*
X50175985Y-129828481D01*
X50082853Y-129689100D01*
X50018703Y-129534228D01*
X49986000Y-129369816D01*
X49986000Y-129202184D01*
X50018703Y-129037772D01*
X50082853Y-128882900D01*
X50175985Y-128743519D01*
X50294519Y-128624985D01*
X50433900Y-128531853D01*
X50588772Y-128467703D01*
X50753184Y-128435000D01*
X50920816Y-128435000D01*
X51085228Y-128467703D01*
X51085228Y-128467703D01*
G37*
G36*
X242400228Y-128340703D02*
G01*
X242555100Y-128404853D01*
X242694481Y-128497985D01*
X242813015Y-128616519D01*
X242906147Y-128755900D01*
X242970297Y-128910772D01*
X243003000Y-129075184D01*
X243003000Y-129242816D01*
X242970297Y-129407228D01*
X242906147Y-129562100D01*
X242813015Y-129701481D01*
X242694481Y-129820015D01*
X242555100Y-129913147D01*
X242400228Y-129977297D01*
X242235816Y-130010000D01*
X242068184Y-130010000D01*
X241903772Y-129977297D01*
X241748900Y-129913147D01*
X241609519Y-129820015D01*
X241490985Y-129701481D01*
X241397853Y-129562100D01*
X241333703Y-129407228D01*
X241301000Y-129242816D01*
X241301000Y-129075184D01*
X241333703Y-128910772D01*
X241397853Y-128755900D01*
X241490985Y-128616519D01*
X241609519Y-128497985D01*
X241748900Y-128404853D01*
X241903772Y-128340703D01*
X242068184Y-128308000D01*
X242235816Y-128308000D01*
X242400228Y-128340703D01*
X242400228Y-128340703D01*
G37*
G36*
X235203000Y-130010000D02*
G01*
X233501000Y-130010000D01*
X233501000Y-128308000D01*
X235203000Y-128308000D01*
X235203000Y-130010000D01*
X235203000Y-130010000D01*
G37*
G36*
X54188000Y-129937000D02*
G01*
X52486000Y-129937000D01*
X52486000Y-128635000D01*
X54188000Y-128635000D01*
X54188000Y-129937000D01*
X54188000Y-129937000D01*
G37*
G36*
X56988000Y-129937000D02*
G01*
X55286000Y-129937000D01*
X55286000Y-128635000D01*
X56988000Y-128635000D01*
X56988000Y-129937000D01*
X56988000Y-129937000D01*
G37*
G36*
X240503000Y-129810000D02*
G01*
X238801000Y-129810000D01*
X238801000Y-128508000D01*
X240503000Y-128508000D01*
X240503000Y-129810000D01*
X240503000Y-129810000D01*
G37*
G36*
X237703000Y-129810000D02*
G01*
X236001000Y-129810000D01*
X236001000Y-128508000D01*
X237703000Y-128508000D01*
X237703000Y-129810000D01*
X237703000Y-129810000D01*
G37*
G36*
X55396474Y-121323684D02*
G01*
X55614474Y-121413983D01*
X55768623Y-121477833D01*
X56103548Y-121701623D01*
X56388377Y-121986452D01*
X56612167Y-122321377D01*
X56644562Y-122399586D01*
X56766316Y-122693526D01*
X56844900Y-123088594D01*
X56844900Y-123491406D01*
X56766316Y-123886474D01*
X56706193Y-124031623D01*
X56612167Y-124258623D01*
X56388377Y-124593548D01*
X56103548Y-124878377D01*
X55768623Y-125102167D01*
X55614474Y-125166017D01*
X55396474Y-125256316D01*
X55001406Y-125334900D01*
X54598594Y-125334900D01*
X54203526Y-125256316D01*
X53985526Y-125166017D01*
X53831377Y-125102167D01*
X53496452Y-124878377D01*
X53211623Y-124593548D01*
X52987833Y-124258623D01*
X52893807Y-124031623D01*
X52833684Y-123886474D01*
X52755100Y-123491406D01*
X52755100Y-123088594D01*
X52833684Y-122693526D01*
X52955438Y-122399586D01*
X52987833Y-122321377D01*
X53211623Y-121986452D01*
X53496452Y-121701623D01*
X53831377Y-121477833D01*
X53985526Y-121413983D01*
X54203526Y-121323684D01*
X54598594Y-121245100D01*
X55001406Y-121245100D01*
X55396474Y-121323684D01*
X55396474Y-121323684D01*
G37*
G36*
X238848474Y-121096684D02*
G01*
X239066474Y-121186983D01*
X239220623Y-121250833D01*
X239555548Y-121474623D01*
X239840377Y-121759452D01*
X240064167Y-122094377D01*
X240096562Y-122172586D01*
X240218316Y-122466526D01*
X240296900Y-122861594D01*
X240296900Y-123264406D01*
X240218316Y-123659474D01*
X240167451Y-123782272D01*
X240064167Y-124031623D01*
X239840377Y-124366548D01*
X239555548Y-124651377D01*
X239220623Y-124875167D01*
X239066474Y-124939017D01*
X238848474Y-125029316D01*
X238453406Y-125107900D01*
X238050594Y-125107900D01*
X237655526Y-125029316D01*
X237437526Y-124939017D01*
X237283377Y-124875167D01*
X236948452Y-124651377D01*
X236663623Y-124366548D01*
X236439833Y-124031623D01*
X236336549Y-123782272D01*
X236285684Y-123659474D01*
X236207100Y-123264406D01*
X236207100Y-122861594D01*
X236285684Y-122466526D01*
X236407438Y-122172586D01*
X236439833Y-122094377D01*
X236663623Y-121759452D01*
X236948452Y-121474623D01*
X237283377Y-121250833D01*
X237437526Y-121186983D01*
X237655526Y-121096684D01*
X238050594Y-121018100D01*
X238453406Y-121018100D01*
X238848474Y-121096684D01*
X238848474Y-121096684D01*
G37*
G36*
X60150104Y-122399585D02*
G01*
X60318626Y-122469389D01*
X60470291Y-122570728D01*
X60599272Y-122699709D01*
X60700611Y-122851374D01*
X60770415Y-123019896D01*
X60806000Y-123198797D01*
X60806000Y-123381203D01*
X60770415Y-123560104D01*
X60700611Y-123728626D01*
X60599272Y-123880291D01*
X60470291Y-124009272D01*
X60318626Y-124110611D01*
X60150104Y-124180415D01*
X59971203Y-124216000D01*
X59788797Y-124216000D01*
X59609896Y-124180415D01*
X59441374Y-124110611D01*
X59289709Y-124009272D01*
X59160728Y-123880291D01*
X59059389Y-123728626D01*
X58989585Y-123560104D01*
X58954000Y-123381203D01*
X58954000Y-123198797D01*
X58989585Y-123019896D01*
X59059389Y-122851374D01*
X59160728Y-122699709D01*
X59289709Y-122570728D01*
X59441374Y-122469389D01*
X59609896Y-122399585D01*
X59788797Y-122364000D01*
X59971203Y-122364000D01*
X60150104Y-122399585D01*
X60150104Y-122399585D01*
G37*
G36*
X49990104Y-122399585D02*
G01*
X50158626Y-122469389D01*
X50310291Y-122570728D01*
X50439272Y-122699709D01*
X50540611Y-122851374D01*
X50610415Y-123019896D01*
X50646000Y-123198797D01*
X50646000Y-123381203D01*
X50610415Y-123560104D01*
X50540611Y-123728626D01*
X50439272Y-123880291D01*
X50310291Y-124009272D01*
X50158626Y-124110611D01*
X49990104Y-124180415D01*
X49811203Y-124216000D01*
X49628797Y-124216000D01*
X49449896Y-124180415D01*
X49281374Y-124110611D01*
X49129709Y-124009272D01*
X49000728Y-123880291D01*
X48899389Y-123728626D01*
X48829585Y-123560104D01*
X48794000Y-123381203D01*
X48794000Y-123198797D01*
X48829585Y-123019896D01*
X48899389Y-122851374D01*
X49000728Y-122699709D01*
X49129709Y-122570728D01*
X49281374Y-122469389D01*
X49449896Y-122399585D01*
X49628797Y-122364000D01*
X49811203Y-122364000D01*
X49990104Y-122399585D01*
X49990104Y-122399585D01*
G37*
G36*
X243602104Y-122172585D02*
G01*
X243770626Y-122242389D01*
X243922291Y-122343728D01*
X244051272Y-122472709D01*
X244152611Y-122624374D01*
X244222415Y-122792896D01*
X244258000Y-122971797D01*
X244258000Y-123154203D01*
X244222415Y-123333104D01*
X244152611Y-123501626D01*
X244051272Y-123653291D01*
X243922291Y-123782272D01*
X243770626Y-123883611D01*
X243602104Y-123953415D01*
X243423203Y-123989000D01*
X243240797Y-123989000D01*
X243061896Y-123953415D01*
X242893374Y-123883611D01*
X242741709Y-123782272D01*
X242612728Y-123653291D01*
X242511389Y-123501626D01*
X242441585Y-123333104D01*
X242406000Y-123154203D01*
X242406000Y-122971797D01*
X242441585Y-122792896D01*
X242511389Y-122624374D01*
X242612728Y-122472709D01*
X242741709Y-122343728D01*
X242893374Y-122242389D01*
X243061896Y-122172585D01*
X243240797Y-122137000D01*
X243423203Y-122137000D01*
X243602104Y-122172585D01*
X243602104Y-122172585D01*
G37*
G36*
X233442104Y-122172585D02*
G01*
X233610626Y-122242389D01*
X233762291Y-122343728D01*
X233891272Y-122472709D01*
X233992611Y-122624374D01*
X234062415Y-122792896D01*
X234098000Y-122971797D01*
X234098000Y-123154203D01*
X234062415Y-123333104D01*
X233992611Y-123501626D01*
X233891272Y-123653291D01*
X233762291Y-123782272D01*
X233610626Y-123883611D01*
X233442104Y-123953415D01*
X233263203Y-123989000D01*
X233080797Y-123989000D01*
X232901896Y-123953415D01*
X232733374Y-123883611D01*
X232581709Y-123782272D01*
X232452728Y-123653291D01*
X232351389Y-123501626D01*
X232281585Y-123333104D01*
X232246000Y-123154203D01*
X232246000Y-122971797D01*
X232281585Y-122792896D01*
X232351389Y-122624374D01*
X232452728Y-122472709D01*
X232581709Y-122343728D01*
X232733374Y-122242389D01*
X232901896Y-122172585D01*
X233080797Y-122137000D01*
X233263203Y-122137000D01*
X233442104Y-122172585D01*
X233442104Y-122172585D01*
G37*
G36*
X59334823Y-111697313D02*
G01*
X59495242Y-111745976D01*
X59627906Y-111816886D01*
X59643078Y-111824996D01*
X59772659Y-111931341D01*
X59879004Y-112060922D01*
X59879005Y-112060924D01*
X59958024Y-112208758D01*
X60006687Y-112369177D01*
X60023117Y-112536000D01*
X60006687Y-112702823D01*
X59958024Y-112863242D01*
X59914310Y-112945025D01*
X59879004Y-113011078D01*
X59772659Y-113140659D01*
X59643078Y-113247004D01*
X59643076Y-113247005D01*
X59495242Y-113326024D01*
X59334823Y-113374687D01*
X59209804Y-113387000D01*
X58726196Y-113387000D01*
X58601177Y-113374687D01*
X58440758Y-113326024D01*
X58292924Y-113247005D01*
X58292922Y-113247004D01*
X58163341Y-113140659D01*
X58056996Y-113011078D01*
X58021690Y-112945025D01*
X57977976Y-112863242D01*
X57929313Y-112702823D01*
X57912883Y-112536000D01*
X57929313Y-112369177D01*
X57977976Y-112208758D01*
X58056995Y-112060924D01*
X58056996Y-112060922D01*
X58163341Y-111931341D01*
X58292922Y-111824996D01*
X58308094Y-111816886D01*
X58440758Y-111745976D01*
X58601177Y-111697313D01*
X58726196Y-111685000D01*
X59209804Y-111685000D01*
X59334823Y-111697313D01*
X59334823Y-111697313D01*
G37*
G36*
X52334823Y-111697313D02*
G01*
X52495242Y-111745976D01*
X52627906Y-111816886D01*
X52643078Y-111824996D01*
X52772659Y-111931341D01*
X52879004Y-112060922D01*
X52879005Y-112060924D01*
X52958024Y-112208758D01*
X53006687Y-112369177D01*
X53023117Y-112536000D01*
X53006687Y-112702823D01*
X52958024Y-112863242D01*
X52914310Y-112945025D01*
X52879004Y-113011078D01*
X52772659Y-113140659D01*
X52643078Y-113247004D01*
X52643076Y-113247005D01*
X52495242Y-113326024D01*
X52334823Y-113374687D01*
X52209804Y-113387000D01*
X51726196Y-113387000D01*
X51601177Y-113374687D01*
X51440758Y-113326024D01*
X51292924Y-113247005D01*
X51292922Y-113247004D01*
X51163341Y-113140659D01*
X51056996Y-113011078D01*
X51021690Y-112945025D01*
X50977976Y-112863242D01*
X50929313Y-112702823D01*
X50912883Y-112536000D01*
X50929313Y-112369177D01*
X50977976Y-112208758D01*
X51056995Y-112060924D01*
X51056996Y-112060922D01*
X51163341Y-111931341D01*
X51292922Y-111824996D01*
X51308094Y-111816886D01*
X51440758Y-111745976D01*
X51601177Y-111697313D01*
X51726196Y-111685000D01*
X52209804Y-111685000D01*
X52334823Y-111697313D01*
X52334823Y-111697313D01*
G37*
G36*
X55334823Y-111697313D02*
G01*
X55495242Y-111745976D01*
X55627906Y-111816886D01*
X55643078Y-111824996D01*
X55772659Y-111931341D01*
X55879004Y-112060922D01*
X55879005Y-112060924D01*
X55958024Y-112208758D01*
X56006687Y-112369177D01*
X56023117Y-112536000D01*
X56006687Y-112702823D01*
X55958024Y-112863242D01*
X55914310Y-112945025D01*
X55879004Y-113011078D01*
X55772659Y-113140659D01*
X55643078Y-113247004D01*
X55643076Y-113247005D01*
X55495242Y-113326024D01*
X55334823Y-113374687D01*
X55209804Y-113387000D01*
X54726196Y-113387000D01*
X54601177Y-113374687D01*
X54440758Y-113326024D01*
X54292924Y-113247005D01*
X54292922Y-113247004D01*
X54163341Y-113140659D01*
X54056996Y-113011078D01*
X54021690Y-112945025D01*
X53977976Y-112863242D01*
X53929313Y-112702823D01*
X53912883Y-112536000D01*
X53929313Y-112369177D01*
X53977976Y-112208758D01*
X54056995Y-112060924D01*
X54056996Y-112060922D01*
X54163341Y-111931341D01*
X54292922Y-111824996D01*
X54308094Y-111816886D01*
X54440758Y-111745976D01*
X54601177Y-111697313D01*
X54726196Y-111685000D01*
X55209804Y-111685000D01*
X55334823Y-111697313D01*
X55334823Y-111697313D01*
G37*
G36*
X233287823Y-111316313D02*
G01*
X233448242Y-111364976D01*
X233580906Y-111435886D01*
X233596078Y-111443996D01*
X233725659Y-111550341D01*
X233832004Y-111679922D01*
X233832005Y-111679924D01*
X233911024Y-111827758D01*
X233959687Y-111988177D01*
X233976117Y-112155000D01*
X233959687Y-112321823D01*
X233911024Y-112482242D01*
X233840114Y-112614906D01*
X233832004Y-112630078D01*
X233725659Y-112759659D01*
X233596078Y-112866004D01*
X233596076Y-112866005D01*
X233448242Y-112945024D01*
X233287823Y-112993687D01*
X233162804Y-113006000D01*
X232679196Y-113006000D01*
X232554177Y-112993687D01*
X232393758Y-112945024D01*
X232245924Y-112866005D01*
X232245922Y-112866004D01*
X232116341Y-112759659D01*
X232009996Y-112630078D01*
X232001886Y-112614906D01*
X231930976Y-112482242D01*
X231882313Y-112321823D01*
X231865883Y-112155000D01*
X231882313Y-111988177D01*
X231930976Y-111827758D01*
X232009995Y-111679924D01*
X232009996Y-111679922D01*
X232116341Y-111550341D01*
X232245922Y-111443996D01*
X232261094Y-111435886D01*
X232393758Y-111364976D01*
X232554177Y-111316313D01*
X232679196Y-111304000D01*
X233162804Y-111304000D01*
X233287823Y-111316313D01*
X233287823Y-111316313D01*
G37*
G36*
X120861228Y-109417703D02*
G01*
X121016100Y-109481853D01*
X121155481Y-109574985D01*
X121274015Y-109693519D01*
X121367147Y-109832900D01*
X121431297Y-109987772D01*
X121464000Y-110152184D01*
X121464000Y-110319816D01*
X121431297Y-110484228D01*
X121367147Y-110639100D01*
X121274015Y-110778481D01*
X121155481Y-110897015D01*
X121016100Y-110990147D01*
X120861228Y-111054297D01*
X120696816Y-111087000D01*
X120529184Y-111087000D01*
X120364772Y-111054297D01*
X120209900Y-110990147D01*
X120070519Y-110897015D01*
X119951985Y-110778481D01*
X119858853Y-110639100D01*
X119794703Y-110484228D01*
X119762000Y-110319816D01*
X119762000Y-110152184D01*
X119794703Y-109987772D01*
X119858853Y-109832900D01*
X119951985Y-109693519D01*
X120070519Y-109574985D01*
X120209900Y-109481853D01*
X120364772Y-109417703D01*
X120529184Y-109385000D01*
X120696816Y-109385000D01*
X120861228Y-109417703D01*
X120861228Y-109417703D01*
G37*
G36*
X63753000Y-111087000D02*
G01*
X62051000Y-111087000D01*
X62051000Y-109385000D01*
X63753000Y-109385000D01*
X63753000Y-111087000D01*
X63753000Y-111087000D01*
G37*
G36*
X70950228Y-109417703D02*
G01*
X71105100Y-109481853D01*
X71244481Y-109574985D01*
X71363015Y-109693519D01*
X71456147Y-109832900D01*
X71520297Y-109987772D01*
X71553000Y-110152184D01*
X71553000Y-110319816D01*
X71520297Y-110484228D01*
X71456147Y-110639100D01*
X71363015Y-110778481D01*
X71244481Y-110897015D01*
X71105100Y-110990147D01*
X70950228Y-111054297D01*
X70785816Y-111087000D01*
X70618184Y-111087000D01*
X70453772Y-111054297D01*
X70298900Y-110990147D01*
X70159519Y-110897015D01*
X70040985Y-110778481D01*
X69947853Y-110639100D01*
X69883703Y-110484228D01*
X69851000Y-110319816D01*
X69851000Y-110152184D01*
X69883703Y-109987772D01*
X69947853Y-109832900D01*
X70040985Y-109693519D01*
X70159519Y-109574985D01*
X70298900Y-109481853D01*
X70453772Y-109417703D01*
X70618184Y-109385000D01*
X70785816Y-109385000D01*
X70950228Y-109417703D01*
X70950228Y-109417703D01*
G37*
G36*
X75437000Y-111087000D02*
G01*
X73735000Y-111087000D01*
X73735000Y-109385000D01*
X75437000Y-109385000D01*
X75437000Y-111087000D01*
X75437000Y-111087000D01*
G37*
G36*
X82634228Y-109417703D02*
G01*
X82789100Y-109481853D01*
X82928481Y-109574985D01*
X83047015Y-109693519D01*
X83140147Y-109832900D01*
X83204297Y-109987772D01*
X83237000Y-110152184D01*
X83237000Y-110319816D01*
X83204297Y-110484228D01*
X83140147Y-110639100D01*
X83047015Y-110778481D01*
X82928481Y-110897015D01*
X82789100Y-110990147D01*
X82634228Y-111054297D01*
X82469816Y-111087000D01*
X82302184Y-111087000D01*
X82137772Y-111054297D01*
X81982900Y-110990147D01*
X81843519Y-110897015D01*
X81724985Y-110778481D01*
X81631853Y-110639100D01*
X81567703Y-110484228D01*
X81535000Y-110319816D01*
X81535000Y-110152184D01*
X81567703Y-109987772D01*
X81631853Y-109832900D01*
X81724985Y-109693519D01*
X81843519Y-109574985D01*
X81982900Y-109481853D01*
X82137772Y-109417703D01*
X82302184Y-109385000D01*
X82469816Y-109385000D01*
X82634228Y-109417703D01*
X82634228Y-109417703D01*
G37*
G36*
X113664000Y-111087000D02*
G01*
X111962000Y-111087000D01*
X111962000Y-109385000D01*
X113664000Y-109385000D01*
X113664000Y-111087000D01*
X113664000Y-111087000D01*
G37*
G36*
X132714000Y-111087000D02*
G01*
X131012000Y-111087000D01*
X131012000Y-109385000D01*
X132714000Y-109385000D01*
X132714000Y-111087000D01*
X132714000Y-111087000D01*
G37*
G36*
X139911228Y-109417703D02*
G01*
X140066100Y-109481853D01*
X140205481Y-109574985D01*
X140324015Y-109693519D01*
X140417147Y-109832900D01*
X140481297Y-109987772D01*
X140514000Y-110152184D01*
X140514000Y-110319816D01*
X140481297Y-110484228D01*
X140417147Y-110639100D01*
X140324015Y-110778481D01*
X140205481Y-110897015D01*
X140066100Y-110990147D01*
X139911228Y-111054297D01*
X139746816Y-111087000D01*
X139579184Y-111087000D01*
X139414772Y-111054297D01*
X139259900Y-110990147D01*
X139120519Y-110897015D01*
X139001985Y-110778481D01*
X138908853Y-110639100D01*
X138844703Y-110484228D01*
X138812000Y-110319816D01*
X138812000Y-110152184D01*
X138844703Y-109987772D01*
X138908853Y-109832900D01*
X139001985Y-109693519D01*
X139120519Y-109574985D01*
X139259900Y-109481853D01*
X139414772Y-109417703D01*
X139579184Y-109385000D01*
X139746816Y-109385000D01*
X139911228Y-109417703D01*
X139911228Y-109417703D01*
G37*
G36*
X101811228Y-109417703D02*
G01*
X101966100Y-109481853D01*
X102105481Y-109574985D01*
X102224015Y-109693519D01*
X102317147Y-109832900D01*
X102381297Y-109987772D01*
X102414000Y-110152184D01*
X102414000Y-110319816D01*
X102381297Y-110484228D01*
X102317147Y-110639100D01*
X102224015Y-110778481D01*
X102105481Y-110897015D01*
X101966100Y-110990147D01*
X101811228Y-111054297D01*
X101646816Y-111087000D01*
X101479184Y-111087000D01*
X101314772Y-111054297D01*
X101159900Y-110990147D01*
X101020519Y-110897015D01*
X100901985Y-110778481D01*
X100808853Y-110639100D01*
X100744703Y-110484228D01*
X100712000Y-110319816D01*
X100712000Y-110152184D01*
X100744703Y-109987772D01*
X100808853Y-109832900D01*
X100901985Y-109693519D01*
X101020519Y-109574985D01*
X101159900Y-109481853D01*
X101314772Y-109417703D01*
X101479184Y-109385000D01*
X101646816Y-109385000D01*
X101811228Y-109417703D01*
X101811228Y-109417703D01*
G37*
G36*
X94614000Y-111087000D02*
G01*
X92912000Y-111087000D01*
X92912000Y-109385000D01*
X94614000Y-109385000D01*
X94614000Y-111087000D01*
X94614000Y-111087000D01*
G37*
G36*
X180551228Y-109290703D02*
G01*
X180706100Y-109354853D01*
X180845481Y-109447985D01*
X180964015Y-109566519D01*
X181057147Y-109705900D01*
X181121297Y-109860772D01*
X181154000Y-110025184D01*
X181154000Y-110192816D01*
X181121297Y-110357228D01*
X181057147Y-110512100D01*
X180964015Y-110651481D01*
X180845481Y-110770015D01*
X180706100Y-110863147D01*
X180551228Y-110927297D01*
X180386816Y-110960000D01*
X180219184Y-110960000D01*
X180054772Y-110927297D01*
X179899900Y-110863147D01*
X179760519Y-110770015D01*
X179641985Y-110651481D01*
X179548853Y-110512100D01*
X179484703Y-110357228D01*
X179452000Y-110192816D01*
X179452000Y-110025184D01*
X179484703Y-109860772D01*
X179548853Y-109705900D01*
X179641985Y-109566519D01*
X179760519Y-109447985D01*
X179899900Y-109354853D01*
X180054772Y-109290703D01*
X180219184Y-109258000D01*
X180386816Y-109258000D01*
X180551228Y-109290703D01*
X180551228Y-109290703D01*
G37*
G36*
X161501228Y-109290703D02*
G01*
X161656100Y-109354853D01*
X161795481Y-109447985D01*
X161914015Y-109566519D01*
X162007147Y-109705900D01*
X162071297Y-109860772D01*
X162104000Y-110025184D01*
X162104000Y-110192816D01*
X162071297Y-110357228D01*
X162007147Y-110512100D01*
X161914015Y-110651481D01*
X161795481Y-110770015D01*
X161656100Y-110863147D01*
X161501228Y-110927297D01*
X161336816Y-110960000D01*
X161169184Y-110960000D01*
X161004772Y-110927297D01*
X160849900Y-110863147D01*
X160710519Y-110770015D01*
X160591985Y-110651481D01*
X160498853Y-110512100D01*
X160434703Y-110357228D01*
X160402000Y-110192816D01*
X160402000Y-110025184D01*
X160434703Y-109860772D01*
X160498853Y-109705900D01*
X160591985Y-109566519D01*
X160710519Y-109447985D01*
X160849900Y-109354853D01*
X161004772Y-109290703D01*
X161169184Y-109258000D01*
X161336816Y-109258000D01*
X161501228Y-109290703D01*
X161501228Y-109290703D01*
G37*
G36*
X199474228Y-109290703D02*
G01*
X199629100Y-109354853D01*
X199768481Y-109447985D01*
X199887015Y-109566519D01*
X199980147Y-109705900D01*
X200044297Y-109860772D01*
X200077000Y-110025184D01*
X200077000Y-110192816D01*
X200044297Y-110357228D01*
X199980147Y-110512100D01*
X199887015Y-110651481D01*
X199768481Y-110770015D01*
X199629100Y-110863147D01*
X199474228Y-110927297D01*
X199309816Y-110960000D01*
X199142184Y-110960000D01*
X198977772Y-110927297D01*
X198822900Y-110863147D01*
X198683519Y-110770015D01*
X198564985Y-110651481D01*
X198471853Y-110512100D01*
X198407703Y-110357228D01*
X198375000Y-110192816D01*
X198375000Y-110025184D01*
X198407703Y-109860772D01*
X198471853Y-109705900D01*
X198564985Y-109566519D01*
X198683519Y-109447985D01*
X198822900Y-109354853D01*
X198977772Y-109290703D01*
X199142184Y-109258000D01*
X199309816Y-109258000D01*
X199474228Y-109290703D01*
X199474228Y-109290703D01*
G37*
G36*
X192277000Y-110960000D02*
G01*
X190575000Y-110960000D01*
X190575000Y-109258000D01*
X192277000Y-109258000D01*
X192277000Y-110960000D01*
X192277000Y-110960000D01*
G37*
G36*
X218524228Y-109290703D02*
G01*
X218679100Y-109354853D01*
X218818481Y-109447985D01*
X218937015Y-109566519D01*
X219030147Y-109705900D01*
X219094297Y-109860772D01*
X219127000Y-110025184D01*
X219127000Y-110192816D01*
X219094297Y-110357228D01*
X219030147Y-110512100D01*
X218937015Y-110651481D01*
X218818481Y-110770015D01*
X218679100Y-110863147D01*
X218524228Y-110927297D01*
X218359816Y-110960000D01*
X218192184Y-110960000D01*
X218027772Y-110927297D01*
X217872900Y-110863147D01*
X217733519Y-110770015D01*
X217614985Y-110651481D01*
X217521853Y-110512100D01*
X217457703Y-110357228D01*
X217425000Y-110192816D01*
X217425000Y-110025184D01*
X217457703Y-109860772D01*
X217521853Y-109705900D01*
X217614985Y-109566519D01*
X217733519Y-109447985D01*
X217872900Y-109354853D01*
X218027772Y-109290703D01*
X218192184Y-109258000D01*
X218359816Y-109258000D01*
X218524228Y-109290703D01*
X218524228Y-109290703D01*
G37*
G36*
X211327000Y-110960000D02*
G01*
X209625000Y-110960000D01*
X209625000Y-109258000D01*
X211327000Y-109258000D01*
X211327000Y-110960000D01*
X211327000Y-110960000D01*
G37*
G36*
X173354000Y-110960000D02*
G01*
X171652000Y-110960000D01*
X171652000Y-109258000D01*
X173354000Y-109258000D01*
X173354000Y-110960000D01*
X173354000Y-110960000D01*
G37*
G36*
X154304000Y-110960000D02*
G01*
X152602000Y-110960000D01*
X152602000Y-109258000D01*
X154304000Y-109258000D01*
X154304000Y-110960000D01*
X154304000Y-110960000D01*
G37*
G36*
X223138000Y-110960000D02*
G01*
X221436000Y-110960000D01*
X221436000Y-109258000D01*
X223138000Y-109258000D01*
X223138000Y-110960000D01*
X223138000Y-110960000D01*
G37*
G36*
X230335228Y-109290703D02*
G01*
X230490100Y-109354853D01*
X230629481Y-109447985D01*
X230748015Y-109566519D01*
X230841147Y-109705900D01*
X230905297Y-109860772D01*
X230938000Y-110025184D01*
X230938000Y-110192816D01*
X230905297Y-110357228D01*
X230841147Y-110512100D01*
X230748015Y-110651481D01*
X230629481Y-110770015D01*
X230490100Y-110863147D01*
X230335228Y-110927297D01*
X230170816Y-110960000D01*
X230003184Y-110960000D01*
X229838772Y-110927297D01*
X229683900Y-110863147D01*
X229544519Y-110770015D01*
X229425985Y-110651481D01*
X229332853Y-110512100D01*
X229268703Y-110357228D01*
X229236000Y-110192816D01*
X229236000Y-110025184D01*
X229268703Y-109860772D01*
X229332853Y-109705900D01*
X229425985Y-109566519D01*
X229544519Y-109447985D01*
X229683900Y-109354853D01*
X229838772Y-109290703D01*
X230003184Y-109258000D01*
X230170816Y-109258000D01*
X230335228Y-109290703D01*
X230335228Y-109290703D01*
G37*
G36*
X116164000Y-110887000D02*
G01*
X114462000Y-110887000D01*
X114462000Y-109585000D01*
X116164000Y-109585000D01*
X116164000Y-110887000D01*
X116164000Y-110887000D01*
G37*
G36*
X118964000Y-110887000D02*
G01*
X117262000Y-110887000D01*
X117262000Y-109585000D01*
X118964000Y-109585000D01*
X118964000Y-110887000D01*
X118964000Y-110887000D01*
G37*
G36*
X135214000Y-110887000D02*
G01*
X133512000Y-110887000D01*
X133512000Y-109585000D01*
X135214000Y-109585000D01*
X135214000Y-110887000D01*
X135214000Y-110887000D01*
G37*
G36*
X138014000Y-110887000D02*
G01*
X136312000Y-110887000D01*
X136312000Y-109585000D01*
X138014000Y-109585000D01*
X138014000Y-110887000D01*
X138014000Y-110887000D01*
G37*
G36*
X69053000Y-110887000D02*
G01*
X67351000Y-110887000D01*
X67351000Y-109585000D01*
X69053000Y-109585000D01*
X69053000Y-110887000D01*
X69053000Y-110887000D01*
G37*
G36*
X97114000Y-110887000D02*
G01*
X95412000Y-110887000D01*
X95412000Y-109585000D01*
X97114000Y-109585000D01*
X97114000Y-110887000D01*
X97114000Y-110887000D01*
G37*
G36*
X80737000Y-110887000D02*
G01*
X79035000Y-110887000D01*
X79035000Y-109585000D01*
X80737000Y-109585000D01*
X80737000Y-110887000D01*
X80737000Y-110887000D01*
G37*
G36*
X77937000Y-110887000D02*
G01*
X76235000Y-110887000D01*
X76235000Y-109585000D01*
X77937000Y-109585000D01*
X77937000Y-110887000D01*
X77937000Y-110887000D01*
G37*
G36*
X66253000Y-110887000D02*
G01*
X64551000Y-110887000D01*
X64551000Y-109585000D01*
X66253000Y-109585000D01*
X66253000Y-110887000D01*
X66253000Y-110887000D01*
G37*
G36*
X99914000Y-110887000D02*
G01*
X98212000Y-110887000D01*
X98212000Y-109585000D01*
X99914000Y-109585000D01*
X99914000Y-110887000D01*
X99914000Y-110887000D01*
G37*
G36*
X225638000Y-110760000D02*
G01*
X223936000Y-110760000D01*
X223936000Y-109458000D01*
X225638000Y-109458000D01*
X225638000Y-110760000D01*
X225638000Y-110760000D01*
G37*
G36*
X156804000Y-110760000D02*
G01*
X155102000Y-110760000D01*
X155102000Y-109458000D01*
X156804000Y-109458000D01*
X156804000Y-110760000D01*
X156804000Y-110760000D01*
G37*
G36*
X159604000Y-110760000D02*
G01*
X157902000Y-110760000D01*
X157902000Y-109458000D01*
X159604000Y-109458000D01*
X159604000Y-110760000D01*
X159604000Y-110760000D01*
G37*
G36*
X175854000Y-110760000D02*
G01*
X174152000Y-110760000D01*
X174152000Y-109458000D01*
X175854000Y-109458000D01*
X175854000Y-110760000D01*
X175854000Y-110760000D01*
G37*
G36*
X178654000Y-110760000D02*
G01*
X176952000Y-110760000D01*
X176952000Y-109458000D01*
X178654000Y-109458000D01*
X178654000Y-110760000D01*
X178654000Y-110760000D01*
G37*
G36*
X194777000Y-110760000D02*
G01*
X193075000Y-110760000D01*
X193075000Y-109458000D01*
X194777000Y-109458000D01*
X194777000Y-110760000D01*
X194777000Y-110760000D01*
G37*
G36*
X197577000Y-110760000D02*
G01*
X195875000Y-110760000D01*
X195875000Y-109458000D01*
X197577000Y-109458000D01*
X197577000Y-110760000D01*
X197577000Y-110760000D01*
G37*
G36*
X228438000Y-110760000D02*
G01*
X226736000Y-110760000D01*
X226736000Y-109458000D01*
X228438000Y-109458000D01*
X228438000Y-110760000D01*
X228438000Y-110760000D01*
G37*
G36*
X213827000Y-110760000D02*
G01*
X212125000Y-110760000D01*
X212125000Y-109458000D01*
X213827000Y-109458000D01*
X213827000Y-110760000D01*
X213827000Y-110760000D01*
G37*
G36*
X216627000Y-110760000D02*
G01*
X214925000Y-110760000D01*
X214925000Y-109458000D01*
X216627000Y-109458000D01*
X216627000Y-110760000D01*
X216627000Y-110760000D01*
G37*
G36*
X57499552Y-109802331D02*
G01*
X57573351Y-109832900D01*
X57581629Y-109836329D01*
X57618209Y-109860771D01*
X57655495Y-109885685D01*
X57718315Y-109948505D01*
X57767672Y-110022373D01*
X57801669Y-110104448D01*
X57819000Y-110191579D01*
X57819000Y-110280421D01*
X57801669Y-110367552D01*
X57767672Y-110449627D01*
X57767671Y-110449629D01*
X57718314Y-110523496D01*
X57655496Y-110586314D01*
X57581629Y-110635671D01*
X57581628Y-110635672D01*
X57581627Y-110635672D01*
X57499552Y-110669669D01*
X57412421Y-110687000D01*
X57323579Y-110687000D01*
X57236448Y-110669669D01*
X57154373Y-110635672D01*
X57154372Y-110635672D01*
X57154371Y-110635671D01*
X57080504Y-110586314D01*
X57017686Y-110523496D01*
X56968329Y-110449629D01*
X56968328Y-110449627D01*
X56934331Y-110367552D01*
X56917000Y-110280421D01*
X56917000Y-110191579D01*
X56934331Y-110104448D01*
X56968328Y-110022373D01*
X57017685Y-109948505D01*
X57080505Y-109885685D01*
X57117791Y-109860771D01*
X57154371Y-109836329D01*
X57162649Y-109832900D01*
X57236448Y-109802331D01*
X57323579Y-109785000D01*
X57412421Y-109785000D01*
X57499552Y-109802331D01*
X57499552Y-109802331D01*
G37*
G36*
X50499552Y-109802331D02*
G01*
X50573351Y-109832900D01*
X50581629Y-109836329D01*
X50618209Y-109860771D01*
X50655495Y-109885685D01*
X50718315Y-109948505D01*
X50767672Y-110022373D01*
X50801669Y-110104448D01*
X50819000Y-110191579D01*
X50819000Y-110280421D01*
X50801669Y-110367552D01*
X50767672Y-110449627D01*
X50767671Y-110449629D01*
X50718314Y-110523496D01*
X50655496Y-110586314D01*
X50581629Y-110635671D01*
X50581628Y-110635672D01*
X50581627Y-110635672D01*
X50499552Y-110669669D01*
X50412421Y-110687000D01*
X50323579Y-110687000D01*
X50236448Y-110669669D01*
X50154373Y-110635672D01*
X50154372Y-110635672D01*
X50154371Y-110635671D01*
X50080504Y-110586314D01*
X50017686Y-110523496D01*
X49968329Y-110449629D01*
X49968328Y-110449627D01*
X49934331Y-110367552D01*
X49917000Y-110280421D01*
X49917000Y-110191579D01*
X49934331Y-110104448D01*
X49968328Y-110022373D01*
X50017685Y-109948505D01*
X50080505Y-109885685D01*
X50117791Y-109860771D01*
X50154371Y-109836329D01*
X50162649Y-109832900D01*
X50236448Y-109802331D01*
X50323579Y-109785000D01*
X50412421Y-109785000D01*
X50499552Y-109802331D01*
X50499552Y-109802331D01*
G37*
G36*
X242752552Y-109421331D02*
G01*
X242834627Y-109455328D01*
X242834629Y-109455329D01*
X242838626Y-109458000D01*
X242908495Y-109504685D01*
X242971315Y-109567505D01*
X243020672Y-109641373D01*
X243054669Y-109723448D01*
X243072000Y-109810579D01*
X243072000Y-109899421D01*
X243054669Y-109986552D01*
X243038666Y-110025185D01*
X243020671Y-110068629D01*
X242971314Y-110142496D01*
X242908496Y-110205314D01*
X242834629Y-110254671D01*
X242834628Y-110254672D01*
X242834627Y-110254672D01*
X242752552Y-110288669D01*
X242665421Y-110306000D01*
X242576579Y-110306000D01*
X242489448Y-110288669D01*
X242407373Y-110254672D01*
X242407372Y-110254672D01*
X242407371Y-110254671D01*
X242333504Y-110205314D01*
X242270686Y-110142496D01*
X242221329Y-110068629D01*
X242203334Y-110025185D01*
X242187331Y-109986552D01*
X242170000Y-109899421D01*
X242170000Y-109810579D01*
X242187331Y-109723448D01*
X242221328Y-109641373D01*
X242270685Y-109567505D01*
X242333505Y-109504685D01*
X242403374Y-109458000D01*
X242407371Y-109455329D01*
X242407373Y-109455328D01*
X242489448Y-109421331D01*
X242576579Y-109404000D01*
X242665421Y-109404000D01*
X242752552Y-109421331D01*
X242752552Y-109421331D01*
G37*
G36*
X235752552Y-109421331D02*
G01*
X235834627Y-109455328D01*
X235834629Y-109455329D01*
X235838626Y-109458000D01*
X235908495Y-109504685D01*
X235971315Y-109567505D01*
X236020672Y-109641373D01*
X236054669Y-109723448D01*
X236072000Y-109810579D01*
X236072000Y-109899421D01*
X236054669Y-109986552D01*
X236038666Y-110025185D01*
X236020671Y-110068629D01*
X235971314Y-110142496D01*
X235908496Y-110205314D01*
X235834629Y-110254671D01*
X235834628Y-110254672D01*
X235834627Y-110254672D01*
X235752552Y-110288669D01*
X235665421Y-110306000D01*
X235576579Y-110306000D01*
X235489448Y-110288669D01*
X235407373Y-110254672D01*
X235407372Y-110254672D01*
X235407371Y-110254671D01*
X235333504Y-110205314D01*
X235270686Y-110142496D01*
X235221329Y-110068629D01*
X235203334Y-110025185D01*
X235187331Y-109986552D01*
X235170000Y-109899421D01*
X235170000Y-109810579D01*
X235187331Y-109723448D01*
X235221328Y-109641373D01*
X235270685Y-109567505D01*
X235333505Y-109504685D01*
X235403374Y-109458000D01*
X235407371Y-109455329D01*
X235407373Y-109455328D01*
X235489448Y-109421331D01*
X235576579Y-109404000D01*
X235665421Y-109404000D01*
X235752552Y-109421331D01*
X235752552Y-109421331D01*
G37*
G36*
X60434823Y-107097313D02*
G01*
X60595242Y-107145976D01*
X60727906Y-107216886D01*
X60743078Y-107224996D01*
X60872659Y-107331341D01*
X60979004Y-107460922D01*
X60979005Y-107460924D01*
X61058024Y-107608758D01*
X61106687Y-107769177D01*
X61123117Y-107936000D01*
X61106687Y-108102823D01*
X61058024Y-108263242D01*
X61014310Y-108345025D01*
X60979004Y-108411078D01*
X60872659Y-108540659D01*
X60743078Y-108647004D01*
X60743076Y-108647005D01*
X60595242Y-108726024D01*
X60434823Y-108774687D01*
X60309804Y-108787000D01*
X59826196Y-108787000D01*
X59701177Y-108774687D01*
X59540758Y-108726024D01*
X59392924Y-108647005D01*
X59392922Y-108647004D01*
X59263341Y-108540659D01*
X59156996Y-108411078D01*
X59121690Y-108345025D01*
X59077976Y-108263242D01*
X59029313Y-108102823D01*
X59012883Y-107936000D01*
X59029313Y-107769177D01*
X59077976Y-107608758D01*
X59156995Y-107460924D01*
X59156996Y-107460922D01*
X59263341Y-107331341D01*
X59392922Y-107224996D01*
X59408094Y-107216886D01*
X59540758Y-107145976D01*
X59701177Y-107097313D01*
X59826196Y-107085000D01*
X60309804Y-107085000D01*
X60434823Y-107097313D01*
X60434823Y-107097313D01*
G37*
G36*
X234387823Y-106716313D02*
G01*
X234548242Y-106764976D01*
X234680906Y-106835886D01*
X234696078Y-106843996D01*
X234825659Y-106950341D01*
X234932004Y-107079922D01*
X234932005Y-107079924D01*
X235011024Y-107227758D01*
X235059687Y-107388177D01*
X235076117Y-107555000D01*
X235059687Y-107721823D01*
X235011024Y-107882242D01*
X234940114Y-108014906D01*
X234932004Y-108030078D01*
X234825659Y-108159659D01*
X234696078Y-108266004D01*
X234696076Y-108266005D01*
X234548242Y-108345024D01*
X234387823Y-108393687D01*
X234262804Y-108406000D01*
X233779196Y-108406000D01*
X233654177Y-108393687D01*
X233493758Y-108345024D01*
X233345924Y-108266005D01*
X233345922Y-108266004D01*
X233216341Y-108159659D01*
X233109996Y-108030078D01*
X233101886Y-108014906D01*
X233030976Y-107882242D01*
X232982313Y-107721823D01*
X232965883Y-107555000D01*
X232982313Y-107388177D01*
X233030976Y-107227758D01*
X233109995Y-107079924D01*
X233109996Y-107079922D01*
X233216341Y-106950341D01*
X233345922Y-106843996D01*
X233361094Y-106835886D01*
X233493758Y-106764976D01*
X233654177Y-106716313D01*
X233779196Y-106704000D01*
X234262804Y-106704000D01*
X234387823Y-106716313D01*
X234387823Y-106716313D01*
G37*
G36*
X241387823Y-106716313D02*
G01*
X241548242Y-106764976D01*
X241680906Y-106835886D01*
X241696078Y-106843996D01*
X241825659Y-106950341D01*
X241932004Y-107079922D01*
X241932005Y-107079924D01*
X242011024Y-107227758D01*
X242059687Y-107388177D01*
X242076117Y-107555000D01*
X242059687Y-107721823D01*
X242011024Y-107882242D01*
X241940114Y-108014906D01*
X241932004Y-108030078D01*
X241825659Y-108159659D01*
X241696078Y-108266004D01*
X241696076Y-108266005D01*
X241548242Y-108345024D01*
X241387823Y-108393687D01*
X241262804Y-108406000D01*
X240779196Y-108406000D01*
X240654177Y-108393687D01*
X240493758Y-108345024D01*
X240345924Y-108266005D01*
X240345922Y-108266004D01*
X240216341Y-108159659D01*
X240109996Y-108030078D01*
X240101886Y-108014906D01*
X240030976Y-107882242D01*
X239982313Y-107721823D01*
X239965883Y-107555000D01*
X239982313Y-107388177D01*
X240030976Y-107227758D01*
X240109995Y-107079924D01*
X240109996Y-107079922D01*
X240216341Y-106950341D01*
X240345922Y-106843996D01*
X240361094Y-106835886D01*
X240493758Y-106764976D01*
X240654177Y-106716313D01*
X240779196Y-106704000D01*
X241262804Y-106704000D01*
X241387823Y-106716313D01*
X241387823Y-106716313D01*
G37*
G36*
X238387823Y-106716313D02*
G01*
X238548242Y-106764976D01*
X238680906Y-106835886D01*
X238696078Y-106843996D01*
X238825659Y-106950341D01*
X238932004Y-107079922D01*
X238932005Y-107079924D01*
X239011024Y-107227758D01*
X239059687Y-107388177D01*
X239076117Y-107555000D01*
X239059687Y-107721823D01*
X239011024Y-107882242D01*
X238940114Y-108014906D01*
X238932004Y-108030078D01*
X238825659Y-108159659D01*
X238696078Y-108266004D01*
X238696076Y-108266005D01*
X238548242Y-108345024D01*
X238387823Y-108393687D01*
X238262804Y-108406000D01*
X237779196Y-108406000D01*
X237654177Y-108393687D01*
X237493758Y-108345024D01*
X237345924Y-108266005D01*
X237345922Y-108266004D01*
X237216341Y-108159659D01*
X237109996Y-108030078D01*
X237101886Y-108014906D01*
X237030976Y-107882242D01*
X236982313Y-107721823D01*
X236965883Y-107555000D01*
X236982313Y-107388177D01*
X237030976Y-107227758D01*
X237109995Y-107079924D01*
X237109996Y-107079922D01*
X237216341Y-106950341D01*
X237345922Y-106843996D01*
X237361094Y-106835886D01*
X237493758Y-106764976D01*
X237654177Y-106716313D01*
X237779196Y-106704000D01*
X238262804Y-106704000D01*
X238387823Y-106716313D01*
X238387823Y-106716313D01*
G37*
G36*
X79082474Y-102173684D02*
G01*
X79300474Y-102263983D01*
X79454623Y-102327833D01*
X79789548Y-102551623D01*
X80074377Y-102836452D01*
X80298167Y-103171377D01*
X80330562Y-103249586D01*
X80452316Y-103543526D01*
X80530900Y-103938594D01*
X80530900Y-104341406D01*
X80452316Y-104736474D01*
X80401451Y-104859272D01*
X80298167Y-105108623D01*
X80074377Y-105443548D01*
X79789548Y-105728377D01*
X79454623Y-105952167D01*
X79389079Y-105979316D01*
X79082474Y-106106316D01*
X78687406Y-106184900D01*
X78284594Y-106184900D01*
X77889526Y-106106316D01*
X77582921Y-105979316D01*
X77517377Y-105952167D01*
X77182452Y-105728377D01*
X76897623Y-105443548D01*
X76673833Y-105108623D01*
X76570549Y-104859272D01*
X76519684Y-104736474D01*
X76441100Y-104341406D01*
X76441100Y-103938594D01*
X76519684Y-103543526D01*
X76641438Y-103249586D01*
X76673833Y-103171377D01*
X76897623Y-102836452D01*
X77182452Y-102551623D01*
X77517377Y-102327833D01*
X77671526Y-102263983D01*
X77889526Y-102173684D01*
X78284594Y-102095100D01*
X78687406Y-102095100D01*
X79082474Y-102173684D01*
X79082474Y-102173684D01*
G37*
G36*
X98259474Y-102173684D02*
G01*
X98477474Y-102263983D01*
X98631623Y-102327833D01*
X98966548Y-102551623D01*
X99251377Y-102836452D01*
X99475167Y-103171377D01*
X99507562Y-103249586D01*
X99629316Y-103543526D01*
X99707900Y-103938594D01*
X99707900Y-104341406D01*
X99629316Y-104736474D01*
X99578451Y-104859272D01*
X99475167Y-105108623D01*
X99251377Y-105443548D01*
X98966548Y-105728377D01*
X98631623Y-105952167D01*
X98566079Y-105979316D01*
X98259474Y-106106316D01*
X97864406Y-106184900D01*
X97461594Y-106184900D01*
X97066526Y-106106316D01*
X96759921Y-105979316D01*
X96694377Y-105952167D01*
X96359452Y-105728377D01*
X96074623Y-105443548D01*
X95850833Y-105108623D01*
X95747549Y-104859272D01*
X95696684Y-104736474D01*
X95618100Y-104341406D01*
X95618100Y-103938594D01*
X95696684Y-103543526D01*
X95818438Y-103249586D01*
X95850833Y-103171377D01*
X96074623Y-102836452D01*
X96359452Y-102551623D01*
X96694377Y-102327833D01*
X96848526Y-102263983D01*
X97066526Y-102173684D01*
X97461594Y-102095100D01*
X97864406Y-102095100D01*
X98259474Y-102173684D01*
X98259474Y-102173684D01*
G37*
G36*
X60032474Y-102173684D02*
G01*
X60250474Y-102263983D01*
X60404623Y-102327833D01*
X60739548Y-102551623D01*
X61024377Y-102836452D01*
X61248167Y-103171377D01*
X61280562Y-103249586D01*
X61402316Y-103543526D01*
X61480900Y-103938594D01*
X61480900Y-104341406D01*
X61402316Y-104736474D01*
X61351451Y-104859272D01*
X61248167Y-105108623D01*
X61024377Y-105443548D01*
X60739548Y-105728377D01*
X60404623Y-105952167D01*
X60339079Y-105979316D01*
X60032474Y-106106316D01*
X59637406Y-106184900D01*
X59234594Y-106184900D01*
X58839526Y-106106316D01*
X58532921Y-105979316D01*
X58467377Y-105952167D01*
X58132452Y-105728377D01*
X57847623Y-105443548D01*
X57623833Y-105108623D01*
X57520549Y-104859272D01*
X57469684Y-104736474D01*
X57391100Y-104341406D01*
X57391100Y-103938594D01*
X57469684Y-103543526D01*
X57591438Y-103249586D01*
X57623833Y-103171377D01*
X57847623Y-102836452D01*
X58132452Y-102551623D01*
X58467377Y-102327833D01*
X58621526Y-102263983D01*
X58839526Y-102173684D01*
X59234594Y-102095100D01*
X59637406Y-102095100D01*
X60032474Y-102173684D01*
X60032474Y-102173684D01*
G37*
G36*
X136359474Y-102173684D02*
G01*
X136577474Y-102263983D01*
X136731623Y-102327833D01*
X137066548Y-102551623D01*
X137351377Y-102836452D01*
X137575167Y-103171377D01*
X137607562Y-103249586D01*
X137729316Y-103543526D01*
X137807900Y-103938594D01*
X137807900Y-104341406D01*
X137729316Y-104736474D01*
X137678451Y-104859272D01*
X137575167Y-105108623D01*
X137351377Y-105443548D01*
X137066548Y-105728377D01*
X136731623Y-105952167D01*
X136666079Y-105979316D01*
X136359474Y-106106316D01*
X135964406Y-106184900D01*
X135561594Y-106184900D01*
X135166526Y-106106316D01*
X134859921Y-105979316D01*
X134794377Y-105952167D01*
X134459452Y-105728377D01*
X134174623Y-105443548D01*
X133950833Y-105108623D01*
X133847549Y-104859272D01*
X133796684Y-104736474D01*
X133718100Y-104341406D01*
X133718100Y-103938594D01*
X133796684Y-103543526D01*
X133918438Y-103249586D01*
X133950833Y-103171377D01*
X134174623Y-102836452D01*
X134459452Y-102551623D01*
X134794377Y-102327833D01*
X134948526Y-102263983D01*
X135166526Y-102173684D01*
X135561594Y-102095100D01*
X135964406Y-102095100D01*
X136359474Y-102173684D01*
X136359474Y-102173684D01*
G37*
G36*
X117309474Y-102173684D02*
G01*
X117527474Y-102263983D01*
X117681623Y-102327833D01*
X118016548Y-102551623D01*
X118301377Y-102836452D01*
X118525167Y-103171377D01*
X118557562Y-103249586D01*
X118679316Y-103543526D01*
X118757900Y-103938594D01*
X118757900Y-104341406D01*
X118679316Y-104736474D01*
X118628451Y-104859272D01*
X118525167Y-105108623D01*
X118301377Y-105443548D01*
X118016548Y-105728377D01*
X117681623Y-105952167D01*
X117616079Y-105979316D01*
X117309474Y-106106316D01*
X116914406Y-106184900D01*
X116511594Y-106184900D01*
X116116526Y-106106316D01*
X115809921Y-105979316D01*
X115744377Y-105952167D01*
X115409452Y-105728377D01*
X115124623Y-105443548D01*
X114900833Y-105108623D01*
X114797549Y-104859272D01*
X114746684Y-104736474D01*
X114668100Y-104341406D01*
X114668100Y-103938594D01*
X114746684Y-103543526D01*
X114868438Y-103249586D01*
X114900833Y-103171377D01*
X115124623Y-102836452D01*
X115409452Y-102551623D01*
X115744377Y-102327833D01*
X115898526Y-102263983D01*
X116116526Y-102173684D01*
X116511594Y-102095100D01*
X116914406Y-102095100D01*
X117309474Y-102173684D01*
X117309474Y-102173684D01*
G37*
G36*
X234149474Y-102046684D02*
G01*
X234266360Y-102095100D01*
X234521623Y-102200833D01*
X234856548Y-102424623D01*
X235141377Y-102709452D01*
X235365167Y-103044377D01*
X235397562Y-103122586D01*
X235519316Y-103416526D01*
X235597900Y-103811594D01*
X235597900Y-104214406D01*
X235519316Y-104609474D01*
X235468451Y-104732272D01*
X235365167Y-104981623D01*
X235141377Y-105316548D01*
X234856548Y-105601377D01*
X234521623Y-105825167D01*
X234367474Y-105889017D01*
X234149474Y-105979316D01*
X233754406Y-106057900D01*
X233351594Y-106057900D01*
X232956526Y-105979316D01*
X232738526Y-105889017D01*
X232584377Y-105825167D01*
X232249452Y-105601377D01*
X231964623Y-105316548D01*
X231740833Y-104981623D01*
X231637549Y-104732272D01*
X231586684Y-104609474D01*
X231508100Y-104214406D01*
X231508100Y-103811594D01*
X231586684Y-103416526D01*
X231708438Y-103122586D01*
X231740833Y-103044377D01*
X231964623Y-102709452D01*
X232249452Y-102424623D01*
X232584377Y-102200833D01*
X232839640Y-102095100D01*
X232956526Y-102046684D01*
X233351594Y-101968100D01*
X233754406Y-101968100D01*
X234149474Y-102046684D01*
X234149474Y-102046684D01*
G37*
G36*
X176999474Y-102046684D02*
G01*
X177116360Y-102095100D01*
X177371623Y-102200833D01*
X177706548Y-102424623D01*
X177991377Y-102709452D01*
X178215167Y-103044377D01*
X178247562Y-103122586D01*
X178369316Y-103416526D01*
X178447900Y-103811594D01*
X178447900Y-104214406D01*
X178369316Y-104609474D01*
X178318451Y-104732272D01*
X178215167Y-104981623D01*
X177991377Y-105316548D01*
X177706548Y-105601377D01*
X177371623Y-105825167D01*
X177217474Y-105889017D01*
X176999474Y-105979316D01*
X176604406Y-106057900D01*
X176201594Y-106057900D01*
X175806526Y-105979316D01*
X175588526Y-105889017D01*
X175434377Y-105825167D01*
X175099452Y-105601377D01*
X174814623Y-105316548D01*
X174590833Y-104981623D01*
X174487549Y-104732272D01*
X174436684Y-104609474D01*
X174358100Y-104214406D01*
X174358100Y-103811594D01*
X174436684Y-103416526D01*
X174558438Y-103122586D01*
X174590833Y-103044377D01*
X174814623Y-102709452D01*
X175099452Y-102424623D01*
X175434377Y-102200833D01*
X175689640Y-102095100D01*
X175806526Y-102046684D01*
X176201594Y-101968100D01*
X176604406Y-101968100D01*
X176999474Y-102046684D01*
X176999474Y-102046684D01*
G37*
G36*
X214972474Y-102046684D02*
G01*
X215089360Y-102095100D01*
X215344623Y-102200833D01*
X215679548Y-102424623D01*
X215964377Y-102709452D01*
X216188167Y-103044377D01*
X216220562Y-103122586D01*
X216342316Y-103416526D01*
X216420900Y-103811594D01*
X216420900Y-104214406D01*
X216342316Y-104609474D01*
X216291451Y-104732272D01*
X216188167Y-104981623D01*
X215964377Y-105316548D01*
X215679548Y-105601377D01*
X215344623Y-105825167D01*
X215190474Y-105889017D01*
X214972474Y-105979316D01*
X214577406Y-106057900D01*
X214174594Y-106057900D01*
X213779526Y-105979316D01*
X213561526Y-105889017D01*
X213407377Y-105825167D01*
X213072452Y-105601377D01*
X212787623Y-105316548D01*
X212563833Y-104981623D01*
X212460549Y-104732272D01*
X212409684Y-104609474D01*
X212331100Y-104214406D01*
X212331100Y-103811594D01*
X212409684Y-103416526D01*
X212531438Y-103122586D01*
X212563833Y-103044377D01*
X212787623Y-102709452D01*
X213072452Y-102424623D01*
X213407377Y-102200833D01*
X213662640Y-102095100D01*
X213779526Y-102046684D01*
X214174594Y-101968100D01*
X214577406Y-101968100D01*
X214972474Y-102046684D01*
X214972474Y-102046684D01*
G37*
G36*
X157949474Y-102046684D02*
G01*
X158066360Y-102095100D01*
X158321623Y-102200833D01*
X158656548Y-102424623D01*
X158941377Y-102709452D01*
X159165167Y-103044377D01*
X159197562Y-103122586D01*
X159319316Y-103416526D01*
X159397900Y-103811594D01*
X159397900Y-104214406D01*
X159319316Y-104609474D01*
X159268451Y-104732272D01*
X159165167Y-104981623D01*
X158941377Y-105316548D01*
X158656548Y-105601377D01*
X158321623Y-105825167D01*
X158167474Y-105889017D01*
X157949474Y-105979316D01*
X157554406Y-106057900D01*
X157151594Y-106057900D01*
X156756526Y-105979316D01*
X156538526Y-105889017D01*
X156384377Y-105825167D01*
X156049452Y-105601377D01*
X155764623Y-105316548D01*
X155540833Y-104981623D01*
X155437549Y-104732272D01*
X155386684Y-104609474D01*
X155308100Y-104214406D01*
X155308100Y-103811594D01*
X155386684Y-103416526D01*
X155508438Y-103122586D01*
X155540833Y-103044377D01*
X155764623Y-102709452D01*
X156049452Y-102424623D01*
X156384377Y-102200833D01*
X156639640Y-102095100D01*
X156756526Y-102046684D01*
X157151594Y-101968100D01*
X157554406Y-101968100D01*
X157949474Y-102046684D01*
X157949474Y-102046684D01*
G37*
G36*
X195922474Y-102046684D02*
G01*
X196039360Y-102095100D01*
X196294623Y-102200833D01*
X196629548Y-102424623D01*
X196914377Y-102709452D01*
X197138167Y-103044377D01*
X197170562Y-103122586D01*
X197292316Y-103416526D01*
X197370900Y-103811594D01*
X197370900Y-104214406D01*
X197292316Y-104609474D01*
X197241451Y-104732272D01*
X197138167Y-104981623D01*
X196914377Y-105316548D01*
X196629548Y-105601377D01*
X196294623Y-105825167D01*
X196140474Y-105889017D01*
X195922474Y-105979316D01*
X195527406Y-106057900D01*
X195124594Y-106057900D01*
X194729526Y-105979316D01*
X194511526Y-105889017D01*
X194357377Y-105825167D01*
X194022452Y-105601377D01*
X193737623Y-105316548D01*
X193513833Y-104981623D01*
X193410549Y-104732272D01*
X193359684Y-104609474D01*
X193281100Y-104214406D01*
X193281100Y-103811594D01*
X193359684Y-103416526D01*
X193481438Y-103122586D01*
X193513833Y-103044377D01*
X193737623Y-102709452D01*
X194022452Y-102424623D01*
X194357377Y-102200833D01*
X194612640Y-102095100D01*
X194729526Y-102046684D01*
X195124594Y-101968100D01*
X195527406Y-101968100D01*
X195922474Y-102046684D01*
X195922474Y-102046684D01*
G37*
G36*
X64786104Y-103249585D02*
G01*
X64954626Y-103319389D01*
X65106291Y-103420728D01*
X65235272Y-103549709D01*
X65336611Y-103701374D01*
X65406415Y-103869896D01*
X65442000Y-104048797D01*
X65442000Y-104231203D01*
X65406415Y-104410104D01*
X65336611Y-104578626D01*
X65235272Y-104730291D01*
X65106291Y-104859272D01*
X64954626Y-104960611D01*
X64786104Y-105030415D01*
X64607203Y-105066000D01*
X64424797Y-105066000D01*
X64245896Y-105030415D01*
X64077374Y-104960611D01*
X63925709Y-104859272D01*
X63796728Y-104730291D01*
X63695389Y-104578626D01*
X63625585Y-104410104D01*
X63590000Y-104231203D01*
X63590000Y-104048797D01*
X63625585Y-103869896D01*
X63695389Y-103701374D01*
X63796728Y-103549709D01*
X63925709Y-103420728D01*
X64077374Y-103319389D01*
X64245896Y-103249585D01*
X64424797Y-103214000D01*
X64607203Y-103214000D01*
X64786104Y-103249585D01*
X64786104Y-103249585D01*
G37*
G36*
X141113104Y-103249585D02*
G01*
X141281626Y-103319389D01*
X141433291Y-103420728D01*
X141562272Y-103549709D01*
X141663611Y-103701374D01*
X141733415Y-103869896D01*
X141769000Y-104048797D01*
X141769000Y-104231203D01*
X141733415Y-104410104D01*
X141663611Y-104578626D01*
X141562272Y-104730291D01*
X141433291Y-104859272D01*
X141281626Y-104960611D01*
X141113104Y-105030415D01*
X140934203Y-105066000D01*
X140751797Y-105066000D01*
X140572896Y-105030415D01*
X140404374Y-104960611D01*
X140252709Y-104859272D01*
X140123728Y-104730291D01*
X140022389Y-104578626D01*
X139952585Y-104410104D01*
X139917000Y-104231203D01*
X139917000Y-104048797D01*
X139952585Y-103869896D01*
X140022389Y-103701374D01*
X140123728Y-103549709D01*
X140252709Y-103420728D01*
X140404374Y-103319389D01*
X140572896Y-103249585D01*
X140751797Y-103214000D01*
X140934203Y-103214000D01*
X141113104Y-103249585D01*
X141113104Y-103249585D01*
G37*
G36*
X130953104Y-103249585D02*
G01*
X131121626Y-103319389D01*
X131273291Y-103420728D01*
X131402272Y-103549709D01*
X131503611Y-103701374D01*
X131573415Y-103869896D01*
X131609000Y-104048797D01*
X131609000Y-104231203D01*
X131573415Y-104410104D01*
X131503611Y-104578626D01*
X131402272Y-104730291D01*
X131273291Y-104859272D01*
X131121626Y-104960611D01*
X130953104Y-105030415D01*
X130774203Y-105066000D01*
X130591797Y-105066000D01*
X130412896Y-105030415D01*
X130244374Y-104960611D01*
X130092709Y-104859272D01*
X129963728Y-104730291D01*
X129862389Y-104578626D01*
X129792585Y-104410104D01*
X129757000Y-104231203D01*
X129757000Y-104048797D01*
X129792585Y-103869896D01*
X129862389Y-103701374D01*
X129963728Y-103549709D01*
X130092709Y-103420728D01*
X130244374Y-103319389D01*
X130412896Y-103249585D01*
X130591797Y-103214000D01*
X130774203Y-103214000D01*
X130953104Y-103249585D01*
X130953104Y-103249585D01*
G37*
G36*
X54626104Y-103249585D02*
G01*
X54794626Y-103319389D01*
X54946291Y-103420728D01*
X55075272Y-103549709D01*
X55176611Y-103701374D01*
X55246415Y-103869896D01*
X55282000Y-104048797D01*
X55282000Y-104231203D01*
X55246415Y-104410104D01*
X55176611Y-104578626D01*
X55075272Y-104730291D01*
X54946291Y-104859272D01*
X54794626Y-104960611D01*
X54626104Y-105030415D01*
X54447203Y-105066000D01*
X54264797Y-105066000D01*
X54085896Y-105030415D01*
X53917374Y-104960611D01*
X53765709Y-104859272D01*
X53636728Y-104730291D01*
X53535389Y-104578626D01*
X53465585Y-104410104D01*
X53430000Y-104231203D01*
X53430000Y-104048797D01*
X53465585Y-103869896D01*
X53535389Y-103701374D01*
X53636728Y-103549709D01*
X53765709Y-103420728D01*
X53917374Y-103319389D01*
X54085896Y-103249585D01*
X54264797Y-103214000D01*
X54447203Y-103214000D01*
X54626104Y-103249585D01*
X54626104Y-103249585D01*
G37*
G36*
X83836104Y-103249585D02*
G01*
X84004626Y-103319389D01*
X84156291Y-103420728D01*
X84285272Y-103549709D01*
X84386611Y-103701374D01*
X84456415Y-103869896D01*
X84492000Y-104048797D01*
X84492000Y-104231203D01*
X84456415Y-104410104D01*
X84386611Y-104578626D01*
X84285272Y-104730291D01*
X84156291Y-104859272D01*
X84004626Y-104960611D01*
X83836104Y-105030415D01*
X83657203Y-105066000D01*
X83474797Y-105066000D01*
X83295896Y-105030415D01*
X83127374Y-104960611D01*
X82975709Y-104859272D01*
X82846728Y-104730291D01*
X82745389Y-104578626D01*
X82675585Y-104410104D01*
X82640000Y-104231203D01*
X82640000Y-104048797D01*
X82675585Y-103869896D01*
X82745389Y-103701374D01*
X82846728Y-103549709D01*
X82975709Y-103420728D01*
X83127374Y-103319389D01*
X83295896Y-103249585D01*
X83474797Y-103214000D01*
X83657203Y-103214000D01*
X83836104Y-103249585D01*
X83836104Y-103249585D01*
G37*
G36*
X122063104Y-103249585D02*
G01*
X122231626Y-103319389D01*
X122383291Y-103420728D01*
X122512272Y-103549709D01*
X122613611Y-103701374D01*
X122683415Y-103869896D01*
X122719000Y-104048797D01*
X122719000Y-104231203D01*
X122683415Y-104410104D01*
X122613611Y-104578626D01*
X122512272Y-104730291D01*
X122383291Y-104859272D01*
X122231626Y-104960611D01*
X122063104Y-105030415D01*
X121884203Y-105066000D01*
X121701797Y-105066000D01*
X121522896Y-105030415D01*
X121354374Y-104960611D01*
X121202709Y-104859272D01*
X121073728Y-104730291D01*
X120972389Y-104578626D01*
X120902585Y-104410104D01*
X120867000Y-104231203D01*
X120867000Y-104048797D01*
X120902585Y-103869896D01*
X120972389Y-103701374D01*
X121073728Y-103549709D01*
X121202709Y-103420728D01*
X121354374Y-103319389D01*
X121522896Y-103249585D01*
X121701797Y-103214000D01*
X121884203Y-103214000D01*
X122063104Y-103249585D01*
X122063104Y-103249585D01*
G37*
G36*
X111903104Y-103249585D02*
G01*
X112071626Y-103319389D01*
X112223291Y-103420728D01*
X112352272Y-103549709D01*
X112453611Y-103701374D01*
X112523415Y-103869896D01*
X112559000Y-104048797D01*
X112559000Y-104231203D01*
X112523415Y-104410104D01*
X112453611Y-104578626D01*
X112352272Y-104730291D01*
X112223291Y-104859272D01*
X112071626Y-104960611D01*
X111903104Y-105030415D01*
X111724203Y-105066000D01*
X111541797Y-105066000D01*
X111362896Y-105030415D01*
X111194374Y-104960611D01*
X111042709Y-104859272D01*
X110913728Y-104730291D01*
X110812389Y-104578626D01*
X110742585Y-104410104D01*
X110707000Y-104231203D01*
X110707000Y-104048797D01*
X110742585Y-103869896D01*
X110812389Y-103701374D01*
X110913728Y-103549709D01*
X111042709Y-103420728D01*
X111194374Y-103319389D01*
X111362896Y-103249585D01*
X111541797Y-103214000D01*
X111724203Y-103214000D01*
X111903104Y-103249585D01*
X111903104Y-103249585D01*
G37*
G36*
X92853104Y-103249585D02*
G01*
X93021626Y-103319389D01*
X93173291Y-103420728D01*
X93302272Y-103549709D01*
X93403611Y-103701374D01*
X93473415Y-103869896D01*
X93509000Y-104048797D01*
X93509000Y-104231203D01*
X93473415Y-104410104D01*
X93403611Y-104578626D01*
X93302272Y-104730291D01*
X93173291Y-104859272D01*
X93021626Y-104960611D01*
X92853104Y-105030415D01*
X92674203Y-105066000D01*
X92491797Y-105066000D01*
X92312896Y-105030415D01*
X92144374Y-104960611D01*
X91992709Y-104859272D01*
X91863728Y-104730291D01*
X91762389Y-104578626D01*
X91692585Y-104410104D01*
X91657000Y-104231203D01*
X91657000Y-104048797D01*
X91692585Y-103869896D01*
X91762389Y-103701374D01*
X91863728Y-103549709D01*
X91992709Y-103420728D01*
X92144374Y-103319389D01*
X92312896Y-103249585D01*
X92491797Y-103214000D01*
X92674203Y-103214000D01*
X92853104Y-103249585D01*
X92853104Y-103249585D01*
G37*
G36*
X73676104Y-103249585D02*
G01*
X73844626Y-103319389D01*
X73996291Y-103420728D01*
X74125272Y-103549709D01*
X74226611Y-103701374D01*
X74296415Y-103869896D01*
X74332000Y-104048797D01*
X74332000Y-104231203D01*
X74296415Y-104410104D01*
X74226611Y-104578626D01*
X74125272Y-104730291D01*
X73996291Y-104859272D01*
X73844626Y-104960611D01*
X73676104Y-105030415D01*
X73497203Y-105066000D01*
X73314797Y-105066000D01*
X73135896Y-105030415D01*
X72967374Y-104960611D01*
X72815709Y-104859272D01*
X72686728Y-104730291D01*
X72585389Y-104578626D01*
X72515585Y-104410104D01*
X72480000Y-104231203D01*
X72480000Y-104048797D01*
X72515585Y-103869896D01*
X72585389Y-103701374D01*
X72686728Y-103549709D01*
X72815709Y-103420728D01*
X72967374Y-103319389D01*
X73135896Y-103249585D01*
X73314797Y-103214000D01*
X73497203Y-103214000D01*
X73676104Y-103249585D01*
X73676104Y-103249585D01*
G37*
G36*
X103013104Y-103249585D02*
G01*
X103181626Y-103319389D01*
X103333291Y-103420728D01*
X103462272Y-103549709D01*
X103563611Y-103701374D01*
X103633415Y-103869896D01*
X103669000Y-104048797D01*
X103669000Y-104231203D01*
X103633415Y-104410104D01*
X103563611Y-104578626D01*
X103462272Y-104730291D01*
X103333291Y-104859272D01*
X103181626Y-104960611D01*
X103013104Y-105030415D01*
X102834203Y-105066000D01*
X102651797Y-105066000D01*
X102472896Y-105030415D01*
X102304374Y-104960611D01*
X102152709Y-104859272D01*
X102023728Y-104730291D01*
X101922389Y-104578626D01*
X101852585Y-104410104D01*
X101817000Y-104231203D01*
X101817000Y-104048797D01*
X101852585Y-103869896D01*
X101922389Y-103701374D01*
X102023728Y-103549709D01*
X102152709Y-103420728D01*
X102304374Y-103319389D01*
X102472896Y-103249585D01*
X102651797Y-103214000D01*
X102834203Y-103214000D01*
X103013104Y-103249585D01*
X103013104Y-103249585D01*
G37*
G36*
X152543104Y-103122585D02*
G01*
X152711626Y-103192389D01*
X152863291Y-103293728D01*
X152992272Y-103422709D01*
X153093611Y-103574374D01*
X153163415Y-103742896D01*
X153199000Y-103921797D01*
X153199000Y-104104203D01*
X153163415Y-104283104D01*
X153093611Y-104451626D01*
X152992272Y-104603291D01*
X152863291Y-104732272D01*
X152711626Y-104833611D01*
X152543104Y-104903415D01*
X152364203Y-104939000D01*
X152181797Y-104939000D01*
X152002896Y-104903415D01*
X151834374Y-104833611D01*
X151682709Y-104732272D01*
X151553728Y-104603291D01*
X151452389Y-104451626D01*
X151382585Y-104283104D01*
X151347000Y-104104203D01*
X151347000Y-103921797D01*
X151382585Y-103742896D01*
X151452389Y-103574374D01*
X151553728Y-103422709D01*
X151682709Y-103293728D01*
X151834374Y-103192389D01*
X152002896Y-103122585D01*
X152181797Y-103087000D01*
X152364203Y-103087000D01*
X152543104Y-103122585D01*
X152543104Y-103122585D01*
G37*
G36*
X228743104Y-103122585D02*
G01*
X228911626Y-103192389D01*
X229063291Y-103293728D01*
X229192272Y-103422709D01*
X229293611Y-103574374D01*
X229363415Y-103742896D01*
X229399000Y-103921797D01*
X229399000Y-104104203D01*
X229363415Y-104283104D01*
X229293611Y-104451626D01*
X229192272Y-104603291D01*
X229063291Y-104732272D01*
X228911626Y-104833611D01*
X228743104Y-104903415D01*
X228564203Y-104939000D01*
X228381797Y-104939000D01*
X228202896Y-104903415D01*
X228034374Y-104833611D01*
X227882709Y-104732272D01*
X227753728Y-104603291D01*
X227652389Y-104451626D01*
X227582585Y-104283104D01*
X227547000Y-104104203D01*
X227547000Y-103921797D01*
X227582585Y-103742896D01*
X227652389Y-103574374D01*
X227753728Y-103422709D01*
X227882709Y-103293728D01*
X228034374Y-103192389D01*
X228202896Y-103122585D01*
X228381797Y-103087000D01*
X228564203Y-103087000D01*
X228743104Y-103122585D01*
X228743104Y-103122585D01*
G37*
G36*
X238903104Y-103122585D02*
G01*
X239071626Y-103192389D01*
X239223291Y-103293728D01*
X239352272Y-103422709D01*
X239453611Y-103574374D01*
X239523415Y-103742896D01*
X239559000Y-103921797D01*
X239559000Y-104104203D01*
X239523415Y-104283104D01*
X239453611Y-104451626D01*
X239352272Y-104603291D01*
X239223291Y-104732272D01*
X239071626Y-104833611D01*
X238903104Y-104903415D01*
X238724203Y-104939000D01*
X238541797Y-104939000D01*
X238362896Y-104903415D01*
X238194374Y-104833611D01*
X238042709Y-104732272D01*
X237913728Y-104603291D01*
X237812389Y-104451626D01*
X237742585Y-104283104D01*
X237707000Y-104104203D01*
X237707000Y-103921797D01*
X237742585Y-103742896D01*
X237812389Y-103574374D01*
X237913728Y-103422709D01*
X238042709Y-103293728D01*
X238194374Y-103192389D01*
X238362896Y-103122585D01*
X238541797Y-103087000D01*
X238724203Y-103087000D01*
X238903104Y-103122585D01*
X238903104Y-103122585D01*
G37*
G36*
X162703104Y-103122585D02*
G01*
X162871626Y-103192389D01*
X163023291Y-103293728D01*
X163152272Y-103422709D01*
X163253611Y-103574374D01*
X163323415Y-103742896D01*
X163359000Y-103921797D01*
X163359000Y-104104203D01*
X163323415Y-104283104D01*
X163253611Y-104451626D01*
X163152272Y-104603291D01*
X163023291Y-104732272D01*
X162871626Y-104833611D01*
X162703104Y-104903415D01*
X162524203Y-104939000D01*
X162341797Y-104939000D01*
X162162896Y-104903415D01*
X161994374Y-104833611D01*
X161842709Y-104732272D01*
X161713728Y-104603291D01*
X161612389Y-104451626D01*
X161542585Y-104283104D01*
X161507000Y-104104203D01*
X161507000Y-103921797D01*
X161542585Y-103742896D01*
X161612389Y-103574374D01*
X161713728Y-103422709D01*
X161842709Y-103293728D01*
X161994374Y-103192389D01*
X162162896Y-103122585D01*
X162341797Y-103087000D01*
X162524203Y-103087000D01*
X162703104Y-103122585D01*
X162703104Y-103122585D01*
G37*
G36*
X171593104Y-103122585D02*
G01*
X171761626Y-103192389D01*
X171913291Y-103293728D01*
X172042272Y-103422709D01*
X172143611Y-103574374D01*
X172213415Y-103742896D01*
X172249000Y-103921797D01*
X172249000Y-104104203D01*
X172213415Y-104283104D01*
X172143611Y-104451626D01*
X172042272Y-104603291D01*
X171913291Y-104732272D01*
X171761626Y-104833611D01*
X171593104Y-104903415D01*
X171414203Y-104939000D01*
X171231797Y-104939000D01*
X171052896Y-104903415D01*
X170884374Y-104833611D01*
X170732709Y-104732272D01*
X170603728Y-104603291D01*
X170502389Y-104451626D01*
X170432585Y-104283104D01*
X170397000Y-104104203D01*
X170397000Y-103921797D01*
X170432585Y-103742896D01*
X170502389Y-103574374D01*
X170603728Y-103422709D01*
X170732709Y-103293728D01*
X170884374Y-103192389D01*
X171052896Y-103122585D01*
X171231797Y-103087000D01*
X171414203Y-103087000D01*
X171593104Y-103122585D01*
X171593104Y-103122585D01*
G37*
G36*
X190516104Y-103122585D02*
G01*
X190684626Y-103192389D01*
X190836291Y-103293728D01*
X190965272Y-103422709D01*
X191066611Y-103574374D01*
X191136415Y-103742896D01*
X191172000Y-103921797D01*
X191172000Y-104104203D01*
X191136415Y-104283104D01*
X191066611Y-104451626D01*
X190965272Y-104603291D01*
X190836291Y-104732272D01*
X190684626Y-104833611D01*
X190516104Y-104903415D01*
X190337203Y-104939000D01*
X190154797Y-104939000D01*
X189975896Y-104903415D01*
X189807374Y-104833611D01*
X189655709Y-104732272D01*
X189526728Y-104603291D01*
X189425389Y-104451626D01*
X189355585Y-104283104D01*
X189320000Y-104104203D01*
X189320000Y-103921797D01*
X189355585Y-103742896D01*
X189425389Y-103574374D01*
X189526728Y-103422709D01*
X189655709Y-103293728D01*
X189807374Y-103192389D01*
X189975896Y-103122585D01*
X190154797Y-103087000D01*
X190337203Y-103087000D01*
X190516104Y-103122585D01*
X190516104Y-103122585D01*
G37*
G36*
X209566104Y-103122585D02*
G01*
X209734626Y-103192389D01*
X209886291Y-103293728D01*
X210015272Y-103422709D01*
X210116611Y-103574374D01*
X210186415Y-103742896D01*
X210222000Y-103921797D01*
X210222000Y-104104203D01*
X210186415Y-104283104D01*
X210116611Y-104451626D01*
X210015272Y-104603291D01*
X209886291Y-104732272D01*
X209734626Y-104833611D01*
X209566104Y-104903415D01*
X209387203Y-104939000D01*
X209204797Y-104939000D01*
X209025896Y-104903415D01*
X208857374Y-104833611D01*
X208705709Y-104732272D01*
X208576728Y-104603291D01*
X208475389Y-104451626D01*
X208405585Y-104283104D01*
X208370000Y-104104203D01*
X208370000Y-103921797D01*
X208405585Y-103742896D01*
X208475389Y-103574374D01*
X208576728Y-103422709D01*
X208705709Y-103293728D01*
X208857374Y-103192389D01*
X209025896Y-103122585D01*
X209204797Y-103087000D01*
X209387203Y-103087000D01*
X209566104Y-103122585D01*
X209566104Y-103122585D01*
G37*
G36*
X200676104Y-103122585D02*
G01*
X200844626Y-103192389D01*
X200996291Y-103293728D01*
X201125272Y-103422709D01*
X201226611Y-103574374D01*
X201296415Y-103742896D01*
X201332000Y-103921797D01*
X201332000Y-104104203D01*
X201296415Y-104283104D01*
X201226611Y-104451626D01*
X201125272Y-104603291D01*
X200996291Y-104732272D01*
X200844626Y-104833611D01*
X200676104Y-104903415D01*
X200497203Y-104939000D01*
X200314797Y-104939000D01*
X200135896Y-104903415D01*
X199967374Y-104833611D01*
X199815709Y-104732272D01*
X199686728Y-104603291D01*
X199585389Y-104451626D01*
X199515585Y-104283104D01*
X199480000Y-104104203D01*
X199480000Y-103921797D01*
X199515585Y-103742896D01*
X199585389Y-103574374D01*
X199686728Y-103422709D01*
X199815709Y-103293728D01*
X199967374Y-103192389D01*
X200135896Y-103122585D01*
X200314797Y-103087000D01*
X200497203Y-103087000D01*
X200676104Y-103122585D01*
X200676104Y-103122585D01*
G37*
G36*
X219726104Y-103122585D02*
G01*
X219894626Y-103192389D01*
X220046291Y-103293728D01*
X220175272Y-103422709D01*
X220276611Y-103574374D01*
X220346415Y-103742896D01*
X220382000Y-103921797D01*
X220382000Y-104104203D01*
X220346415Y-104283104D01*
X220276611Y-104451626D01*
X220175272Y-104603291D01*
X220046291Y-104732272D01*
X219894626Y-104833611D01*
X219726104Y-104903415D01*
X219547203Y-104939000D01*
X219364797Y-104939000D01*
X219185896Y-104903415D01*
X219017374Y-104833611D01*
X218865709Y-104732272D01*
X218736728Y-104603291D01*
X218635389Y-104451626D01*
X218565585Y-104283104D01*
X218530000Y-104104203D01*
X218530000Y-103921797D01*
X218565585Y-103742896D01*
X218635389Y-103574374D01*
X218736728Y-103422709D01*
X218865709Y-103293728D01*
X219017374Y-103192389D01*
X219185896Y-103122585D01*
X219364797Y-103087000D01*
X219547203Y-103087000D01*
X219726104Y-103122585D01*
X219726104Y-103122585D01*
G37*
G36*
X181753104Y-103122585D02*
G01*
X181921626Y-103192389D01*
X182073291Y-103293728D01*
X182202272Y-103422709D01*
X182303611Y-103574374D01*
X182373415Y-103742896D01*
X182409000Y-103921797D01*
X182409000Y-104104203D01*
X182373415Y-104283104D01*
X182303611Y-104451626D01*
X182202272Y-104603291D01*
X182073291Y-104732272D01*
X181921626Y-104833611D01*
X181753104Y-104903415D01*
X181574203Y-104939000D01*
X181391797Y-104939000D01*
X181212896Y-104903415D01*
X181044374Y-104833611D01*
X180892709Y-104732272D01*
X180763728Y-104603291D01*
X180662389Y-104451626D01*
X180592585Y-104283104D01*
X180557000Y-104104203D01*
X180557000Y-103921797D01*
X180592585Y-103742896D01*
X180662389Y-103574374D01*
X180763728Y-103422709D01*
X180892709Y-103293728D01*
X181044374Y-103192389D01*
X181212896Y-103122585D01*
X181391797Y-103087000D01*
X181574203Y-103087000D01*
X181753104Y-103122585D01*
X181753104Y-103122585D01*
G37*
G36*
X56514000Y-92037000D02*
G01*
X54812000Y-92037000D01*
X54812000Y-90335000D01*
X56514000Y-90335000D01*
X56514000Y-92037000D01*
X56514000Y-92037000D01*
G37*
G36*
X139784228Y-90367703D02*
G01*
X139939100Y-90431853D01*
X140078481Y-90524985D01*
X140197015Y-90643519D01*
X140290147Y-90782900D01*
X140354297Y-90937772D01*
X140387000Y-91102184D01*
X140387000Y-91269816D01*
X140354297Y-91434228D01*
X140290147Y-91589100D01*
X140197015Y-91728481D01*
X140078481Y-91847015D01*
X139939100Y-91940147D01*
X139784228Y-92004297D01*
X139619816Y-92037000D01*
X139452184Y-92037000D01*
X139287772Y-92004297D01*
X139132900Y-91940147D01*
X138993519Y-91847015D01*
X138874985Y-91728481D01*
X138781853Y-91589100D01*
X138717703Y-91434228D01*
X138685000Y-91269816D01*
X138685000Y-91102184D01*
X138717703Y-90937772D01*
X138781853Y-90782900D01*
X138874985Y-90643519D01*
X138993519Y-90524985D01*
X139132900Y-90431853D01*
X139287772Y-90367703D01*
X139452184Y-90335000D01*
X139619816Y-90335000D01*
X139784228Y-90367703D01*
X139784228Y-90367703D01*
G37*
G36*
X154304000Y-92037000D02*
G01*
X152602000Y-92037000D01*
X152602000Y-90335000D01*
X154304000Y-90335000D01*
X154304000Y-92037000D01*
X154304000Y-92037000D01*
G37*
G36*
X113537000Y-92037000D02*
G01*
X111835000Y-92037000D01*
X111835000Y-90335000D01*
X113537000Y-90335000D01*
X113537000Y-92037000D01*
X113537000Y-92037000D01*
G37*
G36*
X120734228Y-90367703D02*
G01*
X120889100Y-90431853D01*
X121028481Y-90524985D01*
X121147015Y-90643519D01*
X121240147Y-90782900D01*
X121304297Y-90937772D01*
X121337000Y-91102184D01*
X121337000Y-91269816D01*
X121304297Y-91434228D01*
X121240147Y-91589100D01*
X121147015Y-91728481D01*
X121028481Y-91847015D01*
X120889100Y-91940147D01*
X120734228Y-92004297D01*
X120569816Y-92037000D01*
X120402184Y-92037000D01*
X120237772Y-92004297D01*
X120082900Y-91940147D01*
X119943519Y-91847015D01*
X119824985Y-91728481D01*
X119731853Y-91589100D01*
X119667703Y-91434228D01*
X119635000Y-91269816D01*
X119635000Y-91102184D01*
X119667703Y-90937772D01*
X119731853Y-90782900D01*
X119824985Y-90643519D01*
X119943519Y-90524985D01*
X120082900Y-90431853D01*
X120237772Y-90367703D01*
X120402184Y-90335000D01*
X120569816Y-90335000D01*
X120734228Y-90367703D01*
X120734228Y-90367703D01*
G37*
G36*
X101811228Y-90367703D02*
G01*
X101966100Y-90431853D01*
X102105481Y-90524985D01*
X102224015Y-90643519D01*
X102317147Y-90782900D01*
X102381297Y-90937772D01*
X102414000Y-91102184D01*
X102414000Y-91269816D01*
X102381297Y-91434228D01*
X102317147Y-91589100D01*
X102224015Y-91728481D01*
X102105481Y-91847015D01*
X101966100Y-91940147D01*
X101811228Y-92004297D01*
X101646816Y-92037000D01*
X101479184Y-92037000D01*
X101314772Y-92004297D01*
X101159900Y-91940147D01*
X101020519Y-91847015D01*
X100901985Y-91728481D01*
X100808853Y-91589100D01*
X100744703Y-91434228D01*
X100712000Y-91269816D01*
X100712000Y-91102184D01*
X100744703Y-90937772D01*
X100808853Y-90782900D01*
X100901985Y-90643519D01*
X101020519Y-90524985D01*
X101159900Y-90431853D01*
X101314772Y-90367703D01*
X101479184Y-90335000D01*
X101646816Y-90335000D01*
X101811228Y-90367703D01*
X101811228Y-90367703D01*
G37*
G36*
X132587000Y-92037000D02*
G01*
X130885000Y-92037000D01*
X130885000Y-90335000D01*
X132587000Y-90335000D01*
X132587000Y-92037000D01*
X132587000Y-92037000D01*
G37*
G36*
X161501228Y-90367703D02*
G01*
X161656100Y-90431853D01*
X161795481Y-90524985D01*
X161914015Y-90643519D01*
X162007147Y-90782900D01*
X162071297Y-90937772D01*
X162104000Y-91102184D01*
X162104000Y-91269816D01*
X162071297Y-91434228D01*
X162007147Y-91589100D01*
X161914015Y-91728481D01*
X161795481Y-91847015D01*
X161656100Y-91940147D01*
X161501228Y-92004297D01*
X161336816Y-92037000D01*
X161169184Y-92037000D01*
X161004772Y-92004297D01*
X160849900Y-91940147D01*
X160710519Y-91847015D01*
X160591985Y-91728481D01*
X160498853Y-91589100D01*
X160434703Y-91434228D01*
X160402000Y-91269816D01*
X160402000Y-91102184D01*
X160434703Y-90937772D01*
X160498853Y-90782900D01*
X160591985Y-90643519D01*
X160710519Y-90524985D01*
X160849900Y-90431853D01*
X161004772Y-90367703D01*
X161169184Y-90335000D01*
X161336816Y-90335000D01*
X161501228Y-90367703D01*
X161501228Y-90367703D01*
G37*
G36*
X63711228Y-90367703D02*
G01*
X63866100Y-90431853D01*
X64005481Y-90524985D01*
X64124015Y-90643519D01*
X64217147Y-90782900D01*
X64281297Y-90937772D01*
X64314000Y-91102184D01*
X64314000Y-91269816D01*
X64281297Y-91434228D01*
X64217147Y-91589100D01*
X64124015Y-91728481D01*
X64005481Y-91847015D01*
X63866100Y-91940147D01*
X63711228Y-92004297D01*
X63546816Y-92037000D01*
X63379184Y-92037000D01*
X63214772Y-92004297D01*
X63059900Y-91940147D01*
X62920519Y-91847015D01*
X62801985Y-91728481D01*
X62708853Y-91589100D01*
X62644703Y-91434228D01*
X62612000Y-91269816D01*
X62612000Y-91102184D01*
X62644703Y-90937772D01*
X62708853Y-90782900D01*
X62801985Y-90643519D01*
X62920519Y-90524985D01*
X63059900Y-90431853D01*
X63214772Y-90367703D01*
X63379184Y-90335000D01*
X63546816Y-90335000D01*
X63711228Y-90367703D01*
X63711228Y-90367703D01*
G37*
G36*
X75564000Y-92037000D02*
G01*
X73862000Y-92037000D01*
X73862000Y-90335000D01*
X75564000Y-90335000D01*
X75564000Y-92037000D01*
X75564000Y-92037000D01*
G37*
G36*
X94614000Y-92037000D02*
G01*
X92912000Y-92037000D01*
X92912000Y-90335000D01*
X94614000Y-90335000D01*
X94614000Y-92037000D01*
X94614000Y-92037000D01*
G37*
G36*
X82761228Y-90367703D02*
G01*
X82916100Y-90431853D01*
X83055481Y-90524985D01*
X83174015Y-90643519D01*
X83267147Y-90782900D01*
X83331297Y-90937772D01*
X83364000Y-91102184D01*
X83364000Y-91269816D01*
X83331297Y-91434228D01*
X83267147Y-91589100D01*
X83174015Y-91728481D01*
X83055481Y-91847015D01*
X82916100Y-91940147D01*
X82761228Y-92004297D01*
X82596816Y-92037000D01*
X82429184Y-92037000D01*
X82264772Y-92004297D01*
X82109900Y-91940147D01*
X81970519Y-91847015D01*
X81851985Y-91728481D01*
X81758853Y-91589100D01*
X81694703Y-91434228D01*
X81662000Y-91269816D01*
X81662000Y-91102184D01*
X81694703Y-90937772D01*
X81758853Y-90782900D01*
X81851985Y-90643519D01*
X81970519Y-90524985D01*
X82109900Y-90431853D01*
X82264772Y-90367703D01*
X82429184Y-90335000D01*
X82596816Y-90335000D01*
X82761228Y-90367703D01*
X82761228Y-90367703D01*
G37*
G36*
X173354000Y-91910000D02*
G01*
X171652000Y-91910000D01*
X171652000Y-90208000D01*
X173354000Y-90208000D01*
X173354000Y-91910000D01*
X173354000Y-91910000D01*
G37*
G36*
X199601228Y-90240703D02*
G01*
X199756100Y-90304853D01*
X199895481Y-90397985D01*
X200014015Y-90516519D01*
X200107147Y-90655900D01*
X200171297Y-90810772D01*
X200204000Y-90975184D01*
X200204000Y-91142816D01*
X200171297Y-91307228D01*
X200107147Y-91462100D01*
X200014015Y-91601481D01*
X199895481Y-91720015D01*
X199756100Y-91813147D01*
X199601228Y-91877297D01*
X199436816Y-91910000D01*
X199269184Y-91910000D01*
X199104772Y-91877297D01*
X198949900Y-91813147D01*
X198810519Y-91720015D01*
X198691985Y-91601481D01*
X198598853Y-91462100D01*
X198534703Y-91307228D01*
X198502000Y-91142816D01*
X198502000Y-90975184D01*
X198534703Y-90810772D01*
X198598853Y-90655900D01*
X198691985Y-90516519D01*
X198810519Y-90397985D01*
X198949900Y-90304853D01*
X199104772Y-90240703D01*
X199269184Y-90208000D01*
X199436816Y-90208000D01*
X199601228Y-90240703D01*
X199601228Y-90240703D01*
G37*
G36*
X180551228Y-90240703D02*
G01*
X180706100Y-90304853D01*
X180845481Y-90397985D01*
X180964015Y-90516519D01*
X181057147Y-90655900D01*
X181121297Y-90810772D01*
X181154000Y-90975184D01*
X181154000Y-91142816D01*
X181121297Y-91307228D01*
X181057147Y-91462100D01*
X180964015Y-91601481D01*
X180845481Y-91720015D01*
X180706100Y-91813147D01*
X180551228Y-91877297D01*
X180386816Y-91910000D01*
X180219184Y-91910000D01*
X180054772Y-91877297D01*
X179899900Y-91813147D01*
X179760519Y-91720015D01*
X179641985Y-91601481D01*
X179548853Y-91462100D01*
X179484703Y-91307228D01*
X179452000Y-91142816D01*
X179452000Y-90975184D01*
X179484703Y-90810772D01*
X179548853Y-90655900D01*
X179641985Y-90516519D01*
X179760519Y-90397985D01*
X179899900Y-90304853D01*
X180054772Y-90240703D01*
X180219184Y-90208000D01*
X180386816Y-90208000D01*
X180551228Y-90240703D01*
X180551228Y-90240703D01*
G37*
G36*
X192404000Y-91910000D02*
G01*
X190702000Y-91910000D01*
X190702000Y-90208000D01*
X192404000Y-90208000D01*
X192404000Y-91910000D01*
X192404000Y-91910000D01*
G37*
G36*
X211327000Y-91910000D02*
G01*
X209625000Y-91910000D01*
X209625000Y-90208000D01*
X211327000Y-90208000D01*
X211327000Y-91910000D01*
X211327000Y-91910000D01*
G37*
G36*
X218524228Y-90240703D02*
G01*
X218679100Y-90304853D01*
X218818481Y-90397985D01*
X218937015Y-90516519D01*
X219030147Y-90655900D01*
X219094297Y-90810772D01*
X219127000Y-90975184D01*
X219127000Y-91142816D01*
X219094297Y-91307228D01*
X219030147Y-91462100D01*
X218937015Y-91601481D01*
X218818481Y-91720015D01*
X218679100Y-91813147D01*
X218524228Y-91877297D01*
X218359816Y-91910000D01*
X218192184Y-91910000D01*
X218027772Y-91877297D01*
X217872900Y-91813147D01*
X217733519Y-91720015D01*
X217614985Y-91601481D01*
X217521853Y-91462100D01*
X217457703Y-91307228D01*
X217425000Y-91142816D01*
X217425000Y-90975184D01*
X217457703Y-90810772D01*
X217521853Y-90655900D01*
X217614985Y-90516519D01*
X217733519Y-90397985D01*
X217872900Y-90304853D01*
X218027772Y-90240703D01*
X218192184Y-90208000D01*
X218359816Y-90208000D01*
X218524228Y-90240703D01*
X218524228Y-90240703D01*
G37*
G36*
X237574228Y-90240703D02*
G01*
X237729100Y-90304853D01*
X237868481Y-90397985D01*
X237987015Y-90516519D01*
X238080147Y-90655900D01*
X238144297Y-90810772D01*
X238177000Y-90975184D01*
X238177000Y-91142816D01*
X238144297Y-91307228D01*
X238080147Y-91462100D01*
X237987015Y-91601481D01*
X237868481Y-91720015D01*
X237729100Y-91813147D01*
X237574228Y-91877297D01*
X237409816Y-91910000D01*
X237242184Y-91910000D01*
X237077772Y-91877297D01*
X236922900Y-91813147D01*
X236783519Y-91720015D01*
X236664985Y-91601481D01*
X236571853Y-91462100D01*
X236507703Y-91307228D01*
X236475000Y-91142816D01*
X236475000Y-90975184D01*
X236507703Y-90810772D01*
X236571853Y-90655900D01*
X236664985Y-90516519D01*
X236783519Y-90397985D01*
X236922900Y-90304853D01*
X237077772Y-90240703D01*
X237242184Y-90208000D01*
X237409816Y-90208000D01*
X237574228Y-90240703D01*
X237574228Y-90240703D01*
G37*
G36*
X230377000Y-91910000D02*
G01*
X228675000Y-91910000D01*
X228675000Y-90208000D01*
X230377000Y-90208000D01*
X230377000Y-91910000D01*
X230377000Y-91910000D01*
G37*
G36*
X59014000Y-91837000D02*
G01*
X57312000Y-91837000D01*
X57312000Y-90535000D01*
X59014000Y-90535000D01*
X59014000Y-91837000D01*
X59014000Y-91837000D01*
G37*
G36*
X156804000Y-91837000D02*
G01*
X155102000Y-91837000D01*
X155102000Y-90535000D01*
X156804000Y-90535000D01*
X156804000Y-91837000D01*
X156804000Y-91837000D01*
G37*
G36*
X135087000Y-91837000D02*
G01*
X133385000Y-91837000D01*
X133385000Y-90535000D01*
X135087000Y-90535000D01*
X135087000Y-91837000D01*
X135087000Y-91837000D01*
G37*
G36*
X137887000Y-91837000D02*
G01*
X136185000Y-91837000D01*
X136185000Y-90535000D01*
X137887000Y-90535000D01*
X137887000Y-91837000D01*
X137887000Y-91837000D01*
G37*
G36*
X99914000Y-91837000D02*
G01*
X98212000Y-91837000D01*
X98212000Y-90535000D01*
X99914000Y-90535000D01*
X99914000Y-91837000D01*
X99914000Y-91837000D01*
G37*
G36*
X97114000Y-91837000D02*
G01*
X95412000Y-91837000D01*
X95412000Y-90535000D01*
X97114000Y-90535000D01*
X97114000Y-91837000D01*
X97114000Y-91837000D01*
G37*
G36*
X78064000Y-91837000D02*
G01*
X76362000Y-91837000D01*
X76362000Y-90535000D01*
X78064000Y-90535000D01*
X78064000Y-91837000D01*
X78064000Y-91837000D01*
G37*
G36*
X80864000Y-91837000D02*
G01*
X79162000Y-91837000D01*
X79162000Y-90535000D01*
X80864000Y-90535000D01*
X80864000Y-91837000D01*
X80864000Y-91837000D01*
G37*
G36*
X116037000Y-91837000D02*
G01*
X114335000Y-91837000D01*
X114335000Y-90535000D01*
X116037000Y-90535000D01*
X116037000Y-91837000D01*
X116037000Y-91837000D01*
G37*
G36*
X118837000Y-91837000D02*
G01*
X117135000Y-91837000D01*
X117135000Y-90535000D01*
X118837000Y-90535000D01*
X118837000Y-91837000D01*
X118837000Y-91837000D01*
G37*
G36*
X61814000Y-91837000D02*
G01*
X60112000Y-91837000D01*
X60112000Y-90535000D01*
X61814000Y-90535000D01*
X61814000Y-91837000D01*
X61814000Y-91837000D01*
G37*
G36*
X159604000Y-91837000D02*
G01*
X157902000Y-91837000D01*
X157902000Y-90535000D01*
X159604000Y-90535000D01*
X159604000Y-91837000D01*
X159604000Y-91837000D01*
G37*
G36*
X197704000Y-91710000D02*
G01*
X196002000Y-91710000D01*
X196002000Y-90408000D01*
X197704000Y-90408000D01*
X197704000Y-91710000D01*
X197704000Y-91710000D01*
G37*
G36*
X235677000Y-91710000D02*
G01*
X233975000Y-91710000D01*
X233975000Y-90408000D01*
X235677000Y-90408000D01*
X235677000Y-91710000D01*
X235677000Y-91710000D01*
G37*
G36*
X178654000Y-91710000D02*
G01*
X176952000Y-91710000D01*
X176952000Y-90408000D01*
X178654000Y-90408000D01*
X178654000Y-91710000D01*
X178654000Y-91710000D01*
G37*
G36*
X175854000Y-91710000D02*
G01*
X174152000Y-91710000D01*
X174152000Y-90408000D01*
X175854000Y-90408000D01*
X175854000Y-91710000D01*
X175854000Y-91710000D01*
G37*
G36*
X194904000Y-91710000D02*
G01*
X193202000Y-91710000D01*
X193202000Y-90408000D01*
X194904000Y-90408000D01*
X194904000Y-91710000D01*
X194904000Y-91710000D01*
G37*
G36*
X213827000Y-91710000D02*
G01*
X212125000Y-91710000D01*
X212125000Y-90408000D01*
X213827000Y-90408000D01*
X213827000Y-91710000D01*
X213827000Y-91710000D01*
G37*
G36*
X216627000Y-91710000D02*
G01*
X214925000Y-91710000D01*
X214925000Y-90408000D01*
X216627000Y-90408000D01*
X216627000Y-91710000D01*
X216627000Y-91710000D01*
G37*
G36*
X232877000Y-91710000D02*
G01*
X231175000Y-91710000D01*
X231175000Y-90408000D01*
X232877000Y-90408000D01*
X232877000Y-91710000D01*
X232877000Y-91710000D01*
G37*
G36*
X128264228Y-87065703D02*
G01*
X128419100Y-87129853D01*
X128558481Y-87222985D01*
X128677015Y-87341519D01*
X128770147Y-87480900D01*
X128834297Y-87635772D01*
X128867000Y-87800184D01*
X128867000Y-87967816D01*
X128834297Y-88132228D01*
X128770147Y-88287100D01*
X128677015Y-88426481D01*
X128558481Y-88545015D01*
X128419100Y-88638147D01*
X128264228Y-88702297D01*
X128099816Y-88735000D01*
X127932184Y-88735000D01*
X127767772Y-88702297D01*
X127612900Y-88638147D01*
X127473519Y-88545015D01*
X127354985Y-88426481D01*
X127261853Y-88287100D01*
X127197703Y-88132228D01*
X127165000Y-87967816D01*
X127165000Y-87800184D01*
X127197703Y-87635772D01*
X127261853Y-87480900D01*
X127354985Y-87341519D01*
X127473519Y-87222985D01*
X127612900Y-87129853D01*
X127767772Y-87065703D01*
X127932184Y-87033000D01*
X128099816Y-87033000D01*
X128264228Y-87065703D01*
X128264228Y-87065703D01*
G37*
G36*
X143504228Y-87065703D02*
G01*
X143659100Y-87129853D01*
X143798481Y-87222985D01*
X143917015Y-87341519D01*
X144010147Y-87480900D01*
X144074297Y-87635772D01*
X144107000Y-87800184D01*
X144107000Y-87967816D01*
X144074297Y-88132228D01*
X144010147Y-88287100D01*
X143917015Y-88426481D01*
X143798481Y-88545015D01*
X143659100Y-88638147D01*
X143504228Y-88702297D01*
X143339816Y-88735000D01*
X143172184Y-88735000D01*
X143007772Y-88702297D01*
X142852900Y-88638147D01*
X142713519Y-88545015D01*
X142594985Y-88426481D01*
X142501853Y-88287100D01*
X142437703Y-88132228D01*
X142405000Y-87967816D01*
X142405000Y-87800184D01*
X142437703Y-87635772D01*
X142501853Y-87480900D01*
X142594985Y-87341519D01*
X142713519Y-87222985D01*
X142852900Y-87129853D01*
X143007772Y-87065703D01*
X143172184Y-87033000D01*
X143339816Y-87033000D01*
X143504228Y-87065703D01*
X143504228Y-87065703D01*
G37*
G36*
X165221228Y-87065703D02*
G01*
X165376100Y-87129853D01*
X165515481Y-87222985D01*
X165634015Y-87341519D01*
X165727147Y-87480900D01*
X165791297Y-87635772D01*
X165824000Y-87800184D01*
X165824000Y-87967816D01*
X165791297Y-88132228D01*
X165727147Y-88287100D01*
X165634015Y-88426481D01*
X165515481Y-88545015D01*
X165376100Y-88638147D01*
X165221228Y-88702297D01*
X165056816Y-88735000D01*
X164889184Y-88735000D01*
X164724772Y-88702297D01*
X164569900Y-88638147D01*
X164430519Y-88545015D01*
X164311985Y-88426481D01*
X164218853Y-88287100D01*
X164154703Y-88132228D01*
X164122000Y-87967816D01*
X164122000Y-87800184D01*
X164154703Y-87635772D01*
X164218853Y-87480900D01*
X164311985Y-87341519D01*
X164430519Y-87222985D01*
X164569900Y-87129853D01*
X164724772Y-87065703D01*
X164889184Y-87033000D01*
X165056816Y-87033000D01*
X165221228Y-87065703D01*
X165221228Y-87065703D01*
G37*
G36*
X149981228Y-87065703D02*
G01*
X150136100Y-87129853D01*
X150275481Y-87222985D01*
X150394015Y-87341519D01*
X150487147Y-87480900D01*
X150551297Y-87635772D01*
X150584000Y-87800184D01*
X150584000Y-87967816D01*
X150551297Y-88132228D01*
X150487147Y-88287100D01*
X150394015Y-88426481D01*
X150275481Y-88545015D01*
X150136100Y-88638147D01*
X149981228Y-88702297D01*
X149816816Y-88735000D01*
X149649184Y-88735000D01*
X149484772Y-88702297D01*
X149329900Y-88638147D01*
X149190519Y-88545015D01*
X149071985Y-88426481D01*
X148978853Y-88287100D01*
X148914703Y-88132228D01*
X148882000Y-87967816D01*
X148882000Y-87800184D01*
X148914703Y-87635772D01*
X148978853Y-87480900D01*
X149071985Y-87341519D01*
X149190519Y-87222985D01*
X149329900Y-87129853D01*
X149484772Y-87065703D01*
X149649184Y-87033000D01*
X149816816Y-87033000D01*
X149981228Y-87065703D01*
X149981228Y-87065703D01*
G37*
G36*
X98259474Y-83123684D02*
G01*
X98460850Y-83207097D01*
X98631623Y-83277833D01*
X98966548Y-83501623D01*
X99251377Y-83786452D01*
X99475167Y-84121377D01*
X99507562Y-84199586D01*
X99629316Y-84493526D01*
X99707900Y-84888594D01*
X99707900Y-85291406D01*
X99629316Y-85686474D01*
X99578451Y-85809272D01*
X99475167Y-86058623D01*
X99251377Y-86393548D01*
X98966548Y-86678377D01*
X98631623Y-86902167D01*
X98566079Y-86929316D01*
X98259474Y-87056316D01*
X97864406Y-87134900D01*
X97461594Y-87134900D01*
X97066526Y-87056316D01*
X96759921Y-86929316D01*
X96694377Y-86902167D01*
X96359452Y-86678377D01*
X96074623Y-86393548D01*
X95850833Y-86058623D01*
X95747549Y-85809272D01*
X95696684Y-85686474D01*
X95618100Y-85291406D01*
X95618100Y-84888594D01*
X95696684Y-84493526D01*
X95818438Y-84199586D01*
X95850833Y-84121377D01*
X96074623Y-83786452D01*
X96359452Y-83501623D01*
X96694377Y-83277833D01*
X96865150Y-83207097D01*
X97066526Y-83123684D01*
X97461594Y-83045100D01*
X97864406Y-83045100D01*
X98259474Y-83123684D01*
X98259474Y-83123684D01*
G37*
G36*
X117182474Y-83123684D02*
G01*
X117383850Y-83207097D01*
X117554623Y-83277833D01*
X117889548Y-83501623D01*
X118174377Y-83786452D01*
X118398167Y-84121377D01*
X118430562Y-84199586D01*
X118552316Y-84493526D01*
X118630900Y-84888594D01*
X118630900Y-85291406D01*
X118552316Y-85686474D01*
X118501451Y-85809272D01*
X118398167Y-86058623D01*
X118174377Y-86393548D01*
X117889548Y-86678377D01*
X117554623Y-86902167D01*
X117489079Y-86929316D01*
X117182474Y-87056316D01*
X116787406Y-87134900D01*
X116384594Y-87134900D01*
X115989526Y-87056316D01*
X115682921Y-86929316D01*
X115617377Y-86902167D01*
X115282452Y-86678377D01*
X114997623Y-86393548D01*
X114773833Y-86058623D01*
X114670549Y-85809272D01*
X114619684Y-85686474D01*
X114541100Y-85291406D01*
X114541100Y-84888594D01*
X114619684Y-84493526D01*
X114741438Y-84199586D01*
X114773833Y-84121377D01*
X114997623Y-83786452D01*
X115282452Y-83501623D01*
X115617377Y-83277833D01*
X115788150Y-83207097D01*
X115989526Y-83123684D01*
X116384594Y-83045100D01*
X116787406Y-83045100D01*
X117182474Y-83123684D01*
X117182474Y-83123684D01*
G37*
G36*
X79209474Y-83123684D02*
G01*
X79410850Y-83207097D01*
X79581623Y-83277833D01*
X79916548Y-83501623D01*
X80201377Y-83786452D01*
X80425167Y-84121377D01*
X80457562Y-84199586D01*
X80579316Y-84493526D01*
X80657900Y-84888594D01*
X80657900Y-85291406D01*
X80579316Y-85686474D01*
X80528451Y-85809272D01*
X80425167Y-86058623D01*
X80201377Y-86393548D01*
X79916548Y-86678377D01*
X79581623Y-86902167D01*
X79516079Y-86929316D01*
X79209474Y-87056316D01*
X78814406Y-87134900D01*
X78411594Y-87134900D01*
X78016526Y-87056316D01*
X77709921Y-86929316D01*
X77644377Y-86902167D01*
X77309452Y-86678377D01*
X77024623Y-86393548D01*
X76800833Y-86058623D01*
X76697549Y-85809272D01*
X76646684Y-85686474D01*
X76568100Y-85291406D01*
X76568100Y-84888594D01*
X76646684Y-84493526D01*
X76768438Y-84199586D01*
X76800833Y-84121377D01*
X77024623Y-83786452D01*
X77309452Y-83501623D01*
X77644377Y-83277833D01*
X77815150Y-83207097D01*
X78016526Y-83123684D01*
X78411594Y-83045100D01*
X78814406Y-83045100D01*
X79209474Y-83123684D01*
X79209474Y-83123684D01*
G37*
G36*
X136232474Y-83123684D02*
G01*
X136433850Y-83207097D01*
X136604623Y-83277833D01*
X136939548Y-83501623D01*
X137224377Y-83786452D01*
X137448167Y-84121377D01*
X137480562Y-84199586D01*
X137602316Y-84493526D01*
X137680900Y-84888594D01*
X137680900Y-85291406D01*
X137602316Y-85686474D01*
X137551451Y-85809272D01*
X137448167Y-86058623D01*
X137224377Y-86393548D01*
X136939548Y-86678377D01*
X136604623Y-86902167D01*
X136539079Y-86929316D01*
X136232474Y-87056316D01*
X135837406Y-87134900D01*
X135434594Y-87134900D01*
X135039526Y-87056316D01*
X134732921Y-86929316D01*
X134667377Y-86902167D01*
X134332452Y-86678377D01*
X134047623Y-86393548D01*
X133823833Y-86058623D01*
X133720549Y-85809272D01*
X133669684Y-85686474D01*
X133591100Y-85291406D01*
X133591100Y-84888594D01*
X133669684Y-84493526D01*
X133791438Y-84199586D01*
X133823833Y-84121377D01*
X134047623Y-83786452D01*
X134332452Y-83501623D01*
X134667377Y-83277833D01*
X134838150Y-83207097D01*
X135039526Y-83123684D01*
X135434594Y-83045100D01*
X135837406Y-83045100D01*
X136232474Y-83123684D01*
X136232474Y-83123684D01*
G37*
G36*
X60032474Y-83123684D02*
G01*
X60233850Y-83207097D01*
X60404623Y-83277833D01*
X60739548Y-83501623D01*
X61024377Y-83786452D01*
X61248167Y-84121377D01*
X61280562Y-84199586D01*
X61402316Y-84493526D01*
X61480900Y-84888594D01*
X61480900Y-85291406D01*
X61402316Y-85686474D01*
X61351451Y-85809272D01*
X61248167Y-86058623D01*
X61024377Y-86393548D01*
X60739548Y-86678377D01*
X60404623Y-86902167D01*
X60339079Y-86929316D01*
X60032474Y-87056316D01*
X59637406Y-87134900D01*
X59234594Y-87134900D01*
X58839526Y-87056316D01*
X58532921Y-86929316D01*
X58467377Y-86902167D01*
X58132452Y-86678377D01*
X57847623Y-86393548D01*
X57623833Y-86058623D01*
X57520549Y-85809272D01*
X57469684Y-85686474D01*
X57391100Y-85291406D01*
X57391100Y-84888594D01*
X57469684Y-84493526D01*
X57591438Y-84199586D01*
X57623833Y-84121377D01*
X57847623Y-83786452D01*
X58132452Y-83501623D01*
X58467377Y-83277833D01*
X58638150Y-83207097D01*
X58839526Y-83123684D01*
X59234594Y-83045100D01*
X59637406Y-83045100D01*
X60032474Y-83123684D01*
X60032474Y-83123684D01*
G37*
G36*
X195922474Y-82996684D02*
G01*
X196056571Y-83052229D01*
X196294623Y-83150833D01*
X196629548Y-83374623D01*
X196914377Y-83659452D01*
X197138167Y-83994377D01*
X197170562Y-84072586D01*
X197292316Y-84366526D01*
X197370900Y-84761594D01*
X197370900Y-85164406D01*
X197292316Y-85559474D01*
X197241451Y-85682272D01*
X197138167Y-85931623D01*
X196914377Y-86266548D01*
X196629548Y-86551377D01*
X196294623Y-86775167D01*
X196140474Y-86839017D01*
X195922474Y-86929316D01*
X195527406Y-87007900D01*
X195124594Y-87007900D01*
X194729526Y-86929316D01*
X194511526Y-86839017D01*
X194357377Y-86775167D01*
X194022452Y-86551377D01*
X193737623Y-86266548D01*
X193513833Y-85931623D01*
X193410549Y-85682272D01*
X193359684Y-85559474D01*
X193281100Y-85164406D01*
X193281100Y-84761594D01*
X193359684Y-84366526D01*
X193481438Y-84072586D01*
X193513833Y-83994377D01*
X193737623Y-83659452D01*
X194022452Y-83374623D01*
X194357377Y-83150833D01*
X194595429Y-83052229D01*
X194729526Y-82996684D01*
X195124594Y-82918100D01*
X195527406Y-82918100D01*
X195922474Y-82996684D01*
X195922474Y-82996684D01*
G37*
G36*
X176999474Y-82996684D02*
G01*
X177133571Y-83052229D01*
X177371623Y-83150833D01*
X177706548Y-83374623D01*
X177991377Y-83659452D01*
X178215167Y-83994377D01*
X178247562Y-84072586D01*
X178369316Y-84366526D01*
X178447900Y-84761594D01*
X178447900Y-85164406D01*
X178369316Y-85559474D01*
X178318451Y-85682272D01*
X178215167Y-85931623D01*
X177991377Y-86266548D01*
X177706548Y-86551377D01*
X177371623Y-86775167D01*
X177217474Y-86839017D01*
X176999474Y-86929316D01*
X176604406Y-87007900D01*
X176201594Y-87007900D01*
X175806526Y-86929316D01*
X175588526Y-86839017D01*
X175434377Y-86775167D01*
X175099452Y-86551377D01*
X174814623Y-86266548D01*
X174590833Y-85931623D01*
X174487549Y-85682272D01*
X174436684Y-85559474D01*
X174358100Y-85164406D01*
X174358100Y-84761594D01*
X174436684Y-84366526D01*
X174558438Y-84072586D01*
X174590833Y-83994377D01*
X174814623Y-83659452D01*
X175099452Y-83374623D01*
X175434377Y-83150833D01*
X175672429Y-83052229D01*
X175806526Y-82996684D01*
X176201594Y-82918100D01*
X176604406Y-82918100D01*
X176999474Y-82996684D01*
X176999474Y-82996684D01*
G37*
G36*
X214972474Y-82996684D02*
G01*
X215106571Y-83052229D01*
X215344623Y-83150833D01*
X215679548Y-83374623D01*
X215964377Y-83659452D01*
X216188167Y-83994377D01*
X216220562Y-84072586D01*
X216342316Y-84366526D01*
X216420900Y-84761594D01*
X216420900Y-85164406D01*
X216342316Y-85559474D01*
X216291451Y-85682272D01*
X216188167Y-85931623D01*
X215964377Y-86266548D01*
X215679548Y-86551377D01*
X215344623Y-86775167D01*
X215190474Y-86839017D01*
X214972474Y-86929316D01*
X214577406Y-87007900D01*
X214174594Y-87007900D01*
X213779526Y-86929316D01*
X213561526Y-86839017D01*
X213407377Y-86775167D01*
X213072452Y-86551377D01*
X212787623Y-86266548D01*
X212563833Y-85931623D01*
X212460549Y-85682272D01*
X212409684Y-85559474D01*
X212331100Y-85164406D01*
X212331100Y-84761594D01*
X212409684Y-84366526D01*
X212531438Y-84072586D01*
X212563833Y-83994377D01*
X212787623Y-83659452D01*
X213072452Y-83374623D01*
X213407377Y-83150833D01*
X213645429Y-83052229D01*
X213779526Y-82996684D01*
X214174594Y-82918100D01*
X214577406Y-82918100D01*
X214972474Y-82996684D01*
X214972474Y-82996684D01*
G37*
G36*
X157949474Y-82996684D02*
G01*
X158083571Y-83052229D01*
X158321623Y-83150833D01*
X158656548Y-83374623D01*
X158941377Y-83659452D01*
X159165167Y-83994377D01*
X159197562Y-84072586D01*
X159319316Y-84366526D01*
X159397900Y-84761594D01*
X159397900Y-85164406D01*
X159319316Y-85559474D01*
X159268451Y-85682272D01*
X159165167Y-85931623D01*
X158941377Y-86266548D01*
X158656548Y-86551377D01*
X158321623Y-86775167D01*
X158167474Y-86839017D01*
X157949474Y-86929316D01*
X157554406Y-87007900D01*
X157151594Y-87007900D01*
X156756526Y-86929316D01*
X156538526Y-86839017D01*
X156384377Y-86775167D01*
X156049452Y-86551377D01*
X155764623Y-86266548D01*
X155540833Y-85931623D01*
X155437549Y-85682272D01*
X155386684Y-85559474D01*
X155308100Y-85164406D01*
X155308100Y-84761594D01*
X155386684Y-84366526D01*
X155508438Y-84072586D01*
X155540833Y-83994377D01*
X155764623Y-83659452D01*
X156049452Y-83374623D01*
X156384377Y-83150833D01*
X156622429Y-83052229D01*
X156756526Y-82996684D01*
X157151594Y-82918100D01*
X157554406Y-82918100D01*
X157949474Y-82996684D01*
X157949474Y-82996684D01*
G37*
G36*
X234022474Y-82996684D02*
G01*
X234156571Y-83052229D01*
X234394623Y-83150833D01*
X234729548Y-83374623D01*
X235014377Y-83659452D01*
X235238167Y-83994377D01*
X235270562Y-84072586D01*
X235392316Y-84366526D01*
X235470900Y-84761594D01*
X235470900Y-85164406D01*
X235392316Y-85559474D01*
X235341451Y-85682272D01*
X235238167Y-85931623D01*
X235014377Y-86266548D01*
X234729548Y-86551377D01*
X234394623Y-86775167D01*
X234240474Y-86839017D01*
X234022474Y-86929316D01*
X233627406Y-87007900D01*
X233224594Y-87007900D01*
X232829526Y-86929316D01*
X232611526Y-86839017D01*
X232457377Y-86775167D01*
X232122452Y-86551377D01*
X231837623Y-86266548D01*
X231613833Y-85931623D01*
X231510549Y-85682272D01*
X231459684Y-85559474D01*
X231381100Y-85164406D01*
X231381100Y-84761594D01*
X231459684Y-84366526D01*
X231581438Y-84072586D01*
X231613833Y-83994377D01*
X231837623Y-83659452D01*
X232122452Y-83374623D01*
X232457377Y-83150833D01*
X232695429Y-83052229D01*
X232829526Y-82996684D01*
X233224594Y-82918100D01*
X233627406Y-82918100D01*
X234022474Y-82996684D01*
X234022474Y-82996684D01*
G37*
G36*
X128264228Y-84525703D02*
G01*
X128419100Y-84589853D01*
X128558481Y-84682985D01*
X128677015Y-84801519D01*
X128770147Y-84940900D01*
X128834297Y-85095772D01*
X128867000Y-85260184D01*
X128867000Y-85427816D01*
X128834297Y-85592228D01*
X128770147Y-85747100D01*
X128677015Y-85886481D01*
X128558481Y-86005015D01*
X128419100Y-86098147D01*
X128264228Y-86162297D01*
X128099816Y-86195000D01*
X127932184Y-86195000D01*
X127767772Y-86162297D01*
X127612900Y-86098147D01*
X127473519Y-86005015D01*
X127354985Y-85886481D01*
X127261853Y-85747100D01*
X127197703Y-85592228D01*
X127165000Y-85427816D01*
X127165000Y-85260184D01*
X127197703Y-85095772D01*
X127261853Y-84940900D01*
X127354985Y-84801519D01*
X127473519Y-84682985D01*
X127612900Y-84589853D01*
X127767772Y-84525703D01*
X127932184Y-84493000D01*
X128099816Y-84493000D01*
X128264228Y-84525703D01*
X128264228Y-84525703D01*
G37*
G36*
X165221228Y-84525703D02*
G01*
X165376100Y-84589853D01*
X165515481Y-84682985D01*
X165634015Y-84801519D01*
X165727147Y-84940900D01*
X165791297Y-85095772D01*
X165824000Y-85260184D01*
X165824000Y-85427816D01*
X165791297Y-85592228D01*
X165727147Y-85747100D01*
X165634015Y-85886481D01*
X165515481Y-86005015D01*
X165376100Y-86098147D01*
X165221228Y-86162297D01*
X165056816Y-86195000D01*
X164889184Y-86195000D01*
X164724772Y-86162297D01*
X164569900Y-86098147D01*
X164430519Y-86005015D01*
X164311985Y-85886481D01*
X164218853Y-85747100D01*
X164154703Y-85592228D01*
X164122000Y-85427816D01*
X164122000Y-85260184D01*
X164154703Y-85095772D01*
X164218853Y-84940900D01*
X164311985Y-84801519D01*
X164430519Y-84682985D01*
X164569900Y-84589853D01*
X164724772Y-84525703D01*
X164889184Y-84493000D01*
X165056816Y-84493000D01*
X165221228Y-84525703D01*
X165221228Y-84525703D01*
G37*
G36*
X143504228Y-84525703D02*
G01*
X143659100Y-84589853D01*
X143798481Y-84682985D01*
X143917015Y-84801519D01*
X144010147Y-84940900D01*
X144074297Y-85095772D01*
X144107000Y-85260184D01*
X144107000Y-85427816D01*
X144074297Y-85592228D01*
X144010147Y-85747100D01*
X143917015Y-85886481D01*
X143798481Y-86005015D01*
X143659100Y-86098147D01*
X143504228Y-86162297D01*
X143339816Y-86195000D01*
X143172184Y-86195000D01*
X143007772Y-86162297D01*
X142852900Y-86098147D01*
X142713519Y-86005015D01*
X142594985Y-85886481D01*
X142501853Y-85747100D01*
X142437703Y-85592228D01*
X142405000Y-85427816D01*
X142405000Y-85260184D01*
X142437703Y-85095772D01*
X142501853Y-84940900D01*
X142594985Y-84801519D01*
X142713519Y-84682985D01*
X142852900Y-84589853D01*
X143007772Y-84525703D01*
X143172184Y-84493000D01*
X143339816Y-84493000D01*
X143504228Y-84525703D01*
X143504228Y-84525703D01*
G37*
G36*
X149981228Y-84525703D02*
G01*
X150136100Y-84589853D01*
X150275481Y-84682985D01*
X150394015Y-84801519D01*
X150487147Y-84940900D01*
X150551297Y-85095772D01*
X150584000Y-85260184D01*
X150584000Y-85427816D01*
X150551297Y-85592228D01*
X150487147Y-85747100D01*
X150394015Y-85886481D01*
X150275481Y-86005015D01*
X150136100Y-86098147D01*
X149981228Y-86162297D01*
X149816816Y-86195000D01*
X149649184Y-86195000D01*
X149484772Y-86162297D01*
X149329900Y-86098147D01*
X149190519Y-86005015D01*
X149071985Y-85886481D01*
X148978853Y-85747100D01*
X148914703Y-85592228D01*
X148882000Y-85427816D01*
X148882000Y-85260184D01*
X148914703Y-85095772D01*
X148978853Y-84940900D01*
X149071985Y-84801519D01*
X149190519Y-84682985D01*
X149329900Y-84589853D01*
X149484772Y-84525703D01*
X149649184Y-84493000D01*
X149816816Y-84493000D01*
X149981228Y-84525703D01*
X149981228Y-84525703D01*
G37*
G36*
X103013104Y-84199585D02*
G01*
X103181626Y-84269389D01*
X103333291Y-84370728D01*
X103462272Y-84499709D01*
X103563611Y-84651374D01*
X103633415Y-84819896D01*
X103669000Y-84998797D01*
X103669000Y-85181203D01*
X103633415Y-85360104D01*
X103563611Y-85528626D01*
X103462272Y-85680291D01*
X103333291Y-85809272D01*
X103181626Y-85910611D01*
X103013104Y-85980415D01*
X102834203Y-86016000D01*
X102651797Y-86016000D01*
X102472896Y-85980415D01*
X102304374Y-85910611D01*
X102152709Y-85809272D01*
X102023728Y-85680291D01*
X101922389Y-85528626D01*
X101852585Y-85360104D01*
X101817000Y-85181203D01*
X101817000Y-84998797D01*
X101852585Y-84819896D01*
X101922389Y-84651374D01*
X102023728Y-84499709D01*
X102152709Y-84370728D01*
X102304374Y-84269389D01*
X102472896Y-84199585D01*
X102651797Y-84164000D01*
X102834203Y-84164000D01*
X103013104Y-84199585D01*
X103013104Y-84199585D01*
G37*
G36*
X73803104Y-84199585D02*
G01*
X73971626Y-84269389D01*
X74123291Y-84370728D01*
X74252272Y-84499709D01*
X74353611Y-84651374D01*
X74423415Y-84819896D01*
X74459000Y-84998797D01*
X74459000Y-85181203D01*
X74423415Y-85360104D01*
X74353611Y-85528626D01*
X74252272Y-85680291D01*
X74123291Y-85809272D01*
X73971626Y-85910611D01*
X73803104Y-85980415D01*
X73624203Y-86016000D01*
X73441797Y-86016000D01*
X73262896Y-85980415D01*
X73094374Y-85910611D01*
X72942709Y-85809272D01*
X72813728Y-85680291D01*
X72712389Y-85528626D01*
X72642585Y-85360104D01*
X72607000Y-85181203D01*
X72607000Y-84998797D01*
X72642585Y-84819896D01*
X72712389Y-84651374D01*
X72813728Y-84499709D01*
X72942709Y-84370728D01*
X73094374Y-84269389D01*
X73262896Y-84199585D01*
X73441797Y-84164000D01*
X73624203Y-84164000D01*
X73803104Y-84199585D01*
X73803104Y-84199585D01*
G37*
G36*
X54626104Y-84199585D02*
G01*
X54794626Y-84269389D01*
X54946291Y-84370728D01*
X55075272Y-84499709D01*
X55176611Y-84651374D01*
X55246415Y-84819896D01*
X55282000Y-84998797D01*
X55282000Y-85181203D01*
X55246415Y-85360104D01*
X55176611Y-85528626D01*
X55075272Y-85680291D01*
X54946291Y-85809272D01*
X54794626Y-85910611D01*
X54626104Y-85980415D01*
X54447203Y-86016000D01*
X54264797Y-86016000D01*
X54085896Y-85980415D01*
X53917374Y-85910611D01*
X53765709Y-85809272D01*
X53636728Y-85680291D01*
X53535389Y-85528626D01*
X53465585Y-85360104D01*
X53430000Y-85181203D01*
X53430000Y-84998797D01*
X53465585Y-84819896D01*
X53535389Y-84651374D01*
X53636728Y-84499709D01*
X53765709Y-84370728D01*
X53917374Y-84269389D01*
X54085896Y-84199585D01*
X54264797Y-84164000D01*
X54447203Y-84164000D01*
X54626104Y-84199585D01*
X54626104Y-84199585D01*
G37*
G36*
X64786104Y-84199585D02*
G01*
X64954626Y-84269389D01*
X65106291Y-84370728D01*
X65235272Y-84499709D01*
X65336611Y-84651374D01*
X65406415Y-84819896D01*
X65442000Y-84998797D01*
X65442000Y-85181203D01*
X65406415Y-85360104D01*
X65336611Y-85528626D01*
X65235272Y-85680291D01*
X65106291Y-85809272D01*
X64954626Y-85910611D01*
X64786104Y-85980415D01*
X64607203Y-86016000D01*
X64424797Y-86016000D01*
X64245896Y-85980415D01*
X64077374Y-85910611D01*
X63925709Y-85809272D01*
X63796728Y-85680291D01*
X63695389Y-85528626D01*
X63625585Y-85360104D01*
X63590000Y-85181203D01*
X63590000Y-84998797D01*
X63625585Y-84819896D01*
X63695389Y-84651374D01*
X63796728Y-84499709D01*
X63925709Y-84370728D01*
X64077374Y-84269389D01*
X64245896Y-84199585D01*
X64424797Y-84164000D01*
X64607203Y-84164000D01*
X64786104Y-84199585D01*
X64786104Y-84199585D01*
G37*
G36*
X83963104Y-84199585D02*
G01*
X84131626Y-84269389D01*
X84283291Y-84370728D01*
X84412272Y-84499709D01*
X84513611Y-84651374D01*
X84583415Y-84819896D01*
X84619000Y-84998797D01*
X84619000Y-85181203D01*
X84583415Y-85360104D01*
X84513611Y-85528626D01*
X84412272Y-85680291D01*
X84283291Y-85809272D01*
X84131626Y-85910611D01*
X83963104Y-85980415D01*
X83784203Y-86016000D01*
X83601797Y-86016000D01*
X83422896Y-85980415D01*
X83254374Y-85910611D01*
X83102709Y-85809272D01*
X82973728Y-85680291D01*
X82872389Y-85528626D01*
X82802585Y-85360104D01*
X82767000Y-85181203D01*
X82767000Y-84998797D01*
X82802585Y-84819896D01*
X82872389Y-84651374D01*
X82973728Y-84499709D01*
X83102709Y-84370728D01*
X83254374Y-84269389D01*
X83422896Y-84199585D01*
X83601797Y-84164000D01*
X83784203Y-84164000D01*
X83963104Y-84199585D01*
X83963104Y-84199585D01*
G37*
G36*
X111776104Y-84199585D02*
G01*
X111944626Y-84269389D01*
X112096291Y-84370728D01*
X112225272Y-84499709D01*
X112326611Y-84651374D01*
X112396415Y-84819896D01*
X112432000Y-84998797D01*
X112432000Y-85181203D01*
X112396415Y-85360104D01*
X112326611Y-85528626D01*
X112225272Y-85680291D01*
X112096291Y-85809272D01*
X111944626Y-85910611D01*
X111776104Y-85980415D01*
X111597203Y-86016000D01*
X111414797Y-86016000D01*
X111235896Y-85980415D01*
X111067374Y-85910611D01*
X110915709Y-85809272D01*
X110786728Y-85680291D01*
X110685389Y-85528626D01*
X110615585Y-85360104D01*
X110580000Y-85181203D01*
X110580000Y-84998797D01*
X110615585Y-84819896D01*
X110685389Y-84651374D01*
X110786728Y-84499709D01*
X110915709Y-84370728D01*
X111067374Y-84269389D01*
X111235896Y-84199585D01*
X111414797Y-84164000D01*
X111597203Y-84164000D01*
X111776104Y-84199585D01*
X111776104Y-84199585D01*
G37*
G36*
X92853104Y-84199585D02*
G01*
X93021626Y-84269389D01*
X93173291Y-84370728D01*
X93302272Y-84499709D01*
X93403611Y-84651374D01*
X93473415Y-84819896D01*
X93509000Y-84998797D01*
X93509000Y-85181203D01*
X93473415Y-85360104D01*
X93403611Y-85528626D01*
X93302272Y-85680291D01*
X93173291Y-85809272D01*
X93021626Y-85910611D01*
X92853104Y-85980415D01*
X92674203Y-86016000D01*
X92491797Y-86016000D01*
X92312896Y-85980415D01*
X92144374Y-85910611D01*
X91992709Y-85809272D01*
X91863728Y-85680291D01*
X91762389Y-85528626D01*
X91692585Y-85360104D01*
X91657000Y-85181203D01*
X91657000Y-84998797D01*
X91692585Y-84819896D01*
X91762389Y-84651374D01*
X91863728Y-84499709D01*
X91992709Y-84370728D01*
X92144374Y-84269389D01*
X92312896Y-84199585D01*
X92491797Y-84164000D01*
X92674203Y-84164000D01*
X92853104Y-84199585D01*
X92853104Y-84199585D01*
G37*
G36*
X121936104Y-84199585D02*
G01*
X122104626Y-84269389D01*
X122256291Y-84370728D01*
X122385272Y-84499709D01*
X122486611Y-84651374D01*
X122556415Y-84819896D01*
X122592000Y-84998797D01*
X122592000Y-85181203D01*
X122556415Y-85360104D01*
X122486611Y-85528626D01*
X122385272Y-85680291D01*
X122256291Y-85809272D01*
X122104626Y-85910611D01*
X121936104Y-85980415D01*
X121757203Y-86016000D01*
X121574797Y-86016000D01*
X121395896Y-85980415D01*
X121227374Y-85910611D01*
X121075709Y-85809272D01*
X120946728Y-85680291D01*
X120845389Y-85528626D01*
X120775585Y-85360104D01*
X120740000Y-85181203D01*
X120740000Y-84998797D01*
X120775585Y-84819896D01*
X120845389Y-84651374D01*
X120946728Y-84499709D01*
X121075709Y-84370728D01*
X121227374Y-84269389D01*
X121395896Y-84199585D01*
X121574797Y-84164000D01*
X121757203Y-84164000D01*
X121936104Y-84199585D01*
X121936104Y-84199585D01*
G37*
G36*
X130826104Y-84199585D02*
G01*
X130994626Y-84269389D01*
X131146291Y-84370728D01*
X131275272Y-84499709D01*
X131376611Y-84651374D01*
X131446415Y-84819896D01*
X131482000Y-84998797D01*
X131482000Y-85181203D01*
X131446415Y-85360104D01*
X131376611Y-85528626D01*
X131275272Y-85680291D01*
X131146291Y-85809272D01*
X130994626Y-85910611D01*
X130826104Y-85980415D01*
X130647203Y-86016000D01*
X130464797Y-86016000D01*
X130285896Y-85980415D01*
X130117374Y-85910611D01*
X129965709Y-85809272D01*
X129836728Y-85680291D01*
X129735389Y-85528626D01*
X129665585Y-85360104D01*
X129630000Y-85181203D01*
X129630000Y-84998797D01*
X129665585Y-84819896D01*
X129735389Y-84651374D01*
X129836728Y-84499709D01*
X129965709Y-84370728D01*
X130117374Y-84269389D01*
X130285896Y-84199585D01*
X130464797Y-84164000D01*
X130647203Y-84164000D01*
X130826104Y-84199585D01*
X130826104Y-84199585D01*
G37*
G36*
X140986104Y-84199585D02*
G01*
X141154626Y-84269389D01*
X141306291Y-84370728D01*
X141435272Y-84499709D01*
X141536611Y-84651374D01*
X141606415Y-84819896D01*
X141642000Y-84998797D01*
X141642000Y-85181203D01*
X141606415Y-85360104D01*
X141536611Y-85528626D01*
X141435272Y-85680291D01*
X141306291Y-85809272D01*
X141154626Y-85910611D01*
X140986104Y-85980415D01*
X140807203Y-86016000D01*
X140624797Y-86016000D01*
X140445896Y-85980415D01*
X140277374Y-85910611D01*
X140125709Y-85809272D01*
X139996728Y-85680291D01*
X139895389Y-85528626D01*
X139825585Y-85360104D01*
X139790000Y-85181203D01*
X139790000Y-84998797D01*
X139825585Y-84819896D01*
X139895389Y-84651374D01*
X139996728Y-84499709D01*
X140125709Y-84370728D01*
X140277374Y-84269389D01*
X140445896Y-84199585D01*
X140624797Y-84164000D01*
X140807203Y-84164000D01*
X140986104Y-84199585D01*
X140986104Y-84199585D01*
G37*
G36*
X162703104Y-84072585D02*
G01*
X162871626Y-84142389D01*
X163023291Y-84243728D01*
X163152272Y-84372709D01*
X163253611Y-84524374D01*
X163323415Y-84692896D01*
X163359000Y-84871797D01*
X163359000Y-85054203D01*
X163323415Y-85233104D01*
X163253611Y-85401626D01*
X163152272Y-85553291D01*
X163023291Y-85682272D01*
X162871626Y-85783611D01*
X162703104Y-85853415D01*
X162524203Y-85889000D01*
X162341797Y-85889000D01*
X162162896Y-85853415D01*
X161994374Y-85783611D01*
X161842709Y-85682272D01*
X161713728Y-85553291D01*
X161612389Y-85401626D01*
X161542585Y-85233104D01*
X161507000Y-85054203D01*
X161507000Y-84871797D01*
X161542585Y-84692896D01*
X161612389Y-84524374D01*
X161713728Y-84372709D01*
X161842709Y-84243728D01*
X161994374Y-84142389D01*
X162162896Y-84072585D01*
X162341797Y-84037000D01*
X162524203Y-84037000D01*
X162703104Y-84072585D01*
X162703104Y-84072585D01*
G37*
G36*
X152543104Y-84072585D02*
G01*
X152711626Y-84142389D01*
X152863291Y-84243728D01*
X152992272Y-84372709D01*
X153093611Y-84524374D01*
X153163415Y-84692896D01*
X153199000Y-84871797D01*
X153199000Y-85054203D01*
X153163415Y-85233104D01*
X153093611Y-85401626D01*
X152992272Y-85553291D01*
X152863291Y-85682272D01*
X152711626Y-85783611D01*
X152543104Y-85853415D01*
X152364203Y-85889000D01*
X152181797Y-85889000D01*
X152002896Y-85853415D01*
X151834374Y-85783611D01*
X151682709Y-85682272D01*
X151553728Y-85553291D01*
X151452389Y-85401626D01*
X151382585Y-85233104D01*
X151347000Y-85054203D01*
X151347000Y-84871797D01*
X151382585Y-84692896D01*
X151452389Y-84524374D01*
X151553728Y-84372709D01*
X151682709Y-84243728D01*
X151834374Y-84142389D01*
X152002896Y-84072585D01*
X152181797Y-84037000D01*
X152364203Y-84037000D01*
X152543104Y-84072585D01*
X152543104Y-84072585D01*
G37*
G36*
X171593104Y-84072585D02*
G01*
X171761626Y-84142389D01*
X171913291Y-84243728D01*
X172042272Y-84372709D01*
X172143611Y-84524374D01*
X172213415Y-84692896D01*
X172249000Y-84871797D01*
X172249000Y-85054203D01*
X172213415Y-85233104D01*
X172143611Y-85401626D01*
X172042272Y-85553291D01*
X171913291Y-85682272D01*
X171761626Y-85783611D01*
X171593104Y-85853415D01*
X171414203Y-85889000D01*
X171231797Y-85889000D01*
X171052896Y-85853415D01*
X170884374Y-85783611D01*
X170732709Y-85682272D01*
X170603728Y-85553291D01*
X170502389Y-85401626D01*
X170432585Y-85233104D01*
X170397000Y-85054203D01*
X170397000Y-84871797D01*
X170432585Y-84692896D01*
X170502389Y-84524374D01*
X170603728Y-84372709D01*
X170732709Y-84243728D01*
X170884374Y-84142389D01*
X171052896Y-84072585D01*
X171231797Y-84037000D01*
X171414203Y-84037000D01*
X171593104Y-84072585D01*
X171593104Y-84072585D01*
G37*
G36*
X181753104Y-84072585D02*
G01*
X181921626Y-84142389D01*
X182073291Y-84243728D01*
X182202272Y-84372709D01*
X182303611Y-84524374D01*
X182373415Y-84692896D01*
X182409000Y-84871797D01*
X182409000Y-85054203D01*
X182373415Y-85233104D01*
X182303611Y-85401626D01*
X182202272Y-85553291D01*
X182073291Y-85682272D01*
X181921626Y-85783611D01*
X181753104Y-85853415D01*
X181574203Y-85889000D01*
X181391797Y-85889000D01*
X181212896Y-85853415D01*
X181044374Y-85783611D01*
X180892709Y-85682272D01*
X180763728Y-85553291D01*
X180662389Y-85401626D01*
X180592585Y-85233104D01*
X180557000Y-85054203D01*
X180557000Y-84871797D01*
X180592585Y-84692896D01*
X180662389Y-84524374D01*
X180763728Y-84372709D01*
X180892709Y-84243728D01*
X181044374Y-84142389D01*
X181212896Y-84072585D01*
X181391797Y-84037000D01*
X181574203Y-84037000D01*
X181753104Y-84072585D01*
X181753104Y-84072585D01*
G37*
G36*
X190516104Y-84072585D02*
G01*
X190684626Y-84142389D01*
X190836291Y-84243728D01*
X190965272Y-84372709D01*
X191066611Y-84524374D01*
X191136415Y-84692896D01*
X191172000Y-84871797D01*
X191172000Y-85054203D01*
X191136415Y-85233104D01*
X191066611Y-85401626D01*
X190965272Y-85553291D01*
X190836291Y-85682272D01*
X190684626Y-85783611D01*
X190516104Y-85853415D01*
X190337203Y-85889000D01*
X190154797Y-85889000D01*
X189975896Y-85853415D01*
X189807374Y-85783611D01*
X189655709Y-85682272D01*
X189526728Y-85553291D01*
X189425389Y-85401626D01*
X189355585Y-85233104D01*
X189320000Y-85054203D01*
X189320000Y-84871797D01*
X189355585Y-84692896D01*
X189425389Y-84524374D01*
X189526728Y-84372709D01*
X189655709Y-84243728D01*
X189807374Y-84142389D01*
X189975896Y-84072585D01*
X190154797Y-84037000D01*
X190337203Y-84037000D01*
X190516104Y-84072585D01*
X190516104Y-84072585D01*
G37*
G36*
X200676104Y-84072585D02*
G01*
X200844626Y-84142389D01*
X200996291Y-84243728D01*
X201125272Y-84372709D01*
X201226611Y-84524374D01*
X201296415Y-84692896D01*
X201332000Y-84871797D01*
X201332000Y-85054203D01*
X201296415Y-85233104D01*
X201226611Y-85401626D01*
X201125272Y-85553291D01*
X200996291Y-85682272D01*
X200844626Y-85783611D01*
X200676104Y-85853415D01*
X200497203Y-85889000D01*
X200314797Y-85889000D01*
X200135896Y-85853415D01*
X199967374Y-85783611D01*
X199815709Y-85682272D01*
X199686728Y-85553291D01*
X199585389Y-85401626D01*
X199515585Y-85233104D01*
X199480000Y-85054203D01*
X199480000Y-84871797D01*
X199515585Y-84692896D01*
X199585389Y-84524374D01*
X199686728Y-84372709D01*
X199815709Y-84243728D01*
X199967374Y-84142389D01*
X200135896Y-84072585D01*
X200314797Y-84037000D01*
X200497203Y-84037000D01*
X200676104Y-84072585D01*
X200676104Y-84072585D01*
G37*
G36*
X209566104Y-84072585D02*
G01*
X209734626Y-84142389D01*
X209886291Y-84243728D01*
X210015272Y-84372709D01*
X210116611Y-84524374D01*
X210186415Y-84692896D01*
X210222000Y-84871797D01*
X210222000Y-85054203D01*
X210186415Y-85233104D01*
X210116611Y-85401626D01*
X210015272Y-85553291D01*
X209886291Y-85682272D01*
X209734626Y-85783611D01*
X209566104Y-85853415D01*
X209387203Y-85889000D01*
X209204797Y-85889000D01*
X209025896Y-85853415D01*
X208857374Y-85783611D01*
X208705709Y-85682272D01*
X208576728Y-85553291D01*
X208475389Y-85401626D01*
X208405585Y-85233104D01*
X208370000Y-85054203D01*
X208370000Y-84871797D01*
X208405585Y-84692896D01*
X208475389Y-84524374D01*
X208576728Y-84372709D01*
X208705709Y-84243728D01*
X208857374Y-84142389D01*
X209025896Y-84072585D01*
X209204797Y-84037000D01*
X209387203Y-84037000D01*
X209566104Y-84072585D01*
X209566104Y-84072585D01*
G37*
G36*
X228616104Y-84072585D02*
G01*
X228784626Y-84142389D01*
X228936291Y-84243728D01*
X229065272Y-84372709D01*
X229166611Y-84524374D01*
X229236415Y-84692896D01*
X229272000Y-84871797D01*
X229272000Y-85054203D01*
X229236415Y-85233104D01*
X229166611Y-85401626D01*
X229065272Y-85553291D01*
X228936291Y-85682272D01*
X228784626Y-85783611D01*
X228616104Y-85853415D01*
X228437203Y-85889000D01*
X228254797Y-85889000D01*
X228075896Y-85853415D01*
X227907374Y-85783611D01*
X227755709Y-85682272D01*
X227626728Y-85553291D01*
X227525389Y-85401626D01*
X227455585Y-85233104D01*
X227420000Y-85054203D01*
X227420000Y-84871797D01*
X227455585Y-84692896D01*
X227525389Y-84524374D01*
X227626728Y-84372709D01*
X227755709Y-84243728D01*
X227907374Y-84142389D01*
X228075896Y-84072585D01*
X228254797Y-84037000D01*
X228437203Y-84037000D01*
X228616104Y-84072585D01*
X228616104Y-84072585D01*
G37*
G36*
X238776104Y-84072585D02*
G01*
X238944626Y-84142389D01*
X239096291Y-84243728D01*
X239225272Y-84372709D01*
X239326611Y-84524374D01*
X239396415Y-84692896D01*
X239432000Y-84871797D01*
X239432000Y-85054203D01*
X239396415Y-85233104D01*
X239326611Y-85401626D01*
X239225272Y-85553291D01*
X239096291Y-85682272D01*
X238944626Y-85783611D01*
X238776104Y-85853415D01*
X238597203Y-85889000D01*
X238414797Y-85889000D01*
X238235896Y-85853415D01*
X238067374Y-85783611D01*
X237915709Y-85682272D01*
X237786728Y-85553291D01*
X237685389Y-85401626D01*
X237615585Y-85233104D01*
X237580000Y-85054203D01*
X237580000Y-84871797D01*
X237615585Y-84692896D01*
X237685389Y-84524374D01*
X237786728Y-84372709D01*
X237915709Y-84243728D01*
X238067374Y-84142389D01*
X238235896Y-84072585D01*
X238414797Y-84037000D01*
X238597203Y-84037000D01*
X238776104Y-84072585D01*
X238776104Y-84072585D01*
G37*
G36*
X219726104Y-84072585D02*
G01*
X219894626Y-84142389D01*
X220046291Y-84243728D01*
X220175272Y-84372709D01*
X220276611Y-84524374D01*
X220346415Y-84692896D01*
X220382000Y-84871797D01*
X220382000Y-85054203D01*
X220346415Y-85233104D01*
X220276611Y-85401626D01*
X220175272Y-85553291D01*
X220046291Y-85682272D01*
X219894626Y-85783611D01*
X219726104Y-85853415D01*
X219547203Y-85889000D01*
X219364797Y-85889000D01*
X219185896Y-85853415D01*
X219017374Y-85783611D01*
X218865709Y-85682272D01*
X218736728Y-85553291D01*
X218635389Y-85401626D01*
X218565585Y-85233104D01*
X218530000Y-85054203D01*
X218530000Y-84871797D01*
X218565585Y-84692896D01*
X218635389Y-84524374D01*
X218736728Y-84372709D01*
X218865709Y-84243728D01*
X219017374Y-84142389D01*
X219185896Y-84072585D01*
X219364797Y-84037000D01*
X219547203Y-84037000D01*
X219726104Y-84072585D01*
X219726104Y-84072585D01*
G37*
G36*
X128264228Y-81985703D02*
G01*
X128419100Y-82049853D01*
X128558481Y-82142985D01*
X128677015Y-82261519D01*
X128770147Y-82400900D01*
X128834297Y-82555772D01*
X128867000Y-82720184D01*
X128867000Y-82887816D01*
X128834297Y-83052228D01*
X128770147Y-83207100D01*
X128677015Y-83346481D01*
X128558481Y-83465015D01*
X128419100Y-83558147D01*
X128264228Y-83622297D01*
X128099816Y-83655000D01*
X127932184Y-83655000D01*
X127767772Y-83622297D01*
X127612900Y-83558147D01*
X127473519Y-83465015D01*
X127354985Y-83346481D01*
X127261853Y-83207100D01*
X127197703Y-83052228D01*
X127165000Y-82887816D01*
X127165000Y-82720184D01*
X127197703Y-82555772D01*
X127261853Y-82400900D01*
X127354985Y-82261519D01*
X127473519Y-82142985D01*
X127612900Y-82049853D01*
X127767772Y-81985703D01*
X127932184Y-81953000D01*
X128099816Y-81953000D01*
X128264228Y-81985703D01*
X128264228Y-81985703D01*
G37*
G36*
X149981228Y-81985703D02*
G01*
X150136100Y-82049853D01*
X150275481Y-82142985D01*
X150394015Y-82261519D01*
X150487147Y-82400900D01*
X150551297Y-82555772D01*
X150584000Y-82720184D01*
X150584000Y-82887816D01*
X150551297Y-83052228D01*
X150487147Y-83207100D01*
X150394015Y-83346481D01*
X150275481Y-83465015D01*
X150136100Y-83558147D01*
X149981228Y-83622297D01*
X149816816Y-83655000D01*
X149649184Y-83655000D01*
X149484772Y-83622297D01*
X149329900Y-83558147D01*
X149190519Y-83465015D01*
X149071985Y-83346481D01*
X148978853Y-83207100D01*
X148914703Y-83052228D01*
X148882000Y-82887816D01*
X148882000Y-82720184D01*
X148914703Y-82555772D01*
X148978853Y-82400900D01*
X149071985Y-82261519D01*
X149190519Y-82142985D01*
X149329900Y-82049853D01*
X149484772Y-81985703D01*
X149649184Y-81953000D01*
X149816816Y-81953000D01*
X149981228Y-81985703D01*
X149981228Y-81985703D01*
G37*
G36*
X143504228Y-81985703D02*
G01*
X143659100Y-82049853D01*
X143798481Y-82142985D01*
X143917015Y-82261519D01*
X144010147Y-82400900D01*
X144074297Y-82555772D01*
X144107000Y-82720184D01*
X144107000Y-82887816D01*
X144074297Y-83052228D01*
X144010147Y-83207100D01*
X143917015Y-83346481D01*
X143798481Y-83465015D01*
X143659100Y-83558147D01*
X143504228Y-83622297D01*
X143339816Y-83655000D01*
X143172184Y-83655000D01*
X143007772Y-83622297D01*
X142852900Y-83558147D01*
X142713519Y-83465015D01*
X142594985Y-83346481D01*
X142501853Y-83207100D01*
X142437703Y-83052228D01*
X142405000Y-82887816D01*
X142405000Y-82720184D01*
X142437703Y-82555772D01*
X142501853Y-82400900D01*
X142594985Y-82261519D01*
X142713519Y-82142985D01*
X142852900Y-82049853D01*
X143007772Y-81985703D01*
X143172184Y-81953000D01*
X143339816Y-81953000D01*
X143504228Y-81985703D01*
X143504228Y-81985703D01*
G37*
G36*
X165221228Y-81985703D02*
G01*
X165376100Y-82049853D01*
X165515481Y-82142985D01*
X165634015Y-82261519D01*
X165727147Y-82400900D01*
X165791297Y-82555772D01*
X165824000Y-82720184D01*
X165824000Y-82887816D01*
X165791297Y-83052228D01*
X165727147Y-83207100D01*
X165634015Y-83346481D01*
X165515481Y-83465015D01*
X165376100Y-83558147D01*
X165221228Y-83622297D01*
X165056816Y-83655000D01*
X164889184Y-83655000D01*
X164724772Y-83622297D01*
X164569900Y-83558147D01*
X164430519Y-83465015D01*
X164311985Y-83346481D01*
X164218853Y-83207100D01*
X164154703Y-83052228D01*
X164122000Y-82887816D01*
X164122000Y-82720184D01*
X164154703Y-82555772D01*
X164218853Y-82400900D01*
X164311985Y-82261519D01*
X164430519Y-82142985D01*
X164569900Y-82049853D01*
X164724772Y-81985703D01*
X164889184Y-81953000D01*
X165056816Y-81953000D01*
X165221228Y-81985703D01*
X165221228Y-81985703D01*
G37*
G36*
X143504228Y-79445703D02*
G01*
X143659100Y-79509853D01*
X143798481Y-79602985D01*
X143917015Y-79721519D01*
X144010147Y-79860900D01*
X144074297Y-80015772D01*
X144107000Y-80180184D01*
X144107000Y-80347816D01*
X144074297Y-80512228D01*
X144010147Y-80667100D01*
X143917015Y-80806481D01*
X143798481Y-80925015D01*
X143659100Y-81018147D01*
X143504228Y-81082297D01*
X143339816Y-81115000D01*
X143172184Y-81115000D01*
X143007772Y-81082297D01*
X142852900Y-81018147D01*
X142713519Y-80925015D01*
X142594985Y-80806481D01*
X142501853Y-80667100D01*
X142437703Y-80512228D01*
X142405000Y-80347816D01*
X142405000Y-80180184D01*
X142437703Y-80015772D01*
X142501853Y-79860900D01*
X142594985Y-79721519D01*
X142713519Y-79602985D01*
X142852900Y-79509853D01*
X143007772Y-79445703D01*
X143172184Y-79413000D01*
X143339816Y-79413000D01*
X143504228Y-79445703D01*
X143504228Y-79445703D01*
G37*
G36*
X165221228Y-79445703D02*
G01*
X165376100Y-79509853D01*
X165515481Y-79602985D01*
X165634015Y-79721519D01*
X165727147Y-79860900D01*
X165791297Y-80015772D01*
X165824000Y-80180184D01*
X165824000Y-80347816D01*
X165791297Y-80512228D01*
X165727147Y-80667100D01*
X165634015Y-80806481D01*
X165515481Y-80925015D01*
X165376100Y-81018147D01*
X165221228Y-81082297D01*
X165056816Y-81115000D01*
X164889184Y-81115000D01*
X164724772Y-81082297D01*
X164569900Y-81018147D01*
X164430519Y-80925015D01*
X164311985Y-80806481D01*
X164218853Y-80667100D01*
X164154703Y-80512228D01*
X164122000Y-80347816D01*
X164122000Y-80180184D01*
X164154703Y-80015772D01*
X164218853Y-79860900D01*
X164311985Y-79721519D01*
X164430519Y-79602985D01*
X164569900Y-79509853D01*
X164724772Y-79445703D01*
X164889184Y-79413000D01*
X165056816Y-79413000D01*
X165221228Y-79445703D01*
X165221228Y-79445703D01*
G37*
G36*
X149981228Y-79445703D02*
G01*
X150136100Y-79509853D01*
X150275481Y-79602985D01*
X150394015Y-79721519D01*
X150487147Y-79860900D01*
X150551297Y-80015772D01*
X150584000Y-80180184D01*
X150584000Y-80347816D01*
X150551297Y-80512228D01*
X150487147Y-80667100D01*
X150394015Y-80806481D01*
X150275481Y-80925015D01*
X150136100Y-81018147D01*
X149981228Y-81082297D01*
X149816816Y-81115000D01*
X149649184Y-81115000D01*
X149484772Y-81082297D01*
X149329900Y-81018147D01*
X149190519Y-80925015D01*
X149071985Y-80806481D01*
X148978853Y-80667100D01*
X148914703Y-80512228D01*
X148882000Y-80347816D01*
X148882000Y-80180184D01*
X148914703Y-80015772D01*
X148978853Y-79860900D01*
X149071985Y-79721519D01*
X149190519Y-79602985D01*
X149329900Y-79509853D01*
X149484772Y-79445703D01*
X149649184Y-79413000D01*
X149816816Y-79413000D01*
X149981228Y-79445703D01*
X149981228Y-79445703D01*
G37*
G36*
X128264228Y-79445703D02*
G01*
X128419100Y-79509853D01*
X128558481Y-79602985D01*
X128677015Y-79721519D01*
X128770147Y-79860900D01*
X128834297Y-80015772D01*
X128867000Y-80180184D01*
X128867000Y-80347816D01*
X128834297Y-80512228D01*
X128770147Y-80667100D01*
X128677015Y-80806481D01*
X128558481Y-80925015D01*
X128419100Y-81018147D01*
X128264228Y-81082297D01*
X128099816Y-81115000D01*
X127932184Y-81115000D01*
X127767772Y-81082297D01*
X127612900Y-81018147D01*
X127473519Y-80925015D01*
X127354985Y-80806481D01*
X127261853Y-80667100D01*
X127197703Y-80512228D01*
X127165000Y-80347816D01*
X127165000Y-80180184D01*
X127197703Y-80015772D01*
X127261853Y-79860900D01*
X127354985Y-79721519D01*
X127473519Y-79602985D01*
X127612900Y-79509853D01*
X127767772Y-79445703D01*
X127932184Y-79413000D01*
X128099816Y-79413000D01*
X128264228Y-79445703D01*
X128264228Y-79445703D01*
G37*
G36*
X165221228Y-76905703D02*
G01*
X165376100Y-76969853D01*
X165515481Y-77062985D01*
X165634015Y-77181519D01*
X165727147Y-77320900D01*
X165791297Y-77475772D01*
X165824000Y-77640184D01*
X165824000Y-77807816D01*
X165791297Y-77972228D01*
X165727147Y-78127100D01*
X165634015Y-78266481D01*
X165515481Y-78385015D01*
X165376100Y-78478147D01*
X165221228Y-78542297D01*
X165056816Y-78575000D01*
X164889184Y-78575000D01*
X164724772Y-78542297D01*
X164569900Y-78478147D01*
X164430519Y-78385015D01*
X164311985Y-78266481D01*
X164218853Y-78127100D01*
X164154703Y-77972228D01*
X164122000Y-77807816D01*
X164122000Y-77640184D01*
X164154703Y-77475772D01*
X164218853Y-77320900D01*
X164311985Y-77181519D01*
X164430519Y-77062985D01*
X164569900Y-76969853D01*
X164724772Y-76905703D01*
X164889184Y-76873000D01*
X165056816Y-76873000D01*
X165221228Y-76905703D01*
X165221228Y-76905703D01*
G37*
G36*
X149981228Y-76905703D02*
G01*
X150136100Y-76969853D01*
X150275481Y-77062985D01*
X150394015Y-77181519D01*
X150487147Y-77320900D01*
X150551297Y-77475772D01*
X150584000Y-77640184D01*
X150584000Y-77807816D01*
X150551297Y-77972228D01*
X150487147Y-78127100D01*
X150394015Y-78266481D01*
X150275481Y-78385015D01*
X150136100Y-78478147D01*
X149981228Y-78542297D01*
X149816816Y-78575000D01*
X149649184Y-78575000D01*
X149484772Y-78542297D01*
X149329900Y-78478147D01*
X149190519Y-78385015D01*
X149071985Y-78266481D01*
X148978853Y-78127100D01*
X148914703Y-77972228D01*
X148882000Y-77807816D01*
X148882000Y-77640184D01*
X148914703Y-77475772D01*
X148978853Y-77320900D01*
X149071985Y-77181519D01*
X149190519Y-77062985D01*
X149329900Y-76969853D01*
X149484772Y-76905703D01*
X149649184Y-76873000D01*
X149816816Y-76873000D01*
X149981228Y-76905703D01*
X149981228Y-76905703D01*
G37*
G36*
X143504228Y-76905703D02*
G01*
X143659100Y-76969853D01*
X143798481Y-77062985D01*
X143917015Y-77181519D01*
X144010147Y-77320900D01*
X144074297Y-77475772D01*
X144107000Y-77640184D01*
X144107000Y-77807816D01*
X144074297Y-77972228D01*
X144010147Y-78127100D01*
X143917015Y-78266481D01*
X143798481Y-78385015D01*
X143659100Y-78478147D01*
X143504228Y-78542297D01*
X143339816Y-78575000D01*
X143172184Y-78575000D01*
X143007772Y-78542297D01*
X142852900Y-78478147D01*
X142713519Y-78385015D01*
X142594985Y-78266481D01*
X142501853Y-78127100D01*
X142437703Y-77972228D01*
X142405000Y-77807816D01*
X142405000Y-77640184D01*
X142437703Y-77475772D01*
X142501853Y-77320900D01*
X142594985Y-77181519D01*
X142713519Y-77062985D01*
X142852900Y-76969853D01*
X143007772Y-76905703D01*
X143172184Y-76873000D01*
X143339816Y-76873000D01*
X143504228Y-76905703D01*
X143504228Y-76905703D01*
G37*
G36*
X128264228Y-76905703D02*
G01*
X128419100Y-76969853D01*
X128558481Y-77062985D01*
X128677015Y-77181519D01*
X128770147Y-77320900D01*
X128834297Y-77475772D01*
X128867000Y-77640184D01*
X128867000Y-77807816D01*
X128834297Y-77972228D01*
X128770147Y-78127100D01*
X128677015Y-78266481D01*
X128558481Y-78385015D01*
X128419100Y-78478147D01*
X128264228Y-78542297D01*
X128099816Y-78575000D01*
X127932184Y-78575000D01*
X127767772Y-78542297D01*
X127612900Y-78478147D01*
X127473519Y-78385015D01*
X127354985Y-78266481D01*
X127261853Y-78127100D01*
X127197703Y-77972228D01*
X127165000Y-77807816D01*
X127165000Y-77640184D01*
X127197703Y-77475772D01*
X127261853Y-77320900D01*
X127354985Y-77181519D01*
X127473519Y-77062985D01*
X127612900Y-76969853D01*
X127767772Y-76905703D01*
X127932184Y-76873000D01*
X128099816Y-76873000D01*
X128264228Y-76905703D01*
X128264228Y-76905703D01*
G37*
G36*
X143504228Y-74365703D02*
G01*
X143659100Y-74429853D01*
X143798481Y-74522985D01*
X143917015Y-74641519D01*
X144010147Y-74780900D01*
X144074297Y-74935772D01*
X144107000Y-75100184D01*
X144107000Y-75267816D01*
X144074297Y-75432228D01*
X144010147Y-75587100D01*
X143917015Y-75726481D01*
X143798481Y-75845015D01*
X143659100Y-75938147D01*
X143504228Y-76002297D01*
X143339816Y-76035000D01*
X143172184Y-76035000D01*
X143007772Y-76002297D01*
X142852900Y-75938147D01*
X142713519Y-75845015D01*
X142594985Y-75726481D01*
X142501853Y-75587100D01*
X142437703Y-75432228D01*
X142405000Y-75267816D01*
X142405000Y-75100184D01*
X142437703Y-74935772D01*
X142501853Y-74780900D01*
X142594985Y-74641519D01*
X142713519Y-74522985D01*
X142852900Y-74429853D01*
X143007772Y-74365703D01*
X143172184Y-74333000D01*
X143339816Y-74333000D01*
X143504228Y-74365703D01*
X143504228Y-74365703D01*
G37*
G36*
X165221228Y-74365703D02*
G01*
X165376100Y-74429853D01*
X165515481Y-74522985D01*
X165634015Y-74641519D01*
X165727147Y-74780900D01*
X165791297Y-74935772D01*
X165824000Y-75100184D01*
X165824000Y-75267816D01*
X165791297Y-75432228D01*
X165727147Y-75587100D01*
X165634015Y-75726481D01*
X165515481Y-75845015D01*
X165376100Y-75938147D01*
X165221228Y-76002297D01*
X165056816Y-76035000D01*
X164889184Y-76035000D01*
X164724772Y-76002297D01*
X164569900Y-75938147D01*
X164430519Y-75845015D01*
X164311985Y-75726481D01*
X164218853Y-75587100D01*
X164154703Y-75432228D01*
X164122000Y-75267816D01*
X164122000Y-75100184D01*
X164154703Y-74935772D01*
X164218853Y-74780900D01*
X164311985Y-74641519D01*
X164430519Y-74522985D01*
X164569900Y-74429853D01*
X164724772Y-74365703D01*
X164889184Y-74333000D01*
X165056816Y-74333000D01*
X165221228Y-74365703D01*
X165221228Y-74365703D01*
G37*
G36*
X149981228Y-74365703D02*
G01*
X150136100Y-74429853D01*
X150275481Y-74522985D01*
X150394015Y-74641519D01*
X150487147Y-74780900D01*
X150551297Y-74935772D01*
X150584000Y-75100184D01*
X150584000Y-75267816D01*
X150551297Y-75432228D01*
X150487147Y-75587100D01*
X150394015Y-75726481D01*
X150275481Y-75845015D01*
X150136100Y-75938147D01*
X149981228Y-76002297D01*
X149816816Y-76035000D01*
X149649184Y-76035000D01*
X149484772Y-76002297D01*
X149329900Y-75938147D01*
X149190519Y-75845015D01*
X149071985Y-75726481D01*
X148978853Y-75587100D01*
X148914703Y-75432228D01*
X148882000Y-75267816D01*
X148882000Y-75100184D01*
X148914703Y-74935772D01*
X148978853Y-74780900D01*
X149071985Y-74641519D01*
X149190519Y-74522985D01*
X149329900Y-74429853D01*
X149484772Y-74365703D01*
X149649184Y-74333000D01*
X149816816Y-74333000D01*
X149981228Y-74365703D01*
X149981228Y-74365703D01*
G37*
G36*
X128264228Y-74365703D02*
G01*
X128419100Y-74429853D01*
X128558481Y-74522985D01*
X128677015Y-74641519D01*
X128770147Y-74780900D01*
X128834297Y-74935772D01*
X128867000Y-75100184D01*
X128867000Y-75267816D01*
X128834297Y-75432228D01*
X128770147Y-75587100D01*
X128677015Y-75726481D01*
X128558481Y-75845015D01*
X128419100Y-75938147D01*
X128264228Y-76002297D01*
X128099816Y-76035000D01*
X127932184Y-76035000D01*
X127767772Y-76002297D01*
X127612900Y-75938147D01*
X127473519Y-75845015D01*
X127354985Y-75726481D01*
X127261853Y-75587100D01*
X127197703Y-75432228D01*
X127165000Y-75267816D01*
X127165000Y-75100184D01*
X127197703Y-74935772D01*
X127261853Y-74780900D01*
X127354985Y-74641519D01*
X127473519Y-74522985D01*
X127612900Y-74429853D01*
X127767772Y-74365703D01*
X127932184Y-74333000D01*
X128099816Y-74333000D01*
X128264228Y-74365703D01*
X128264228Y-74365703D01*
G37*
G36*
X149981228Y-71825703D02*
G01*
X150136100Y-71889853D01*
X150275481Y-71982985D01*
X150394015Y-72101519D01*
X150487147Y-72240900D01*
X150551297Y-72395772D01*
X150584000Y-72560184D01*
X150584000Y-72727816D01*
X150551297Y-72892228D01*
X150487147Y-73047100D01*
X150394015Y-73186481D01*
X150275481Y-73305015D01*
X150136100Y-73398147D01*
X149981228Y-73462297D01*
X149816816Y-73495000D01*
X149649184Y-73495000D01*
X149484772Y-73462297D01*
X149329900Y-73398147D01*
X149190519Y-73305015D01*
X149071985Y-73186481D01*
X148978853Y-73047100D01*
X148914703Y-72892228D01*
X148882000Y-72727816D01*
X148882000Y-72560184D01*
X148914703Y-72395772D01*
X148978853Y-72240900D01*
X149071985Y-72101519D01*
X149190519Y-71982985D01*
X149329900Y-71889853D01*
X149484772Y-71825703D01*
X149649184Y-71793000D01*
X149816816Y-71793000D01*
X149981228Y-71825703D01*
X149981228Y-71825703D01*
G37*
G36*
X128264228Y-71825703D02*
G01*
X128419100Y-71889853D01*
X128558481Y-71982985D01*
X128677015Y-72101519D01*
X128770147Y-72240900D01*
X128834297Y-72395772D01*
X128867000Y-72560184D01*
X128867000Y-72727816D01*
X128834297Y-72892228D01*
X128770147Y-73047100D01*
X128677015Y-73186481D01*
X128558481Y-73305015D01*
X128419100Y-73398147D01*
X128264228Y-73462297D01*
X128099816Y-73495000D01*
X127932184Y-73495000D01*
X127767772Y-73462297D01*
X127612900Y-73398147D01*
X127473519Y-73305015D01*
X127354985Y-73186481D01*
X127261853Y-73047100D01*
X127197703Y-72892228D01*
X127165000Y-72727816D01*
X127165000Y-72560184D01*
X127197703Y-72395772D01*
X127261853Y-72240900D01*
X127354985Y-72101519D01*
X127473519Y-71982985D01*
X127612900Y-71889853D01*
X127767772Y-71825703D01*
X127932184Y-71793000D01*
X128099816Y-71793000D01*
X128264228Y-71825703D01*
X128264228Y-71825703D01*
G37*
G36*
X165221228Y-71825703D02*
G01*
X165376100Y-71889853D01*
X165515481Y-71982985D01*
X165634015Y-72101519D01*
X165727147Y-72240900D01*
X165791297Y-72395772D01*
X165824000Y-72560184D01*
X165824000Y-72727816D01*
X165791297Y-72892228D01*
X165727147Y-73047100D01*
X165634015Y-73186481D01*
X165515481Y-73305015D01*
X165376100Y-73398147D01*
X165221228Y-73462297D01*
X165056816Y-73495000D01*
X164889184Y-73495000D01*
X164724772Y-73462297D01*
X164569900Y-73398147D01*
X164430519Y-73305015D01*
X164311985Y-73186481D01*
X164218853Y-73047100D01*
X164154703Y-72892228D01*
X164122000Y-72727816D01*
X164122000Y-72560184D01*
X164154703Y-72395772D01*
X164218853Y-72240900D01*
X164311985Y-72101519D01*
X164430519Y-71982985D01*
X164569900Y-71889853D01*
X164724772Y-71825703D01*
X164889184Y-71793000D01*
X165056816Y-71793000D01*
X165221228Y-71825703D01*
X165221228Y-71825703D01*
G37*
G36*
X143504228Y-71825703D02*
G01*
X143659100Y-71889853D01*
X143798481Y-71982985D01*
X143917015Y-72101519D01*
X144010147Y-72240900D01*
X144074297Y-72395772D01*
X144107000Y-72560184D01*
X144107000Y-72727816D01*
X144074297Y-72892228D01*
X144010147Y-73047100D01*
X143917015Y-73186481D01*
X143798481Y-73305015D01*
X143659100Y-73398147D01*
X143504228Y-73462297D01*
X143339816Y-73495000D01*
X143172184Y-73495000D01*
X143007772Y-73462297D01*
X142852900Y-73398147D01*
X142713519Y-73305015D01*
X142594985Y-73186481D01*
X142501853Y-73047100D01*
X142437703Y-72892228D01*
X142405000Y-72727816D01*
X142405000Y-72560184D01*
X142437703Y-72395772D01*
X142501853Y-72240900D01*
X142594985Y-72101519D01*
X142713519Y-71982985D01*
X142852900Y-71889853D01*
X143007772Y-71825703D01*
X143172184Y-71793000D01*
X143339816Y-71793000D01*
X143504228Y-71825703D01*
X143504228Y-71825703D01*
G37*
G36*
X101684228Y-71317703D02*
G01*
X101839100Y-71381853D01*
X101978481Y-71474985D01*
X102097015Y-71593519D01*
X102190147Y-71732900D01*
X102254297Y-71887772D01*
X102287000Y-72052184D01*
X102287000Y-72219816D01*
X102254297Y-72384228D01*
X102190147Y-72539100D01*
X102097015Y-72678481D01*
X101978481Y-72797015D01*
X101839100Y-72890147D01*
X101684228Y-72954297D01*
X101519816Y-72987000D01*
X101352184Y-72987000D01*
X101187772Y-72954297D01*
X101032900Y-72890147D01*
X100893519Y-72797015D01*
X100774985Y-72678481D01*
X100681853Y-72539100D01*
X100617703Y-72384228D01*
X100585000Y-72219816D01*
X100585000Y-72052184D01*
X100617703Y-71887772D01*
X100681853Y-71732900D01*
X100774985Y-71593519D01*
X100893519Y-71474985D01*
X101032900Y-71381853D01*
X101187772Y-71317703D01*
X101352184Y-71285000D01*
X101519816Y-71285000D01*
X101684228Y-71317703D01*
X101684228Y-71317703D01*
G37*
G36*
X113537000Y-72987000D02*
G01*
X111835000Y-72987000D01*
X111835000Y-71285000D01*
X113537000Y-71285000D01*
X113537000Y-72987000D01*
X113537000Y-72987000D01*
G37*
G36*
X120734228Y-71317703D02*
G01*
X120889100Y-71381853D01*
X121028481Y-71474985D01*
X121147015Y-71593519D01*
X121240147Y-71732900D01*
X121304297Y-71887772D01*
X121337000Y-72052184D01*
X121337000Y-72219816D01*
X121304297Y-72384228D01*
X121240147Y-72539100D01*
X121147015Y-72678481D01*
X121028481Y-72797015D01*
X120889100Y-72890147D01*
X120734228Y-72954297D01*
X120569816Y-72987000D01*
X120402184Y-72987000D01*
X120237772Y-72954297D01*
X120082900Y-72890147D01*
X119943519Y-72797015D01*
X119824985Y-72678481D01*
X119731853Y-72539100D01*
X119667703Y-72384228D01*
X119635000Y-72219816D01*
X119635000Y-72052184D01*
X119667703Y-71887772D01*
X119731853Y-71732900D01*
X119824985Y-71593519D01*
X119943519Y-71474985D01*
X120082900Y-71381853D01*
X120237772Y-71317703D01*
X120402184Y-71285000D01*
X120569816Y-71285000D01*
X120734228Y-71317703D01*
X120734228Y-71317703D01*
G37*
G36*
X94487000Y-72987000D02*
G01*
X92785000Y-72987000D01*
X92785000Y-71285000D01*
X94487000Y-71285000D01*
X94487000Y-72987000D01*
X94487000Y-72987000D01*
G37*
G36*
X75437000Y-72987000D02*
G01*
X73735000Y-72987000D01*
X73735000Y-71285000D01*
X75437000Y-71285000D01*
X75437000Y-72987000D01*
X75437000Y-72987000D01*
G37*
G36*
X82634228Y-71317703D02*
G01*
X82789100Y-71381853D01*
X82928481Y-71474985D01*
X83047015Y-71593519D01*
X83140147Y-71732900D01*
X83204297Y-71887772D01*
X83237000Y-72052184D01*
X83237000Y-72219816D01*
X83204297Y-72384228D01*
X83140147Y-72539100D01*
X83047015Y-72678481D01*
X82928481Y-72797015D01*
X82789100Y-72890147D01*
X82634228Y-72954297D01*
X82469816Y-72987000D01*
X82302184Y-72987000D01*
X82137772Y-72954297D01*
X81982900Y-72890147D01*
X81843519Y-72797015D01*
X81724985Y-72678481D01*
X81631853Y-72539100D01*
X81567703Y-72384228D01*
X81535000Y-72219816D01*
X81535000Y-72052184D01*
X81567703Y-71887772D01*
X81631853Y-71732900D01*
X81724985Y-71593519D01*
X81843519Y-71474985D01*
X81982900Y-71381853D01*
X82137772Y-71317703D01*
X82302184Y-71285000D01*
X82469816Y-71285000D01*
X82634228Y-71317703D01*
X82634228Y-71317703D01*
G37*
G36*
X56387000Y-72987000D02*
G01*
X54685000Y-72987000D01*
X54685000Y-71285000D01*
X56387000Y-71285000D01*
X56387000Y-72987000D01*
X56387000Y-72987000D01*
G37*
G36*
X63584228Y-71317703D02*
G01*
X63739100Y-71381853D01*
X63878481Y-71474985D01*
X63997015Y-71593519D01*
X64090147Y-71732900D01*
X64154297Y-71887772D01*
X64187000Y-72052184D01*
X64187000Y-72219816D01*
X64154297Y-72384228D01*
X64090147Y-72539100D01*
X63997015Y-72678481D01*
X63878481Y-72797015D01*
X63739100Y-72890147D01*
X63584228Y-72954297D01*
X63419816Y-72987000D01*
X63252184Y-72987000D01*
X63087772Y-72954297D01*
X62932900Y-72890147D01*
X62793519Y-72797015D01*
X62674985Y-72678481D01*
X62581853Y-72539100D01*
X62517703Y-72384228D01*
X62485000Y-72219816D01*
X62485000Y-72052184D01*
X62517703Y-71887772D01*
X62581853Y-71732900D01*
X62674985Y-71593519D01*
X62793519Y-71474985D01*
X62932900Y-71381853D01*
X63087772Y-71317703D01*
X63252184Y-71285000D01*
X63419816Y-71285000D01*
X63584228Y-71317703D01*
X63584228Y-71317703D01*
G37*
G36*
X132587000Y-72987000D02*
G01*
X130885000Y-72987000D01*
X130885000Y-71285000D01*
X132587000Y-71285000D01*
X132587000Y-72987000D01*
X132587000Y-72987000D01*
G37*
G36*
X139784228Y-71317703D02*
G01*
X139939100Y-71381853D01*
X140078481Y-71474985D01*
X140197015Y-71593519D01*
X140290147Y-71732900D01*
X140354297Y-71887772D01*
X140387000Y-72052184D01*
X140387000Y-72219816D01*
X140354297Y-72384228D01*
X140290147Y-72539100D01*
X140197015Y-72678481D01*
X140078481Y-72797015D01*
X139939100Y-72890147D01*
X139784228Y-72954297D01*
X139619816Y-72987000D01*
X139452184Y-72987000D01*
X139287772Y-72954297D01*
X139132900Y-72890147D01*
X138993519Y-72797015D01*
X138874985Y-72678481D01*
X138781853Y-72539100D01*
X138717703Y-72384228D01*
X138685000Y-72219816D01*
X138685000Y-72052184D01*
X138717703Y-71887772D01*
X138781853Y-71732900D01*
X138874985Y-71593519D01*
X138993519Y-71474985D01*
X139132900Y-71381853D01*
X139287772Y-71317703D01*
X139452184Y-71285000D01*
X139619816Y-71285000D01*
X139784228Y-71317703D01*
X139784228Y-71317703D01*
G37*
G36*
X161374228Y-71190703D02*
G01*
X161529100Y-71254853D01*
X161668481Y-71347985D01*
X161787015Y-71466519D01*
X161880147Y-71605900D01*
X161944297Y-71760772D01*
X161977000Y-71925184D01*
X161977000Y-72092816D01*
X161944297Y-72257228D01*
X161880147Y-72412100D01*
X161787015Y-72551481D01*
X161668481Y-72670015D01*
X161529100Y-72763147D01*
X161374228Y-72827297D01*
X161209816Y-72860000D01*
X161042184Y-72860000D01*
X160877772Y-72827297D01*
X160722900Y-72763147D01*
X160583519Y-72670015D01*
X160464985Y-72551481D01*
X160371853Y-72412100D01*
X160307703Y-72257228D01*
X160275000Y-72092816D01*
X160275000Y-71925184D01*
X160307703Y-71760772D01*
X160371853Y-71605900D01*
X160464985Y-71466519D01*
X160583519Y-71347985D01*
X160722900Y-71254853D01*
X160877772Y-71190703D01*
X161042184Y-71158000D01*
X161209816Y-71158000D01*
X161374228Y-71190703D01*
X161374228Y-71190703D01*
G37*
G36*
X211327000Y-72860000D02*
G01*
X209625000Y-72860000D01*
X209625000Y-71158000D01*
X211327000Y-71158000D01*
X211327000Y-72860000D01*
X211327000Y-72860000D01*
G37*
G36*
X237574228Y-71190703D02*
G01*
X237729100Y-71254853D01*
X237868481Y-71347985D01*
X237987015Y-71466519D01*
X238080147Y-71605900D01*
X238144297Y-71760772D01*
X238177000Y-71925184D01*
X238177000Y-72092816D01*
X238144297Y-72257228D01*
X238080147Y-72412100D01*
X237987015Y-72551481D01*
X237868481Y-72670015D01*
X237729100Y-72763147D01*
X237574228Y-72827297D01*
X237409816Y-72860000D01*
X237242184Y-72860000D01*
X237077772Y-72827297D01*
X236922900Y-72763147D01*
X236783519Y-72670015D01*
X236664985Y-72551481D01*
X236571853Y-72412100D01*
X236507703Y-72257228D01*
X236475000Y-72092816D01*
X236475000Y-71925184D01*
X236507703Y-71760772D01*
X236571853Y-71605900D01*
X236664985Y-71466519D01*
X236783519Y-71347985D01*
X236922900Y-71254853D01*
X237077772Y-71190703D01*
X237242184Y-71158000D01*
X237409816Y-71158000D01*
X237574228Y-71190703D01*
X237574228Y-71190703D01*
G37*
G36*
X230377000Y-72860000D02*
G01*
X228675000Y-72860000D01*
X228675000Y-71158000D01*
X230377000Y-71158000D01*
X230377000Y-72860000D01*
X230377000Y-72860000D01*
G37*
G36*
X218524228Y-71190703D02*
G01*
X218679100Y-71254853D01*
X218818481Y-71347985D01*
X218937015Y-71466519D01*
X219030147Y-71605900D01*
X219094297Y-71760772D01*
X219127000Y-71925184D01*
X219127000Y-72092816D01*
X219094297Y-72257228D01*
X219030147Y-72412100D01*
X218937015Y-72551481D01*
X218818481Y-72670015D01*
X218679100Y-72763147D01*
X218524228Y-72827297D01*
X218359816Y-72860000D01*
X218192184Y-72860000D01*
X218027772Y-72827297D01*
X217872900Y-72763147D01*
X217733519Y-72670015D01*
X217614985Y-72551481D01*
X217521853Y-72412100D01*
X217457703Y-72257228D01*
X217425000Y-72092816D01*
X217425000Y-71925184D01*
X217457703Y-71760772D01*
X217521853Y-71605900D01*
X217614985Y-71466519D01*
X217733519Y-71347985D01*
X217872900Y-71254853D01*
X218027772Y-71190703D01*
X218192184Y-71158000D01*
X218359816Y-71158000D01*
X218524228Y-71190703D01*
X218524228Y-71190703D01*
G37*
G36*
X192277000Y-72860000D02*
G01*
X190575000Y-72860000D01*
X190575000Y-71158000D01*
X192277000Y-71158000D01*
X192277000Y-72860000D01*
X192277000Y-72860000D01*
G37*
G36*
X199474228Y-71190703D02*
G01*
X199629100Y-71254853D01*
X199768481Y-71347985D01*
X199887015Y-71466519D01*
X199980147Y-71605900D01*
X200044297Y-71760772D01*
X200077000Y-71925184D01*
X200077000Y-72092816D01*
X200044297Y-72257228D01*
X199980147Y-72412100D01*
X199887015Y-72551481D01*
X199768481Y-72670015D01*
X199629100Y-72763147D01*
X199474228Y-72827297D01*
X199309816Y-72860000D01*
X199142184Y-72860000D01*
X198977772Y-72827297D01*
X198822900Y-72763147D01*
X198683519Y-72670015D01*
X198564985Y-72551481D01*
X198471853Y-72412100D01*
X198407703Y-72257228D01*
X198375000Y-72092816D01*
X198375000Y-71925184D01*
X198407703Y-71760772D01*
X198471853Y-71605900D01*
X198564985Y-71466519D01*
X198683519Y-71347985D01*
X198822900Y-71254853D01*
X198977772Y-71190703D01*
X199142184Y-71158000D01*
X199309816Y-71158000D01*
X199474228Y-71190703D01*
X199474228Y-71190703D01*
G37*
G36*
X180424228Y-71190703D02*
G01*
X180579100Y-71254853D01*
X180718481Y-71347985D01*
X180837015Y-71466519D01*
X180930147Y-71605900D01*
X180994297Y-71760772D01*
X181027000Y-71925184D01*
X181027000Y-72092816D01*
X180994297Y-72257228D01*
X180930147Y-72412100D01*
X180837015Y-72551481D01*
X180718481Y-72670015D01*
X180579100Y-72763147D01*
X180424228Y-72827297D01*
X180259816Y-72860000D01*
X180092184Y-72860000D01*
X179927772Y-72827297D01*
X179772900Y-72763147D01*
X179633519Y-72670015D01*
X179514985Y-72551481D01*
X179421853Y-72412100D01*
X179357703Y-72257228D01*
X179325000Y-72092816D01*
X179325000Y-71925184D01*
X179357703Y-71760772D01*
X179421853Y-71605900D01*
X179514985Y-71466519D01*
X179633519Y-71347985D01*
X179772900Y-71254853D01*
X179927772Y-71190703D01*
X180092184Y-71158000D01*
X180259816Y-71158000D01*
X180424228Y-71190703D01*
X180424228Y-71190703D01*
G37*
G36*
X173227000Y-72860000D02*
G01*
X171525000Y-72860000D01*
X171525000Y-71158000D01*
X173227000Y-71158000D01*
X173227000Y-72860000D01*
X173227000Y-72860000D01*
G37*
G36*
X154177000Y-72860000D02*
G01*
X152475000Y-72860000D01*
X152475000Y-71158000D01*
X154177000Y-71158000D01*
X154177000Y-72860000D01*
X154177000Y-72860000D01*
G37*
G36*
X96987000Y-72787000D02*
G01*
X95285000Y-72787000D01*
X95285000Y-71485000D01*
X96987000Y-71485000D01*
X96987000Y-72787000D01*
X96987000Y-72787000D01*
G37*
G36*
X58887000Y-72787000D02*
G01*
X57185000Y-72787000D01*
X57185000Y-71485000D01*
X58887000Y-71485000D01*
X58887000Y-72787000D01*
X58887000Y-72787000D01*
G37*
G36*
X80737000Y-72787000D02*
G01*
X79035000Y-72787000D01*
X79035000Y-71485000D01*
X80737000Y-71485000D01*
X80737000Y-72787000D01*
X80737000Y-72787000D01*
G37*
G36*
X77937000Y-72787000D02*
G01*
X76235000Y-72787000D01*
X76235000Y-71485000D01*
X77937000Y-71485000D01*
X77937000Y-72787000D01*
X77937000Y-72787000D01*
G37*
G36*
X99787000Y-72787000D02*
G01*
X98085000Y-72787000D01*
X98085000Y-71485000D01*
X99787000Y-71485000D01*
X99787000Y-72787000D01*
X99787000Y-72787000D01*
G37*
G36*
X118837000Y-72787000D02*
G01*
X117135000Y-72787000D01*
X117135000Y-71485000D01*
X118837000Y-71485000D01*
X118837000Y-72787000D01*
X118837000Y-72787000D01*
G37*
G36*
X116037000Y-72787000D02*
G01*
X114335000Y-72787000D01*
X114335000Y-71485000D01*
X116037000Y-71485000D01*
X116037000Y-72787000D01*
X116037000Y-72787000D01*
G37*
G36*
X137887000Y-72787000D02*
G01*
X136185000Y-72787000D01*
X136185000Y-71485000D01*
X137887000Y-71485000D01*
X137887000Y-72787000D01*
X137887000Y-72787000D01*
G37*
G36*
X135087000Y-72787000D02*
G01*
X133385000Y-72787000D01*
X133385000Y-71485000D01*
X135087000Y-71485000D01*
X135087000Y-72787000D01*
X135087000Y-72787000D01*
G37*
G36*
X61687000Y-72787000D02*
G01*
X59985000Y-72787000D01*
X59985000Y-71485000D01*
X61687000Y-71485000D01*
X61687000Y-72787000D01*
X61687000Y-72787000D01*
G37*
G36*
X197577000Y-72660000D02*
G01*
X195875000Y-72660000D01*
X195875000Y-71358000D01*
X197577000Y-71358000D01*
X197577000Y-72660000D01*
X197577000Y-72660000D01*
G37*
G36*
X216627000Y-72660000D02*
G01*
X214925000Y-72660000D01*
X214925000Y-71358000D01*
X216627000Y-71358000D01*
X216627000Y-72660000D01*
X216627000Y-72660000D01*
G37*
G36*
X156677000Y-72660000D02*
G01*
X154975000Y-72660000D01*
X154975000Y-71358000D01*
X156677000Y-71358000D01*
X156677000Y-72660000D01*
X156677000Y-72660000D01*
G37*
G36*
X175727000Y-72660000D02*
G01*
X174025000Y-72660000D01*
X174025000Y-71358000D01*
X175727000Y-71358000D01*
X175727000Y-72660000D01*
X175727000Y-72660000D01*
G37*
G36*
X178527000Y-72660000D02*
G01*
X176825000Y-72660000D01*
X176825000Y-71358000D01*
X178527000Y-71358000D01*
X178527000Y-72660000D01*
X178527000Y-72660000D01*
G37*
G36*
X235677000Y-72660000D02*
G01*
X233975000Y-72660000D01*
X233975000Y-71358000D01*
X235677000Y-71358000D01*
X235677000Y-72660000D01*
X235677000Y-72660000D01*
G37*
G36*
X232877000Y-72660000D02*
G01*
X231175000Y-72660000D01*
X231175000Y-71358000D01*
X232877000Y-71358000D01*
X232877000Y-72660000D01*
X232877000Y-72660000D01*
G37*
G36*
X194777000Y-72660000D02*
G01*
X193075000Y-72660000D01*
X193075000Y-71358000D01*
X194777000Y-71358000D01*
X194777000Y-72660000D01*
X194777000Y-72660000D01*
G37*
G36*
X159477000Y-72660000D02*
G01*
X157775000Y-72660000D01*
X157775000Y-71358000D01*
X159477000Y-71358000D01*
X159477000Y-72660000D01*
X159477000Y-72660000D01*
G37*
G36*
X213827000Y-72660000D02*
G01*
X212125000Y-72660000D01*
X212125000Y-71358000D01*
X213827000Y-71358000D01*
X213827000Y-72660000D01*
X213827000Y-72660000D01*
G37*
G36*
X149981228Y-69285703D02*
G01*
X150136100Y-69349853D01*
X150275481Y-69442985D01*
X150394015Y-69561519D01*
X150487147Y-69700900D01*
X150551297Y-69855772D01*
X150584000Y-70020184D01*
X150584000Y-70187816D01*
X150551297Y-70352228D01*
X150487147Y-70507100D01*
X150394015Y-70646481D01*
X150275481Y-70765015D01*
X150136100Y-70858147D01*
X149981228Y-70922297D01*
X149816816Y-70955000D01*
X149649184Y-70955000D01*
X149484772Y-70922297D01*
X149329900Y-70858147D01*
X149190519Y-70765015D01*
X149071985Y-70646481D01*
X148978853Y-70507100D01*
X148914703Y-70352228D01*
X148882000Y-70187816D01*
X148882000Y-70020184D01*
X148914703Y-69855772D01*
X148978853Y-69700900D01*
X149071985Y-69561519D01*
X149190519Y-69442985D01*
X149329900Y-69349853D01*
X149484772Y-69285703D01*
X149649184Y-69253000D01*
X149816816Y-69253000D01*
X149981228Y-69285703D01*
X149981228Y-69285703D01*
G37*
G36*
X143504228Y-69285703D02*
G01*
X143659100Y-69349853D01*
X143798481Y-69442985D01*
X143917015Y-69561519D01*
X144010147Y-69700900D01*
X144074297Y-69855772D01*
X144107000Y-70020184D01*
X144107000Y-70187816D01*
X144074297Y-70352228D01*
X144010147Y-70507100D01*
X143917015Y-70646481D01*
X143798481Y-70765015D01*
X143659100Y-70858147D01*
X143504228Y-70922297D01*
X143339816Y-70955000D01*
X143172184Y-70955000D01*
X143007772Y-70922297D01*
X142852900Y-70858147D01*
X142713519Y-70765015D01*
X142594985Y-70646481D01*
X142501853Y-70507100D01*
X142437703Y-70352228D01*
X142405000Y-70187816D01*
X142405000Y-70020184D01*
X142437703Y-69855772D01*
X142501853Y-69700900D01*
X142594985Y-69561519D01*
X142713519Y-69442985D01*
X142852900Y-69349853D01*
X143007772Y-69285703D01*
X143172184Y-69253000D01*
X143339816Y-69253000D01*
X143504228Y-69285703D01*
X143504228Y-69285703D01*
G37*
G36*
X165221228Y-69285703D02*
G01*
X165376100Y-69349853D01*
X165515481Y-69442985D01*
X165634015Y-69561519D01*
X165727147Y-69700900D01*
X165791297Y-69855772D01*
X165824000Y-70020184D01*
X165824000Y-70187816D01*
X165791297Y-70352228D01*
X165727147Y-70507100D01*
X165634015Y-70646481D01*
X165515481Y-70765015D01*
X165376100Y-70858147D01*
X165221228Y-70922297D01*
X165056816Y-70955000D01*
X164889184Y-70955000D01*
X164724772Y-70922297D01*
X164569900Y-70858147D01*
X164430519Y-70765015D01*
X164311985Y-70646481D01*
X164218853Y-70507100D01*
X164154703Y-70352228D01*
X164122000Y-70187816D01*
X164122000Y-70020184D01*
X164154703Y-69855772D01*
X164218853Y-69700900D01*
X164311985Y-69561519D01*
X164430519Y-69442985D01*
X164569900Y-69349853D01*
X164724772Y-69285703D01*
X164889184Y-69253000D01*
X165056816Y-69253000D01*
X165221228Y-69285703D01*
X165221228Y-69285703D01*
G37*
G36*
X128264228Y-69285703D02*
G01*
X128419100Y-69349853D01*
X128558481Y-69442985D01*
X128677015Y-69561519D01*
X128770147Y-69700900D01*
X128834297Y-69855772D01*
X128867000Y-70020184D01*
X128867000Y-70187816D01*
X128834297Y-70352228D01*
X128770147Y-70507100D01*
X128677015Y-70646481D01*
X128558481Y-70765015D01*
X128419100Y-70858147D01*
X128264228Y-70922297D01*
X128099816Y-70955000D01*
X127932184Y-70955000D01*
X127767772Y-70922297D01*
X127612900Y-70858147D01*
X127473519Y-70765015D01*
X127354985Y-70646481D01*
X127261853Y-70507100D01*
X127197703Y-70352228D01*
X127165000Y-70187816D01*
X127165000Y-70020184D01*
X127197703Y-69855772D01*
X127261853Y-69700900D01*
X127354985Y-69561519D01*
X127473519Y-69442985D01*
X127612900Y-69349853D01*
X127767772Y-69285703D01*
X127932184Y-69253000D01*
X128099816Y-69253000D01*
X128264228Y-69285703D01*
X128264228Y-69285703D01*
G37*
G36*
X143504228Y-66745703D02*
G01*
X143659100Y-66809853D01*
X143798481Y-66902985D01*
X143917015Y-67021519D01*
X144010147Y-67160900D01*
X144074297Y-67315772D01*
X144107000Y-67480184D01*
X144107000Y-67647816D01*
X144074297Y-67812228D01*
X144010147Y-67967100D01*
X143917015Y-68106481D01*
X143798481Y-68225015D01*
X143659100Y-68318147D01*
X143504228Y-68382297D01*
X143339816Y-68415000D01*
X143172184Y-68415000D01*
X143007772Y-68382297D01*
X142852900Y-68318147D01*
X142713519Y-68225015D01*
X142594985Y-68106481D01*
X142501853Y-67967100D01*
X142437703Y-67812228D01*
X142405000Y-67647816D01*
X142405000Y-67480184D01*
X142437703Y-67315772D01*
X142501853Y-67160900D01*
X142594985Y-67021519D01*
X142713519Y-66902985D01*
X142852900Y-66809853D01*
X143007772Y-66745703D01*
X143172184Y-66713000D01*
X143339816Y-66713000D01*
X143504228Y-66745703D01*
X143504228Y-66745703D01*
G37*
G36*
X128264228Y-66745703D02*
G01*
X128419100Y-66809853D01*
X128558481Y-66902985D01*
X128677015Y-67021519D01*
X128770147Y-67160900D01*
X128834297Y-67315772D01*
X128867000Y-67480184D01*
X128867000Y-67647816D01*
X128834297Y-67812228D01*
X128770147Y-67967100D01*
X128677015Y-68106481D01*
X128558481Y-68225015D01*
X128419100Y-68318147D01*
X128264228Y-68382297D01*
X128099816Y-68415000D01*
X127932184Y-68415000D01*
X127767772Y-68382297D01*
X127612900Y-68318147D01*
X127473519Y-68225015D01*
X127354985Y-68106481D01*
X127261853Y-67967100D01*
X127197703Y-67812228D01*
X127165000Y-67647816D01*
X127165000Y-67480184D01*
X127197703Y-67315772D01*
X127261853Y-67160900D01*
X127354985Y-67021519D01*
X127473519Y-66902985D01*
X127612900Y-66809853D01*
X127767772Y-66745703D01*
X127932184Y-66713000D01*
X128099816Y-66713000D01*
X128264228Y-66745703D01*
X128264228Y-66745703D01*
G37*
G36*
X165221228Y-66745703D02*
G01*
X165376100Y-66809853D01*
X165515481Y-66902985D01*
X165634015Y-67021519D01*
X165727147Y-67160900D01*
X165791297Y-67315772D01*
X165824000Y-67480184D01*
X165824000Y-67647816D01*
X165791297Y-67812228D01*
X165727147Y-67967100D01*
X165634015Y-68106481D01*
X165515481Y-68225015D01*
X165376100Y-68318147D01*
X165221228Y-68382297D01*
X165056816Y-68415000D01*
X164889184Y-68415000D01*
X164724772Y-68382297D01*
X164569900Y-68318147D01*
X164430519Y-68225015D01*
X164311985Y-68106481D01*
X164218853Y-67967100D01*
X164154703Y-67812228D01*
X164122000Y-67647816D01*
X164122000Y-67480184D01*
X164154703Y-67315772D01*
X164218853Y-67160900D01*
X164311985Y-67021519D01*
X164430519Y-66902985D01*
X164569900Y-66809853D01*
X164724772Y-66745703D01*
X164889184Y-66713000D01*
X165056816Y-66713000D01*
X165221228Y-66745703D01*
X165221228Y-66745703D01*
G37*
G36*
X149981228Y-66745703D02*
G01*
X150136100Y-66809853D01*
X150275481Y-66902985D01*
X150394015Y-67021519D01*
X150487147Y-67160900D01*
X150551297Y-67315772D01*
X150584000Y-67480184D01*
X150584000Y-67647816D01*
X150551297Y-67812228D01*
X150487147Y-67967100D01*
X150394015Y-68106481D01*
X150275481Y-68225015D01*
X150136100Y-68318147D01*
X149981228Y-68382297D01*
X149816816Y-68415000D01*
X149649184Y-68415000D01*
X149484772Y-68382297D01*
X149329900Y-68318147D01*
X149190519Y-68225015D01*
X149071985Y-68106481D01*
X148978853Y-67967100D01*
X148914703Y-67812228D01*
X148882000Y-67647816D01*
X148882000Y-67480184D01*
X148914703Y-67315772D01*
X148978853Y-67160900D01*
X149071985Y-67021519D01*
X149190519Y-66902985D01*
X149329900Y-66809853D01*
X149484772Y-66745703D01*
X149649184Y-66713000D01*
X149816816Y-66713000D01*
X149981228Y-66745703D01*
X149981228Y-66745703D01*
G37*
G36*
X136232474Y-64073684D02*
G01*
X136450474Y-64163983D01*
X136604623Y-64227833D01*
X136939548Y-64451623D01*
X137224377Y-64736452D01*
X137448167Y-65071377D01*
X137480562Y-65149586D01*
X137602316Y-65443526D01*
X137680900Y-65838594D01*
X137680900Y-66241406D01*
X137602316Y-66636474D01*
X137551451Y-66759272D01*
X137448167Y-67008623D01*
X137224377Y-67343548D01*
X136939548Y-67628377D01*
X136604623Y-67852167D01*
X136539079Y-67879316D01*
X136232474Y-68006316D01*
X135837406Y-68084900D01*
X135434594Y-68084900D01*
X135039526Y-68006316D01*
X134732921Y-67879316D01*
X134667377Y-67852167D01*
X134332452Y-67628377D01*
X134047623Y-67343548D01*
X133823833Y-67008623D01*
X133720549Y-66759272D01*
X133669684Y-66636474D01*
X133591100Y-66241406D01*
X133591100Y-65838594D01*
X133669684Y-65443526D01*
X133791438Y-65149586D01*
X133823833Y-65071377D01*
X134047623Y-64736452D01*
X134332452Y-64451623D01*
X134667377Y-64227833D01*
X134821526Y-64163983D01*
X135039526Y-64073684D01*
X135434594Y-63995100D01*
X135837406Y-63995100D01*
X136232474Y-64073684D01*
X136232474Y-64073684D01*
G37*
G36*
X117182474Y-64073684D02*
G01*
X117400474Y-64163983D01*
X117554623Y-64227833D01*
X117889548Y-64451623D01*
X118174377Y-64736452D01*
X118398167Y-65071377D01*
X118430562Y-65149586D01*
X118552316Y-65443526D01*
X118630900Y-65838594D01*
X118630900Y-66241406D01*
X118552316Y-66636474D01*
X118501451Y-66759272D01*
X118398167Y-67008623D01*
X118174377Y-67343548D01*
X117889548Y-67628377D01*
X117554623Y-67852167D01*
X117489079Y-67879316D01*
X117182474Y-68006316D01*
X116787406Y-68084900D01*
X116384594Y-68084900D01*
X115989526Y-68006316D01*
X115682921Y-67879316D01*
X115617377Y-67852167D01*
X115282452Y-67628377D01*
X114997623Y-67343548D01*
X114773833Y-67008623D01*
X114670549Y-66759272D01*
X114619684Y-66636474D01*
X114541100Y-66241406D01*
X114541100Y-65838594D01*
X114619684Y-65443526D01*
X114741438Y-65149586D01*
X114773833Y-65071377D01*
X114997623Y-64736452D01*
X115282452Y-64451623D01*
X115617377Y-64227833D01*
X115771526Y-64163983D01*
X115989526Y-64073684D01*
X116384594Y-63995100D01*
X116787406Y-63995100D01*
X117182474Y-64073684D01*
X117182474Y-64073684D01*
G37*
G36*
X79082474Y-64073684D02*
G01*
X79300474Y-64163983D01*
X79454623Y-64227833D01*
X79789548Y-64451623D01*
X80074377Y-64736452D01*
X80298167Y-65071377D01*
X80330562Y-65149586D01*
X80452316Y-65443526D01*
X80530900Y-65838594D01*
X80530900Y-66241406D01*
X80452316Y-66636474D01*
X80401451Y-66759272D01*
X80298167Y-67008623D01*
X80074377Y-67343548D01*
X79789548Y-67628377D01*
X79454623Y-67852167D01*
X79389079Y-67879316D01*
X79082474Y-68006316D01*
X78687406Y-68084900D01*
X78284594Y-68084900D01*
X77889526Y-68006316D01*
X77582921Y-67879316D01*
X77517377Y-67852167D01*
X77182452Y-67628377D01*
X76897623Y-67343548D01*
X76673833Y-67008623D01*
X76570549Y-66759272D01*
X76519684Y-66636474D01*
X76441100Y-66241406D01*
X76441100Y-65838594D01*
X76519684Y-65443526D01*
X76641438Y-65149586D01*
X76673833Y-65071377D01*
X76897623Y-64736452D01*
X77182452Y-64451623D01*
X77517377Y-64227833D01*
X77671526Y-64163983D01*
X77889526Y-64073684D01*
X78284594Y-63995100D01*
X78687406Y-63995100D01*
X79082474Y-64073684D01*
X79082474Y-64073684D01*
G37*
G36*
X98132474Y-64073684D02*
G01*
X98350474Y-64163983D01*
X98504623Y-64227833D01*
X98839548Y-64451623D01*
X99124377Y-64736452D01*
X99348167Y-65071377D01*
X99380562Y-65149586D01*
X99502316Y-65443526D01*
X99580900Y-65838594D01*
X99580900Y-66241406D01*
X99502316Y-66636474D01*
X99451451Y-66759272D01*
X99348167Y-67008623D01*
X99124377Y-67343548D01*
X98839548Y-67628377D01*
X98504623Y-67852167D01*
X98439079Y-67879316D01*
X98132474Y-68006316D01*
X97737406Y-68084900D01*
X97334594Y-68084900D01*
X96939526Y-68006316D01*
X96632921Y-67879316D01*
X96567377Y-67852167D01*
X96232452Y-67628377D01*
X95947623Y-67343548D01*
X95723833Y-67008623D01*
X95620549Y-66759272D01*
X95569684Y-66636474D01*
X95491100Y-66241406D01*
X95491100Y-65838594D01*
X95569684Y-65443526D01*
X95691438Y-65149586D01*
X95723833Y-65071377D01*
X95947623Y-64736452D01*
X96232452Y-64451623D01*
X96567377Y-64227833D01*
X96721526Y-64163983D01*
X96939526Y-64073684D01*
X97334594Y-63995100D01*
X97737406Y-63995100D01*
X98132474Y-64073684D01*
X98132474Y-64073684D01*
G37*
G36*
X60032474Y-64073684D02*
G01*
X60250474Y-64163983D01*
X60404623Y-64227833D01*
X60739548Y-64451623D01*
X61024377Y-64736452D01*
X61248167Y-65071377D01*
X61280562Y-65149586D01*
X61402316Y-65443526D01*
X61480900Y-65838594D01*
X61480900Y-66241406D01*
X61402316Y-66636474D01*
X61351451Y-66759272D01*
X61248167Y-67008623D01*
X61024377Y-67343548D01*
X60739548Y-67628377D01*
X60404623Y-67852167D01*
X60339079Y-67879316D01*
X60032474Y-68006316D01*
X59637406Y-68084900D01*
X59234594Y-68084900D01*
X58839526Y-68006316D01*
X58532921Y-67879316D01*
X58467377Y-67852167D01*
X58132452Y-67628377D01*
X57847623Y-67343548D01*
X57623833Y-67008623D01*
X57520549Y-66759272D01*
X57469684Y-66636474D01*
X57391100Y-66241406D01*
X57391100Y-65838594D01*
X57469684Y-65443526D01*
X57591438Y-65149586D01*
X57623833Y-65071377D01*
X57847623Y-64736452D01*
X58132452Y-64451623D01*
X58467377Y-64227833D01*
X58621526Y-64163983D01*
X58839526Y-64073684D01*
X59234594Y-63995100D01*
X59637406Y-63995100D01*
X60032474Y-64073684D01*
X60032474Y-64073684D01*
G37*
G36*
X234022474Y-63946684D02*
G01*
X234139360Y-63995100D01*
X234394623Y-64100833D01*
X234729548Y-64324623D01*
X235014377Y-64609452D01*
X235238167Y-64944377D01*
X235270562Y-65022586D01*
X235392316Y-65316526D01*
X235470900Y-65711594D01*
X235470900Y-66114406D01*
X235392316Y-66509474D01*
X235341451Y-66632272D01*
X235238167Y-66881623D01*
X235014377Y-67216548D01*
X234729548Y-67501377D01*
X234394623Y-67725167D01*
X234240474Y-67789017D01*
X234022474Y-67879316D01*
X233627406Y-67957900D01*
X233224594Y-67957900D01*
X232829526Y-67879316D01*
X232611526Y-67789017D01*
X232457377Y-67725167D01*
X232122452Y-67501377D01*
X231837623Y-67216548D01*
X231613833Y-66881623D01*
X231510549Y-66632272D01*
X231459684Y-66509474D01*
X231381100Y-66114406D01*
X231381100Y-65711594D01*
X231459684Y-65316526D01*
X231581438Y-65022586D01*
X231613833Y-64944377D01*
X231837623Y-64609452D01*
X232122452Y-64324623D01*
X232457377Y-64100833D01*
X232712640Y-63995100D01*
X232829526Y-63946684D01*
X233224594Y-63868100D01*
X233627406Y-63868100D01*
X234022474Y-63946684D01*
X234022474Y-63946684D01*
G37*
G36*
X157949474Y-63946684D02*
G01*
X158066360Y-63995100D01*
X158321623Y-64100833D01*
X158656548Y-64324623D01*
X158941377Y-64609452D01*
X159165167Y-64944377D01*
X159197562Y-65022586D01*
X159319316Y-65316526D01*
X159397900Y-65711594D01*
X159397900Y-66114406D01*
X159319316Y-66509474D01*
X159268451Y-66632272D01*
X159165167Y-66881623D01*
X158941377Y-67216548D01*
X158656548Y-67501377D01*
X158321623Y-67725167D01*
X158167474Y-67789017D01*
X157949474Y-67879316D01*
X157554406Y-67957900D01*
X157151594Y-67957900D01*
X156756526Y-67879316D01*
X156538526Y-67789017D01*
X156384377Y-67725167D01*
X156049452Y-67501377D01*
X155764623Y-67216548D01*
X155540833Y-66881623D01*
X155437549Y-66632272D01*
X155386684Y-66509474D01*
X155308100Y-66114406D01*
X155308100Y-65711594D01*
X155386684Y-65316526D01*
X155508438Y-65022586D01*
X155540833Y-64944377D01*
X155764623Y-64609452D01*
X156049452Y-64324623D01*
X156384377Y-64100833D01*
X156639640Y-63995100D01*
X156756526Y-63946684D01*
X157151594Y-63868100D01*
X157554406Y-63868100D01*
X157949474Y-63946684D01*
X157949474Y-63946684D01*
G37*
G36*
X176872474Y-63946684D02*
G01*
X176989360Y-63995100D01*
X177244623Y-64100833D01*
X177579548Y-64324623D01*
X177864377Y-64609452D01*
X178088167Y-64944377D01*
X178120562Y-65022586D01*
X178242316Y-65316526D01*
X178320900Y-65711594D01*
X178320900Y-66114406D01*
X178242316Y-66509474D01*
X178191451Y-66632272D01*
X178088167Y-66881623D01*
X177864377Y-67216548D01*
X177579548Y-67501377D01*
X177244623Y-67725167D01*
X177090474Y-67789017D01*
X176872474Y-67879316D01*
X176477406Y-67957900D01*
X176074594Y-67957900D01*
X175679526Y-67879316D01*
X175461526Y-67789017D01*
X175307377Y-67725167D01*
X174972452Y-67501377D01*
X174687623Y-67216548D01*
X174463833Y-66881623D01*
X174360549Y-66632272D01*
X174309684Y-66509474D01*
X174231100Y-66114406D01*
X174231100Y-65711594D01*
X174309684Y-65316526D01*
X174431438Y-65022586D01*
X174463833Y-64944377D01*
X174687623Y-64609452D01*
X174972452Y-64324623D01*
X175307377Y-64100833D01*
X175562640Y-63995100D01*
X175679526Y-63946684D01*
X176074594Y-63868100D01*
X176477406Y-63868100D01*
X176872474Y-63946684D01*
X176872474Y-63946684D01*
G37*
G36*
X195922474Y-63946684D02*
G01*
X196039360Y-63995100D01*
X196294623Y-64100833D01*
X196629548Y-64324623D01*
X196914377Y-64609452D01*
X197138167Y-64944377D01*
X197170562Y-65022586D01*
X197292316Y-65316526D01*
X197370900Y-65711594D01*
X197370900Y-66114406D01*
X197292316Y-66509474D01*
X197241451Y-66632272D01*
X197138167Y-66881623D01*
X196914377Y-67216548D01*
X196629548Y-67501377D01*
X196294623Y-67725167D01*
X196140474Y-67789017D01*
X195922474Y-67879316D01*
X195527406Y-67957900D01*
X195124594Y-67957900D01*
X194729526Y-67879316D01*
X194511526Y-67789017D01*
X194357377Y-67725167D01*
X194022452Y-67501377D01*
X193737623Y-67216548D01*
X193513833Y-66881623D01*
X193410549Y-66632272D01*
X193359684Y-66509474D01*
X193281100Y-66114406D01*
X193281100Y-65711594D01*
X193359684Y-65316526D01*
X193481438Y-65022586D01*
X193513833Y-64944377D01*
X193737623Y-64609452D01*
X194022452Y-64324623D01*
X194357377Y-64100833D01*
X194612640Y-63995100D01*
X194729526Y-63946684D01*
X195124594Y-63868100D01*
X195527406Y-63868100D01*
X195922474Y-63946684D01*
X195922474Y-63946684D01*
G37*
G36*
X214972474Y-63946684D02*
G01*
X215089360Y-63995100D01*
X215344623Y-64100833D01*
X215679548Y-64324623D01*
X215964377Y-64609452D01*
X216188167Y-64944377D01*
X216220562Y-65022586D01*
X216342316Y-65316526D01*
X216420900Y-65711594D01*
X216420900Y-66114406D01*
X216342316Y-66509474D01*
X216291451Y-66632272D01*
X216188167Y-66881623D01*
X215964377Y-67216548D01*
X215679548Y-67501377D01*
X215344623Y-67725167D01*
X215190474Y-67789017D01*
X214972474Y-67879316D01*
X214577406Y-67957900D01*
X214174594Y-67957900D01*
X213779526Y-67879316D01*
X213561526Y-67789017D01*
X213407377Y-67725167D01*
X213072452Y-67501377D01*
X212787623Y-67216548D01*
X212563833Y-66881623D01*
X212460549Y-66632272D01*
X212409684Y-66509474D01*
X212331100Y-66114406D01*
X212331100Y-65711594D01*
X212409684Y-65316526D01*
X212531438Y-65022586D01*
X212563833Y-64944377D01*
X212787623Y-64609452D01*
X213072452Y-64324623D01*
X213407377Y-64100833D01*
X213662640Y-63995100D01*
X213779526Y-63946684D01*
X214174594Y-63868100D01*
X214577406Y-63868100D01*
X214972474Y-63946684D01*
X214972474Y-63946684D01*
G37*
G36*
X83836104Y-65149585D02*
G01*
X84004626Y-65219389D01*
X84156291Y-65320728D01*
X84285272Y-65449709D01*
X84386611Y-65601374D01*
X84456415Y-65769896D01*
X84492000Y-65948797D01*
X84492000Y-66131203D01*
X84456415Y-66310104D01*
X84386611Y-66478626D01*
X84285272Y-66630291D01*
X84156291Y-66759272D01*
X84004626Y-66860611D01*
X83836104Y-66930415D01*
X83657203Y-66966000D01*
X83474797Y-66966000D01*
X83295896Y-66930415D01*
X83127374Y-66860611D01*
X82975709Y-66759272D01*
X82846728Y-66630291D01*
X82745389Y-66478626D01*
X82675585Y-66310104D01*
X82640000Y-66131203D01*
X82640000Y-65948797D01*
X82675585Y-65769896D01*
X82745389Y-65601374D01*
X82846728Y-65449709D01*
X82975709Y-65320728D01*
X83127374Y-65219389D01*
X83295896Y-65149585D01*
X83474797Y-65114000D01*
X83657203Y-65114000D01*
X83836104Y-65149585D01*
X83836104Y-65149585D01*
G37*
G36*
X140986104Y-65149585D02*
G01*
X141154626Y-65219389D01*
X141306291Y-65320728D01*
X141435272Y-65449709D01*
X141536611Y-65601374D01*
X141606415Y-65769896D01*
X141642000Y-65948797D01*
X141642000Y-66131203D01*
X141606415Y-66310104D01*
X141536611Y-66478626D01*
X141435272Y-66630291D01*
X141306291Y-66759272D01*
X141154626Y-66860611D01*
X140986104Y-66930415D01*
X140807203Y-66966000D01*
X140624797Y-66966000D01*
X140445896Y-66930415D01*
X140277374Y-66860611D01*
X140125709Y-66759272D01*
X139996728Y-66630291D01*
X139895389Y-66478626D01*
X139825585Y-66310104D01*
X139790000Y-66131203D01*
X139790000Y-65948797D01*
X139825585Y-65769896D01*
X139895389Y-65601374D01*
X139996728Y-65449709D01*
X140125709Y-65320728D01*
X140277374Y-65219389D01*
X140445896Y-65149585D01*
X140624797Y-65114000D01*
X140807203Y-65114000D01*
X140986104Y-65149585D01*
X140986104Y-65149585D01*
G37*
G36*
X130826104Y-65149585D02*
G01*
X130994626Y-65219389D01*
X131146291Y-65320728D01*
X131275272Y-65449709D01*
X131376611Y-65601374D01*
X131446415Y-65769896D01*
X131482000Y-65948797D01*
X131482000Y-66131203D01*
X131446415Y-66310104D01*
X131376611Y-66478626D01*
X131275272Y-66630291D01*
X131146291Y-66759272D01*
X130994626Y-66860611D01*
X130826104Y-66930415D01*
X130647203Y-66966000D01*
X130464797Y-66966000D01*
X130285896Y-66930415D01*
X130117374Y-66860611D01*
X129965709Y-66759272D01*
X129836728Y-66630291D01*
X129735389Y-66478626D01*
X129665585Y-66310104D01*
X129630000Y-66131203D01*
X129630000Y-65948797D01*
X129665585Y-65769896D01*
X129735389Y-65601374D01*
X129836728Y-65449709D01*
X129965709Y-65320728D01*
X130117374Y-65219389D01*
X130285896Y-65149585D01*
X130464797Y-65114000D01*
X130647203Y-65114000D01*
X130826104Y-65149585D01*
X130826104Y-65149585D01*
G37*
G36*
X121936104Y-65149585D02*
G01*
X122104626Y-65219389D01*
X122256291Y-65320728D01*
X122385272Y-65449709D01*
X122486611Y-65601374D01*
X122556415Y-65769896D01*
X122592000Y-65948797D01*
X122592000Y-66131203D01*
X122556415Y-66310104D01*
X122486611Y-66478626D01*
X122385272Y-66630291D01*
X122256291Y-66759272D01*
X122104626Y-66860611D01*
X121936104Y-66930415D01*
X121757203Y-66966000D01*
X121574797Y-66966000D01*
X121395896Y-66930415D01*
X121227374Y-66860611D01*
X121075709Y-66759272D01*
X120946728Y-66630291D01*
X120845389Y-66478626D01*
X120775585Y-66310104D01*
X120740000Y-66131203D01*
X120740000Y-65948797D01*
X120775585Y-65769896D01*
X120845389Y-65601374D01*
X120946728Y-65449709D01*
X121075709Y-65320728D01*
X121227374Y-65219389D01*
X121395896Y-65149585D01*
X121574797Y-65114000D01*
X121757203Y-65114000D01*
X121936104Y-65149585D01*
X121936104Y-65149585D01*
G37*
G36*
X111776104Y-65149585D02*
G01*
X111944626Y-65219389D01*
X112096291Y-65320728D01*
X112225272Y-65449709D01*
X112326611Y-65601374D01*
X112396415Y-65769896D01*
X112432000Y-65948797D01*
X112432000Y-66131203D01*
X112396415Y-66310104D01*
X112326611Y-66478626D01*
X112225272Y-66630291D01*
X112096291Y-66759272D01*
X111944626Y-66860611D01*
X111776104Y-66930415D01*
X111597203Y-66966000D01*
X111414797Y-66966000D01*
X111235896Y-66930415D01*
X111067374Y-66860611D01*
X110915709Y-66759272D01*
X110786728Y-66630291D01*
X110685389Y-66478626D01*
X110615585Y-66310104D01*
X110580000Y-66131203D01*
X110580000Y-65948797D01*
X110615585Y-65769896D01*
X110685389Y-65601374D01*
X110786728Y-65449709D01*
X110915709Y-65320728D01*
X111067374Y-65219389D01*
X111235896Y-65149585D01*
X111414797Y-65114000D01*
X111597203Y-65114000D01*
X111776104Y-65149585D01*
X111776104Y-65149585D01*
G37*
G36*
X102886104Y-65149585D02*
G01*
X103054626Y-65219389D01*
X103206291Y-65320728D01*
X103335272Y-65449709D01*
X103436611Y-65601374D01*
X103506415Y-65769896D01*
X103542000Y-65948797D01*
X103542000Y-66131203D01*
X103506415Y-66310104D01*
X103436611Y-66478626D01*
X103335272Y-66630291D01*
X103206291Y-66759272D01*
X103054626Y-66860611D01*
X102886104Y-66930415D01*
X102707203Y-66966000D01*
X102524797Y-66966000D01*
X102345896Y-66930415D01*
X102177374Y-66860611D01*
X102025709Y-66759272D01*
X101896728Y-66630291D01*
X101795389Y-66478626D01*
X101725585Y-66310104D01*
X101690000Y-66131203D01*
X101690000Y-65948797D01*
X101725585Y-65769896D01*
X101795389Y-65601374D01*
X101896728Y-65449709D01*
X102025709Y-65320728D01*
X102177374Y-65219389D01*
X102345896Y-65149585D01*
X102524797Y-65114000D01*
X102707203Y-65114000D01*
X102886104Y-65149585D01*
X102886104Y-65149585D01*
G37*
G36*
X92726104Y-65149585D02*
G01*
X92894626Y-65219389D01*
X93046291Y-65320728D01*
X93175272Y-65449709D01*
X93276611Y-65601374D01*
X93346415Y-65769896D01*
X93382000Y-65948797D01*
X93382000Y-66131203D01*
X93346415Y-66310104D01*
X93276611Y-66478626D01*
X93175272Y-66630291D01*
X93046291Y-66759272D01*
X92894626Y-66860611D01*
X92726104Y-66930415D01*
X92547203Y-66966000D01*
X92364797Y-66966000D01*
X92185896Y-66930415D01*
X92017374Y-66860611D01*
X91865709Y-66759272D01*
X91736728Y-66630291D01*
X91635389Y-66478626D01*
X91565585Y-66310104D01*
X91530000Y-66131203D01*
X91530000Y-65948797D01*
X91565585Y-65769896D01*
X91635389Y-65601374D01*
X91736728Y-65449709D01*
X91865709Y-65320728D01*
X92017374Y-65219389D01*
X92185896Y-65149585D01*
X92364797Y-65114000D01*
X92547203Y-65114000D01*
X92726104Y-65149585D01*
X92726104Y-65149585D01*
G37*
G36*
X73676104Y-65149585D02*
G01*
X73844626Y-65219389D01*
X73996291Y-65320728D01*
X74125272Y-65449709D01*
X74226611Y-65601374D01*
X74296415Y-65769896D01*
X74332000Y-65948797D01*
X74332000Y-66131203D01*
X74296415Y-66310104D01*
X74226611Y-66478626D01*
X74125272Y-66630291D01*
X73996291Y-66759272D01*
X73844626Y-66860611D01*
X73676104Y-66930415D01*
X73497203Y-66966000D01*
X73314797Y-66966000D01*
X73135896Y-66930415D01*
X72967374Y-66860611D01*
X72815709Y-66759272D01*
X72686728Y-66630291D01*
X72585389Y-66478626D01*
X72515585Y-66310104D01*
X72480000Y-66131203D01*
X72480000Y-65948797D01*
X72515585Y-65769896D01*
X72585389Y-65601374D01*
X72686728Y-65449709D01*
X72815709Y-65320728D01*
X72967374Y-65219389D01*
X73135896Y-65149585D01*
X73314797Y-65114000D01*
X73497203Y-65114000D01*
X73676104Y-65149585D01*
X73676104Y-65149585D01*
G37*
G36*
X64786104Y-65149585D02*
G01*
X64954626Y-65219389D01*
X65106291Y-65320728D01*
X65235272Y-65449709D01*
X65336611Y-65601374D01*
X65406415Y-65769896D01*
X65442000Y-65948797D01*
X65442000Y-66131203D01*
X65406415Y-66310104D01*
X65336611Y-66478626D01*
X65235272Y-66630291D01*
X65106291Y-66759272D01*
X64954626Y-66860611D01*
X64786104Y-66930415D01*
X64607203Y-66966000D01*
X64424797Y-66966000D01*
X64245896Y-66930415D01*
X64077374Y-66860611D01*
X63925709Y-66759272D01*
X63796728Y-66630291D01*
X63695389Y-66478626D01*
X63625585Y-66310104D01*
X63590000Y-66131203D01*
X63590000Y-65948797D01*
X63625585Y-65769896D01*
X63695389Y-65601374D01*
X63796728Y-65449709D01*
X63925709Y-65320728D01*
X64077374Y-65219389D01*
X64245896Y-65149585D01*
X64424797Y-65114000D01*
X64607203Y-65114000D01*
X64786104Y-65149585D01*
X64786104Y-65149585D01*
G37*
G36*
X54626104Y-65149585D02*
G01*
X54794626Y-65219389D01*
X54946291Y-65320728D01*
X55075272Y-65449709D01*
X55176611Y-65601374D01*
X55246415Y-65769896D01*
X55282000Y-65948797D01*
X55282000Y-66131203D01*
X55246415Y-66310104D01*
X55176611Y-66478626D01*
X55075272Y-66630291D01*
X54946291Y-66759272D01*
X54794626Y-66860611D01*
X54626104Y-66930415D01*
X54447203Y-66966000D01*
X54264797Y-66966000D01*
X54085896Y-66930415D01*
X53917374Y-66860611D01*
X53765709Y-66759272D01*
X53636728Y-66630291D01*
X53535389Y-66478626D01*
X53465585Y-66310104D01*
X53430000Y-66131203D01*
X53430000Y-65948797D01*
X53465585Y-65769896D01*
X53535389Y-65601374D01*
X53636728Y-65449709D01*
X53765709Y-65320728D01*
X53917374Y-65219389D01*
X54085896Y-65149585D01*
X54264797Y-65114000D01*
X54447203Y-65114000D01*
X54626104Y-65149585D01*
X54626104Y-65149585D01*
G37*
G36*
X200676104Y-65022585D02*
G01*
X200844626Y-65092389D01*
X200996291Y-65193728D01*
X201125272Y-65322709D01*
X201226611Y-65474374D01*
X201296415Y-65642896D01*
X201332000Y-65821797D01*
X201332000Y-66004203D01*
X201296415Y-66183104D01*
X201226611Y-66351626D01*
X201125272Y-66503291D01*
X200996291Y-66632272D01*
X200844626Y-66733611D01*
X200676104Y-66803415D01*
X200497203Y-66839000D01*
X200314797Y-66839000D01*
X200135896Y-66803415D01*
X199967374Y-66733611D01*
X199815709Y-66632272D01*
X199686728Y-66503291D01*
X199585389Y-66351626D01*
X199515585Y-66183104D01*
X199480000Y-66004203D01*
X199480000Y-65821797D01*
X199515585Y-65642896D01*
X199585389Y-65474374D01*
X199686728Y-65322709D01*
X199815709Y-65193728D01*
X199967374Y-65092389D01*
X200135896Y-65022585D01*
X200314797Y-64987000D01*
X200497203Y-64987000D01*
X200676104Y-65022585D01*
X200676104Y-65022585D01*
G37*
G36*
X190516104Y-65022585D02*
G01*
X190684626Y-65092389D01*
X190836291Y-65193728D01*
X190965272Y-65322709D01*
X191066611Y-65474374D01*
X191136415Y-65642896D01*
X191172000Y-65821797D01*
X191172000Y-66004203D01*
X191136415Y-66183104D01*
X191066611Y-66351626D01*
X190965272Y-66503291D01*
X190836291Y-66632272D01*
X190684626Y-66733611D01*
X190516104Y-66803415D01*
X190337203Y-66839000D01*
X190154797Y-66839000D01*
X189975896Y-66803415D01*
X189807374Y-66733611D01*
X189655709Y-66632272D01*
X189526728Y-66503291D01*
X189425389Y-66351626D01*
X189355585Y-66183104D01*
X189320000Y-66004203D01*
X189320000Y-65821797D01*
X189355585Y-65642896D01*
X189425389Y-65474374D01*
X189526728Y-65322709D01*
X189655709Y-65193728D01*
X189807374Y-65092389D01*
X189975896Y-65022585D01*
X190154797Y-64987000D01*
X190337203Y-64987000D01*
X190516104Y-65022585D01*
X190516104Y-65022585D01*
G37*
G36*
X219726104Y-65022585D02*
G01*
X219894626Y-65092389D01*
X220046291Y-65193728D01*
X220175272Y-65322709D01*
X220276611Y-65474374D01*
X220346415Y-65642896D01*
X220382000Y-65821797D01*
X220382000Y-66004203D01*
X220346415Y-66183104D01*
X220276611Y-66351626D01*
X220175272Y-66503291D01*
X220046291Y-66632272D01*
X219894626Y-66733611D01*
X219726104Y-66803415D01*
X219547203Y-66839000D01*
X219364797Y-66839000D01*
X219185896Y-66803415D01*
X219017374Y-66733611D01*
X218865709Y-66632272D01*
X218736728Y-66503291D01*
X218635389Y-66351626D01*
X218565585Y-66183104D01*
X218530000Y-66004203D01*
X218530000Y-65821797D01*
X218565585Y-65642896D01*
X218635389Y-65474374D01*
X218736728Y-65322709D01*
X218865709Y-65193728D01*
X219017374Y-65092389D01*
X219185896Y-65022585D01*
X219364797Y-64987000D01*
X219547203Y-64987000D01*
X219726104Y-65022585D01*
X219726104Y-65022585D01*
G37*
G36*
X209566104Y-65022585D02*
G01*
X209734626Y-65092389D01*
X209886291Y-65193728D01*
X210015272Y-65322709D01*
X210116611Y-65474374D01*
X210186415Y-65642896D01*
X210222000Y-65821797D01*
X210222000Y-66004203D01*
X210186415Y-66183104D01*
X210116611Y-66351626D01*
X210015272Y-66503291D01*
X209886291Y-66632272D01*
X209734626Y-66733611D01*
X209566104Y-66803415D01*
X209387203Y-66839000D01*
X209204797Y-66839000D01*
X209025896Y-66803415D01*
X208857374Y-66733611D01*
X208705709Y-66632272D01*
X208576728Y-66503291D01*
X208475389Y-66351626D01*
X208405585Y-66183104D01*
X208370000Y-66004203D01*
X208370000Y-65821797D01*
X208405585Y-65642896D01*
X208475389Y-65474374D01*
X208576728Y-65322709D01*
X208705709Y-65193728D01*
X208857374Y-65092389D01*
X209025896Y-65022585D01*
X209204797Y-64987000D01*
X209387203Y-64987000D01*
X209566104Y-65022585D01*
X209566104Y-65022585D01*
G37*
G36*
X162703104Y-65022585D02*
G01*
X162871626Y-65092389D01*
X163023291Y-65193728D01*
X163152272Y-65322709D01*
X163253611Y-65474374D01*
X163323415Y-65642896D01*
X163359000Y-65821797D01*
X163359000Y-66004203D01*
X163323415Y-66183104D01*
X163253611Y-66351626D01*
X163152272Y-66503291D01*
X163023291Y-66632272D01*
X162871626Y-66733611D01*
X162703104Y-66803415D01*
X162524203Y-66839000D01*
X162341797Y-66839000D01*
X162162896Y-66803415D01*
X161994374Y-66733611D01*
X161842709Y-66632272D01*
X161713728Y-66503291D01*
X161612389Y-66351626D01*
X161542585Y-66183104D01*
X161507000Y-66004203D01*
X161507000Y-65821797D01*
X161542585Y-65642896D01*
X161612389Y-65474374D01*
X161713728Y-65322709D01*
X161842709Y-65193728D01*
X161994374Y-65092389D01*
X162162896Y-65022585D01*
X162341797Y-64987000D01*
X162524203Y-64987000D01*
X162703104Y-65022585D01*
X162703104Y-65022585D01*
G37*
G36*
X228616104Y-65022585D02*
G01*
X228784626Y-65092389D01*
X228936291Y-65193728D01*
X229065272Y-65322709D01*
X229166611Y-65474374D01*
X229236415Y-65642896D01*
X229272000Y-65821797D01*
X229272000Y-66004203D01*
X229236415Y-66183104D01*
X229166611Y-66351626D01*
X229065272Y-66503291D01*
X228936291Y-66632272D01*
X228784626Y-66733611D01*
X228616104Y-66803415D01*
X228437203Y-66839000D01*
X228254797Y-66839000D01*
X228075896Y-66803415D01*
X227907374Y-66733611D01*
X227755709Y-66632272D01*
X227626728Y-66503291D01*
X227525389Y-66351626D01*
X227455585Y-66183104D01*
X227420000Y-66004203D01*
X227420000Y-65821797D01*
X227455585Y-65642896D01*
X227525389Y-65474374D01*
X227626728Y-65322709D01*
X227755709Y-65193728D01*
X227907374Y-65092389D01*
X228075896Y-65022585D01*
X228254797Y-64987000D01*
X228437203Y-64987000D01*
X228616104Y-65022585D01*
X228616104Y-65022585D01*
G37*
G36*
X238776104Y-65022585D02*
G01*
X238944626Y-65092389D01*
X239096291Y-65193728D01*
X239225272Y-65322709D01*
X239326611Y-65474374D01*
X239396415Y-65642896D01*
X239432000Y-65821797D01*
X239432000Y-66004203D01*
X239396415Y-66183104D01*
X239326611Y-66351626D01*
X239225272Y-66503291D01*
X239096291Y-66632272D01*
X238944626Y-66733611D01*
X238776104Y-66803415D01*
X238597203Y-66839000D01*
X238414797Y-66839000D01*
X238235896Y-66803415D01*
X238067374Y-66733611D01*
X237915709Y-66632272D01*
X237786728Y-66503291D01*
X237685389Y-66351626D01*
X237615585Y-66183104D01*
X237580000Y-66004203D01*
X237580000Y-65821797D01*
X237615585Y-65642896D01*
X237685389Y-65474374D01*
X237786728Y-65322709D01*
X237915709Y-65193728D01*
X238067374Y-65092389D01*
X238235896Y-65022585D01*
X238414797Y-64987000D01*
X238597203Y-64987000D01*
X238776104Y-65022585D01*
X238776104Y-65022585D01*
G37*
G36*
X152543104Y-65022585D02*
G01*
X152711626Y-65092389D01*
X152863291Y-65193728D01*
X152992272Y-65322709D01*
X153093611Y-65474374D01*
X153163415Y-65642896D01*
X153199000Y-65821797D01*
X153199000Y-66004203D01*
X153163415Y-66183104D01*
X153093611Y-66351626D01*
X152992272Y-66503291D01*
X152863291Y-66632272D01*
X152711626Y-66733611D01*
X152543104Y-66803415D01*
X152364203Y-66839000D01*
X152181797Y-66839000D01*
X152002896Y-66803415D01*
X151834374Y-66733611D01*
X151682709Y-66632272D01*
X151553728Y-66503291D01*
X151452389Y-66351626D01*
X151382585Y-66183104D01*
X151347000Y-66004203D01*
X151347000Y-65821797D01*
X151382585Y-65642896D01*
X151452389Y-65474374D01*
X151553728Y-65322709D01*
X151682709Y-65193728D01*
X151834374Y-65092389D01*
X152002896Y-65022585D01*
X152181797Y-64987000D01*
X152364203Y-64987000D01*
X152543104Y-65022585D01*
X152543104Y-65022585D01*
G37*
G36*
X181626104Y-65022585D02*
G01*
X181794626Y-65092389D01*
X181946291Y-65193728D01*
X182075272Y-65322709D01*
X182176611Y-65474374D01*
X182246415Y-65642896D01*
X182282000Y-65821797D01*
X182282000Y-66004203D01*
X182246415Y-66183104D01*
X182176611Y-66351626D01*
X182075272Y-66503291D01*
X181946291Y-66632272D01*
X181794626Y-66733611D01*
X181626104Y-66803415D01*
X181447203Y-66839000D01*
X181264797Y-66839000D01*
X181085896Y-66803415D01*
X180917374Y-66733611D01*
X180765709Y-66632272D01*
X180636728Y-66503291D01*
X180535389Y-66351626D01*
X180465585Y-66183104D01*
X180430000Y-66004203D01*
X180430000Y-65821797D01*
X180465585Y-65642896D01*
X180535389Y-65474374D01*
X180636728Y-65322709D01*
X180765709Y-65193728D01*
X180917374Y-65092389D01*
X181085896Y-65022585D01*
X181264797Y-64987000D01*
X181447203Y-64987000D01*
X181626104Y-65022585D01*
X181626104Y-65022585D01*
G37*
G36*
X171466104Y-65022585D02*
G01*
X171634626Y-65092389D01*
X171786291Y-65193728D01*
X171915272Y-65322709D01*
X172016611Y-65474374D01*
X172086415Y-65642896D01*
X172122000Y-65821797D01*
X172122000Y-66004203D01*
X172086415Y-66183104D01*
X172016611Y-66351626D01*
X171915272Y-66503291D01*
X171786291Y-66632272D01*
X171634626Y-66733611D01*
X171466104Y-66803415D01*
X171287203Y-66839000D01*
X171104797Y-66839000D01*
X170925896Y-66803415D01*
X170757374Y-66733611D01*
X170605709Y-66632272D01*
X170476728Y-66503291D01*
X170375389Y-66351626D01*
X170305585Y-66183104D01*
X170270000Y-66004203D01*
X170270000Y-65821797D01*
X170305585Y-65642896D01*
X170375389Y-65474374D01*
X170476728Y-65322709D01*
X170605709Y-65193728D01*
X170757374Y-65092389D01*
X170925896Y-65022585D01*
X171104797Y-64987000D01*
X171287203Y-64987000D01*
X171466104Y-65022585D01*
X171466104Y-65022585D01*
G37*
G36*
X128264228Y-64205703D02*
G01*
X128419100Y-64269853D01*
X128558481Y-64362985D01*
X128677015Y-64481519D01*
X128770147Y-64620900D01*
X128834297Y-64775772D01*
X128867000Y-64940184D01*
X128867000Y-65107816D01*
X128834297Y-65272228D01*
X128770147Y-65427100D01*
X128677015Y-65566481D01*
X128558481Y-65685015D01*
X128419100Y-65778147D01*
X128264228Y-65842297D01*
X128099816Y-65875000D01*
X127932184Y-65875000D01*
X127767772Y-65842297D01*
X127612900Y-65778147D01*
X127473519Y-65685015D01*
X127354985Y-65566481D01*
X127261853Y-65427100D01*
X127197703Y-65272228D01*
X127165000Y-65107816D01*
X127165000Y-64940184D01*
X127197703Y-64775772D01*
X127261853Y-64620900D01*
X127354985Y-64481519D01*
X127473519Y-64362985D01*
X127612900Y-64269853D01*
X127767772Y-64205703D01*
X127932184Y-64173000D01*
X128099816Y-64173000D01*
X128264228Y-64205703D01*
X128264228Y-64205703D01*
G37*
G36*
X149981228Y-64205703D02*
G01*
X150136100Y-64269853D01*
X150275481Y-64362985D01*
X150394015Y-64481519D01*
X150487147Y-64620900D01*
X150551297Y-64775772D01*
X150584000Y-64940184D01*
X150584000Y-65107816D01*
X150551297Y-65272228D01*
X150487147Y-65427100D01*
X150394015Y-65566481D01*
X150275481Y-65685015D01*
X150136100Y-65778147D01*
X149981228Y-65842297D01*
X149816816Y-65875000D01*
X149649184Y-65875000D01*
X149484772Y-65842297D01*
X149329900Y-65778147D01*
X149190519Y-65685015D01*
X149071985Y-65566481D01*
X148978853Y-65427100D01*
X148914703Y-65272228D01*
X148882000Y-65107816D01*
X148882000Y-64940184D01*
X148914703Y-64775772D01*
X148978853Y-64620900D01*
X149071985Y-64481519D01*
X149190519Y-64362985D01*
X149329900Y-64269853D01*
X149484772Y-64205703D01*
X149649184Y-64173000D01*
X149816816Y-64173000D01*
X149981228Y-64205703D01*
X149981228Y-64205703D01*
G37*
G36*
X165221228Y-64205703D02*
G01*
X165376100Y-64269853D01*
X165515481Y-64362985D01*
X165634015Y-64481519D01*
X165727147Y-64620900D01*
X165791297Y-64775772D01*
X165824000Y-64940184D01*
X165824000Y-65107816D01*
X165791297Y-65272228D01*
X165727147Y-65427100D01*
X165634015Y-65566481D01*
X165515481Y-65685015D01*
X165376100Y-65778147D01*
X165221228Y-65842297D01*
X165056816Y-65875000D01*
X164889184Y-65875000D01*
X164724772Y-65842297D01*
X164569900Y-65778147D01*
X164430519Y-65685015D01*
X164311985Y-65566481D01*
X164218853Y-65427100D01*
X164154703Y-65272228D01*
X164122000Y-65107816D01*
X164122000Y-64940184D01*
X164154703Y-64775772D01*
X164218853Y-64620900D01*
X164311985Y-64481519D01*
X164430519Y-64362985D01*
X164569900Y-64269853D01*
X164724772Y-64205703D01*
X164889184Y-64173000D01*
X165056816Y-64173000D01*
X165221228Y-64205703D01*
X165221228Y-64205703D01*
G37*
G36*
X143504228Y-64205703D02*
G01*
X143659100Y-64269853D01*
X143798481Y-64362985D01*
X143917015Y-64481519D01*
X144010147Y-64620900D01*
X144074297Y-64775772D01*
X144107000Y-64940184D01*
X144107000Y-65107816D01*
X144074297Y-65272228D01*
X144010147Y-65427100D01*
X143917015Y-65566481D01*
X143798481Y-65685015D01*
X143659100Y-65778147D01*
X143504228Y-65842297D01*
X143339816Y-65875000D01*
X143172184Y-65875000D01*
X143007772Y-65842297D01*
X142852900Y-65778147D01*
X142713519Y-65685015D01*
X142594985Y-65566481D01*
X142501853Y-65427100D01*
X142437703Y-65272228D01*
X142405000Y-65107816D01*
X142405000Y-64940184D01*
X142437703Y-64775772D01*
X142501853Y-64620900D01*
X142594985Y-64481519D01*
X142713519Y-64362985D01*
X142852900Y-64269853D01*
X143007772Y-64205703D01*
X143172184Y-64173000D01*
X143339816Y-64173000D01*
X143504228Y-64205703D01*
X143504228Y-64205703D01*
G37*
G36*
X149981228Y-61665703D02*
G01*
X150136100Y-61729853D01*
X150275481Y-61822985D01*
X150394015Y-61941519D01*
X150487147Y-62080900D01*
X150551297Y-62235772D01*
X150584000Y-62400184D01*
X150584000Y-62567816D01*
X150551297Y-62732228D01*
X150487147Y-62887100D01*
X150394015Y-63026481D01*
X150275481Y-63145015D01*
X150136100Y-63238147D01*
X149981228Y-63302297D01*
X149816816Y-63335000D01*
X149649184Y-63335000D01*
X149484772Y-63302297D01*
X149329900Y-63238147D01*
X149190519Y-63145015D01*
X149071985Y-63026481D01*
X148978853Y-62887100D01*
X148914703Y-62732228D01*
X148882000Y-62567816D01*
X148882000Y-62400184D01*
X148914703Y-62235772D01*
X148978853Y-62080900D01*
X149071985Y-61941519D01*
X149190519Y-61822985D01*
X149329900Y-61729853D01*
X149484772Y-61665703D01*
X149649184Y-61633000D01*
X149816816Y-61633000D01*
X149981228Y-61665703D01*
X149981228Y-61665703D01*
G37*
G36*
X128264228Y-61665703D02*
G01*
X128419100Y-61729853D01*
X128558481Y-61822985D01*
X128677015Y-61941519D01*
X128770147Y-62080900D01*
X128834297Y-62235772D01*
X128867000Y-62400184D01*
X128867000Y-62567816D01*
X128834297Y-62732228D01*
X128770147Y-62887100D01*
X128677015Y-63026481D01*
X128558481Y-63145015D01*
X128419100Y-63238147D01*
X128264228Y-63302297D01*
X128099816Y-63335000D01*
X127932184Y-63335000D01*
X127767772Y-63302297D01*
X127612900Y-63238147D01*
X127473519Y-63145015D01*
X127354985Y-63026481D01*
X127261853Y-62887100D01*
X127197703Y-62732228D01*
X127165000Y-62567816D01*
X127165000Y-62400184D01*
X127197703Y-62235772D01*
X127261853Y-62080900D01*
X127354985Y-61941519D01*
X127473519Y-61822985D01*
X127612900Y-61729853D01*
X127767772Y-61665703D01*
X127932184Y-61633000D01*
X128099816Y-61633000D01*
X128264228Y-61665703D01*
X128264228Y-61665703D01*
G37*
G36*
X165221228Y-61665703D02*
G01*
X165376100Y-61729853D01*
X165515481Y-61822985D01*
X165634015Y-61941519D01*
X165727147Y-62080900D01*
X165791297Y-62235772D01*
X165824000Y-62400184D01*
X165824000Y-62567816D01*
X165791297Y-62732228D01*
X165727147Y-62887100D01*
X165634015Y-63026481D01*
X165515481Y-63145015D01*
X165376100Y-63238147D01*
X165221228Y-63302297D01*
X165056816Y-63335000D01*
X164889184Y-63335000D01*
X164724772Y-63302297D01*
X164569900Y-63238147D01*
X164430519Y-63145015D01*
X164311985Y-63026481D01*
X164218853Y-62887100D01*
X164154703Y-62732228D01*
X164122000Y-62567816D01*
X164122000Y-62400184D01*
X164154703Y-62235772D01*
X164218853Y-62080900D01*
X164311985Y-61941519D01*
X164430519Y-61822985D01*
X164569900Y-61729853D01*
X164724772Y-61665703D01*
X164889184Y-61633000D01*
X165056816Y-61633000D01*
X165221228Y-61665703D01*
X165221228Y-61665703D01*
G37*
G36*
X143504228Y-61665703D02*
G01*
X143659100Y-61729853D01*
X143798481Y-61822985D01*
X143917015Y-61941519D01*
X144010147Y-62080900D01*
X144074297Y-62235772D01*
X144107000Y-62400184D01*
X144107000Y-62567816D01*
X144074297Y-62732228D01*
X144010147Y-62887100D01*
X143917015Y-63026481D01*
X143798481Y-63145015D01*
X143659100Y-63238147D01*
X143504228Y-63302297D01*
X143339816Y-63335000D01*
X143172184Y-63335000D01*
X143007772Y-63302297D01*
X142852900Y-63238147D01*
X142713519Y-63145015D01*
X142594985Y-63026481D01*
X142501853Y-62887100D01*
X142437703Y-62732228D01*
X142405000Y-62567816D01*
X142405000Y-62400184D01*
X142437703Y-62235772D01*
X142501853Y-62080900D01*
X142594985Y-61941519D01*
X142713519Y-61822985D01*
X142852900Y-61729853D01*
X143007772Y-61665703D01*
X143172184Y-61633000D01*
X143339816Y-61633000D01*
X143504228Y-61665703D01*
X143504228Y-61665703D01*
G37*
G36*
X144107000Y-60795000D02*
G01*
X142405000Y-60795000D01*
X142405000Y-59093000D01*
X144107000Y-59093000D01*
X144107000Y-60795000D01*
X144107000Y-60795000D01*
G37*
G36*
X165824000Y-60795000D02*
G01*
X164122000Y-60795000D01*
X164122000Y-59093000D01*
X165824000Y-59093000D01*
X165824000Y-60795000D01*
X165824000Y-60795000D01*
G37*
G36*
X149981228Y-59125703D02*
G01*
X150136100Y-59189853D01*
X150275481Y-59282985D01*
X150394015Y-59401519D01*
X150487147Y-59540900D01*
X150551297Y-59695772D01*
X150584000Y-59860184D01*
X150584000Y-60027816D01*
X150551297Y-60192228D01*
X150487147Y-60347100D01*
X150394015Y-60486481D01*
X150275481Y-60605015D01*
X150136100Y-60698147D01*
X149981228Y-60762297D01*
X149816816Y-60795000D01*
X149649184Y-60795000D01*
X149484772Y-60762297D01*
X149329900Y-60698147D01*
X149190519Y-60605015D01*
X149071985Y-60486481D01*
X148978853Y-60347100D01*
X148914703Y-60192228D01*
X148882000Y-60027816D01*
X148882000Y-59860184D01*
X148914703Y-59695772D01*
X148978853Y-59540900D01*
X149071985Y-59401519D01*
X149190519Y-59282985D01*
X149329900Y-59189853D01*
X149484772Y-59125703D01*
X149649184Y-59093000D01*
X149816816Y-59093000D01*
X149981228Y-59125703D01*
X149981228Y-59125703D01*
G37*
G36*
X128264228Y-59125703D02*
G01*
X128419100Y-59189853D01*
X128558481Y-59282985D01*
X128677015Y-59401519D01*
X128770147Y-59540900D01*
X128834297Y-59695772D01*
X128867000Y-59860184D01*
X128867000Y-60027816D01*
X128834297Y-60192228D01*
X128770147Y-60347100D01*
X128677015Y-60486481D01*
X128558481Y-60605015D01*
X128419100Y-60698147D01*
X128264228Y-60762297D01*
X128099816Y-60795000D01*
X127932184Y-60795000D01*
X127767772Y-60762297D01*
X127612900Y-60698147D01*
X127473519Y-60605015D01*
X127354985Y-60486481D01*
X127261853Y-60347100D01*
X127197703Y-60192228D01*
X127165000Y-60027816D01*
X127165000Y-59860184D01*
X127197703Y-59695772D01*
X127261853Y-59540900D01*
X127354985Y-59401519D01*
X127473519Y-59282985D01*
X127612900Y-59189853D01*
X127767772Y-59125703D01*
X127932184Y-59093000D01*
X128099816Y-59093000D01*
X128264228Y-59125703D01*
X128264228Y-59125703D01*
G37*
M02*
