%FSLAX45Y45*%
G04 Gerber Fmt 4.5, Leading zero omitted, Abs format (unit mm)*
G04 Created by KiCad (PCBNEW (5.1.9)-1) date 2021-01-20 21:20:54*
%MOMM*%
%LPD*%
G01*
G04 APERTURE LIST*
%TA.AperFunction,Profile*%
%ADD10C,0.050000*%
%TD*%
%TA.AperFunction,Profile*%
%ADD11C,0.200000*%
%TD*%
%ADD12C,0.200000*%
%ADD13C,0.300000*%
G04 APERTURE END LIST*
D10*
X24602462Y-11309754D02*
X24431221Y-11309754D01*
D11*
X24426370Y-5887629D02*
X24431221Y-11309754D01*
X24602462Y-11309754D02*
G75*
G02*
X24902462Y-11609754I0J-300000D01*
G01*
X24126100Y-5587897D02*
X14945975Y-5596162D01*
X22742512Y-11875321D02*
X14951600Y-11882290D01*
X14646245Y-5896431D02*
G75*
G02*
X14945975Y-5596162I300000J268D01*
G01*
X24126100Y-5587897D02*
G75*
G02*
X24426370Y-5887629I270J-300000D01*
G01*
D10*
X14651331Y-11582559D02*
X14646245Y-5896431D01*
D11*
X14951600Y-11882290D02*
G75*
G02*
X14651331Y-11582559I-268J300000D01*
G01*
X24902462Y-13009700D02*
G75*
G02*
X24602462Y-13309700I-300000J0D01*
G01*
X23042512Y-13309700D02*
G75*
G02*
X22742512Y-13009700I0J300000D01*
G01*
X22742512Y-11875321D02*
X22742512Y-13009700D01*
X24902462Y-13009700D02*
X24902462Y-11609754D01*
X23042512Y-13309700D02*
X24602462Y-13309700D01*
D12*
X23239800Y-11116100D02*
X23269800Y-11146100D01*
X23269800Y-11116100D02*
X23239800Y-11146100D01*
X23319800Y-11126100D02*
X23189800Y-11126100D01*
X23319800Y-11136100D02*
X23189800Y-11136100D01*
X23189800Y-11126100D02*
G75*
G03*
X23189800Y-11136100I0J-5000D01*
G01*
X23319800Y-11136100D02*
G75*
G03*
X23319800Y-11126100I0J5000D01*
G01*
X23239800Y-11361100D02*
X23269800Y-11391100D01*
X23269800Y-11361100D02*
X23239800Y-11391100D01*
X23319800Y-11371100D02*
X23189800Y-11371100D01*
X23319800Y-11381100D02*
X23189800Y-11381100D01*
X23189800Y-11371100D02*
G75*
G03*
X23189800Y-11381100I0J-5000D01*
G01*
X23319800Y-11381100D02*
G75*
G03*
X23319800Y-11371100I0J5000D01*
G01*
X23389800Y-10941100D02*
X23419800Y-10971100D01*
X23419800Y-10941100D02*
X23389800Y-10971100D01*
X23469800Y-10951100D02*
X23339800Y-10951100D01*
X23469800Y-10961100D02*
X23339800Y-10961100D01*
X23339800Y-10951100D02*
G75*
G03*
X23339800Y-10961100I0J-5000D01*
G01*
X23469800Y-10961100D02*
G75*
G03*
X23469800Y-10951100I0J5000D01*
G01*
X23389800Y-11536100D02*
X23419800Y-11566100D01*
X23419800Y-11536100D02*
X23389800Y-11566100D01*
X23469800Y-11546100D02*
X23339800Y-11546100D01*
X23469800Y-11556100D02*
X23339800Y-11556100D01*
X23339800Y-11546100D02*
G75*
G03*
X23339800Y-11556100I0J-5000D01*
G01*
X23469800Y-11556100D02*
G75*
G03*
X23469800Y-11546100I0J5000D01*
G01*
X23789800Y-10941100D02*
X23819800Y-10971100D01*
X23819800Y-10941100D02*
X23789800Y-10971100D01*
X23869800Y-10951100D02*
X23739800Y-10951100D01*
X23869800Y-10961100D02*
X23739800Y-10961100D01*
X23739800Y-10951100D02*
G75*
G03*
X23739800Y-10961100I0J-5000D01*
G01*
X23869800Y-10961100D02*
G75*
G03*
X23869800Y-10951100I0J5000D01*
G01*
X23789800Y-11536100D02*
X23819800Y-11566100D01*
X23819800Y-11536100D02*
X23789800Y-11566100D01*
X23869800Y-11546100D02*
X23739800Y-11546100D01*
X23869800Y-11556100D02*
X23739800Y-11556100D01*
X23739800Y-11546100D02*
G75*
G03*
X23739800Y-11556100I0J-5000D01*
G01*
X23869800Y-11556100D02*
G75*
G03*
X23869800Y-11546100I0J5000D01*
G01*
X24089800Y-10941100D02*
X24119800Y-10971100D01*
X24119800Y-10941100D02*
X24089800Y-10971100D01*
X24169800Y-10951100D02*
X24039800Y-10951100D01*
X24169800Y-10961100D02*
X24039800Y-10961100D01*
X24039800Y-10951100D02*
G75*
G03*
X24039800Y-10961100I0J-5000D01*
G01*
X24169800Y-10961100D02*
G75*
G03*
X24169800Y-10951100I0J5000D01*
G01*
X24089800Y-11536100D02*
X24119800Y-11566100D01*
X24119800Y-11536100D02*
X24089800Y-11566100D01*
X24169800Y-11546100D02*
X24039800Y-11546100D01*
X24169800Y-11556100D02*
X24039800Y-11556100D01*
X24039800Y-11546100D02*
G75*
G03*
X24039800Y-11556100I0J-5000D01*
G01*
X24169800Y-11556100D02*
G75*
G03*
X24169800Y-11546100I0J5000D01*
G01*
X14866300Y-9220200D02*
G75*
G03*
X14866300Y-9220200I-20000J0D01*
G01*
X16890800Y-10656300D02*
G75*
G03*
X16890800Y-10656300I-20000J0D01*
G01*
X15020300Y-9540860D02*
X15020300Y-9622140D01*
X14979660Y-9581500D02*
X15060940Y-9581500D01*
X15020300Y-11064860D02*
X15020300Y-11146140D01*
X14979660Y-11105500D02*
X15060940Y-11105500D01*
X15139874Y-9410979D02*
X15139874Y-9492259D01*
X15099234Y-9451619D02*
X15180514Y-9451619D01*
X15139874Y-10934979D02*
X15139874Y-11016259D01*
X15099234Y-10975619D02*
X15180514Y-10975619D01*
X15274300Y-9540860D02*
X15274300Y-9622140D01*
X15233660Y-9581500D02*
X15314940Y-9581500D01*
X15274300Y-11064860D02*
X15274300Y-11146140D01*
X15233660Y-11105500D02*
X15314940Y-11105500D01*
X15393874Y-9410979D02*
X15393874Y-9492259D01*
X15353234Y-9451619D02*
X15434514Y-9451619D01*
X15393874Y-10934979D02*
X15393874Y-11016259D01*
X15353234Y-10975619D02*
X15434514Y-10975619D01*
X15528300Y-9540860D02*
X15528300Y-9622140D01*
X15487660Y-9581500D02*
X15568940Y-9581500D01*
X15528300Y-11064860D02*
X15528300Y-11146140D01*
X15487660Y-11105500D02*
X15568940Y-11105500D01*
X15647874Y-9410979D02*
X15647874Y-9492259D01*
X15607234Y-9451619D02*
X15688514Y-9451619D01*
X15647874Y-10934979D02*
X15647874Y-11016259D01*
X15607234Y-10975619D02*
X15688514Y-10975619D01*
X15782300Y-9540860D02*
X15782300Y-9622140D01*
X15741660Y-9581500D02*
X15822940Y-9581500D01*
X15782300Y-11064860D02*
X15782300Y-11146140D01*
X15741660Y-11105500D02*
X15822940Y-11105500D01*
X15901874Y-9410979D02*
X15901874Y-9492259D01*
X15861234Y-9451619D02*
X15942514Y-9451619D01*
X15901874Y-10934979D02*
X15901874Y-11016259D01*
X15861234Y-10975619D02*
X15942514Y-10975619D01*
X16036300Y-9540860D02*
X16036300Y-9622140D01*
X15995660Y-9581500D02*
X16076940Y-9581500D01*
X16036300Y-11064860D02*
X16036300Y-11146140D01*
X15995660Y-11105500D02*
X16076940Y-11105500D01*
X16155874Y-9410979D02*
X16155874Y-9492259D01*
X16115234Y-9451619D02*
X16196514Y-9451619D01*
X16155874Y-10934979D02*
X16155874Y-11016259D01*
X16115234Y-10975619D02*
X16196514Y-10975619D01*
X16290300Y-9540860D02*
X16290300Y-9622140D01*
X16249660Y-9581500D02*
X16330940Y-9581500D01*
X16290300Y-11064860D02*
X16290300Y-11146140D01*
X16249660Y-11105500D02*
X16330940Y-11105500D01*
X16409874Y-9410979D02*
X16409874Y-9492259D01*
X16369234Y-9451619D02*
X16450514Y-9451619D01*
X16409874Y-10934979D02*
X16409874Y-11016259D01*
X16369234Y-10975619D02*
X16450514Y-10975619D01*
X16544300Y-9540860D02*
X16544300Y-9622140D01*
X16503660Y-9581500D02*
X16584940Y-9581500D01*
X16544300Y-11064860D02*
X16544300Y-11146140D01*
X16503660Y-11105500D02*
X16584940Y-11105500D01*
X16663874Y-9410979D02*
X16663874Y-9492259D01*
X16623234Y-9451619D02*
X16704514Y-9451619D01*
X16663874Y-10934979D02*
X16663874Y-11016259D01*
X16623234Y-10975619D02*
X16704514Y-10975619D01*
X16798300Y-9540860D02*
X16798300Y-9622140D01*
X16757660Y-9581500D02*
X16838940Y-9581500D01*
X16798300Y-11064860D02*
X16798300Y-11146140D01*
X16757660Y-11105500D02*
X16838940Y-11105500D01*
X16917875Y-9410979D02*
X16917875Y-9492259D01*
X16877235Y-9451619D02*
X16958515Y-9451619D01*
X16917875Y-10934979D02*
X16917875Y-11016259D01*
X16877235Y-10975619D02*
X16958515Y-10975619D01*
X17052300Y-9540860D02*
X17052300Y-9622140D01*
X17011660Y-9581500D02*
X17092940Y-9581500D01*
X17052300Y-11064860D02*
X17052300Y-11146140D01*
X17011660Y-11105500D02*
X17092940Y-11105500D01*
X17171875Y-9410979D02*
X17171875Y-9492259D01*
X17131235Y-9451619D02*
X17212515Y-9451619D01*
X17171875Y-10934979D02*
X17171875Y-11016259D01*
X17131235Y-10975619D02*
X17212515Y-10975619D01*
X17306300Y-9540860D02*
X17306300Y-9622140D01*
X17265660Y-9581500D02*
X17346940Y-9581500D01*
X17306300Y-11064860D02*
X17306300Y-11146140D01*
X17265660Y-11105500D02*
X17346940Y-11105500D01*
X17425875Y-9410979D02*
X17425875Y-9492259D01*
X17385235Y-9451619D02*
X17466515Y-9451619D01*
X17425875Y-10934979D02*
X17425875Y-11016259D01*
X17385235Y-10975619D02*
X17466515Y-10975619D01*
X17560300Y-9540860D02*
X17560300Y-9622140D01*
X17519660Y-9581500D02*
X17600940Y-9581500D01*
X17560300Y-11064860D02*
X17560300Y-11146140D01*
X17519660Y-11105500D02*
X17600940Y-11105500D01*
X17679875Y-9410979D02*
X17679875Y-9492259D01*
X17639235Y-9451619D02*
X17720515Y-9451619D01*
X17679875Y-10934979D02*
X17679875Y-11016259D01*
X17639235Y-10975619D02*
X17720515Y-10975619D01*
X17814300Y-9540860D02*
X17814300Y-9622140D01*
X17773660Y-9581500D02*
X17854940Y-9581500D01*
X17814300Y-11064860D02*
X17814300Y-11146140D01*
X17773660Y-11105500D02*
X17854940Y-11105500D01*
X17933875Y-9410979D02*
X17933875Y-9492259D01*
X17893235Y-9451619D02*
X17974515Y-9451619D01*
X17933875Y-10934979D02*
X17933875Y-11016259D01*
X17893235Y-10975619D02*
X17974515Y-10975619D01*
X16494556Y-10030256D02*
X16494556Y-9959544D01*
X16423844Y-9959544D01*
X16423844Y-10030256D01*
X16494556Y-10030256D01*
X16494556Y-10810256D02*
X16494556Y-10739544D01*
X16423844Y-10739544D01*
X16423844Y-10810256D01*
X16494556Y-10810256D01*
X16507256Y-6249356D02*
X16507256Y-6178644D01*
X16436544Y-6178644D01*
X16436544Y-6249356D01*
X16507256Y-6249356D01*
X16507256Y-7029356D02*
X16507256Y-6958644D01*
X16436544Y-6958644D01*
X16436544Y-7029356D01*
X16507256Y-7029356D01*
X16507256Y-8150656D02*
X16507256Y-8079944D01*
X16436544Y-8079944D01*
X16436544Y-8150656D01*
X16507256Y-8150656D01*
X16507256Y-8930656D02*
X16507256Y-8859944D01*
X16436544Y-8859944D01*
X16436544Y-8930656D01*
X16507256Y-8930656D01*
X18412256Y-6249356D02*
X18412256Y-6178644D01*
X18341544Y-6178644D01*
X18341544Y-6249356D01*
X18412256Y-6249356D01*
X18412256Y-7029356D02*
X18412256Y-6958644D01*
X18341544Y-6958644D01*
X18341544Y-7029356D01*
X18412256Y-7029356D01*
X18412256Y-8150356D02*
X18412256Y-8079644D01*
X18341544Y-8079644D01*
X18341544Y-8150356D01*
X18412256Y-8150356D01*
X18412256Y-8930356D02*
X18412256Y-8859644D01*
X18341544Y-8859644D01*
X18341544Y-8930356D01*
X18412256Y-8930356D01*
X18412256Y-10068056D02*
X18412256Y-9997344D01*
X18341544Y-9997344D01*
X18341544Y-10068056D01*
X18412256Y-10068056D01*
X18412256Y-10848056D02*
X18412256Y-10777344D01*
X18341544Y-10777344D01*
X18341544Y-10848056D01*
X18412256Y-10848056D01*
X20317256Y-6249356D02*
X20317256Y-6178644D01*
X20246544Y-6178644D01*
X20246544Y-6249356D01*
X20317256Y-6249356D01*
X20317256Y-7029356D02*
X20317256Y-6958644D01*
X20246544Y-6958644D01*
X20246544Y-7029356D01*
X20317256Y-7029356D01*
X20317256Y-8150656D02*
X20317256Y-8079944D01*
X20246544Y-8079944D01*
X20246544Y-8150656D01*
X20317256Y-8150656D01*
X20317256Y-8930656D02*
X20317256Y-8859944D01*
X20246544Y-8859944D01*
X20246544Y-8930656D01*
X20317256Y-8930656D01*
X20317256Y-10055656D02*
X20317256Y-9984944D01*
X20246544Y-9984944D01*
X20246544Y-10055656D01*
X20317256Y-10055656D01*
X20317256Y-10835656D02*
X20317256Y-10764944D01*
X20246544Y-10764944D01*
X20246544Y-10835656D01*
X20317256Y-10835656D01*
X22222256Y-6249356D02*
X22222256Y-6178644D01*
X22151544Y-6178644D01*
X22151544Y-6249356D01*
X22222256Y-6249356D01*
X22222256Y-7029356D02*
X22222256Y-6958644D01*
X22151544Y-6958644D01*
X22151544Y-7029356D01*
X22222256Y-7029356D01*
X22222256Y-8150356D02*
X22222256Y-8079644D01*
X22151544Y-8079644D01*
X22151544Y-8150356D01*
X22222256Y-8150356D01*
X22222256Y-8930356D02*
X22222256Y-8859644D01*
X22151544Y-8859644D01*
X22151544Y-8930356D01*
X22222256Y-8930356D01*
X22222256Y-10055356D02*
X22222256Y-9984644D01*
X22151544Y-9984644D01*
X22151544Y-10055356D01*
X22222256Y-10055356D01*
X22222256Y-10835356D02*
X22222256Y-10764644D01*
X22151544Y-10764644D01*
X22151544Y-10835356D01*
X22222256Y-10835356D01*
X24127256Y-6249356D02*
X24127256Y-6178644D01*
X24056544Y-6178644D01*
X24056544Y-6249356D01*
X24127256Y-6249356D01*
X24127256Y-7029356D02*
X24127256Y-6958644D01*
X24056544Y-6958644D01*
X24056544Y-7029356D01*
X24127256Y-7029356D01*
X24127256Y-8150356D02*
X24127256Y-8079644D01*
X24056544Y-8079644D01*
X24056544Y-8150356D01*
X24127256Y-8150356D01*
X24127256Y-8930356D02*
X24127256Y-8859644D01*
X24056544Y-8859644D01*
X24056544Y-8930356D01*
X24127256Y-8930356D01*
X24127256Y-10055656D02*
X24127256Y-9984944D01*
X24056544Y-9984944D01*
X24056544Y-10055656D01*
X24127256Y-10055656D01*
X24127256Y-10835656D02*
X24127256Y-10764944D01*
X24056544Y-10764944D01*
X24056544Y-10835656D01*
X24127256Y-10835656D01*
X24609856Y-11964356D02*
X24609856Y-11893644D01*
X24539144Y-11893644D01*
X24539144Y-11964356D01*
X24609856Y-11964356D01*
X24609856Y-12744356D02*
X24609856Y-12673644D01*
X24539144Y-12673644D01*
X24539144Y-12744356D01*
X24609856Y-12744356D01*
X15222600Y-6271300D02*
X15282600Y-6211300D01*
X15222600Y-6151300D01*
X15162600Y-6211300D01*
X15222600Y-6271300D01*
X15222600Y-8176300D02*
X15282600Y-8116300D01*
X15222600Y-8056300D01*
X15162600Y-8116300D01*
X15222600Y-8176300D01*
X15222600Y-10081300D02*
X15282600Y-10021300D01*
X15222600Y-9961300D01*
X15162600Y-10021300D01*
X15222600Y-10081300D01*
X15722600Y-6061300D02*
X15782600Y-6001300D01*
X15722600Y-5941300D01*
X15662600Y-6001300D01*
X15722600Y-6061300D01*
X15722600Y-6061300D02*
X15782600Y-6001300D01*
X15722600Y-5941300D01*
X15662600Y-6001300D01*
X15722600Y-6061300D01*
X15722600Y-7966300D02*
X15782600Y-7906300D01*
X15722600Y-7846300D01*
X15662600Y-7906300D01*
X15722600Y-7966300D01*
X15722600Y-7966300D02*
X15782600Y-7906300D01*
X15722600Y-7846300D01*
X15662600Y-7906300D01*
X15722600Y-7966300D01*
X15722600Y-9871300D02*
X15782600Y-9811300D01*
X15722600Y-9751300D01*
X15662600Y-9811300D01*
X15722600Y-9871300D01*
X15722600Y-9871300D02*
X15782600Y-9811300D01*
X15722600Y-9751300D01*
X15662600Y-9811300D01*
X15722600Y-9871300D01*
X16222600Y-6271300D02*
X16282600Y-6211300D01*
X16222600Y-6151300D01*
X16162600Y-6211300D01*
X16222600Y-6271300D01*
X16222600Y-8176300D02*
X16282600Y-8116300D01*
X16222600Y-8056300D01*
X16162600Y-8116300D01*
X16222600Y-8176300D01*
X16222600Y-10081300D02*
X16282600Y-10021300D01*
X16222600Y-9961300D01*
X16162600Y-10021300D01*
X16222600Y-10081300D01*
X17127600Y-6271300D02*
X17187600Y-6211300D01*
X17127600Y-6151300D01*
X17067600Y-6211300D01*
X17127600Y-6271300D01*
X17127600Y-8176300D02*
X17187600Y-8116300D01*
X17127600Y-8056300D01*
X17067600Y-8116300D01*
X17127600Y-8176300D01*
X17127600Y-10081300D02*
X17187600Y-10021300D01*
X17127600Y-9961300D01*
X17067600Y-10021300D01*
X17127600Y-10081300D01*
X17627600Y-6061300D02*
X17687600Y-6001300D01*
X17627600Y-5941300D01*
X17567600Y-6001300D01*
X17627600Y-6061300D01*
X17627600Y-6061300D02*
X17687600Y-6001300D01*
X17627600Y-5941300D01*
X17567600Y-6001300D01*
X17627600Y-6061300D01*
X17627600Y-7966300D02*
X17687600Y-7906300D01*
X17627600Y-7846300D01*
X17567600Y-7906300D01*
X17627600Y-7966300D01*
X17627600Y-7966300D02*
X17687600Y-7906300D01*
X17627600Y-7846300D01*
X17567600Y-7906300D01*
X17627600Y-7966300D01*
X17627600Y-9871300D02*
X17687600Y-9811300D01*
X17627600Y-9751300D01*
X17567600Y-9811300D01*
X17627600Y-9871300D01*
X17627600Y-9871300D02*
X17687600Y-9811300D01*
X17627600Y-9751300D01*
X17567600Y-9811300D01*
X17627600Y-9871300D01*
X18127600Y-6271300D02*
X18187600Y-6211300D01*
X18127600Y-6151300D01*
X18067600Y-6211300D01*
X18127600Y-6271300D01*
X18127600Y-8176300D02*
X18187600Y-8116300D01*
X18127600Y-8056300D01*
X18067600Y-8116300D01*
X18127600Y-8176300D01*
X18127600Y-10081300D02*
X18187600Y-10021300D01*
X18127600Y-9961300D01*
X18067600Y-10021300D01*
X18127600Y-10081300D01*
X19032600Y-6271300D02*
X19092600Y-6211300D01*
X19032600Y-6151300D01*
X18972600Y-6211300D01*
X19032600Y-6271300D01*
X19032600Y-8176300D02*
X19092600Y-8116300D01*
X19032600Y-8056300D01*
X18972600Y-8116300D01*
X19032600Y-8176300D01*
X19032600Y-10081300D02*
X19092600Y-10021300D01*
X19032600Y-9961300D01*
X18972600Y-10021300D01*
X19032600Y-10081300D01*
X19532600Y-6061300D02*
X19592600Y-6001300D01*
X19532600Y-5941300D01*
X19472600Y-6001300D01*
X19532600Y-6061300D01*
X19532600Y-6061300D02*
X19592600Y-6001300D01*
X19532600Y-5941300D01*
X19472600Y-6001300D01*
X19532600Y-6061300D01*
X19532600Y-7966300D02*
X19592600Y-7906300D01*
X19532600Y-7846300D01*
X19472600Y-7906300D01*
X19532600Y-7966300D01*
X19532600Y-7966300D02*
X19592600Y-7906300D01*
X19532600Y-7846300D01*
X19472600Y-7906300D01*
X19532600Y-7966300D01*
X19532600Y-9871300D02*
X19592600Y-9811300D01*
X19532600Y-9751300D01*
X19472600Y-9811300D01*
X19532600Y-9871300D01*
X19532600Y-9871300D02*
X19592600Y-9811300D01*
X19532600Y-9751300D01*
X19472600Y-9811300D01*
X19532600Y-9871300D01*
X20032600Y-6271300D02*
X20092600Y-6211300D01*
X20032600Y-6151300D01*
X19972600Y-6211300D01*
X20032600Y-6271300D01*
X20032600Y-8176300D02*
X20092600Y-8116300D01*
X20032600Y-8056300D01*
X19972600Y-8116300D01*
X20032600Y-8176300D01*
X20032600Y-10081300D02*
X20092600Y-10021300D01*
X20032600Y-9961300D01*
X19972600Y-10021300D01*
X20032600Y-10081300D01*
X20937600Y-6271300D02*
X20997600Y-6211300D01*
X20937600Y-6151300D01*
X20877600Y-6211300D01*
X20937600Y-6271300D01*
X20937600Y-8176300D02*
X20997600Y-8116300D01*
X20937600Y-8056300D01*
X20877600Y-8116300D01*
X20937600Y-8176300D01*
X20937600Y-10081300D02*
X20997600Y-10021300D01*
X20937600Y-9961300D01*
X20877600Y-10021300D01*
X20937600Y-10081300D01*
X21437600Y-6061300D02*
X21497600Y-6001300D01*
X21437600Y-5941300D01*
X21377600Y-6001300D01*
X21437600Y-6061300D01*
X21437600Y-6061300D02*
X21497600Y-6001300D01*
X21437600Y-5941300D01*
X21377600Y-6001300D01*
X21437600Y-6061300D01*
X21437600Y-7966300D02*
X21497600Y-7906300D01*
X21437600Y-7846300D01*
X21377600Y-7906300D01*
X21437600Y-7966300D01*
X21437600Y-7966300D02*
X21497600Y-7906300D01*
X21437600Y-7846300D01*
X21377600Y-7906300D01*
X21437600Y-7966300D01*
X21437600Y-9871300D02*
X21497600Y-9811300D01*
X21437600Y-9751300D01*
X21377600Y-9811300D01*
X21437600Y-9871300D01*
X21437600Y-9871300D02*
X21497600Y-9811300D01*
X21437600Y-9751300D01*
X21377600Y-9811300D01*
X21437600Y-9871300D01*
X21937600Y-6271300D02*
X21997600Y-6211300D01*
X21937600Y-6151300D01*
X21877600Y-6211300D01*
X21937600Y-6271300D01*
X21937600Y-8176300D02*
X21997600Y-8116300D01*
X21937600Y-8056300D01*
X21877600Y-8116300D01*
X21937600Y-8176300D01*
X21937600Y-10081300D02*
X21997600Y-10021300D01*
X21937600Y-9961300D01*
X21877600Y-10021300D01*
X21937600Y-10081300D01*
X22842600Y-6271300D02*
X22902600Y-6211300D01*
X22842600Y-6151300D01*
X22782600Y-6211300D01*
X22842600Y-6271300D01*
X22842600Y-8176300D02*
X22902600Y-8116300D01*
X22842600Y-8056300D01*
X22782600Y-8116300D01*
X22842600Y-8176300D01*
X22842600Y-10081300D02*
X22902600Y-10021300D01*
X22842600Y-9961300D01*
X22782600Y-10021300D01*
X22842600Y-10081300D01*
X23325200Y-11986300D02*
X23385200Y-11926300D01*
X23325200Y-11866300D01*
X23265200Y-11926300D01*
X23325200Y-11986300D01*
X23342600Y-6061300D02*
X23402600Y-6001300D01*
X23342600Y-5941300D01*
X23282600Y-6001300D01*
X23342600Y-6061300D01*
X23342600Y-6061300D02*
X23402600Y-6001300D01*
X23342600Y-5941300D01*
X23282600Y-6001300D01*
X23342600Y-6061300D01*
X23342600Y-7966300D02*
X23402600Y-7906300D01*
X23342600Y-7846300D01*
X23282600Y-7906300D01*
X23342600Y-7966300D01*
X23342600Y-7966300D02*
X23402600Y-7906300D01*
X23342600Y-7846300D01*
X23282600Y-7906300D01*
X23342600Y-7966300D01*
X23342600Y-9871300D02*
X23402600Y-9811300D01*
X23342600Y-9751300D01*
X23282600Y-9811300D01*
X23342600Y-9871300D01*
X23342600Y-9871300D02*
X23402600Y-9811300D01*
X23342600Y-9751300D01*
X23282600Y-9811300D01*
X23342600Y-9871300D01*
X23825200Y-11776300D02*
X23885200Y-11716300D01*
X23825200Y-11656300D01*
X23765200Y-11716300D01*
X23825200Y-11776300D01*
X23825200Y-11776300D02*
X23885200Y-11716300D01*
X23825200Y-11656300D01*
X23765200Y-11716300D01*
X23825200Y-11776300D01*
X23842600Y-6271300D02*
X23902600Y-6211300D01*
X23842600Y-6151300D01*
X23782600Y-6211300D01*
X23842600Y-6271300D01*
X23842600Y-8176300D02*
X23902600Y-8116300D01*
X23842600Y-8056300D01*
X23782600Y-8116300D01*
X23842600Y-8176300D01*
X23842600Y-10081300D02*
X23902600Y-10021300D01*
X23842600Y-9961300D01*
X23782600Y-10021300D01*
X23842600Y-10081300D01*
X24325200Y-11986300D02*
X24385200Y-11926300D01*
X24325200Y-11866300D01*
X24265200Y-11926300D01*
X24325200Y-11986300D01*
X15268100Y-6263800D02*
X15415100Y-6410800D01*
X15415100Y-6263800D02*
X15268100Y-6410800D01*
X15415100Y-6337300D02*
G75*
G03*
X15415100Y-6337300I-73500J0D01*
G01*
X15268100Y-8168800D02*
X15415100Y-8315800D01*
X15415100Y-8168800D02*
X15268100Y-8315800D01*
X15415100Y-8242300D02*
G75*
G03*
X15415100Y-8242300I-73500J0D01*
G01*
X15268100Y-10073800D02*
X15415100Y-10220800D01*
X15415100Y-10073800D02*
X15268100Y-10220800D01*
X15415100Y-10147300D02*
G75*
G03*
X15415100Y-10147300I-73500J0D01*
G01*
X15395100Y-6009800D02*
X15542100Y-6156800D01*
X15542100Y-6009800D02*
X15395100Y-6156800D01*
X15542100Y-6083300D02*
G75*
G03*
X15542100Y-6083300I-73500J0D01*
G01*
X15395100Y-7914800D02*
X15542100Y-8061800D01*
X15542100Y-7914800D02*
X15395100Y-8061800D01*
X15542100Y-7988300D02*
G75*
G03*
X15542100Y-7988300I-73500J0D01*
G01*
X15395100Y-9819800D02*
X15542100Y-9966800D01*
X15542100Y-9819800D02*
X15395100Y-9966800D01*
X15542100Y-9893300D02*
G75*
G03*
X15542100Y-9893300I-73500J0D01*
G01*
X15399100Y-6067800D02*
X15546100Y-6214800D01*
X15546100Y-6067800D02*
X15399100Y-6214800D01*
X15546100Y-6141300D02*
G75*
G03*
X15546100Y-6141300I-73500J0D01*
G01*
X15399100Y-6117800D02*
X15546100Y-6264800D01*
X15546100Y-6117800D02*
X15399100Y-6264800D01*
X15546100Y-6191300D02*
G75*
G03*
X15546100Y-6191300I-73500J0D01*
G01*
X15399100Y-7972800D02*
X15546100Y-8119800D01*
X15546100Y-7972800D02*
X15399100Y-8119800D01*
X15546100Y-8046300D02*
G75*
G03*
X15546100Y-8046300I-73500J0D01*
G01*
X15399100Y-8022800D02*
X15546100Y-8169800D01*
X15546100Y-8022800D02*
X15399100Y-8169800D01*
X15546100Y-8096300D02*
G75*
G03*
X15546100Y-8096300I-73500J0D01*
G01*
X15399100Y-9877800D02*
X15546100Y-10024800D01*
X15546100Y-9877800D02*
X15399100Y-10024800D01*
X15546100Y-9951300D02*
G75*
G03*
X15546100Y-9951300I-73500J0D01*
G01*
X15399100Y-9927800D02*
X15546100Y-10074800D01*
X15546100Y-9927800D02*
X15399100Y-10074800D01*
X15546100Y-10001300D02*
G75*
G03*
X15546100Y-10001300I-73500J0D01*
G01*
X15899100Y-6067800D02*
X16046100Y-6214800D01*
X16046100Y-6067800D02*
X15899100Y-6214800D01*
X16046100Y-6141300D02*
G75*
G03*
X16046100Y-6141300I-73500J0D01*
G01*
X15899100Y-6117800D02*
X16046100Y-6264800D01*
X16046100Y-6117800D02*
X15899100Y-6264800D01*
X16046100Y-6191300D02*
G75*
G03*
X16046100Y-6191300I-73500J0D01*
G01*
X15899100Y-7972800D02*
X16046100Y-8119800D01*
X16046100Y-7972800D02*
X15899100Y-8119800D01*
X16046100Y-8046300D02*
G75*
G03*
X16046100Y-8046300I-73500J0D01*
G01*
X15899100Y-8022800D02*
X16046100Y-8169800D01*
X16046100Y-8022800D02*
X15899100Y-8169800D01*
X16046100Y-8096300D02*
G75*
G03*
X16046100Y-8096300I-73500J0D01*
G01*
X15899100Y-9877800D02*
X16046100Y-10024800D01*
X16046100Y-9877800D02*
X15899100Y-10024800D01*
X16046100Y-9951300D02*
G75*
G03*
X16046100Y-9951300I-73500J0D01*
G01*
X15899100Y-9927800D02*
X16046100Y-10074800D01*
X16046100Y-9927800D02*
X15899100Y-10074800D01*
X16046100Y-10001300D02*
G75*
G03*
X16046100Y-10001300I-73500J0D01*
G01*
X15903100Y-6009800D02*
X16050100Y-6156800D01*
X16050100Y-6009800D02*
X15903100Y-6156800D01*
X16050100Y-6083300D02*
G75*
G03*
X16050100Y-6083300I-73500J0D01*
G01*
X15903100Y-7914800D02*
X16050100Y-8061800D01*
X16050100Y-7914800D02*
X15903100Y-8061800D01*
X16050100Y-7988300D02*
G75*
G03*
X16050100Y-7988300I-73500J0D01*
G01*
X15903100Y-9819800D02*
X16050100Y-9966800D01*
X16050100Y-9819800D02*
X15903100Y-9966800D01*
X16050100Y-9893300D02*
G75*
G03*
X16050100Y-9893300I-73500J0D01*
G01*
X16030100Y-6263800D02*
X16177100Y-6410800D01*
X16177100Y-6263800D02*
X16030100Y-6410800D01*
X16177100Y-6337300D02*
G75*
G03*
X16177100Y-6337300I-73500J0D01*
G01*
X16030100Y-8168800D02*
X16177100Y-8315800D01*
X16177100Y-8168800D02*
X16030100Y-8315800D01*
X16177100Y-8242300D02*
G75*
G03*
X16177100Y-8242300I-73500J0D01*
G01*
X16030100Y-10073800D02*
X16177100Y-10220800D01*
X16177100Y-10073800D02*
X16030100Y-10220800D01*
X16177100Y-10147300D02*
G75*
G03*
X16177100Y-10147300I-73500J0D01*
G01*
X17173100Y-6263800D02*
X17320100Y-6410800D01*
X17320100Y-6263800D02*
X17173100Y-6410800D01*
X17320100Y-6337300D02*
G75*
G03*
X17320100Y-6337300I-73500J0D01*
G01*
X17173100Y-8168800D02*
X17320100Y-8315800D01*
X17320100Y-8168800D02*
X17173100Y-8315800D01*
X17320100Y-8242300D02*
G75*
G03*
X17320100Y-8242300I-73500J0D01*
G01*
X17173100Y-10073800D02*
X17320100Y-10220800D01*
X17320100Y-10073800D02*
X17173100Y-10220800D01*
X17320100Y-10147300D02*
G75*
G03*
X17320100Y-10147300I-73500J0D01*
G01*
X17300100Y-6009800D02*
X17447100Y-6156800D01*
X17447100Y-6009800D02*
X17300100Y-6156800D01*
X17447100Y-6083300D02*
G75*
G03*
X17447100Y-6083300I-73500J0D01*
G01*
X17300100Y-7914800D02*
X17447100Y-8061800D01*
X17447100Y-7914800D02*
X17300100Y-8061800D01*
X17447100Y-7988300D02*
G75*
G03*
X17447100Y-7988300I-73500J0D01*
G01*
X17300100Y-9819800D02*
X17447100Y-9966800D01*
X17447100Y-9819800D02*
X17300100Y-9966800D01*
X17447100Y-9893300D02*
G75*
G03*
X17447100Y-9893300I-73500J0D01*
G01*
X17304100Y-6067800D02*
X17451100Y-6214800D01*
X17451100Y-6067800D02*
X17304100Y-6214800D01*
X17451100Y-6141300D02*
G75*
G03*
X17451100Y-6141300I-73500J0D01*
G01*
X17304100Y-6117800D02*
X17451100Y-6264800D01*
X17451100Y-6117800D02*
X17304100Y-6264800D01*
X17451100Y-6191300D02*
G75*
G03*
X17451100Y-6191300I-73500J0D01*
G01*
X17304100Y-7972800D02*
X17451100Y-8119800D01*
X17451100Y-7972800D02*
X17304100Y-8119800D01*
X17451100Y-8046300D02*
G75*
G03*
X17451100Y-8046300I-73500J0D01*
G01*
X17304100Y-8022800D02*
X17451100Y-8169800D01*
X17451100Y-8022800D02*
X17304100Y-8169800D01*
X17451100Y-8096300D02*
G75*
G03*
X17451100Y-8096300I-73500J0D01*
G01*
X17304100Y-9877800D02*
X17451100Y-10024800D01*
X17451100Y-9877800D02*
X17304100Y-10024800D01*
X17451100Y-9951300D02*
G75*
G03*
X17451100Y-9951300I-73500J0D01*
G01*
X17304100Y-9927800D02*
X17451100Y-10074800D01*
X17451100Y-9927800D02*
X17304100Y-10074800D01*
X17451100Y-10001300D02*
G75*
G03*
X17451100Y-10001300I-73500J0D01*
G01*
X17804100Y-6067800D02*
X17951100Y-6214800D01*
X17951100Y-6067800D02*
X17804100Y-6214800D01*
X17951100Y-6141300D02*
G75*
G03*
X17951100Y-6141300I-73500J0D01*
G01*
X17804100Y-6117800D02*
X17951100Y-6264800D01*
X17951100Y-6117800D02*
X17804100Y-6264800D01*
X17951100Y-6191300D02*
G75*
G03*
X17951100Y-6191300I-73500J0D01*
G01*
X17804100Y-7972800D02*
X17951100Y-8119800D01*
X17951100Y-7972800D02*
X17804100Y-8119800D01*
X17951100Y-8046300D02*
G75*
G03*
X17951100Y-8046300I-73500J0D01*
G01*
X17804100Y-8022800D02*
X17951100Y-8169800D01*
X17951100Y-8022800D02*
X17804100Y-8169800D01*
X17951100Y-8096300D02*
G75*
G03*
X17951100Y-8096300I-73500J0D01*
G01*
X17804100Y-9877800D02*
X17951100Y-10024800D01*
X17951100Y-9877800D02*
X17804100Y-10024800D01*
X17951100Y-9951300D02*
G75*
G03*
X17951100Y-9951300I-73500J0D01*
G01*
X17804100Y-9927800D02*
X17951100Y-10074800D01*
X17951100Y-9927800D02*
X17804100Y-10074800D01*
X17951100Y-10001300D02*
G75*
G03*
X17951100Y-10001300I-73500J0D01*
G01*
X17808100Y-6009800D02*
X17955100Y-6156800D01*
X17955100Y-6009800D02*
X17808100Y-6156800D01*
X17955100Y-6083300D02*
G75*
G03*
X17955100Y-6083300I-73500J0D01*
G01*
X17808100Y-7914800D02*
X17955100Y-8061800D01*
X17955100Y-7914800D02*
X17808100Y-8061800D01*
X17955100Y-7988300D02*
G75*
G03*
X17955100Y-7988300I-73500J0D01*
G01*
X17808100Y-9819800D02*
X17955100Y-9966800D01*
X17955100Y-9819800D02*
X17808100Y-9966800D01*
X17955100Y-9893300D02*
G75*
G03*
X17955100Y-9893300I-73500J0D01*
G01*
X17935100Y-6263800D02*
X18082100Y-6410800D01*
X18082100Y-6263800D02*
X17935100Y-6410800D01*
X18082100Y-6337300D02*
G75*
G03*
X18082100Y-6337300I-73500J0D01*
G01*
X17935100Y-8168800D02*
X18082100Y-8315800D01*
X18082100Y-8168800D02*
X17935100Y-8315800D01*
X18082100Y-8242300D02*
G75*
G03*
X18082100Y-8242300I-73500J0D01*
G01*
X17935100Y-10073800D02*
X18082100Y-10220800D01*
X18082100Y-10073800D02*
X17935100Y-10220800D01*
X18082100Y-10147300D02*
G75*
G03*
X18082100Y-10147300I-73500J0D01*
G01*
X19078100Y-6263800D02*
X19225100Y-6410800D01*
X19225100Y-6263800D02*
X19078100Y-6410800D01*
X19225100Y-6337300D02*
G75*
G03*
X19225100Y-6337300I-73500J0D01*
G01*
X19078100Y-8168800D02*
X19225100Y-8315800D01*
X19225100Y-8168800D02*
X19078100Y-8315800D01*
X19225100Y-8242300D02*
G75*
G03*
X19225100Y-8242300I-73500J0D01*
G01*
X19078100Y-10073800D02*
X19225100Y-10220800D01*
X19225100Y-10073800D02*
X19078100Y-10220800D01*
X19225100Y-10147300D02*
G75*
G03*
X19225100Y-10147300I-73500J0D01*
G01*
X19205100Y-6009800D02*
X19352100Y-6156800D01*
X19352100Y-6009800D02*
X19205100Y-6156800D01*
X19352100Y-6083300D02*
G75*
G03*
X19352100Y-6083300I-73500J0D01*
G01*
X19205100Y-7914800D02*
X19352100Y-8061800D01*
X19352100Y-7914800D02*
X19205100Y-8061800D01*
X19352100Y-7988300D02*
G75*
G03*
X19352100Y-7988300I-73500J0D01*
G01*
X19205100Y-9819800D02*
X19352100Y-9966800D01*
X19352100Y-9819800D02*
X19205100Y-9966800D01*
X19352100Y-9893300D02*
G75*
G03*
X19352100Y-9893300I-73500J0D01*
G01*
X19209100Y-6067800D02*
X19356100Y-6214800D01*
X19356100Y-6067800D02*
X19209100Y-6214800D01*
X19356100Y-6141300D02*
G75*
G03*
X19356100Y-6141300I-73500J0D01*
G01*
X19209100Y-6117800D02*
X19356100Y-6264800D01*
X19356100Y-6117800D02*
X19209100Y-6264800D01*
X19356100Y-6191300D02*
G75*
G03*
X19356100Y-6191300I-73500J0D01*
G01*
X19209100Y-7972800D02*
X19356100Y-8119800D01*
X19356100Y-7972800D02*
X19209100Y-8119800D01*
X19356100Y-8046300D02*
G75*
G03*
X19356100Y-8046300I-73500J0D01*
G01*
X19209100Y-8022800D02*
X19356100Y-8169800D01*
X19356100Y-8022800D02*
X19209100Y-8169800D01*
X19356100Y-8096300D02*
G75*
G03*
X19356100Y-8096300I-73500J0D01*
G01*
X19209100Y-9877800D02*
X19356100Y-10024800D01*
X19356100Y-9877800D02*
X19209100Y-10024800D01*
X19356100Y-9951300D02*
G75*
G03*
X19356100Y-9951300I-73500J0D01*
G01*
X19209100Y-9927800D02*
X19356100Y-10074800D01*
X19356100Y-9927800D02*
X19209100Y-10074800D01*
X19356100Y-10001300D02*
G75*
G03*
X19356100Y-10001300I-73500J0D01*
G01*
X19709100Y-6067800D02*
X19856100Y-6214800D01*
X19856100Y-6067800D02*
X19709100Y-6214800D01*
X19856100Y-6141300D02*
G75*
G03*
X19856100Y-6141300I-73500J0D01*
G01*
X19709100Y-6117800D02*
X19856100Y-6264800D01*
X19856100Y-6117800D02*
X19709100Y-6264800D01*
X19856100Y-6191300D02*
G75*
G03*
X19856100Y-6191300I-73500J0D01*
G01*
X19709100Y-7972800D02*
X19856100Y-8119800D01*
X19856100Y-7972800D02*
X19709100Y-8119800D01*
X19856100Y-8046300D02*
G75*
G03*
X19856100Y-8046300I-73500J0D01*
G01*
X19709100Y-8022800D02*
X19856100Y-8169800D01*
X19856100Y-8022800D02*
X19709100Y-8169800D01*
X19856100Y-8096300D02*
G75*
G03*
X19856100Y-8096300I-73500J0D01*
G01*
X19709100Y-9877800D02*
X19856100Y-10024800D01*
X19856100Y-9877800D02*
X19709100Y-10024800D01*
X19856100Y-9951300D02*
G75*
G03*
X19856100Y-9951300I-73500J0D01*
G01*
X19709100Y-9927800D02*
X19856100Y-10074800D01*
X19856100Y-9927800D02*
X19709100Y-10074800D01*
X19856100Y-10001300D02*
G75*
G03*
X19856100Y-10001300I-73500J0D01*
G01*
X19713100Y-6009800D02*
X19860100Y-6156800D01*
X19860100Y-6009800D02*
X19713100Y-6156800D01*
X19860100Y-6083300D02*
G75*
G03*
X19860100Y-6083300I-73500J0D01*
G01*
X19713100Y-7914800D02*
X19860100Y-8061800D01*
X19860100Y-7914800D02*
X19713100Y-8061800D01*
X19860100Y-7988300D02*
G75*
G03*
X19860100Y-7988300I-73500J0D01*
G01*
X19713100Y-9819800D02*
X19860100Y-9966800D01*
X19860100Y-9819800D02*
X19713100Y-9966800D01*
X19860100Y-9893300D02*
G75*
G03*
X19860100Y-9893300I-73500J0D01*
G01*
X19840100Y-6263800D02*
X19987100Y-6410800D01*
X19987100Y-6263800D02*
X19840100Y-6410800D01*
X19987100Y-6337300D02*
G75*
G03*
X19987100Y-6337300I-73500J0D01*
G01*
X19840100Y-8168800D02*
X19987100Y-8315800D01*
X19987100Y-8168800D02*
X19840100Y-8315800D01*
X19987100Y-8242300D02*
G75*
G03*
X19987100Y-8242300I-73500J0D01*
G01*
X19840100Y-10073800D02*
X19987100Y-10220800D01*
X19987100Y-10073800D02*
X19840100Y-10220800D01*
X19987100Y-10147300D02*
G75*
G03*
X19987100Y-10147300I-73500J0D01*
G01*
X20983100Y-6263800D02*
X21130100Y-6410800D01*
X21130100Y-6263800D02*
X20983100Y-6410800D01*
X21130100Y-6337300D02*
G75*
G03*
X21130100Y-6337300I-73500J0D01*
G01*
X20983100Y-8168800D02*
X21130100Y-8315800D01*
X21130100Y-8168800D02*
X20983100Y-8315800D01*
X21130100Y-8242300D02*
G75*
G03*
X21130100Y-8242300I-73500J0D01*
G01*
X20983100Y-10073800D02*
X21130100Y-10220800D01*
X21130100Y-10073800D02*
X20983100Y-10220800D01*
X21130100Y-10147300D02*
G75*
G03*
X21130100Y-10147300I-73500J0D01*
G01*
X21110100Y-6009800D02*
X21257100Y-6156800D01*
X21257100Y-6009800D02*
X21110100Y-6156800D01*
X21257100Y-6083300D02*
G75*
G03*
X21257100Y-6083300I-73500J0D01*
G01*
X21110100Y-7914800D02*
X21257100Y-8061800D01*
X21257100Y-7914800D02*
X21110100Y-8061800D01*
X21257100Y-7988300D02*
G75*
G03*
X21257100Y-7988300I-73500J0D01*
G01*
X21110100Y-9819800D02*
X21257100Y-9966800D01*
X21257100Y-9819800D02*
X21110100Y-9966800D01*
X21257100Y-9893300D02*
G75*
G03*
X21257100Y-9893300I-73500J0D01*
G01*
X21114100Y-6067800D02*
X21261100Y-6214800D01*
X21261100Y-6067800D02*
X21114100Y-6214800D01*
X21261100Y-6141300D02*
G75*
G03*
X21261100Y-6141300I-73500J0D01*
G01*
X21114100Y-6117800D02*
X21261100Y-6264800D01*
X21261100Y-6117800D02*
X21114100Y-6264800D01*
X21261100Y-6191300D02*
G75*
G03*
X21261100Y-6191300I-73500J0D01*
G01*
X21114100Y-7972800D02*
X21261100Y-8119800D01*
X21261100Y-7972800D02*
X21114100Y-8119800D01*
X21261100Y-8046300D02*
G75*
G03*
X21261100Y-8046300I-73500J0D01*
G01*
X21114100Y-8022800D02*
X21261100Y-8169800D01*
X21261100Y-8022800D02*
X21114100Y-8169800D01*
X21261100Y-8096300D02*
G75*
G03*
X21261100Y-8096300I-73500J0D01*
G01*
X21114100Y-9877800D02*
X21261100Y-10024800D01*
X21261100Y-9877800D02*
X21114100Y-10024800D01*
X21261100Y-9951300D02*
G75*
G03*
X21261100Y-9951300I-73500J0D01*
G01*
X21114100Y-9927800D02*
X21261100Y-10074800D01*
X21261100Y-9927800D02*
X21114100Y-10074800D01*
X21261100Y-10001300D02*
G75*
G03*
X21261100Y-10001300I-73500J0D01*
G01*
X21614100Y-6067800D02*
X21761100Y-6214800D01*
X21761100Y-6067800D02*
X21614100Y-6214800D01*
X21761100Y-6141300D02*
G75*
G03*
X21761100Y-6141300I-73500J0D01*
G01*
X21614100Y-6117800D02*
X21761100Y-6264800D01*
X21761100Y-6117800D02*
X21614100Y-6264800D01*
X21761100Y-6191300D02*
G75*
G03*
X21761100Y-6191300I-73500J0D01*
G01*
X21614100Y-7972800D02*
X21761100Y-8119800D01*
X21761100Y-7972800D02*
X21614100Y-8119800D01*
X21761100Y-8046300D02*
G75*
G03*
X21761100Y-8046300I-73500J0D01*
G01*
X21614100Y-8022800D02*
X21761100Y-8169800D01*
X21761100Y-8022800D02*
X21614100Y-8169800D01*
X21761100Y-8096300D02*
G75*
G03*
X21761100Y-8096300I-73500J0D01*
G01*
X21614100Y-9877800D02*
X21761100Y-10024800D01*
X21761100Y-9877800D02*
X21614100Y-10024800D01*
X21761100Y-9951300D02*
G75*
G03*
X21761100Y-9951300I-73500J0D01*
G01*
X21614100Y-9927800D02*
X21761100Y-10074800D01*
X21761100Y-9927800D02*
X21614100Y-10074800D01*
X21761100Y-10001300D02*
G75*
G03*
X21761100Y-10001300I-73500J0D01*
G01*
X21618100Y-6009800D02*
X21765100Y-6156800D01*
X21765100Y-6009800D02*
X21618100Y-6156800D01*
X21765100Y-6083300D02*
G75*
G03*
X21765100Y-6083300I-73500J0D01*
G01*
X21618100Y-7914800D02*
X21765100Y-8061800D01*
X21765100Y-7914800D02*
X21618100Y-8061800D01*
X21765100Y-7988300D02*
G75*
G03*
X21765100Y-7988300I-73500J0D01*
G01*
X21618100Y-9819800D02*
X21765100Y-9966800D01*
X21765100Y-9819800D02*
X21618100Y-9966800D01*
X21765100Y-9893300D02*
G75*
G03*
X21765100Y-9893300I-73500J0D01*
G01*
X21745100Y-6263800D02*
X21892100Y-6410800D01*
X21892100Y-6263800D02*
X21745100Y-6410800D01*
X21892100Y-6337300D02*
G75*
G03*
X21892100Y-6337300I-73500J0D01*
G01*
X21745100Y-8168800D02*
X21892100Y-8315800D01*
X21892100Y-8168800D02*
X21745100Y-8315800D01*
X21892100Y-8242300D02*
G75*
G03*
X21892100Y-8242300I-73500J0D01*
G01*
X21745100Y-10073800D02*
X21892100Y-10220800D01*
X21892100Y-10073800D02*
X21745100Y-10220800D01*
X21892100Y-10147300D02*
G75*
G03*
X21892100Y-10147300I-73500J0D01*
G01*
X22888100Y-6263800D02*
X23035100Y-6410800D01*
X23035100Y-6263800D02*
X22888100Y-6410800D01*
X23035100Y-6337300D02*
G75*
G03*
X23035100Y-6337300I-73500J0D01*
G01*
X22888100Y-8168800D02*
X23035100Y-8315800D01*
X23035100Y-8168800D02*
X22888100Y-8315800D01*
X23035100Y-8242300D02*
G75*
G03*
X23035100Y-8242300I-73500J0D01*
G01*
X22888100Y-10073800D02*
X23035100Y-10220800D01*
X23035100Y-10073800D02*
X22888100Y-10220800D01*
X23035100Y-10147300D02*
G75*
G03*
X23035100Y-10147300I-73500J0D01*
G01*
X23015100Y-6009800D02*
X23162100Y-6156800D01*
X23162100Y-6009800D02*
X23015100Y-6156800D01*
X23162100Y-6083300D02*
G75*
G03*
X23162100Y-6083300I-73500J0D01*
G01*
X23015100Y-7914800D02*
X23162100Y-8061800D01*
X23162100Y-7914800D02*
X23015100Y-8061800D01*
X23162100Y-7988300D02*
G75*
G03*
X23162100Y-7988300I-73500J0D01*
G01*
X23015100Y-9819800D02*
X23162100Y-9966800D01*
X23162100Y-9819800D02*
X23015100Y-9966800D01*
X23162100Y-9893300D02*
G75*
G03*
X23162100Y-9893300I-73500J0D01*
G01*
X23019100Y-6067800D02*
X23166100Y-6214800D01*
X23166100Y-6067800D02*
X23019100Y-6214800D01*
X23166100Y-6141300D02*
G75*
G03*
X23166100Y-6141300I-73500J0D01*
G01*
X23019100Y-6117800D02*
X23166100Y-6264800D01*
X23166100Y-6117800D02*
X23019100Y-6264800D01*
X23166100Y-6191300D02*
G75*
G03*
X23166100Y-6191300I-73500J0D01*
G01*
X23019100Y-7972800D02*
X23166100Y-8119800D01*
X23166100Y-7972800D02*
X23019100Y-8119800D01*
X23166100Y-8046300D02*
G75*
G03*
X23166100Y-8046300I-73500J0D01*
G01*
X23019100Y-8022800D02*
X23166100Y-8169800D01*
X23166100Y-8022800D02*
X23019100Y-8169800D01*
X23166100Y-8096300D02*
G75*
G03*
X23166100Y-8096300I-73500J0D01*
G01*
X23019100Y-9877800D02*
X23166100Y-10024800D01*
X23166100Y-9877800D02*
X23019100Y-10024800D01*
X23166100Y-9951300D02*
G75*
G03*
X23166100Y-9951300I-73500J0D01*
G01*
X23019100Y-9927800D02*
X23166100Y-10074800D01*
X23166100Y-9927800D02*
X23019100Y-10074800D01*
X23166100Y-10001300D02*
G75*
G03*
X23166100Y-10001300I-73500J0D01*
G01*
X23370700Y-11978800D02*
X23517700Y-12125800D01*
X23517700Y-11978800D02*
X23370700Y-12125800D01*
X23517700Y-12052300D02*
G75*
G03*
X23517700Y-12052300I-73500J0D01*
G01*
X23497700Y-11724800D02*
X23644700Y-11871800D01*
X23644700Y-11724800D02*
X23497700Y-11871800D01*
X23644700Y-11798300D02*
G75*
G03*
X23644700Y-11798300I-73500J0D01*
G01*
X23501700Y-11782800D02*
X23648700Y-11929800D01*
X23648700Y-11782800D02*
X23501700Y-11929800D01*
X23648700Y-11856300D02*
G75*
G03*
X23648700Y-11856300I-73500J0D01*
G01*
X23501700Y-11832800D02*
X23648700Y-11979800D01*
X23648700Y-11832800D02*
X23501700Y-11979800D01*
X23648700Y-11906300D02*
G75*
G03*
X23648700Y-11906300I-73500J0D01*
G01*
X23519100Y-6067800D02*
X23666100Y-6214800D01*
X23666100Y-6067800D02*
X23519100Y-6214800D01*
X23666100Y-6141300D02*
G75*
G03*
X23666100Y-6141300I-73500J0D01*
G01*
X23519100Y-6117800D02*
X23666100Y-6264800D01*
X23666100Y-6117800D02*
X23519100Y-6264800D01*
X23666100Y-6191300D02*
G75*
G03*
X23666100Y-6191300I-73500J0D01*
G01*
X23519100Y-7972800D02*
X23666100Y-8119800D01*
X23666100Y-7972800D02*
X23519100Y-8119800D01*
X23666100Y-8046300D02*
G75*
G03*
X23666100Y-8046300I-73500J0D01*
G01*
X23519100Y-8022800D02*
X23666100Y-8169800D01*
X23666100Y-8022800D02*
X23519100Y-8169800D01*
X23666100Y-8096300D02*
G75*
G03*
X23666100Y-8096300I-73500J0D01*
G01*
X23519100Y-9877800D02*
X23666100Y-10024800D01*
X23666100Y-9877800D02*
X23519100Y-10024800D01*
X23666100Y-9951300D02*
G75*
G03*
X23666100Y-9951300I-73500J0D01*
G01*
X23519100Y-9927800D02*
X23666100Y-10074800D01*
X23666100Y-9927800D02*
X23519100Y-10074800D01*
X23666100Y-10001300D02*
G75*
G03*
X23666100Y-10001300I-73500J0D01*
G01*
X23523100Y-6009800D02*
X23670100Y-6156800D01*
X23670100Y-6009800D02*
X23523100Y-6156800D01*
X23670100Y-6083300D02*
G75*
G03*
X23670100Y-6083300I-73500J0D01*
G01*
X23523100Y-7914800D02*
X23670100Y-8061800D01*
X23670100Y-7914800D02*
X23523100Y-8061800D01*
X23670100Y-7988300D02*
G75*
G03*
X23670100Y-7988300I-73500J0D01*
G01*
X23523100Y-9819800D02*
X23670100Y-9966800D01*
X23670100Y-9819800D02*
X23523100Y-9966800D01*
X23670100Y-9893300D02*
G75*
G03*
X23670100Y-9893300I-73500J0D01*
G01*
X23650100Y-6263800D02*
X23797100Y-6410800D01*
X23797100Y-6263800D02*
X23650100Y-6410800D01*
X23797100Y-6337300D02*
G75*
G03*
X23797100Y-6337300I-73500J0D01*
G01*
X23650100Y-8168800D02*
X23797100Y-8315800D01*
X23797100Y-8168800D02*
X23650100Y-8315800D01*
X23797100Y-8242300D02*
G75*
G03*
X23797100Y-8242300I-73500J0D01*
G01*
X23650100Y-10073800D02*
X23797100Y-10220800D01*
X23797100Y-10073800D02*
X23650100Y-10220800D01*
X23797100Y-10147300D02*
G75*
G03*
X23797100Y-10147300I-73500J0D01*
G01*
X24001700Y-11782800D02*
X24148700Y-11929800D01*
X24148700Y-11782800D02*
X24001700Y-11929800D01*
X24148700Y-11856300D02*
G75*
G03*
X24148700Y-11856300I-73500J0D01*
G01*
X24001700Y-11832800D02*
X24148700Y-11979800D01*
X24148700Y-11832800D02*
X24001700Y-11979800D01*
X24148700Y-11906300D02*
G75*
G03*
X24148700Y-11906300I-73500J0D01*
G01*
X24005700Y-11724800D02*
X24152700Y-11871800D01*
X24152700Y-11724800D02*
X24005700Y-11871800D01*
X24152700Y-11798300D02*
G75*
G03*
X24152700Y-11798300I-73500J0D01*
G01*
X24132700Y-11978800D02*
X24279700Y-12125800D01*
X24279700Y-11978800D02*
X24132700Y-12125800D01*
X24279700Y-12052300D02*
G75*
G03*
X24279700Y-12052300I-73500J0D01*
G01*
X14987200Y-11532800D02*
X15137200Y-11682800D01*
X15137200Y-11532800D02*
X14987200Y-11682800D01*
X15062200Y-11532800D02*
X15062200Y-11682800D01*
X14987200Y-11607800D02*
X15137200Y-11607800D01*
X15495200Y-11532800D02*
X15645200Y-11682800D01*
X15645200Y-11532800D02*
X15495200Y-11682800D01*
X15570200Y-11532800D02*
X15570200Y-11682800D01*
X15495200Y-11607800D02*
X15645200Y-11607800D01*
D13*
X14922673Y-13785415D02*
X14922673Y-13485415D01*
X14994102Y-13485415D01*
X15036959Y-13499701D01*
X15065531Y-13528272D01*
X15079816Y-13556843D01*
X15094102Y-13613986D01*
X15094102Y-13656843D01*
X15079816Y-13713986D01*
X15065531Y-13742558D01*
X15036959Y-13771129D01*
X14994102Y-13785415D01*
X14922673Y-13785415D01*
X15222673Y-13785415D02*
X15222673Y-13585415D01*
X15222673Y-13642558D02*
X15236959Y-13613986D01*
X15251245Y-13599701D01*
X15279816Y-13585415D01*
X15308388Y-13585415D01*
X15408388Y-13785415D02*
X15408388Y-13585415D01*
X15408388Y-13485415D02*
X15394102Y-13499701D01*
X15408388Y-13513986D01*
X15422673Y-13499701D01*
X15408388Y-13485415D01*
X15408388Y-13513986D01*
X15594102Y-13785415D02*
X15565531Y-13771129D01*
X15551245Y-13742558D01*
X15551245Y-13485415D01*
X15751245Y-13785415D02*
X15722673Y-13771129D01*
X15708388Y-13742558D01*
X15708388Y-13485415D01*
X16094102Y-13785415D02*
X16094102Y-13485415D01*
X16194102Y-13699701D01*
X16294102Y-13485415D01*
X16294102Y-13785415D01*
X16565531Y-13785415D02*
X16565531Y-13628272D01*
X16551245Y-13599701D01*
X16522673Y-13585415D01*
X16465531Y-13585415D01*
X16436959Y-13599701D01*
X16565531Y-13771129D02*
X16536959Y-13785415D01*
X16465531Y-13785415D01*
X16436959Y-13771129D01*
X16422673Y-13742558D01*
X16422673Y-13713986D01*
X16436959Y-13685415D01*
X16465531Y-13671129D01*
X16536959Y-13671129D01*
X16565531Y-13656843D01*
X16708388Y-13585415D02*
X16708388Y-13885415D01*
X16708388Y-13599701D02*
X16736959Y-13585415D01*
X16794102Y-13585415D01*
X16822673Y-13599701D01*
X16836959Y-13613986D01*
X16851245Y-13642558D01*
X16851245Y-13728272D01*
X16836959Y-13756843D01*
X16822673Y-13771129D01*
X16794102Y-13785415D01*
X16736959Y-13785415D01*
X16708388Y-13771129D01*
X16979816Y-13756843D02*
X16994102Y-13771129D01*
X16979816Y-13785415D01*
X16965531Y-13771129D01*
X16979816Y-13756843D01*
X16979816Y-13785415D01*
X16979816Y-13599701D02*
X16994102Y-13613986D01*
X16979816Y-13628272D01*
X16965531Y-13613986D01*
X16979816Y-13599701D01*
X16979816Y-13628272D01*
X14606245Y-14264701D02*
X14636245Y-14294701D01*
X14636245Y-14264701D02*
X14606245Y-14294701D01*
X14979816Y-14115415D02*
X15008388Y-14115415D01*
X15036959Y-14129701D01*
X15051245Y-14143986D01*
X15065531Y-14172558D01*
X15079816Y-14229701D01*
X15079816Y-14301129D01*
X15065531Y-14358272D01*
X15051245Y-14386843D01*
X15036959Y-14401129D01*
X15008388Y-14415415D01*
X14979816Y-14415415D01*
X14951245Y-14401129D01*
X14936959Y-14386843D01*
X14922673Y-14358272D01*
X14908388Y-14301129D01*
X14908388Y-14229701D01*
X14922673Y-14172558D01*
X14936959Y-14143986D01*
X14951245Y-14129701D01*
X14979816Y-14115415D01*
X15208388Y-14386843D02*
X15222673Y-14401129D01*
X15208388Y-14415415D01*
X15194102Y-14401129D01*
X15208388Y-14386843D01*
X15208388Y-14415415D01*
X15322673Y-14115415D02*
X15508388Y-14115415D01*
X15408388Y-14229701D01*
X15451245Y-14229701D01*
X15479816Y-14243986D01*
X15494102Y-14258272D01*
X15508388Y-14286843D01*
X15508388Y-14358272D01*
X15494102Y-14386843D01*
X15479816Y-14401129D01*
X15451245Y-14415415D01*
X15365531Y-14415415D01*
X15336959Y-14401129D01*
X15322673Y-14386843D01*
X15694102Y-14115415D02*
X15722673Y-14115415D01*
X15751245Y-14129701D01*
X15765531Y-14143986D01*
X15779816Y-14172558D01*
X15794102Y-14229701D01*
X15794102Y-14301129D01*
X15779816Y-14358272D01*
X15765531Y-14386843D01*
X15751245Y-14401129D01*
X15722673Y-14415415D01*
X15694102Y-14415415D01*
X15665531Y-14401129D01*
X15651245Y-14386843D01*
X15636959Y-14358272D01*
X15622673Y-14301129D01*
X15622673Y-14229701D01*
X15636959Y-14172558D01*
X15651245Y-14143986D01*
X15665531Y-14129701D01*
X15694102Y-14115415D01*
X15922673Y-14415415D02*
X15922673Y-14215415D01*
X15922673Y-14243986D02*
X15936959Y-14229701D01*
X15965531Y-14215415D01*
X16008388Y-14215415D01*
X16036959Y-14229701D01*
X16051245Y-14258272D01*
X16051245Y-14415415D01*
X16051245Y-14258272D02*
X16065531Y-14229701D01*
X16094102Y-14215415D01*
X16136959Y-14215415D01*
X16165531Y-14229701D01*
X16179816Y-14258272D01*
X16179816Y-14415415D01*
X16322673Y-14415415D02*
X16322673Y-14215415D01*
X16322673Y-14243986D02*
X16336959Y-14229701D01*
X16365531Y-14215415D01*
X16408388Y-14215415D01*
X16436959Y-14229701D01*
X16451245Y-14258272D01*
X16451245Y-14415415D01*
X16451245Y-14258272D02*
X16465531Y-14229701D01*
X16494102Y-14215415D01*
X16536959Y-14215415D01*
X16565531Y-14229701D01*
X16579816Y-14258272D01*
X16579816Y-14415415D01*
X17165531Y-14101129D02*
X16908388Y-14486843D01*
X17551245Y-14115415D02*
X17579816Y-14115415D01*
X17608388Y-14129701D01*
X17622673Y-14143986D01*
X17636959Y-14172558D01*
X17651245Y-14229701D01*
X17651245Y-14301129D01*
X17636959Y-14358272D01*
X17622673Y-14386843D01*
X17608388Y-14401129D01*
X17579816Y-14415415D01*
X17551245Y-14415415D01*
X17522673Y-14401129D01*
X17508388Y-14386843D01*
X17494102Y-14358272D01*
X17479816Y-14301129D01*
X17479816Y-14229701D01*
X17494102Y-14172558D01*
X17508388Y-14143986D01*
X17522673Y-14129701D01*
X17551245Y-14115415D01*
X17779816Y-14386843D02*
X17794102Y-14401129D01*
X17779816Y-14415415D01*
X17765531Y-14401129D01*
X17779816Y-14386843D01*
X17779816Y-14415415D01*
X17979816Y-14115415D02*
X18008388Y-14115415D01*
X18036959Y-14129701D01*
X18051245Y-14143986D01*
X18065531Y-14172558D01*
X18079816Y-14229701D01*
X18079816Y-14301129D01*
X18065531Y-14358272D01*
X18051245Y-14386843D01*
X18036959Y-14401129D01*
X18008388Y-14415415D01*
X17979816Y-14415415D01*
X17951245Y-14401129D01*
X17936959Y-14386843D01*
X17922673Y-14358272D01*
X17908388Y-14301129D01*
X17908388Y-14229701D01*
X17922673Y-14172558D01*
X17936959Y-14143986D01*
X17951245Y-14129701D01*
X17979816Y-14115415D01*
X18365531Y-14415415D02*
X18194102Y-14415415D01*
X18279816Y-14415415D02*
X18279816Y-14115415D01*
X18251245Y-14158272D01*
X18222673Y-14186843D01*
X18194102Y-14201129D01*
X18479816Y-14143986D02*
X18494102Y-14129701D01*
X18522673Y-14115415D01*
X18594102Y-14115415D01*
X18622673Y-14129701D01*
X18636959Y-14143986D01*
X18651245Y-14172558D01*
X18651245Y-14201129D01*
X18636959Y-14243986D01*
X18465531Y-14415415D01*
X18651245Y-14415415D01*
X18765531Y-14115415D02*
X18765531Y-14172558D01*
X18879816Y-14115415D02*
X18879816Y-14172558D01*
X19322673Y-14529701D02*
X19308388Y-14515415D01*
X19279816Y-14472558D01*
X19265531Y-14443986D01*
X19251245Y-14401129D01*
X19236959Y-14329701D01*
X19236959Y-14272558D01*
X19251245Y-14201129D01*
X19265531Y-14158272D01*
X19279816Y-14129701D01*
X19308388Y-14086843D01*
X19322673Y-14072558D01*
X19494102Y-14115415D02*
X19522673Y-14115415D01*
X19551245Y-14129701D01*
X19565531Y-14143986D01*
X19579816Y-14172558D01*
X19594102Y-14229701D01*
X19594102Y-14301129D01*
X19579816Y-14358272D01*
X19565531Y-14386843D01*
X19551245Y-14401129D01*
X19522673Y-14415415D01*
X19494102Y-14415415D01*
X19465531Y-14401129D01*
X19451245Y-14386843D01*
X19436959Y-14358272D01*
X19422673Y-14301129D01*
X19422673Y-14229701D01*
X19436959Y-14172558D01*
X19451245Y-14143986D01*
X19465531Y-14129701D01*
X19494102Y-14115415D01*
X19951245Y-14415415D02*
X19951245Y-14115415D01*
X20079816Y-14415415D02*
X20079816Y-14258272D01*
X20065531Y-14229701D01*
X20036959Y-14215415D01*
X19994102Y-14215415D01*
X19965531Y-14229701D01*
X19951245Y-14243986D01*
X20265531Y-14415415D02*
X20236959Y-14401129D01*
X20222673Y-14386843D01*
X20208388Y-14358272D01*
X20208388Y-14272558D01*
X20222673Y-14243986D01*
X20236959Y-14229701D01*
X20265531Y-14215415D01*
X20308388Y-14215415D01*
X20336959Y-14229701D01*
X20351245Y-14243986D01*
X20365531Y-14272558D01*
X20365531Y-14358272D01*
X20351245Y-14386843D01*
X20336959Y-14401129D01*
X20308388Y-14415415D01*
X20265531Y-14415415D01*
X20536959Y-14415415D02*
X20508388Y-14401129D01*
X20494102Y-14372558D01*
X20494102Y-14115415D01*
X20765531Y-14401129D02*
X20736959Y-14415415D01*
X20679816Y-14415415D01*
X20651245Y-14401129D01*
X20636959Y-14372558D01*
X20636959Y-14258272D01*
X20651245Y-14229701D01*
X20679816Y-14215415D01*
X20736959Y-14215415D01*
X20765531Y-14229701D01*
X20779816Y-14258272D01*
X20779816Y-14286843D01*
X20636959Y-14315415D01*
X20894102Y-14401129D02*
X20922673Y-14415415D01*
X20979816Y-14415415D01*
X21008388Y-14401129D01*
X21022673Y-14372558D01*
X21022673Y-14358272D01*
X21008388Y-14329701D01*
X20979816Y-14315415D01*
X20936959Y-14315415D01*
X20908388Y-14301129D01*
X20894102Y-14272558D01*
X20894102Y-14258272D01*
X20908388Y-14229701D01*
X20936959Y-14215415D01*
X20979816Y-14215415D01*
X21008388Y-14229701D01*
X21379816Y-14301129D02*
X21608388Y-14301129D01*
X21494102Y-14415415D02*
X21494102Y-14186843D01*
X22022673Y-14243986D02*
X21994102Y-14229701D01*
X21979816Y-14215415D01*
X21965531Y-14186843D01*
X21965531Y-14172558D01*
X21979816Y-14143986D01*
X21994102Y-14129701D01*
X22022673Y-14115415D01*
X22079816Y-14115415D01*
X22108388Y-14129701D01*
X22122673Y-14143986D01*
X22136959Y-14172558D01*
X22136959Y-14186843D01*
X22122673Y-14215415D01*
X22108388Y-14229701D01*
X22079816Y-14243986D01*
X22022673Y-14243986D01*
X21994102Y-14258272D01*
X21979816Y-14272558D01*
X21965531Y-14301129D01*
X21965531Y-14358272D01*
X21979816Y-14386843D01*
X21994102Y-14401129D01*
X22022673Y-14415415D01*
X22079816Y-14415415D01*
X22108388Y-14401129D01*
X22122673Y-14386843D01*
X22136959Y-14358272D01*
X22136959Y-14301129D01*
X22122673Y-14272558D01*
X22108388Y-14258272D01*
X22079816Y-14243986D01*
X22479816Y-14401129D02*
X22508388Y-14415415D01*
X22565531Y-14415415D01*
X22594102Y-14401129D01*
X22608388Y-14372558D01*
X22608388Y-14358272D01*
X22594102Y-14329701D01*
X22565531Y-14315415D01*
X22522673Y-14315415D01*
X22494102Y-14301129D01*
X22479816Y-14272558D01*
X22479816Y-14258272D01*
X22494102Y-14229701D01*
X22522673Y-14215415D01*
X22565531Y-14215415D01*
X22594102Y-14229701D01*
X22779816Y-14415415D02*
X22751245Y-14401129D01*
X22736959Y-14372558D01*
X22736959Y-14115415D01*
X22936959Y-14415415D02*
X22908388Y-14401129D01*
X22894102Y-14386843D01*
X22879816Y-14358272D01*
X22879816Y-14272558D01*
X22894102Y-14243986D01*
X22908388Y-14229701D01*
X22936959Y-14215415D01*
X22979816Y-14215415D01*
X23008388Y-14229701D01*
X23022673Y-14243986D01*
X23036959Y-14272558D01*
X23036959Y-14358272D01*
X23022673Y-14386843D01*
X23008388Y-14401129D01*
X22979816Y-14415415D01*
X22936959Y-14415415D01*
X23122673Y-14215415D02*
X23236959Y-14215415D01*
X23165531Y-14115415D02*
X23165531Y-14372558D01*
X23179816Y-14401129D01*
X23208388Y-14415415D01*
X23236959Y-14415415D01*
X23322673Y-14401129D02*
X23351245Y-14415415D01*
X23408388Y-14415415D01*
X23436959Y-14401129D01*
X23451245Y-14372558D01*
X23451245Y-14358272D01*
X23436959Y-14329701D01*
X23408388Y-14315415D01*
X23365531Y-14315415D01*
X23336959Y-14301129D01*
X23322673Y-14272558D01*
X23322673Y-14258272D01*
X23336959Y-14229701D01*
X23365531Y-14215415D01*
X23408388Y-14215415D01*
X23436959Y-14229701D01*
X23551245Y-14529701D02*
X23565531Y-14515415D01*
X23594102Y-14472558D01*
X23608388Y-14443986D01*
X23622673Y-14401129D01*
X23636959Y-14329701D01*
X23636959Y-14272558D01*
X23622673Y-14201129D01*
X23608388Y-14158272D01*
X23594102Y-14129701D01*
X23565531Y-14086843D01*
X23551245Y-14072558D01*
X14636245Y-14675701D02*
G75*
G03*
X14636245Y-14675701I-20000J0D01*
G01*
X14979816Y-14511415D02*
X15008388Y-14511415D01*
X15036959Y-14525701D01*
X15051245Y-14539986D01*
X15065531Y-14568558D01*
X15079816Y-14625701D01*
X15079816Y-14697129D01*
X15065531Y-14754272D01*
X15051245Y-14782843D01*
X15036959Y-14797129D01*
X15008388Y-14811415D01*
X14979816Y-14811415D01*
X14951245Y-14797129D01*
X14936959Y-14782843D01*
X14922673Y-14754272D01*
X14908388Y-14697129D01*
X14908388Y-14625701D01*
X14922673Y-14568558D01*
X14936959Y-14539986D01*
X14951245Y-14525701D01*
X14979816Y-14511415D01*
X15208388Y-14782843D02*
X15222673Y-14797129D01*
X15208388Y-14811415D01*
X15194102Y-14797129D01*
X15208388Y-14782843D01*
X15208388Y-14811415D01*
X15479816Y-14611415D02*
X15479816Y-14811415D01*
X15408388Y-14497129D02*
X15336959Y-14711415D01*
X15522673Y-14711415D01*
X15694102Y-14511415D02*
X15722673Y-14511415D01*
X15751245Y-14525701D01*
X15765531Y-14539986D01*
X15779816Y-14568558D01*
X15794102Y-14625701D01*
X15794102Y-14697129D01*
X15779816Y-14754272D01*
X15765531Y-14782843D01*
X15751245Y-14797129D01*
X15722673Y-14811415D01*
X15694102Y-14811415D01*
X15665531Y-14797129D01*
X15651245Y-14782843D01*
X15636959Y-14754272D01*
X15622673Y-14697129D01*
X15622673Y-14625701D01*
X15636959Y-14568558D01*
X15651245Y-14539986D01*
X15665531Y-14525701D01*
X15694102Y-14511415D01*
X15922673Y-14811415D02*
X15922673Y-14611415D01*
X15922673Y-14639986D02*
X15936959Y-14625701D01*
X15965531Y-14611415D01*
X16008388Y-14611415D01*
X16036959Y-14625701D01*
X16051245Y-14654272D01*
X16051245Y-14811415D01*
X16051245Y-14654272D02*
X16065531Y-14625701D01*
X16094102Y-14611415D01*
X16136959Y-14611415D01*
X16165531Y-14625701D01*
X16179816Y-14654272D01*
X16179816Y-14811415D01*
X16322673Y-14811415D02*
X16322673Y-14611415D01*
X16322673Y-14639986D02*
X16336959Y-14625701D01*
X16365531Y-14611415D01*
X16408388Y-14611415D01*
X16436959Y-14625701D01*
X16451245Y-14654272D01*
X16451245Y-14811415D01*
X16451245Y-14654272D02*
X16465531Y-14625701D01*
X16494102Y-14611415D01*
X16536959Y-14611415D01*
X16565531Y-14625701D01*
X16579816Y-14654272D01*
X16579816Y-14811415D01*
X17165531Y-14497129D02*
X16908388Y-14882843D01*
X17551245Y-14511415D02*
X17579816Y-14511415D01*
X17608388Y-14525701D01*
X17622673Y-14539986D01*
X17636959Y-14568558D01*
X17651245Y-14625701D01*
X17651245Y-14697129D01*
X17636959Y-14754272D01*
X17622673Y-14782843D01*
X17608388Y-14797129D01*
X17579816Y-14811415D01*
X17551245Y-14811415D01*
X17522673Y-14797129D01*
X17508388Y-14782843D01*
X17494102Y-14754272D01*
X17479816Y-14697129D01*
X17479816Y-14625701D01*
X17494102Y-14568558D01*
X17508388Y-14539986D01*
X17522673Y-14525701D01*
X17551245Y-14511415D01*
X17779816Y-14782843D02*
X17794102Y-14797129D01*
X17779816Y-14811415D01*
X17765531Y-14797129D01*
X17779816Y-14782843D01*
X17779816Y-14811415D01*
X17979816Y-14511415D02*
X18008388Y-14511415D01*
X18036959Y-14525701D01*
X18051245Y-14539986D01*
X18065531Y-14568558D01*
X18079816Y-14625701D01*
X18079816Y-14697129D01*
X18065531Y-14754272D01*
X18051245Y-14782843D01*
X18036959Y-14797129D01*
X18008388Y-14811415D01*
X17979816Y-14811415D01*
X17951245Y-14797129D01*
X17936959Y-14782843D01*
X17922673Y-14754272D01*
X17908388Y-14697129D01*
X17908388Y-14625701D01*
X17922673Y-14568558D01*
X17936959Y-14539986D01*
X17951245Y-14525701D01*
X17979816Y-14511415D01*
X18365531Y-14811415D02*
X18194102Y-14811415D01*
X18279816Y-14811415D02*
X18279816Y-14511415D01*
X18251245Y-14554272D01*
X18222673Y-14582843D01*
X18194102Y-14597129D01*
X18622673Y-14511415D02*
X18565531Y-14511415D01*
X18536959Y-14525701D01*
X18522673Y-14539986D01*
X18494102Y-14582843D01*
X18479816Y-14639986D01*
X18479816Y-14754272D01*
X18494102Y-14782843D01*
X18508388Y-14797129D01*
X18536959Y-14811415D01*
X18594102Y-14811415D01*
X18622673Y-14797129D01*
X18636959Y-14782843D01*
X18651245Y-14754272D01*
X18651245Y-14682843D01*
X18636959Y-14654272D01*
X18622673Y-14639986D01*
X18594102Y-14625701D01*
X18536959Y-14625701D01*
X18508388Y-14639986D01*
X18494102Y-14654272D01*
X18479816Y-14682843D01*
X18765531Y-14511415D02*
X18765531Y-14568558D01*
X18879816Y-14511415D02*
X18879816Y-14568558D01*
X19322673Y-14925701D02*
X19308388Y-14911415D01*
X19279816Y-14868558D01*
X19265531Y-14839986D01*
X19251245Y-14797129D01*
X19236959Y-14725701D01*
X19236959Y-14668558D01*
X19251245Y-14597129D01*
X19265531Y-14554272D01*
X19279816Y-14525701D01*
X19308388Y-14482843D01*
X19322673Y-14468558D01*
X19422673Y-14539986D02*
X19436959Y-14525701D01*
X19465531Y-14511415D01*
X19536959Y-14511415D01*
X19565531Y-14525701D01*
X19579816Y-14539986D01*
X19594102Y-14568558D01*
X19594102Y-14597129D01*
X19579816Y-14639986D01*
X19408388Y-14811415D01*
X19594102Y-14811415D01*
X19951245Y-14811415D02*
X19951245Y-14511415D01*
X20079816Y-14811415D02*
X20079816Y-14654272D01*
X20065531Y-14625701D01*
X20036959Y-14611415D01*
X19994102Y-14611415D01*
X19965531Y-14625701D01*
X19951245Y-14639986D01*
X20265531Y-14811415D02*
X20236959Y-14797129D01*
X20222673Y-14782843D01*
X20208388Y-14754272D01*
X20208388Y-14668558D01*
X20222673Y-14639986D01*
X20236959Y-14625701D01*
X20265531Y-14611415D01*
X20308388Y-14611415D01*
X20336959Y-14625701D01*
X20351245Y-14639986D01*
X20365531Y-14668558D01*
X20365531Y-14754272D01*
X20351245Y-14782843D01*
X20336959Y-14797129D01*
X20308388Y-14811415D01*
X20265531Y-14811415D01*
X20536959Y-14811415D02*
X20508388Y-14797129D01*
X20494102Y-14768558D01*
X20494102Y-14511415D01*
X20765531Y-14797129D02*
X20736959Y-14811415D01*
X20679816Y-14811415D01*
X20651245Y-14797129D01*
X20636959Y-14768558D01*
X20636959Y-14654272D01*
X20651245Y-14625701D01*
X20679816Y-14611415D01*
X20736959Y-14611415D01*
X20765531Y-14625701D01*
X20779816Y-14654272D01*
X20779816Y-14682843D01*
X20636959Y-14711415D01*
X20894102Y-14797129D02*
X20922673Y-14811415D01*
X20979816Y-14811415D01*
X21008388Y-14797129D01*
X21022673Y-14768558D01*
X21022673Y-14754272D01*
X21008388Y-14725701D01*
X20979816Y-14711415D01*
X20936959Y-14711415D01*
X20908388Y-14697129D01*
X20894102Y-14668558D01*
X20894102Y-14654272D01*
X20908388Y-14625701D01*
X20936959Y-14611415D01*
X20979816Y-14611415D01*
X21008388Y-14625701D01*
X21122673Y-14925701D02*
X21136959Y-14911415D01*
X21165531Y-14868558D01*
X21179816Y-14839986D01*
X21194102Y-14797129D01*
X21208388Y-14725701D01*
X21208388Y-14668558D01*
X21194102Y-14597129D01*
X21179816Y-14554272D01*
X21165531Y-14525701D01*
X21136959Y-14482843D01*
X21122673Y-14468558D01*
X14595605Y-15031061D02*
X14595605Y-15112341D01*
X14554965Y-15071701D02*
X14636245Y-15071701D01*
X14979816Y-14907415D02*
X15008388Y-14907415D01*
X15036959Y-14921701D01*
X15051245Y-14935986D01*
X15065531Y-14964558D01*
X15079816Y-15021701D01*
X15079816Y-15093129D01*
X15065531Y-15150272D01*
X15051245Y-15178843D01*
X15036959Y-15193129D01*
X15008388Y-15207415D01*
X14979816Y-15207415D01*
X14951245Y-15193129D01*
X14936959Y-15178843D01*
X14922673Y-15150272D01*
X14908388Y-15093129D01*
X14908388Y-15021701D01*
X14922673Y-14964558D01*
X14936959Y-14935986D01*
X14951245Y-14921701D01*
X14979816Y-14907415D01*
X15208388Y-15178843D02*
X15222673Y-15193129D01*
X15208388Y-15207415D01*
X15194102Y-15193129D01*
X15208388Y-15178843D01*
X15208388Y-15207415D01*
X15394102Y-15035986D02*
X15365531Y-15021701D01*
X15351245Y-15007415D01*
X15336959Y-14978843D01*
X15336959Y-14964558D01*
X15351245Y-14935986D01*
X15365531Y-14921701D01*
X15394102Y-14907415D01*
X15451245Y-14907415D01*
X15479816Y-14921701D01*
X15494102Y-14935986D01*
X15508388Y-14964558D01*
X15508388Y-14978843D01*
X15494102Y-15007415D01*
X15479816Y-15021701D01*
X15451245Y-15035986D01*
X15394102Y-15035986D01*
X15365531Y-15050272D01*
X15351245Y-15064558D01*
X15336959Y-15093129D01*
X15336959Y-15150272D01*
X15351245Y-15178843D01*
X15365531Y-15193129D01*
X15394102Y-15207415D01*
X15451245Y-15207415D01*
X15479816Y-15193129D01*
X15494102Y-15178843D01*
X15508388Y-15150272D01*
X15508388Y-15093129D01*
X15494102Y-15064558D01*
X15479816Y-15050272D01*
X15451245Y-15035986D01*
X15794102Y-15207415D02*
X15622673Y-15207415D01*
X15708388Y-15207415D02*
X15708388Y-14907415D01*
X15679816Y-14950272D01*
X15651245Y-14978843D01*
X15622673Y-14993129D01*
X15922673Y-15207415D02*
X15922673Y-15007415D01*
X15922673Y-15035986D02*
X15936959Y-15021701D01*
X15965531Y-15007415D01*
X16008388Y-15007415D01*
X16036959Y-15021701D01*
X16051245Y-15050272D01*
X16051245Y-15207415D01*
X16051245Y-15050272D02*
X16065531Y-15021701D01*
X16094102Y-15007415D01*
X16136959Y-15007415D01*
X16165531Y-15021701D01*
X16179816Y-15050272D01*
X16179816Y-15207415D01*
X16322673Y-15207415D02*
X16322673Y-15007415D01*
X16322673Y-15035986D02*
X16336959Y-15021701D01*
X16365531Y-15007415D01*
X16408388Y-15007415D01*
X16436959Y-15021701D01*
X16451245Y-15050272D01*
X16451245Y-15207415D01*
X16451245Y-15050272D02*
X16465531Y-15021701D01*
X16494102Y-15007415D01*
X16536959Y-15007415D01*
X16565531Y-15021701D01*
X16579816Y-15050272D01*
X16579816Y-15207415D01*
X17165531Y-14893129D02*
X16908388Y-15278843D01*
X17551245Y-14907415D02*
X17579816Y-14907415D01*
X17608388Y-14921701D01*
X17622673Y-14935986D01*
X17636959Y-14964558D01*
X17651245Y-15021701D01*
X17651245Y-15093129D01*
X17636959Y-15150272D01*
X17622673Y-15178843D01*
X17608388Y-15193129D01*
X17579816Y-15207415D01*
X17551245Y-15207415D01*
X17522673Y-15193129D01*
X17508388Y-15178843D01*
X17494102Y-15150272D01*
X17479816Y-15093129D01*
X17479816Y-15021701D01*
X17494102Y-14964558D01*
X17508388Y-14935986D01*
X17522673Y-14921701D01*
X17551245Y-14907415D01*
X17779816Y-15178843D02*
X17794102Y-15193129D01*
X17779816Y-15207415D01*
X17765531Y-15193129D01*
X17779816Y-15178843D01*
X17779816Y-15207415D01*
X17979816Y-14907415D02*
X18008388Y-14907415D01*
X18036959Y-14921701D01*
X18051245Y-14935986D01*
X18065531Y-14964558D01*
X18079816Y-15021701D01*
X18079816Y-15093129D01*
X18065531Y-15150272D01*
X18051245Y-15178843D01*
X18036959Y-15193129D01*
X18008388Y-15207415D01*
X17979816Y-15207415D01*
X17951245Y-15193129D01*
X17936959Y-15178843D01*
X17922673Y-15150272D01*
X17908388Y-15093129D01*
X17908388Y-15021701D01*
X17922673Y-14964558D01*
X17936959Y-14935986D01*
X17951245Y-14921701D01*
X17979816Y-14907415D01*
X18179816Y-14907415D02*
X18365531Y-14907415D01*
X18265531Y-15021701D01*
X18308388Y-15021701D01*
X18336959Y-15035986D01*
X18351245Y-15050272D01*
X18365531Y-15078843D01*
X18365531Y-15150272D01*
X18351245Y-15178843D01*
X18336959Y-15193129D01*
X18308388Y-15207415D01*
X18222673Y-15207415D01*
X18194102Y-15193129D01*
X18179816Y-15178843D01*
X18479816Y-14935986D02*
X18494102Y-14921701D01*
X18522673Y-14907415D01*
X18594102Y-14907415D01*
X18622673Y-14921701D01*
X18636959Y-14935986D01*
X18651245Y-14964558D01*
X18651245Y-14993129D01*
X18636959Y-15035986D01*
X18465531Y-15207415D01*
X18651245Y-15207415D01*
X18765531Y-14907415D02*
X18765531Y-14964558D01*
X18879816Y-14907415D02*
X18879816Y-14964558D01*
X19322673Y-15321701D02*
X19308388Y-15307415D01*
X19279816Y-15264558D01*
X19265531Y-15235986D01*
X19251245Y-15193129D01*
X19236959Y-15121701D01*
X19236959Y-15064558D01*
X19251245Y-14993129D01*
X19265531Y-14950272D01*
X19279816Y-14921701D01*
X19308388Y-14878843D01*
X19322673Y-14864558D01*
X19565531Y-15007415D02*
X19565531Y-15207415D01*
X19494102Y-14893129D02*
X19422673Y-15107415D01*
X19608388Y-15107415D01*
X19765531Y-15035986D02*
X19736959Y-15021701D01*
X19722673Y-15007415D01*
X19708388Y-14978843D01*
X19708388Y-14964558D01*
X19722673Y-14935986D01*
X19736959Y-14921701D01*
X19765531Y-14907415D01*
X19822673Y-14907415D01*
X19851245Y-14921701D01*
X19865531Y-14935986D01*
X19879816Y-14964558D01*
X19879816Y-14978843D01*
X19865531Y-15007415D01*
X19851245Y-15021701D01*
X19822673Y-15035986D01*
X19765531Y-15035986D01*
X19736959Y-15050272D01*
X19722673Y-15064558D01*
X19708388Y-15093129D01*
X19708388Y-15150272D01*
X19722673Y-15178843D01*
X19736959Y-15193129D01*
X19765531Y-15207415D01*
X19822673Y-15207415D01*
X19851245Y-15193129D01*
X19865531Y-15178843D01*
X19879816Y-15150272D01*
X19879816Y-15093129D01*
X19865531Y-15064558D01*
X19851245Y-15050272D01*
X19822673Y-15035986D01*
X20236959Y-15207415D02*
X20236959Y-14907415D01*
X20365531Y-15207415D02*
X20365531Y-15050272D01*
X20351245Y-15021701D01*
X20322673Y-15007415D01*
X20279816Y-15007415D01*
X20251245Y-15021701D01*
X20236959Y-15035986D01*
X20551245Y-15207415D02*
X20522673Y-15193129D01*
X20508388Y-15178843D01*
X20494102Y-15150272D01*
X20494102Y-15064558D01*
X20508388Y-15035986D01*
X20522673Y-15021701D01*
X20551245Y-15007415D01*
X20594102Y-15007415D01*
X20622673Y-15021701D01*
X20636959Y-15035986D01*
X20651245Y-15064558D01*
X20651245Y-15150272D01*
X20636959Y-15178843D01*
X20622673Y-15193129D01*
X20594102Y-15207415D01*
X20551245Y-15207415D01*
X20822673Y-15207415D02*
X20794102Y-15193129D01*
X20779816Y-15164558D01*
X20779816Y-14907415D01*
X21051245Y-15193129D02*
X21022673Y-15207415D01*
X20965531Y-15207415D01*
X20936959Y-15193129D01*
X20922673Y-15164558D01*
X20922673Y-15050272D01*
X20936959Y-15021701D01*
X20965531Y-15007415D01*
X21022673Y-15007415D01*
X21051245Y-15021701D01*
X21065531Y-15050272D01*
X21065531Y-15078843D01*
X20922673Y-15107415D01*
X21179816Y-15193129D02*
X21208388Y-15207415D01*
X21265531Y-15207415D01*
X21294102Y-15193129D01*
X21308388Y-15164558D01*
X21308388Y-15150272D01*
X21294102Y-15121701D01*
X21265531Y-15107415D01*
X21222673Y-15107415D01*
X21194102Y-15093129D01*
X21179816Y-15064558D01*
X21179816Y-15050272D01*
X21194102Y-15021701D01*
X21222673Y-15007415D01*
X21265531Y-15007415D01*
X21294102Y-15021701D01*
X21408388Y-15321701D02*
X21422673Y-15307415D01*
X21451245Y-15264558D01*
X21465531Y-15235986D01*
X21479816Y-15193129D01*
X21494102Y-15121701D01*
X21494102Y-15064558D01*
X21479816Y-14993129D01*
X21465531Y-14950272D01*
X21451245Y-14921701D01*
X21422673Y-14878843D01*
X21408388Y-14864558D01*
X14621601Y-15503056D02*
X14621601Y-15432345D01*
X14550889Y-15432345D01*
X14550889Y-15503056D01*
X14621601Y-15503056D01*
X15079816Y-15603415D02*
X14908388Y-15603415D01*
X14994102Y-15603415D02*
X14994102Y-15303415D01*
X14965531Y-15346272D01*
X14936959Y-15374843D01*
X14908388Y-15389129D01*
X15208388Y-15574843D02*
X15222673Y-15589129D01*
X15208388Y-15603415D01*
X15194102Y-15589129D01*
X15208388Y-15574843D01*
X15208388Y-15603415D01*
X15408388Y-15303415D02*
X15436959Y-15303415D01*
X15465531Y-15317701D01*
X15479816Y-15331986D01*
X15494102Y-15360558D01*
X15508388Y-15417701D01*
X15508388Y-15489129D01*
X15494102Y-15546272D01*
X15479816Y-15574843D01*
X15465531Y-15589129D01*
X15436959Y-15603415D01*
X15408388Y-15603415D01*
X15379816Y-15589129D01*
X15365531Y-15574843D01*
X15351245Y-15546272D01*
X15336959Y-15489129D01*
X15336959Y-15417701D01*
X15351245Y-15360558D01*
X15365531Y-15331986D01*
X15379816Y-15317701D01*
X15408388Y-15303415D01*
X15694102Y-15303415D02*
X15722673Y-15303415D01*
X15751245Y-15317701D01*
X15765531Y-15331986D01*
X15779816Y-15360558D01*
X15794102Y-15417701D01*
X15794102Y-15489129D01*
X15779816Y-15546272D01*
X15765531Y-15574843D01*
X15751245Y-15589129D01*
X15722673Y-15603415D01*
X15694102Y-15603415D01*
X15665531Y-15589129D01*
X15651245Y-15574843D01*
X15636959Y-15546272D01*
X15622673Y-15489129D01*
X15622673Y-15417701D01*
X15636959Y-15360558D01*
X15651245Y-15331986D01*
X15665531Y-15317701D01*
X15694102Y-15303415D01*
X15922673Y-15603415D02*
X15922673Y-15403415D01*
X15922673Y-15431986D02*
X15936959Y-15417701D01*
X15965531Y-15403415D01*
X16008388Y-15403415D01*
X16036959Y-15417701D01*
X16051245Y-15446272D01*
X16051245Y-15603415D01*
X16051245Y-15446272D02*
X16065531Y-15417701D01*
X16094102Y-15403415D01*
X16136959Y-15403415D01*
X16165531Y-15417701D01*
X16179816Y-15446272D01*
X16179816Y-15603415D01*
X16322673Y-15603415D02*
X16322673Y-15403415D01*
X16322673Y-15431986D02*
X16336959Y-15417701D01*
X16365531Y-15403415D01*
X16408388Y-15403415D01*
X16436959Y-15417701D01*
X16451245Y-15446272D01*
X16451245Y-15603415D01*
X16451245Y-15446272D02*
X16465531Y-15417701D01*
X16494102Y-15403415D01*
X16536959Y-15403415D01*
X16565531Y-15417701D01*
X16579816Y-15446272D01*
X16579816Y-15603415D01*
X17165531Y-15289129D02*
X16908388Y-15674843D01*
X17551245Y-15303415D02*
X17579816Y-15303415D01*
X17608388Y-15317701D01*
X17622673Y-15331986D01*
X17636959Y-15360558D01*
X17651245Y-15417701D01*
X17651245Y-15489129D01*
X17636959Y-15546272D01*
X17622673Y-15574843D01*
X17608388Y-15589129D01*
X17579816Y-15603415D01*
X17551245Y-15603415D01*
X17522673Y-15589129D01*
X17508388Y-15574843D01*
X17494102Y-15546272D01*
X17479816Y-15489129D01*
X17479816Y-15417701D01*
X17494102Y-15360558D01*
X17508388Y-15331986D01*
X17522673Y-15317701D01*
X17551245Y-15303415D01*
X17779816Y-15574843D02*
X17794102Y-15589129D01*
X17779816Y-15603415D01*
X17765531Y-15589129D01*
X17779816Y-15574843D01*
X17779816Y-15603415D01*
X17979816Y-15303415D02*
X18008388Y-15303415D01*
X18036959Y-15317701D01*
X18051245Y-15331986D01*
X18065531Y-15360558D01*
X18079816Y-15417701D01*
X18079816Y-15489129D01*
X18065531Y-15546272D01*
X18051245Y-15574843D01*
X18036959Y-15589129D01*
X18008388Y-15603415D01*
X17979816Y-15603415D01*
X17951245Y-15589129D01*
X17936959Y-15574843D01*
X17922673Y-15546272D01*
X17908388Y-15489129D01*
X17908388Y-15417701D01*
X17922673Y-15360558D01*
X17936959Y-15331986D01*
X17951245Y-15317701D01*
X17979816Y-15303415D01*
X18179816Y-15303415D02*
X18365531Y-15303415D01*
X18265531Y-15417701D01*
X18308388Y-15417701D01*
X18336959Y-15431986D01*
X18351245Y-15446272D01*
X18365531Y-15474843D01*
X18365531Y-15546272D01*
X18351245Y-15574843D01*
X18336959Y-15589129D01*
X18308388Y-15603415D01*
X18222673Y-15603415D01*
X18194102Y-15589129D01*
X18179816Y-15574843D01*
X18508388Y-15603415D02*
X18565531Y-15603415D01*
X18594102Y-15589129D01*
X18608388Y-15574843D01*
X18636959Y-15531986D01*
X18651245Y-15474843D01*
X18651245Y-15360558D01*
X18636959Y-15331986D01*
X18622673Y-15317701D01*
X18594102Y-15303415D01*
X18536959Y-15303415D01*
X18508388Y-15317701D01*
X18494102Y-15331986D01*
X18479816Y-15360558D01*
X18479816Y-15431986D01*
X18494102Y-15460558D01*
X18508388Y-15474843D01*
X18536959Y-15489129D01*
X18594102Y-15489129D01*
X18622673Y-15474843D01*
X18636959Y-15460558D01*
X18651245Y-15431986D01*
X18765531Y-15303415D02*
X18765531Y-15360558D01*
X18879816Y-15303415D02*
X18879816Y-15360558D01*
X19322673Y-15717701D02*
X19308388Y-15703415D01*
X19279816Y-15660558D01*
X19265531Y-15631986D01*
X19251245Y-15589129D01*
X19236959Y-15517701D01*
X19236959Y-15460558D01*
X19251245Y-15389129D01*
X19265531Y-15346272D01*
X19279816Y-15317701D01*
X19308388Y-15274843D01*
X19322673Y-15260558D01*
X19408388Y-15303415D02*
X19594102Y-15303415D01*
X19494102Y-15417701D01*
X19536959Y-15417701D01*
X19565531Y-15431986D01*
X19579816Y-15446272D01*
X19594102Y-15474843D01*
X19594102Y-15546272D01*
X19579816Y-15574843D01*
X19565531Y-15589129D01*
X19536959Y-15603415D01*
X19451245Y-15603415D01*
X19422673Y-15589129D01*
X19408388Y-15574843D01*
X19708388Y-15331986D02*
X19722673Y-15317701D01*
X19751245Y-15303415D01*
X19822673Y-15303415D01*
X19851245Y-15317701D01*
X19865531Y-15331986D01*
X19879816Y-15360558D01*
X19879816Y-15389129D01*
X19865531Y-15431986D01*
X19694102Y-15603415D01*
X19879816Y-15603415D01*
X20236959Y-15603415D02*
X20236959Y-15303415D01*
X20365531Y-15603415D02*
X20365531Y-15446272D01*
X20351245Y-15417701D01*
X20322673Y-15403415D01*
X20279816Y-15403415D01*
X20251245Y-15417701D01*
X20236959Y-15431986D01*
X20551245Y-15603415D02*
X20522673Y-15589129D01*
X20508388Y-15574843D01*
X20494102Y-15546272D01*
X20494102Y-15460558D01*
X20508388Y-15431986D01*
X20522673Y-15417701D01*
X20551245Y-15403415D01*
X20594102Y-15403415D01*
X20622673Y-15417701D01*
X20636959Y-15431986D01*
X20651245Y-15460558D01*
X20651245Y-15546272D01*
X20636959Y-15574843D01*
X20622673Y-15589129D01*
X20594102Y-15603415D01*
X20551245Y-15603415D01*
X20822673Y-15603415D02*
X20794102Y-15589129D01*
X20779816Y-15560558D01*
X20779816Y-15303415D01*
X21051245Y-15589129D02*
X21022673Y-15603415D01*
X20965531Y-15603415D01*
X20936959Y-15589129D01*
X20922673Y-15560558D01*
X20922673Y-15446272D01*
X20936959Y-15417701D01*
X20965531Y-15403415D01*
X21022673Y-15403415D01*
X21051245Y-15417701D01*
X21065531Y-15446272D01*
X21065531Y-15474843D01*
X20922673Y-15503415D01*
X21179816Y-15589129D02*
X21208388Y-15603415D01*
X21265531Y-15603415D01*
X21294102Y-15589129D01*
X21308388Y-15560558D01*
X21308388Y-15546272D01*
X21294102Y-15517701D01*
X21265531Y-15503415D01*
X21222673Y-15503415D01*
X21194102Y-15489129D01*
X21179816Y-15460558D01*
X21179816Y-15446272D01*
X21194102Y-15417701D01*
X21222673Y-15403415D01*
X21265531Y-15403415D01*
X21294102Y-15417701D01*
X21408388Y-15717701D02*
X21422673Y-15703415D01*
X21451245Y-15660558D01*
X21465531Y-15631986D01*
X21479816Y-15589129D01*
X21494102Y-15517701D01*
X21494102Y-15460558D01*
X21479816Y-15389129D01*
X21465531Y-15346272D01*
X21451245Y-15317701D01*
X21422673Y-15274843D01*
X21408388Y-15260558D01*
X14576245Y-15923701D02*
X14636245Y-15863701D01*
X14576245Y-15803701D01*
X14516245Y-15863701D01*
X14576245Y-15923701D01*
X15079816Y-15999415D02*
X14908388Y-15999415D01*
X14994102Y-15999415D02*
X14994102Y-15699415D01*
X14965531Y-15742272D01*
X14936959Y-15770843D01*
X14908388Y-15785129D01*
X15208388Y-15970843D02*
X15222673Y-15985129D01*
X15208388Y-15999415D01*
X15194102Y-15985129D01*
X15208388Y-15970843D01*
X15208388Y-15999415D01*
X15336959Y-15727986D02*
X15351245Y-15713701D01*
X15379816Y-15699415D01*
X15451245Y-15699415D01*
X15479816Y-15713701D01*
X15494102Y-15727986D01*
X15508388Y-15756558D01*
X15508388Y-15785129D01*
X15494102Y-15827986D01*
X15322673Y-15999415D01*
X15508388Y-15999415D01*
X15694102Y-15699415D02*
X15722673Y-15699415D01*
X15751245Y-15713701D01*
X15765531Y-15727986D01*
X15779816Y-15756558D01*
X15794102Y-15813701D01*
X15794102Y-15885129D01*
X15779816Y-15942272D01*
X15765531Y-15970843D01*
X15751245Y-15985129D01*
X15722673Y-15999415D01*
X15694102Y-15999415D01*
X15665531Y-15985129D01*
X15651245Y-15970843D01*
X15636959Y-15942272D01*
X15622673Y-15885129D01*
X15622673Y-15813701D01*
X15636959Y-15756558D01*
X15651245Y-15727986D01*
X15665531Y-15713701D01*
X15694102Y-15699415D01*
X15922673Y-15999415D02*
X15922673Y-15799415D01*
X15922673Y-15827986D02*
X15936959Y-15813701D01*
X15965531Y-15799415D01*
X16008388Y-15799415D01*
X16036959Y-15813701D01*
X16051245Y-15842272D01*
X16051245Y-15999415D01*
X16051245Y-15842272D02*
X16065531Y-15813701D01*
X16094102Y-15799415D01*
X16136959Y-15799415D01*
X16165531Y-15813701D01*
X16179816Y-15842272D01*
X16179816Y-15999415D01*
X16322673Y-15999415D02*
X16322673Y-15799415D01*
X16322673Y-15827986D02*
X16336959Y-15813701D01*
X16365531Y-15799415D01*
X16408388Y-15799415D01*
X16436959Y-15813701D01*
X16451245Y-15842272D01*
X16451245Y-15999415D01*
X16451245Y-15842272D02*
X16465531Y-15813701D01*
X16494102Y-15799415D01*
X16536959Y-15799415D01*
X16565531Y-15813701D01*
X16579816Y-15842272D01*
X16579816Y-15999415D01*
X17165531Y-15685129D02*
X16908388Y-16070843D01*
X17551245Y-15699415D02*
X17579816Y-15699415D01*
X17608388Y-15713701D01*
X17622673Y-15727986D01*
X17636959Y-15756558D01*
X17651245Y-15813701D01*
X17651245Y-15885129D01*
X17636959Y-15942272D01*
X17622673Y-15970843D01*
X17608388Y-15985129D01*
X17579816Y-15999415D01*
X17551245Y-15999415D01*
X17522673Y-15985129D01*
X17508388Y-15970843D01*
X17494102Y-15942272D01*
X17479816Y-15885129D01*
X17479816Y-15813701D01*
X17494102Y-15756558D01*
X17508388Y-15727986D01*
X17522673Y-15713701D01*
X17551245Y-15699415D01*
X17779816Y-15970843D02*
X17794102Y-15985129D01*
X17779816Y-15999415D01*
X17765531Y-15985129D01*
X17779816Y-15970843D01*
X17779816Y-15999415D01*
X17979816Y-15699415D02*
X18008388Y-15699415D01*
X18036959Y-15713701D01*
X18051245Y-15727986D01*
X18065531Y-15756558D01*
X18079816Y-15813701D01*
X18079816Y-15885129D01*
X18065531Y-15942272D01*
X18051245Y-15970843D01*
X18036959Y-15985129D01*
X18008388Y-15999415D01*
X17979816Y-15999415D01*
X17951245Y-15985129D01*
X17936959Y-15970843D01*
X17922673Y-15942272D01*
X17908388Y-15885129D01*
X17908388Y-15813701D01*
X17922673Y-15756558D01*
X17936959Y-15727986D01*
X17951245Y-15713701D01*
X17979816Y-15699415D01*
X18336959Y-15799415D02*
X18336959Y-15999415D01*
X18265531Y-15685129D02*
X18194102Y-15899415D01*
X18379816Y-15899415D01*
X18465531Y-15699415D02*
X18665531Y-15699415D01*
X18536959Y-15999415D01*
X18765531Y-15699415D02*
X18765531Y-15756558D01*
X18879816Y-15699415D02*
X18879816Y-15756558D01*
X19322673Y-16113701D02*
X19308388Y-16099415D01*
X19279816Y-16056558D01*
X19265531Y-16027986D01*
X19251245Y-15985129D01*
X19236959Y-15913701D01*
X19236959Y-15856558D01*
X19251245Y-15785129D01*
X19265531Y-15742272D01*
X19279816Y-15713701D01*
X19308388Y-15670843D01*
X19322673Y-15656558D01*
X19565531Y-15699415D02*
X19508388Y-15699415D01*
X19479816Y-15713701D01*
X19465531Y-15727986D01*
X19436959Y-15770843D01*
X19422673Y-15827986D01*
X19422673Y-15942272D01*
X19436959Y-15970843D01*
X19451245Y-15985129D01*
X19479816Y-15999415D01*
X19536959Y-15999415D01*
X19565531Y-15985129D01*
X19579816Y-15970843D01*
X19594102Y-15942272D01*
X19594102Y-15870843D01*
X19579816Y-15842272D01*
X19565531Y-15827986D01*
X19536959Y-15813701D01*
X19479816Y-15813701D01*
X19451245Y-15827986D01*
X19436959Y-15842272D01*
X19422673Y-15870843D01*
X19851245Y-15799415D02*
X19851245Y-15999415D01*
X19779816Y-15685129D02*
X19708388Y-15899415D01*
X19894102Y-15899415D01*
X20236959Y-15999415D02*
X20236959Y-15699415D01*
X20365531Y-15999415D02*
X20365531Y-15842272D01*
X20351245Y-15813701D01*
X20322673Y-15799415D01*
X20279816Y-15799415D01*
X20251245Y-15813701D01*
X20236959Y-15827986D01*
X20551245Y-15999415D02*
X20522673Y-15985129D01*
X20508388Y-15970843D01*
X20494102Y-15942272D01*
X20494102Y-15856558D01*
X20508388Y-15827986D01*
X20522673Y-15813701D01*
X20551245Y-15799415D01*
X20594102Y-15799415D01*
X20622673Y-15813701D01*
X20636959Y-15827986D01*
X20651245Y-15856558D01*
X20651245Y-15942272D01*
X20636959Y-15970843D01*
X20622673Y-15985129D01*
X20594102Y-15999415D01*
X20551245Y-15999415D01*
X20822673Y-15999415D02*
X20794102Y-15985129D01*
X20779816Y-15956558D01*
X20779816Y-15699415D01*
X21051245Y-15985129D02*
X21022673Y-15999415D01*
X20965531Y-15999415D01*
X20936959Y-15985129D01*
X20922673Y-15956558D01*
X20922673Y-15842272D01*
X20936959Y-15813701D01*
X20965531Y-15799415D01*
X21022673Y-15799415D01*
X21051245Y-15813701D01*
X21065531Y-15842272D01*
X21065531Y-15870843D01*
X20922673Y-15899415D01*
X21179816Y-15985129D02*
X21208388Y-15999415D01*
X21265531Y-15999415D01*
X21294102Y-15985129D01*
X21308388Y-15956558D01*
X21308388Y-15942272D01*
X21294102Y-15913701D01*
X21265531Y-15899415D01*
X21222673Y-15899415D01*
X21194102Y-15885129D01*
X21179816Y-15856558D01*
X21179816Y-15842272D01*
X21194102Y-15813701D01*
X21222673Y-15799415D01*
X21265531Y-15799415D01*
X21294102Y-15813701D01*
X21408388Y-16113701D02*
X21422673Y-16099415D01*
X21451245Y-16056558D01*
X21465531Y-16027986D01*
X21479816Y-15985129D01*
X21494102Y-15913701D01*
X21494102Y-15856558D01*
X21479816Y-15785129D01*
X21465531Y-15742272D01*
X21451245Y-15713701D01*
X21422673Y-15670843D01*
X21408388Y-15656558D01*
X14489245Y-16186201D02*
X14636245Y-16333201D01*
X14636245Y-16186201D02*
X14489245Y-16333201D01*
X14636245Y-16259701D02*
G75*
G03*
X14636245Y-16259701I-73500J0D01*
G01*
X15079816Y-16395415D02*
X14908388Y-16395415D01*
X14994102Y-16395415D02*
X14994102Y-16095415D01*
X14965531Y-16138272D01*
X14936959Y-16166843D01*
X14908388Y-16181129D01*
X15208388Y-16366843D02*
X15222673Y-16381129D01*
X15208388Y-16395415D01*
X15194102Y-16381129D01*
X15208388Y-16366843D01*
X15208388Y-16395415D01*
X15479816Y-16195415D02*
X15479816Y-16395415D01*
X15408388Y-16081129D02*
X15336959Y-16295415D01*
X15522673Y-16295415D01*
X15608388Y-16095415D02*
X15808388Y-16095415D01*
X15679816Y-16395415D01*
X15922673Y-16395415D02*
X15922673Y-16195415D01*
X15922673Y-16223986D02*
X15936959Y-16209701D01*
X15965531Y-16195415D01*
X16008388Y-16195415D01*
X16036959Y-16209701D01*
X16051245Y-16238272D01*
X16051245Y-16395415D01*
X16051245Y-16238272D02*
X16065531Y-16209701D01*
X16094102Y-16195415D01*
X16136959Y-16195415D01*
X16165531Y-16209701D01*
X16179816Y-16238272D01*
X16179816Y-16395415D01*
X16322673Y-16395415D02*
X16322673Y-16195415D01*
X16322673Y-16223986D02*
X16336959Y-16209701D01*
X16365531Y-16195415D01*
X16408388Y-16195415D01*
X16436959Y-16209701D01*
X16451245Y-16238272D01*
X16451245Y-16395415D01*
X16451245Y-16238272D02*
X16465531Y-16209701D01*
X16494102Y-16195415D01*
X16536959Y-16195415D01*
X16565531Y-16209701D01*
X16579816Y-16238272D01*
X16579816Y-16395415D01*
X17165531Y-16081129D02*
X16908388Y-16466843D01*
X17551245Y-16095415D02*
X17579816Y-16095415D01*
X17608388Y-16109701D01*
X17622673Y-16123986D01*
X17636959Y-16152558D01*
X17651245Y-16209701D01*
X17651245Y-16281129D01*
X17636959Y-16338272D01*
X17622673Y-16366843D01*
X17608388Y-16381129D01*
X17579816Y-16395415D01*
X17551245Y-16395415D01*
X17522673Y-16381129D01*
X17508388Y-16366843D01*
X17494102Y-16338272D01*
X17479816Y-16281129D01*
X17479816Y-16209701D01*
X17494102Y-16152558D01*
X17508388Y-16123986D01*
X17522673Y-16109701D01*
X17551245Y-16095415D01*
X17779816Y-16366843D02*
X17794102Y-16381129D01*
X17779816Y-16395415D01*
X17765531Y-16381129D01*
X17779816Y-16366843D01*
X17779816Y-16395415D01*
X17979816Y-16095415D02*
X18008388Y-16095415D01*
X18036959Y-16109701D01*
X18051245Y-16123986D01*
X18065531Y-16152558D01*
X18079816Y-16209701D01*
X18079816Y-16281129D01*
X18065531Y-16338272D01*
X18051245Y-16366843D01*
X18036959Y-16381129D01*
X18008388Y-16395415D01*
X17979816Y-16395415D01*
X17951245Y-16381129D01*
X17936959Y-16366843D01*
X17922673Y-16338272D01*
X17908388Y-16281129D01*
X17908388Y-16209701D01*
X17922673Y-16152558D01*
X17936959Y-16123986D01*
X17951245Y-16109701D01*
X17979816Y-16095415D01*
X18351245Y-16095415D02*
X18208388Y-16095415D01*
X18194102Y-16238272D01*
X18208388Y-16223986D01*
X18236959Y-16209701D01*
X18308388Y-16209701D01*
X18336959Y-16223986D01*
X18351245Y-16238272D01*
X18365531Y-16266843D01*
X18365531Y-16338272D01*
X18351245Y-16366843D01*
X18336959Y-16381129D01*
X18308388Y-16395415D01*
X18236959Y-16395415D01*
X18208388Y-16381129D01*
X18194102Y-16366843D01*
X18536959Y-16223986D02*
X18508388Y-16209701D01*
X18494102Y-16195415D01*
X18479816Y-16166843D01*
X18479816Y-16152558D01*
X18494102Y-16123986D01*
X18508388Y-16109701D01*
X18536959Y-16095415D01*
X18594102Y-16095415D01*
X18622673Y-16109701D01*
X18636959Y-16123986D01*
X18651245Y-16152558D01*
X18651245Y-16166843D01*
X18636959Y-16195415D01*
X18622673Y-16209701D01*
X18594102Y-16223986D01*
X18536959Y-16223986D01*
X18508388Y-16238272D01*
X18494102Y-16252558D01*
X18479816Y-16281129D01*
X18479816Y-16338272D01*
X18494102Y-16366843D01*
X18508388Y-16381129D01*
X18536959Y-16395415D01*
X18594102Y-16395415D01*
X18622673Y-16381129D01*
X18636959Y-16366843D01*
X18651245Y-16338272D01*
X18651245Y-16281129D01*
X18636959Y-16252558D01*
X18622673Y-16238272D01*
X18594102Y-16223986D01*
X18765531Y-16095415D02*
X18765531Y-16152558D01*
X18879816Y-16095415D02*
X18879816Y-16152558D01*
X19322673Y-16509701D02*
X19308388Y-16495415D01*
X19279816Y-16452558D01*
X19265531Y-16423986D01*
X19251245Y-16381129D01*
X19236959Y-16309701D01*
X19236959Y-16252558D01*
X19251245Y-16181129D01*
X19265531Y-16138272D01*
X19279816Y-16109701D01*
X19308388Y-16066843D01*
X19322673Y-16052558D01*
X19594102Y-16395415D02*
X19422673Y-16395415D01*
X19508388Y-16395415D02*
X19508388Y-16095415D01*
X19479816Y-16138272D01*
X19451245Y-16166843D01*
X19422673Y-16181129D01*
X19708388Y-16123986D02*
X19722673Y-16109701D01*
X19751245Y-16095415D01*
X19822673Y-16095415D01*
X19851245Y-16109701D01*
X19865531Y-16123986D01*
X19879816Y-16152558D01*
X19879816Y-16181129D01*
X19865531Y-16223986D01*
X19694102Y-16395415D01*
X19879816Y-16395415D01*
X20051245Y-16223986D02*
X20022673Y-16209701D01*
X20008388Y-16195415D01*
X19994102Y-16166843D01*
X19994102Y-16152558D01*
X20008388Y-16123986D01*
X20022673Y-16109701D01*
X20051245Y-16095415D01*
X20108388Y-16095415D01*
X20136959Y-16109701D01*
X20151245Y-16123986D01*
X20165531Y-16152558D01*
X20165531Y-16166843D01*
X20151245Y-16195415D01*
X20136959Y-16209701D01*
X20108388Y-16223986D01*
X20051245Y-16223986D01*
X20022673Y-16238272D01*
X20008388Y-16252558D01*
X19994102Y-16281129D01*
X19994102Y-16338272D01*
X20008388Y-16366843D01*
X20022673Y-16381129D01*
X20051245Y-16395415D01*
X20108388Y-16395415D01*
X20136959Y-16381129D01*
X20151245Y-16366843D01*
X20165531Y-16338272D01*
X20165531Y-16281129D01*
X20151245Y-16252558D01*
X20136959Y-16238272D01*
X20108388Y-16223986D01*
X20522673Y-16395415D02*
X20522673Y-16095415D01*
X20651245Y-16395415D02*
X20651245Y-16238272D01*
X20636959Y-16209701D01*
X20608388Y-16195415D01*
X20565531Y-16195415D01*
X20536959Y-16209701D01*
X20522673Y-16223986D01*
X20836959Y-16395415D02*
X20808388Y-16381129D01*
X20794102Y-16366843D01*
X20779816Y-16338272D01*
X20779816Y-16252558D01*
X20794102Y-16223986D01*
X20808388Y-16209701D01*
X20836959Y-16195415D01*
X20879816Y-16195415D01*
X20908388Y-16209701D01*
X20922673Y-16223986D01*
X20936959Y-16252558D01*
X20936959Y-16338272D01*
X20922673Y-16366843D01*
X20908388Y-16381129D01*
X20879816Y-16395415D01*
X20836959Y-16395415D01*
X21108388Y-16395415D02*
X21079816Y-16381129D01*
X21065531Y-16352558D01*
X21065531Y-16095415D01*
X21336959Y-16381129D02*
X21308388Y-16395415D01*
X21251245Y-16395415D01*
X21222673Y-16381129D01*
X21208388Y-16352558D01*
X21208388Y-16238272D01*
X21222673Y-16209701D01*
X21251245Y-16195415D01*
X21308388Y-16195415D01*
X21336959Y-16209701D01*
X21351245Y-16238272D01*
X21351245Y-16266843D01*
X21208388Y-16295415D01*
X21465531Y-16381129D02*
X21494102Y-16395415D01*
X21551245Y-16395415D01*
X21579816Y-16381129D01*
X21594102Y-16352558D01*
X21594102Y-16338272D01*
X21579816Y-16309701D01*
X21551245Y-16295415D01*
X21508388Y-16295415D01*
X21479816Y-16281129D01*
X21465531Y-16252558D01*
X21465531Y-16238272D01*
X21479816Y-16209701D01*
X21508388Y-16195415D01*
X21551245Y-16195415D01*
X21579816Y-16209701D01*
X21694102Y-16509701D02*
X21708388Y-16495415D01*
X21736959Y-16452558D01*
X21751245Y-16423986D01*
X21765531Y-16381129D01*
X21779816Y-16309701D01*
X21779816Y-16252558D01*
X21765531Y-16181129D01*
X21751245Y-16138272D01*
X21736959Y-16109701D01*
X21708388Y-16066843D01*
X21694102Y-16052558D01*
X14486245Y-16580701D02*
X14636245Y-16730701D01*
X14636245Y-16580701D02*
X14486245Y-16730701D01*
X14561245Y-16580701D02*
X14561245Y-16730701D01*
X14486245Y-16655701D02*
X14636245Y-16655701D01*
X15079816Y-16791415D02*
X14908388Y-16791415D01*
X14994102Y-16791415D02*
X14994102Y-16491415D01*
X14965531Y-16534272D01*
X14936959Y-16562843D01*
X14908388Y-16577129D01*
X15208388Y-16762843D02*
X15222673Y-16777129D01*
X15208388Y-16791415D01*
X15194102Y-16777129D01*
X15208388Y-16762843D01*
X15208388Y-16791415D01*
X15494102Y-16491415D02*
X15351245Y-16491415D01*
X15336959Y-16634272D01*
X15351245Y-16619986D01*
X15379816Y-16605701D01*
X15451245Y-16605701D01*
X15479816Y-16619986D01*
X15494102Y-16634272D01*
X15508388Y-16662843D01*
X15508388Y-16734272D01*
X15494102Y-16762843D01*
X15479816Y-16777129D01*
X15451245Y-16791415D01*
X15379816Y-16791415D01*
X15351245Y-16777129D01*
X15336959Y-16762843D01*
X15694102Y-16491415D02*
X15722673Y-16491415D01*
X15751245Y-16505701D01*
X15765531Y-16519986D01*
X15779816Y-16548558D01*
X15794102Y-16605701D01*
X15794102Y-16677129D01*
X15779816Y-16734272D01*
X15765531Y-16762843D01*
X15751245Y-16777129D01*
X15722673Y-16791415D01*
X15694102Y-16791415D01*
X15665531Y-16777129D01*
X15651245Y-16762843D01*
X15636959Y-16734272D01*
X15622673Y-16677129D01*
X15622673Y-16605701D01*
X15636959Y-16548558D01*
X15651245Y-16519986D01*
X15665531Y-16505701D01*
X15694102Y-16491415D01*
X15922673Y-16791415D02*
X15922673Y-16591415D01*
X15922673Y-16619986D02*
X15936959Y-16605701D01*
X15965531Y-16591415D01*
X16008388Y-16591415D01*
X16036959Y-16605701D01*
X16051245Y-16634272D01*
X16051245Y-16791415D01*
X16051245Y-16634272D02*
X16065531Y-16605701D01*
X16094102Y-16591415D01*
X16136959Y-16591415D01*
X16165531Y-16605701D01*
X16179816Y-16634272D01*
X16179816Y-16791415D01*
X16322673Y-16791415D02*
X16322673Y-16591415D01*
X16322673Y-16619986D02*
X16336959Y-16605701D01*
X16365531Y-16591415D01*
X16408388Y-16591415D01*
X16436959Y-16605701D01*
X16451245Y-16634272D01*
X16451245Y-16791415D01*
X16451245Y-16634272D02*
X16465531Y-16605701D01*
X16494102Y-16591415D01*
X16536959Y-16591415D01*
X16565531Y-16605701D01*
X16579816Y-16634272D01*
X16579816Y-16791415D01*
X17165531Y-16477129D02*
X16908388Y-16862843D01*
X17551245Y-16491415D02*
X17579816Y-16491415D01*
X17608388Y-16505701D01*
X17622673Y-16519986D01*
X17636959Y-16548558D01*
X17651245Y-16605701D01*
X17651245Y-16677129D01*
X17636959Y-16734272D01*
X17622673Y-16762843D01*
X17608388Y-16777129D01*
X17579816Y-16791415D01*
X17551245Y-16791415D01*
X17522673Y-16777129D01*
X17508388Y-16762843D01*
X17494102Y-16734272D01*
X17479816Y-16677129D01*
X17479816Y-16605701D01*
X17494102Y-16548558D01*
X17508388Y-16519986D01*
X17522673Y-16505701D01*
X17551245Y-16491415D01*
X17779816Y-16762843D02*
X17794102Y-16777129D01*
X17779816Y-16791415D01*
X17765531Y-16777129D01*
X17779816Y-16762843D01*
X17779816Y-16791415D01*
X17979816Y-16491415D02*
X18008388Y-16491415D01*
X18036959Y-16505701D01*
X18051245Y-16519986D01*
X18065531Y-16548558D01*
X18079816Y-16605701D01*
X18079816Y-16677129D01*
X18065531Y-16734272D01*
X18051245Y-16762843D01*
X18036959Y-16777129D01*
X18008388Y-16791415D01*
X17979816Y-16791415D01*
X17951245Y-16777129D01*
X17936959Y-16762843D01*
X17922673Y-16734272D01*
X17908388Y-16677129D01*
X17908388Y-16605701D01*
X17922673Y-16548558D01*
X17936959Y-16519986D01*
X17951245Y-16505701D01*
X17979816Y-16491415D01*
X18351245Y-16491415D02*
X18208388Y-16491415D01*
X18194102Y-16634272D01*
X18208388Y-16619986D01*
X18236959Y-16605701D01*
X18308388Y-16605701D01*
X18336959Y-16619986D01*
X18351245Y-16634272D01*
X18365531Y-16662843D01*
X18365531Y-16734272D01*
X18351245Y-16762843D01*
X18336959Y-16777129D01*
X18308388Y-16791415D01*
X18236959Y-16791415D01*
X18208388Y-16777129D01*
X18194102Y-16762843D01*
X18508388Y-16791415D02*
X18565531Y-16791415D01*
X18594102Y-16777129D01*
X18608388Y-16762843D01*
X18636959Y-16719986D01*
X18651245Y-16662843D01*
X18651245Y-16548558D01*
X18636959Y-16519986D01*
X18622673Y-16505701D01*
X18594102Y-16491415D01*
X18536959Y-16491415D01*
X18508388Y-16505701D01*
X18494102Y-16519986D01*
X18479816Y-16548558D01*
X18479816Y-16619986D01*
X18494102Y-16648558D01*
X18508388Y-16662843D01*
X18536959Y-16677129D01*
X18594102Y-16677129D01*
X18622673Y-16662843D01*
X18636959Y-16648558D01*
X18651245Y-16619986D01*
X18765531Y-16491415D02*
X18765531Y-16548558D01*
X18879816Y-16491415D02*
X18879816Y-16548558D01*
X19322673Y-16905701D02*
X19308388Y-16891415D01*
X19279816Y-16848558D01*
X19265531Y-16819986D01*
X19251245Y-16777129D01*
X19236959Y-16705701D01*
X19236959Y-16648558D01*
X19251245Y-16577129D01*
X19265531Y-16534272D01*
X19279816Y-16505701D01*
X19308388Y-16462843D01*
X19322673Y-16448558D01*
X19422673Y-16519986D02*
X19436959Y-16505701D01*
X19465531Y-16491415D01*
X19536959Y-16491415D01*
X19565531Y-16505701D01*
X19579816Y-16519986D01*
X19594102Y-16548558D01*
X19594102Y-16577129D01*
X19579816Y-16619986D01*
X19408388Y-16791415D01*
X19594102Y-16791415D01*
X19951245Y-16791415D02*
X19951245Y-16491415D01*
X20079816Y-16791415D02*
X20079816Y-16634272D01*
X20065531Y-16605701D01*
X20036959Y-16591415D01*
X19994102Y-16591415D01*
X19965531Y-16605701D01*
X19951245Y-16619986D01*
X20265531Y-16791415D02*
X20236959Y-16777129D01*
X20222673Y-16762843D01*
X20208388Y-16734272D01*
X20208388Y-16648558D01*
X20222673Y-16619986D01*
X20236959Y-16605701D01*
X20265531Y-16591415D01*
X20308388Y-16591415D01*
X20336959Y-16605701D01*
X20351245Y-16619986D01*
X20365531Y-16648558D01*
X20365531Y-16734272D01*
X20351245Y-16762843D01*
X20336959Y-16777129D01*
X20308388Y-16791415D01*
X20265531Y-16791415D01*
X20536959Y-16791415D02*
X20508388Y-16777129D01*
X20494102Y-16748558D01*
X20494102Y-16491415D01*
X20765531Y-16777129D02*
X20736959Y-16791415D01*
X20679816Y-16791415D01*
X20651245Y-16777129D01*
X20636959Y-16748558D01*
X20636959Y-16634272D01*
X20651245Y-16605701D01*
X20679816Y-16591415D01*
X20736959Y-16591415D01*
X20765531Y-16605701D01*
X20779816Y-16634272D01*
X20779816Y-16662843D01*
X20636959Y-16691415D01*
X20894102Y-16777129D02*
X20922673Y-16791415D01*
X20979816Y-16791415D01*
X21008388Y-16777129D01*
X21022673Y-16748558D01*
X21022673Y-16734272D01*
X21008388Y-16705701D01*
X20979816Y-16691415D01*
X20936959Y-16691415D01*
X20908388Y-16677129D01*
X20894102Y-16648558D01*
X20894102Y-16634272D01*
X20908388Y-16605701D01*
X20936959Y-16591415D01*
X20979816Y-16591415D01*
X21008388Y-16605701D01*
X21122673Y-16905701D02*
X21136959Y-16891415D01*
X21165531Y-16848558D01*
X21179816Y-16819986D01*
X21194102Y-16777129D01*
X21208388Y-16705701D01*
X21208388Y-16648558D01*
X21194102Y-16577129D01*
X21179816Y-16534272D01*
X21165531Y-16505701D01*
X21136959Y-16462843D01*
X21122673Y-16448558D01*
M02*
