%FSLAX45Y45*%
G04 Gerber Fmt 4.5, Leading zero omitted, Abs format (unit mm)*
G04 Created by KiCad (PCBNEW (5.1.4)-1) date 2020-11-18 14:17:56*
%MOMM*%
%LPD*%
G04 APERTURE LIST*
%ADD10C,0.200000*%
%ADD11C,0.300000*%
G04 APERTURE END LIST*
D10*
X24426370Y-5887629D02*
X24431221Y-11309754D01*
X4866120Y-5905126D02*
X4870970Y-11327252D01*
X6562717Y-13024174D02*
G75*
G02X6263255Y-13324710I-300000J-537D01*
G01*
X6560688Y-11889796D02*
X6562717Y-13024174D01*
X4400266Y-11628094D02*
G75*
G02X4699729Y-11327558I300000J537D01*
G01*
X4402771Y-13028038D02*
X4400266Y-11628094D01*
X4870970Y-11327252D02*
X4699729Y-11327558D01*
X4703307Y-13327501D02*
G75*
G02X4402771Y-13028038I-537J300000D01*
G01*
X6263255Y-13324710D02*
X4703307Y-13327501D01*
X14651331Y-11582559D02*
G75*
G02X14351600Y-11882827I-300000J-268D01*
G01*
X6560688Y-11889796D02*
X14351600Y-11882827D01*
X4866120Y-5905126D02*
G75*
G02X5165853Y-5604858I300000J268D01*
G01*
X14345979Y-5596699D02*
G75*
G02X14646245Y-5896431I267J-300000D01*
G01*
X5165853Y-5604858D02*
X14345978Y-5596699D01*
X24602462Y-11309754D02*
G75*
G02X24902462Y-11609754I0J-300000D01*
G01*
X24902462Y-13009700D02*
G75*
G02X24602462Y-13309700I-300000J0D01*
G01*
X23042512Y-13309700D02*
G75*
G02X22742512Y-13009700I0J300000D01*
G01*
X22742512Y-11875321D02*
X22742512Y-13009700D01*
X24902462Y-13009700D02*
X24902462Y-11609754D01*
X24431221Y-11309754D02*
X24602462Y-11309754D01*
X22742512Y-11875321D02*
X14951600Y-11882290D01*
X23042512Y-13309700D02*
X24602462Y-13309700D01*
X14646245Y-5896431D02*
G75*
G02X14945975Y-5596162I300000J268D01*
G01*
X24126100Y-5587897D02*
G75*
G02X24426370Y-5887629I270J-300000D01*
G01*
X14951600Y-11882290D02*
G75*
G02X14651331Y-11582559I-268J300000D01*
G01*
X24126100Y-5587897D02*
X14945975Y-5596162D01*
D10*
X23247100Y-11170500D02*
X23337100Y-11260500D01*
X23337100Y-11170500D02*
X23247100Y-11260500D01*
X23272100Y-11250500D02*
X23312100Y-11250500D01*
X23272100Y-11180500D02*
X23312100Y-11180500D01*
X23312100Y-11250500D02*
G75*
G03X23312100Y-11180500I0J35000D01*
G01*
X23272100Y-11180500D02*
G75*
G03X23272100Y-11250500I0J-35000D01*
G01*
X23357100Y-10710500D02*
X23447100Y-10800500D01*
X23447100Y-10710500D02*
X23357100Y-10800500D01*
X23382100Y-10790500D02*
X23422100Y-10790500D01*
X23382100Y-10720500D02*
X23422100Y-10720500D01*
X23422100Y-10790500D02*
G75*
G03X23422100Y-10720500I0J35000D01*
G01*
X23382100Y-10720500D02*
G75*
G03X23382100Y-10790500I0J-35000D01*
G01*
X23757100Y-10710500D02*
X23847100Y-10800500D01*
X23847100Y-10710500D02*
X23757100Y-10800500D01*
X23782100Y-10790500D02*
X23822100Y-10790500D01*
X23782100Y-10720500D02*
X23822100Y-10720500D01*
X23822100Y-10790500D02*
G75*
G03X23822100Y-10720500I0J35000D01*
G01*
X23782100Y-10720500D02*
G75*
G03X23782100Y-10790500I0J-35000D01*
G01*
X24057100Y-10710500D02*
X24147100Y-10800500D01*
X24147100Y-10710500D02*
X24057100Y-10800500D01*
X24082100Y-10790500D02*
X24122100Y-10790500D01*
X24082100Y-10720500D02*
X24122100Y-10720500D01*
X24122100Y-10790500D02*
G75*
G03X24122100Y-10720500I0J35000D01*
G01*
X24082100Y-10720500D02*
G75*
G03X24082100Y-10790500I0J-35000D01*
G01*
X5151800Y-11208600D02*
X5241800Y-11298600D01*
X5241800Y-11208600D02*
X5151800Y-11298600D01*
X5216800Y-11218600D02*
X5176800Y-11218600D01*
X5216800Y-11288600D02*
X5176800Y-11288600D01*
X5176800Y-11218600D02*
G75*
G03X5176800Y-11288600I0J-35000D01*
G01*
X5216800Y-11288600D02*
G75*
G03X5216800Y-11218600I0J35000D01*
G01*
X5451800Y-11208600D02*
X5541800Y-11298600D01*
X5541800Y-11208600D02*
X5451800Y-11298600D01*
X5516800Y-11218600D02*
X5476800Y-11218600D01*
X5516800Y-11288600D02*
X5476800Y-11288600D01*
X5476800Y-11218600D02*
G75*
G03X5476800Y-11288600I0J-35000D01*
G01*
X5516800Y-11288600D02*
G75*
G03X5516800Y-11218600I0J35000D01*
G01*
X5851800Y-11208600D02*
X5941800Y-11298600D01*
X5941800Y-11208600D02*
X5851800Y-11298600D01*
X5916800Y-11218600D02*
X5876800Y-11218600D01*
X5916800Y-11288600D02*
X5876800Y-11288600D01*
X5876800Y-11218600D02*
G75*
G03X5876800Y-11288600I0J-35000D01*
G01*
X5916800Y-11288600D02*
G75*
G03X5916800Y-11218600I0J35000D01*
G01*
X5961800Y-10748600D02*
X6051800Y-10838600D01*
X6051800Y-10748600D02*
X5961800Y-10838600D01*
X6026800Y-10758600D02*
X5986800Y-10758600D01*
X6026800Y-10828600D02*
X5986800Y-10828600D01*
X5986800Y-10758600D02*
G75*
G03X5986800Y-10828600I0J-35000D01*
G01*
X6026800Y-10828600D02*
G75*
G03X6026800Y-10758600I0J35000D01*
G01*
X9413600Y-7213600D02*
G75*
G03X9413600Y-7213600I-50000J0D01*
G01*
X10193600Y-7213600D02*
G75*
G03X10193600Y-7213600I-50000J0D01*
G01*
X23002600Y-7200900D02*
G75*
G03X23002600Y-7200900I-50000J0D01*
G01*
X23782600Y-7200900D02*
G75*
G03X23782600Y-7200900I-50000J0D01*
G01*
X11318600Y-9118600D02*
G75*
G03X11318600Y-9118600I-50000J0D01*
G01*
X12098600Y-9118600D02*
G75*
G03X12098600Y-9118600I-50000J0D01*
G01*
X17300300Y-9105900D02*
G75*
G03X17300300Y-9105900I-50000J0D01*
G01*
X18080300Y-9105900D02*
G75*
G03X18080300Y-9105900I-50000J0D01*
G01*
X7521300Y-9118600D02*
G75*
G03X7521300Y-9118600I-50000J0D01*
G01*
X8301300Y-9118600D02*
G75*
G03X8301300Y-9118600I-50000J0D01*
G01*
X5616300Y-9118600D02*
G75*
G03X5616300Y-9118600I-50000J0D01*
G01*
X6396300Y-9118600D02*
G75*
G03X6396300Y-9118600I-50000J0D01*
G01*
X15382600Y-7200900D02*
G75*
G03X15382600Y-7200900I-50000J0D01*
G01*
X16162600Y-7200900D02*
G75*
G03X16162600Y-7200900I-50000J0D01*
G01*
X13223600Y-7213600D02*
G75*
G03X13223600Y-7213600I-50000J0D01*
G01*
X14003600Y-7213600D02*
G75*
G03X14003600Y-7213600I-50000J0D01*
G01*
X7508600Y-7213600D02*
G75*
G03X7508600Y-7213600I-50000J0D01*
G01*
X8288600Y-7213600D02*
G75*
G03X8288600Y-7213600I-50000J0D01*
G01*
X6340200Y-11023600D02*
G75*
G03X6340200Y-11023600I-50000J0D01*
G01*
X7120200Y-11023600D02*
G75*
G03X7120200Y-11023600I-50000J0D01*
G01*
X23002600Y-9105900D02*
G75*
G03X23002600Y-9105900I-50000J0D01*
G01*
X23782600Y-9105900D02*
G75*
G03X23782600Y-9105900I-50000J0D01*
G01*
X9426300Y-9118600D02*
G75*
G03X9426300Y-9118600I-50000J0D01*
G01*
X10206300Y-9118600D02*
G75*
G03X10206300Y-9118600I-50000J0D01*
G01*
X19192600Y-11010900D02*
G75*
G03X19192600Y-11010900I-50000J0D01*
G01*
X19972600Y-11010900D02*
G75*
G03X19972600Y-11010900I-50000J0D01*
G01*
X11318600Y-7213600D02*
G75*
G03X11318600Y-7213600I-50000J0D01*
G01*
X12098600Y-7213600D02*
G75*
G03X12098600Y-7213600I-50000J0D01*
G01*
X19192600Y-7200900D02*
G75*
G03X19192600Y-7200900I-50000J0D01*
G01*
X19972600Y-7200900D02*
G75*
G03X19972600Y-7200900I-50000J0D01*
G01*
X5603600Y-7213600D02*
G75*
G03X5603600Y-7213600I-50000J0D01*
G01*
X6383600Y-7213600D02*
G75*
G03X6383600Y-7213600I-50000J0D01*
G01*
X23485200Y-12915900D02*
G75*
G03X23485200Y-12915900I-50000J0D01*
G01*
X24265200Y-12915900D02*
G75*
G03X24265200Y-12915900I-50000J0D01*
G01*
X19205300Y-9105900D02*
G75*
G03X19205300Y-9105900I-50000J0D01*
G01*
X19985300Y-9105900D02*
G75*
G03X19985300Y-9105900I-50000J0D01*
G01*
X7508600Y-11023600D02*
G75*
G03X7508600Y-11023600I-50000J0D01*
G01*
X8288600Y-11023600D02*
G75*
G03X8288600Y-11023600I-50000J0D01*
G01*
X22278700Y-11010900D02*
G75*
G03X22278700Y-11010900I-50000J0D01*
G01*
X23058700Y-11010900D02*
G75*
G03X23058700Y-11010900I-50000J0D01*
G01*
X11331300Y-11023600D02*
G75*
G03X11331300Y-11023600I-50000J0D01*
G01*
X12111300Y-11023600D02*
G75*
G03X12111300Y-11023600I-50000J0D01*
G01*
X17300300Y-11010900D02*
G75*
G03X17300300Y-11010900I-50000J0D01*
G01*
X18080300Y-11010900D02*
G75*
G03X18080300Y-11010900I-50000J0D01*
G01*
X21097600Y-11010900D02*
G75*
G03X21097600Y-11010900I-50000J0D01*
G01*
X21877600Y-11010900D02*
G75*
G03X21877600Y-11010900I-50000J0D01*
G01*
X15395300Y-11010900D02*
G75*
G03X15395300Y-11010900I-50000J0D01*
G01*
X16175300Y-11010900D02*
G75*
G03X16175300Y-11010900I-50000J0D01*
G01*
X21097600Y-7200900D02*
G75*
G03X21097600Y-7200900I-50000J0D01*
G01*
X21877600Y-7200900D02*
G75*
G03X21877600Y-7200900I-50000J0D01*
G01*
X13223600Y-9118600D02*
G75*
G03X13223600Y-9118600I-50000J0D01*
G01*
X14003600Y-9118600D02*
G75*
G03X14003600Y-9118600I-50000J0D01*
G01*
X9426300Y-11023600D02*
G75*
G03X9426300Y-11023600I-50000J0D01*
G01*
X10206300Y-11023600D02*
G75*
G03X10206300Y-11023600I-50000J0D01*
G01*
X15395300Y-9118600D02*
G75*
G03X15395300Y-9118600I-50000J0D01*
G01*
X16175300Y-9118600D02*
G75*
G03X16175300Y-9118600I-50000J0D01*
G01*
X5133700Y-12928600D02*
G75*
G03X5133700Y-12928600I-50000J0D01*
G01*
X5913700Y-12928600D02*
G75*
G03X5913700Y-12928600I-50000J0D01*
G01*
X21097600Y-9105900D02*
G75*
G03X21097600Y-9105900I-50000J0D01*
G01*
X21877600Y-9105900D02*
G75*
G03X21877600Y-9105900I-50000J0D01*
G01*
X13236300Y-11023600D02*
G75*
G03X13236300Y-11023600I-50000J0D01*
G01*
X14016300Y-11023600D02*
G75*
G03X14016300Y-11023600I-50000J0D01*
G01*
X17287600Y-7200900D02*
G75*
G03X17287600Y-7200900I-50000J0D01*
G01*
X18067600Y-7200900D02*
G75*
G03X18067600Y-7200900I-50000J0D01*
G01*
X14973300Y-5939400D02*
X14973300Y-6049400D01*
X14918300Y-5994400D02*
X15028300Y-5994400D01*
X14973300Y-6193400D02*
X14973300Y-6303400D01*
X14918300Y-6248400D02*
X15028300Y-6248400D01*
X14973300Y-6447400D02*
X14973300Y-6557400D01*
X14918300Y-6502400D02*
X15028300Y-6502400D01*
X14973300Y-6701400D02*
X14973300Y-6811400D01*
X14918300Y-6756400D02*
X15028300Y-6756400D01*
X14973300Y-6955400D02*
X14973300Y-7065400D01*
X14918300Y-7010400D02*
X15028300Y-7010400D01*
X14973300Y-7209400D02*
X14973300Y-7319400D01*
X14918300Y-7264400D02*
X15028300Y-7264400D01*
X14973300Y-7463400D02*
X14973300Y-7573400D01*
X14918300Y-7518400D02*
X15028300Y-7518400D01*
X14973300Y-7717400D02*
X14973300Y-7827400D01*
X14918300Y-7772400D02*
X15028300Y-7772400D01*
X14973300Y-7971400D02*
X14973300Y-8081400D01*
X14918300Y-8026400D02*
X15028300Y-8026400D01*
X14973300Y-8225400D02*
X14973300Y-8335400D01*
X14918300Y-8280400D02*
X15028300Y-8280400D01*
X14973300Y-8479400D02*
X14973300Y-8589400D01*
X14918300Y-8534400D02*
X15028300Y-8534400D01*
X14973300Y-8733400D02*
X14973300Y-8843400D01*
X14918300Y-8788400D02*
X15028300Y-8788400D01*
X16497300Y-5939400D02*
X16497300Y-6049400D01*
X16442300Y-5994400D02*
X16552300Y-5994400D01*
X16497300Y-6193400D02*
X16497300Y-6303400D01*
X16442300Y-6248400D02*
X16552300Y-6248400D01*
X16497300Y-6447400D02*
X16497300Y-6557400D01*
X16442300Y-6502400D02*
X16552300Y-6502400D01*
X16497300Y-6701400D02*
X16497300Y-6811400D01*
X16442300Y-6756400D02*
X16552300Y-6756400D01*
X16497300Y-6955400D02*
X16497300Y-7065400D01*
X16442300Y-7010400D02*
X16552300Y-7010400D01*
X16497300Y-7209400D02*
X16497300Y-7319400D01*
X16442300Y-7264400D02*
X16552300Y-7264400D01*
X16497300Y-7463400D02*
X16497300Y-7573400D01*
X16442300Y-7518400D02*
X16552300Y-7518400D01*
X16497300Y-7717400D02*
X16497300Y-7827400D01*
X16442300Y-7772400D02*
X16552300Y-7772400D01*
X16497300Y-7971400D02*
X16497300Y-8081400D01*
X16442300Y-8026400D02*
X16552300Y-8026400D01*
X16497300Y-8225400D02*
X16497300Y-8335400D01*
X16442300Y-8280400D02*
X16552300Y-8280400D01*
X16497300Y-8479400D02*
X16497300Y-8589400D01*
X16442300Y-8534400D02*
X16552300Y-8534400D01*
X16497300Y-8733400D02*
X16497300Y-8843400D01*
X16442300Y-8788400D02*
X16552300Y-8788400D01*
X12801600Y-5939400D02*
X12801600Y-6049400D01*
X12746600Y-5994400D02*
X12856600Y-5994400D01*
X12801600Y-6193400D02*
X12801600Y-6303400D01*
X12746600Y-6248400D02*
X12856600Y-6248400D01*
X12801600Y-6447400D02*
X12801600Y-6557400D01*
X12746600Y-6502400D02*
X12856600Y-6502400D01*
X12801600Y-6701400D02*
X12801600Y-6811400D01*
X12746600Y-6756400D02*
X12856600Y-6756400D01*
X12801600Y-6955400D02*
X12801600Y-7065400D01*
X12746600Y-7010400D02*
X12856600Y-7010400D01*
X12801600Y-7209400D02*
X12801600Y-7319400D01*
X12746600Y-7264400D02*
X12856600Y-7264400D01*
X12801600Y-7463400D02*
X12801600Y-7573400D01*
X12746600Y-7518400D02*
X12856600Y-7518400D01*
X12801600Y-7717400D02*
X12801600Y-7827400D01*
X12746600Y-7772400D02*
X12856600Y-7772400D01*
X12801600Y-7971400D02*
X12801600Y-8081400D01*
X12746600Y-8026400D02*
X12856600Y-8026400D01*
X12801600Y-8225400D02*
X12801600Y-8335400D01*
X12746600Y-8280400D02*
X12856600Y-8280400D01*
X12801600Y-8479400D02*
X12801600Y-8589400D01*
X12746600Y-8534400D02*
X12856600Y-8534400D01*
X12801600Y-8733400D02*
X12801600Y-8843400D01*
X12746600Y-8788400D02*
X12856600Y-8788400D01*
X14325600Y-5939400D02*
X14325600Y-6049400D01*
X14270600Y-5994400D02*
X14380600Y-5994400D01*
X14325600Y-6193400D02*
X14325600Y-6303400D01*
X14270600Y-6248400D02*
X14380600Y-6248400D01*
X14325600Y-6447400D02*
X14325600Y-6557400D01*
X14270600Y-6502400D02*
X14380600Y-6502400D01*
X14325600Y-6701400D02*
X14325600Y-6811400D01*
X14270600Y-6756400D02*
X14380600Y-6756400D01*
X14325600Y-6955400D02*
X14325600Y-7065400D01*
X14270600Y-7010400D02*
X14380600Y-7010400D01*
X14325600Y-7209400D02*
X14325600Y-7319400D01*
X14270600Y-7264400D02*
X14380600Y-7264400D01*
X14325600Y-7463400D02*
X14325600Y-7573400D01*
X14270600Y-7518400D02*
X14380600Y-7518400D01*
X14325600Y-7717400D02*
X14325600Y-7827400D01*
X14270600Y-7772400D02*
X14380600Y-7772400D01*
X14325600Y-7971400D02*
X14325600Y-8081400D01*
X14270600Y-8026400D02*
X14380600Y-8026400D01*
X14325600Y-8225400D02*
X14325600Y-8335400D01*
X14270600Y-8280400D02*
X14380600Y-8280400D01*
X14325600Y-8479400D02*
X14325600Y-8589400D01*
X14270600Y-8534400D02*
X14380600Y-8534400D01*
X14325600Y-8733400D02*
X14325600Y-8843400D01*
X14270600Y-8788400D02*
X14380600Y-8788400D01*
X21108573Y-8294273D02*
X21108573Y-8190327D01*
X21004627Y-8190327D01*
X21004627Y-8294273D01*
X21108573Y-8294273D01*
X21239573Y-8148273D02*
X21239573Y-8044327D01*
X21135627Y-8044327D01*
X21135627Y-8148273D01*
X21239573Y-8148273D01*
X21739573Y-8098273D02*
X21739573Y-7994327D01*
X21635627Y-7994327D01*
X21635627Y-8098273D01*
X21739573Y-8098273D01*
X21743573Y-8040273D02*
X21743573Y-7936327D01*
X21639627Y-7936327D01*
X21639627Y-8040273D01*
X21743573Y-8040273D01*
X19203573Y-10199273D02*
X19203573Y-10095327D01*
X19099627Y-10095327D01*
X19099627Y-10199273D01*
X19203573Y-10199273D01*
X19334573Y-10053273D02*
X19334573Y-9949327D01*
X19230627Y-9949327D01*
X19230627Y-10053273D01*
X19334573Y-10053273D01*
X19834573Y-10003273D02*
X19834573Y-9899327D01*
X19730627Y-9899327D01*
X19730627Y-10003273D01*
X19834573Y-10003273D01*
X19838573Y-9945273D02*
X19838573Y-9841327D01*
X19734627Y-9841327D01*
X19734627Y-9945273D01*
X19838573Y-9945273D01*
X5150973Y-12126973D02*
X5150973Y-12023027D01*
X5047027Y-12023027D01*
X5047027Y-12126973D01*
X5150973Y-12126973D01*
X5281973Y-11980973D02*
X5281973Y-11877027D01*
X5178027Y-11877027D01*
X5178027Y-11980973D01*
X5281973Y-11980973D01*
X5781973Y-11930973D02*
X5781973Y-11827027D01*
X5678027Y-11827027D01*
X5678027Y-11930973D01*
X5781973Y-11930973D01*
X5785973Y-11872973D02*
X5785973Y-11769027D01*
X5682027Y-11769027D01*
X5682027Y-11872973D01*
X5785973Y-11872973D01*
X9437273Y-10211973D02*
X9437273Y-10108027D01*
X9333327Y-10108027D01*
X9333327Y-10211973D01*
X9437273Y-10211973D01*
X9568273Y-10065973D02*
X9568273Y-9962027D01*
X9464327Y-9962027D01*
X9464327Y-10065973D01*
X9568273Y-10065973D01*
X10068273Y-10015973D02*
X10068273Y-9912027D01*
X9964327Y-9912027D01*
X9964327Y-10015973D01*
X10068273Y-10015973D01*
X10072273Y-9957973D02*
X10072273Y-9854027D01*
X9968327Y-9854027D01*
X9968327Y-9957973D01*
X10072273Y-9957973D01*
X23496173Y-12104273D02*
X23496173Y-12000327D01*
X23392227Y-12000327D01*
X23392227Y-12104273D01*
X23496173Y-12104273D01*
X23627173Y-11958273D02*
X23627173Y-11854327D01*
X23523227Y-11854327D01*
X23523227Y-11958273D01*
X23627173Y-11958273D01*
X24127173Y-11908273D02*
X24127173Y-11804327D01*
X24023227Y-11804327D01*
X24023227Y-11908273D01*
X24127173Y-11908273D01*
X24131173Y-11850273D02*
X24131173Y-11746327D01*
X24027227Y-11746327D01*
X24027227Y-11850273D01*
X24131173Y-11850273D01*
X15406273Y-8294273D02*
X15406273Y-8190327D01*
X15302327Y-8190327D01*
X15302327Y-8294273D01*
X15406273Y-8294273D01*
X15537273Y-8148273D02*
X15537273Y-8044327D01*
X15433327Y-8044327D01*
X15433327Y-8148273D01*
X15537273Y-8148273D01*
X16037273Y-8098273D02*
X16037273Y-7994327D01*
X15933327Y-7994327D01*
X15933327Y-8098273D01*
X16037273Y-8098273D01*
X16041273Y-8040273D02*
X16041273Y-7936327D01*
X15937327Y-7936327D01*
X15937327Y-8040273D01*
X16041273Y-8040273D01*
X13234573Y-8306973D02*
X13234573Y-8203027D01*
X13130627Y-8203027D01*
X13130627Y-8306973D01*
X13234573Y-8306973D01*
X13365573Y-8160973D02*
X13365573Y-8057027D01*
X13261627Y-8057027D01*
X13261627Y-8160973D01*
X13365573Y-8160973D01*
X13865573Y-8110973D02*
X13865573Y-8007027D01*
X13761627Y-8007027D01*
X13761627Y-8110973D01*
X13865573Y-8110973D01*
X13869573Y-8052973D02*
X13869573Y-7949027D01*
X13765627Y-7949027D01*
X13765627Y-8052973D01*
X13869573Y-8052973D01*
X17311273Y-8294273D02*
X17311273Y-8190327D01*
X17207327Y-8190327D01*
X17207327Y-8294273D01*
X17311273Y-8294273D01*
X17442273Y-8148273D02*
X17442273Y-8044327D01*
X17338327Y-8044327D01*
X17338327Y-8148273D01*
X17442273Y-8148273D01*
X17942273Y-8098273D02*
X17942273Y-7994327D01*
X17838327Y-7994327D01*
X17838327Y-8098273D01*
X17942273Y-8098273D01*
X17946273Y-8040273D02*
X17946273Y-7936327D01*
X17842327Y-7936327D01*
X17842327Y-8040273D01*
X17946273Y-8040273D01*
X15406273Y-10199273D02*
X15406273Y-10095327D01*
X15302327Y-10095327D01*
X15302327Y-10199273D01*
X15406273Y-10199273D01*
X15537273Y-10053273D02*
X15537273Y-9949327D01*
X15433327Y-9949327D01*
X15433327Y-10053273D01*
X15537273Y-10053273D01*
X16037273Y-10003273D02*
X16037273Y-9899327D01*
X15933327Y-9899327D01*
X15933327Y-10003273D01*
X16037273Y-10003273D01*
X16041273Y-9945273D02*
X16041273Y-9841327D01*
X15937327Y-9841327D01*
X15937327Y-9945273D01*
X16041273Y-9945273D01*
X5614573Y-6401973D02*
X5614573Y-6298027D01*
X5510627Y-6298027D01*
X5510627Y-6401973D01*
X5614573Y-6401973D01*
X5745573Y-6255973D02*
X5745573Y-6152027D01*
X5641627Y-6152027D01*
X5641627Y-6255973D01*
X5745573Y-6255973D01*
X6245573Y-6205973D02*
X6245573Y-6102027D01*
X6141627Y-6102027D01*
X6141627Y-6205973D01*
X6245573Y-6205973D01*
X6249573Y-6147973D02*
X6249573Y-6044027D01*
X6145627Y-6044027D01*
X6145627Y-6147973D01*
X6249573Y-6147973D01*
X23026273Y-10199273D02*
X23026273Y-10095327D01*
X22922327Y-10095327D01*
X22922327Y-10199273D01*
X23026273Y-10199273D01*
X23157273Y-10053273D02*
X23157273Y-9949327D01*
X23053327Y-9949327D01*
X23053327Y-10053273D01*
X23157273Y-10053273D01*
X23657273Y-10003273D02*
X23657273Y-9899327D01*
X23553327Y-9899327D01*
X23553327Y-10003273D01*
X23657273Y-10003273D01*
X23661273Y-9945273D02*
X23661273Y-9841327D01*
X23557327Y-9841327D01*
X23557327Y-9945273D01*
X23661273Y-9945273D01*
X5614573Y-10211973D02*
X5614573Y-10108027D01*
X5510627Y-10108027D01*
X5510627Y-10211973D01*
X5614573Y-10211973D01*
X5745573Y-10065973D02*
X5745573Y-9962027D01*
X5641627Y-9962027D01*
X5641627Y-10065973D01*
X5745573Y-10065973D01*
X6245573Y-10015973D02*
X6245573Y-9912027D01*
X6141627Y-9912027D01*
X6141627Y-10015973D01*
X6245573Y-10015973D01*
X6249573Y-9957973D02*
X6249573Y-9854027D01*
X6145627Y-9854027D01*
X6145627Y-9957973D01*
X6249573Y-9957973D01*
X11329573Y-6401973D02*
X11329573Y-6298027D01*
X11225627Y-6298027D01*
X11225627Y-6401973D01*
X11329573Y-6401973D01*
X11460573Y-6255973D02*
X11460573Y-6152027D01*
X11356627Y-6152027D01*
X11356627Y-6255973D01*
X11460573Y-6255973D01*
X11960573Y-6205973D02*
X11960573Y-6102027D01*
X11856627Y-6102027D01*
X11856627Y-6205973D01*
X11960573Y-6205973D01*
X11964573Y-6147973D02*
X11964573Y-6044027D01*
X11860627Y-6044027D01*
X11860627Y-6147973D01*
X11964573Y-6147973D01*
X9424573Y-6401973D02*
X9424573Y-6298027D01*
X9320627Y-6298027D01*
X9320627Y-6401973D01*
X9424573Y-6401973D01*
X9555573Y-6255973D02*
X9555573Y-6152027D01*
X9451627Y-6152027D01*
X9451627Y-6255973D01*
X9555573Y-6255973D01*
X10055573Y-6205973D02*
X10055573Y-6102027D01*
X9951627Y-6102027D01*
X9951627Y-6205973D01*
X10055573Y-6205973D01*
X10059573Y-6147973D02*
X10059573Y-6044027D01*
X9955627Y-6044027D01*
X9955627Y-6147973D01*
X10059573Y-6147973D01*
X11329573Y-8306973D02*
X11329573Y-8203027D01*
X11225627Y-8203027D01*
X11225627Y-8306973D01*
X11329573Y-8306973D01*
X11460573Y-8160973D02*
X11460573Y-8057027D01*
X11356627Y-8057027D01*
X11356627Y-8160973D01*
X11460573Y-8160973D01*
X11960573Y-8110973D02*
X11960573Y-8007027D01*
X11856627Y-8007027D01*
X11856627Y-8110973D01*
X11960573Y-8110973D01*
X11964573Y-8052973D02*
X11964573Y-7949027D01*
X11860627Y-7949027D01*
X11860627Y-8052973D01*
X11964573Y-8052973D01*
X23013573Y-6389273D02*
X23013573Y-6285327D01*
X22909627Y-6285327D01*
X22909627Y-6389273D01*
X23013573Y-6389273D01*
X23144573Y-6243273D02*
X23144573Y-6139327D01*
X23040627Y-6139327D01*
X23040627Y-6243273D01*
X23144573Y-6243273D01*
X23644573Y-6193273D02*
X23644573Y-6089327D01*
X23540627Y-6089327D01*
X23540627Y-6193273D01*
X23644573Y-6193273D01*
X23648573Y-6135273D02*
X23648573Y-6031327D01*
X23544627Y-6031327D01*
X23544627Y-6135273D01*
X23648573Y-6135273D01*
X7519573Y-6401973D02*
X7519573Y-6298027D01*
X7415627Y-6298027D01*
X7415627Y-6401973D01*
X7519573Y-6401973D01*
X7650573Y-6255973D02*
X7650573Y-6152027D01*
X7546627Y-6152027D01*
X7546627Y-6255973D01*
X7650573Y-6255973D01*
X8150573Y-6205973D02*
X8150573Y-6102027D01*
X8046627Y-6102027D01*
X8046627Y-6205973D01*
X8150573Y-6205973D01*
X8154573Y-6147973D02*
X8154573Y-6044027D01*
X8050627Y-6044027D01*
X8050627Y-6147973D01*
X8154573Y-6147973D01*
X19203573Y-6389273D02*
X19203573Y-6285327D01*
X19099627Y-6285327D01*
X19099627Y-6389273D01*
X19203573Y-6389273D01*
X19334573Y-6243273D02*
X19334573Y-6139327D01*
X19230627Y-6139327D01*
X19230627Y-6243273D01*
X19334573Y-6243273D01*
X19834573Y-6193273D02*
X19834573Y-6089327D01*
X19730627Y-6089327D01*
X19730627Y-6193273D01*
X19834573Y-6193273D01*
X19838573Y-6135273D02*
X19838573Y-6031327D01*
X19734627Y-6031327D01*
X19734627Y-6135273D01*
X19838573Y-6135273D01*
X23013573Y-8294273D02*
X23013573Y-8190327D01*
X22909627Y-8190327D01*
X22909627Y-8294273D01*
X23013573Y-8294273D01*
X23144573Y-8148273D02*
X23144573Y-8044327D01*
X23040627Y-8044327D01*
X23040627Y-8148273D01*
X23144573Y-8148273D01*
X23644573Y-8098273D02*
X23644573Y-7994327D01*
X23540627Y-7994327D01*
X23540627Y-8098273D01*
X23644573Y-8098273D01*
X23648573Y-8040273D02*
X23648573Y-7936327D01*
X23544627Y-7936327D01*
X23544627Y-8040273D01*
X23648573Y-8040273D01*
X9437273Y-8306973D02*
X9437273Y-8203027D01*
X9333327Y-8203027D01*
X9333327Y-8306973D01*
X9437273Y-8306973D01*
X9568273Y-8160973D02*
X9568273Y-8057027D01*
X9464327Y-8057027D01*
X9464327Y-8160973D01*
X9568273Y-8160973D01*
X10068273Y-8110973D02*
X10068273Y-8007027D01*
X9964327Y-8007027D01*
X9964327Y-8110973D01*
X10068273Y-8110973D01*
X10072273Y-8052973D02*
X10072273Y-7949027D01*
X9968327Y-7949027D01*
X9968327Y-8052973D01*
X10072273Y-8052973D01*
X17298573Y-6389273D02*
X17298573Y-6285327D01*
X17194627Y-6285327D01*
X17194627Y-6389273D01*
X17298573Y-6389273D01*
X17429573Y-6243273D02*
X17429573Y-6139327D01*
X17325627Y-6139327D01*
X17325627Y-6243273D01*
X17429573Y-6243273D01*
X17929573Y-6193273D02*
X17929573Y-6089327D01*
X17825627Y-6089327D01*
X17825627Y-6193273D01*
X17929573Y-6193273D01*
X17933573Y-6135273D02*
X17933573Y-6031327D01*
X17829627Y-6031327D01*
X17829627Y-6135273D01*
X17933573Y-6135273D01*
X11342273Y-10211973D02*
X11342273Y-10108027D01*
X11238327Y-10108027D01*
X11238327Y-10211973D01*
X11342273Y-10211973D01*
X11473273Y-10065973D02*
X11473273Y-9962027D01*
X11369327Y-9962027D01*
X11369327Y-10065973D01*
X11473273Y-10065973D01*
X11973273Y-10015973D02*
X11973273Y-9912027D01*
X11869327Y-9912027D01*
X11869327Y-10015973D01*
X11973273Y-10015973D01*
X11977273Y-9957973D02*
X11977273Y-9854027D01*
X11873327Y-9854027D01*
X11873327Y-9957973D01*
X11977273Y-9957973D01*
X7519573Y-10211973D02*
X7519573Y-10108027D01*
X7415627Y-10108027D01*
X7415627Y-10211973D01*
X7519573Y-10211973D01*
X7650573Y-10065973D02*
X7650573Y-9962027D01*
X7546627Y-9962027D01*
X7546627Y-10065973D01*
X7650573Y-10065973D01*
X8150573Y-10015973D02*
X8150573Y-9912027D01*
X8046627Y-9912027D01*
X8046627Y-10015973D01*
X8150573Y-10015973D01*
X8154573Y-9957973D02*
X8154573Y-9854027D01*
X8050627Y-9854027D01*
X8050627Y-9957973D01*
X8154573Y-9957973D01*
X21108573Y-10199273D02*
X21108573Y-10095327D01*
X21004627Y-10095327D01*
X21004627Y-10199273D01*
X21108573Y-10199273D01*
X21239573Y-10053273D02*
X21239573Y-9949327D01*
X21135627Y-9949327D01*
X21135627Y-10053273D01*
X21239573Y-10053273D01*
X21739573Y-10003273D02*
X21739573Y-9899327D01*
X21635627Y-9899327D01*
X21635627Y-10003273D01*
X21739573Y-10003273D01*
X21743573Y-9945273D02*
X21743573Y-9841327D01*
X21639627Y-9841327D01*
X21639627Y-9945273D01*
X21743573Y-9945273D01*
X7532273Y-8306973D02*
X7532273Y-8203027D01*
X7428327Y-8203027D01*
X7428327Y-8306973D01*
X7532273Y-8306973D01*
X7663273Y-8160973D02*
X7663273Y-8057027D01*
X7559327Y-8057027D01*
X7559327Y-8160973D01*
X7663273Y-8160973D01*
X8163273Y-8110973D02*
X8163273Y-8007027D01*
X8059327Y-8007027D01*
X8059327Y-8110973D01*
X8163273Y-8110973D01*
X8167273Y-8052973D02*
X8167273Y-7949027D01*
X8063327Y-7949027D01*
X8063327Y-8052973D01*
X8167273Y-8052973D01*
X21108573Y-6389273D02*
X21108573Y-6285327D01*
X21004627Y-6285327D01*
X21004627Y-6389273D01*
X21108573Y-6389273D01*
X21239573Y-6243273D02*
X21239573Y-6139327D01*
X21135627Y-6139327D01*
X21135627Y-6243273D01*
X21239573Y-6243273D01*
X21739573Y-6193273D02*
X21739573Y-6089327D01*
X21635627Y-6089327D01*
X21635627Y-6193273D01*
X21739573Y-6193273D01*
X21743573Y-6135273D02*
X21743573Y-6031327D01*
X21639627Y-6031327D01*
X21639627Y-6135273D01*
X21743573Y-6135273D01*
X17311273Y-10199273D02*
X17311273Y-10095327D01*
X17207327Y-10095327D01*
X17207327Y-10199273D01*
X17311273Y-10199273D01*
X17442273Y-10053273D02*
X17442273Y-9949327D01*
X17338327Y-9949327D01*
X17338327Y-10053273D01*
X17442273Y-10053273D01*
X17942273Y-10003273D02*
X17942273Y-9899327D01*
X17838327Y-9899327D01*
X17838327Y-10003273D01*
X17942273Y-10003273D01*
X17946273Y-9945273D02*
X17946273Y-9841327D01*
X17842327Y-9841327D01*
X17842327Y-9945273D01*
X17946273Y-9945273D01*
X5614573Y-8306973D02*
X5614573Y-8203027D01*
X5510627Y-8203027D01*
X5510627Y-8306973D01*
X5614573Y-8306973D01*
X5745573Y-8160973D02*
X5745573Y-8057027D01*
X5641627Y-8057027D01*
X5641627Y-8160973D01*
X5745573Y-8160973D01*
X6245573Y-8110973D02*
X6245573Y-8007027D01*
X6141627Y-8007027D01*
X6141627Y-8110973D01*
X6245573Y-8110973D01*
X6249573Y-8052973D02*
X6249573Y-7949027D01*
X6145627Y-7949027D01*
X6145627Y-8052973D01*
X6249573Y-8052973D01*
X19203573Y-8294273D02*
X19203573Y-8190327D01*
X19099627Y-8190327D01*
X19099627Y-8294273D01*
X19203573Y-8294273D01*
X19334573Y-8148273D02*
X19334573Y-8044327D01*
X19230627Y-8044327D01*
X19230627Y-8148273D01*
X19334573Y-8148273D01*
X19834573Y-8098273D02*
X19834573Y-7994327D01*
X19730627Y-7994327D01*
X19730627Y-8098273D01*
X19834573Y-8098273D01*
X19838573Y-8040273D02*
X19838573Y-7936327D01*
X19734627Y-7936327D01*
X19734627Y-8040273D01*
X19838573Y-8040273D01*
X13234573Y-6401973D02*
X13234573Y-6298027D01*
X13130627Y-6298027D01*
X13130627Y-6401973D01*
X13234573Y-6401973D01*
X13365573Y-6255973D02*
X13365573Y-6152027D01*
X13261627Y-6152027D01*
X13261627Y-6255973D01*
X13365573Y-6255973D01*
X13865573Y-6205973D02*
X13865573Y-6102027D01*
X13761627Y-6102027D01*
X13761627Y-6205973D01*
X13865573Y-6205973D01*
X13869573Y-6147973D02*
X13869573Y-6044027D01*
X13765627Y-6044027D01*
X13765627Y-6147973D01*
X13869573Y-6147973D01*
X15406273Y-6389273D02*
X15406273Y-6285327D01*
X15302327Y-6285327D01*
X15302327Y-6389273D01*
X15406273Y-6389273D01*
X15537273Y-6243273D02*
X15537273Y-6139327D01*
X15433327Y-6139327D01*
X15433327Y-6243273D01*
X15537273Y-6243273D01*
X16037273Y-6193273D02*
X16037273Y-6089327D01*
X15933327Y-6089327D01*
X15933327Y-6193273D01*
X16037273Y-6193273D01*
X16041273Y-6135273D02*
X16041273Y-6031327D01*
X15937327Y-6031327D01*
X15937327Y-6135273D01*
X16041273Y-6135273D01*
X13247273Y-10211973D02*
X13247273Y-10108027D01*
X13143327Y-10108027D01*
X13143327Y-10211973D01*
X13247273Y-10211973D01*
X13378273Y-10065973D02*
X13378273Y-9962027D01*
X13274327Y-9962027D01*
X13274327Y-10065973D01*
X13378273Y-10065973D01*
X13878273Y-10015973D02*
X13878273Y-9912027D01*
X13774327Y-9912027D01*
X13774327Y-10015973D01*
X13878273Y-10015973D01*
X13882273Y-9957973D02*
X13882273Y-9854027D01*
X13778327Y-9854027D01*
X13778327Y-9957973D01*
X13882273Y-9957973D01*
D11*
X4676694Y-13803216D02*
X4676694Y-13503216D01*
X4748123Y-13503216D01*
X4790980Y-13517502D01*
X4819551Y-13546073D01*
X4833837Y-13574644D01*
X4848123Y-13631787D01*
X4848123Y-13674644D01*
X4833837Y-13731787D01*
X4819551Y-13760359D01*
X4790980Y-13788930D01*
X4748123Y-13803216D01*
X4676694Y-13803216D01*
X4976694Y-13803216D02*
X4976694Y-13603216D01*
X4976694Y-13660359D02*
X4990980Y-13631787D01*
X5005266Y-13617502D01*
X5033837Y-13603216D01*
X5062409Y-13603216D01*
X5162409Y-13803216D02*
X5162409Y-13603216D01*
X5162409Y-13503216D02*
X5148123Y-13517502D01*
X5162409Y-13531787D01*
X5176694Y-13517502D01*
X5162409Y-13503216D01*
X5162409Y-13531787D01*
X5348123Y-13803216D02*
X5319551Y-13788930D01*
X5305266Y-13760359D01*
X5305266Y-13503216D01*
X5505266Y-13803216D02*
X5476694Y-13788930D01*
X5462409Y-13760359D01*
X5462409Y-13503216D01*
X5848123Y-13803216D02*
X5848123Y-13503216D01*
X5948123Y-13717502D01*
X6048123Y-13503216D01*
X6048123Y-13803216D01*
X6319551Y-13803216D02*
X6319551Y-13646073D01*
X6305266Y-13617502D01*
X6276694Y-13603216D01*
X6219551Y-13603216D01*
X6190980Y-13617502D01*
X6319551Y-13788930D02*
X6290980Y-13803216D01*
X6219551Y-13803216D01*
X6190980Y-13788930D01*
X6176694Y-13760359D01*
X6176694Y-13731787D01*
X6190980Y-13703216D01*
X6219551Y-13688930D01*
X6290980Y-13688930D01*
X6319551Y-13674644D01*
X6462408Y-13603216D02*
X6462408Y-13903216D01*
X6462408Y-13617502D02*
X6490980Y-13603216D01*
X6548123Y-13603216D01*
X6576694Y-13617502D01*
X6590980Y-13631787D01*
X6605266Y-13660359D01*
X6605266Y-13746073D01*
X6590980Y-13774644D01*
X6576694Y-13788930D01*
X6548123Y-13803216D01*
X6490980Y-13803216D01*
X6462408Y-13788930D01*
X6733837Y-13774644D02*
X6748123Y-13788930D01*
X6733837Y-13803216D01*
X6719551Y-13788930D01*
X6733837Y-13774644D01*
X6733837Y-13803216D01*
X6733837Y-13617502D02*
X6748123Y-13631787D01*
X6733837Y-13646073D01*
X6719551Y-13631787D01*
X6733837Y-13617502D01*
X6733837Y-13646073D01*
X4300266Y-14252502D02*
X4390266Y-14342502D01*
X4390266Y-14252502D02*
X4300266Y-14342502D01*
X4733837Y-14133216D02*
X4762409Y-14133216D01*
X4790980Y-14147502D01*
X4805266Y-14161787D01*
X4819551Y-14190359D01*
X4833837Y-14247502D01*
X4833837Y-14318930D01*
X4819551Y-14376073D01*
X4805266Y-14404644D01*
X4790980Y-14418930D01*
X4762409Y-14433216D01*
X4733837Y-14433216D01*
X4705266Y-14418930D01*
X4690980Y-14404644D01*
X4676694Y-14376073D01*
X4662409Y-14318930D01*
X4662409Y-14247502D01*
X4676694Y-14190359D01*
X4690980Y-14161787D01*
X4705266Y-14147502D01*
X4733837Y-14133216D01*
X4962409Y-14404644D02*
X4976694Y-14418930D01*
X4962409Y-14433216D01*
X4948123Y-14418930D01*
X4962409Y-14404644D01*
X4962409Y-14433216D01*
X5119551Y-14433216D02*
X5176694Y-14433216D01*
X5205266Y-14418930D01*
X5219551Y-14404644D01*
X5248123Y-14361787D01*
X5262409Y-14304644D01*
X5262409Y-14190359D01*
X5248123Y-14161787D01*
X5233837Y-14147502D01*
X5205266Y-14133216D01*
X5148123Y-14133216D01*
X5119551Y-14147502D01*
X5105266Y-14161787D01*
X5090980Y-14190359D01*
X5090980Y-14261787D01*
X5105266Y-14290359D01*
X5119551Y-14304644D01*
X5148123Y-14318930D01*
X5205266Y-14318930D01*
X5233837Y-14304644D01*
X5248123Y-14290359D01*
X5262409Y-14261787D01*
X5448123Y-14133216D02*
X5476694Y-14133216D01*
X5505266Y-14147502D01*
X5519551Y-14161787D01*
X5533837Y-14190359D01*
X5548123Y-14247502D01*
X5548123Y-14318930D01*
X5533837Y-14376073D01*
X5519551Y-14404644D01*
X5505266Y-14418930D01*
X5476694Y-14433216D01*
X5448123Y-14433216D01*
X5419551Y-14418930D01*
X5405266Y-14404644D01*
X5390980Y-14376073D01*
X5376694Y-14318930D01*
X5376694Y-14247502D01*
X5390980Y-14190359D01*
X5405266Y-14161787D01*
X5419551Y-14147502D01*
X5448123Y-14133216D01*
X5676694Y-14433216D02*
X5676694Y-14233216D01*
X5676694Y-14261787D02*
X5690980Y-14247502D01*
X5719551Y-14233216D01*
X5762408Y-14233216D01*
X5790980Y-14247502D01*
X5805266Y-14276073D01*
X5805266Y-14433216D01*
X5805266Y-14276073D02*
X5819551Y-14247502D01*
X5848123Y-14233216D01*
X5890980Y-14233216D01*
X5919551Y-14247502D01*
X5933837Y-14276073D01*
X5933837Y-14433216D01*
X6076694Y-14433216D02*
X6076694Y-14233216D01*
X6076694Y-14261787D02*
X6090980Y-14247502D01*
X6119551Y-14233216D01*
X6162408Y-14233216D01*
X6190980Y-14247502D01*
X6205266Y-14276073D01*
X6205266Y-14433216D01*
X6205266Y-14276073D02*
X6219551Y-14247502D01*
X6248123Y-14233216D01*
X6290980Y-14233216D01*
X6319551Y-14247502D01*
X6333837Y-14276073D01*
X6333837Y-14433216D01*
X6919551Y-14118930D02*
X6662408Y-14504644D01*
X7305266Y-14133216D02*
X7333837Y-14133216D01*
X7362408Y-14147502D01*
X7376694Y-14161787D01*
X7390980Y-14190359D01*
X7405266Y-14247502D01*
X7405266Y-14318930D01*
X7390980Y-14376073D01*
X7376694Y-14404644D01*
X7362408Y-14418930D01*
X7333837Y-14433216D01*
X7305266Y-14433216D01*
X7276694Y-14418930D01*
X7262408Y-14404644D01*
X7248123Y-14376073D01*
X7233837Y-14318930D01*
X7233837Y-14247502D01*
X7248123Y-14190359D01*
X7262408Y-14161787D01*
X7276694Y-14147502D01*
X7305266Y-14133216D01*
X7533837Y-14404644D02*
X7548123Y-14418930D01*
X7533837Y-14433216D01*
X7519551Y-14418930D01*
X7533837Y-14404644D01*
X7533837Y-14433216D01*
X7733837Y-14133216D02*
X7762408Y-14133216D01*
X7790980Y-14147502D01*
X7805266Y-14161787D01*
X7819551Y-14190359D01*
X7833837Y-14247502D01*
X7833837Y-14318930D01*
X7819551Y-14376073D01*
X7805266Y-14404644D01*
X7790980Y-14418930D01*
X7762408Y-14433216D01*
X7733837Y-14433216D01*
X7705266Y-14418930D01*
X7690980Y-14404644D01*
X7676694Y-14376073D01*
X7662408Y-14318930D01*
X7662408Y-14247502D01*
X7676694Y-14190359D01*
X7690980Y-14161787D01*
X7705266Y-14147502D01*
X7733837Y-14133216D01*
X7933837Y-14133216D02*
X8119551Y-14133216D01*
X8019551Y-14247502D01*
X8062408Y-14247502D01*
X8090980Y-14261787D01*
X8105266Y-14276073D01*
X8119551Y-14304644D01*
X8119551Y-14376073D01*
X8105266Y-14404644D01*
X8090980Y-14418930D01*
X8062408Y-14433216D01*
X7976694Y-14433216D01*
X7948123Y-14418930D01*
X7933837Y-14404644D01*
X8390980Y-14133216D02*
X8248123Y-14133216D01*
X8233837Y-14276073D01*
X8248123Y-14261787D01*
X8276694Y-14247502D01*
X8348123Y-14247502D01*
X8376694Y-14261787D01*
X8390980Y-14276073D01*
X8405266Y-14304644D01*
X8405266Y-14376073D01*
X8390980Y-14404644D01*
X8376694Y-14418930D01*
X8348123Y-14433216D01*
X8276694Y-14433216D01*
X8248123Y-14418930D01*
X8233837Y-14404644D01*
X8519551Y-14133216D02*
X8519551Y-14190359D01*
X8633837Y-14133216D02*
X8633837Y-14190359D01*
X9076694Y-14547502D02*
X9062409Y-14533216D01*
X9033837Y-14490359D01*
X9019551Y-14461787D01*
X9005266Y-14418930D01*
X8990980Y-14347502D01*
X8990980Y-14290359D01*
X9005266Y-14218930D01*
X9019551Y-14176073D01*
X9033837Y-14147502D01*
X9062409Y-14104644D01*
X9076694Y-14090359D01*
X9248123Y-14133216D02*
X9276694Y-14133216D01*
X9305266Y-14147502D01*
X9319551Y-14161787D01*
X9333837Y-14190359D01*
X9348123Y-14247502D01*
X9348123Y-14318930D01*
X9333837Y-14376073D01*
X9319551Y-14404644D01*
X9305266Y-14418930D01*
X9276694Y-14433216D01*
X9248123Y-14433216D01*
X9219551Y-14418930D01*
X9205266Y-14404644D01*
X9190980Y-14376073D01*
X9176694Y-14318930D01*
X9176694Y-14247502D01*
X9190980Y-14190359D01*
X9205266Y-14161787D01*
X9219551Y-14147502D01*
X9248123Y-14133216D01*
X9705266Y-14433216D02*
X9705266Y-14133216D01*
X9833837Y-14433216D02*
X9833837Y-14276073D01*
X9819551Y-14247502D01*
X9790980Y-14233216D01*
X9748123Y-14233216D01*
X9719551Y-14247502D01*
X9705266Y-14261787D01*
X10019551Y-14433216D02*
X9990980Y-14418930D01*
X9976694Y-14404644D01*
X9962409Y-14376073D01*
X9962409Y-14290359D01*
X9976694Y-14261787D01*
X9990980Y-14247502D01*
X10019551Y-14233216D01*
X10062409Y-14233216D01*
X10090980Y-14247502D01*
X10105266Y-14261787D01*
X10119551Y-14290359D01*
X10119551Y-14376073D01*
X10105266Y-14404644D01*
X10090980Y-14418930D01*
X10062409Y-14433216D01*
X10019551Y-14433216D01*
X10290980Y-14433216D02*
X10262409Y-14418930D01*
X10248123Y-14390359D01*
X10248123Y-14133216D01*
X10519551Y-14418930D02*
X10490980Y-14433216D01*
X10433837Y-14433216D01*
X10405266Y-14418930D01*
X10390980Y-14390359D01*
X10390980Y-14276073D01*
X10405266Y-14247502D01*
X10433837Y-14233216D01*
X10490980Y-14233216D01*
X10519551Y-14247502D01*
X10533837Y-14276073D01*
X10533837Y-14304644D01*
X10390980Y-14333216D01*
X10648123Y-14418930D02*
X10676694Y-14433216D01*
X10733837Y-14433216D01*
X10762409Y-14418930D01*
X10776694Y-14390359D01*
X10776694Y-14376073D01*
X10762409Y-14347502D01*
X10733837Y-14333216D01*
X10690980Y-14333216D01*
X10662409Y-14318930D01*
X10648123Y-14290359D01*
X10648123Y-14276073D01*
X10662409Y-14247502D01*
X10690980Y-14233216D01*
X10733837Y-14233216D01*
X10762409Y-14247502D01*
X11133837Y-14318930D02*
X11362408Y-14318930D01*
X11248123Y-14433216D02*
X11248123Y-14204644D01*
X11776694Y-14261787D02*
X11748123Y-14247502D01*
X11733837Y-14233216D01*
X11719551Y-14204644D01*
X11719551Y-14190359D01*
X11733837Y-14161787D01*
X11748123Y-14147502D01*
X11776694Y-14133216D01*
X11833837Y-14133216D01*
X11862408Y-14147502D01*
X11876694Y-14161787D01*
X11890980Y-14190359D01*
X11890980Y-14204644D01*
X11876694Y-14233216D01*
X11862408Y-14247502D01*
X11833837Y-14261787D01*
X11776694Y-14261787D01*
X11748123Y-14276073D01*
X11733837Y-14290359D01*
X11719551Y-14318930D01*
X11719551Y-14376073D01*
X11733837Y-14404644D01*
X11748123Y-14418930D01*
X11776694Y-14433216D01*
X11833837Y-14433216D01*
X11862408Y-14418930D01*
X11876694Y-14404644D01*
X11890980Y-14376073D01*
X11890980Y-14318930D01*
X11876694Y-14290359D01*
X11862408Y-14276073D01*
X11833837Y-14261787D01*
X12233837Y-14418930D02*
X12262408Y-14433216D01*
X12319551Y-14433216D01*
X12348123Y-14418930D01*
X12362408Y-14390359D01*
X12362408Y-14376073D01*
X12348123Y-14347502D01*
X12319551Y-14333216D01*
X12276694Y-14333216D01*
X12248123Y-14318930D01*
X12233837Y-14290359D01*
X12233837Y-14276073D01*
X12248123Y-14247502D01*
X12276694Y-14233216D01*
X12319551Y-14233216D01*
X12348123Y-14247502D01*
X12533837Y-14433216D02*
X12505266Y-14418930D01*
X12490980Y-14390359D01*
X12490980Y-14133216D01*
X12690980Y-14433216D02*
X12662408Y-14418930D01*
X12648123Y-14404644D01*
X12633837Y-14376073D01*
X12633837Y-14290359D01*
X12648123Y-14261787D01*
X12662408Y-14247502D01*
X12690980Y-14233216D01*
X12733837Y-14233216D01*
X12762408Y-14247502D01*
X12776694Y-14261787D01*
X12790980Y-14290359D01*
X12790980Y-14376073D01*
X12776694Y-14404644D01*
X12762408Y-14418930D01*
X12733837Y-14433216D01*
X12690980Y-14433216D01*
X12876694Y-14233216D02*
X12990980Y-14233216D01*
X12919551Y-14133216D02*
X12919551Y-14390359D01*
X12933837Y-14418930D01*
X12962408Y-14433216D01*
X12990980Y-14433216D01*
X13076694Y-14418930D02*
X13105266Y-14433216D01*
X13162408Y-14433216D01*
X13190980Y-14418930D01*
X13205266Y-14390359D01*
X13205266Y-14376073D01*
X13190980Y-14347502D01*
X13162408Y-14333216D01*
X13119551Y-14333216D01*
X13090980Y-14318930D01*
X13076694Y-14290359D01*
X13076694Y-14276073D01*
X13090980Y-14247502D01*
X13119551Y-14233216D01*
X13162408Y-14233216D01*
X13190980Y-14247502D01*
X13305266Y-14547502D02*
X13319551Y-14533216D01*
X13348123Y-14490359D01*
X13362408Y-14461787D01*
X13376694Y-14418930D01*
X13390980Y-14347502D01*
X13390980Y-14290359D01*
X13376694Y-14218930D01*
X13362408Y-14176073D01*
X13348123Y-14147502D01*
X13319551Y-14104644D01*
X13305266Y-14090359D01*
X4390266Y-14693502D02*
G75*
G03X4390266Y-14693502I-50000J0D01*
G01*
X4833837Y-14829216D02*
X4662409Y-14829216D01*
X4748123Y-14829216D02*
X4748123Y-14529216D01*
X4719551Y-14572073D01*
X4690980Y-14600644D01*
X4662409Y-14614930D01*
X4962409Y-14800644D02*
X4976694Y-14814930D01*
X4962409Y-14829216D01*
X4948123Y-14814930D01*
X4962409Y-14800644D01*
X4962409Y-14829216D01*
X5162409Y-14529216D02*
X5190980Y-14529216D01*
X5219551Y-14543502D01*
X5233837Y-14557787D01*
X5248123Y-14586359D01*
X5262409Y-14643502D01*
X5262409Y-14714930D01*
X5248123Y-14772073D01*
X5233837Y-14800644D01*
X5219551Y-14814930D01*
X5190980Y-14829216D01*
X5162409Y-14829216D01*
X5133837Y-14814930D01*
X5119551Y-14800644D01*
X5105266Y-14772073D01*
X5090980Y-14714930D01*
X5090980Y-14643502D01*
X5105266Y-14586359D01*
X5119551Y-14557787D01*
X5133837Y-14543502D01*
X5162409Y-14529216D01*
X5448123Y-14529216D02*
X5476694Y-14529216D01*
X5505266Y-14543502D01*
X5519551Y-14557787D01*
X5533837Y-14586359D01*
X5548123Y-14643502D01*
X5548123Y-14714930D01*
X5533837Y-14772073D01*
X5519551Y-14800644D01*
X5505266Y-14814930D01*
X5476694Y-14829216D01*
X5448123Y-14829216D01*
X5419551Y-14814930D01*
X5405266Y-14800644D01*
X5390980Y-14772073D01*
X5376694Y-14714930D01*
X5376694Y-14643502D01*
X5390980Y-14586359D01*
X5405266Y-14557787D01*
X5419551Y-14543502D01*
X5448123Y-14529216D01*
X5676694Y-14829216D02*
X5676694Y-14629216D01*
X5676694Y-14657787D02*
X5690980Y-14643502D01*
X5719551Y-14629216D01*
X5762408Y-14629216D01*
X5790980Y-14643502D01*
X5805266Y-14672073D01*
X5805266Y-14829216D01*
X5805266Y-14672073D02*
X5819551Y-14643502D01*
X5848123Y-14629216D01*
X5890980Y-14629216D01*
X5919551Y-14643502D01*
X5933837Y-14672073D01*
X5933837Y-14829216D01*
X6076694Y-14829216D02*
X6076694Y-14629216D01*
X6076694Y-14657787D02*
X6090980Y-14643502D01*
X6119551Y-14629216D01*
X6162408Y-14629216D01*
X6190980Y-14643502D01*
X6205266Y-14672073D01*
X6205266Y-14829216D01*
X6205266Y-14672073D02*
X6219551Y-14643502D01*
X6248123Y-14629216D01*
X6290980Y-14629216D01*
X6319551Y-14643502D01*
X6333837Y-14672073D01*
X6333837Y-14829216D01*
X6919551Y-14514930D02*
X6662408Y-14900644D01*
X7305266Y-14529216D02*
X7333837Y-14529216D01*
X7362408Y-14543502D01*
X7376694Y-14557787D01*
X7390980Y-14586359D01*
X7405266Y-14643502D01*
X7405266Y-14714930D01*
X7390980Y-14772073D01*
X7376694Y-14800644D01*
X7362408Y-14814930D01*
X7333837Y-14829216D01*
X7305266Y-14829216D01*
X7276694Y-14814930D01*
X7262408Y-14800644D01*
X7248123Y-14772073D01*
X7233837Y-14714930D01*
X7233837Y-14643502D01*
X7248123Y-14586359D01*
X7262408Y-14557787D01*
X7276694Y-14543502D01*
X7305266Y-14529216D01*
X7533837Y-14800644D02*
X7548123Y-14814930D01*
X7533837Y-14829216D01*
X7519551Y-14814930D01*
X7533837Y-14800644D01*
X7533837Y-14829216D01*
X7733837Y-14529216D02*
X7762408Y-14529216D01*
X7790980Y-14543502D01*
X7805266Y-14557787D01*
X7819551Y-14586359D01*
X7833837Y-14643502D01*
X7833837Y-14714930D01*
X7819551Y-14772073D01*
X7805266Y-14800644D01*
X7790980Y-14814930D01*
X7762408Y-14829216D01*
X7733837Y-14829216D01*
X7705266Y-14814930D01*
X7690980Y-14800644D01*
X7676694Y-14772073D01*
X7662408Y-14714930D01*
X7662408Y-14643502D01*
X7676694Y-14586359D01*
X7690980Y-14557787D01*
X7705266Y-14543502D01*
X7733837Y-14529216D01*
X7933837Y-14529216D02*
X8119551Y-14529216D01*
X8019551Y-14643502D01*
X8062408Y-14643502D01*
X8090980Y-14657787D01*
X8105266Y-14672073D01*
X8119551Y-14700644D01*
X8119551Y-14772073D01*
X8105266Y-14800644D01*
X8090980Y-14814930D01*
X8062408Y-14829216D01*
X7976694Y-14829216D01*
X7948123Y-14814930D01*
X7933837Y-14800644D01*
X8262408Y-14829216D02*
X8319551Y-14829216D01*
X8348123Y-14814930D01*
X8362408Y-14800644D01*
X8390980Y-14757787D01*
X8405266Y-14700644D01*
X8405266Y-14586359D01*
X8390980Y-14557787D01*
X8376694Y-14543502D01*
X8348123Y-14529216D01*
X8290980Y-14529216D01*
X8262408Y-14543502D01*
X8248123Y-14557787D01*
X8233837Y-14586359D01*
X8233837Y-14657787D01*
X8248123Y-14686359D01*
X8262408Y-14700644D01*
X8290980Y-14714930D01*
X8348123Y-14714930D01*
X8376694Y-14700644D01*
X8390980Y-14686359D01*
X8405266Y-14657787D01*
X8519551Y-14529216D02*
X8519551Y-14586359D01*
X8633837Y-14529216D02*
X8633837Y-14586359D01*
X9076694Y-14943502D02*
X9062409Y-14929216D01*
X9033837Y-14886359D01*
X9019551Y-14857787D01*
X9005266Y-14814930D01*
X8990980Y-14743502D01*
X8990980Y-14686359D01*
X9005266Y-14614930D01*
X9019551Y-14572073D01*
X9033837Y-14543502D01*
X9062409Y-14500644D01*
X9076694Y-14486359D01*
X9319551Y-14529216D02*
X9262409Y-14529216D01*
X9233837Y-14543502D01*
X9219551Y-14557787D01*
X9190980Y-14600644D01*
X9176694Y-14657787D01*
X9176694Y-14772073D01*
X9190980Y-14800644D01*
X9205266Y-14814930D01*
X9233837Y-14829216D01*
X9290980Y-14829216D01*
X9319551Y-14814930D01*
X9333837Y-14800644D01*
X9348123Y-14772073D01*
X9348123Y-14700644D01*
X9333837Y-14672073D01*
X9319551Y-14657787D01*
X9290980Y-14643502D01*
X9233837Y-14643502D01*
X9205266Y-14657787D01*
X9190980Y-14672073D01*
X9176694Y-14700644D01*
X9605266Y-14629216D02*
X9605266Y-14829216D01*
X9533837Y-14514930D02*
X9462409Y-14729216D01*
X9648123Y-14729216D01*
X9990980Y-14829216D02*
X9990980Y-14529216D01*
X10119551Y-14829216D02*
X10119551Y-14672073D01*
X10105266Y-14643502D01*
X10076694Y-14629216D01*
X10033837Y-14629216D01*
X10005266Y-14643502D01*
X9990980Y-14657787D01*
X10305266Y-14829216D02*
X10276694Y-14814930D01*
X10262409Y-14800644D01*
X10248123Y-14772073D01*
X10248123Y-14686359D01*
X10262409Y-14657787D01*
X10276694Y-14643502D01*
X10305266Y-14629216D01*
X10348123Y-14629216D01*
X10376694Y-14643502D01*
X10390980Y-14657787D01*
X10405266Y-14686359D01*
X10405266Y-14772073D01*
X10390980Y-14800644D01*
X10376694Y-14814930D01*
X10348123Y-14829216D01*
X10305266Y-14829216D01*
X10576694Y-14829216D02*
X10548123Y-14814930D01*
X10533837Y-14786359D01*
X10533837Y-14529216D01*
X10805266Y-14814930D02*
X10776694Y-14829216D01*
X10719551Y-14829216D01*
X10690980Y-14814930D01*
X10676694Y-14786359D01*
X10676694Y-14672073D01*
X10690980Y-14643502D01*
X10719551Y-14629216D01*
X10776694Y-14629216D01*
X10805266Y-14643502D01*
X10819551Y-14672073D01*
X10819551Y-14700644D01*
X10676694Y-14729216D01*
X10933837Y-14814930D02*
X10962409Y-14829216D01*
X11019551Y-14829216D01*
X11048123Y-14814930D01*
X11062409Y-14786359D01*
X11062409Y-14772073D01*
X11048123Y-14743502D01*
X11019551Y-14729216D01*
X10976694Y-14729216D01*
X10948123Y-14714930D01*
X10933837Y-14686359D01*
X10933837Y-14672073D01*
X10948123Y-14643502D01*
X10976694Y-14629216D01*
X11019551Y-14629216D01*
X11048123Y-14643502D01*
X11162409Y-14943502D02*
X11176694Y-14929216D01*
X11205266Y-14886359D01*
X11219551Y-14857787D01*
X11233837Y-14814930D01*
X11248123Y-14743502D01*
X11248123Y-14686359D01*
X11233837Y-14614930D01*
X11219551Y-14572073D01*
X11205266Y-14543502D01*
X11176694Y-14500644D01*
X11162409Y-14486359D01*
X4335266Y-15034502D02*
X4335266Y-15144502D01*
X4280266Y-15089502D02*
X4390266Y-15089502D01*
X4833837Y-15225216D02*
X4662409Y-15225216D01*
X4748123Y-15225216D02*
X4748123Y-14925216D01*
X4719551Y-14968073D01*
X4690980Y-14996644D01*
X4662409Y-15010930D01*
X4962409Y-15196644D02*
X4976694Y-15210930D01*
X4962409Y-15225216D01*
X4948123Y-15210930D01*
X4962409Y-15196644D01*
X4962409Y-15225216D01*
X5262409Y-15225216D02*
X5090980Y-15225216D01*
X5176694Y-15225216D02*
X5176694Y-14925216D01*
X5148123Y-14968073D01*
X5119551Y-14996644D01*
X5090980Y-15010930D01*
X5448123Y-14925216D02*
X5476694Y-14925216D01*
X5505266Y-14939502D01*
X5519551Y-14953787D01*
X5533837Y-14982359D01*
X5548123Y-15039502D01*
X5548123Y-15110930D01*
X5533837Y-15168073D01*
X5519551Y-15196644D01*
X5505266Y-15210930D01*
X5476694Y-15225216D01*
X5448123Y-15225216D01*
X5419551Y-15210930D01*
X5405266Y-15196644D01*
X5390980Y-15168073D01*
X5376694Y-15110930D01*
X5376694Y-15039502D01*
X5390980Y-14982359D01*
X5405266Y-14953787D01*
X5419551Y-14939502D01*
X5448123Y-14925216D01*
X5676694Y-15225216D02*
X5676694Y-15025216D01*
X5676694Y-15053787D02*
X5690980Y-15039502D01*
X5719551Y-15025216D01*
X5762408Y-15025216D01*
X5790980Y-15039502D01*
X5805266Y-15068073D01*
X5805266Y-15225216D01*
X5805266Y-15068073D02*
X5819551Y-15039502D01*
X5848123Y-15025216D01*
X5890980Y-15025216D01*
X5919551Y-15039502D01*
X5933837Y-15068073D01*
X5933837Y-15225216D01*
X6076694Y-15225216D02*
X6076694Y-15025216D01*
X6076694Y-15053787D02*
X6090980Y-15039502D01*
X6119551Y-15025216D01*
X6162408Y-15025216D01*
X6190980Y-15039502D01*
X6205266Y-15068073D01*
X6205266Y-15225216D01*
X6205266Y-15068073D02*
X6219551Y-15039502D01*
X6248123Y-15025216D01*
X6290980Y-15025216D01*
X6319551Y-15039502D01*
X6333837Y-15068073D01*
X6333837Y-15225216D01*
X6919551Y-14910930D02*
X6662408Y-15296644D01*
X7305266Y-14925216D02*
X7333837Y-14925216D01*
X7362408Y-14939502D01*
X7376694Y-14953787D01*
X7390980Y-14982359D01*
X7405266Y-15039502D01*
X7405266Y-15110930D01*
X7390980Y-15168073D01*
X7376694Y-15196644D01*
X7362408Y-15210930D01*
X7333837Y-15225216D01*
X7305266Y-15225216D01*
X7276694Y-15210930D01*
X7262408Y-15196644D01*
X7248123Y-15168073D01*
X7233837Y-15110930D01*
X7233837Y-15039502D01*
X7248123Y-14982359D01*
X7262408Y-14953787D01*
X7276694Y-14939502D01*
X7305266Y-14925216D01*
X7533837Y-15196644D02*
X7548123Y-15210930D01*
X7533837Y-15225216D01*
X7519551Y-15210930D01*
X7533837Y-15196644D01*
X7533837Y-15225216D01*
X7733837Y-14925216D02*
X7762408Y-14925216D01*
X7790980Y-14939502D01*
X7805266Y-14953787D01*
X7819551Y-14982359D01*
X7833837Y-15039502D01*
X7833837Y-15110930D01*
X7819551Y-15168073D01*
X7805266Y-15196644D01*
X7790980Y-15210930D01*
X7762408Y-15225216D01*
X7733837Y-15225216D01*
X7705266Y-15210930D01*
X7690980Y-15196644D01*
X7676694Y-15168073D01*
X7662408Y-15110930D01*
X7662408Y-15039502D01*
X7676694Y-14982359D01*
X7690980Y-14953787D01*
X7705266Y-14939502D01*
X7733837Y-14925216D01*
X8090980Y-15025216D02*
X8090980Y-15225216D01*
X8019551Y-14910930D02*
X7948123Y-15125216D01*
X8133837Y-15125216D01*
X8219551Y-14925216D02*
X8405266Y-14925216D01*
X8305266Y-15039502D01*
X8348123Y-15039502D01*
X8376694Y-15053787D01*
X8390980Y-15068073D01*
X8405266Y-15096644D01*
X8405266Y-15168073D01*
X8390980Y-15196644D01*
X8376694Y-15210930D01*
X8348123Y-15225216D01*
X8262408Y-15225216D01*
X8233837Y-15210930D01*
X8219551Y-15196644D01*
X8519551Y-14925216D02*
X8519551Y-14982359D01*
X8633837Y-14925216D02*
X8633837Y-14982359D01*
X9076694Y-15339502D02*
X9062409Y-15325216D01*
X9033837Y-15282359D01*
X9019551Y-15253787D01*
X9005266Y-15210930D01*
X8990980Y-15139502D01*
X8990980Y-15082359D01*
X9005266Y-15010930D01*
X9019551Y-14968073D01*
X9033837Y-14939502D01*
X9062409Y-14896644D01*
X9076694Y-14882359D01*
X9319551Y-15025216D02*
X9319551Y-15225216D01*
X9248123Y-14910930D02*
X9176694Y-15125216D01*
X9362409Y-15125216D01*
X9519551Y-15053787D02*
X9490980Y-15039502D01*
X9476694Y-15025216D01*
X9462409Y-14996644D01*
X9462409Y-14982359D01*
X9476694Y-14953787D01*
X9490980Y-14939502D01*
X9519551Y-14925216D01*
X9576694Y-14925216D01*
X9605266Y-14939502D01*
X9619551Y-14953787D01*
X9633837Y-14982359D01*
X9633837Y-14996644D01*
X9619551Y-15025216D01*
X9605266Y-15039502D01*
X9576694Y-15053787D01*
X9519551Y-15053787D01*
X9490980Y-15068073D01*
X9476694Y-15082359D01*
X9462409Y-15110930D01*
X9462409Y-15168073D01*
X9476694Y-15196644D01*
X9490980Y-15210930D01*
X9519551Y-15225216D01*
X9576694Y-15225216D01*
X9605266Y-15210930D01*
X9619551Y-15196644D01*
X9633837Y-15168073D01*
X9633837Y-15110930D01*
X9619551Y-15082359D01*
X9605266Y-15068073D01*
X9576694Y-15053787D01*
X9990980Y-15225216D02*
X9990980Y-14925216D01*
X10119551Y-15225216D02*
X10119551Y-15068073D01*
X10105266Y-15039502D01*
X10076694Y-15025216D01*
X10033837Y-15025216D01*
X10005266Y-15039502D01*
X9990980Y-15053787D01*
X10305266Y-15225216D02*
X10276694Y-15210930D01*
X10262409Y-15196644D01*
X10248123Y-15168073D01*
X10248123Y-15082359D01*
X10262409Y-15053787D01*
X10276694Y-15039502D01*
X10305266Y-15025216D01*
X10348123Y-15025216D01*
X10376694Y-15039502D01*
X10390980Y-15053787D01*
X10405266Y-15082359D01*
X10405266Y-15168073D01*
X10390980Y-15196644D01*
X10376694Y-15210930D01*
X10348123Y-15225216D01*
X10305266Y-15225216D01*
X10576694Y-15225216D02*
X10548123Y-15210930D01*
X10533837Y-15182359D01*
X10533837Y-14925216D01*
X10805266Y-15210930D02*
X10776694Y-15225216D01*
X10719551Y-15225216D01*
X10690980Y-15210930D01*
X10676694Y-15182359D01*
X10676694Y-15068073D01*
X10690980Y-15039502D01*
X10719551Y-15025216D01*
X10776694Y-15025216D01*
X10805266Y-15039502D01*
X10819551Y-15068073D01*
X10819551Y-15096644D01*
X10676694Y-15125216D01*
X10933837Y-15210930D02*
X10962409Y-15225216D01*
X11019551Y-15225216D01*
X11048123Y-15210930D01*
X11062409Y-15182359D01*
X11062409Y-15168073D01*
X11048123Y-15139502D01*
X11019551Y-15125216D01*
X10976694Y-15125216D01*
X10948123Y-15110930D01*
X10933837Y-15082359D01*
X10933837Y-15068073D01*
X10948123Y-15039502D01*
X10976694Y-15025216D01*
X11019551Y-15025216D01*
X11048123Y-15039502D01*
X11162409Y-15339502D02*
X11176694Y-15325216D01*
X11205266Y-15282359D01*
X11219551Y-15253787D01*
X11233837Y-15210930D01*
X11248123Y-15139502D01*
X11248123Y-15082359D01*
X11233837Y-15010930D01*
X11219551Y-14968073D01*
X11205266Y-14939502D01*
X11176694Y-14896644D01*
X11162409Y-14882359D01*
X4368739Y-15537474D02*
X4368739Y-15433529D01*
X4264793Y-15433529D01*
X4264793Y-15537474D01*
X4368739Y-15537474D01*
X4833837Y-15621216D02*
X4662409Y-15621216D01*
X4748123Y-15621216D02*
X4748123Y-15321216D01*
X4719551Y-15364073D01*
X4690980Y-15392644D01*
X4662409Y-15406930D01*
X4962409Y-15592644D02*
X4976694Y-15606930D01*
X4962409Y-15621216D01*
X4948123Y-15606930D01*
X4962409Y-15592644D01*
X4962409Y-15621216D01*
X5233837Y-15421216D02*
X5233837Y-15621216D01*
X5162409Y-15306930D02*
X5090980Y-15521216D01*
X5276694Y-15521216D01*
X5362409Y-15321216D02*
X5562409Y-15321216D01*
X5433837Y-15621216D01*
X5676694Y-15621216D02*
X5676694Y-15421216D01*
X5676694Y-15449787D02*
X5690980Y-15435502D01*
X5719551Y-15421216D01*
X5762408Y-15421216D01*
X5790980Y-15435502D01*
X5805266Y-15464073D01*
X5805266Y-15621216D01*
X5805266Y-15464073D02*
X5819551Y-15435502D01*
X5848123Y-15421216D01*
X5890980Y-15421216D01*
X5919551Y-15435502D01*
X5933837Y-15464073D01*
X5933837Y-15621216D01*
X6076694Y-15621216D02*
X6076694Y-15421216D01*
X6076694Y-15449787D02*
X6090980Y-15435502D01*
X6119551Y-15421216D01*
X6162408Y-15421216D01*
X6190980Y-15435502D01*
X6205266Y-15464073D01*
X6205266Y-15621216D01*
X6205266Y-15464073D02*
X6219551Y-15435502D01*
X6248123Y-15421216D01*
X6290980Y-15421216D01*
X6319551Y-15435502D01*
X6333837Y-15464073D01*
X6333837Y-15621216D01*
X6919551Y-15306930D02*
X6662408Y-15692644D01*
X7305266Y-15321216D02*
X7333837Y-15321216D01*
X7362408Y-15335502D01*
X7376694Y-15349787D01*
X7390980Y-15378359D01*
X7405266Y-15435502D01*
X7405266Y-15506930D01*
X7390980Y-15564073D01*
X7376694Y-15592644D01*
X7362408Y-15606930D01*
X7333837Y-15621216D01*
X7305266Y-15621216D01*
X7276694Y-15606930D01*
X7262408Y-15592644D01*
X7248123Y-15564073D01*
X7233837Y-15506930D01*
X7233837Y-15435502D01*
X7248123Y-15378359D01*
X7262408Y-15349787D01*
X7276694Y-15335502D01*
X7305266Y-15321216D01*
X7533837Y-15592644D02*
X7548123Y-15606930D01*
X7533837Y-15621216D01*
X7519551Y-15606930D01*
X7533837Y-15592644D01*
X7533837Y-15621216D01*
X7733837Y-15321216D02*
X7762408Y-15321216D01*
X7790980Y-15335502D01*
X7805266Y-15349787D01*
X7819551Y-15378359D01*
X7833837Y-15435502D01*
X7833837Y-15506930D01*
X7819551Y-15564073D01*
X7805266Y-15592644D01*
X7790980Y-15606930D01*
X7762408Y-15621216D01*
X7733837Y-15621216D01*
X7705266Y-15606930D01*
X7690980Y-15592644D01*
X7676694Y-15564073D01*
X7662408Y-15506930D01*
X7662408Y-15435502D01*
X7676694Y-15378359D01*
X7690980Y-15349787D01*
X7705266Y-15335502D01*
X7733837Y-15321216D01*
X8105266Y-15321216D02*
X7962408Y-15321216D01*
X7948123Y-15464073D01*
X7962408Y-15449787D01*
X7990980Y-15435502D01*
X8062408Y-15435502D01*
X8090980Y-15449787D01*
X8105266Y-15464073D01*
X8119551Y-15492644D01*
X8119551Y-15564073D01*
X8105266Y-15592644D01*
X8090980Y-15606930D01*
X8062408Y-15621216D01*
X7990980Y-15621216D01*
X7962408Y-15606930D01*
X7948123Y-15592644D01*
X8290980Y-15449787D02*
X8262408Y-15435502D01*
X8248123Y-15421216D01*
X8233837Y-15392644D01*
X8233837Y-15378359D01*
X8248123Y-15349787D01*
X8262408Y-15335502D01*
X8290980Y-15321216D01*
X8348123Y-15321216D01*
X8376694Y-15335502D01*
X8390980Y-15349787D01*
X8405266Y-15378359D01*
X8405266Y-15392644D01*
X8390980Y-15421216D01*
X8376694Y-15435502D01*
X8348123Y-15449787D01*
X8290980Y-15449787D01*
X8262408Y-15464073D01*
X8248123Y-15478359D01*
X8233837Y-15506930D01*
X8233837Y-15564073D01*
X8248123Y-15592644D01*
X8262408Y-15606930D01*
X8290980Y-15621216D01*
X8348123Y-15621216D01*
X8376694Y-15606930D01*
X8390980Y-15592644D01*
X8405266Y-15564073D01*
X8405266Y-15506930D01*
X8390980Y-15478359D01*
X8376694Y-15464073D01*
X8348123Y-15449787D01*
X8519551Y-15321216D02*
X8519551Y-15378359D01*
X8633837Y-15321216D02*
X8633837Y-15378359D01*
X9076694Y-15735502D02*
X9062409Y-15721216D01*
X9033837Y-15678359D01*
X9019551Y-15649787D01*
X9005266Y-15606930D01*
X8990980Y-15535502D01*
X8990980Y-15478359D01*
X9005266Y-15406930D01*
X9019551Y-15364073D01*
X9033837Y-15335502D01*
X9062409Y-15292644D01*
X9076694Y-15278359D01*
X9348123Y-15621216D02*
X9176694Y-15621216D01*
X9262409Y-15621216D02*
X9262409Y-15321216D01*
X9233837Y-15364073D01*
X9205266Y-15392644D01*
X9176694Y-15406930D01*
X9462409Y-15349787D02*
X9476694Y-15335502D01*
X9505266Y-15321216D01*
X9576694Y-15321216D01*
X9605266Y-15335502D01*
X9619551Y-15349787D01*
X9633837Y-15378359D01*
X9633837Y-15406930D01*
X9619551Y-15449787D01*
X9448123Y-15621216D01*
X9633837Y-15621216D01*
X9805266Y-15449787D02*
X9776694Y-15435502D01*
X9762409Y-15421216D01*
X9748123Y-15392644D01*
X9748123Y-15378359D01*
X9762409Y-15349787D01*
X9776694Y-15335502D01*
X9805266Y-15321216D01*
X9862409Y-15321216D01*
X9890980Y-15335502D01*
X9905266Y-15349787D01*
X9919551Y-15378359D01*
X9919551Y-15392644D01*
X9905266Y-15421216D01*
X9890980Y-15435502D01*
X9862409Y-15449787D01*
X9805266Y-15449787D01*
X9776694Y-15464073D01*
X9762409Y-15478359D01*
X9748123Y-15506930D01*
X9748123Y-15564073D01*
X9762409Y-15592644D01*
X9776694Y-15606930D01*
X9805266Y-15621216D01*
X9862409Y-15621216D01*
X9890980Y-15606930D01*
X9905266Y-15592644D01*
X9919551Y-15564073D01*
X9919551Y-15506930D01*
X9905266Y-15478359D01*
X9890980Y-15464073D01*
X9862409Y-15449787D01*
X10276694Y-15621216D02*
X10276694Y-15321216D01*
X10405266Y-15621216D02*
X10405266Y-15464073D01*
X10390980Y-15435502D01*
X10362409Y-15421216D01*
X10319551Y-15421216D01*
X10290980Y-15435502D01*
X10276694Y-15449787D01*
X10590980Y-15621216D02*
X10562409Y-15606930D01*
X10548123Y-15592644D01*
X10533837Y-15564073D01*
X10533837Y-15478359D01*
X10548123Y-15449787D01*
X10562409Y-15435502D01*
X10590980Y-15421216D01*
X10633837Y-15421216D01*
X10662409Y-15435502D01*
X10676694Y-15449787D01*
X10690980Y-15478359D01*
X10690980Y-15564073D01*
X10676694Y-15592644D01*
X10662409Y-15606930D01*
X10633837Y-15621216D01*
X10590980Y-15621216D01*
X10862409Y-15621216D02*
X10833837Y-15606930D01*
X10819551Y-15578359D01*
X10819551Y-15321216D01*
X11090980Y-15606930D02*
X11062409Y-15621216D01*
X11005266Y-15621216D01*
X10976694Y-15606930D01*
X10962409Y-15578359D01*
X10962409Y-15464073D01*
X10976694Y-15435502D01*
X11005266Y-15421216D01*
X11062409Y-15421216D01*
X11090980Y-15435502D01*
X11105266Y-15464073D01*
X11105266Y-15492644D01*
X10962409Y-15521216D01*
X11219551Y-15606930D02*
X11248123Y-15621216D01*
X11305266Y-15621216D01*
X11333837Y-15606930D01*
X11348123Y-15578359D01*
X11348123Y-15564073D01*
X11333837Y-15535502D01*
X11305266Y-15521216D01*
X11262408Y-15521216D01*
X11233837Y-15506930D01*
X11219551Y-15478359D01*
X11219551Y-15464073D01*
X11233837Y-15435502D01*
X11262408Y-15421216D01*
X11305266Y-15421216D01*
X11333837Y-15435502D01*
X11448123Y-15735502D02*
X11462408Y-15721216D01*
X11490980Y-15678359D01*
X11505266Y-15649787D01*
X11519551Y-15606930D01*
X11533837Y-15535502D01*
X11533837Y-15478359D01*
X11519551Y-15406930D01*
X11505266Y-15364073D01*
X11490980Y-15335502D01*
X11462408Y-15292644D01*
X11448123Y-15278359D01*
M02*
