M48
; DRILL file {KiCad (5.1.9)-1} date 01/20/21 21:20:53
; FORMAT={-:-/ absolute / inch / decimal}
; #@! TF.CreationDate,2021-01-20T21:20:53-05:00
; #@! TF.GenerationSoftware,Kicad,Pcbnew,(5.1.9)-1
; #@! TF.FileFunction,Plated,1,2,PTH
FMAT,2
INCH
T1C0.0118
T2C0.0157
T3C0.0320
T4C0.0394
T5C0.0472
T6C0.0579
T7C0.0591
%
G90
G05
T2
X5.845Y-3.63
X6.642Y-4.1954
T3
X5.9135Y-3.7722
X5.9135Y-4.3722
X5.9606Y-3.7211
X5.9606Y-4.3211
X6.0135Y-3.7722
X6.0135Y-4.3722
X6.0606Y-3.7211
X6.0606Y-4.3211
X6.1135Y-3.7722
X6.1135Y-4.3722
X6.1606Y-3.7211
X6.1606Y-4.3211
X6.2135Y-3.7722
X6.2135Y-4.3722
X6.2606Y-3.7211
X6.2606Y-4.3211
X6.3135Y-3.7722
X6.3135Y-4.3722
X6.3606Y-3.7211
X6.3606Y-4.3211
X6.4135Y-3.7722
X6.4135Y-4.3722
X6.4606Y-3.7211
X6.4606Y-4.3211
X6.5135Y-3.7722
X6.5135Y-4.3722
X6.5606Y-3.7211
X6.5606Y-4.3211
X6.6135Y-3.7722
X6.6135Y-4.3722
X6.6606Y-3.7211
X6.6606Y-4.3211
X6.7135Y-3.7722
X6.7135Y-4.3722
X6.7606Y-3.7211
X6.7606Y-4.3211
X6.8135Y-3.7722
X6.8135Y-4.3722
X6.8606Y-3.7211
X6.8606Y-4.3211
X6.9135Y-3.7722
X6.9135Y-4.3722
X6.9606Y-3.7211
X6.9606Y-4.3211
X7.0135Y-3.7722
X7.0135Y-4.3722
X7.0606Y-3.7211
X7.0606Y-4.3211
T4
X6.48Y-3.935
X6.48Y-4.2421
X6.485Y-2.4465
X6.485Y-2.7535
X6.485Y-3.195
X6.485Y-3.5021
X7.235Y-2.4465
X7.235Y-2.7535
X7.235Y-3.1949
X7.235Y-3.502
X7.235Y-3.9499
X7.235Y-4.257
X7.985Y-2.4465
X7.985Y-2.7535
X7.985Y-3.195
X7.985Y-3.5021
X7.985Y-3.945
X7.985Y-4.2521
X8.735Y-2.4465
X8.735Y-2.7535
X8.735Y-3.1949
X8.735Y-3.502
X8.735Y-3.9449
X8.735Y-4.252
X9.485Y-2.4465
X9.485Y-2.7535
X9.485Y-3.1949
X9.485Y-3.502
X9.485Y-3.945
X9.485Y-4.2521
X9.675Y-4.6965
X9.675Y-5.0035
T5
X5.9931Y-2.4454
X5.9931Y-3.1954
X5.9931Y-3.9454
X6.19Y-2.3627
X6.19Y-2.3627
X6.19Y-3.1127
X6.19Y-3.1127
X6.19Y-3.8627
X6.19Y-3.8627
X6.3869Y-2.4454
X6.3869Y-3.1954
X6.3869Y-3.9454
X6.7431Y-2.4454
X6.7431Y-3.1954
X6.7431Y-3.9454
X6.94Y-2.3627
X6.94Y-2.3627
X6.94Y-3.1127
X6.94Y-3.1127
X6.94Y-3.8627
X6.94Y-3.8627
X7.1369Y-2.4454
X7.1369Y-3.1954
X7.1369Y-3.9454
X7.4931Y-2.4454
X7.4931Y-3.1954
X7.4931Y-3.9454
X7.69Y-2.3627
X7.69Y-2.3627
X7.69Y-3.1127
X7.69Y-3.1127
X7.69Y-3.8627
X7.69Y-3.8627
X7.8869Y-2.4454
X7.8869Y-3.1954
X7.8869Y-3.9454
X8.2431Y-2.4454
X8.2431Y-3.1954
X8.2431Y-3.9454
X8.44Y-2.3627
X8.44Y-2.3627
X8.44Y-3.1127
X8.44Y-3.1127
X8.44Y-3.8627
X8.44Y-3.8627
X8.6369Y-2.4454
X8.6369Y-3.1954
X8.6369Y-3.9454
X8.9931Y-2.4454
X8.9931Y-3.1954
X8.9931Y-3.9454
X9.1831Y-4.6954
X9.19Y-2.3627
X9.19Y-2.3627
X9.19Y-3.1127
X9.19Y-3.1127
X9.19Y-3.8627
X9.19Y-3.8627
X9.38Y-4.6127
X9.38Y-4.6127
X9.3869Y-2.4454
X9.3869Y-3.1954
X9.3869Y-3.9454
X9.5769Y-4.6954
T6
X6.04Y-2.495
X6.04Y-3.245
X6.04Y-3.995
X6.09Y-2.395
X6.09Y-3.145
X6.09Y-3.895
X6.0916Y-2.4178
X6.0916Y-2.4375
X6.0916Y-3.1678
X6.0916Y-3.1875
X6.0916Y-3.9178
X6.0916Y-3.9375
X6.2884Y-2.4178
X6.2884Y-2.4375
X6.2884Y-3.1678
X6.2884Y-3.1875
X6.2884Y-3.9178
X6.2884Y-3.9375
X6.29Y-2.395
X6.29Y-3.145
X6.29Y-3.895
X6.34Y-2.495
X6.34Y-3.245
X6.34Y-3.995
X6.79Y-2.495
X6.79Y-3.245
X6.79Y-3.995
X6.84Y-2.395
X6.84Y-3.145
X6.84Y-3.895
X6.8416Y-2.4178
X6.8416Y-2.4375
X6.8416Y-3.1678
X6.8416Y-3.1875
X6.8416Y-3.9178
X6.8416Y-3.9375
X7.0384Y-2.4178
X7.0384Y-2.4375
X7.0384Y-3.1678
X7.0384Y-3.1875
X7.0384Y-3.9178
X7.0384Y-3.9375
X7.04Y-2.395
X7.04Y-3.145
X7.04Y-3.895
X7.09Y-2.495
X7.09Y-3.245
X7.09Y-3.995
X7.54Y-2.495
X7.54Y-3.245
X7.54Y-3.995
X7.59Y-2.395
X7.59Y-3.145
X7.59Y-3.895
X7.5916Y-2.4178
X7.5916Y-2.4375
X7.5916Y-3.1678
X7.5916Y-3.1875
X7.5916Y-3.9178
X7.5916Y-3.9375
X7.7884Y-2.4178
X7.7884Y-2.4375
X7.7884Y-3.1678
X7.7884Y-3.1875
X7.7884Y-3.9178
X7.7884Y-3.9375
X7.79Y-2.395
X7.79Y-3.145
X7.79Y-3.895
X7.84Y-2.495
X7.84Y-3.245
X7.84Y-3.995
X8.29Y-2.495
X8.29Y-3.245
X8.29Y-3.995
X8.34Y-2.395
X8.34Y-3.145
X8.34Y-3.895
X8.3416Y-2.4178
X8.3416Y-2.4375
X8.3416Y-3.1678
X8.3416Y-3.1875
X8.3416Y-3.9178
X8.3416Y-3.9375
X8.5384Y-2.4178
X8.5384Y-2.4375
X8.5384Y-3.1678
X8.5384Y-3.1875
X8.5384Y-3.9178
X8.5384Y-3.9375
X8.54Y-2.395
X8.54Y-3.145
X8.54Y-3.895
X8.59Y-2.495
X8.59Y-3.245
X8.59Y-3.995
X9.04Y-2.495
X9.04Y-3.245
X9.04Y-3.995
X9.09Y-2.395
X9.09Y-3.145
X9.09Y-3.895
X9.0916Y-2.4178
X9.0916Y-2.4375
X9.0916Y-3.1678
X9.0916Y-3.1875
X9.0916Y-3.9178
X9.0916Y-3.9375
X9.23Y-4.745
X9.28Y-4.645
X9.2816Y-4.6678
X9.2816Y-4.6875
X9.2884Y-2.4178
X9.2884Y-2.4375
X9.2884Y-3.1678
X9.2884Y-3.1875
X9.2884Y-3.9178
X9.2884Y-3.9375
X9.29Y-2.395
X9.29Y-3.145
X9.29Y-3.895
X9.34Y-2.495
X9.34Y-3.245
X9.34Y-3.995
X9.4784Y-4.6678
X9.4784Y-4.6875
X9.48Y-4.645
X9.53Y-4.745
T7
X5.93Y-4.57
X6.13Y-4.57
T1
G00X9.181Y-4.3823
M15
G01X9.1298Y-4.3823
M16
G05
G00X9.181Y-4.4788
M15
G01X9.1298Y-4.4788
M16
G05
G00X9.2401Y-4.3134
M15
G01X9.1889Y-4.3134
M16
G05
G00X9.2401Y-4.5477
M15
G01X9.1889Y-4.5477
M16
G05
G00X9.3976Y-4.3134
M15
G01X9.3464Y-4.3134
M16
G05
G00X9.3976Y-4.5477
M15
G01X9.3464Y-4.5477
M16
G05
G00X9.5157Y-4.3134
M15
G01X9.4645Y-4.3134
M16
G05
G00X9.5157Y-4.5477
M15
G01X9.4645Y-4.5477
M16
G05
T0
M30
