%FSLAX45Y45*%
G04 Gerber Fmt 4.5, Leading zero omitted, Abs format (unit mm)*
G04 Created by KiCad (PCBNEW (5.1.4)-1) date 2020-11-17 13:54:00*
%MOMM*%
%LPD*%
G04 APERTURE LIST*
%ADD10C,0.200000*%
%ADD11C,0.300000*%
G04 APERTURE END LIST*
D10*
X2488767Y-10193455D02*
G75*
G02X2788498Y-9893165I300000J290D01*
G01*
X4869685Y-9891303D02*
X2788498Y-9893165D01*
X14651331Y-11582559D02*
G75*
G02X14351600Y-11882827I-300000J-268D01*
G01*
X2790389Y-11893169D02*
X14351600Y-11882827D01*
X2790389Y-11893169D02*
G75*
G02X2490121Y-11593459I-268J300000D01*
G01*
X2488767Y-10193455D02*
X2490121Y-11593459D01*
X4866120Y-5905126D02*
X4869685Y-9891303D01*
X4866120Y-5905126D02*
G75*
G02X5165853Y-5604858I300000J268D01*
G01*
X14345979Y-5596699D02*
G75*
G02X14646245Y-5896431I267J-300000D01*
G01*
X5165853Y-5604858D02*
X14345978Y-5596699D01*
X14646245Y-5896431D02*
G75*
G02X14945975Y-5596162I300000J268D01*
G01*
X24126100Y-5587897D02*
G75*
G02X24426370Y-5887629I270J-300000D01*
G01*
X26511123Y-9871944D02*
G75*
G02X26811392Y-10171697I268J-300000D01*
G01*
X24429936Y-9873806D02*
X26511123Y-9871944D01*
X26812543Y-11571702D02*
G75*
G02X26512811Y-11871948I-300000J-247D01*
G01*
X14951600Y-11882290D02*
G75*
G02X14651331Y-11582559I-268J300000D01*
G01*
X26512811Y-11871948D02*
X14951600Y-11882290D01*
X26811392Y-10171697D02*
X26812543Y-11571702D01*
X24426370Y-5887629D02*
X24429936Y-9873806D01*
X24126100Y-5587897D02*
X14945975Y-5596162D01*
D10*
X4246200Y-10168300D02*
X4336200Y-10258300D01*
X4336200Y-10168300D02*
X4246200Y-10258300D01*
X4326200Y-10233300D02*
X4326200Y-10193300D01*
X4256200Y-10233300D02*
X4256200Y-10193300D01*
X4326200Y-10193300D02*
G75*
G03X4256200Y-10193300I-35000J0D01*
G01*
X4256200Y-10233300D02*
G75*
G03X4326200Y-10233300I35000J0D01*
G01*
X4246200Y-10468300D02*
X4336200Y-10558300D01*
X4336200Y-10468300D02*
X4246200Y-10558300D01*
X4326200Y-10533300D02*
X4326200Y-10493300D01*
X4256200Y-10533300D02*
X4256200Y-10493300D01*
X4326200Y-10493300D02*
G75*
G03X4256200Y-10493300I-35000J0D01*
G01*
X4256200Y-10533300D02*
G75*
G03X4326200Y-10533300I35000J0D01*
G01*
X4246200Y-10868300D02*
X4336200Y-10958300D01*
X4336200Y-10868300D02*
X4246200Y-10958300D01*
X4326200Y-10933300D02*
X4326200Y-10893300D01*
X4256200Y-10933300D02*
X4256200Y-10893300D01*
X4326200Y-10893300D02*
G75*
G03X4256200Y-10893300I-35000J0D01*
G01*
X4256200Y-10933300D02*
G75*
G03X4326200Y-10933300I35000J0D01*
G01*
X4706200Y-10978300D02*
X4796200Y-11068300D01*
X4796200Y-10978300D02*
X4706200Y-11068300D01*
X4786200Y-11043300D02*
X4786200Y-11003300D01*
X4716200Y-11043300D02*
X4716200Y-11003300D01*
X4786200Y-11003300D02*
G75*
G03X4716200Y-11003300I-35000J0D01*
G01*
X4716200Y-11043300D02*
G75*
G03X4786200Y-11043300I35000J0D01*
G01*
X24528100Y-10168300D02*
X24618100Y-10258300D01*
X24618100Y-10168300D02*
X24528100Y-10258300D01*
X24608100Y-10233300D02*
X24608100Y-10193300D01*
X24538100Y-10233300D02*
X24538100Y-10193300D01*
X24608100Y-10193300D02*
G75*
G03X24538100Y-10193300I-35000J0D01*
G01*
X24538100Y-10233300D02*
G75*
G03X24608100Y-10233300I35000J0D01*
G01*
X24528100Y-10468300D02*
X24618100Y-10558300D01*
X24618100Y-10468300D02*
X24528100Y-10558300D01*
X24608100Y-10533300D02*
X24608100Y-10493300D01*
X24538100Y-10533300D02*
X24538100Y-10493300D01*
X24608100Y-10493300D02*
G75*
G03X24538100Y-10493300I-35000J0D01*
G01*
X24538100Y-10533300D02*
G75*
G03X24608100Y-10533300I35000J0D01*
G01*
X24528100Y-10868300D02*
X24618100Y-10958300D01*
X24618100Y-10868300D02*
X24528100Y-10958300D01*
X24608100Y-10933300D02*
X24608100Y-10893300D01*
X24538100Y-10933300D02*
X24538100Y-10893300D01*
X24608100Y-10893300D02*
G75*
G03X24538100Y-10893300I-35000J0D01*
G01*
X24538100Y-10933300D02*
G75*
G03X24608100Y-10933300I35000J0D01*
G01*
X24988100Y-10978300D02*
X25078100Y-11068300D01*
X25078100Y-10978300D02*
X24988100Y-11068300D01*
X25068100Y-11043300D02*
X25068100Y-11003300D01*
X24998100Y-11043300D02*
X24998100Y-11003300D01*
X25068100Y-11003300D02*
G75*
G03X24998100Y-11003300I-35000J0D01*
G01*
X24998100Y-11043300D02*
G75*
G03X25068100Y-11043300I35000J0D01*
G01*
X13223600Y-9118600D02*
G75*
G03X13223600Y-9118600I-50000J0D01*
G01*
X14003600Y-9118600D02*
G75*
G03X14003600Y-9118600I-50000J0D01*
G01*
X15395300Y-11010900D02*
G75*
G03X15395300Y-11010900I-50000J0D01*
G01*
X16175300Y-11010900D02*
G75*
G03X16175300Y-11010900I-50000J0D01*
G01*
X11318600Y-9118600D02*
G75*
G03X11318600Y-9118600I-50000J0D01*
G01*
X12098600Y-9118600D02*
G75*
G03X12098600Y-9118600I-50000J0D01*
G01*
X21097600Y-11010900D02*
G75*
G03X21097600Y-11010900I-50000J0D01*
G01*
X21877600Y-11010900D02*
G75*
G03X21877600Y-11010900I-50000J0D01*
G01*
X19205300Y-9105900D02*
G75*
G03X19205300Y-9105900I-50000J0D01*
G01*
X19985300Y-9105900D02*
G75*
G03X19985300Y-9105900I-50000J0D01*
G01*
X9426300Y-11023600D02*
G75*
G03X9426300Y-11023600I-50000J0D01*
G01*
X10206300Y-11023600D02*
G75*
G03X10206300Y-11023600I-50000J0D01*
G01*
X15382600Y-7200900D02*
G75*
G03X15382600Y-7200900I-50000J0D01*
G01*
X16162600Y-7200900D02*
G75*
G03X16162600Y-7200900I-50000J0D01*
G01*
X3228700Y-11493500D02*
G75*
G03X3228700Y-11493500I-50000J0D01*
G01*
X4008700Y-11493500D02*
G75*
G03X4008700Y-11493500I-50000J0D01*
G01*
X25390200Y-11480800D02*
G75*
G03X25390200Y-11480800I-50000J0D01*
G01*
X26170200Y-11480800D02*
G75*
G03X26170200Y-11480800I-50000J0D01*
G01*
X19192600Y-11010900D02*
G75*
G03X19192600Y-11010900I-50000J0D01*
G01*
X19972600Y-11010900D02*
G75*
G03X19972600Y-11010900I-50000J0D01*
G01*
X5616300Y-9118600D02*
G75*
G03X5616300Y-9118600I-50000J0D01*
G01*
X6396300Y-9118600D02*
G75*
G03X6396300Y-9118600I-50000J0D01*
G01*
X17287600Y-7200900D02*
G75*
G03X17287600Y-7200900I-50000J0D01*
G01*
X18067600Y-7200900D02*
G75*
G03X18067600Y-7200900I-50000J0D01*
G01*
X17300300Y-9105900D02*
G75*
G03X17300300Y-9105900I-50000J0D01*
G01*
X18080300Y-9105900D02*
G75*
G03X18080300Y-9105900I-50000J0D01*
G01*
X5603600Y-11023600D02*
G75*
G03X5603600Y-11023600I-50000J0D01*
G01*
X6383600Y-11023600D02*
G75*
G03X6383600Y-11023600I-50000J0D01*
G01*
X23002600Y-9105900D02*
G75*
G03X23002600Y-9105900I-50000J0D01*
G01*
X23782600Y-9105900D02*
G75*
G03X23782600Y-9105900I-50000J0D01*
G01*
X11318600Y-7213600D02*
G75*
G03X11318600Y-7213600I-50000J0D01*
G01*
X12098600Y-7213600D02*
G75*
G03X12098600Y-7213600I-50000J0D01*
G01*
X21097600Y-9105900D02*
G75*
G03X21097600Y-9105900I-50000J0D01*
G01*
X21877600Y-9105900D02*
G75*
G03X21877600Y-9105900I-50000J0D01*
G01*
X9426300Y-9118600D02*
G75*
G03X9426300Y-9118600I-50000J0D01*
G01*
X10206300Y-9118600D02*
G75*
G03X10206300Y-9118600I-50000J0D01*
G01*
X17300300Y-11010900D02*
G75*
G03X17300300Y-11010900I-50000J0D01*
G01*
X18080300Y-11010900D02*
G75*
G03X18080300Y-11010900I-50000J0D01*
G01*
X7508600Y-11023600D02*
G75*
G03X7508600Y-11023600I-50000J0D01*
G01*
X8288600Y-11023600D02*
G75*
G03X8288600Y-11023600I-50000J0D01*
G01*
X21097600Y-7200900D02*
G75*
G03X21097600Y-7200900I-50000J0D01*
G01*
X21877600Y-7200900D02*
G75*
G03X21877600Y-7200900I-50000J0D01*
G01*
X9413600Y-7213600D02*
G75*
G03X9413600Y-7213600I-50000J0D01*
G01*
X10193600Y-7213600D02*
G75*
G03X10193600Y-7213600I-50000J0D01*
G01*
X7508600Y-7213600D02*
G75*
G03X7508600Y-7213600I-50000J0D01*
G01*
X8288600Y-7213600D02*
G75*
G03X8288600Y-7213600I-50000J0D01*
G01*
X13223600Y-7213600D02*
G75*
G03X13223600Y-7213600I-50000J0D01*
G01*
X14003600Y-7213600D02*
G75*
G03X14003600Y-7213600I-50000J0D01*
G01*
X13236300Y-11023600D02*
G75*
G03X13236300Y-11023600I-50000J0D01*
G01*
X14016300Y-11023600D02*
G75*
G03X14016300Y-11023600I-50000J0D01*
G01*
X15395300Y-9118600D02*
G75*
G03X15395300Y-9118600I-50000J0D01*
G01*
X16175300Y-9118600D02*
G75*
G03X16175300Y-9118600I-50000J0D01*
G01*
X23002600Y-7200900D02*
G75*
G03X23002600Y-7200900I-50000J0D01*
G01*
X23782600Y-7200900D02*
G75*
G03X23782600Y-7200900I-50000J0D01*
G01*
X19192600Y-7200900D02*
G75*
G03X19192600Y-7200900I-50000J0D01*
G01*
X19972600Y-7200900D02*
G75*
G03X19972600Y-7200900I-50000J0D01*
G01*
X11331300Y-11023600D02*
G75*
G03X11331300Y-11023600I-50000J0D01*
G01*
X12111300Y-11023600D02*
G75*
G03X12111300Y-11023600I-50000J0D01*
G01*
X5603600Y-7213600D02*
G75*
G03X5603600Y-7213600I-50000J0D01*
G01*
X6383600Y-7213600D02*
G75*
G03X6383600Y-7213600I-50000J0D01*
G01*
X23015300Y-11010900D02*
G75*
G03X23015300Y-11010900I-50000J0D01*
G01*
X23795300Y-11010900D02*
G75*
G03X23795300Y-11010900I-50000J0D01*
G01*
X7521300Y-9118600D02*
G75*
G03X7521300Y-9118600I-50000J0D01*
G01*
X8301300Y-9118600D02*
G75*
G03X8301300Y-9118600I-50000J0D01*
G01*
X14973300Y-5939400D02*
X14973300Y-6049400D01*
X14918300Y-5994400D02*
X15028300Y-5994400D01*
X14973300Y-6193400D02*
X14973300Y-6303400D01*
X14918300Y-6248400D02*
X15028300Y-6248400D01*
X14973300Y-6447400D02*
X14973300Y-6557400D01*
X14918300Y-6502400D02*
X15028300Y-6502400D01*
X14973300Y-6701400D02*
X14973300Y-6811400D01*
X14918300Y-6756400D02*
X15028300Y-6756400D01*
X14973300Y-6955400D02*
X14973300Y-7065400D01*
X14918300Y-7010400D02*
X15028300Y-7010400D01*
X14973300Y-7209400D02*
X14973300Y-7319400D01*
X14918300Y-7264400D02*
X15028300Y-7264400D01*
X14973300Y-7463400D02*
X14973300Y-7573400D01*
X14918300Y-7518400D02*
X15028300Y-7518400D01*
X14973300Y-7717400D02*
X14973300Y-7827400D01*
X14918300Y-7772400D02*
X15028300Y-7772400D01*
X14973300Y-7971400D02*
X14973300Y-8081400D01*
X14918300Y-8026400D02*
X15028300Y-8026400D01*
X14973300Y-8225400D02*
X14973300Y-8335400D01*
X14918300Y-8280400D02*
X15028300Y-8280400D01*
X14973300Y-8479400D02*
X14973300Y-8589400D01*
X14918300Y-8534400D02*
X15028300Y-8534400D01*
X14973300Y-8733400D02*
X14973300Y-8843400D01*
X14918300Y-8788400D02*
X15028300Y-8788400D01*
X16497300Y-5939400D02*
X16497300Y-6049400D01*
X16442300Y-5994400D02*
X16552300Y-5994400D01*
X16497300Y-6193400D02*
X16497300Y-6303400D01*
X16442300Y-6248400D02*
X16552300Y-6248400D01*
X16497300Y-6447400D02*
X16497300Y-6557400D01*
X16442300Y-6502400D02*
X16552300Y-6502400D01*
X16497300Y-6701400D02*
X16497300Y-6811400D01*
X16442300Y-6756400D02*
X16552300Y-6756400D01*
X16497300Y-6955400D02*
X16497300Y-7065400D01*
X16442300Y-7010400D02*
X16552300Y-7010400D01*
X16497300Y-7209400D02*
X16497300Y-7319400D01*
X16442300Y-7264400D02*
X16552300Y-7264400D01*
X16497300Y-7463400D02*
X16497300Y-7573400D01*
X16442300Y-7518400D02*
X16552300Y-7518400D01*
X16497300Y-7717400D02*
X16497300Y-7827400D01*
X16442300Y-7772400D02*
X16552300Y-7772400D01*
X16497300Y-7971400D02*
X16497300Y-8081400D01*
X16442300Y-8026400D02*
X16552300Y-8026400D01*
X16497300Y-8225400D02*
X16497300Y-8335400D01*
X16442300Y-8280400D02*
X16552300Y-8280400D01*
X16497300Y-8479400D02*
X16497300Y-8589400D01*
X16442300Y-8534400D02*
X16552300Y-8534400D01*
X16497300Y-8733400D02*
X16497300Y-8843400D01*
X16442300Y-8788400D02*
X16552300Y-8788400D01*
X12801600Y-5939400D02*
X12801600Y-6049400D01*
X12746600Y-5994400D02*
X12856600Y-5994400D01*
X12801600Y-6193400D02*
X12801600Y-6303400D01*
X12746600Y-6248400D02*
X12856600Y-6248400D01*
X12801600Y-6447400D02*
X12801600Y-6557400D01*
X12746600Y-6502400D02*
X12856600Y-6502400D01*
X12801600Y-6701400D02*
X12801600Y-6811400D01*
X12746600Y-6756400D02*
X12856600Y-6756400D01*
X12801600Y-6955400D02*
X12801600Y-7065400D01*
X12746600Y-7010400D02*
X12856600Y-7010400D01*
X12801600Y-7209400D02*
X12801600Y-7319400D01*
X12746600Y-7264400D02*
X12856600Y-7264400D01*
X12801600Y-7463400D02*
X12801600Y-7573400D01*
X12746600Y-7518400D02*
X12856600Y-7518400D01*
X12801600Y-7717400D02*
X12801600Y-7827400D01*
X12746600Y-7772400D02*
X12856600Y-7772400D01*
X12801600Y-7971400D02*
X12801600Y-8081400D01*
X12746600Y-8026400D02*
X12856600Y-8026400D01*
X12801600Y-8225400D02*
X12801600Y-8335400D01*
X12746600Y-8280400D02*
X12856600Y-8280400D01*
X12801600Y-8479400D02*
X12801600Y-8589400D01*
X12746600Y-8534400D02*
X12856600Y-8534400D01*
X12801600Y-8733400D02*
X12801600Y-8843400D01*
X12746600Y-8788400D02*
X12856600Y-8788400D01*
X14325600Y-5939400D02*
X14325600Y-6049400D01*
X14270600Y-5994400D02*
X14380600Y-5994400D01*
X14325600Y-6193400D02*
X14325600Y-6303400D01*
X14270600Y-6248400D02*
X14380600Y-6248400D01*
X14325600Y-6447400D02*
X14325600Y-6557400D01*
X14270600Y-6502400D02*
X14380600Y-6502400D01*
X14325600Y-6701400D02*
X14325600Y-6811400D01*
X14270600Y-6756400D02*
X14380600Y-6756400D01*
X14325600Y-6955400D02*
X14325600Y-7065400D01*
X14270600Y-7010400D02*
X14380600Y-7010400D01*
X14325600Y-7209400D02*
X14325600Y-7319400D01*
X14270600Y-7264400D02*
X14380600Y-7264400D01*
X14325600Y-7463400D02*
X14325600Y-7573400D01*
X14270600Y-7518400D02*
X14380600Y-7518400D01*
X14325600Y-7717400D02*
X14325600Y-7827400D01*
X14270600Y-7772400D02*
X14380600Y-7772400D01*
X14325600Y-7971400D02*
X14325600Y-8081400D01*
X14270600Y-8026400D02*
X14380600Y-8026400D01*
X14325600Y-8225400D02*
X14325600Y-8335400D01*
X14270600Y-8280400D02*
X14380600Y-8280400D01*
X14325600Y-8479400D02*
X14325600Y-8589400D01*
X14270600Y-8534400D02*
X14380600Y-8534400D01*
X14325600Y-8733400D02*
X14325600Y-8843400D01*
X14270600Y-8788400D02*
X14380600Y-8788400D01*
X7519573Y-6401973D02*
X7519573Y-6298027D01*
X7415627Y-6298027D01*
X7415627Y-6401973D01*
X7519573Y-6401973D01*
X7650573Y-6255973D02*
X7650573Y-6152027D01*
X7546627Y-6152027D01*
X7546627Y-6255973D01*
X7650573Y-6255973D01*
X8150573Y-6205973D02*
X8150573Y-6102027D01*
X8046627Y-6102027D01*
X8046627Y-6205973D01*
X8150573Y-6205973D01*
X8154573Y-6147973D02*
X8154573Y-6044027D01*
X8050627Y-6044027D01*
X8050627Y-6147973D01*
X8154573Y-6147973D01*
X7532273Y-8306973D02*
X7532273Y-8203027D01*
X7428327Y-8203027D01*
X7428327Y-8306973D01*
X7532273Y-8306973D01*
X7663273Y-8160973D02*
X7663273Y-8057027D01*
X7559327Y-8057027D01*
X7559327Y-8160973D01*
X7663273Y-8160973D01*
X8163273Y-8110973D02*
X8163273Y-8007027D01*
X8059327Y-8007027D01*
X8059327Y-8110973D01*
X8163273Y-8110973D01*
X8167273Y-8052973D02*
X8167273Y-7949027D01*
X8063327Y-7949027D01*
X8063327Y-8052973D01*
X8167273Y-8052973D01*
X11329573Y-8306973D02*
X11329573Y-8203027D01*
X11225627Y-8203027D01*
X11225627Y-8306973D01*
X11329573Y-8306973D01*
X11460573Y-8160973D02*
X11460573Y-8057027D01*
X11356627Y-8057027D01*
X11356627Y-8160973D01*
X11460573Y-8160973D01*
X11960573Y-8110973D02*
X11960573Y-8007027D01*
X11856627Y-8007027D01*
X11856627Y-8110973D01*
X11960573Y-8110973D01*
X11964573Y-8052973D02*
X11964573Y-7949027D01*
X11860627Y-7949027D01*
X11860627Y-8052973D01*
X11964573Y-8052973D01*
X11342273Y-10211973D02*
X11342273Y-10108027D01*
X11238327Y-10108027D01*
X11238327Y-10211973D01*
X11342273Y-10211973D01*
X11473273Y-10065973D02*
X11473273Y-9962027D01*
X11369327Y-9962027D01*
X11369327Y-10065973D01*
X11473273Y-10065973D01*
X11973273Y-10015973D02*
X11973273Y-9912027D01*
X11869327Y-9912027D01*
X11869327Y-10015973D01*
X11973273Y-10015973D01*
X11977273Y-9957973D02*
X11977273Y-9854027D01*
X11873327Y-9854027D01*
X11873327Y-9957973D01*
X11977273Y-9957973D01*
X19203573Y-10199273D02*
X19203573Y-10095327D01*
X19099627Y-10095327D01*
X19099627Y-10199273D01*
X19203573Y-10199273D01*
X19334573Y-10053273D02*
X19334573Y-9949327D01*
X19230627Y-9949327D01*
X19230627Y-10053273D01*
X19334573Y-10053273D01*
X19834573Y-10003273D02*
X19834573Y-9899327D01*
X19730627Y-9899327D01*
X19730627Y-10003273D01*
X19834573Y-10003273D01*
X19838573Y-9945273D02*
X19838573Y-9841327D01*
X19734627Y-9841327D01*
X19734627Y-9945273D01*
X19838573Y-9945273D01*
X13234573Y-6401973D02*
X13234573Y-6298027D01*
X13130627Y-6298027D01*
X13130627Y-6401973D01*
X13234573Y-6401973D01*
X13365573Y-6255973D02*
X13365573Y-6152027D01*
X13261627Y-6152027D01*
X13261627Y-6255973D01*
X13365573Y-6255973D01*
X13865573Y-6205973D02*
X13865573Y-6102027D01*
X13761627Y-6102027D01*
X13761627Y-6205973D01*
X13865573Y-6205973D01*
X13869573Y-6147973D02*
X13869573Y-6044027D01*
X13765627Y-6044027D01*
X13765627Y-6147973D01*
X13869573Y-6147973D01*
X25401173Y-10669173D02*
X25401173Y-10565227D01*
X25297227Y-10565227D01*
X25297227Y-10669173D01*
X25401173Y-10669173D01*
X25532173Y-10523173D02*
X25532173Y-10419227D01*
X25428227Y-10419227D01*
X25428227Y-10523173D01*
X25532173Y-10523173D01*
X26032173Y-10473173D02*
X26032173Y-10369227D01*
X25928227Y-10369227D01*
X25928227Y-10473173D01*
X26032173Y-10473173D01*
X26036173Y-10415173D02*
X26036173Y-10311227D01*
X25932227Y-10311227D01*
X25932227Y-10415173D01*
X26036173Y-10415173D01*
X17311273Y-8294273D02*
X17311273Y-8190327D01*
X17207327Y-8190327D01*
X17207327Y-8294273D01*
X17311273Y-8294273D01*
X17442273Y-8148273D02*
X17442273Y-8044327D01*
X17338327Y-8044327D01*
X17338327Y-8148273D01*
X17442273Y-8148273D01*
X17942273Y-8098273D02*
X17942273Y-7994327D01*
X17838327Y-7994327D01*
X17838327Y-8098273D01*
X17942273Y-8098273D01*
X17946273Y-8040273D02*
X17946273Y-7936327D01*
X17842327Y-7936327D01*
X17842327Y-8040273D01*
X17946273Y-8040273D01*
X17311273Y-10199273D02*
X17311273Y-10095327D01*
X17207327Y-10095327D01*
X17207327Y-10199273D01*
X17311273Y-10199273D01*
X17442273Y-10053273D02*
X17442273Y-9949327D01*
X17338327Y-9949327D01*
X17338327Y-10053273D01*
X17442273Y-10053273D01*
X17942273Y-10003273D02*
X17942273Y-9899327D01*
X17838327Y-9899327D01*
X17838327Y-10003273D01*
X17942273Y-10003273D01*
X17946273Y-9945273D02*
X17946273Y-9841327D01*
X17842327Y-9841327D01*
X17842327Y-9945273D01*
X17946273Y-9945273D01*
X7519573Y-10211973D02*
X7519573Y-10108027D01*
X7415627Y-10108027D01*
X7415627Y-10211973D01*
X7519573Y-10211973D01*
X7650573Y-10065973D02*
X7650573Y-9962027D01*
X7546627Y-9962027D01*
X7546627Y-10065973D01*
X7650573Y-10065973D01*
X8150573Y-10015973D02*
X8150573Y-9912027D01*
X8046627Y-9912027D01*
X8046627Y-10015973D01*
X8150573Y-10015973D01*
X8154573Y-9957973D02*
X8154573Y-9854027D01*
X8050627Y-9854027D01*
X8050627Y-9957973D01*
X8154573Y-9957973D01*
X5614573Y-8306973D02*
X5614573Y-8203027D01*
X5510627Y-8203027D01*
X5510627Y-8306973D01*
X5614573Y-8306973D01*
X5745573Y-8160973D02*
X5745573Y-8057027D01*
X5641627Y-8057027D01*
X5641627Y-8160973D01*
X5745573Y-8160973D01*
X6245573Y-8110973D02*
X6245573Y-8007027D01*
X6141627Y-8007027D01*
X6141627Y-8110973D01*
X6245573Y-8110973D01*
X6249573Y-8052973D02*
X6249573Y-7949027D01*
X6145627Y-7949027D01*
X6145627Y-8052973D01*
X6249573Y-8052973D01*
X9437273Y-10211973D02*
X9437273Y-10108027D01*
X9333327Y-10108027D01*
X9333327Y-10211973D01*
X9437273Y-10211973D01*
X9568273Y-10065973D02*
X9568273Y-9962027D01*
X9464327Y-9962027D01*
X9464327Y-10065973D01*
X9568273Y-10065973D01*
X10068273Y-10015973D02*
X10068273Y-9912027D01*
X9964327Y-9912027D01*
X9964327Y-10015973D01*
X10068273Y-10015973D01*
X10072273Y-9957973D02*
X10072273Y-9854027D01*
X9968327Y-9854027D01*
X9968327Y-9957973D01*
X10072273Y-9957973D01*
X5614573Y-10211973D02*
X5614573Y-10108027D01*
X5510627Y-10108027D01*
X5510627Y-10211973D01*
X5614573Y-10211973D01*
X5745573Y-10065973D02*
X5745573Y-9962027D01*
X5641627Y-9962027D01*
X5641627Y-10065973D01*
X5745573Y-10065973D01*
X6245573Y-10015973D02*
X6245573Y-9912027D01*
X6141627Y-9912027D01*
X6141627Y-10015973D01*
X6245573Y-10015973D01*
X6249573Y-9957973D02*
X6249573Y-9854027D01*
X6145627Y-9854027D01*
X6145627Y-9957973D01*
X6249573Y-9957973D01*
X15406273Y-6389273D02*
X15406273Y-6285327D01*
X15302327Y-6285327D01*
X15302327Y-6389273D01*
X15406273Y-6389273D01*
X15537273Y-6243273D02*
X15537273Y-6139327D01*
X15433327Y-6139327D01*
X15433327Y-6243273D01*
X15537273Y-6243273D01*
X16037273Y-6193273D02*
X16037273Y-6089327D01*
X15933327Y-6089327D01*
X15933327Y-6193273D01*
X16037273Y-6193273D01*
X16041273Y-6135273D02*
X16041273Y-6031327D01*
X15937327Y-6031327D01*
X15937327Y-6135273D01*
X16041273Y-6135273D01*
X15406273Y-8294273D02*
X15406273Y-8190327D01*
X15302327Y-8190327D01*
X15302327Y-8294273D01*
X15406273Y-8294273D01*
X15537273Y-8148273D02*
X15537273Y-8044327D01*
X15433327Y-8044327D01*
X15433327Y-8148273D01*
X15537273Y-8148273D01*
X16037273Y-8098273D02*
X16037273Y-7994327D01*
X15933327Y-7994327D01*
X15933327Y-8098273D01*
X16037273Y-8098273D01*
X16041273Y-8040273D02*
X16041273Y-7936327D01*
X15937327Y-7936327D01*
X15937327Y-8040273D01*
X16041273Y-8040273D01*
X23013573Y-8294273D02*
X23013573Y-8190327D01*
X22909627Y-8190327D01*
X22909627Y-8294273D01*
X23013573Y-8294273D01*
X23144573Y-8148273D02*
X23144573Y-8044327D01*
X23040627Y-8044327D01*
X23040627Y-8148273D01*
X23144573Y-8148273D01*
X23644573Y-8098273D02*
X23644573Y-7994327D01*
X23540627Y-7994327D01*
X23540627Y-8098273D01*
X23644573Y-8098273D01*
X23648573Y-8040273D02*
X23648573Y-7936327D01*
X23544627Y-7936327D01*
X23544627Y-8040273D01*
X23648573Y-8040273D01*
X23013573Y-6389273D02*
X23013573Y-6285327D01*
X22909627Y-6285327D01*
X22909627Y-6389273D01*
X23013573Y-6389273D01*
X23144573Y-6243273D02*
X23144573Y-6139327D01*
X23040627Y-6139327D01*
X23040627Y-6243273D01*
X23144573Y-6243273D01*
X23644573Y-6193273D02*
X23644573Y-6089327D01*
X23540627Y-6089327D01*
X23540627Y-6193273D01*
X23644573Y-6193273D01*
X23648573Y-6135273D02*
X23648573Y-6031327D01*
X23544627Y-6031327D01*
X23544627Y-6135273D01*
X23648573Y-6135273D01*
X15406273Y-10199273D02*
X15406273Y-10095327D01*
X15302327Y-10095327D01*
X15302327Y-10199273D01*
X15406273Y-10199273D01*
X15537273Y-10053273D02*
X15537273Y-9949327D01*
X15433327Y-9949327D01*
X15433327Y-10053273D01*
X15537273Y-10053273D01*
X16037273Y-10003273D02*
X16037273Y-9899327D01*
X15933327Y-9899327D01*
X15933327Y-10003273D01*
X16037273Y-10003273D01*
X16041273Y-9945273D02*
X16041273Y-9841327D01*
X15937327Y-9841327D01*
X15937327Y-9945273D01*
X16041273Y-9945273D01*
X23026273Y-10199273D02*
X23026273Y-10095327D01*
X22922327Y-10095327D01*
X22922327Y-10199273D01*
X23026273Y-10199273D01*
X23157273Y-10053273D02*
X23157273Y-9949327D01*
X23053327Y-9949327D01*
X23053327Y-10053273D01*
X23157273Y-10053273D01*
X23657273Y-10003273D02*
X23657273Y-9899327D01*
X23553327Y-9899327D01*
X23553327Y-10003273D01*
X23657273Y-10003273D01*
X23661273Y-9945273D02*
X23661273Y-9841327D01*
X23557327Y-9841327D01*
X23557327Y-9945273D01*
X23661273Y-9945273D01*
X19203573Y-6389273D02*
X19203573Y-6285327D01*
X19099627Y-6285327D01*
X19099627Y-6389273D01*
X19203573Y-6389273D01*
X19334573Y-6243273D02*
X19334573Y-6139327D01*
X19230627Y-6139327D01*
X19230627Y-6243273D01*
X19334573Y-6243273D01*
X19834573Y-6193273D02*
X19834573Y-6089327D01*
X19730627Y-6089327D01*
X19730627Y-6193273D01*
X19834573Y-6193273D01*
X19838573Y-6135273D02*
X19838573Y-6031327D01*
X19734627Y-6031327D01*
X19734627Y-6135273D01*
X19838573Y-6135273D01*
X11329573Y-6401973D02*
X11329573Y-6298027D01*
X11225627Y-6298027D01*
X11225627Y-6401973D01*
X11329573Y-6401973D01*
X11460573Y-6255973D02*
X11460573Y-6152027D01*
X11356627Y-6152027D01*
X11356627Y-6255973D01*
X11460573Y-6255973D01*
X11960573Y-6205973D02*
X11960573Y-6102027D01*
X11856627Y-6102027D01*
X11856627Y-6205973D01*
X11960573Y-6205973D01*
X11964573Y-6147973D02*
X11964573Y-6044027D01*
X11860627Y-6044027D01*
X11860627Y-6147973D01*
X11964573Y-6147973D01*
X13247273Y-10211973D02*
X13247273Y-10108027D01*
X13143327Y-10108027D01*
X13143327Y-10211973D01*
X13247273Y-10211973D01*
X13378273Y-10065973D02*
X13378273Y-9962027D01*
X13274327Y-9962027D01*
X13274327Y-10065973D01*
X13378273Y-10065973D01*
X13878273Y-10015973D02*
X13878273Y-9912027D01*
X13774327Y-9912027D01*
X13774327Y-10015973D01*
X13878273Y-10015973D01*
X13882273Y-9957973D02*
X13882273Y-9854027D01*
X13778327Y-9854027D01*
X13778327Y-9957973D01*
X13882273Y-9957973D01*
X9437273Y-8306973D02*
X9437273Y-8203027D01*
X9333327Y-8203027D01*
X9333327Y-8306973D01*
X9437273Y-8306973D01*
X9568273Y-8160973D02*
X9568273Y-8057027D01*
X9464327Y-8057027D01*
X9464327Y-8160973D01*
X9568273Y-8160973D01*
X10068273Y-8110973D02*
X10068273Y-8007027D01*
X9964327Y-8007027D01*
X9964327Y-8110973D01*
X10068273Y-8110973D01*
X10072273Y-8052973D02*
X10072273Y-7949027D01*
X9968327Y-7949027D01*
X9968327Y-8052973D01*
X10072273Y-8052973D01*
X3239673Y-10694573D02*
X3239673Y-10590627D01*
X3135727Y-10590627D01*
X3135727Y-10694573D01*
X3239673Y-10694573D01*
X3370673Y-10548573D02*
X3370673Y-10444627D01*
X3266727Y-10444627D01*
X3266727Y-10548573D01*
X3370673Y-10548573D01*
X3870673Y-10498573D02*
X3870673Y-10394627D01*
X3766727Y-10394627D01*
X3766727Y-10498573D01*
X3870673Y-10498573D01*
X3874673Y-10440573D02*
X3874673Y-10336627D01*
X3770727Y-10336627D01*
X3770727Y-10440573D01*
X3874673Y-10440573D01*
X5614573Y-6401973D02*
X5614573Y-6298027D01*
X5510627Y-6298027D01*
X5510627Y-6401973D01*
X5614573Y-6401973D01*
X5745573Y-6255973D02*
X5745573Y-6152027D01*
X5641627Y-6152027D01*
X5641627Y-6255973D01*
X5745573Y-6255973D01*
X6245573Y-6205973D02*
X6245573Y-6102027D01*
X6141627Y-6102027D01*
X6141627Y-6205973D01*
X6245573Y-6205973D01*
X6249573Y-6147973D02*
X6249573Y-6044027D01*
X6145627Y-6044027D01*
X6145627Y-6147973D01*
X6249573Y-6147973D01*
X21108573Y-8294273D02*
X21108573Y-8190327D01*
X21004627Y-8190327D01*
X21004627Y-8294273D01*
X21108573Y-8294273D01*
X21239573Y-8148273D02*
X21239573Y-8044327D01*
X21135627Y-8044327D01*
X21135627Y-8148273D01*
X21239573Y-8148273D01*
X21739573Y-8098273D02*
X21739573Y-7994327D01*
X21635627Y-7994327D01*
X21635627Y-8098273D01*
X21739573Y-8098273D01*
X21743573Y-8040273D02*
X21743573Y-7936327D01*
X21639627Y-7936327D01*
X21639627Y-8040273D01*
X21743573Y-8040273D01*
X17298573Y-6389273D02*
X17298573Y-6285327D01*
X17194627Y-6285327D01*
X17194627Y-6389273D01*
X17298573Y-6389273D01*
X17429573Y-6243273D02*
X17429573Y-6139327D01*
X17325627Y-6139327D01*
X17325627Y-6243273D01*
X17429573Y-6243273D01*
X17929573Y-6193273D02*
X17929573Y-6089327D01*
X17825627Y-6089327D01*
X17825627Y-6193273D01*
X17929573Y-6193273D01*
X17933573Y-6135273D02*
X17933573Y-6031327D01*
X17829627Y-6031327D01*
X17829627Y-6135273D01*
X17933573Y-6135273D01*
X19203573Y-8294273D02*
X19203573Y-8190327D01*
X19099627Y-8190327D01*
X19099627Y-8294273D01*
X19203573Y-8294273D01*
X19334573Y-8148273D02*
X19334573Y-8044327D01*
X19230627Y-8044327D01*
X19230627Y-8148273D01*
X19334573Y-8148273D01*
X19834573Y-8098273D02*
X19834573Y-7994327D01*
X19730627Y-7994327D01*
X19730627Y-8098273D01*
X19834573Y-8098273D01*
X19838573Y-8040273D02*
X19838573Y-7936327D01*
X19734627Y-7936327D01*
X19734627Y-8040273D01*
X19838573Y-8040273D01*
X21108573Y-10199273D02*
X21108573Y-10095327D01*
X21004627Y-10095327D01*
X21004627Y-10199273D01*
X21108573Y-10199273D01*
X21239573Y-10053273D02*
X21239573Y-9949327D01*
X21135627Y-9949327D01*
X21135627Y-10053273D01*
X21239573Y-10053273D01*
X21739573Y-10003273D02*
X21739573Y-9899327D01*
X21635627Y-9899327D01*
X21635627Y-10003273D01*
X21739573Y-10003273D01*
X21743573Y-9945273D02*
X21743573Y-9841327D01*
X21639627Y-9841327D01*
X21639627Y-9945273D01*
X21743573Y-9945273D01*
X21108573Y-6389273D02*
X21108573Y-6285327D01*
X21004627Y-6285327D01*
X21004627Y-6389273D01*
X21108573Y-6389273D01*
X21239573Y-6243273D02*
X21239573Y-6139327D01*
X21135627Y-6139327D01*
X21135627Y-6243273D01*
X21239573Y-6243273D01*
X21739573Y-6193273D02*
X21739573Y-6089327D01*
X21635627Y-6089327D01*
X21635627Y-6193273D01*
X21739573Y-6193273D01*
X21743573Y-6135273D02*
X21743573Y-6031327D01*
X21639627Y-6031327D01*
X21639627Y-6135273D01*
X21743573Y-6135273D01*
X9424573Y-6401973D02*
X9424573Y-6298027D01*
X9320627Y-6298027D01*
X9320627Y-6401973D01*
X9424573Y-6401973D01*
X9555573Y-6255973D02*
X9555573Y-6152027D01*
X9451627Y-6152027D01*
X9451627Y-6255973D01*
X9555573Y-6255973D01*
X10055573Y-6205973D02*
X10055573Y-6102027D01*
X9951627Y-6102027D01*
X9951627Y-6205973D01*
X10055573Y-6205973D01*
X10059573Y-6147973D02*
X10059573Y-6044027D01*
X9955627Y-6044027D01*
X9955627Y-6147973D01*
X10059573Y-6147973D01*
X13234573Y-8306973D02*
X13234573Y-8203027D01*
X13130627Y-8203027D01*
X13130627Y-8306973D01*
X13234573Y-8306973D01*
X13365573Y-8160973D02*
X13365573Y-8057027D01*
X13261627Y-8057027D01*
X13261627Y-8160973D01*
X13365573Y-8160973D01*
X13865573Y-8110973D02*
X13865573Y-8007027D01*
X13761627Y-8007027D01*
X13761627Y-8110973D01*
X13865573Y-8110973D01*
X13869573Y-8052973D02*
X13869573Y-7949027D01*
X13765627Y-7949027D01*
X13765627Y-8052973D01*
X13869573Y-8052973D01*
D11*
X2765195Y-12368883D02*
X2765195Y-12068883D01*
X2836624Y-12068883D01*
X2879481Y-12083169D01*
X2908052Y-12111740D01*
X2922338Y-12140312D01*
X2936624Y-12197455D01*
X2936624Y-12240312D01*
X2922338Y-12297455D01*
X2908052Y-12326026D01*
X2879481Y-12354597D01*
X2836624Y-12368883D01*
X2765195Y-12368883D01*
X3065195Y-12368883D02*
X3065195Y-12168883D01*
X3065195Y-12226026D02*
X3079481Y-12197455D01*
X3093766Y-12183169D01*
X3122338Y-12168883D01*
X3150909Y-12168883D01*
X3250909Y-12368883D02*
X3250909Y-12168883D01*
X3250909Y-12068883D02*
X3236624Y-12083169D01*
X3250909Y-12097455D01*
X3265195Y-12083169D01*
X3250909Y-12068883D01*
X3250909Y-12097455D01*
X3436624Y-12368883D02*
X3408052Y-12354597D01*
X3393766Y-12326026D01*
X3393766Y-12068883D01*
X3593766Y-12368883D02*
X3565195Y-12354597D01*
X3550909Y-12326026D01*
X3550909Y-12068883D01*
X3936624Y-12368883D02*
X3936624Y-12068883D01*
X4036624Y-12283169D01*
X4136624Y-12068883D01*
X4136624Y-12368883D01*
X4408052Y-12368883D02*
X4408052Y-12211740D01*
X4393767Y-12183169D01*
X4365195Y-12168883D01*
X4308052Y-12168883D01*
X4279481Y-12183169D01*
X4408052Y-12354597D02*
X4379481Y-12368883D01*
X4308052Y-12368883D01*
X4279481Y-12354597D01*
X4265195Y-12326026D01*
X4265195Y-12297455D01*
X4279481Y-12268883D01*
X4308052Y-12254597D01*
X4379481Y-12254597D01*
X4408052Y-12240312D01*
X4550909Y-12168883D02*
X4550909Y-12468883D01*
X4550909Y-12183169D02*
X4579481Y-12168883D01*
X4636624Y-12168883D01*
X4665195Y-12183169D01*
X4679481Y-12197455D01*
X4693767Y-12226026D01*
X4693767Y-12311740D01*
X4679481Y-12340312D01*
X4665195Y-12354597D01*
X4636624Y-12368883D01*
X4579481Y-12368883D01*
X4550909Y-12354597D01*
X4822338Y-12340312D02*
X4836624Y-12354597D01*
X4822338Y-12368883D01*
X4808052Y-12354597D01*
X4822338Y-12340312D01*
X4822338Y-12368883D01*
X4822338Y-12183169D02*
X4836624Y-12197455D01*
X4822338Y-12211740D01*
X4808052Y-12197455D01*
X4822338Y-12183169D01*
X4822338Y-12211740D01*
X2388767Y-12818169D02*
X2478767Y-12908169D01*
X2478767Y-12818169D02*
X2388767Y-12908169D01*
X2822338Y-12698883D02*
X2850909Y-12698883D01*
X2879481Y-12713169D01*
X2893766Y-12727455D01*
X2908052Y-12756026D01*
X2922338Y-12813169D01*
X2922338Y-12884597D01*
X2908052Y-12941740D01*
X2893766Y-12970312D01*
X2879481Y-12984597D01*
X2850909Y-12998883D01*
X2822338Y-12998883D01*
X2793767Y-12984597D01*
X2779481Y-12970312D01*
X2765195Y-12941740D01*
X2750909Y-12884597D01*
X2750909Y-12813169D01*
X2765195Y-12756026D01*
X2779481Y-12727455D01*
X2793767Y-12713169D01*
X2822338Y-12698883D01*
X3050909Y-12970312D02*
X3065195Y-12984597D01*
X3050909Y-12998883D01*
X3036624Y-12984597D01*
X3050909Y-12970312D01*
X3050909Y-12998883D01*
X3208052Y-12998883D02*
X3265195Y-12998883D01*
X3293766Y-12984597D01*
X3308052Y-12970312D01*
X3336624Y-12927455D01*
X3350909Y-12870312D01*
X3350909Y-12756026D01*
X3336624Y-12727455D01*
X3322338Y-12713169D01*
X3293766Y-12698883D01*
X3236624Y-12698883D01*
X3208052Y-12713169D01*
X3193766Y-12727455D01*
X3179481Y-12756026D01*
X3179481Y-12827455D01*
X3193766Y-12856026D01*
X3208052Y-12870312D01*
X3236624Y-12884597D01*
X3293766Y-12884597D01*
X3322338Y-12870312D01*
X3336624Y-12856026D01*
X3350909Y-12827455D01*
X3536624Y-12698883D02*
X3565195Y-12698883D01*
X3593766Y-12713169D01*
X3608052Y-12727455D01*
X3622338Y-12756026D01*
X3636624Y-12813169D01*
X3636624Y-12884597D01*
X3622338Y-12941740D01*
X3608052Y-12970312D01*
X3593766Y-12984597D01*
X3565195Y-12998883D01*
X3536624Y-12998883D01*
X3508052Y-12984597D01*
X3493766Y-12970312D01*
X3479481Y-12941740D01*
X3465195Y-12884597D01*
X3465195Y-12813169D01*
X3479481Y-12756026D01*
X3493766Y-12727455D01*
X3508052Y-12713169D01*
X3536624Y-12698883D01*
X3765195Y-12998883D02*
X3765195Y-12798883D01*
X3765195Y-12827455D02*
X3779481Y-12813169D01*
X3808052Y-12798883D01*
X3850909Y-12798883D01*
X3879481Y-12813169D01*
X3893766Y-12841740D01*
X3893766Y-12998883D01*
X3893766Y-12841740D02*
X3908052Y-12813169D01*
X3936624Y-12798883D01*
X3979481Y-12798883D01*
X4008052Y-12813169D01*
X4022338Y-12841740D01*
X4022338Y-12998883D01*
X4165195Y-12998883D02*
X4165195Y-12798883D01*
X4165195Y-12827455D02*
X4179481Y-12813169D01*
X4208052Y-12798883D01*
X4250909Y-12798883D01*
X4279481Y-12813169D01*
X4293767Y-12841740D01*
X4293767Y-12998883D01*
X4293767Y-12841740D02*
X4308052Y-12813169D01*
X4336624Y-12798883D01*
X4379481Y-12798883D01*
X4408052Y-12813169D01*
X4422338Y-12841740D01*
X4422338Y-12998883D01*
X5008052Y-12684597D02*
X4750909Y-13070312D01*
X5393767Y-12698883D02*
X5422338Y-12698883D01*
X5450909Y-12713169D01*
X5465195Y-12727455D01*
X5479481Y-12756026D01*
X5493766Y-12813169D01*
X5493766Y-12884597D01*
X5479481Y-12941740D01*
X5465195Y-12970312D01*
X5450909Y-12984597D01*
X5422338Y-12998883D01*
X5393767Y-12998883D01*
X5365195Y-12984597D01*
X5350909Y-12970312D01*
X5336624Y-12941740D01*
X5322338Y-12884597D01*
X5322338Y-12813169D01*
X5336624Y-12756026D01*
X5350909Y-12727455D01*
X5365195Y-12713169D01*
X5393767Y-12698883D01*
X5622338Y-12970312D02*
X5636624Y-12984597D01*
X5622338Y-12998883D01*
X5608052Y-12984597D01*
X5622338Y-12970312D01*
X5622338Y-12998883D01*
X5822338Y-12698883D02*
X5850909Y-12698883D01*
X5879481Y-12713169D01*
X5893766Y-12727455D01*
X5908052Y-12756026D01*
X5922338Y-12813169D01*
X5922338Y-12884597D01*
X5908052Y-12941740D01*
X5893766Y-12970312D01*
X5879481Y-12984597D01*
X5850909Y-12998883D01*
X5822338Y-12998883D01*
X5793766Y-12984597D01*
X5779481Y-12970312D01*
X5765195Y-12941740D01*
X5750909Y-12884597D01*
X5750909Y-12813169D01*
X5765195Y-12756026D01*
X5779481Y-12727455D01*
X5793766Y-12713169D01*
X5822338Y-12698883D01*
X6022338Y-12698883D02*
X6208052Y-12698883D01*
X6108052Y-12813169D01*
X6150909Y-12813169D01*
X6179481Y-12827455D01*
X6193766Y-12841740D01*
X6208052Y-12870312D01*
X6208052Y-12941740D01*
X6193766Y-12970312D01*
X6179481Y-12984597D01*
X6150909Y-12998883D01*
X6065195Y-12998883D01*
X6036624Y-12984597D01*
X6022338Y-12970312D01*
X6479481Y-12698883D02*
X6336624Y-12698883D01*
X6322338Y-12841740D01*
X6336624Y-12827455D01*
X6365195Y-12813169D01*
X6436624Y-12813169D01*
X6465195Y-12827455D01*
X6479481Y-12841740D01*
X6493766Y-12870312D01*
X6493766Y-12941740D01*
X6479481Y-12970312D01*
X6465195Y-12984597D01*
X6436624Y-12998883D01*
X6365195Y-12998883D01*
X6336624Y-12984597D01*
X6322338Y-12970312D01*
X6608052Y-12698883D02*
X6608052Y-12756026D01*
X6722338Y-12698883D02*
X6722338Y-12756026D01*
X7165195Y-13113169D02*
X7150909Y-13098883D01*
X7122338Y-13056026D01*
X7108052Y-13027455D01*
X7093766Y-12984597D01*
X7079481Y-12913169D01*
X7079481Y-12856026D01*
X7093766Y-12784597D01*
X7108052Y-12741740D01*
X7122338Y-12713169D01*
X7150909Y-12670312D01*
X7165195Y-12656026D01*
X7336624Y-12698883D02*
X7365195Y-12698883D01*
X7393766Y-12713169D01*
X7408052Y-12727455D01*
X7422338Y-12756026D01*
X7436624Y-12813169D01*
X7436624Y-12884597D01*
X7422338Y-12941740D01*
X7408052Y-12970312D01*
X7393766Y-12984597D01*
X7365195Y-12998883D01*
X7336624Y-12998883D01*
X7308052Y-12984597D01*
X7293766Y-12970312D01*
X7279481Y-12941740D01*
X7265195Y-12884597D01*
X7265195Y-12813169D01*
X7279481Y-12756026D01*
X7293766Y-12727455D01*
X7308052Y-12713169D01*
X7336624Y-12698883D01*
X7793766Y-12998883D02*
X7793766Y-12698883D01*
X7922338Y-12998883D02*
X7922338Y-12841740D01*
X7908052Y-12813169D01*
X7879481Y-12798883D01*
X7836624Y-12798883D01*
X7808052Y-12813169D01*
X7793766Y-12827455D01*
X8108052Y-12998883D02*
X8079481Y-12984597D01*
X8065195Y-12970312D01*
X8050909Y-12941740D01*
X8050909Y-12856026D01*
X8065195Y-12827455D01*
X8079481Y-12813169D01*
X8108052Y-12798883D01*
X8150909Y-12798883D01*
X8179481Y-12813169D01*
X8193766Y-12827455D01*
X8208052Y-12856026D01*
X8208052Y-12941740D01*
X8193766Y-12970312D01*
X8179481Y-12984597D01*
X8150909Y-12998883D01*
X8108052Y-12998883D01*
X8379481Y-12998883D02*
X8350909Y-12984597D01*
X8336624Y-12956026D01*
X8336624Y-12698883D01*
X8608052Y-12984597D02*
X8579481Y-12998883D01*
X8522338Y-12998883D01*
X8493767Y-12984597D01*
X8479481Y-12956026D01*
X8479481Y-12841740D01*
X8493767Y-12813169D01*
X8522338Y-12798883D01*
X8579481Y-12798883D01*
X8608052Y-12813169D01*
X8622338Y-12841740D01*
X8622338Y-12870312D01*
X8479481Y-12898883D01*
X8736624Y-12984597D02*
X8765195Y-12998883D01*
X8822338Y-12998883D01*
X8850909Y-12984597D01*
X8865195Y-12956026D01*
X8865195Y-12941740D01*
X8850909Y-12913169D01*
X8822338Y-12898883D01*
X8779481Y-12898883D01*
X8750909Y-12884597D01*
X8736624Y-12856026D01*
X8736624Y-12841740D01*
X8750909Y-12813169D01*
X8779481Y-12798883D01*
X8822338Y-12798883D01*
X8850909Y-12813169D01*
X9222338Y-12884597D02*
X9450909Y-12884597D01*
X9336624Y-12998883D02*
X9336624Y-12770312D01*
X9865195Y-12827455D02*
X9836624Y-12813169D01*
X9822338Y-12798883D01*
X9808052Y-12770312D01*
X9808052Y-12756026D01*
X9822338Y-12727455D01*
X9836624Y-12713169D01*
X9865195Y-12698883D01*
X9922338Y-12698883D01*
X9950909Y-12713169D01*
X9965195Y-12727455D01*
X9979481Y-12756026D01*
X9979481Y-12770312D01*
X9965195Y-12798883D01*
X9950909Y-12813169D01*
X9922338Y-12827455D01*
X9865195Y-12827455D01*
X9836624Y-12841740D01*
X9822338Y-12856026D01*
X9808052Y-12884597D01*
X9808052Y-12941740D01*
X9822338Y-12970312D01*
X9836624Y-12984597D01*
X9865195Y-12998883D01*
X9922338Y-12998883D01*
X9950909Y-12984597D01*
X9965195Y-12970312D01*
X9979481Y-12941740D01*
X9979481Y-12884597D01*
X9965195Y-12856026D01*
X9950909Y-12841740D01*
X9922338Y-12827455D01*
X10322338Y-12984597D02*
X10350909Y-12998883D01*
X10408052Y-12998883D01*
X10436624Y-12984597D01*
X10450909Y-12956026D01*
X10450909Y-12941740D01*
X10436624Y-12913169D01*
X10408052Y-12898883D01*
X10365195Y-12898883D01*
X10336624Y-12884597D01*
X10322338Y-12856026D01*
X10322338Y-12841740D01*
X10336624Y-12813169D01*
X10365195Y-12798883D01*
X10408052Y-12798883D01*
X10436624Y-12813169D01*
X10622338Y-12998883D02*
X10593766Y-12984597D01*
X10579481Y-12956026D01*
X10579481Y-12698883D01*
X10779481Y-12998883D02*
X10750909Y-12984597D01*
X10736624Y-12970312D01*
X10722338Y-12941740D01*
X10722338Y-12856026D01*
X10736624Y-12827455D01*
X10750909Y-12813169D01*
X10779481Y-12798883D01*
X10822338Y-12798883D01*
X10850909Y-12813169D01*
X10865195Y-12827455D01*
X10879481Y-12856026D01*
X10879481Y-12941740D01*
X10865195Y-12970312D01*
X10850909Y-12984597D01*
X10822338Y-12998883D01*
X10779481Y-12998883D01*
X10965195Y-12798883D02*
X11079481Y-12798883D01*
X11008052Y-12698883D02*
X11008052Y-12956026D01*
X11022338Y-12984597D01*
X11050909Y-12998883D01*
X11079481Y-12998883D01*
X11165195Y-12984597D02*
X11193766Y-12998883D01*
X11250909Y-12998883D01*
X11279481Y-12984597D01*
X11293766Y-12956026D01*
X11293766Y-12941740D01*
X11279481Y-12913169D01*
X11250909Y-12898883D01*
X11208052Y-12898883D01*
X11179481Y-12884597D01*
X11165195Y-12856026D01*
X11165195Y-12841740D01*
X11179481Y-12813169D01*
X11208052Y-12798883D01*
X11250909Y-12798883D01*
X11279481Y-12813169D01*
X11393766Y-13113169D02*
X11408052Y-13098883D01*
X11436624Y-13056026D01*
X11450909Y-13027455D01*
X11465195Y-12984597D01*
X11479481Y-12913169D01*
X11479481Y-12856026D01*
X11465195Y-12784597D01*
X11450909Y-12741740D01*
X11436624Y-12713169D01*
X11408052Y-12670312D01*
X11393766Y-12656026D01*
X2478767Y-13259169D02*
G75*
G03X2478767Y-13259169I-50000J0D01*
G01*
X2922338Y-13394883D02*
X2750909Y-13394883D01*
X2836624Y-13394883D02*
X2836624Y-13094883D01*
X2808052Y-13137740D01*
X2779481Y-13166312D01*
X2750909Y-13180597D01*
X3050909Y-13366312D02*
X3065195Y-13380597D01*
X3050909Y-13394883D01*
X3036624Y-13380597D01*
X3050909Y-13366312D01*
X3050909Y-13394883D01*
X3250909Y-13094883D02*
X3279481Y-13094883D01*
X3308052Y-13109169D01*
X3322338Y-13123455D01*
X3336624Y-13152026D01*
X3350909Y-13209169D01*
X3350909Y-13280597D01*
X3336624Y-13337740D01*
X3322338Y-13366312D01*
X3308052Y-13380597D01*
X3279481Y-13394883D01*
X3250909Y-13394883D01*
X3222338Y-13380597D01*
X3208052Y-13366312D01*
X3193766Y-13337740D01*
X3179481Y-13280597D01*
X3179481Y-13209169D01*
X3193766Y-13152026D01*
X3208052Y-13123455D01*
X3222338Y-13109169D01*
X3250909Y-13094883D01*
X3536624Y-13094883D02*
X3565195Y-13094883D01*
X3593766Y-13109169D01*
X3608052Y-13123455D01*
X3622338Y-13152026D01*
X3636624Y-13209169D01*
X3636624Y-13280597D01*
X3622338Y-13337740D01*
X3608052Y-13366312D01*
X3593766Y-13380597D01*
X3565195Y-13394883D01*
X3536624Y-13394883D01*
X3508052Y-13380597D01*
X3493766Y-13366312D01*
X3479481Y-13337740D01*
X3465195Y-13280597D01*
X3465195Y-13209169D01*
X3479481Y-13152026D01*
X3493766Y-13123455D01*
X3508052Y-13109169D01*
X3536624Y-13094883D01*
X3765195Y-13394883D02*
X3765195Y-13194883D01*
X3765195Y-13223455D02*
X3779481Y-13209169D01*
X3808052Y-13194883D01*
X3850909Y-13194883D01*
X3879481Y-13209169D01*
X3893766Y-13237740D01*
X3893766Y-13394883D01*
X3893766Y-13237740D02*
X3908052Y-13209169D01*
X3936624Y-13194883D01*
X3979481Y-13194883D01*
X4008052Y-13209169D01*
X4022338Y-13237740D01*
X4022338Y-13394883D01*
X4165195Y-13394883D02*
X4165195Y-13194883D01*
X4165195Y-13223455D02*
X4179481Y-13209169D01*
X4208052Y-13194883D01*
X4250909Y-13194883D01*
X4279481Y-13209169D01*
X4293767Y-13237740D01*
X4293767Y-13394883D01*
X4293767Y-13237740D02*
X4308052Y-13209169D01*
X4336624Y-13194883D01*
X4379481Y-13194883D01*
X4408052Y-13209169D01*
X4422338Y-13237740D01*
X4422338Y-13394883D01*
X5008052Y-13080597D02*
X4750909Y-13466312D01*
X5393767Y-13094883D02*
X5422338Y-13094883D01*
X5450909Y-13109169D01*
X5465195Y-13123455D01*
X5479481Y-13152026D01*
X5493766Y-13209169D01*
X5493766Y-13280597D01*
X5479481Y-13337740D01*
X5465195Y-13366312D01*
X5450909Y-13380597D01*
X5422338Y-13394883D01*
X5393767Y-13394883D01*
X5365195Y-13380597D01*
X5350909Y-13366312D01*
X5336624Y-13337740D01*
X5322338Y-13280597D01*
X5322338Y-13209169D01*
X5336624Y-13152026D01*
X5350909Y-13123455D01*
X5365195Y-13109169D01*
X5393767Y-13094883D01*
X5622338Y-13366312D02*
X5636624Y-13380597D01*
X5622338Y-13394883D01*
X5608052Y-13380597D01*
X5622338Y-13366312D01*
X5622338Y-13394883D01*
X5822338Y-13094883D02*
X5850909Y-13094883D01*
X5879481Y-13109169D01*
X5893766Y-13123455D01*
X5908052Y-13152026D01*
X5922338Y-13209169D01*
X5922338Y-13280597D01*
X5908052Y-13337740D01*
X5893766Y-13366312D01*
X5879481Y-13380597D01*
X5850909Y-13394883D01*
X5822338Y-13394883D01*
X5793766Y-13380597D01*
X5779481Y-13366312D01*
X5765195Y-13337740D01*
X5750909Y-13280597D01*
X5750909Y-13209169D01*
X5765195Y-13152026D01*
X5779481Y-13123455D01*
X5793766Y-13109169D01*
X5822338Y-13094883D01*
X6022338Y-13094883D02*
X6208052Y-13094883D01*
X6108052Y-13209169D01*
X6150909Y-13209169D01*
X6179481Y-13223455D01*
X6193766Y-13237740D01*
X6208052Y-13266312D01*
X6208052Y-13337740D01*
X6193766Y-13366312D01*
X6179481Y-13380597D01*
X6150909Y-13394883D01*
X6065195Y-13394883D01*
X6036624Y-13380597D01*
X6022338Y-13366312D01*
X6350909Y-13394883D02*
X6408052Y-13394883D01*
X6436624Y-13380597D01*
X6450909Y-13366312D01*
X6479481Y-13323455D01*
X6493766Y-13266312D01*
X6493766Y-13152026D01*
X6479481Y-13123455D01*
X6465195Y-13109169D01*
X6436624Y-13094883D01*
X6379481Y-13094883D01*
X6350909Y-13109169D01*
X6336624Y-13123455D01*
X6322338Y-13152026D01*
X6322338Y-13223455D01*
X6336624Y-13252026D01*
X6350909Y-13266312D01*
X6379481Y-13280597D01*
X6436624Y-13280597D01*
X6465195Y-13266312D01*
X6479481Y-13252026D01*
X6493766Y-13223455D01*
X6608052Y-13094883D02*
X6608052Y-13152026D01*
X6722338Y-13094883D02*
X6722338Y-13152026D01*
X7165195Y-13509169D02*
X7150909Y-13494883D01*
X7122338Y-13452026D01*
X7108052Y-13423455D01*
X7093766Y-13380597D01*
X7079481Y-13309169D01*
X7079481Y-13252026D01*
X7093766Y-13180597D01*
X7108052Y-13137740D01*
X7122338Y-13109169D01*
X7150909Y-13066312D01*
X7165195Y-13052026D01*
X7408052Y-13094883D02*
X7350909Y-13094883D01*
X7322338Y-13109169D01*
X7308052Y-13123455D01*
X7279481Y-13166312D01*
X7265195Y-13223455D01*
X7265195Y-13337740D01*
X7279481Y-13366312D01*
X7293766Y-13380597D01*
X7322338Y-13394883D01*
X7379481Y-13394883D01*
X7408052Y-13380597D01*
X7422338Y-13366312D01*
X7436624Y-13337740D01*
X7436624Y-13266312D01*
X7422338Y-13237740D01*
X7408052Y-13223455D01*
X7379481Y-13209169D01*
X7322338Y-13209169D01*
X7293766Y-13223455D01*
X7279481Y-13237740D01*
X7265195Y-13266312D01*
X7693766Y-13194883D02*
X7693766Y-13394883D01*
X7622338Y-13080597D02*
X7550909Y-13294883D01*
X7736624Y-13294883D01*
X8079481Y-13394883D02*
X8079481Y-13094883D01*
X8208052Y-13394883D02*
X8208052Y-13237740D01*
X8193766Y-13209169D01*
X8165195Y-13194883D01*
X8122338Y-13194883D01*
X8093766Y-13209169D01*
X8079481Y-13223455D01*
X8393767Y-13394883D02*
X8365195Y-13380597D01*
X8350909Y-13366312D01*
X8336624Y-13337740D01*
X8336624Y-13252026D01*
X8350909Y-13223455D01*
X8365195Y-13209169D01*
X8393767Y-13194883D01*
X8436624Y-13194883D01*
X8465195Y-13209169D01*
X8479481Y-13223455D01*
X8493767Y-13252026D01*
X8493767Y-13337740D01*
X8479481Y-13366312D01*
X8465195Y-13380597D01*
X8436624Y-13394883D01*
X8393767Y-13394883D01*
X8665195Y-13394883D02*
X8636624Y-13380597D01*
X8622338Y-13352026D01*
X8622338Y-13094883D01*
X8893767Y-13380597D02*
X8865195Y-13394883D01*
X8808052Y-13394883D01*
X8779481Y-13380597D01*
X8765195Y-13352026D01*
X8765195Y-13237740D01*
X8779481Y-13209169D01*
X8808052Y-13194883D01*
X8865195Y-13194883D01*
X8893767Y-13209169D01*
X8908052Y-13237740D01*
X8908052Y-13266312D01*
X8765195Y-13294883D01*
X9022338Y-13380597D02*
X9050909Y-13394883D01*
X9108052Y-13394883D01*
X9136624Y-13380597D01*
X9150909Y-13352026D01*
X9150909Y-13337740D01*
X9136624Y-13309169D01*
X9108052Y-13294883D01*
X9065195Y-13294883D01*
X9036624Y-13280597D01*
X9022338Y-13252026D01*
X9022338Y-13237740D01*
X9036624Y-13209169D01*
X9065195Y-13194883D01*
X9108052Y-13194883D01*
X9136624Y-13209169D01*
X9250909Y-13509169D02*
X9265195Y-13494883D01*
X9293767Y-13452026D01*
X9308052Y-13423455D01*
X9322338Y-13380597D01*
X9336624Y-13309169D01*
X9336624Y-13252026D01*
X9322338Y-13180597D01*
X9308052Y-13137740D01*
X9293767Y-13109169D01*
X9265195Y-13066312D01*
X9250909Y-13052026D01*
X2423767Y-13600169D02*
X2423767Y-13710169D01*
X2368767Y-13655169D02*
X2478767Y-13655169D01*
X2922338Y-13790883D02*
X2750909Y-13790883D01*
X2836624Y-13790883D02*
X2836624Y-13490883D01*
X2808052Y-13533740D01*
X2779481Y-13562312D01*
X2750909Y-13576597D01*
X3050909Y-13762312D02*
X3065195Y-13776597D01*
X3050909Y-13790883D01*
X3036624Y-13776597D01*
X3050909Y-13762312D01*
X3050909Y-13790883D01*
X3350909Y-13790883D02*
X3179481Y-13790883D01*
X3265195Y-13790883D02*
X3265195Y-13490883D01*
X3236624Y-13533740D01*
X3208052Y-13562312D01*
X3179481Y-13576597D01*
X3536624Y-13490883D02*
X3565195Y-13490883D01*
X3593766Y-13505169D01*
X3608052Y-13519455D01*
X3622338Y-13548026D01*
X3636624Y-13605169D01*
X3636624Y-13676597D01*
X3622338Y-13733740D01*
X3608052Y-13762312D01*
X3593766Y-13776597D01*
X3565195Y-13790883D01*
X3536624Y-13790883D01*
X3508052Y-13776597D01*
X3493766Y-13762312D01*
X3479481Y-13733740D01*
X3465195Y-13676597D01*
X3465195Y-13605169D01*
X3479481Y-13548026D01*
X3493766Y-13519455D01*
X3508052Y-13505169D01*
X3536624Y-13490883D01*
X3765195Y-13790883D02*
X3765195Y-13590883D01*
X3765195Y-13619455D02*
X3779481Y-13605169D01*
X3808052Y-13590883D01*
X3850909Y-13590883D01*
X3879481Y-13605169D01*
X3893766Y-13633740D01*
X3893766Y-13790883D01*
X3893766Y-13633740D02*
X3908052Y-13605169D01*
X3936624Y-13590883D01*
X3979481Y-13590883D01*
X4008052Y-13605169D01*
X4022338Y-13633740D01*
X4022338Y-13790883D01*
X4165195Y-13790883D02*
X4165195Y-13590883D01*
X4165195Y-13619455D02*
X4179481Y-13605169D01*
X4208052Y-13590883D01*
X4250909Y-13590883D01*
X4279481Y-13605169D01*
X4293767Y-13633740D01*
X4293767Y-13790883D01*
X4293767Y-13633740D02*
X4308052Y-13605169D01*
X4336624Y-13590883D01*
X4379481Y-13590883D01*
X4408052Y-13605169D01*
X4422338Y-13633740D01*
X4422338Y-13790883D01*
X5008052Y-13476597D02*
X4750909Y-13862312D01*
X5393767Y-13490883D02*
X5422338Y-13490883D01*
X5450909Y-13505169D01*
X5465195Y-13519455D01*
X5479481Y-13548026D01*
X5493766Y-13605169D01*
X5493766Y-13676597D01*
X5479481Y-13733740D01*
X5465195Y-13762312D01*
X5450909Y-13776597D01*
X5422338Y-13790883D01*
X5393767Y-13790883D01*
X5365195Y-13776597D01*
X5350909Y-13762312D01*
X5336624Y-13733740D01*
X5322338Y-13676597D01*
X5322338Y-13605169D01*
X5336624Y-13548026D01*
X5350909Y-13519455D01*
X5365195Y-13505169D01*
X5393767Y-13490883D01*
X5622338Y-13762312D02*
X5636624Y-13776597D01*
X5622338Y-13790883D01*
X5608052Y-13776597D01*
X5622338Y-13762312D01*
X5622338Y-13790883D01*
X5822338Y-13490883D02*
X5850909Y-13490883D01*
X5879481Y-13505169D01*
X5893766Y-13519455D01*
X5908052Y-13548026D01*
X5922338Y-13605169D01*
X5922338Y-13676597D01*
X5908052Y-13733740D01*
X5893766Y-13762312D01*
X5879481Y-13776597D01*
X5850909Y-13790883D01*
X5822338Y-13790883D01*
X5793766Y-13776597D01*
X5779481Y-13762312D01*
X5765195Y-13733740D01*
X5750909Y-13676597D01*
X5750909Y-13605169D01*
X5765195Y-13548026D01*
X5779481Y-13519455D01*
X5793766Y-13505169D01*
X5822338Y-13490883D01*
X6179481Y-13590883D02*
X6179481Y-13790883D01*
X6108052Y-13476597D02*
X6036624Y-13690883D01*
X6222338Y-13690883D01*
X6308052Y-13490883D02*
X6493766Y-13490883D01*
X6393766Y-13605169D01*
X6436624Y-13605169D01*
X6465195Y-13619455D01*
X6479481Y-13633740D01*
X6493766Y-13662312D01*
X6493766Y-13733740D01*
X6479481Y-13762312D01*
X6465195Y-13776597D01*
X6436624Y-13790883D01*
X6350909Y-13790883D01*
X6322338Y-13776597D01*
X6308052Y-13762312D01*
X6608052Y-13490883D02*
X6608052Y-13548026D01*
X6722338Y-13490883D02*
X6722338Y-13548026D01*
X7165195Y-13905169D02*
X7150909Y-13890883D01*
X7122338Y-13848026D01*
X7108052Y-13819455D01*
X7093766Y-13776597D01*
X7079481Y-13705169D01*
X7079481Y-13648026D01*
X7093766Y-13576597D01*
X7108052Y-13533740D01*
X7122338Y-13505169D01*
X7150909Y-13462312D01*
X7165195Y-13448026D01*
X7408052Y-13590883D02*
X7408052Y-13790883D01*
X7336624Y-13476597D02*
X7265195Y-13690883D01*
X7450909Y-13690883D01*
X7608052Y-13619455D02*
X7579481Y-13605169D01*
X7565195Y-13590883D01*
X7550909Y-13562312D01*
X7550909Y-13548026D01*
X7565195Y-13519455D01*
X7579481Y-13505169D01*
X7608052Y-13490883D01*
X7665195Y-13490883D01*
X7693766Y-13505169D01*
X7708052Y-13519455D01*
X7722338Y-13548026D01*
X7722338Y-13562312D01*
X7708052Y-13590883D01*
X7693766Y-13605169D01*
X7665195Y-13619455D01*
X7608052Y-13619455D01*
X7579481Y-13633740D01*
X7565195Y-13648026D01*
X7550909Y-13676597D01*
X7550909Y-13733740D01*
X7565195Y-13762312D01*
X7579481Y-13776597D01*
X7608052Y-13790883D01*
X7665195Y-13790883D01*
X7693766Y-13776597D01*
X7708052Y-13762312D01*
X7722338Y-13733740D01*
X7722338Y-13676597D01*
X7708052Y-13648026D01*
X7693766Y-13633740D01*
X7665195Y-13619455D01*
X8079481Y-13790883D02*
X8079481Y-13490883D01*
X8208052Y-13790883D02*
X8208052Y-13633740D01*
X8193766Y-13605169D01*
X8165195Y-13590883D01*
X8122338Y-13590883D01*
X8093766Y-13605169D01*
X8079481Y-13619455D01*
X8393767Y-13790883D02*
X8365195Y-13776597D01*
X8350909Y-13762312D01*
X8336624Y-13733740D01*
X8336624Y-13648026D01*
X8350909Y-13619455D01*
X8365195Y-13605169D01*
X8393767Y-13590883D01*
X8436624Y-13590883D01*
X8465195Y-13605169D01*
X8479481Y-13619455D01*
X8493767Y-13648026D01*
X8493767Y-13733740D01*
X8479481Y-13762312D01*
X8465195Y-13776597D01*
X8436624Y-13790883D01*
X8393767Y-13790883D01*
X8665195Y-13790883D02*
X8636624Y-13776597D01*
X8622338Y-13748026D01*
X8622338Y-13490883D01*
X8893767Y-13776597D02*
X8865195Y-13790883D01*
X8808052Y-13790883D01*
X8779481Y-13776597D01*
X8765195Y-13748026D01*
X8765195Y-13633740D01*
X8779481Y-13605169D01*
X8808052Y-13590883D01*
X8865195Y-13590883D01*
X8893767Y-13605169D01*
X8908052Y-13633740D01*
X8908052Y-13662312D01*
X8765195Y-13690883D01*
X9022338Y-13776597D02*
X9050909Y-13790883D01*
X9108052Y-13790883D01*
X9136624Y-13776597D01*
X9150909Y-13748026D01*
X9150909Y-13733740D01*
X9136624Y-13705169D01*
X9108052Y-13690883D01*
X9065195Y-13690883D01*
X9036624Y-13676597D01*
X9022338Y-13648026D01*
X9022338Y-13633740D01*
X9036624Y-13605169D01*
X9065195Y-13590883D01*
X9108052Y-13590883D01*
X9136624Y-13605169D01*
X9250909Y-13905169D02*
X9265195Y-13890883D01*
X9293767Y-13848026D01*
X9308052Y-13819455D01*
X9322338Y-13776597D01*
X9336624Y-13705169D01*
X9336624Y-13648026D01*
X9322338Y-13576597D01*
X9308052Y-13533740D01*
X9293767Y-13505169D01*
X9265195Y-13462312D01*
X9250909Y-13448026D01*
X2457239Y-14103142D02*
X2457239Y-13999196D01*
X2353294Y-13999196D01*
X2353294Y-14103142D01*
X2457239Y-14103142D01*
X2922338Y-14186883D02*
X2750909Y-14186883D01*
X2836624Y-14186883D02*
X2836624Y-13886883D01*
X2808052Y-13929740D01*
X2779481Y-13958312D01*
X2750909Y-13972597D01*
X3050909Y-14158312D02*
X3065195Y-14172597D01*
X3050909Y-14186883D01*
X3036624Y-14172597D01*
X3050909Y-14158312D01*
X3050909Y-14186883D01*
X3322338Y-13986883D02*
X3322338Y-14186883D01*
X3250909Y-13872597D02*
X3179481Y-14086883D01*
X3365195Y-14086883D01*
X3450909Y-13886883D02*
X3650909Y-13886883D01*
X3522338Y-14186883D01*
X3765195Y-14186883D02*
X3765195Y-13986883D01*
X3765195Y-14015455D02*
X3779481Y-14001169D01*
X3808052Y-13986883D01*
X3850909Y-13986883D01*
X3879481Y-14001169D01*
X3893766Y-14029740D01*
X3893766Y-14186883D01*
X3893766Y-14029740D02*
X3908052Y-14001169D01*
X3936624Y-13986883D01*
X3979481Y-13986883D01*
X4008052Y-14001169D01*
X4022338Y-14029740D01*
X4022338Y-14186883D01*
X4165195Y-14186883D02*
X4165195Y-13986883D01*
X4165195Y-14015455D02*
X4179481Y-14001169D01*
X4208052Y-13986883D01*
X4250909Y-13986883D01*
X4279481Y-14001169D01*
X4293767Y-14029740D01*
X4293767Y-14186883D01*
X4293767Y-14029740D02*
X4308052Y-14001169D01*
X4336624Y-13986883D01*
X4379481Y-13986883D01*
X4408052Y-14001169D01*
X4422338Y-14029740D01*
X4422338Y-14186883D01*
X5008052Y-13872597D02*
X4750909Y-14258312D01*
X5393767Y-13886883D02*
X5422338Y-13886883D01*
X5450909Y-13901169D01*
X5465195Y-13915455D01*
X5479481Y-13944026D01*
X5493766Y-14001169D01*
X5493766Y-14072597D01*
X5479481Y-14129740D01*
X5465195Y-14158312D01*
X5450909Y-14172597D01*
X5422338Y-14186883D01*
X5393767Y-14186883D01*
X5365195Y-14172597D01*
X5350909Y-14158312D01*
X5336624Y-14129740D01*
X5322338Y-14072597D01*
X5322338Y-14001169D01*
X5336624Y-13944026D01*
X5350909Y-13915455D01*
X5365195Y-13901169D01*
X5393767Y-13886883D01*
X5622338Y-14158312D02*
X5636624Y-14172597D01*
X5622338Y-14186883D01*
X5608052Y-14172597D01*
X5622338Y-14158312D01*
X5622338Y-14186883D01*
X5822338Y-13886883D02*
X5850909Y-13886883D01*
X5879481Y-13901169D01*
X5893766Y-13915455D01*
X5908052Y-13944026D01*
X5922338Y-14001169D01*
X5922338Y-14072597D01*
X5908052Y-14129740D01*
X5893766Y-14158312D01*
X5879481Y-14172597D01*
X5850909Y-14186883D01*
X5822338Y-14186883D01*
X5793766Y-14172597D01*
X5779481Y-14158312D01*
X5765195Y-14129740D01*
X5750909Y-14072597D01*
X5750909Y-14001169D01*
X5765195Y-13944026D01*
X5779481Y-13915455D01*
X5793766Y-13901169D01*
X5822338Y-13886883D01*
X6193766Y-13886883D02*
X6050909Y-13886883D01*
X6036624Y-14029740D01*
X6050909Y-14015455D01*
X6079481Y-14001169D01*
X6150909Y-14001169D01*
X6179481Y-14015455D01*
X6193766Y-14029740D01*
X6208052Y-14058312D01*
X6208052Y-14129740D01*
X6193766Y-14158312D01*
X6179481Y-14172597D01*
X6150909Y-14186883D01*
X6079481Y-14186883D01*
X6050909Y-14172597D01*
X6036624Y-14158312D01*
X6379481Y-14015455D02*
X6350909Y-14001169D01*
X6336624Y-13986883D01*
X6322338Y-13958312D01*
X6322338Y-13944026D01*
X6336624Y-13915455D01*
X6350909Y-13901169D01*
X6379481Y-13886883D01*
X6436624Y-13886883D01*
X6465195Y-13901169D01*
X6479481Y-13915455D01*
X6493766Y-13944026D01*
X6493766Y-13958312D01*
X6479481Y-13986883D01*
X6465195Y-14001169D01*
X6436624Y-14015455D01*
X6379481Y-14015455D01*
X6350909Y-14029740D01*
X6336624Y-14044026D01*
X6322338Y-14072597D01*
X6322338Y-14129740D01*
X6336624Y-14158312D01*
X6350909Y-14172597D01*
X6379481Y-14186883D01*
X6436624Y-14186883D01*
X6465195Y-14172597D01*
X6479481Y-14158312D01*
X6493766Y-14129740D01*
X6493766Y-14072597D01*
X6479481Y-14044026D01*
X6465195Y-14029740D01*
X6436624Y-14015455D01*
X6608052Y-13886883D02*
X6608052Y-13944026D01*
X6722338Y-13886883D02*
X6722338Y-13944026D01*
X7165195Y-14301169D02*
X7150909Y-14286883D01*
X7122338Y-14244026D01*
X7108052Y-14215455D01*
X7093766Y-14172597D01*
X7079481Y-14101169D01*
X7079481Y-14044026D01*
X7093766Y-13972597D01*
X7108052Y-13929740D01*
X7122338Y-13901169D01*
X7150909Y-13858312D01*
X7165195Y-13844026D01*
X7436624Y-14186883D02*
X7265195Y-14186883D01*
X7350909Y-14186883D02*
X7350909Y-13886883D01*
X7322338Y-13929740D01*
X7293766Y-13958312D01*
X7265195Y-13972597D01*
X7550909Y-13915455D02*
X7565195Y-13901169D01*
X7593766Y-13886883D01*
X7665195Y-13886883D01*
X7693766Y-13901169D01*
X7708052Y-13915455D01*
X7722338Y-13944026D01*
X7722338Y-13972597D01*
X7708052Y-14015455D01*
X7536624Y-14186883D01*
X7722338Y-14186883D01*
X7893766Y-14015455D02*
X7865195Y-14001169D01*
X7850909Y-13986883D01*
X7836624Y-13958312D01*
X7836624Y-13944026D01*
X7850909Y-13915455D01*
X7865195Y-13901169D01*
X7893766Y-13886883D01*
X7950909Y-13886883D01*
X7979481Y-13901169D01*
X7993766Y-13915455D01*
X8008052Y-13944026D01*
X8008052Y-13958312D01*
X7993766Y-13986883D01*
X7979481Y-14001169D01*
X7950909Y-14015455D01*
X7893766Y-14015455D01*
X7865195Y-14029740D01*
X7850909Y-14044026D01*
X7836624Y-14072597D01*
X7836624Y-14129740D01*
X7850909Y-14158312D01*
X7865195Y-14172597D01*
X7893766Y-14186883D01*
X7950909Y-14186883D01*
X7979481Y-14172597D01*
X7993766Y-14158312D01*
X8008052Y-14129740D01*
X8008052Y-14072597D01*
X7993766Y-14044026D01*
X7979481Y-14029740D01*
X7950909Y-14015455D01*
X8365195Y-14186883D02*
X8365195Y-13886883D01*
X8493767Y-14186883D02*
X8493767Y-14029740D01*
X8479481Y-14001169D01*
X8450909Y-13986883D01*
X8408052Y-13986883D01*
X8379481Y-14001169D01*
X8365195Y-14015455D01*
X8679481Y-14186883D02*
X8650909Y-14172597D01*
X8636624Y-14158312D01*
X8622338Y-14129740D01*
X8622338Y-14044026D01*
X8636624Y-14015455D01*
X8650909Y-14001169D01*
X8679481Y-13986883D01*
X8722338Y-13986883D01*
X8750909Y-14001169D01*
X8765195Y-14015455D01*
X8779481Y-14044026D01*
X8779481Y-14129740D01*
X8765195Y-14158312D01*
X8750909Y-14172597D01*
X8722338Y-14186883D01*
X8679481Y-14186883D01*
X8950909Y-14186883D02*
X8922338Y-14172597D01*
X8908052Y-14144026D01*
X8908052Y-13886883D01*
X9179481Y-14172597D02*
X9150909Y-14186883D01*
X9093767Y-14186883D01*
X9065195Y-14172597D01*
X9050909Y-14144026D01*
X9050909Y-14029740D01*
X9065195Y-14001169D01*
X9093767Y-13986883D01*
X9150909Y-13986883D01*
X9179481Y-14001169D01*
X9193767Y-14029740D01*
X9193767Y-14058312D01*
X9050909Y-14086883D01*
X9308052Y-14172597D02*
X9336624Y-14186883D01*
X9393767Y-14186883D01*
X9422338Y-14172597D01*
X9436624Y-14144026D01*
X9436624Y-14129740D01*
X9422338Y-14101169D01*
X9393767Y-14086883D01*
X9350909Y-14086883D01*
X9322338Y-14072597D01*
X9308052Y-14044026D01*
X9308052Y-14029740D01*
X9322338Y-14001169D01*
X9350909Y-13986883D01*
X9393767Y-13986883D01*
X9422338Y-14001169D01*
X9536624Y-14301169D02*
X9550909Y-14286883D01*
X9579481Y-14244026D01*
X9593767Y-14215455D01*
X9608052Y-14172597D01*
X9622338Y-14101169D01*
X9622338Y-14044026D01*
X9608052Y-13972597D01*
X9593767Y-13929740D01*
X9579481Y-13901169D01*
X9550909Y-13858312D01*
X9536624Y-13844026D01*
M02*
