%FSLAX45Y45*%
G04 Gerber Fmt 4.5, Leading zero omitted, Abs format (unit mm)*
G04 Created by KiCad (PCBNEW (5.1.4)-1) date 2020-11-18 14:17:56*
%MOMM*%
%LPD*%
G04 APERTURE LIST*
%ADD10C,0.200000*%
%ADD11C,0.300000*%
G04 APERTURE END LIST*
D10*
X24426370Y-5887629D02*
X24431221Y-11309754D01*
X4866120Y-5905126D02*
X4870970Y-11327252D01*
X6562717Y-13024174D02*
G75*
G02X6263255Y-13324710I-300000J-537D01*
G01*
X6560688Y-11889796D02*
X6562717Y-13024174D01*
X4400266Y-11628094D02*
G75*
G02X4699729Y-11327558I300000J537D01*
G01*
X4402771Y-13028038D02*
X4400266Y-11628094D01*
X4870970Y-11327252D02*
X4699729Y-11327558D01*
X4703307Y-13327501D02*
G75*
G02X4402771Y-13028038I-537J300000D01*
G01*
X6263255Y-13324710D02*
X4703307Y-13327501D01*
X14651331Y-11582559D02*
G75*
G02X14351600Y-11882827I-300000J-268D01*
G01*
X6560688Y-11889796D02*
X14351600Y-11882827D01*
X4866120Y-5905126D02*
G75*
G02X5165853Y-5604858I300000J268D01*
G01*
X14345979Y-5596699D02*
G75*
G02X14646245Y-5896431I267J-300000D01*
G01*
X5165853Y-5604858D02*
X14345978Y-5596699D01*
X24602462Y-11309754D02*
G75*
G02X24902462Y-11609754I0J-300000D01*
G01*
X24902462Y-13009700D02*
G75*
G02X24602462Y-13309700I-300000J0D01*
G01*
X23042512Y-13309700D02*
G75*
G02X22742512Y-13009700I0J300000D01*
G01*
X22742512Y-11875321D02*
X22742512Y-13009700D01*
X24902462Y-13009700D02*
X24902462Y-11609754D01*
X24431221Y-11309754D02*
X24602462Y-11309754D01*
X22742512Y-11875321D02*
X14951600Y-11882290D01*
X23042512Y-13309700D02*
X24602462Y-13309700D01*
X14646245Y-5896431D02*
G75*
G02X14945975Y-5596162I300000J268D01*
G01*
X24126100Y-5587897D02*
G75*
G02X24426370Y-5887629I270J-300000D01*
G01*
X14951600Y-11882290D02*
G75*
G02X14651331Y-11582559I-268J300000D01*
G01*
X24126100Y-5587897D02*
X14945975Y-5596162D01*
D10*
X23522100Y-10945500D02*
X23602100Y-11025500D01*
X23602100Y-10945500D02*
X23522100Y-11025500D01*
X24222100Y-10945500D02*
X24302100Y-11025500D01*
X24302100Y-10945500D02*
X24222100Y-11025500D01*
X4996800Y-10983600D02*
X5076800Y-11063600D01*
X5076800Y-10983600D02*
X4996800Y-11063600D01*
X5696800Y-10983600D02*
X5776800Y-11063600D01*
X5776800Y-10983600D02*
X5696800Y-11063600D01*
X21017100Y-8496300D02*
G75*
G03X21017100Y-8496300I-87500J0D01*
G01*
X22033100Y-8496300D02*
G75*
G03X22033100Y-8496300I-87500J0D01*
G01*
X19112100Y-10401300D02*
G75*
G03X19112100Y-10401300I-87500J0D01*
G01*
X20128100Y-10401300D02*
G75*
G03X20128100Y-10401300I-87500J0D01*
G01*
X5059500Y-12329000D02*
G75*
G03X5059500Y-12329000I-87500J0D01*
G01*
X6075500Y-12329000D02*
G75*
G03X6075500Y-12329000I-87500J0D01*
G01*
X9345800Y-10414000D02*
G75*
G03X9345800Y-10414000I-87500J0D01*
G01*
X10361800Y-10414000D02*
G75*
G03X10361800Y-10414000I-87500J0D01*
G01*
X23404700Y-12306300D02*
G75*
G03X23404700Y-12306300I-87500J0D01*
G01*
X24420700Y-12306300D02*
G75*
G03X24420700Y-12306300I-87500J0D01*
G01*
X15314800Y-8496300D02*
G75*
G03X15314800Y-8496300I-87500J0D01*
G01*
X16330800Y-8496300D02*
G75*
G03X16330800Y-8496300I-87500J0D01*
G01*
X13143100Y-8509000D02*
G75*
G03X13143100Y-8509000I-87500J0D01*
G01*
X14159100Y-8509000D02*
G75*
G03X14159100Y-8509000I-87500J0D01*
G01*
X17219800Y-8496300D02*
G75*
G03X17219800Y-8496300I-87500J0D01*
G01*
X18235800Y-8496300D02*
G75*
G03X18235800Y-8496300I-87500J0D01*
G01*
X15314800Y-10401300D02*
G75*
G03X15314800Y-10401300I-87500J0D01*
G01*
X16330800Y-10401300D02*
G75*
G03X16330800Y-10401300I-87500J0D01*
G01*
X5523100Y-6604000D02*
G75*
G03X5523100Y-6604000I-87500J0D01*
G01*
X6539100Y-6604000D02*
G75*
G03X6539100Y-6604000I-87500J0D01*
G01*
X22934800Y-10401300D02*
G75*
G03X22934800Y-10401300I-87500J0D01*
G01*
X23950800Y-10401300D02*
G75*
G03X23950800Y-10401300I-87500J0D01*
G01*
X5523100Y-10414000D02*
G75*
G03X5523100Y-10414000I-87500J0D01*
G01*
X6539100Y-10414000D02*
G75*
G03X6539100Y-10414000I-87500J0D01*
G01*
X11238100Y-6604000D02*
G75*
G03X11238100Y-6604000I-87500J0D01*
G01*
X12254100Y-6604000D02*
G75*
G03X12254100Y-6604000I-87500J0D01*
G01*
X9333100Y-6604000D02*
G75*
G03X9333100Y-6604000I-87500J0D01*
G01*
X10349100Y-6604000D02*
G75*
G03X10349100Y-6604000I-87500J0D01*
G01*
X11238100Y-8509000D02*
G75*
G03X11238100Y-8509000I-87500J0D01*
G01*
X12254100Y-8509000D02*
G75*
G03X12254100Y-8509000I-87500J0D01*
G01*
X22922100Y-6591300D02*
G75*
G03X22922100Y-6591300I-87500J0D01*
G01*
X23938100Y-6591300D02*
G75*
G03X23938100Y-6591300I-87500J0D01*
G01*
X7428100Y-6604000D02*
G75*
G03X7428100Y-6604000I-87500J0D01*
G01*
X8444100Y-6604000D02*
G75*
G03X8444100Y-6604000I-87500J0D01*
G01*
X19112100Y-6591300D02*
G75*
G03X19112100Y-6591300I-87500J0D01*
G01*
X20128100Y-6591300D02*
G75*
G03X20128100Y-6591300I-87500J0D01*
G01*
X22922100Y-8496300D02*
G75*
G03X22922100Y-8496300I-87500J0D01*
G01*
X23938100Y-8496300D02*
G75*
G03X23938100Y-8496300I-87500J0D01*
G01*
X9345800Y-8509000D02*
G75*
G03X9345800Y-8509000I-87500J0D01*
G01*
X10361800Y-8509000D02*
G75*
G03X10361800Y-8509000I-87500J0D01*
G01*
X17207100Y-6591300D02*
G75*
G03X17207100Y-6591300I-87500J0D01*
G01*
X18223100Y-6591300D02*
G75*
G03X18223100Y-6591300I-87500J0D01*
G01*
X11250800Y-10414000D02*
G75*
G03X11250800Y-10414000I-87500J0D01*
G01*
X12266800Y-10414000D02*
G75*
G03X12266800Y-10414000I-87500J0D01*
G01*
X7428100Y-10414000D02*
G75*
G03X7428100Y-10414000I-87500J0D01*
G01*
X8444100Y-10414000D02*
G75*
G03X8444100Y-10414000I-87500J0D01*
G01*
X21017100Y-10401300D02*
G75*
G03X21017100Y-10401300I-87500J0D01*
G01*
X22033100Y-10401300D02*
G75*
G03X22033100Y-10401300I-87500J0D01*
G01*
X7440800Y-8509000D02*
G75*
G03X7440800Y-8509000I-87500J0D01*
G01*
X8456800Y-8509000D02*
G75*
G03X8456800Y-8509000I-87500J0D01*
G01*
X21017100Y-6591300D02*
G75*
G03X21017100Y-6591300I-87500J0D01*
G01*
X22033100Y-6591300D02*
G75*
G03X22033100Y-6591300I-87500J0D01*
G01*
X17219800Y-10401300D02*
G75*
G03X17219800Y-10401300I-87500J0D01*
G01*
X18235800Y-10401300D02*
G75*
G03X18235800Y-10401300I-87500J0D01*
G01*
X5523100Y-8509000D02*
G75*
G03X5523100Y-8509000I-87500J0D01*
G01*
X6539100Y-8509000D02*
G75*
G03X6539100Y-8509000I-87500J0D01*
G01*
X19112100Y-8496300D02*
G75*
G03X19112100Y-8496300I-87500J0D01*
G01*
X20128100Y-8496300D02*
G75*
G03X20128100Y-8496300I-87500J0D01*
G01*
X13143100Y-6604000D02*
G75*
G03X13143100Y-6604000I-87500J0D01*
G01*
X14159100Y-6604000D02*
G75*
G03X14159100Y-6604000I-87500J0D01*
G01*
X15314800Y-6591300D02*
G75*
G03X15314800Y-6591300I-87500J0D01*
G01*
X16330800Y-6591300D02*
G75*
G03X16330800Y-6591300I-87500J0D01*
G01*
X13155800Y-10414000D02*
G75*
G03X13155800Y-10414000I-87500J0D01*
G01*
X14171800Y-10414000D02*
G75*
G03X14171800Y-10414000I-87500J0D01*
G01*
X19532600Y-10201910D02*
X19532600Y-10600690D01*
X19333210Y-10401300D02*
X19731990Y-10401300D01*
X5480000Y-12129610D02*
X5480000Y-12528390D01*
X5280610Y-12329000D02*
X5679390Y-12329000D01*
X9766300Y-10214610D02*
X9766300Y-10613390D01*
X9566910Y-10414000D02*
X9965690Y-10414000D01*
X23825200Y-12106910D02*
X23825200Y-12505690D01*
X23625810Y-12306300D02*
X24024590Y-12306300D01*
X15735300Y-8296910D02*
X15735300Y-8695690D01*
X15535910Y-8496300D02*
X15934690Y-8496300D01*
X13563600Y-8309610D02*
X13563600Y-8708390D01*
X13364210Y-8509000D02*
X13762990Y-8509000D01*
X17640300Y-8296910D02*
X17640300Y-8695690D01*
X17440910Y-8496300D02*
X17839690Y-8496300D01*
X15735300Y-10201910D02*
X15735300Y-10600690D01*
X15535910Y-10401300D02*
X15934690Y-10401300D01*
X5943600Y-6404610D02*
X5943600Y-6803390D01*
X5744210Y-6604000D02*
X6142990Y-6604000D01*
X23355300Y-10201910D02*
X23355300Y-10600690D01*
X23155910Y-10401300D02*
X23554690Y-10401300D01*
X5943600Y-10214610D02*
X5943600Y-10613390D01*
X5744210Y-10414000D02*
X6142990Y-10414000D01*
X11658600Y-6404610D02*
X11658600Y-6803390D01*
X11459210Y-6604000D02*
X11857990Y-6604000D01*
X9753600Y-6404610D02*
X9753600Y-6803390D01*
X9554210Y-6604000D02*
X9952990Y-6604000D01*
X11658600Y-8309610D02*
X11658600Y-8708390D01*
X11459210Y-8509000D02*
X11857990Y-8509000D01*
X23342600Y-6391910D02*
X23342600Y-6790690D01*
X23143210Y-6591300D02*
X23541990Y-6591300D01*
X7848600Y-6404610D02*
X7848600Y-6803390D01*
X7649210Y-6604000D02*
X8047990Y-6604000D01*
X19532600Y-6391910D02*
X19532600Y-6790690D01*
X19333210Y-6591300D02*
X19731990Y-6591300D01*
X23342600Y-8296910D02*
X23342600Y-8695690D01*
X23143210Y-8496300D02*
X23541990Y-8496300D01*
X9766300Y-8309610D02*
X9766300Y-8708390D01*
X9566910Y-8509000D02*
X9965690Y-8509000D01*
X17627600Y-6391910D02*
X17627600Y-6790690D01*
X17428210Y-6591300D02*
X17826990Y-6591300D01*
X11671300Y-10214610D02*
X11671300Y-10613390D01*
X11471910Y-10414000D02*
X11870690Y-10414000D01*
X7848600Y-10214610D02*
X7848600Y-10613390D01*
X7649210Y-10414000D02*
X8047990Y-10414000D01*
X21437600Y-10201910D02*
X21437600Y-10600690D01*
X21238210Y-10401300D02*
X21636990Y-10401300D01*
X7861300Y-8309610D02*
X7861300Y-8708390D01*
X7661910Y-8509000D02*
X8060690Y-8509000D01*
X21437600Y-6391910D02*
X21437600Y-6790690D01*
X21238210Y-6591300D02*
X21636990Y-6591300D01*
X17640300Y-10201910D02*
X17640300Y-10600690D01*
X17440910Y-10401300D02*
X17839690Y-10401300D01*
X5943600Y-8309610D02*
X5943600Y-8708390D01*
X5744210Y-8509000D02*
X6142990Y-8509000D01*
X19532600Y-8296910D02*
X19532600Y-8695690D01*
X19333210Y-8496300D02*
X19731990Y-8496300D01*
X13563600Y-6404610D02*
X13563600Y-6803390D01*
X13364210Y-6604000D02*
X13762990Y-6604000D01*
X15735300Y-6391910D02*
X15735300Y-6790690D01*
X15535910Y-6591300D02*
X15934690Y-6591300D01*
X13576300Y-10214610D02*
X13576300Y-10613390D01*
X13376910Y-10414000D02*
X13775690Y-10414000D01*
X21437600Y-8296910D02*
X21437600Y-8695690D01*
X21238210Y-8496300D02*
X21636990Y-8496300D01*
D11*
X4676694Y-13803216D02*
X4676694Y-13503216D01*
X4748123Y-13503216D01*
X4790980Y-13517502D01*
X4819551Y-13546073D01*
X4833837Y-13574644D01*
X4848123Y-13631787D01*
X4848123Y-13674644D01*
X4833837Y-13731787D01*
X4819551Y-13760359D01*
X4790980Y-13788930D01*
X4748123Y-13803216D01*
X4676694Y-13803216D01*
X4976694Y-13803216D02*
X4976694Y-13603216D01*
X4976694Y-13660359D02*
X4990980Y-13631787D01*
X5005266Y-13617502D01*
X5033837Y-13603216D01*
X5062409Y-13603216D01*
X5162409Y-13803216D02*
X5162409Y-13603216D01*
X5162409Y-13503216D02*
X5148123Y-13517502D01*
X5162409Y-13531787D01*
X5176694Y-13517502D01*
X5162409Y-13503216D01*
X5162409Y-13531787D01*
X5348123Y-13803216D02*
X5319551Y-13788930D01*
X5305266Y-13760359D01*
X5305266Y-13503216D01*
X5505266Y-13803216D02*
X5476694Y-13788930D01*
X5462409Y-13760359D01*
X5462409Y-13503216D01*
X5848123Y-13803216D02*
X5848123Y-13503216D01*
X5948123Y-13717502D01*
X6048123Y-13503216D01*
X6048123Y-13803216D01*
X6319551Y-13803216D02*
X6319551Y-13646073D01*
X6305266Y-13617502D01*
X6276694Y-13603216D01*
X6219551Y-13603216D01*
X6190980Y-13617502D01*
X6319551Y-13788930D02*
X6290980Y-13803216D01*
X6219551Y-13803216D01*
X6190980Y-13788930D01*
X6176694Y-13760359D01*
X6176694Y-13731787D01*
X6190980Y-13703216D01*
X6219551Y-13688930D01*
X6290980Y-13688930D01*
X6319551Y-13674644D01*
X6462408Y-13603216D02*
X6462408Y-13903216D01*
X6462408Y-13617502D02*
X6490980Y-13603216D01*
X6548123Y-13603216D01*
X6576694Y-13617502D01*
X6590980Y-13631787D01*
X6605266Y-13660359D01*
X6605266Y-13746073D01*
X6590980Y-13774644D01*
X6576694Y-13788930D01*
X6548123Y-13803216D01*
X6490980Y-13803216D01*
X6462408Y-13788930D01*
X6733837Y-13774644D02*
X6748123Y-13788930D01*
X6733837Y-13803216D01*
X6719551Y-13788930D01*
X6733837Y-13774644D01*
X6733837Y-13803216D01*
X6733837Y-13617502D02*
X6748123Y-13631787D01*
X6733837Y-13646073D01*
X6719551Y-13631787D01*
X6733837Y-13617502D01*
X6733837Y-13646073D01*
X4310266Y-14257502D02*
X4390266Y-14337502D01*
X4390266Y-14257502D02*
X4310266Y-14337502D01*
X4733837Y-14133216D02*
X4762409Y-14133216D01*
X4790980Y-14147502D01*
X4805266Y-14161787D01*
X4819551Y-14190359D01*
X4833837Y-14247502D01*
X4833837Y-14318930D01*
X4819551Y-14376073D01*
X4805266Y-14404644D01*
X4790980Y-14418930D01*
X4762409Y-14433216D01*
X4733837Y-14433216D01*
X4705266Y-14418930D01*
X4690980Y-14404644D01*
X4676694Y-14376073D01*
X4662409Y-14318930D01*
X4662409Y-14247502D01*
X4676694Y-14190359D01*
X4690980Y-14161787D01*
X4705266Y-14147502D01*
X4733837Y-14133216D01*
X4962409Y-14404644D02*
X4976694Y-14418930D01*
X4962409Y-14433216D01*
X4948123Y-14418930D01*
X4962409Y-14404644D01*
X4962409Y-14433216D01*
X5148123Y-14261787D02*
X5119551Y-14247502D01*
X5105266Y-14233216D01*
X5090980Y-14204644D01*
X5090980Y-14190359D01*
X5105266Y-14161787D01*
X5119551Y-14147502D01*
X5148123Y-14133216D01*
X5205266Y-14133216D01*
X5233837Y-14147502D01*
X5248123Y-14161787D01*
X5262409Y-14190359D01*
X5262409Y-14204644D01*
X5248123Y-14233216D01*
X5233837Y-14247502D01*
X5205266Y-14261787D01*
X5148123Y-14261787D01*
X5119551Y-14276073D01*
X5105266Y-14290359D01*
X5090980Y-14318930D01*
X5090980Y-14376073D01*
X5105266Y-14404644D01*
X5119551Y-14418930D01*
X5148123Y-14433216D01*
X5205266Y-14433216D01*
X5233837Y-14418930D01*
X5248123Y-14404644D01*
X5262409Y-14376073D01*
X5262409Y-14318930D01*
X5248123Y-14290359D01*
X5233837Y-14276073D01*
X5205266Y-14261787D01*
X5448123Y-14133216D02*
X5476694Y-14133216D01*
X5505266Y-14147502D01*
X5519551Y-14161787D01*
X5533837Y-14190359D01*
X5548123Y-14247502D01*
X5548123Y-14318930D01*
X5533837Y-14376073D01*
X5519551Y-14404644D01*
X5505266Y-14418930D01*
X5476694Y-14433216D01*
X5448123Y-14433216D01*
X5419551Y-14418930D01*
X5405266Y-14404644D01*
X5390980Y-14376073D01*
X5376694Y-14318930D01*
X5376694Y-14247502D01*
X5390980Y-14190359D01*
X5405266Y-14161787D01*
X5419551Y-14147502D01*
X5448123Y-14133216D01*
X5676694Y-14433216D02*
X5676694Y-14233216D01*
X5676694Y-14261787D02*
X5690980Y-14247502D01*
X5719551Y-14233216D01*
X5762408Y-14233216D01*
X5790980Y-14247502D01*
X5805266Y-14276073D01*
X5805266Y-14433216D01*
X5805266Y-14276073D02*
X5819551Y-14247502D01*
X5848123Y-14233216D01*
X5890980Y-14233216D01*
X5919551Y-14247502D01*
X5933837Y-14276073D01*
X5933837Y-14433216D01*
X6076694Y-14433216D02*
X6076694Y-14233216D01*
X6076694Y-14261787D02*
X6090980Y-14247502D01*
X6119551Y-14233216D01*
X6162408Y-14233216D01*
X6190980Y-14247502D01*
X6205266Y-14276073D01*
X6205266Y-14433216D01*
X6205266Y-14276073D02*
X6219551Y-14247502D01*
X6248123Y-14233216D01*
X6290980Y-14233216D01*
X6319551Y-14247502D01*
X6333837Y-14276073D01*
X6333837Y-14433216D01*
X6919551Y-14118930D02*
X6662408Y-14504644D01*
X7305266Y-14133216D02*
X7333837Y-14133216D01*
X7362408Y-14147502D01*
X7376694Y-14161787D01*
X7390980Y-14190359D01*
X7405266Y-14247502D01*
X7405266Y-14318930D01*
X7390980Y-14376073D01*
X7376694Y-14404644D01*
X7362408Y-14418930D01*
X7333837Y-14433216D01*
X7305266Y-14433216D01*
X7276694Y-14418930D01*
X7262408Y-14404644D01*
X7248123Y-14376073D01*
X7233837Y-14318930D01*
X7233837Y-14247502D01*
X7248123Y-14190359D01*
X7262408Y-14161787D01*
X7276694Y-14147502D01*
X7305266Y-14133216D01*
X7533837Y-14404644D02*
X7548123Y-14418930D01*
X7533837Y-14433216D01*
X7519551Y-14418930D01*
X7533837Y-14404644D01*
X7533837Y-14433216D01*
X7733837Y-14133216D02*
X7762408Y-14133216D01*
X7790980Y-14147502D01*
X7805266Y-14161787D01*
X7819551Y-14190359D01*
X7833837Y-14247502D01*
X7833837Y-14318930D01*
X7819551Y-14376073D01*
X7805266Y-14404644D01*
X7790980Y-14418930D01*
X7762408Y-14433216D01*
X7733837Y-14433216D01*
X7705266Y-14418930D01*
X7690980Y-14404644D01*
X7676694Y-14376073D01*
X7662408Y-14318930D01*
X7662408Y-14247502D01*
X7676694Y-14190359D01*
X7690980Y-14161787D01*
X7705266Y-14147502D01*
X7733837Y-14133216D01*
X7933837Y-14133216D02*
X8119551Y-14133216D01*
X8019551Y-14247502D01*
X8062408Y-14247502D01*
X8090980Y-14261787D01*
X8105266Y-14276073D01*
X8119551Y-14304644D01*
X8119551Y-14376073D01*
X8105266Y-14404644D01*
X8090980Y-14418930D01*
X8062408Y-14433216D01*
X7976694Y-14433216D01*
X7948123Y-14418930D01*
X7933837Y-14404644D01*
X8405266Y-14433216D02*
X8233837Y-14433216D01*
X8319551Y-14433216D02*
X8319551Y-14133216D01*
X8290980Y-14176073D01*
X8262408Y-14204644D01*
X8233837Y-14218930D01*
X8519551Y-14133216D02*
X8519551Y-14190359D01*
X8633837Y-14133216D02*
X8633837Y-14190359D01*
X9076694Y-14547502D02*
X9062409Y-14533216D01*
X9033837Y-14490359D01*
X9019551Y-14461787D01*
X9005266Y-14418930D01*
X8990980Y-14347502D01*
X8990980Y-14290359D01*
X9005266Y-14218930D01*
X9019551Y-14176073D01*
X9033837Y-14147502D01*
X9062409Y-14104644D01*
X9076694Y-14090359D01*
X9319551Y-14233216D02*
X9319551Y-14433216D01*
X9248123Y-14118930D02*
X9176694Y-14333216D01*
X9362409Y-14333216D01*
X9705266Y-14433216D02*
X9705266Y-14133216D01*
X9833837Y-14433216D02*
X9833837Y-14276073D01*
X9819551Y-14247502D01*
X9790980Y-14233216D01*
X9748123Y-14233216D01*
X9719551Y-14247502D01*
X9705266Y-14261787D01*
X10019551Y-14433216D02*
X9990980Y-14418930D01*
X9976694Y-14404644D01*
X9962409Y-14376073D01*
X9962409Y-14290359D01*
X9976694Y-14261787D01*
X9990980Y-14247502D01*
X10019551Y-14233216D01*
X10062409Y-14233216D01*
X10090980Y-14247502D01*
X10105266Y-14261787D01*
X10119551Y-14290359D01*
X10119551Y-14376073D01*
X10105266Y-14404644D01*
X10090980Y-14418930D01*
X10062409Y-14433216D01*
X10019551Y-14433216D01*
X10290980Y-14433216D02*
X10262409Y-14418930D01*
X10248123Y-14390359D01*
X10248123Y-14133216D01*
X10519551Y-14418930D02*
X10490980Y-14433216D01*
X10433837Y-14433216D01*
X10405266Y-14418930D01*
X10390980Y-14390359D01*
X10390980Y-14276073D01*
X10405266Y-14247502D01*
X10433837Y-14233216D01*
X10490980Y-14233216D01*
X10519551Y-14247502D01*
X10533837Y-14276073D01*
X10533837Y-14304644D01*
X10390980Y-14333216D01*
X10648123Y-14418930D02*
X10676694Y-14433216D01*
X10733837Y-14433216D01*
X10762409Y-14418930D01*
X10776694Y-14390359D01*
X10776694Y-14376073D01*
X10762409Y-14347502D01*
X10733837Y-14333216D01*
X10690980Y-14333216D01*
X10662409Y-14318930D01*
X10648123Y-14290359D01*
X10648123Y-14276073D01*
X10662409Y-14247502D01*
X10690980Y-14233216D01*
X10733837Y-14233216D01*
X10762409Y-14247502D01*
X10876694Y-14547502D02*
X10890980Y-14533216D01*
X10919551Y-14490359D01*
X10933837Y-14461787D01*
X10948123Y-14418930D01*
X10962409Y-14347502D01*
X10962409Y-14290359D01*
X10948123Y-14218930D01*
X10933837Y-14176073D01*
X10919551Y-14147502D01*
X10890980Y-14104644D01*
X10876694Y-14090359D01*
X11419551Y-14547502D02*
X11405266Y-14533216D01*
X11376694Y-14490359D01*
X11362408Y-14461787D01*
X11348123Y-14418930D01*
X11333837Y-14347502D01*
X11333837Y-14290359D01*
X11348123Y-14218930D01*
X11362408Y-14176073D01*
X11376694Y-14147502D01*
X11405266Y-14104644D01*
X11419551Y-14090359D01*
X11533837Y-14233216D02*
X11533837Y-14433216D01*
X11533837Y-14261787D02*
X11548123Y-14247502D01*
X11576694Y-14233216D01*
X11619551Y-14233216D01*
X11648123Y-14247502D01*
X11662408Y-14276073D01*
X11662408Y-14433216D01*
X11848123Y-14433216D02*
X11819551Y-14418930D01*
X11805266Y-14404644D01*
X11790980Y-14376073D01*
X11790980Y-14290359D01*
X11805266Y-14261787D01*
X11819551Y-14247502D01*
X11848123Y-14233216D01*
X11890980Y-14233216D01*
X11919551Y-14247502D01*
X11933837Y-14261787D01*
X11948123Y-14290359D01*
X11948123Y-14376073D01*
X11933837Y-14404644D01*
X11919551Y-14418930D01*
X11890980Y-14433216D01*
X11848123Y-14433216D01*
X12033837Y-14233216D02*
X12148123Y-14233216D01*
X12076694Y-14133216D02*
X12076694Y-14390359D01*
X12090980Y-14418930D01*
X12119551Y-14433216D01*
X12148123Y-14433216D01*
X12476694Y-14233216D02*
X12476694Y-14533216D01*
X12476694Y-14247502D02*
X12505266Y-14233216D01*
X12562408Y-14233216D01*
X12590980Y-14247502D01*
X12605266Y-14261787D01*
X12619551Y-14290359D01*
X12619551Y-14376073D01*
X12605266Y-14404644D01*
X12590980Y-14418930D01*
X12562408Y-14433216D01*
X12505266Y-14433216D01*
X12476694Y-14418930D01*
X12790980Y-14433216D02*
X12762408Y-14418930D01*
X12748123Y-14390359D01*
X12748123Y-14133216D01*
X13033837Y-14433216D02*
X13033837Y-14276073D01*
X13019551Y-14247502D01*
X12990980Y-14233216D01*
X12933837Y-14233216D01*
X12905266Y-14247502D01*
X13033837Y-14418930D02*
X13005266Y-14433216D01*
X12933837Y-14433216D01*
X12905266Y-14418930D01*
X12890980Y-14390359D01*
X12890980Y-14361787D01*
X12905266Y-14333216D01*
X12933837Y-14318930D01*
X13005266Y-14318930D01*
X13033837Y-14304644D01*
X13133837Y-14233216D02*
X13248123Y-14233216D01*
X13176694Y-14133216D02*
X13176694Y-14390359D01*
X13190980Y-14418930D01*
X13219551Y-14433216D01*
X13248123Y-14433216D01*
X13462408Y-14418930D02*
X13433837Y-14433216D01*
X13376694Y-14433216D01*
X13348123Y-14418930D01*
X13333837Y-14390359D01*
X13333837Y-14276073D01*
X13348123Y-14247502D01*
X13376694Y-14233216D01*
X13433837Y-14233216D01*
X13462408Y-14247502D01*
X13476694Y-14276073D01*
X13476694Y-14304644D01*
X13333837Y-14333216D01*
X13733837Y-14433216D02*
X13733837Y-14133216D01*
X13733837Y-14418930D02*
X13705266Y-14433216D01*
X13648123Y-14433216D01*
X13619551Y-14418930D01*
X13605266Y-14404644D01*
X13590980Y-14376073D01*
X13590980Y-14290359D01*
X13605266Y-14261787D01*
X13619551Y-14247502D01*
X13648123Y-14233216D01*
X13705266Y-14233216D01*
X13733837Y-14247502D01*
X13848123Y-14547502D02*
X13862408Y-14533216D01*
X13890980Y-14490359D01*
X13905266Y-14461787D01*
X13919551Y-14418930D01*
X13933837Y-14347502D01*
X13933837Y-14290359D01*
X13919551Y-14218930D01*
X13905266Y-14176073D01*
X13890980Y-14147502D01*
X13862408Y-14104644D01*
X13848123Y-14090359D01*
X4390266Y-14693502D02*
G75*
G03X4390266Y-14693502I-87500J0D01*
G01*
X4833837Y-14829216D02*
X4662409Y-14829216D01*
X4748123Y-14829216D02*
X4748123Y-14529216D01*
X4719551Y-14572073D01*
X4690980Y-14600644D01*
X4662409Y-14614930D01*
X4962409Y-14800644D02*
X4976694Y-14814930D01*
X4962409Y-14829216D01*
X4948123Y-14814930D01*
X4962409Y-14800644D01*
X4962409Y-14829216D01*
X5076694Y-14529216D02*
X5276694Y-14529216D01*
X5148123Y-14829216D01*
X5533837Y-14529216D02*
X5390980Y-14529216D01*
X5376694Y-14672073D01*
X5390980Y-14657787D01*
X5419551Y-14643502D01*
X5490980Y-14643502D01*
X5519551Y-14657787D01*
X5533837Y-14672073D01*
X5548123Y-14700644D01*
X5548123Y-14772073D01*
X5533837Y-14800644D01*
X5519551Y-14814930D01*
X5490980Y-14829216D01*
X5419551Y-14829216D01*
X5390980Y-14814930D01*
X5376694Y-14800644D01*
X5676694Y-14829216D02*
X5676694Y-14629216D01*
X5676694Y-14657787D02*
X5690980Y-14643502D01*
X5719551Y-14629216D01*
X5762408Y-14629216D01*
X5790980Y-14643502D01*
X5805266Y-14672073D01*
X5805266Y-14829216D01*
X5805266Y-14672073D02*
X5819551Y-14643502D01*
X5848123Y-14629216D01*
X5890980Y-14629216D01*
X5919551Y-14643502D01*
X5933837Y-14672073D01*
X5933837Y-14829216D01*
X6076694Y-14829216D02*
X6076694Y-14629216D01*
X6076694Y-14657787D02*
X6090980Y-14643502D01*
X6119551Y-14629216D01*
X6162408Y-14629216D01*
X6190980Y-14643502D01*
X6205266Y-14672073D01*
X6205266Y-14829216D01*
X6205266Y-14672073D02*
X6219551Y-14643502D01*
X6248123Y-14629216D01*
X6290980Y-14629216D01*
X6319551Y-14643502D01*
X6333837Y-14672073D01*
X6333837Y-14829216D01*
X6919551Y-14514930D02*
X6662408Y-14900644D01*
X7305266Y-14529216D02*
X7333837Y-14529216D01*
X7362408Y-14543502D01*
X7376694Y-14557787D01*
X7390980Y-14586359D01*
X7405266Y-14643502D01*
X7405266Y-14714930D01*
X7390980Y-14772073D01*
X7376694Y-14800644D01*
X7362408Y-14814930D01*
X7333837Y-14829216D01*
X7305266Y-14829216D01*
X7276694Y-14814930D01*
X7262408Y-14800644D01*
X7248123Y-14772073D01*
X7233837Y-14714930D01*
X7233837Y-14643502D01*
X7248123Y-14586359D01*
X7262408Y-14557787D01*
X7276694Y-14543502D01*
X7305266Y-14529216D01*
X7533837Y-14800644D02*
X7548123Y-14814930D01*
X7533837Y-14829216D01*
X7519551Y-14814930D01*
X7533837Y-14800644D01*
X7533837Y-14829216D01*
X7733837Y-14529216D02*
X7762408Y-14529216D01*
X7790980Y-14543502D01*
X7805266Y-14557787D01*
X7819551Y-14586359D01*
X7833837Y-14643502D01*
X7833837Y-14714930D01*
X7819551Y-14772073D01*
X7805266Y-14800644D01*
X7790980Y-14814930D01*
X7762408Y-14829216D01*
X7733837Y-14829216D01*
X7705266Y-14814930D01*
X7690980Y-14800644D01*
X7676694Y-14772073D01*
X7662408Y-14714930D01*
X7662408Y-14643502D01*
X7676694Y-14586359D01*
X7690980Y-14557787D01*
X7705266Y-14543502D01*
X7733837Y-14529216D01*
X8090980Y-14529216D02*
X8033837Y-14529216D01*
X8005266Y-14543502D01*
X7990980Y-14557787D01*
X7962408Y-14600644D01*
X7948123Y-14657787D01*
X7948123Y-14772073D01*
X7962408Y-14800644D01*
X7976694Y-14814930D01*
X8005266Y-14829216D01*
X8062408Y-14829216D01*
X8090980Y-14814930D01*
X8105266Y-14800644D01*
X8119551Y-14772073D01*
X8119551Y-14700644D01*
X8105266Y-14672073D01*
X8090980Y-14657787D01*
X8062408Y-14643502D01*
X8005266Y-14643502D01*
X7976694Y-14657787D01*
X7962408Y-14672073D01*
X7948123Y-14700644D01*
X8262408Y-14829216D02*
X8319551Y-14829216D01*
X8348123Y-14814930D01*
X8362408Y-14800644D01*
X8390980Y-14757787D01*
X8405266Y-14700644D01*
X8405266Y-14586359D01*
X8390980Y-14557787D01*
X8376694Y-14543502D01*
X8348123Y-14529216D01*
X8290980Y-14529216D01*
X8262408Y-14543502D01*
X8248123Y-14557787D01*
X8233837Y-14586359D01*
X8233837Y-14657787D01*
X8248123Y-14686359D01*
X8262408Y-14700644D01*
X8290980Y-14714930D01*
X8348123Y-14714930D01*
X8376694Y-14700644D01*
X8390980Y-14686359D01*
X8405266Y-14657787D01*
X8519551Y-14529216D02*
X8519551Y-14586359D01*
X8633837Y-14529216D02*
X8633837Y-14586359D01*
X9076694Y-14943502D02*
X9062409Y-14929216D01*
X9033837Y-14886359D01*
X9019551Y-14857787D01*
X9005266Y-14814930D01*
X8990980Y-14743502D01*
X8990980Y-14686359D01*
X9005266Y-14614930D01*
X9019551Y-14572073D01*
X9033837Y-14543502D01*
X9062409Y-14500644D01*
X9076694Y-14486359D01*
X9319551Y-14529216D02*
X9262409Y-14529216D01*
X9233837Y-14543502D01*
X9219551Y-14557787D01*
X9190980Y-14600644D01*
X9176694Y-14657787D01*
X9176694Y-14772073D01*
X9190980Y-14800644D01*
X9205266Y-14814930D01*
X9233837Y-14829216D01*
X9290980Y-14829216D01*
X9319551Y-14814930D01*
X9333837Y-14800644D01*
X9348123Y-14772073D01*
X9348123Y-14700644D01*
X9333837Y-14672073D01*
X9319551Y-14657787D01*
X9290980Y-14643502D01*
X9233837Y-14643502D01*
X9205266Y-14657787D01*
X9190980Y-14672073D01*
X9176694Y-14700644D01*
X9605266Y-14629216D02*
X9605266Y-14829216D01*
X9533837Y-14514930D02*
X9462409Y-14729216D01*
X9648123Y-14729216D01*
X9990980Y-14829216D02*
X9990980Y-14529216D01*
X10119551Y-14829216D02*
X10119551Y-14672073D01*
X10105266Y-14643502D01*
X10076694Y-14629216D01*
X10033837Y-14629216D01*
X10005266Y-14643502D01*
X9990980Y-14657787D01*
X10305266Y-14829216D02*
X10276694Y-14814930D01*
X10262409Y-14800644D01*
X10248123Y-14772073D01*
X10248123Y-14686359D01*
X10262409Y-14657787D01*
X10276694Y-14643502D01*
X10305266Y-14629216D01*
X10348123Y-14629216D01*
X10376694Y-14643502D01*
X10390980Y-14657787D01*
X10405266Y-14686359D01*
X10405266Y-14772073D01*
X10390980Y-14800644D01*
X10376694Y-14814930D01*
X10348123Y-14829216D01*
X10305266Y-14829216D01*
X10576694Y-14829216D02*
X10548123Y-14814930D01*
X10533837Y-14786359D01*
X10533837Y-14529216D01*
X10805266Y-14814930D02*
X10776694Y-14829216D01*
X10719551Y-14829216D01*
X10690980Y-14814930D01*
X10676694Y-14786359D01*
X10676694Y-14672073D01*
X10690980Y-14643502D01*
X10719551Y-14629216D01*
X10776694Y-14629216D01*
X10805266Y-14643502D01*
X10819551Y-14672073D01*
X10819551Y-14700644D01*
X10676694Y-14729216D01*
X10933837Y-14814930D02*
X10962409Y-14829216D01*
X11019551Y-14829216D01*
X11048123Y-14814930D01*
X11062409Y-14786359D01*
X11062409Y-14772073D01*
X11048123Y-14743502D01*
X11019551Y-14729216D01*
X10976694Y-14729216D01*
X10948123Y-14714930D01*
X10933837Y-14686359D01*
X10933837Y-14672073D01*
X10948123Y-14643502D01*
X10976694Y-14629216D01*
X11019551Y-14629216D01*
X11048123Y-14643502D01*
X11162409Y-14943502D02*
X11176694Y-14929216D01*
X11205266Y-14886359D01*
X11219551Y-14857787D01*
X11233837Y-14814930D01*
X11248123Y-14743502D01*
X11248123Y-14686359D01*
X11233837Y-14614930D01*
X11219551Y-14572073D01*
X11205266Y-14543502D01*
X11176694Y-14500644D01*
X11162409Y-14486359D01*
X11705266Y-14943502D02*
X11690980Y-14929216D01*
X11662408Y-14886359D01*
X11648123Y-14857787D01*
X11633837Y-14814930D01*
X11619551Y-14743502D01*
X11619551Y-14686359D01*
X11633837Y-14614930D01*
X11648123Y-14572073D01*
X11662408Y-14543502D01*
X11690980Y-14500644D01*
X11705266Y-14486359D01*
X11819551Y-14629216D02*
X11819551Y-14829216D01*
X11819551Y-14657787D02*
X11833837Y-14643502D01*
X11862408Y-14629216D01*
X11905266Y-14629216D01*
X11933837Y-14643502D01*
X11948123Y-14672073D01*
X11948123Y-14829216D01*
X12133837Y-14829216D02*
X12105266Y-14814930D01*
X12090980Y-14800644D01*
X12076694Y-14772073D01*
X12076694Y-14686359D01*
X12090980Y-14657787D01*
X12105266Y-14643502D01*
X12133837Y-14629216D01*
X12176694Y-14629216D01*
X12205266Y-14643502D01*
X12219551Y-14657787D01*
X12233837Y-14686359D01*
X12233837Y-14772073D01*
X12219551Y-14800644D01*
X12205266Y-14814930D01*
X12176694Y-14829216D01*
X12133837Y-14829216D01*
X12319551Y-14629216D02*
X12433837Y-14629216D01*
X12362408Y-14529216D02*
X12362408Y-14786359D01*
X12376694Y-14814930D01*
X12405266Y-14829216D01*
X12433837Y-14829216D01*
X12762408Y-14629216D02*
X12762408Y-14929216D01*
X12762408Y-14643502D02*
X12790980Y-14629216D01*
X12848123Y-14629216D01*
X12876694Y-14643502D01*
X12890980Y-14657787D01*
X12905266Y-14686359D01*
X12905266Y-14772073D01*
X12890980Y-14800644D01*
X12876694Y-14814930D01*
X12848123Y-14829216D01*
X12790980Y-14829216D01*
X12762408Y-14814930D01*
X13076694Y-14829216D02*
X13048123Y-14814930D01*
X13033837Y-14786359D01*
X13033837Y-14529216D01*
X13319551Y-14829216D02*
X13319551Y-14672073D01*
X13305266Y-14643502D01*
X13276694Y-14629216D01*
X13219551Y-14629216D01*
X13190980Y-14643502D01*
X13319551Y-14814930D02*
X13290980Y-14829216D01*
X13219551Y-14829216D01*
X13190980Y-14814930D01*
X13176694Y-14786359D01*
X13176694Y-14757787D01*
X13190980Y-14729216D01*
X13219551Y-14714930D01*
X13290980Y-14714930D01*
X13319551Y-14700644D01*
X13419551Y-14629216D02*
X13533837Y-14629216D01*
X13462408Y-14529216D02*
X13462408Y-14786359D01*
X13476694Y-14814930D01*
X13505266Y-14829216D01*
X13533837Y-14829216D01*
X13748123Y-14814930D02*
X13719551Y-14829216D01*
X13662408Y-14829216D01*
X13633837Y-14814930D01*
X13619551Y-14786359D01*
X13619551Y-14672073D01*
X13633837Y-14643502D01*
X13662408Y-14629216D01*
X13719551Y-14629216D01*
X13748123Y-14643502D01*
X13762408Y-14672073D01*
X13762408Y-14700644D01*
X13619551Y-14729216D01*
X14019551Y-14829216D02*
X14019551Y-14529216D01*
X14019551Y-14814930D02*
X13990980Y-14829216D01*
X13933837Y-14829216D01*
X13905266Y-14814930D01*
X13890980Y-14800644D01*
X13876694Y-14772073D01*
X13876694Y-14686359D01*
X13890980Y-14657787D01*
X13905266Y-14643502D01*
X13933837Y-14629216D01*
X13990980Y-14629216D01*
X14019551Y-14643502D01*
X14133837Y-14943502D02*
X14148123Y-14929216D01*
X14176694Y-14886359D01*
X14190980Y-14857787D01*
X14205266Y-14814930D01*
X14219551Y-14743502D01*
X14219551Y-14686359D01*
X14205266Y-14614930D01*
X14190980Y-14572073D01*
X14176694Y-14543502D01*
X14148123Y-14500644D01*
X14133837Y-14486359D01*
X4190876Y-14890112D02*
X4190876Y-15288892D01*
X3991486Y-15089502D02*
X4390266Y-15089502D01*
X4648123Y-14925216D02*
X4833837Y-14925216D01*
X4733837Y-15039502D01*
X4776694Y-15039502D01*
X4805266Y-15053787D01*
X4819551Y-15068073D01*
X4833837Y-15096644D01*
X4833837Y-15168073D01*
X4819551Y-15196644D01*
X4805266Y-15210930D01*
X4776694Y-15225216D01*
X4690980Y-15225216D01*
X4662409Y-15210930D01*
X4648123Y-15196644D01*
X4962409Y-15196644D02*
X4976694Y-15210930D01*
X4962409Y-15225216D01*
X4948123Y-15210930D01*
X4962409Y-15196644D01*
X4962409Y-15225216D01*
X5119551Y-15225216D02*
X5176694Y-15225216D01*
X5205266Y-15210930D01*
X5219551Y-15196644D01*
X5248123Y-15153787D01*
X5262409Y-15096644D01*
X5262409Y-14982359D01*
X5248123Y-14953787D01*
X5233837Y-14939502D01*
X5205266Y-14925216D01*
X5148123Y-14925216D01*
X5119551Y-14939502D01*
X5105266Y-14953787D01*
X5090980Y-14982359D01*
X5090980Y-15053787D01*
X5105266Y-15082359D01*
X5119551Y-15096644D01*
X5148123Y-15110930D01*
X5205266Y-15110930D01*
X5233837Y-15096644D01*
X5248123Y-15082359D01*
X5262409Y-15053787D01*
X5405266Y-15225216D02*
X5462409Y-15225216D01*
X5490980Y-15210930D01*
X5505266Y-15196644D01*
X5533837Y-15153787D01*
X5548123Y-15096644D01*
X5548123Y-14982359D01*
X5533837Y-14953787D01*
X5519551Y-14939502D01*
X5490980Y-14925216D01*
X5433837Y-14925216D01*
X5405266Y-14939502D01*
X5390980Y-14953787D01*
X5376694Y-14982359D01*
X5376694Y-15053787D01*
X5390980Y-15082359D01*
X5405266Y-15096644D01*
X5433837Y-15110930D01*
X5490980Y-15110930D01*
X5519551Y-15096644D01*
X5533837Y-15082359D01*
X5548123Y-15053787D01*
X5676694Y-15225216D02*
X5676694Y-15025216D01*
X5676694Y-15053787D02*
X5690980Y-15039502D01*
X5719551Y-15025216D01*
X5762408Y-15025216D01*
X5790980Y-15039502D01*
X5805266Y-15068073D01*
X5805266Y-15225216D01*
X5805266Y-15068073D02*
X5819551Y-15039502D01*
X5848123Y-15025216D01*
X5890980Y-15025216D01*
X5919551Y-15039502D01*
X5933837Y-15068073D01*
X5933837Y-15225216D01*
X6076694Y-15225216D02*
X6076694Y-15025216D01*
X6076694Y-15053787D02*
X6090980Y-15039502D01*
X6119551Y-15025216D01*
X6162408Y-15025216D01*
X6190980Y-15039502D01*
X6205266Y-15068073D01*
X6205266Y-15225216D01*
X6205266Y-15068073D02*
X6219551Y-15039502D01*
X6248123Y-15025216D01*
X6290980Y-15025216D01*
X6319551Y-15039502D01*
X6333837Y-15068073D01*
X6333837Y-15225216D01*
X6919551Y-14910930D02*
X6662408Y-15296644D01*
X7305266Y-14925216D02*
X7333837Y-14925216D01*
X7362408Y-14939502D01*
X7376694Y-14953787D01*
X7390980Y-14982359D01*
X7405266Y-15039502D01*
X7405266Y-15110930D01*
X7390980Y-15168073D01*
X7376694Y-15196644D01*
X7362408Y-15210930D01*
X7333837Y-15225216D01*
X7305266Y-15225216D01*
X7276694Y-15210930D01*
X7262408Y-15196644D01*
X7248123Y-15168073D01*
X7233837Y-15110930D01*
X7233837Y-15039502D01*
X7248123Y-14982359D01*
X7262408Y-14953787D01*
X7276694Y-14939502D01*
X7305266Y-14925216D01*
X7533837Y-15196644D02*
X7548123Y-15210930D01*
X7533837Y-15225216D01*
X7519551Y-15210930D01*
X7533837Y-15196644D01*
X7533837Y-15225216D01*
X7833837Y-15225216D02*
X7662408Y-15225216D01*
X7748123Y-15225216D02*
X7748123Y-14925216D01*
X7719551Y-14968073D01*
X7690980Y-14996644D01*
X7662408Y-15010930D01*
X8105266Y-14925216D02*
X7962408Y-14925216D01*
X7948123Y-15068073D01*
X7962408Y-15053787D01*
X7990980Y-15039502D01*
X8062408Y-15039502D01*
X8090980Y-15053787D01*
X8105266Y-15068073D01*
X8119551Y-15096644D01*
X8119551Y-15168073D01*
X8105266Y-15196644D01*
X8090980Y-15210930D01*
X8062408Y-15225216D01*
X7990980Y-15225216D01*
X7962408Y-15210930D01*
X7948123Y-15196644D01*
X8219551Y-14925216D02*
X8419551Y-14925216D01*
X8290980Y-15225216D01*
X8519551Y-14925216D02*
X8519551Y-14982359D01*
X8633837Y-14925216D02*
X8633837Y-14982359D01*
X9076694Y-15339502D02*
X9062409Y-15325216D01*
X9033837Y-15282359D01*
X9019551Y-15253787D01*
X9005266Y-15210930D01*
X8990980Y-15139502D01*
X8990980Y-15082359D01*
X9005266Y-15010930D01*
X9019551Y-14968073D01*
X9033837Y-14939502D01*
X9062409Y-14896644D01*
X9076694Y-14882359D01*
X9162409Y-14925216D02*
X9348123Y-14925216D01*
X9248123Y-15039502D01*
X9290980Y-15039502D01*
X9319551Y-15053787D01*
X9333837Y-15068073D01*
X9348123Y-15096644D01*
X9348123Y-15168073D01*
X9333837Y-15196644D01*
X9319551Y-15210930D01*
X9290980Y-15225216D01*
X9205266Y-15225216D01*
X9176694Y-15210930D01*
X9162409Y-15196644D01*
X9462409Y-14953787D02*
X9476694Y-14939502D01*
X9505266Y-14925216D01*
X9576694Y-14925216D01*
X9605266Y-14939502D01*
X9619551Y-14953787D01*
X9633837Y-14982359D01*
X9633837Y-15010930D01*
X9619551Y-15053787D01*
X9448123Y-15225216D01*
X9633837Y-15225216D01*
X9990980Y-15225216D02*
X9990980Y-14925216D01*
X10119551Y-15225216D02*
X10119551Y-15068073D01*
X10105266Y-15039502D01*
X10076694Y-15025216D01*
X10033837Y-15025216D01*
X10005266Y-15039502D01*
X9990980Y-15053787D01*
X10305266Y-15225216D02*
X10276694Y-15210930D01*
X10262409Y-15196644D01*
X10248123Y-15168073D01*
X10248123Y-15082359D01*
X10262409Y-15053787D01*
X10276694Y-15039502D01*
X10305266Y-15025216D01*
X10348123Y-15025216D01*
X10376694Y-15039502D01*
X10390980Y-15053787D01*
X10405266Y-15082359D01*
X10405266Y-15168073D01*
X10390980Y-15196644D01*
X10376694Y-15210930D01*
X10348123Y-15225216D01*
X10305266Y-15225216D01*
X10576694Y-15225216D02*
X10548123Y-15210930D01*
X10533837Y-15182359D01*
X10533837Y-14925216D01*
X10805266Y-15210930D02*
X10776694Y-15225216D01*
X10719551Y-15225216D01*
X10690980Y-15210930D01*
X10676694Y-15182359D01*
X10676694Y-15068073D01*
X10690980Y-15039502D01*
X10719551Y-15025216D01*
X10776694Y-15025216D01*
X10805266Y-15039502D01*
X10819551Y-15068073D01*
X10819551Y-15096644D01*
X10676694Y-15125216D01*
X10933837Y-15210930D02*
X10962409Y-15225216D01*
X11019551Y-15225216D01*
X11048123Y-15210930D01*
X11062409Y-15182359D01*
X11062409Y-15168073D01*
X11048123Y-15139502D01*
X11019551Y-15125216D01*
X10976694Y-15125216D01*
X10948123Y-15110930D01*
X10933837Y-15082359D01*
X10933837Y-15068073D01*
X10948123Y-15039502D01*
X10976694Y-15025216D01*
X11019551Y-15025216D01*
X11048123Y-15039502D01*
X11162409Y-15339502D02*
X11176694Y-15325216D01*
X11205266Y-15282359D01*
X11219551Y-15253787D01*
X11233837Y-15210930D01*
X11248123Y-15139502D01*
X11248123Y-15082359D01*
X11233837Y-15010930D01*
X11219551Y-14968073D01*
X11205266Y-14939502D01*
X11176694Y-14896644D01*
X11162409Y-14882359D01*
X11705266Y-15339502D02*
X11690980Y-15325216D01*
X11662408Y-15282359D01*
X11648123Y-15253787D01*
X11633837Y-15210930D01*
X11619551Y-15139502D01*
X11619551Y-15082359D01*
X11633837Y-15010930D01*
X11648123Y-14968073D01*
X11662408Y-14939502D01*
X11690980Y-14896644D01*
X11705266Y-14882359D01*
X11819551Y-15025216D02*
X11819551Y-15225216D01*
X11819551Y-15053787D02*
X11833837Y-15039502D01*
X11862408Y-15025216D01*
X11905266Y-15025216D01*
X11933837Y-15039502D01*
X11948123Y-15068073D01*
X11948123Y-15225216D01*
X12133837Y-15225216D02*
X12105266Y-15210930D01*
X12090980Y-15196644D01*
X12076694Y-15168073D01*
X12076694Y-15082359D01*
X12090980Y-15053787D01*
X12105266Y-15039502D01*
X12133837Y-15025216D01*
X12176694Y-15025216D01*
X12205266Y-15039502D01*
X12219551Y-15053787D01*
X12233837Y-15082359D01*
X12233837Y-15168073D01*
X12219551Y-15196644D01*
X12205266Y-15210930D01*
X12176694Y-15225216D01*
X12133837Y-15225216D01*
X12319551Y-15025216D02*
X12433837Y-15025216D01*
X12362408Y-14925216D02*
X12362408Y-15182359D01*
X12376694Y-15210930D01*
X12405266Y-15225216D01*
X12433837Y-15225216D01*
X12762408Y-15025216D02*
X12762408Y-15325216D01*
X12762408Y-15039502D02*
X12790980Y-15025216D01*
X12848123Y-15025216D01*
X12876694Y-15039502D01*
X12890980Y-15053787D01*
X12905266Y-15082359D01*
X12905266Y-15168073D01*
X12890980Y-15196644D01*
X12876694Y-15210930D01*
X12848123Y-15225216D01*
X12790980Y-15225216D01*
X12762408Y-15210930D01*
X13076694Y-15225216D02*
X13048123Y-15210930D01*
X13033837Y-15182359D01*
X13033837Y-14925216D01*
X13319551Y-15225216D02*
X13319551Y-15068073D01*
X13305266Y-15039502D01*
X13276694Y-15025216D01*
X13219551Y-15025216D01*
X13190980Y-15039502D01*
X13319551Y-15210930D02*
X13290980Y-15225216D01*
X13219551Y-15225216D01*
X13190980Y-15210930D01*
X13176694Y-15182359D01*
X13176694Y-15153787D01*
X13190980Y-15125216D01*
X13219551Y-15110930D01*
X13290980Y-15110930D01*
X13319551Y-15096644D01*
X13419551Y-15025216D02*
X13533837Y-15025216D01*
X13462408Y-14925216D02*
X13462408Y-15182359D01*
X13476694Y-15210930D01*
X13505266Y-15225216D01*
X13533837Y-15225216D01*
X13748123Y-15210930D02*
X13719551Y-15225216D01*
X13662408Y-15225216D01*
X13633837Y-15210930D01*
X13619551Y-15182359D01*
X13619551Y-15068073D01*
X13633837Y-15039502D01*
X13662408Y-15025216D01*
X13719551Y-15025216D01*
X13748123Y-15039502D01*
X13762408Y-15068073D01*
X13762408Y-15096644D01*
X13619551Y-15125216D01*
X14019551Y-15225216D02*
X14019551Y-14925216D01*
X14019551Y-15210930D02*
X13990980Y-15225216D01*
X13933837Y-15225216D01*
X13905266Y-15210930D01*
X13890980Y-15196644D01*
X13876694Y-15168073D01*
X13876694Y-15082359D01*
X13890980Y-15053787D01*
X13905266Y-15039502D01*
X13933837Y-15025216D01*
X13990980Y-15025216D01*
X14019551Y-15039502D01*
X14133837Y-15339502D02*
X14148123Y-15325216D01*
X14176694Y-15282359D01*
X14190980Y-15253787D01*
X14205266Y-15210930D01*
X14219551Y-15139502D01*
X14219551Y-15082359D01*
X14205266Y-15010930D01*
X14190980Y-14968073D01*
X14176694Y-14939502D01*
X14148123Y-14896644D01*
X14133837Y-14882359D01*
M02*
