G04 #@! TF.GenerationSoftware,KiCad,Pcbnew,(5.1.4)-1*
G04 #@! TF.CreationDate,2020-11-17T13:53:57-05:00*
G04 #@! TF.ProjectId,splitty,73706c69-7474-4792-9e6b-696361645f70,rev?*
G04 #@! TF.SameCoordinates,Original*
G04 #@! TF.FileFunction,Paste,Top*
G04 #@! TF.FilePolarity,Positive*
%FSLAX46Y46*%
G04 Gerber Fmt 4.6, Leading zero omitted, Abs format (unit mm)*
G04 Created by KiCad (PCBNEW (5.1.4)-1) date 2020-11-17 13:53:57*
%MOMM*%
%LPD*%
G04 APERTURE LIST*
%ADD10R,1.600000X1.200000*%
G04 APERTURE END LIST*
D10*
X155826000Y-72009000D03*
X158626000Y-72009000D03*
X175003000Y-110109000D03*
X177803000Y-110109000D03*
X255902000Y-114808000D03*
X258702000Y-114808000D03*
X232153000Y-110109000D03*
X234953000Y-110109000D03*
X232026000Y-91059000D03*
X234826000Y-91059000D03*
X232026000Y-72009000D03*
X234826000Y-72009000D03*
X212976000Y-110109000D03*
X215776000Y-110109000D03*
X212976000Y-91059000D03*
X215776000Y-91059000D03*
X212976000Y-72009000D03*
X215776000Y-72009000D03*
X193926000Y-110109000D03*
X196726000Y-110109000D03*
X194053000Y-91059000D03*
X196853000Y-91059000D03*
X193926000Y-72009000D03*
X196726000Y-72009000D03*
X175003000Y-91059000D03*
X177803000Y-91059000D03*
X174876000Y-72009000D03*
X177676000Y-72009000D03*
X155953000Y-110109000D03*
X158753000Y-110109000D03*
X155953000Y-91186000D03*
X158753000Y-91186000D03*
X134363000Y-110236000D03*
X137163000Y-110236000D03*
X134236000Y-91186000D03*
X137036000Y-91186000D03*
X134236000Y-72136000D03*
X137036000Y-72136000D03*
X115313000Y-110236000D03*
X118113000Y-110236000D03*
X115186000Y-91186000D03*
X117986000Y-91186000D03*
X115186000Y-72136000D03*
X117986000Y-72136000D03*
X96263000Y-110236000D03*
X99063000Y-110236000D03*
X96263000Y-91186000D03*
X99063000Y-91186000D03*
X96136000Y-72136000D03*
X98936000Y-72136000D03*
X77086000Y-110236000D03*
X79886000Y-110236000D03*
X77213000Y-91186000D03*
X80013000Y-91186000D03*
X77086000Y-72136000D03*
X79886000Y-72136000D03*
X58036000Y-110236000D03*
X60836000Y-110236000D03*
X58163000Y-91186000D03*
X60963000Y-91186000D03*
X58036000Y-72136000D03*
X60836000Y-72136000D03*
X37087000Y-114935000D03*
X34287000Y-114935000D03*
M02*
