G04 #@! TF.GenerationSoftware,KiCad,Pcbnew,(5.1.4)-1*
G04 #@! TF.CreationDate,2020-11-18T14:17:54-05:00*
G04 #@! TF.ProjectId,splitty,73706c69-7474-4792-9e6b-696361645f70,rev?*
G04 #@! TF.SameCoordinates,Original*
G04 #@! TF.FileFunction,Profile,NP*
%FSLAX46Y46*%
G04 Gerber Fmt 4.6, Leading zero omitted, Abs format (unit mm)*
G04 Created by KiCad (PCBNEW (5.1.4)-1) date 2020-11-18 14:17:54*
%MOMM*%
%LPD*%
G04 APERTURE LIST*
%ADD10C,0.200000*%
G04 APERTURE END LIST*
D10*
X244263705Y-58876287D02*
X244312208Y-113097545D01*
X48661195Y-59051261D02*
X48709698Y-113272519D01*
X65627174Y-130241739D02*
G75*
G02X62632547Y-133247102I-2999995J-5368D01*
G01*
X65606880Y-118897962D02*
X65627175Y-130241740D01*
X44002663Y-116280945D02*
G75*
G02X46997291Y-113275583I2999995J5367D01*
G01*
X44027709Y-130280383D02*
X44002663Y-116280945D01*
X48709698Y-113272519D02*
X46997291Y-113275583D01*
X47033071Y-133275011D02*
G75*
G02X44027709Y-130280383I-5367J2999995D01*
G01*
X62632547Y-133247102D02*
X47033072Y-133275011D01*
X146513315Y-115825587D02*
G75*
G02X143516000Y-118828270I-2999999J-2684D01*
G01*
X65606880Y-118897962D02*
X143516000Y-118828270D01*
X48661195Y-59051261D02*
G75*
G02X51658528Y-56048579I2999999J2683D01*
G01*
X143459786Y-55966992D02*
G75*
G02X146462450Y-58964307I2666J-2999998D01*
G01*
X51658528Y-56048579D02*
X143459785Y-55966991D01*
X246024618Y-113097545D02*
G75*
G02X249024618Y-116097545I0J-3000000D01*
G01*
X249024618Y-130097005D02*
G75*
G02X246024618Y-133097005I-3000000J0D01*
G01*
X230425118Y-133097005D02*
G75*
G02X227425118Y-130097005I0J3000000D01*
G01*
X227425118Y-118753210D02*
X227425118Y-130097005D01*
X249024618Y-130097005D02*
X249024618Y-116097545D01*
X244312208Y-113097545D02*
X246024618Y-113097545D01*
X227425118Y-118753210D02*
X149515997Y-118822902D01*
X230425118Y-133097005D02*
X246024618Y-133097005D01*
X146462450Y-58964307D02*
G75*
G02X149459748Y-55961624I2999999J2684D01*
G01*
X241261005Y-55878972D02*
G75*
G02X244263705Y-58876287I2701J-2999999D01*
G01*
X149515998Y-118822902D02*
G75*
G02X146513315Y-115825587I-2684J2999999D01*
G01*
X241261005Y-55878972D02*
X149459748Y-55961624D01*
M02*
